####
#
# OBJ File Generated by Meshlab
#
####
# Object new.obj
#
# Vertices: 90
# Faces: 296
#
####
v 0.568778 0.028072 -0.006876
v -0.103111 -0.037631 -0.054145
v -0.353400 0.054394 0.057615
v -0.347176 -0.064465 0.084626
v -0.267720 -0.219104 0.084203
v -0.235906 -0.156494 0.054371
v -0.171108 0.133137 0.055412
v -0.215372 0.216756 0.042872
v 0.049030 0.249345 -0.054370
v 0.122555 -0.042923 -0.025968
v -0.046881 0.237007 0.055622
v 0.235560 0.090695 0.043410
v 0.347288 -0.168969 0.060385
v -0.283826 0.244268 0.057165
v 0.158285 -0.098994 0.055560
v 0.294205 -0.141612 0.045276
v -0.001968 0.304518 -0.054370
v 0.110569 0.085892 0.043400
v -0.043315 0.396588 0.056806
v -0.097506 0.205295 -0.054117
v 0.118060 -0.048808 -0.054372
v -0.170320 0.135633 -0.019617
v 0.237811 -0.200347 -0.053982
v 0.396119 -0.015039 0.007929
v 0.267603 -0.107979 0.055628
v 0.160839 -0.334915 -0.084251
v 0.230558 -0.051951 0.018331
v 0.377284 0.049228 0.023088
v 0.269090 -0.047180 0.042581
v 0.052162 0.289656 0.055630
v -0.329374 0.152964 -0.084277
v 0.228374 -0.301254 0.086008
v -0.202668 0.237557 -0.054370
v -0.041998 0.394396 -0.084201
v 0.104791 -0.038637 0.025416
v 0.208588 0.085132 -0.025108
v 0.113994 -0.032663 0.043581
v 0.377187 -0.098868 -0.084544
v 0.321048 -0.056363 -0.037204
v 0.189246 -0.225536 0.055630
v 0.227782 0.069601 0.025959
v 0.119860 0.124800 -0.054241
v 0.139881 0.082697 -0.054494
v 0.377578 -0.007592 -0.052686
v 0.377650 -0.097703 0.001476
v 0.394173 0.060868 -0.010510
v -0.245449 0.289334 -0.084594
v 0.369137 0.160825 0.056981
v -0.171889 -0.270996 -0.084309
v -0.278028 0.082508 -0.065047
v 0.160488 0.372188 -0.084376
v -0.292817 0.020732 0.055488
v -0.226861 -0.113819 0.054990
v -0.034092 -0.036237 0.035034
v -0.210138 0.018848 -0.032402
v 0.059404 -0.353964 0.055688
v 0.329133 0.244674 -0.084851
v -0.204041 0.016037 0.052692
v 0.313751 -0.223507 -0.056740
v -0.263380 -0.084890 -0.054078
v 0.374857 0.137225 -0.035090
v -0.073336 0.076592 -0.054257
v -0.088931 -0.347509 -0.084272
v -0.249102 -0.155741 -0.036430
v -0.246844 -0.032054 0.030656
v -0.356669 -0.027550 -0.084235
v -0.216488 -0.034063 -0.027022
v -0.092965 -0.136647 0.055570
v -0.253466 0.074375 -0.030589
v 0.019638 0.044084 -0.032054
v 0.020978 0.019065 0.044759
v 0.009324 -0.084359 0.042862
v -0.138171 -0.328766 0.060182
v 0.153488 0.253490 0.055356
v -0.069449 0.022183 0.054007
v 0.006291 0.370516 -0.084101
v 0.247083 0.332542 0.056709
v 0.008942 0.071070 0.015705
v 0.239518 0.252090 -0.054387
v -0.056948 -0.033436 0.015485
v 0.330204 0.103001 -0.039849
v -0.173613 -0.206402 -0.054370
v -0.207945 -0.131463 -0.019340
v -0.028243 0.093454 0.034479
v 0.262198 0.159237 0.055420
v -0.271283 -0.216497 -0.084402
v -0.156231 0.018566 0.036652
v -0.146741 -0.219422 0.050343
v -0.244259 0.072927 0.038365
v -0.198343 0.066932 0.031957
# 90 vertices, 0 vertices normals

f 36 70 18
f 84 18 70
f 84 70 78
f 70 84 78
f 72 84 54
f 50 69 60
f 24 39 29
f 65 58 89
f 69 90 78
f 46 81 61
f 46 28 81
f 28 12 81
f 20 50 33
f 84 62 89
f 59 49 82
f 67 72 80
f 67 70 10
f 65 2 60
f 89 90 58
f 89 58 84
f 72 54 75
f 5 73 6
f 29 37 12
f 24 46 45
f 32 26 59
f 56 63 26
f 65 58 75
f 5 86 73
f 36 18 12
f 17 11 9
f 52 14 3
f 89 84 75
f 37 18 71
f 46 48 45
f 48 13 45
f 68 58 53
f 69 65 89
f 13 59 38
f 82 49 60
f 72 54 2
f 87 75 54
f 35 41 27
f 21 59 82
f 72 21 2
f 74 85 77
f 85 48 77
f 80 72 54
f 65 80 54
f 30 74 77
f 80 35 54
f 25 48 85
f 13 48 25
f 19 11 30
f 85 15 25
f 11 74 30
f 14 8 19
f 25 13 16
f 25 40 13
f 11 7 75
f 75 68 15
f 7 58 75
f 11 30 9
f 58 68 75
f 52 58 7
f 52 53 58
f 45 13 38
f 19 8 11
f 41 36 12
f 76 51 57
f 61 76 57
f 71 84 75
f 37 35 10
f 76 34 51
f 72 71 75
f 32 13 56
f 76 50 47
f 50 66 31
f 63 49 59
f 45 38 39
f 49 86 66
f 86 49 63
f 73 86 63
f 52 3 53
f 18 42 43
f 37 72 21
f 42 9 79
f 5 6 3
f 48 57 77
f 44 28 46
f 10 39 27
f 46 61 81
f 41 54 35
f 42 85 74
f 10 35 72
f 84 87 75
f 89 58 90
f 12 36 41
f 78 90 84
f 84 70 78
f 89 84 75
f 71 72 84
f 38 23 39
f 20 8 22
f 12 36 41
f 39 29 27
f 36 12 41
f 81 43 42
f 33 20 8
f 28 29 12
f 5 4 86
f 4 66 86
f 36 12 46
f 74 85 42
f 46 24 44
f 35 37 72
f 81 44 46
f 40 68 56
f 78 80 65
f 24 46 28
f 54 84 75
f 10 36 39
f 67 65 69
f 3 66 4
f 70 10 36
f 14 31 3
f 71 72 84
f 67 55 69
f 90 58 65
f 41 18 36
f 75 15 11
f 29 28 24
f 44 28 1
f 79 76 61
f 14 52 7
f 54 65 75
f 39 45 24
f 64 53 6
f 58 65 54
f 68 53 83
f 90 65 84
f 44 24 1
f 49 66 50
f 28 24 29
f 71 75 84
f 84 58 75
f 37 71 72
f 50 31 47
f 24 39 44
f 18 37 12
f 75 58 87
f 15 74 11
f 24 45 44
f 76 47 34
f 29 37 27
f 87 65 75
f 89 90 69
f 37 18 71
f 12 28 46
f 69 65 89
f 14 47 31
f 23 25 15
f 3 6 53
f 19 47 14
f 50 62 69
f 72 71 75
f 14 7 8
f 39 21 29
f 19 34 47
f 67 10 72
f 19 30 77
f 44 61 46
f 58 90 89
f 55 58 90
f 20 17 9
f 44 28 46
f 24 46 28
f 12 43 81
f 90 58 54
f 67 80 65
f 54 72 75
f 81 42 79
f 29 39 24
f 76 17 33
f 13 40 56
f 53 6 83
f 89 69 62
f 77 51 19
f 37 27 35
f 30 11 17
f 27 37 35
f 29 37 21
f 79 85 42
f 54 58 65
f 46 61 48
f 84 54 41
f 27 37 10
f 11 8 20
f 65 54 84
f 70 69 78
f 59 23 38
f 10 27 37
f 67 55 69
f 55 58 90
f 22 7 20
f 24 28 46
f 76 79 17
f 37 29 12
f 68 88 56
f 33 8 20
f 24 28 1
f 28 46 44
f 58 54 75
f 58 84 75
f 90 65 87
f 90 87 84
f 84 54 75
f 5 3 4
f 77 57 51
f 58 75 87
f 3 31 66
f 15 40 23
f 87 84 89
f 18 37 12
f 22 8 7
f 20 7 11
f 58 90 78
f 89 58 90
f 32 56 26
f 65 54 75
f 58 90 52
f 90 58 52
f 61 57 48
f 39 45 24
f 39 24 44
f 69 65 60
f 19 51 34
f 39 44 45
f 44 81 61
f 44 1 24
f 79 42 85
f 88 68 83
f 28 24 46
f 15 68 40
f 21 23 59
f 16 13 25
f 2 82 60
f 42 62 9
f 62 20 9
f 20 62 50
f 17 20 33
f 50 76 33
f 65 2 54
f 61 81 79
f 49 50 60
f 9 30 17
f 63 59 26
f 6 53 64
f 58 89 78
f 90 58 78
f 58 78 65
f 80 78 35
f 78 41 35
f 90 87 89
f 90 87 54
f 84 87 75
f 79 9 17
f 35 27 41
f 85 74 15
f 78 84 41
f 84 78 89
f 80 54 65
f 88 6 73
f 24 28 1
f 55 90 58
f 18 12 43
f 84 71 18
f 84 62 42
f 67 69 70
f 72 84 54
f 18 41 36
f 28 46 44
f 44 1 24
f 23 40 25
f 83 6 88
f 21 39 23
f 21 82 2
f 90 58 84
f 56 73 63
f 37 27 10
f 56 88 73
f 58 90 65
f 13 32 59
f 42 84 18
f 39 36 44
f 55 58 90
f 36 46 44
# 296 faces, 0 coords texture

# End of File
