mtllib base_link_visuals_mesh_1.mtl
v -0.2349968999624252 -0.3965823650360107 0.21865080296993256
v -0.23499685525894162 -0.3965823650360107 0.22023829817771912
v -0.2349969297647476 -0.3949949145317077 0.22023829817771912
v -0.2349969297647476 -0.3949949145317077 0.22023829817771912
v -0.2349968999624252 -0.3949949145317077 0.21865080296993256
v -0.2349968999624252 -0.3965823650360107 0.21865080296993256
v -0.2349969297647476 -0.3949949145317077 0.22023829817771912
v 0.23499710857868192 -0.39499485492706293 0.22023826837539673
v 0.23499710857868192 -0.3445830047130584 0.22023826837539673
v 0.23499710857868192 -0.3445830047130584 0.22023826837539673
v -0.2349969297647476 -0.3445830643177032 0.22023829817771912
v -0.2349969297647476 -0.3949949145317077 0.22023829817771912
v 0.23499707877635953 -0.39499485492706293 0.21865077316761017
v 0.23499710857868192 -0.39499485492706293 0.22023826837539673
v 0.23499706387519834 -0.3965823054313659 0.22023826837539673
v 0.23499706387519834 -0.3965823054313659 0.22023826837539673
v 0.23499707877635953 -0.3965823054313659 0.21865077316761017
v 0.23499707877635953 -0.39499485492706293 0.21865077316761017
v 0.23499707877635953 -0.3965823054313659 0.21865077316761017
v 0.23499706387519834 -0.3965823054313659 0.22023826837539673
v -0.23499685525894162 -0.3965823650360107 0.22023829817771912
v -0.23499685525894162 -0.3965823650360107 0.22023829817771912
v -0.2349968999624252 -0.3965823650360107 0.21865080296993256
v 0.23499707877635953 -0.3965823054313659 0.21865077316761017
v 0.23499710857868192 -0.3965823054313659 0.005241066217422485
v -0.2349969297647476 -0.3965823650360107 0.005241066217422485
v -0.234996885061264 -0.3949949145317077 0.005241066217422485
v -0.234996885061264 -0.3949949145317077 0.005241066217422485
v 0.23499703407287595 -0.39499485492706293 0.005241066217422485
v 0.23499710857868192 -0.3965823054313659 0.005241066217422485
v 0.23499710857868192 -0.39499485492706293 0.22023826837539673
v -0.2349969297647476 -0.3949949145317077 0.22023829817771912
v -0.23499685525894162 -0.3965823650360107 0.22023829817771912
v -0.23499685525894162 -0.3965823650360107 0.22023829817771912
v 0.23499706387519834 -0.3965823054313659 0.22023826837539673
v 0.23499710857868192 -0.39499485492706293 0.22023826837539673
v -0.2349968999624252 -0.3965823650360107 0.21865080296993256
v -0.2349969297647476 -0.3965823650360107 0.005241066217422485
v 0.23499710857868192 -0.3965823054313659 0.005241066217422485
v 0.23499710857868192 -0.3965823054313659 0.005241066217422485
v 0.23499707877635953 -0.3965823054313659 0.21865077316761017
v -0.2349968999624252 -0.3965823650360107 0.21865080296993256
v 0.23499703407287595 -0.39499485492706293 0.005241066217422485
v 0.23499707877635953 -0.39499485492706293 0.21865077316761017
v 0.23499707877635953 -0.3965823054313659 0.21865077316761017
v 0.23499707877635953 -0.3965823054313659 0.21865077316761017
v 0.23499710857868192 -0.3965823054313659 0.005241066217422485
v 0.23499703407287595 -0.39499485492706293 0.005241066217422485
v -0.234996885061264 -0.3949949145317077 0.005241066217422485
v -0.2349968999624252 -0.3949949145317077 0.21865080296993256
v 0.23499707877635953 -0.39499485492706293 0.21865077316761017
v 0.23499707877635953 -0.39499485492706293 0.21865077316761017
v 0.23499703407287595 -0.39499485492706293 0.005241066217422485
v -0.234996885061264 -0.3949949145317077 0.005241066217422485
v -0.2349969297647476 -0.3965823650360107 0.005241066217422485
v -0.2349968999624252 -0.3965823650360107 0.21865080296993256
v -0.2349968999624252 -0.3949949145317077 0.21865080296993256
v -0.2349968999624252 -0.3949949145317077 0.21865080296993256
v -0.234996885061264 -0.3949949145317077 0.005241066217422485
v -0.2349969297647476 -0.3965823650360107 0.005241066217422485
v -0.2349968999624252 -0.3445830643177032 0.21865080296993256
v -0.2349969297647476 -0.3445830643177032 0.22023829817771912
v 0.23499710857868192 -0.3445830047130584 0.22023826837539673
v 0.23499710857868192 -0.3445830047130584 0.22023826837539673
v 0.23499707877635953 -0.3445830047130584 0.21865077316761017
v -0.2349968999624252 -0.3445830643177032 0.21865080296993256
v -0.2349968999624252 -0.3949949145317077 0.21865080296993256
v -0.2349969297647476 -0.3949949145317077 0.22023829817771912
v -0.2349969297647476 -0.3445830643177032 0.22023829817771912
v -0.2349969297647476 -0.3445830643177032 0.22023829817771912
v -0.2349968999624252 -0.3445830643177032 0.21865080296993256
v -0.2349968999624252 -0.3949949145317077 0.21865080296993256
v 0.23499707877635953 -0.39499485492706293 0.21865077316761017
v -0.2349968999624252 -0.3949949145317077 0.21865080296993256
v -0.2349968999624252 -0.3445830643177032 0.21865080296993256
v -0.2349968999624252 -0.3445830643177032 0.21865080296993256
v 0.23499707877635953 -0.3445830047130584 0.21865077316761017
v 0.23499707877635953 -0.39499485492706293 0.21865077316761017
v 0.23499710857868192 -0.39499485492706293 0.22023826837539673
v 0.23499707877635953 -0.39499485492706293 0.21865077316761017
v 0.23499707877635953 -0.3445830047130584 0.21865077316761017
v 0.23499707877635953 -0.3445830047130584 0.21865077316761017
v 0.23499710857868192 -0.3445830047130584 0.22023826837539673
v 0.23499710857868192 -0.39499485492706293 0.22023826837539673
usemtl material_yellow
f 1 2 3
f 4 5 6
f 7 8 9
f 10 11 12
f 13 14 15
f 16 17 18
f 19 20 21
f 22 23 24
f 25 26 27
f 28 29 30
f 31 32 33
f 34 35 36
f 37 38 39
f 40 41 42
f 43 44 45
f 46 47 48
f 49 50 51
f 52 53 54
f 55 56 57
f 58 59 60
f 61 62 63
f 64 65 66
f 67 68 69
f 70 71 72
f 73 74 75
f 76 77 78
f 79 80 81
f 82 83 84
