mtllib mesh_6.mtl
v 0.3619278669357299 0.36193048954010004 0.18768128752708435
v 0.3757579624652862 0.3489022850990295 0.18768128752708435
v 0.3757579326629638 0.3489022552967071 0.09853066504001617
v 0.3757579326629638 0.3489022552967071 0.09853066504001617
v 0.3619278967380523 0.36193042993545527 0.09853066504001617
v 0.3619278669357299 0.36193048954010004 0.18768128752708435
v 0.3111348450183868 0.3868466913700103 0.18768128752708435
v 0.3292506039142608 0.3811174035072326 0.18768128752708435
v 0.3292506337165832 0.3811173737049102 0.09853066504001617
v 0.3292506337165832 0.3811173737049102 0.09853066504001617
v 0.3111348450183868 0.38684666156768793 0.09853066504001617
v 0.3111348450183868 0.3868466913700103 0.18768128752708435
v 0.3292506039142608 0.3811174035072326 0.18768128752708435
v 0.34630888700485224 0.3727495968341827 0.18768128752708435
v 0.34630888700485224 0.3727495670318603 0.09853066504001617
v 0.34630888700485224 0.3727495670318603 0.09853066504001617
v 0.3292506337165832 0.3811173737049102 0.09853066504001617
v 0.3292506039142608 0.3811174035072326 0.18768128752708435
v 0.34630888700485224 0.3727495968341827 0.18768128752708435
v 0.3619278669357299 0.36193048954010004 0.18768128752708435
v 0.3619278967380523 0.36193042993545527 0.09853066504001617
v 0.3619278967380523 0.36193042993545527 0.09853066504001617
v 0.34630888700485224 0.3727495670318603 0.09853066504001617
v 0.34630888700485224 0.3727495968341827 0.18768128752708435
v 0.3968600928783416 0.317427784204483 0.18768128752708435
v 0.40365988016128534 0.2996860742568969 0.18768128752708435
v 0.40365988016128534 0.29968604445457453 0.09853066504001617
v 0.40365988016128534 0.29968604445457453 0.09853066504001617
v 0.3968600928783416 0.3174277544021606 0.09853066504001617
v 0.3968600928783416 0.317427784204483 0.18768128752708435
v 0.3874895572662353 0.33395653963088984 0.18768128752708435
v 0.3968600928783416 0.317427784204483 0.18768128752708435
v 0.3968600928783416 0.3174277544021606 0.09853066504001617
v 0.3968600928783416 0.3174277544021606 0.09853066504001617
v 0.3874895572662353 0.33395650982856745 0.09853066504001617
v 0.3874895572662353 0.33395653963088984 0.18768128752708435
v 0.3757579624652862 0.3489022850990295 0.18768128752708435
v 0.3874895572662353 0.33395653963088984 0.18768128752708435
v 0.3874895572662353 0.33395650982856745 0.09853066504001617
v 0.3874895572662353 0.33395650982856745 0.09853066504001617
v 0.3757579326629638 0.3489022552967071 0.09853066504001617
v 0.3757579624652862 0.3489022850990295 0.18768128752708435
v 0.29236710071563715 0.3898091614246368 0.18768128752708435
v 0.3111348450183868 0.3868466913700103 0.18768128752708435
v 0.3111348450183868 0.38684666156768793 0.09853066504001617
v 0.3111348450183868 0.38684666156768793 0.09853066504001617
v 0.29236713051795954 0.389809101819992 0.09853066504001617
v 0.29236710071563715 0.3898091614246368 0.18768128752708435
v 0.35829570889472956 0.35751461982727045 0.18768128752708435
v 0.35829573869705195 0.3575145602226257 0.09853066504001617
v 0.371505320072174 0.345070868730545 0.09853066504001617
v 0.371505320072174 0.345070868730545 0.09853066504001617
v 0.3715053498744964 0.3450708985328674 0.18768128752708435
v 0.35829570889472956 0.35751461982727045 0.18768128752708435
v 0.3097814321517944 0.38131299614906305 0.18768128752708435
v 0.3097814321517944 0.38131296634674067 0.09853066504001617
v 0.32708448171615595 0.37584069371223444 0.09853066504001617
v 0.32708448171615595 0.37584069371223444 0.09853066504001617
v 0.32708445191383356 0.37584072351455683 0.18768128752708435
v 0.3097814321517944 0.38131299614906305 0.18768128752708435
v 0.32708445191383356 0.37584072351455683 0.18768128752708435
v 0.32708448171615595 0.37584069371223444 0.09853066504001617
v 0.34337744116783137 0.3678483068943023 0.09853066504001617
v 0.34337744116783137 0.3678483068943023 0.09853066504001617
v 0.34337744116783137 0.3678483366966247 0.18768128752708435
v 0.32708445191383356 0.37584072351455683 0.18768128752708435
v 0.34337744116783137 0.3678483366966247 0.18768128752708435
v 0.34337744116783137 0.3678483068943023 0.09853066504001617
v 0.35829573869705195 0.3575145602226257 0.09853066504001617
v 0.35829573869705195 0.3575145602226257 0.09853066504001617
v 0.35829570889472956 0.35751461982727045 0.18768128752708435
v 0.34337744116783137 0.3678483366966247 0.18768128752708435
v 0.3916607797145843 0.31500843167304987 0.18768128752708435
v 0.3916607797145843 0.3150084018707275 0.09853066504001617
v 0.3981554806232452 0.298062652349472 0.09853066504001617
v 0.3981554806232452 0.298062652349472 0.09853066504001617
v 0.3981554806232452 0.2980626821517944 0.18768128752708435
v 0.3916607797145843 0.31500843167304987 0.18768128752708435
v 0.3827106356620788 0.3307956457138061 0.18768128752708435
v 0.3827106356620788 0.3307956159114837 0.09853066504001617
v 0.3916607797145843 0.3150084018707275 0.09853066504001617
v 0.3916607797145843 0.3150084018707275 0.09853066504001617
v 0.3916607797145843 0.31500843167304987 0.18768128752708435
v 0.3827106356620788 0.3307956457138061 0.18768128752708435
v 0.3715053498744964 0.3450708985328674 0.18768128752708435
v 0.371505320072174 0.345070868730545 0.09853066504001617
v 0.3827106356620788 0.3307956159114837 0.09853066504001617
v 0.3827106356620788 0.3307956159114837 0.09853066504001617
v 0.3827106356620788 0.3307956457138061 0.18768128752708435
v 0.3715053498744964 0.3450708985328674 0.18768128752708435
v 0.2918556630611419 0.3841425478458404 0.18768128752708435
v 0.2918556928634643 0.3841424882411956 0.09853066504001617
v 0.3097814321517944 0.38131296634674067 0.09853066504001617
v 0.3097814321517944 0.38131296634674067 0.09853066504001617
v 0.3097814321517944 0.38131299614906305 0.18768128752708435
v 0.2918556630611419 0.3841425478458404 0.18768128752708435
v 0.40365988016128534 0.2996860742568969 0.18768128752708435
v 0.3968600928783416 0.317427784204483 0.18768128752708435
v 0.3916607797145843 0.31500843167304987 0.18768128752708435
v 0.3916607797145843 0.31500843167304987 0.18768128752708435
v 0.3981554806232452 0.2980626821517944 0.18768128752708435
v 0.40365988016128534 0.2996860742568969 0.18768128752708435
v 0.3292506337165832 0.3811173737049102 0.09853066504001617
v 0.34630888700485224 0.3727495670318603 0.09853066504001617
v 0.34337744116783137 0.3678483068943023 0.09853066504001617
v 0.34337744116783137 0.3678483068943023 0.09853066504001617
v 0.32708448171615595 0.37584069371223444 0.09853066504001617
v 0.3292506337165832 0.3811173737049102 0.09853066504001617
v 0.29236710071563715 0.3898091614246368 0.18768128752708435
v 0.29236713051795954 0.389809101819992 0.09853066504001617
v 0.2918556928634643 0.3841424882411956 0.09853066504001617
v 0.2918556928634643 0.3841424882411956 0.09853066504001617
v 0.2918556630611419 0.3841425478458404 0.18768128752708435
v 0.29236710071563715 0.3898091614246368 0.18768128752708435
v 0.3874895572662353 0.33395653963088984 0.18768128752708435
v 0.3757579624652862 0.3489022850990295 0.18768128752708435
v 0.3715053498744964 0.3450708985328674 0.18768128752708435
v 0.3715053498744964 0.3450708985328674 0.18768128752708435
v 0.3827106356620788 0.3307956457138061 0.18768128752708435
v 0.3874895572662353 0.33395653963088984 0.18768128752708435
v 0.40365988016128534 0.29968604445457453 0.09853066504001617
v 0.40365988016128534 0.2996860742568969 0.18768128752708435
v 0.3981554806232452 0.2980626821517944 0.18768128752708435
v 0.3981554806232452 0.2980626821517944 0.18768128752708435
v 0.3981554806232452 0.298062652349472 0.09853066504001617
v 0.40365988016128534 0.29968604445457453 0.09853066504001617
v 0.34630888700485224 0.3727495670318603 0.09853066504001617
v 0.3619278967380523 0.36193042993545527 0.09853066504001617
v 0.35829573869705195 0.3575145602226257 0.09853066504001617
v 0.35829573869705195 0.3575145602226257 0.09853066504001617
v 0.34337744116783137 0.3678483068943023 0.09853066504001617
v 0.34630888700485224 0.3727495670318603 0.09853066504001617
v 0.3968600928783416 0.3174277544021606 0.09853066504001617
v 0.40365988016128534 0.29968604445457453 0.09853066504001617
v 0.3981554806232452 0.298062652349472 0.09853066504001617
v 0.3981554806232452 0.298062652349472 0.09853066504001617
v 0.3916607797145843 0.3150084018707275 0.09853066504001617
v 0.3968600928783416 0.3174277544021606 0.09853066504001617
v 0.29236713051795954 0.389809101819992 0.09853066504001617
v 0.3111348450183868 0.38684666156768793 0.09853066504001617
v 0.3097814321517944 0.38131296634674067 0.09853066504001617
v 0.3097814321517944 0.38131296634674067 0.09853066504001617
v 0.2918556928634643 0.3841424882411956 0.09853066504001617
v 0.29236713051795954 0.389809101819992 0.09853066504001617
v 0.3757579624652862 0.3489022850990295 0.18768128752708435
v 0.3619278669357299 0.36193048954010004 0.18768128752708435
v 0.35829570889472956 0.35751461982727045 0.18768128752708435
v 0.35829570889472956 0.35751461982727045 0.18768128752708435
v 0.3715053498744964 0.3450708985328674 0.18768128752708435
v 0.3757579624652862 0.3489022850990295 0.18768128752708435
v 0.3111348450183868 0.38684666156768793 0.09853066504001617
v 0.3292506337165832 0.3811173737049102 0.09853066504001617
v 0.32708448171615595 0.37584069371223444 0.09853066504001617
v 0.32708448171615595 0.37584069371223444 0.09853066504001617
v 0.3097814321517944 0.38131296634674067 0.09853066504001617
v 0.3111348450183868 0.38684666156768793 0.09853066504001617
v 0.3292506039142608 0.3811174035072326 0.18768128752708435
v 0.3111348450183868 0.3868466913700103 0.18768128752708435
v 0.3097814321517944 0.38131299614906305 0.18768128752708435
v 0.3097814321517944 0.38131299614906305 0.18768128752708435
v 0.32708445191383356 0.37584072351455683 0.18768128752708435
v 0.3292506039142608 0.3811174035072326 0.18768128752708435
v 0.3619278967380523 0.36193042993545527 0.09853066504001617
v 0.3757579326629638 0.3489022552967071 0.09853066504001617
v 0.371505320072174 0.345070868730545 0.09853066504001617
v 0.371505320072174 0.345070868730545 0.09853066504001617
v 0.35829573869705195 0.3575145602226257 0.09853066504001617
v 0.3619278967380523 0.36193042993545527 0.09853066504001617
v 0.3111348450183868 0.3868466913700103 0.18768128752708435
v 0.29236710071563715 0.3898091614246368 0.18768128752708435
v 0.2918556630611419 0.3841425478458404 0.18768128752708435
v 0.2918556630611419 0.3841425478458404 0.18768128752708435
v 0.3097814321517944 0.38131299614906305 0.18768128752708435
v 0.3111348450183868 0.3868466913700103 0.18768128752708435
v 0.3757579326629638 0.3489022552967071 0.09853066504001617
v 0.3874895572662353 0.33395650982856745 0.09853066504001617
v 0.3827106356620788 0.3307956159114837 0.09853066504001617
v 0.3827106356620788 0.3307956159114837 0.09853066504001617
v 0.371505320072174 0.345070868730545 0.09853066504001617
v 0.3757579326629638 0.3489022552967071 0.09853066504001617
v 0.3619278669357299 0.36193048954010004 0.18768128752708435
v 0.34630888700485224 0.3727495968341827 0.18768128752708435
v 0.34337744116783137 0.3678483366966247 0.18768128752708435
v 0.34337744116783137 0.3678483366966247 0.18768128752708435
v 0.35829570889472956 0.35751461982727045 0.18768128752708435
v 0.3619278669357299 0.36193048954010004 0.18768128752708435
v 0.3874895572662353 0.33395650982856745 0.09853066504001617
v 0.3968600928783416 0.3174277544021606 0.09853066504001617
v 0.3916607797145843 0.3150084018707275 0.09853066504001617
v 0.3916607797145843 0.3150084018707275 0.09853066504001617
v 0.3827106356620788 0.3307956159114837 0.09853066504001617
v 0.3874895572662353 0.33395650982856745 0.09853066504001617
v 0.34630888700485224 0.3727495968341827 0.18768128752708435
v 0.3292506039142608 0.3811174035072326 0.18768128752708435
v 0.32708445191383356 0.37584072351455683 0.18768128752708435
v 0.32708445191383356 0.37584072351455683 0.18768128752708435
v 0.34337744116783137 0.3678483366966247 0.18768128752708435
v 0.34630888700485224 0.3727495968341827 0.18768128752708435
v 0.3968600928783416 0.317427784204483 0.18768128752708435
v 0.3874895572662353 0.33395653963088984 0.18768128752708435
v 0.3827106356620788 0.3307956457138061 0.18768128752708435
v 0.3827106356620788 0.3307956457138061 0.18768128752708435
v 0.3916607797145843 0.31500843167304987 0.18768128752708435
v 0.3968600928783416 0.317427784204483 0.18768128752708435
v 0.3619278669357299 -0.36193048954010004 0.18768128752708435
v 0.3619278967380523 -0.36193042993545527 0.09853066504001617
v 0.3757579326629638 -0.3489021956920623 0.09853066504001617
v 0.3757579326629638 -0.3489021956920623 0.09853066504001617
v 0.3757579326629638 -0.3489022850990295 0.18768128752708435
v 0.3619278669357299 -0.36193048954010004 0.18768128752708435
v 0.3111348748207092 -0.3868466913700103 0.18768128752708435
v 0.3111348450183868 -0.38684666156768793 0.09853066504001617
v 0.3292506337165832 -0.3811173737049102 0.09853066504001617
v 0.3292506337165832 -0.3811173737049102 0.09853066504001617
v 0.3292506039142608 -0.3811174035072326 0.18768128752708435
v 0.3111348748207092 -0.3868466913700103 0.18768128752708435
v 0.3292506039142608 -0.3811174035072326 0.18768128752708435
v 0.3292506337165832 -0.3811173737049102 0.09853066504001617
v 0.34630888700485224 -0.3727495670318603 0.09853066504001617
v 0.34630888700485224 -0.3727495670318603 0.09853066504001617
v 0.34630888700485224 -0.37274965643882746 0.18768128752708435
v 0.3292506039142608 -0.3811174035072326 0.18768128752708435
v 0.34630888700485224 -0.37274965643882746 0.18768128752708435
v 0.34630888700485224 -0.3727495670318603 0.09853066504001617
v 0.3619278967380523 -0.36193042993545527 0.09853066504001617
v 0.3619278967380523 -0.36193042993545527 0.09853066504001617
v 0.3619278669357299 -0.36193048954010004 0.18768128752708435
v 0.34630888700485224 -0.37274965643882746 0.18768128752708435
v 0.3968600928783416 -0.317427784204483 0.18768128752708435
v 0.3968600928783416 -0.3174277544021606 0.09853066504001617
v 0.40365988016128534 -0.29968604445457453 0.09853066504001617
v 0.40365988016128534 -0.29968604445457453 0.09853066504001617
v 0.40365988016128534 -0.2996860742568969 0.18768128752708435
v 0.3968600928783416 -0.317427784204483 0.18768128752708435
v 0.3874895572662353 -0.33395653963088984 0.18768128752708435
v 0.3874895572662353 -0.3339564502239227 0.09853066504001617
v 0.3968600928783416 -0.3174277544021606 0.09853066504001617
v 0.3968600928783416 -0.3174277544021606 0.09853066504001617
v 0.3968600928783416 -0.317427784204483 0.18768128752708435
v 0.3874895572662353 -0.33395653963088984 0.18768128752708435
v 0.3757579326629638 -0.3489022850990295 0.18768128752708435
v 0.3757579326629638 -0.3489021956920623 0.09853066504001617
v 0.3874895572662353 -0.3339564502239227 0.09853066504001617
v 0.3874895572662353 -0.3339564502239227 0.09853066504001617
v 0.3874895572662353 -0.33395653963088984 0.18768128752708435
v 0.3757579326629638 -0.3489022850990295 0.18768128752708435
v 0.29236713051795954 -0.3898091614246368 0.18768128752708435
v 0.29236713051795954 -0.389809101819992 0.09853066504001617
v 0.3111348450183868 -0.38684666156768793 0.09853066504001617
v 0.3111348450183868 -0.38684666156768793 0.09853066504001617
v 0.3111348748207092 -0.3868466913700103 0.18768128752708435
v 0.29236713051795954 -0.3898091614246368 0.18768128752708435
v 0.35829570889472956 -0.35751461982727045 0.18768128752708435
v 0.371505320072174 -0.3450708985328674 0.18768128752708435
v 0.371505320072174 -0.3450708091259002 0.09853066504001617
v 0.371505320072174 -0.3450708091259002 0.09853066504001617
v 0.35829573869705195 -0.3575145602226257 0.09853066504001617
v 0.35829570889472956 -0.35751461982727045 0.18768128752708435
v 0.3097814321517944 -0.38131299614906305 0.18768128752708435
v 0.32708445191383356 -0.37584072351455683 0.18768128752708435
v 0.32708448171615595 -0.37584069371223444 0.09853066504001617
v 0.32708448171615595 -0.37584069371223444 0.09853066504001617
v 0.3097814321517944 -0.38131296634674067 0.09853066504001617
v 0.3097814321517944 -0.38131299614906305 0.18768128752708435
v 0.32708445191383356 -0.37584072351455683 0.18768128752708435
v 0.34337744116783137 -0.3678483366966247 0.18768128752708435
v 0.34337744116783137 -0.3678483664989471 0.09853066504001617
v 0.34337744116783137 -0.3678483664989471 0.09853066504001617
v 0.32708448171615595 -0.37584069371223444 0.09853066504001617
v 0.32708445191383356 -0.37584072351455683 0.18768128752708435
v 0.34337744116783137 -0.3678483366966247 0.18768128752708435
v 0.35829570889472956 -0.35751461982727045 0.18768128752708435
v 0.35829573869705195 -0.3575145602226257 0.09853066504001617
v 0.35829573869705195 -0.3575145602226257 0.09853066504001617
v 0.34337744116783137 -0.3678483664989471 0.09853066504001617
v 0.34337744116783137 -0.3678483366966247 0.18768128752708435
v 0.3916607797145843 -0.3150083720684051 0.18768128752708435
v 0.3981554806232452 -0.2980626821517944 0.18768128752708435
v 0.3981554806232452 -0.298062652349472 0.09853066504001617
v 0.3981554806232452 -0.298062652349472 0.09853066504001617
v 0.3916607797145843 -0.3150084018707275 0.09853066504001617
v 0.3916607797145843 -0.3150083720684051 0.18768128752708435
v 0.3827106356620788 -0.3307956457138061 0.18768128752708435
v 0.3916607797145843 -0.3150083720684051 0.18768128752708435
v 0.3916607797145843 -0.3150084018707275 0.09853066504001617
v 0.3916607797145843 -0.3150084018707275 0.09853066504001617
v 0.3827106356620788 -0.33079555630683893 0.09853066504001617
v 0.3827106356620788 -0.3307956457138061 0.18768128752708435
v 0.371505320072174 -0.3450708985328674 0.18768128752708435
v 0.3827106356620788 -0.3307956457138061 0.18768128752708435
v 0.3827106356620788 -0.33079555630683893 0.09853066504001617
v 0.3827106356620788 -0.33079555630683893 0.09853066504001617
v 0.371505320072174 -0.3450708091259002 0.09853066504001617
v 0.371505320072174 -0.3450708985328674 0.18768128752708435
v 0.2918556928634643 -0.3841425478458404 0.18768128752708435
v 0.3097814321517944 -0.38131299614906305 0.18768128752708435
v 0.3097814321517944 -0.38131296634674067 0.09853066504001617
v 0.3097814321517944 -0.38131296634674067 0.09853066504001617
v 0.2918556928634643 -0.3841424882411956 0.09853066504001617
v 0.2918556928634643 -0.3841425478458404 0.18768128752708435
v 0.40365988016128534 -0.2996860742568969 0.18768128752708435
v 0.3981554806232452 -0.2980626821517944 0.18768128752708435
v 0.3916607797145843 -0.3150083720684051 0.18768128752708435
v 0.3916607797145843 -0.3150083720684051 0.18768128752708435
v 0.3968600928783416 -0.317427784204483 0.18768128752708435
v 0.40365988016128534 -0.2996860742568969 0.18768128752708435
v 0.3292506337165832 -0.3811173737049102 0.09853066504001617
v 0.32708448171615595 -0.37584069371223444 0.09853066504001617
v 0.34337744116783137 -0.3678483664989471 0.09853066504001617
v 0.34337744116783137 -0.3678483664989471 0.09853066504001617
v 0.34630888700485224 -0.3727495670318603 0.09853066504001617
v 0.3292506337165832 -0.3811173737049102 0.09853066504001617
v 0.29236713051795954 -0.3898091614246368 0.18768128752708435
v 0.2918556928634643 -0.3841425478458404 0.18768128752708435
v 0.2918556928634643 -0.3841424882411956 0.09853066504001617
v 0.2918556928634643 -0.3841424882411956 0.09853066504001617
v 0.29236713051795954 -0.389809101819992 0.09853066504001617
v 0.29236713051795954 -0.3898091614246368 0.18768128752708435
v 0.3874895572662353 -0.33395653963088984 0.18768128752708435
v 0.3827106356620788 -0.3307956457138061 0.18768128752708435
v 0.371505320072174 -0.3450708985328674 0.18768128752708435
v 0.371505320072174 -0.3450708985328674 0.18768128752708435
v 0.3757579326629638 -0.3489022850990295 0.18768128752708435
v 0.3874895572662353 -0.33395653963088984 0.18768128752708435
v 0.40365988016128534 -0.29968604445457453 0.09853066504001617
v 0.3981554806232452 -0.298062652349472 0.09853066504001617
v 0.3981554806232452 -0.2980626821517944 0.18768128752708435
v 0.3981554806232452 -0.2980626821517944 0.18768128752708435
v 0.40365988016128534 -0.2996860742568969 0.18768128752708435
v 0.40365988016128534 -0.29968604445457453 0.09853066504001617
v 0.34630888700485224 -0.3727495670318603 0.09853066504001617
v 0.34337744116783137 -0.3678483664989471 0.09853066504001617
v 0.35829573869705195 -0.3575145602226257 0.09853066504001617
v 0.35829573869705195 -0.3575145602226257 0.09853066504001617
v 0.3619278967380523 -0.36193042993545527 0.09853066504001617
v 0.34630888700485224 -0.3727495670318603 0.09853066504001617
v 0.3968600928783416 -0.3174277544021606 0.09853066504001617
v 0.3916607797145843 -0.3150084018707275 0.09853066504001617
v 0.3981554806232452 -0.298062652349472 0.09853066504001617
v 0.3981554806232452 -0.298062652349472 0.09853066504001617
v 0.40365988016128534 -0.29968604445457453 0.09853066504001617
v 0.3968600928783416 -0.3174277544021606 0.09853066504001617
v 0.29236713051795954 -0.389809101819992 0.09853066504001617
v 0.2918556928634643 -0.3841424882411956 0.09853066504001617
v 0.3097814321517944 -0.38131296634674067 0.09853066504001617
v 0.3097814321517944 -0.38131296634674067 0.09853066504001617
v 0.3111348450183868 -0.38684666156768793 0.09853066504001617
v 0.29236713051795954 -0.389809101819992 0.09853066504001617
v 0.3757579326629638 -0.3489022850990295 0.18768128752708435
v 0.371505320072174 -0.3450708985328674 0.18768128752708435
v 0.35829570889472956 -0.35751461982727045 0.18768128752708435
v 0.35829570889472956 -0.35751461982727045 0.18768128752708435
v 0.3619278669357299 -0.36193048954010004 0.18768128752708435
v 0.3757579326629638 -0.3489022850990295 0.18768128752708435
v 0.3111348450183868 -0.38684666156768793 0.09853066504001617
v 0.3097814321517944 -0.38131296634674067 0.09853066504001617
v 0.32708448171615595 -0.37584069371223444 0.09853066504001617
v 0.32708448171615595 -0.37584069371223444 0.09853066504001617
v 0.3292506337165832 -0.3811173737049102 0.09853066504001617
v 0.3111348450183868 -0.38684666156768793 0.09853066504001617
v 0.3292506039142608 -0.3811174035072326 0.18768128752708435
v 0.32708445191383356 -0.37584072351455683 0.18768128752708435
v 0.3097814321517944 -0.38131299614906305 0.18768128752708435
v 0.3097814321517944 -0.38131299614906305 0.18768128752708435
v 0.3111348748207092 -0.3868466913700103 0.18768128752708435
v 0.3292506039142608 -0.3811174035072326 0.18768128752708435
v 0.3619278967380523 -0.36193042993545527 0.09853066504001617
v 0.35829573869705195 -0.3575145602226257 0.09853066504001617
v 0.371505320072174 -0.3450708091259002 0.09853066504001617
v 0.371505320072174 -0.3450708091259002 0.09853066504001617
v 0.3757579326629638 -0.3489021956920623 0.09853066504001617
v 0.3619278967380523 -0.36193042993545527 0.09853066504001617
v 0.3111348748207092 -0.3868466913700103 0.18768128752708435
v 0.3097814321517944 -0.38131299614906305 0.18768128752708435
v 0.2918556928634643 -0.3841425478458404 0.18768128752708435
v 0.2918556928634643 -0.3841425478458404 0.18768128752708435
v 0.29236713051795954 -0.3898091614246368 0.18768128752708435
v 0.3111348748207092 -0.3868466913700103 0.18768128752708435
v 0.3757579326629638 -0.3489021956920623 0.09853066504001617
v 0.371505320072174 -0.3450708091259002 0.09853066504001617
v 0.3827106356620788 -0.33079555630683893 0.09853066504001617
v 0.3827106356620788 -0.33079555630683893 0.09853066504001617
v 0.3874895572662353 -0.3339564502239227 0.09853066504001617
v 0.3757579326629638 -0.3489021956920623 0.09853066504001617
v 0.3619278669357299 -0.36193048954010004 0.18768128752708435
v 0.35829570889472956 -0.35751461982727045 0.18768128752708435
v 0.34337744116783137 -0.3678483366966247 0.18768128752708435
v 0.34337744116783137 -0.3678483366966247 0.18768128752708435
v 0.34630888700485224 -0.37274965643882746 0.18768128752708435
v 0.3619278669357299 -0.36193048954010004 0.18768128752708435
v 0.3874895572662353 -0.3339564502239227 0.09853066504001617
v 0.3827106356620788 -0.33079555630683893 0.09853066504001617
v 0.3916607797145843 -0.3150084018707275 0.09853066504001617
v 0.3916607797145843 -0.3150084018707275 0.09853066504001617
v 0.3968600928783416 -0.3174277544021606 0.09853066504001617
v 0.3874895572662353 -0.3339564502239227 0.09853066504001617
v 0.34630888700485224 -0.37274965643882746 0.18768128752708435
v 0.34337744116783137 -0.3678483366966247 0.18768128752708435
v 0.32708445191383356 -0.37584072351455683 0.18768128752708435
v 0.32708445191383356 -0.37584072351455683 0.18768128752708435
v 0.3292506039142608 -0.3811174035072326 0.18768128752708435
v 0.34630888700485224 -0.37274965643882746 0.18768128752708435
v 0.3968600928783416 -0.317427784204483 0.18768128752708435
v 0.3916607797145843 -0.3150083720684051 0.18768128752708435
v 0.3827106356620788 -0.3307956457138061 0.18768128752708435
v 0.3827106356620788 -0.3307956457138061 0.18768128752708435
v 0.3874895572662353 -0.33395653963088984 0.18768128752708435
v 0.3968600928783416 -0.317427784204483 0.18768128752708435
usemtl material_red
f 1 2 3
f 4 5 6
f 7 8 9
f 10 11 12
f 13 14 15
f 16 17 18
f 19 20 21
f 22 23 24
f 25 26 27
f 28 29 30
f 31 32 33
f 34 35 36
f 37 38 39
f 40 41 42
f 43 44 45
f 46 47 48
f 49 50 51
f 52 53 54
f 55 56 57
f 58 59 60
f 61 62 63
f 64 65 66
f 67 68 69
f 70 71 72
f 73 74 75
f 76 77 78
f 79 80 81
f 82 83 84
f 85 86 87
f 88 89 90
f 91 92 93
f 94 95 96
f 97 98 99
f 100 101 102
f 103 104 105
f 106 107 108
f 109 110 111
f 112 113 114
f 115 116 117
f 118 119 120
f 121 122 123
f 124 125 126
f 127 128 129
f 130 131 132
f 133 134 135
f 136 137 138
f 139 140 141
f 142 143 144
f 145 146 147
f 148 149 150
f 151 152 153
f 154 155 156
f 157 158 159
f 160 161 162
f 163 164 165
f 166 167 168
f 169 170 171
f 172 173 174
f 175 176 177
f 178 179 180
f 181 182 183
f 184 185 186
f 187 188 189
f 190 191 192
f 193 194 195
f 196 197 198
f 199 200 201
f 202 203 204
f 205 206 207
f 208 209 210
f 211 212 213
f 214 215 216
f 217 218 219
f 220 221 222
f 223 224 225
f 226 227 228
f 229 230 231
f 232 233 234
f 235 236 237
f 238 239 240
f 241 242 243
f 244 245 246
f 247 248 249
f 250 251 252
f 253 254 255
f 256 257 258
f 259 260 261
f 262 263 264
f 265 266 267
f 268 269 270
f 271 272 273
f 274 275 276
f 277 278 279
f 280 281 282
f 283 284 285
f 286 287 288
f 289 290 291
f 292 293 294
f 295 296 297
f 298 299 300
f 301 302 303
f 304 305 306
f 307 308 309
f 310 311 312
f 313 314 315
f 316 317 318
f 319 320 321
f 322 323 324
f 325 326 327
f 328 329 330
f 331 332 333
f 334 335 336
f 337 338 339
f 340 341 342
f 343 344 345
f 346 347 348
f 349 350 351
f 352 353 354
f 355 356 357
f 358 359 360
f 361 362 363
f 364 365 366
f 367 368 369
f 370 371 372
f 373 374 375
f 376 377 378
f 379 380 381
f 382 383 384
f 385 386 387
f 388 389 390
f 391 392 393
f 394 395 396
f 397 398 399
f 400 401 402
f 403 404 405
f 406 407 408
