mtllib gripper_right_outer_knuckle_collisions_right_outer_knuckle_mesh.mtl
v -0.005900000222027302 0.010469627566635609 0.005133504047989845
v -0.005900000222027302 0.009455421008169651 -0.00682356022298336
v -0.005900000222027302 0.0036503674928098917 -0.0016354868421331048
v -0.005900000222027302 -0.05146373063325882 0.023337313905358315
v -0.005900000222027302 -0.05092277377843857 0.025211716070771217
v -0.005900000222027302 -0.035292189568281174 0.028483303263783455
v -0.005900000222027302 -0.05030331760644913 0.019690657034516335
v -0.005900000222027302 -0.05124620720744133 0.021398574113845825
v -0.005900000222027302 -0.04877861216664314 0.01847357302904129
v -0.005900000222027302 -0.04877861216664314 0.01847357302904129
v -0.005900000222027302 -0.05124620720744133 0.021398574113845825
v -0.005900000222027302 -0.05146373063325882 0.023337313905358315
v -0.005900000222027302 -0.035292189568281174 0.028483303263783455
v -0.005900000222027302 -0.05092277377843857 0.025211716070771217
v -0.005900000222027302 -0.03475123271346092 0.030357705429196358
v -0.005900000222027302 -0.03475123271346092 0.030357705429196358
v -0.005900000222027302 -0.05092277377843857 0.025211716070771217
v -0.005900000222027302 -0.04423964396119118 0.03813333064317703
v -0.005900000222027302 -0.03475123271346092 0.030357705429196358
v -0.005900000222027302 -0.04423964396119118 0.03813333064317703
v -0.005900000222027302 -0.03358087316155434 0.03262055292725563
v -0.005900000222027302 -0.003998478874564171 -0.00011031245230697095
v -0.005900000222027302 -0.003554641967639327 -0.0018342628609389067
v -0.005900000222027302 -0.0046998681500554085 -0.004324204288423061
v -0.005900000222027302 -0.0046998681500554085 -0.004324204288423061
v -0.005900000222027302 -0.003554641967639327 -0.0018342628609389067
v -0.005900000222027302 -0.0024067650083452463 -0.0031949151307344437
v -0.005900000222027302 -0.0046998681500554085 -0.004324204288423061
v -0.005900000222027302 -0.0024067650083452463 -0.0031949151307344437
v -0.005900000222027302 -0.001603957382030785 -0.005557673051953316
v -0.005900000222027302 -0.001603957382030785 -0.005557673051953316
v -0.005900000222027302 -0.0024067650083452463 -0.0031949151307344437
v -0.005900000222027302 -0.0007821987383067608 -0.003922775387763977
v -0.005900000222027302 -0.001603957382030785 -0.005557673051953316
v -0.005900000222027302 -0.0007821987383067608 -0.003922775387763977
v -0.005900000222027302 0.0016731041250750422 -0.006163458805531263
v -0.005900000222027302 0.0016731041250750422 -0.006163458805531263
v -0.005900000222027302 -0.0007821987383067608 -0.003922775387763977
v -0.005900000222027302 0.0009972917614504695 -0.0038736816495656967
v -0.005900000222027302 0.0016731041250750422 -0.006163458805531263
v -0.005900000222027302 0.0009972917614504695 -0.0038736816495656967
v -0.005900000222027302 0.009455421008169651 -0.00682356022298336
v -0.005900000222027302 0.009455421008169651 -0.00682356022298336
v -0.005900000222027302 0.0009972917614504695 -0.0038736816495656967
v -0.005900000222027302 0.0025792564265429974 -0.0030573580879718065
v -0.005900000222027302 0.009455421008169651 -0.00682356022298336
v -0.005900000222027302 0.0025792564265429974 -0.0030573580879718065
v -0.005900000222027302 0.0036503674928098917 -0.0016354868421331048
v -0.005900000222027302 -0.0009972917614504695 0.0038736816495656967
v -0.005900000222027302 -0.0326070673763752 0.02361956425011158
v -0.005900000222027302 0.0007821987383067608 0.003922775387763977
v -0.005900000222027302 0.0007821987383067608 0.003922775387763977
v -0.005900000222027302 -0.0326070673763752 0.02361956425011158
v -0.005900000222027302 0.0008129071211442351 0.006334562320262194
v -0.005900000222027302 0.0007821987383067608 0.003922775387763977
v -0.005900000222027302 0.0008129071211442351 0.006334562320262194
v -0.005900000222027302 0.0024067650083452463 0.0031949151307344437
v -0.005900000222027302 0.0024067650083452463 0.0031949151307344437
v -0.005900000222027302 0.0008129071211442351 0.006334562320262194
v -0.005900000222027302 0.0026873107999563217 0.005793605465441942
v -0.005900000222027302 0.0024067650083452463 0.0031949151307344437
v -0.005900000222027302 0.0026873107999563217 0.005793605465441942
v -0.005900000222027302 0.003554641967639327 0.0018342628609389067
v -0.005900000222027302 0.003554641967639327 0.0018342628609389067
v -0.005900000222027302 0.0026873107999563217 0.005793605465441942
v -0.005900000222027302 0.010469627566635609 0.005133504047989845
v -0.005900000222027302 0.003554641967639327 0.0018342628609389067
v -0.005900000222027302 0.010469627566635609 0.005133504047989845
v -0.005900000222027302 0.003998478874564171 0.00011031245230697095
v -0.005900000222027302 0.003998478874564171 0.00011031245230697095
v -0.005900000222027302 0.010469627566635609 0.005133504047989845
v -0.005900000222027302 0.0036503674928098917 -0.0016354868421331048
v -0.005900000222027302 -0.035292189568281174 0.028483303263783455
v -0.005900000222027302 -0.035074666142463684 0.026544563472270966
v -0.005900000222027302 -0.05146373063325882 0.023337313905358315
v -0.005900000222027302 -0.05146373063325882 0.023337313905358315
v -0.005900000222027302 -0.035074666142463684 0.026544563472270966
v -0.005900000222027302 -0.03413177654147148 0.024836646392941475
v -0.005900000222027302 -0.05146373063325882 0.023337313905358315
v -0.005900000222027302 -0.03413177654147148 0.024836646392941475
v -0.005900000222027302 -0.0326070673763752 0.02361956425011158
v -0.005900000222027302 -0.0046998681500554085 -0.004324204288423061
v -0.005900000222027302 -0.04877861216664314 0.01847357302904129
v -0.005900000222027302 -0.003998478874564171 -0.00011031245230697095
v -0.005900000222027302 -0.003998478874564171 -0.00011031245230697095
v -0.005900000222027302 -0.04877861216664314 0.01847357302904129
v -0.005900000222027302 -0.05146373063325882 0.023337313905358315
v -0.005900000222027302 -0.003998478874564171 -0.00011031245230697095
v -0.005900000222027302 -0.05146373063325882 0.023337313905358315
v -0.005900000222027302 -0.0036503674928098917 0.0016354868421331048
v -0.005900000222027302 -0.0036503674928098917 0.0016354868421331048
v -0.005900000222027302 -0.05146373063325882 0.023337313905358315
v -0.005900000222027302 -0.0326070673763752 0.02361956425011158
v -0.005900000222027302 -0.0036503674928098917 0.0016354868421331048
v -0.005900000222027302 -0.0326070673763752 0.02361956425011158
v -0.005900000222027302 -0.0025792564265429974 0.0030573580879718065
v -0.005900000222027302 -0.0025792564265429974 0.0030573580879718065
v -0.005900000222027302 -0.0326070673763752 0.02361956425011158
v -0.005900000222027302 -0.0009972917614504695 0.0038736816495656967
v 0.0044999998062849045 -0.03358087316155434 0.03262055292725563
v 0.005900000222027302 -0.03358087316155434 0.03262055292725563
v 0.005900000222027302 -0.03475123271346092 0.030357705429196358
v -0.005900000222027302 -0.03475123271346092 0.030357705429196358
v -0.005900000222027302 -0.03358087316155434 0.03262055292725563
v -0.0044999998062849045 -0.03358087316155434 0.03262055292725563
v -0.0044999998062849045 -0.030135391280055046 0.039282284677028656
v 0.0044999998062849045 -0.030135391280055046 0.039282284677028656
v -0.0044999998062849045 -0.03358087316155434 0.03262055292725563
v -0.0044999998062849045 -0.03358087316155434 0.03262055292725563
v 0.0044999998062849045 -0.030135391280055046 0.039282284677028656
v 0.0044999998062849045 -0.03358087316155434 0.03262055292725563
v -0.0044999998062849045 -0.03358087316155434 0.03262055292725563
v 0.0044999998062849045 -0.03358087316155434 0.03262055292725563
v -0.005900000222027302 -0.03475123271346092 0.030357705429196358
v -0.005900000222027302 -0.03475123271346092 0.030357705429196358
v 0.0044999998062849045 -0.03358087316155434 0.03262055292725563
v 0.005900000222027302 -0.03475123271346092 0.030357705429196358
v -0.0044999998062849045 -0.04423964396119118 0.03813333064317703
v -0.005900000222027302 -0.04423964396119118 0.03813333064317703
v -0.005900000222027302 -0.05092277377843857 0.025211716070771217
v 0.005900000222027302 -0.05092277377843857 0.025211716070771217
v 0.005900000222027302 -0.04423964396119118 0.03813333064317703
v 0.0044999998062849045 -0.04423964396119118 0.03813333064317703
v 0.0044999998062849045 -0.04079415649175644 0.04479505866765976
v -0.0044999998062849045 -0.04079415649175644 0.04479505866765976
v 0.0044999998062849045 -0.04423964396119118 0.03813333064317703
v 0.0044999998062849045 -0.04423964396119118 0.03813333064317703
v -0.0044999998062849045 -0.04079415649175644 0.04479505866765976
v -0.0044999998062849045 -0.04423964396119118 0.03813333064317703
v 0.0044999998062849045 -0.04423964396119118 0.03813333064317703
v -0.0044999998062849045 -0.04423964396119118 0.03813333064317703
v 0.005900000222027302 -0.05092277377843857 0.025211716070771217
v 0.005900000222027302 -0.05092277377843857 0.025211716070771217
v -0.0044999998062849045 -0.04423964396119118 0.03813333064317703
v -0.005900000222027302 -0.05092277377843857 0.025211716070771217
v -0.0038999998942017555 0.010469627566635609 0.005133504047989845
v -0.005900000222027302 0.010469627566635609 0.005133504047989845
v -0.005900000222027302 0.0026873107999563217 0.005793605465441942
v 0.005900000222027302 0.0026873107999563217 0.005793605465441942
v 0.005900000222027302 0.010469627566635609 0.005133504047989845
v 0.0038999998942017555 0.010469627566635609 0.005133504047989845
v 0.0038999998942017555 0.020435543730854988 0.004288188181817532
v -0.0038999998942017555 0.020435543730854988 0.004288188181817532
v 0.0038999998942017555 0.010469627566635609 0.005133504047989845
v 0.0038999998942017555 0.010469627566635609 0.005133504047989845
v -0.0038999998942017555 0.020435543730854988 0.004288188181817532
v -0.0038999998942017555 0.010469627566635609 0.005133504047989845
v 0.0038999998942017555 0.010469627566635609 0.005133504047989845
v -0.0038999998942017555 0.010469627566635609 0.005133504047989845
v 0.005900000222027302 0.0026873107999563217 0.005793605465441942
v 0.005900000222027302 0.0026873107999563217 0.005793605465441942
v -0.0038999998942017555 0.010469627566635609 0.005133504047989845
v -0.005900000222027302 0.0026873107999563217 0.005793605465441942
v 0.005900000222027302 -0.04877861216664314 0.01847357302904129
v 0.005900000222027302 -0.0046998681500554085 -0.004324204288423061
v 0.005900000222027302 -0.003554641967639327 -0.0018342628609389067
v 0.005900000222027302 0.009455421008169651 -0.00682356022298336
v 0.005900000222027302 0.0025792564265429974 -0.0030573580879718065
v 0.005900000222027302 0.0016731041250750422 -0.006163458805531263
v 0.005900000222027302 0.0016731041250750422 -0.006163458805531263
v 0.005900000222027302 0.0025792564265429974 -0.0030573580879718065
v 0.005900000222027302 0.0009972917614504695 -0.0038736816495656967
v 0.005900000222027302 0.0016731041250750422 -0.006163458805531263
v 0.005900000222027302 0.0009972917614504695 -0.0038736816495656967
v 0.005900000222027302 -0.001603957382030785 -0.005557673051953316
v 0.005900000222027302 -0.001603957382030785 -0.005557673051953316
v 0.005900000222027302 0.0009972917614504695 -0.0038736816495656967
v 0.005900000222027302 -0.0007821987383067608 -0.003922775387763977
v 0.005900000222027302 -0.001603957382030785 -0.005557673051953316
v 0.005900000222027302 -0.0007821987383067608 -0.003922775387763977
v 0.005900000222027302 -0.0046998681500554085 -0.004324204288423061
v 0.005900000222027302 -0.0046998681500554085 -0.004324204288423061
v 0.005900000222027302 -0.0007821987383067608 -0.003922775387763977
v 0.005900000222027302 -0.0024067650083452463 -0.0031949151307344437
v 0.005900000222027302 -0.0046998681500554085 -0.004324204288423061
v 0.005900000222027302 -0.0024067650083452463 -0.0031949151307344437
v 0.005900000222027302 -0.003554641967639327 -0.0018342628609389067
v 0.005900000222027302 -0.05124620720744133 0.021398574113845825
v 0.005900000222027302 -0.05030331760644913 0.019690657034516335
v 0.005900000222027302 -0.05146373063325882 0.023337313905358315
v 0.005900000222027302 -0.05146373063325882 0.023337313905358315
v 0.005900000222027302 -0.05030331760644913 0.019690657034516335
v 0.005900000222027302 -0.04877861216664314 0.01847357302904129
v 0.005900000222027302 -0.0326070673763752 0.02361956425011158
v 0.005900000222027302 -0.03413177654147148 0.024836646392941475
v 0.005900000222027302 -0.05146373063325882 0.023337313905358315
v 0.005900000222027302 -0.05146373063325882 0.023337313905358315
v 0.005900000222027302 -0.03413177654147148 0.024836646392941475
v 0.005900000222027302 -0.035074666142463684 0.026544563472270966
v 0.005900000222027302 -0.05146373063325882 0.023337313905358315
v 0.005900000222027302 -0.035074666142463684 0.026544563472270966
v 0.005900000222027302 -0.05092277377843857 0.025211716070771217
v 0.005900000222027302 -0.05092277377843857 0.025211716070771217
v 0.005900000222027302 -0.035074666142463684 0.026544563472270966
v 0.005900000222027302 -0.035292189568281174 0.028483303263783455
v 0.005900000222027302 -0.05092277377843857 0.025211716070771217
v 0.005900000222027302 -0.035292189568281174 0.028483303263783455
v 0.005900000222027302 -0.04423964396119118 0.03813333064317703
v 0.005900000222027302 -0.04423964396119118 0.03813333064317703
v 0.005900000222027302 -0.035292189568281174 0.028483303263783455
v 0.005900000222027302 -0.03475123271346092 0.030357705429196358
v 0.005900000222027302 -0.04423964396119118 0.03813333064317703
v 0.005900000222027302 -0.03475123271346092 0.030357705429196358
v 0.005900000222027302 -0.03358087316155434 0.03262055292725563
v 0.005900000222027302 0.010469627566635609 0.005133504047989845
v 0.005900000222027302 0.003998478874564171 0.00011031245230697095
v 0.005900000222027302 0.009455421008169651 -0.00682356022298336
v 0.005900000222027302 0.009455421008169651 -0.00682356022298336
v 0.005900000222027302 0.003998478874564171 0.00011031245230697095
v 0.005900000222027302 0.0036503674928098917 -0.0016354868421331048
v 0.005900000222027302 0.009455421008169651 -0.00682356022298336
v 0.005900000222027302 0.0036503674928098917 -0.0016354868421331048
v 0.005900000222027302 0.0025792564265429974 -0.0030573580879718065
v 0.005900000222027302 -0.003554641967639327 -0.0018342628609389067
v 0.005900000222027302 -0.003998478874564171 -0.00011031245230697095
v 0.005900000222027302 -0.04877861216664314 0.01847357302904129
v 0.005900000222027302 -0.04877861216664314 0.01847357302904129
v 0.005900000222027302 -0.003998478874564171 -0.00011031245230697095
v 0.005900000222027302 -0.0036503674928098917 0.0016354868421331048
v 0.005900000222027302 -0.04877861216664314 0.01847357302904129
v 0.005900000222027302 -0.0036503674928098917 0.0016354868421331048
v 0.005900000222027302 -0.05146373063325882 0.023337313905358315
v 0.005900000222027302 -0.05146373063325882 0.023337313905358315
v 0.005900000222027302 -0.0036503674928098917 0.0016354868421331048
v 0.005900000222027302 -0.0025792564265429974 0.0030573580879718065
v 0.005900000222027302 -0.05146373063325882 0.023337313905358315
v 0.005900000222027302 -0.0025792564265429974 0.0030573580879718065
v 0.005900000222027302 -0.0326070673763752 0.02361956425011158
v 0.005900000222027302 -0.0326070673763752 0.02361956425011158
v 0.005900000222027302 -0.0025792564265429974 0.0030573580879718065
v 0.005900000222027302 -0.0009972917614504695 0.0038736816495656967
v 0.005900000222027302 -0.0326070673763752 0.02361956425011158
v 0.005900000222027302 -0.0009972917614504695 0.0038736816495656967
v 0.005900000222027302 0.0008129071211442351 0.006334562320262194
v 0.005900000222027302 0.0008129071211442351 0.006334562320262194
v 0.005900000222027302 -0.0009972917614504695 0.0038736816495656967
v 0.005900000222027302 0.0007821987383067608 0.003922775387763977
v 0.005900000222027302 0.0008129071211442351 0.006334562320262194
v 0.005900000222027302 0.0007821987383067608 0.003922775387763977
v 0.005900000222027302 0.0026873107999563217 0.005793605465441942
v 0.005900000222027302 0.0026873107999563217 0.005793605465441942
v 0.005900000222027302 0.0007821987383067608 0.003922775387763977
v 0.005900000222027302 0.0024067650083452463 0.0031949151307344437
v 0.005900000222027302 0.0026873107999563217 0.005793605465441942
v 0.005900000222027302 0.0024067650083452463 0.0031949151307344437
v 0.005900000222027302 0.010469627566635609 0.005133504047989845
v 0.005900000222027302 0.010469627566635609 0.005133504047989845
v 0.005900000222027302 0.0024067650083452463 0.0031949151307344437
v 0.005900000222027302 0.003554641967639327 0.0018342628609389067
v 0.005900000222027302 0.010469627566635609 0.005133504047989845
v 0.005900000222027302 0.003554641967639327 0.0018342628609389067
v 0.005900000222027302 0.003998478874564171 0.00011031245230697095
v -0.0038999998942017555 0.020435543730854988 0.004288188181817532
v 0.0038999998942017555 0.020435543730854988 0.004288188181817532
v 0.0038999998942017555 0.022449739277362823 0.003754198784008622
v -0.0038999998942017555 0.020435543730854988 0.004288188181817532
v 0.0038999998942017555 0.022449739277362823 0.003754198784008622
v -0.0038999998942017555 0.022449739277362823 0.003754198784008622
v -0.0038999998942017555 0.022449739277362823 0.003754198784008622
v 0.0038999998942017555 0.022449739277362823 0.003754198784008622
v 0.0038999998942017555 0.024159830063581467 0.0025635173078626394
v -0.0038999998942017555 0.022449739277362823 0.003754198784008622
v 0.0038999998942017555 0.024159830063581467 0.0025635173078626394
v -0.0038999998942017555 0.024159830063581467 0.0025635173078626394
v -0.0038999998942017555 0.024159830063581467 0.0025635173078626394
v 0.0038999998942017555 0.024159830063581467 0.0025635173078626394
v 0.0038999998942017555 0.02535955235362053 0.0008597570704296231
v -0.0038999998942017555 0.024159830063581467 0.0025635173078626394
v 0.0038999998942017555 0.02535955235362053 0.0008597570704296231
v -0.0038999998942017555 0.02535955235362053 0.0008597570704296231
v -0.0038999998942017555 0.02535955235362053 0.0008597570704296231
v 0.0038999998942017555 0.02535955235362053 0.0008597570704296231
v 0.0038999998942017555 0.025904202833771706 -0.0011515814112499356
v -0.0038999998942017555 0.02535955235362053 0.0008597570704296231
v 0.0038999998942017555 0.025904202833771706 -0.0011515814112499356
v -0.0038999998942017555 0.025904202833771706 -0.0011515814112499356
v -0.0038999998942017555 0.025904202833771706 -0.0011515814112499356
v 0.0038999998942017555 0.025904202833771706 -0.0011515814112499356
v 0.0038999998942017555 0.02572808787226677 -0.0032279053702950478
v -0.0038999998942017555 0.025904202833771706 -0.0011515814112499356
v 0.0038999998942017555 0.02572808787226677 -0.0032279053702950478
v -0.0038999998942017555 0.02572808787226677 -0.0032279053702950478
v -0.0038999998942017555 0.02572808787226677 -0.0032279053702950478
v 0.0038999998942017555 0.02572808787226677 -0.0032279053702950478
v 0.0038999998942017555 0.02485244907438755 -0.005118774250149727
v -0.0038999998942017555 0.02572808787226677 -0.0032279053702950478
v 0.0038999998942017555 0.02485244907438755 -0.005118774250149727
v -0.0038999998942017555 0.02485244907438755 -0.005118774250149727
v -0.0038999998942017555 0.02485244907438755 -0.005118774250149727
v 0.0038999998942017555 0.02485244907438755 -0.005118774250149727
v 0.0038999998942017555 0.02338290400803089 -0.0065961251966655254
v -0.0038999998942017555 0.02485244907438755 -0.005118774250149727
v 0.0038999998942017555 0.02338290400803089 -0.0065961251966655254
v -0.0038999998942017555 0.02338290400803089 -0.0065961251966655254
v -0.0038999998942017555 0.02338290400803089 -0.0065961251966655254
v 0.0038999998942017555 0.02338290400803089 -0.0065961251966655254
v 0.0038999998942017555 0.021496698260307312 -0.007481766398996115
v -0.0038999998942017555 0.02338290400803089 -0.0065961251966655254
v 0.0038999998942017555 0.021496698260307312 -0.007481766398996115
v -0.0038999998942017555 0.021496698260307312 -0.007481766398996115
v -0.0038999998942017555 0.021496698260307312 -0.007481766398996115
v 0.0038999998942017555 0.021496698260307312 -0.007481766398996115
v 0.0038999998942017555 0.01942133717238903 -0.007668876554816961
v -0.0038999998942017555 0.021496698260307312 -0.007481766398996115
v 0.0038999998942017555 0.01942133717238903 -0.007668876554816961
v -0.0038999998942017555 0.01942133717238903 -0.007668876554816961
v -0.005900000222027302 0.0016731041250750422 -0.006163458805531263
v -0.005900000222027302 0.009455421008169651 -0.00682356022298336
v 0.005900000222027302 0.0016731041250750422 -0.006163458805531263
v 0.005900000222027302 0.0016731041250750422 -0.006163458805531263
v -0.005900000222027302 0.009455421008169651 -0.00682356022298336
v -0.0038999998942017555 0.009455421008169651 -0.00682356022298336
v 0.005900000222027302 0.009455421008169651 -0.00682356022298336
v 0.005900000222027302 0.0016731041250750422 -0.006163458805531263
v 0.0038999998942017555 0.009455421008169651 -0.00682356022298336
v 0.0038999998942017555 0.009455421008169651 -0.00682356022298336
v 0.005900000222027302 0.0016731041250750422 -0.006163458805531263
v -0.0038999998942017555 0.009455421008169651 -0.00682356022298336
v 0.0038999998942017555 0.009455421008169651 -0.00682356022298336
v -0.0038999998942017555 0.009455421008169651 -0.00682356022298336
v 0.0038999998942017555 0.01942133717238903 -0.007668876554816961
v 0.0038999998942017555 0.01942133717238903 -0.007668876554816961
v -0.0038999998942017555 0.009455421008169651 -0.00682356022298336
v -0.0038999998942017555 0.01942133717238903 -0.007668876554816961
v -0.0038999998942017555 0.022507697343826294 -0.004747702274471521
v 0.0038999998942017555 0.022507697343826294 -0.004747702274471521
v -0.0038999998942017555 0.023578807711601257 -0.003325831377878785
v -0.0038999998942017555 0.023578807711601257 -0.003325831377878785
v 0.0038999998942017555 0.022507697343826294 -0.004747702274471521
v 0.0038999998942017555 0.023578807711601257 -0.003325831377878785
v -0.0038999998942017555 0.023578807711601257 -0.003325831377878785
v 0.0038999998942017555 0.023578807711601257 -0.003325831377878785
v -0.0038999998942017555 0.02392691932618618 -0.0015800307737663388
v -0.0038999998942017555 0.02392691932618618 -0.0015800307737663388
v 0.0038999998942017555 0.023578807711601257 -0.003325831377878785
v 0.0038999998942017555 0.02392691932618618 -0.0015800307737663388
v -0.0038999998942017555 0.02392691932618618 -0.0015800307737663388
v 0.0038999998942017555 0.02392691932618618 -0.0015800307737663388
v -0.0038999998942017555 0.02348308265209198 0.00014391839795280248
v -0.0038999998942017555 0.02348308265209198 0.00014391839795280248
v 0.0038999998942017555 0.02392691932618618 -0.0015800307737663388
v 0.0038999998942017555 0.02348308265209198 0.00014391839795280248
v -0.0038999998942017555 0.02348308265209198 0.00014391839795280248
v 0.0038999998942017555 0.02348308265209198 0.00014391839795280248
v -0.0038999998942017555 0.022335205227136612 0.0015045711770653725
v -0.0038999998942017555 0.022335205227136612 0.0015045711770653725
v 0.0038999998942017555 0.02348308265209198 0.00014391839795280248
v 0.0038999998942017555 0.022335205227136612 0.0015045711770653725
v -0.0038999998942017555 0.022335205227136612 0.0015045711770653725
v 0.0038999998942017555 0.022335205227136612 0.0015045711770653725
v -0.0038999998942017555 0.020710639655590057 0.0022324316669255495
v -0.0038999998942017555 0.020710639655590057 0.0022324316669255495
v 0.0038999998942017555 0.022335205227136612 0.0015045711770653725
v 0.0038999998942017555 0.020710639655590057 0.0022324316669255495
v -0.0038999998942017555 0.020710639655590057 0.0022324316669255495
v 0.0038999998942017555 0.020710639655590057 0.0022324316669255495
v -0.0038999998942017555 0.018931148573756218 0.0021833365317434072
v -0.0038999998942017555 0.018931148573756218 0.0021833365317434072
v 0.0038999998942017555 0.020710639655590057 0.0022324316669255495
v 0.0038999998942017555 0.018931148573756218 0.0021833365317434072
v -0.0038999998942017555 0.018931148573756218 0.0021833365317434072
v 0.0038999998942017555 0.018931148573756218 0.0021833365317434072
v -0.0038999998942017555 0.017349183559417725 0.0013670134358108044
v -0.0038999998942017555 0.017349183559417725 0.0013670134358108044
v 0.0038999998942017555 0.018931148573756218 0.0021833365317434072
v 0.0038999998942017555 0.017349183559417725 0.0013670134358108044
v -0.0038999998942017555 0.017349183559417725 0.0013670134358108044
v 0.0038999998942017555 0.017349183559417725 0.0013670134358108044
v -0.0038999998942017555 0.01627807319164276 -5.48575735592749e-05
v -0.0038999998942017555 0.01627807319164276 -5.48575735592749e-05
v 0.0038999998942017555 0.017349183559417725 0.0013670134358108044
v 0.0038999998942017555 0.01627807319164276 -5.48575735592749e-05
v -0.0038999998942017555 0.01627807319164276 -5.48575735592749e-05
v 0.0038999998942017555 0.01627807319164276 -5.48575735592749e-05
v -0.0038999998942017555 0.01592996157705784 -0.0018006563186645508
v -0.0038999998942017555 0.01592996157705784 -0.0018006563186645508
v 0.0038999998942017555 0.01627807319164276 -5.48575735592749e-05
v 0.0038999998942017555 0.01592996157705784 -0.0018006563186645508
v -0.0038999998942017555 0.01592996157705784 -0.0018006563186645508
v 0.0038999998942017555 0.01592996157705784 -0.0018006563186645508
v -0.0038999998942017555 0.01637379825115204 -0.003524606814607978
v -0.0038999998942017555 0.01637379825115204 -0.003524606814607978
v 0.0038999998942017555 0.01592996157705784 -0.0018006563186645508
v 0.0038999998942017555 0.01637379825115204 -0.003524606814607978
v -0.0038999998942017555 0.01637379825115204 -0.003524606814607978
v 0.0038999998942017555 0.01637379825115204 -0.003524606814607978
v -0.0038999998942017555 0.017521675676107407 -0.004885259550064802
v -0.0038999998942017555 0.017521675676107407 -0.004885259550064802
v 0.0038999998942017555 0.01637379825115204 -0.003524606814607978
v 0.0038999998942017555 0.017521675676107407 -0.004885259550064802
v -0.0038999998942017555 0.017521675676107407 -0.004885259550064802
v 0.0038999998942017555 0.017521675676107407 -0.004885259550064802
v -0.0038999998942017555 0.01914624124765396 -0.005613118875771761
v -0.0038999998942017555 0.01914624124765396 -0.005613118875771761
v 0.0038999998942017555 0.017521675676107407 -0.004885259550064802
v 0.0038999998942017555 0.01914624124765396 -0.005613118875771761
v -0.0038999998942017555 0.01914624124765396 -0.005613118875771761
v 0.0038999998942017555 0.01914624124765396 -0.005613118875771761
v -0.0038999998942017555 0.0209257323294878 -0.005564025603234768
v -0.0038999998942017555 0.0209257323294878 -0.005564025603234768
v 0.0038999998942017555 0.01914624124765396 -0.005613118875771761
v 0.0038999998942017555 0.0209257323294878 -0.005564025603234768
v -0.0038999998942017555 0.0209257323294878 -0.005564025603234768
v 0.0038999998942017555 0.0209257323294878 -0.005564025603234768
v -0.0038999998942017555 0.022507697343826294 -0.004747702274471521
v -0.0038999998942017555 0.022507697343826294 -0.004747702274471521
v 0.0038999998942017555 0.0209257323294878 -0.005564025603234768
v 0.0038999998942017555 0.022507697343826294 -0.004747702274471521
v -0.0029000001959502697 -0.0009554243297316134 -0.0008060176041908562
v -0.0029000001959502697 -0.003554641967639327 -0.0018342628609389067
v -0.0029000001959502697 -0.001230430556461215 -0.00022031956177670509
v -0.0029000001959502697 -0.001230430556461215 -0.00022031956177670509
v -0.0029000001959502697 -0.003554641967639327 -0.0018342628609389067
v -0.0029000001959502697 -0.003998478874564171 -0.00011031245230697095
v -0.0029000001959502697 -0.001230430556461215 -0.00022031956177670509
v -0.0029000001959502697 -0.003998478874564171 -0.00011031245230697095
v -0.0029000001959502697 -0.0011757438769564033 0.0004244129522703588
v -0.0029000001959502697 -0.0011757438769564033 0.0004244129522703588
v -0.0029000001959502697 -0.003998478874564171 -0.00011031245230697095
v -0.0029000001959502697 -0.0036503674928098917 0.0016354868421331048
v -0.0029000001959502697 -0.0011757438769564033 0.0004244129522703588
v -0.0029000001959502697 -0.0036503674928098917 0.0016354868421331048
v -0.0029000001959502697 -0.0008060176041908562 0.0009554243297316134
v -0.0029000001959502697 -0.0008060176041908562 0.0009554243297316134
v -0.0029000001959502697 -0.0036503674928098917 0.0016354868421331048
v -0.0029000001959502697 -0.0025792564265429974 0.0030573580879718065
v -0.0029000001959502697 -0.0008060176041908562 0.0009554243297316134
v -0.0029000001959502697 -0.0025792564265429974 0.0030573580879718065
v -0.0029000001959502697 -0.00022031956177670509 0.001230430556461215
v -0.0029000001959502697 -0.00022031956177670509 0.001230430556461215
v -0.0029000001959502697 -0.0025792564265429974 0.0030573580879718065
v -0.0029000001959502697 -0.0009972917614504695 0.0038736816495656967
v -0.0029000001959502697 -0.00022031956177670509 0.001230430556461215
v -0.0029000001959502697 -0.0009972917614504695 0.0038736816495656967
v -0.0029000001959502697 0.0004244129522703588 0.0011757438769564033
v -0.0029000001959502697 0.0004244129522703588 0.0011757438769564033
v -0.0029000001959502697 -0.0009972917614504695 0.0038736816495656967
v -0.0029000001959502697 0.0007821987383067608 0.003922775387763977
v -0.0029000001959502697 0.0004244129522703588 0.0011757438769564033
v -0.0029000001959502697 0.0007821987383067608 0.003922775387763977
v -0.0029000001959502697 0.0009554243297316134 0.0008060176041908562
v -0.0029000001959502697 0.0007821987383067608 0.003922775387763977
v -0.0029000001959502697 0.0024067650083452463 0.0031949151307344437
v -0.0029000001959502697 0.0009554243297316134 0.0008060176041908562
v -0.0029000001959502697 0.0009554243297316134 0.0008060176041908562
v -0.0029000001959502697 0.0024067650083452463 0.0031949151307344437
v -0.0029000001959502697 0.003554641967639327 0.0018342628609389067
v -0.0029000001959502697 0.0009554243297316134 0.0008060176041908562
v -0.0029000001959502697 0.003554641967639327 0.0018342628609389067
v -0.0029000001959502697 0.001230430556461215 0.00022031956177670509
v -0.0029000001959502697 0.001230430556461215 0.00022031956177670509
v -0.0029000001959502697 0.003554641967639327 0.0018342628609389067
v -0.0029000001959502697 0.003998478874564171 0.00011031245230697095
v -0.0029000001959502697 0.001230430556461215 0.00022031956177670509
v -0.0029000001959502697 0.003998478874564171 0.00011031245230697095
v -0.0029000001959502697 0.0011757438769564033 -0.0004244129522703588
v -0.0029000001959502697 0.0011757438769564033 -0.0004244129522703588
v -0.0029000001959502697 0.003998478874564171 0.00011031245230697095
v -0.0029000001959502697 0.0036503674928098917 -0.0016354868421331048
v -0.0029000001959502697 0.0011757438769564033 -0.0004244129522703588
v -0.0029000001959502697 0.0036503674928098917 -0.0016354868421331048
v -0.0029000001959502697 0.0008060176041908562 -0.0009554243297316134
v -0.0029000001959502697 0.0008060176041908562 -0.0009554243297316134
v -0.0029000001959502697 0.0036503674928098917 -0.0016354868421331048
v -0.0029000001959502697 0.0025792564265429974 -0.0030573580879718065
v -0.0029000001959502697 0.0008060176041908562 -0.0009554243297316134
v -0.0029000001959502697 0.0025792564265429974 -0.0030573580879718065
v -0.0029000001959502697 0.00022031956177670509 -0.001230430556461215
v -0.0029000001959502697 0.00022031956177670509 -0.001230430556461215
v -0.0029000001959502697 0.0025792564265429974 -0.0030573580879718065
v -0.0029000001959502697 0.0009972917614504695 -0.0038736816495656967
v -0.0029000001959502697 0.00022031956177670509 -0.001230430556461215
v -0.0029000001959502697 0.0009972917614504695 -0.0038736816495656967
v -0.0029000001959502697 -0.0004244129522703588 -0.0011757438769564033
v -0.0029000001959502697 -0.0004244129522703588 -0.0011757438769564033
v -0.0029000001959502697 0.0009972917614504695 -0.0038736816495656967
v -0.0029000001959502697 -0.0007821987383067608 -0.003922775387763977
v -0.0029000001959502697 -0.0004244129522703588 -0.0011757438769564033
v -0.0029000001959502697 -0.0007821987383067608 -0.003922775387763977
v -0.0029000001959502697 -0.0009554243297316134 -0.0008060176041908562
v -0.0029000001959502697 -0.0009554243297316134 -0.0008060176041908562
v -0.0029000001959502697 -0.0007821987383067608 -0.003922775387763977
v -0.0029000001959502697 -0.0024067650083452463 -0.0031949151307344437
v -0.0029000001959502697 -0.0009554243297316134 -0.0008060176041908562
v -0.0029000001959502697 -0.0024067650083452463 -0.0031949151307344437
v -0.0029000001959502697 -0.003554641967639327 -0.0018342628609389067
v 0.002899999963119626 0.001230430556461215 0.00022031956177670509
v 0.002899999963119626 0.003554641967639327 0.0018342628609389067
v 0.002899999963119626 0.0009554243297316134 0.0008060176041908562
v 0.002899999963119626 0.0009554243297316134 0.0008060176041908562
v 0.002899999963119626 0.003554641967639327 0.0018342628609389067
v 0.002899999963119626 0.0024067650083452463 0.0031949151307344437
v 0.002899999963119626 0.0009554243297316134 0.0008060176041908562
v 0.002899999963119626 0.0024067650083452463 0.0031949151307344437
v 0.002899999963119626 0.0004244129522703588 0.0011757438769564033
v 0.002899999963119626 0.0004244129522703588 0.0011757438769564033
v 0.002899999963119626 0.0024067650083452463 0.0031949151307344437
v 0.002899999963119626 0.0007821987383067608 0.003922775387763977
v 0.002899999963119626 0.0004244129522703588 0.0011757438769564033
v 0.002899999963119626 0.0007821987383067608 0.003922775387763977
v 0.002899999963119626 -0.00022031956177670509 0.001230430556461215
v 0.002899999963119626 -0.00022031956177670509 0.001230430556461215
v 0.002899999963119626 0.0007821987383067608 0.003922775387763977
v 0.002899999963119626 -0.0009972917614504695 0.0038736816495656967
v 0.002899999963119626 -0.00022031956177670509 0.001230430556461215
v 0.002899999963119626 -0.0009972917614504695 0.0038736816495656967
v 0.002899999963119626 -0.0008060176041908562 0.0009554243297316134
v 0.002899999963119626 -0.0008060176041908562 0.0009554243297316134
v 0.002899999963119626 -0.0009972917614504695 0.0038736816495656967
v 0.002899999963119626 -0.0025792564265429974 0.0030573580879718065
v 0.002899999963119626 -0.0008060176041908562 0.0009554243297316134
v 0.002899999963119626 -0.0025792564265429974 0.0030573580879718065
v 0.002899999963119626 -0.0011757438769564033 0.0004244129522703588
v 0.002899999963119626 -0.0011757438769564033 0.0004244129522703588
v 0.002899999963119626 -0.0025792564265429974 0.0030573580879718065
v 0.002899999963119626 -0.0036503674928098917 0.0016354868421331048
v 0.002899999963119626 -0.0011757438769564033 0.0004244129522703588
v 0.002899999963119626 -0.0036503674928098917 0.0016354868421331048
v 0.002899999963119626 -0.001230430556461215 -0.00022031956177670509
v 0.002899999963119626 -0.0036503674928098917 0.0016354868421331048
v 0.002899999963119626 -0.003998478874564171 -0.00011031245230697095
v 0.002899999963119626 -0.001230430556461215 -0.00022031956177670509
v 0.002899999963119626 -0.001230430556461215 -0.00022031956177670509
v 0.002899999963119626 -0.003998478874564171 -0.00011031245230697095
v 0.002899999963119626 -0.003554641967639327 -0.0018342628609389067
v 0.002899999963119626 -0.001230430556461215 -0.00022031956177670509
v 0.002899999963119626 -0.003554641967639327 -0.0018342628609389067
v 0.002899999963119626 -0.0009554243297316134 -0.0008060176041908562
v 0.002899999963119626 -0.0009554243297316134 -0.0008060176041908562
v 0.002899999963119626 -0.003554641967639327 -0.0018342628609389067
v 0.002899999963119626 -0.0024067650083452463 -0.0031949151307344437
v 0.002899999963119626 -0.0009554243297316134 -0.0008060176041908562
v 0.002899999963119626 -0.0024067650083452463 -0.0031949151307344437
v 0.002899999963119626 -0.0004244129522703588 -0.0011757438769564033
v 0.002899999963119626 -0.0004244129522703588 -0.0011757438769564033
v 0.002899999963119626 -0.0024067650083452463 -0.0031949151307344437
v 0.002899999963119626 -0.0007821987383067608 -0.003922775387763977
v 0.002899999963119626 -0.0004244129522703588 -0.0011757438769564033
v 0.002899999963119626 -0.0007821987383067608 -0.003922775387763977
v 0.002899999963119626 0.00022031956177670509 -0.001230430556461215
v 0.002899999963119626 0.00022031956177670509 -0.001230430556461215
v 0.002899999963119626 -0.0007821987383067608 -0.003922775387763977
v 0.002899999963119626 0.0009972917614504695 -0.0038736816495656967
v 0.002899999963119626 0.00022031956177670509 -0.001230430556461215
v 0.002899999963119626 0.0009972917614504695 -0.0038736816495656967
v 0.002899999963119626 0.0008060176041908562 -0.0009554243297316134
v 0.002899999963119626 0.0008060176041908562 -0.0009554243297316134
v 0.002899999963119626 0.0009972917614504695 -0.0038736816495656967
v 0.002899999963119626 0.0025792564265429974 -0.0030573580879718065
v 0.002899999963119626 0.0008060176041908562 -0.0009554243297316134
v 0.002899999963119626 0.0025792564265429974 -0.0030573580879718065
v 0.002899999963119626 0.0011757438769564033 -0.0004244129522703588
v 0.002899999963119626 0.0011757438769564033 -0.0004244129522703588
v 0.002899999963119626 0.0025792564265429974 -0.0030573580879718065
v 0.002899999963119626 0.0036503674928098917 -0.0016354868421331048
v 0.002899999963119626 0.0011757438769564033 -0.0004244129522703588
v 0.002899999963119626 0.0036503674928098917 -0.0016354868421331048
v 0.002899999963119626 0.001230430556461215 0.00022031956177670509
v 0.002899999963119626 0.001230430556461215 0.00022031956177670509
v 0.002899999963119626 0.0036503674928098917 -0.0016354868421331048
v 0.002899999963119626 0.003998478874564171 0.00011031245230697095
v 0.002899999963119626 0.001230430556461215 0.00022031956177670509
v 0.002899999963119626 0.003998478874564171 0.00011031245230697095
v 0.002899999963119626 0.003554641967639327 0.0018342628609389067
v -0.0029000001959502697 -0.0025792564265429974 0.0030573580879718065
v -0.005900000222027302 -0.0025792564265429974 0.0030573580879718065
v -0.0029000001959502697 -0.0009972917614504695 0.0038736816495656967
v -0.0029000001959502697 -0.0009972917614504695 0.0038736816495656967
v -0.005900000222027302 -0.0025792564265429974 0.0030573580879718065
v -0.005900000222027302 -0.0009972917614504695 0.0038736816495656967
v -0.0029000001959502697 -0.0009972917614504695 0.0038736816495656967
v -0.005900000222027302 -0.0009972917614504695 0.0038736816495656967
v -0.0029000001959502697 0.0007821987383067608 0.003922775387763977
v -0.0029000001959502697 0.0007821987383067608 0.003922775387763977
v -0.005900000222027302 -0.0009972917614504695 0.0038736816495656967
v -0.005900000222027302 0.0007821987383067608 0.003922775387763977
v -0.0029000001959502697 0.0007821987383067608 0.003922775387763977
v -0.005900000222027302 0.0007821987383067608 0.003922775387763977
v -0.0029000001959502697 0.0024067650083452463 0.0031949151307344437
v -0.0029000001959502697 0.0024067650083452463 0.0031949151307344437
v -0.005900000222027302 0.0007821987383067608 0.003922775387763977
v -0.005900000222027302 0.0024067650083452463 0.0031949151307344437
v -0.0029000001959502697 0.0024067650083452463 0.0031949151307344437
v -0.005900000222027302 0.0024067650083452463 0.0031949151307344437
v -0.0029000001959502697 0.003554641967639327 0.0018342628609389067
v -0.0029000001959502697 0.003554641967639327 0.0018342628609389067
v -0.005900000222027302 0.0024067650083452463 0.0031949151307344437
v -0.005900000222027302 0.003554641967639327 0.0018342628609389067
v -0.0029000001959502697 0.003554641967639327 0.0018342628609389067
v -0.005900000222027302 0.003554641967639327 0.0018342628609389067
v -0.0029000001959502697 0.003998478874564171 0.00011031245230697095
v -0.0029000001959502697 0.003998478874564171 0.00011031245230697095
v -0.005900000222027302 0.003554641967639327 0.0018342628609389067
v -0.005900000222027302 0.003998478874564171 0.00011031245230697095
v -0.0029000001959502697 0.003998478874564171 0.00011031245230697095
v -0.005900000222027302 0.003998478874564171 0.00011031245230697095
v -0.0029000001959502697 0.0036503674928098917 -0.0016354868421331048
v -0.0029000001959502697 0.0036503674928098917 -0.0016354868421331048
v -0.005900000222027302 0.003998478874564171 0.00011031245230697095
v -0.005900000222027302 0.0036503674928098917 -0.0016354868421331048
v -0.0029000001959502697 0.0036503674928098917 -0.0016354868421331048
v -0.005900000222027302 0.0036503674928098917 -0.0016354868421331048
v -0.0029000001959502697 0.0025792564265429974 -0.0030573580879718065
v -0.0029000001959502697 0.0025792564265429974 -0.0030573580879718065
v -0.005900000222027302 0.0036503674928098917 -0.0016354868421331048
v -0.005900000222027302 0.0025792564265429974 -0.0030573580879718065
v -0.0029000001959502697 0.0025792564265429974 -0.0030573580879718065
v -0.005900000222027302 0.0025792564265429974 -0.0030573580879718065
v -0.0029000001959502697 0.0009972917614504695 -0.0038736816495656967
v -0.0029000001959502697 0.0009972917614504695 -0.0038736816495656967
v -0.005900000222027302 0.0025792564265429974 -0.0030573580879718065
v -0.005900000222027302 0.0009972917614504695 -0.0038736816495656967
v -0.0029000001959502697 0.0009972917614504695 -0.0038736816495656967
v -0.005900000222027302 0.0009972917614504695 -0.0038736816495656967
v -0.0029000001959502697 -0.0007821987383067608 -0.003922775387763977
v -0.0029000001959502697 -0.0007821987383067608 -0.003922775387763977
v -0.005900000222027302 0.0009972917614504695 -0.0038736816495656967
v -0.005900000222027302 -0.0007821987383067608 -0.003922775387763977
v -0.0029000001959502697 -0.0007821987383067608 -0.003922775387763977
v -0.005900000222027302 -0.0007821987383067608 -0.003922775387763977
v -0.0029000001959502697 -0.0024067650083452463 -0.0031949151307344437
v -0.0029000001959502697 -0.0024067650083452463 -0.0031949151307344437
v -0.005900000222027302 -0.0007821987383067608 -0.003922775387763977
v -0.005900000222027302 -0.0024067650083452463 -0.0031949151307344437
v -0.0029000001959502697 -0.0024067650083452463 -0.0031949151307344437
v -0.005900000222027302 -0.0024067650083452463 -0.0031949151307344437
v -0.0029000001959502697 -0.003554641967639327 -0.0018342628609389067
v -0.0029000001959502697 -0.003554641967639327 -0.0018342628609389067
v -0.005900000222027302 -0.0024067650083452463 -0.0031949151307344437
v -0.005900000222027302 -0.003554641967639327 -0.0018342628609389067
v -0.0029000001959502697 -0.003554641967639327 -0.0018342628609389067
v -0.005900000222027302 -0.003554641967639327 -0.0018342628609389067
v -0.0029000001959502697 -0.003998478874564171 -0.00011031245230697095
v -0.0029000001959502697 -0.003998478874564171 -0.00011031245230697095
v -0.005900000222027302 -0.003554641967639327 -0.0018342628609389067
v -0.005900000222027302 -0.003998478874564171 -0.00011031245230697095
v -0.0029000001959502697 -0.003998478874564171 -0.00011031245230697095
v -0.005900000222027302 -0.003998478874564171 -0.00011031245230697095
v -0.0029000001959502697 -0.0036503674928098917 0.0016354868421331048
v -0.0029000001959502697 -0.0036503674928098917 0.0016354868421331048
v -0.005900000222027302 -0.003998478874564171 -0.00011031245230697095
v -0.005900000222027302 -0.0036503674928098917 0.0016354868421331048
v -0.0029000001959502697 -0.0036503674928098917 0.0016354868421331048
v -0.005900000222027302 -0.0036503674928098917 0.0016354868421331048
v -0.0029000001959502697 -0.0025792564265429974 0.0030573580879718065
v -0.0029000001959502697 -0.0025792564265429974 0.0030573580879718065
v -0.005900000222027302 -0.0036503674928098917 0.0016354868421331048
v -0.005900000222027302 -0.0025792564265429974 0.0030573580879718065
v 0.002899999963119626 0.0025792564265429974 -0.0030573580879718065
v 0.005900000222027302 0.0025792564265429974 -0.0030573580879718065
v 0.002899999963119626 0.0036503674928098917 -0.0016354868421331048
v 0.002899999963119626 0.0036503674928098917 -0.0016354868421331048
v 0.005900000222027302 0.0025792564265429974 -0.0030573580879718065
v 0.005900000222027302 0.0036503674928098917 -0.0016354868421331048
v 0.002899999963119626 0.0036503674928098917 -0.0016354868421331048
v 0.005900000222027302 0.0036503674928098917 -0.0016354868421331048
v 0.002899999963119626 0.003998478874564171 0.00011031245230697095
v 0.002899999963119626 0.003998478874564171 0.00011031245230697095
v 0.005900000222027302 0.0036503674928098917 -0.0016354868421331048
v 0.005900000222027302 0.003998478874564171 0.00011031245230697095
v 0.002899999963119626 0.003998478874564171 0.00011031245230697095
v 0.005900000222027302 0.003998478874564171 0.00011031245230697095
v 0.002899999963119626 0.003554641967639327 0.0018342628609389067
v 0.002899999963119626 0.003554641967639327 0.0018342628609389067
v 0.005900000222027302 0.003998478874564171 0.00011031245230697095
v 0.005900000222027302 0.003554641967639327 0.0018342628609389067
v 0.002899999963119626 0.003554641967639327 0.0018342628609389067
v 0.005900000222027302 0.003554641967639327 0.0018342628609389067
v 0.002899999963119626 0.0024067650083452463 0.0031949151307344437
v 0.002899999963119626 0.0024067650083452463 0.0031949151307344437
v 0.005900000222027302 0.003554641967639327 0.0018342628609389067
v 0.005900000222027302 0.0024067650083452463 0.0031949151307344437
v 0.002899999963119626 0.0024067650083452463 0.0031949151307344437
v 0.005900000222027302 0.0024067650083452463 0.0031949151307344437
v 0.002899999963119626 0.0007821987383067608 0.003922775387763977
v 0.002899999963119626 0.0007821987383067608 0.003922775387763977
v 0.005900000222027302 0.0024067650083452463 0.0031949151307344437
v 0.005900000222027302 0.0007821987383067608 0.003922775387763977
v 0.002899999963119626 0.0007821987383067608 0.003922775387763977
v 0.005900000222027302 0.0007821987383067608 0.003922775387763977
v 0.002899999963119626 -0.0009972917614504695 0.0038736816495656967
v 0.002899999963119626 -0.0009972917614504695 0.0038736816495656967
v 0.005900000222027302 0.0007821987383067608 0.003922775387763977
v 0.005900000222027302 -0.0009972917614504695 0.0038736816495656967
v 0.002899999963119626 -0.0009972917614504695 0.0038736816495656967
v 0.005900000222027302 -0.0009972917614504695 0.0038736816495656967
v 0.002899999963119626 -0.0025792564265429974 0.0030573580879718065
v 0.002899999963119626 -0.0025792564265429974 0.0030573580879718065
v 0.005900000222027302 -0.0009972917614504695 0.0038736816495656967
v 0.005900000222027302 -0.0025792564265429974 0.0030573580879718065
v 0.002899999963119626 -0.0025792564265429974 0.0030573580879718065
v 0.005900000222027302 -0.0025792564265429974 0.0030573580879718065
v 0.002899999963119626 -0.0036503674928098917 0.0016354868421331048
v 0.002899999963119626 -0.0036503674928098917 0.0016354868421331048
v 0.005900000222027302 -0.0025792564265429974 0.0030573580879718065
v 0.005900000222027302 -0.0036503674928098917 0.0016354868421331048
v 0.002899999963119626 -0.0036503674928098917 0.0016354868421331048
v 0.005900000222027302 -0.0036503674928098917 0.0016354868421331048
v 0.002899999963119626 -0.003998478874564171 -0.00011031245230697095
v 0.002899999963119626 -0.003998478874564171 -0.00011031245230697095
v 0.005900000222027302 -0.0036503674928098917 0.0016354868421331048
v 0.005900000222027302 -0.003998478874564171 -0.00011031245230697095
v 0.002899999963119626 -0.003998478874564171 -0.00011031245230697095
v 0.005900000222027302 -0.003998478874564171 -0.00011031245230697095
v 0.002899999963119626 -0.003554641967639327 -0.0018342628609389067
v 0.002899999963119626 -0.003554641967639327 -0.0018342628609389067
v 0.005900000222027302 -0.003998478874564171 -0.00011031245230697095
v 0.005900000222027302 -0.003554641967639327 -0.0018342628609389067
v 0.002899999963119626 -0.003554641967639327 -0.0018342628609389067
v 0.005900000222027302 -0.003554641967639327 -0.0018342628609389067
v 0.002899999963119626 -0.0024067650083452463 -0.0031949151307344437
v 0.002899999963119626 -0.0024067650083452463 -0.0031949151307344437
v 0.005900000222027302 -0.003554641967639327 -0.0018342628609389067
v 0.005900000222027302 -0.0024067650083452463 -0.0031949151307344437
v 0.002899999963119626 -0.0024067650083452463 -0.0031949151307344437
v 0.005900000222027302 -0.0024067650083452463 -0.0031949151307344437
v 0.002899999963119626 -0.0007821987383067608 -0.003922775387763977
v 0.002899999963119626 -0.0007821987383067608 -0.003922775387763977
v 0.005900000222027302 -0.0024067650083452463 -0.0031949151307344437
v 0.005900000222027302 -0.0007821987383067608 -0.003922775387763977
v 0.002899999963119626 -0.0007821987383067608 -0.003922775387763977
v 0.005900000222027302 -0.0007821987383067608 -0.003922775387763977
v 0.002899999963119626 0.0009972917614504695 -0.0038736816495656967
v 0.002899999963119626 0.0009972917614504695 -0.0038736816495656967
v 0.005900000222027302 -0.0007821987383067608 -0.003922775387763977
v 0.005900000222027302 0.0009972917614504695 -0.0038736816495656967
v 0.002899999963119626 0.0009972917614504695 -0.0038736816495656967
v 0.005900000222027302 0.0009972917614504695 -0.0038736816495656967
v 0.002899999963119626 0.0025792564265429974 -0.0030573580879718065
v 0.002899999963119626 0.0025792564265429974 -0.0030573580879718065
v 0.005900000222027302 0.0009972917614504695 -0.0038736816495656967
v 0.005900000222027302 0.0025792564265429974 -0.0030573580879718065
v 0.0038999998942017555 0.020435543730854988 0.004288188181817532
v 0.0038999998942017555 0.010469627566635609 0.005133504047989845
v 0.0038999998942017555 0.017349183559417725 0.0013670134358108044
v 0.0038999998942017555 0.017349183559417725 0.0013670134358108044
v 0.0038999998942017555 0.018931148573756218 0.0021833365317434072
v 0.0038999998942017555 0.020435543730854988 0.004288188181817532
v 0.0038999998942017555 0.020435543730854988 0.004288188181817532
v 0.0038999998942017555 0.018931148573756218 0.0021833365317434072
v 0.0038999998942017555 0.020710639655590057 0.0022324316669255495
v 0.0038999998942017555 0.020435543730854988 0.004288188181817532
v 0.0038999998942017555 0.020710639655590057 0.0022324316669255495
v 0.0038999998942017555 0.022449739277362823 0.003754198784008622
v 0.0038999998942017555 0.022449739277362823 0.003754198784008622
v 0.0038999998942017555 0.020710639655590057 0.0022324316669255495
v 0.0038999998942017555 0.022335205227136612 0.0015045711770653725
v 0.0038999998942017555 0.022507697343826294 -0.004747702274471521
v 0.0038999998942017555 0.02485244907438755 -0.005118774250149727
v 0.0038999998942017555 0.023578807711601257 -0.003325831377878785
v 0.0038999998942017555 0.023578807711601257 -0.003325831377878785
v 0.0038999998942017555 0.02485244907438755 -0.005118774250149727
v 0.0038999998942017555 0.02572808787226677 -0.0032279053702950478
v 0.0038999998942017555 0.023578807711601257 -0.003325831377878785
v 0.0038999998942017555 0.02572808787226677 -0.0032279053702950478
v 0.0038999998942017555 0.02392691932618618 -0.0015800307737663388
v 0.0038999998942017555 0.02392691932618618 -0.0015800307737663388
v 0.0038999998942017555 0.02572808787226677 -0.0032279053702950478
v 0.0038999998942017555 0.025904202833771706 -0.0011515814112499356
v 0.0038999998942017555 0.02392691932618618 -0.0015800307737663388
v 0.0038999998942017555 0.025904202833771706 -0.0011515814112499356
v 0.0038999998942017555 0.02348308265209198 0.00014391839795280248
v 0.0038999998942017555 0.02348308265209198 0.00014391839795280248
v 0.0038999998942017555 0.025904202833771706 -0.0011515814112499356
v 0.0038999998942017555 0.02535955235362053 0.0008597570704296231
v 0.0038999998942017555 0.02348308265209198 0.00014391839795280248
v 0.0038999998942017555 0.02535955235362053 0.0008597570704296231
v 0.0038999998942017555 0.022335205227136612 0.0015045711770653725
v 0.0038999998942017555 0.022335205227136612 0.0015045711770653725
v 0.0038999998942017555 0.02535955235362053 0.0008597570704296231
v 0.0038999998942017555 0.024159830063581467 0.0025635173078626394
v 0.0038999998942017555 0.022335205227136612 0.0015045711770653725
v 0.0038999998942017555 0.024159830063581467 0.0025635173078626394
v 0.0038999998942017555 0.022449739277362823 0.003754198784008622
v 0.0038999998942017555 0.017521675676107407 -0.004885259550064802
v 0.0038999998942017555 0.009455421008169651 -0.00682356022298336
v 0.0038999998942017555 0.01914624124765396 -0.005613118875771761
v 0.0038999998942017555 0.01914624124765396 -0.005613118875771761
v 0.0038999998942017555 0.009455421008169651 -0.00682356022298336
v 0.0038999998942017555 0.01942133717238903 -0.007668876554816961
v 0.0038999998942017555 0.01914624124765396 -0.005613118875771761
v 0.0038999998942017555 0.01942133717238903 -0.007668876554816961
v 0.0038999998942017555 0.0209257323294878 -0.005564025603234768
v 0.0038999998942017555 0.0209257323294878 -0.005564025603234768
v 0.0038999998942017555 0.01942133717238903 -0.007668876554816961
v 0.0038999998942017555 0.021496698260307312 -0.007481766398996115
v 0.0038999998942017555 0.0209257323294878 -0.005564025603234768
v 0.0038999998942017555 0.021496698260307312 -0.007481766398996115
v 0.0038999998942017555 0.022507697343826294 -0.004747702274471521
v 0.0038999998942017555 0.022507697343826294 -0.004747702274471521
v 0.0038999998942017555 0.021496698260307312 -0.007481766398996115
v 0.0038999998942017555 0.02338290400803089 -0.0065961251966655254
v 0.0038999998942017555 0.022507697343826294 -0.004747702274471521
v 0.0038999998942017555 0.02338290400803089 -0.0065961251966655254
v 0.0038999998942017555 0.02485244907438755 -0.005118774250149727
v 0.0038999998942017555 0.017521675676107407 -0.004885259550064802
v 0.0038999998942017555 0.01637379825115204 -0.003524606814607978
v 0.0038999998942017555 0.009455421008169651 -0.00682356022298336
v 0.0038999998942017555 0.009455421008169651 -0.00682356022298336
v 0.0038999998942017555 0.01637379825115204 -0.003524606814607978
v 0.0038999998942017555 0.01592996157705784 -0.0018006563186645508
v 0.0038999998942017555 0.009455421008169651 -0.00682356022298336
v 0.0038999998942017555 0.01592996157705784 -0.0018006563186645508
v 0.0038999998942017555 0.010469627566635609 0.005133504047989845
v 0.0038999998942017555 0.010469627566635609 0.005133504047989845
v 0.0038999998942017555 0.01592996157705784 -0.0018006563186645508
v 0.0038999998942017555 0.01627807319164276 -5.48575735592749e-05
v 0.0038999998942017555 0.010469627566635609 0.005133504047989845
v 0.0038999998942017555 0.01627807319164276 -5.48575735592749e-05
v 0.0038999998942017555 0.017349183559417725 0.0013670134358108044
v 0.005900000222027302 0.009455421008169651 -0.00682356022298336
v 0.0038999998942017555 0.009455421008169651 -0.00682356022298336
v 0.005900000222027302 0.010469627566635609 0.005133504047989845
v 0.005900000222027302 0.010469627566635609 0.005133504047989845
v 0.0038999998942017555 0.009455421008169651 -0.00682356022298336
v 0.0038999998942017555 0.010469627566635609 0.005133504047989845
v -0.0038999998942017555 0.01592996157705784 -0.0018006563186645508
v -0.0038999998942017555 0.009455421008169651 -0.00682356022298336
v -0.0038999998942017555 0.01627807319164276 -5.48575735592749e-05
v -0.0038999998942017555 0.01627807319164276 -5.48575735592749e-05
v -0.0038999998942017555 0.009455421008169651 -0.00682356022298336
v -0.0038999998942017555 0.010469627566635609 0.005133504047989845
v -0.0038999998942017555 0.022335205227136612 0.0015045711770653725
v -0.0038999998942017555 0.020710639655590057 0.0022324316669255495
v -0.0038999998942017555 0.020435543730854988 0.004288188181817532
v -0.0038999998942017555 0.020435543730854988 0.004288188181817532
v -0.0038999998942017555 0.020710639655590057 0.0022324316669255495
v -0.0038999998942017555 0.018931148573756218 0.0021833365317434072
v -0.0038999998942017555 0.020435543730854988 0.004288188181817532
v -0.0038999998942017555 0.018931148573756218 0.0021833365317434072
v -0.0038999998942017555 0.010469627566635609 0.005133504047989845
v -0.0038999998942017555 0.010469627566635609 0.005133504047989845
v -0.0038999998942017555 0.018931148573756218 0.0021833365317434072
v -0.0038999998942017555 0.017349183559417725 0.0013670134358108044
v -0.0038999998942017555 0.010469627566635609 0.005133504047989845
v -0.0038999998942017555 0.017349183559417725 0.0013670134358108044
v -0.0038999998942017555 0.01627807319164276 -5.48575735592749e-05
v -0.0038999998942017555 0.01592996157705784 -0.0018006563186645508
v -0.0038999998942017555 0.01637379825115204 -0.003524606814607978
v -0.0038999998942017555 0.009455421008169651 -0.00682356022298336
v -0.0038999998942017555 0.009455421008169651 -0.00682356022298336
v -0.0038999998942017555 0.01637379825115204 -0.003524606814607978
v -0.0038999998942017555 0.017521675676107407 -0.004885259550064802
v -0.0038999998942017555 0.009455421008169651 -0.00682356022298336
v -0.0038999998942017555 0.017521675676107407 -0.004885259550064802
v -0.0038999998942017555 0.01942133717238903 -0.007668876554816961
v -0.0038999998942017555 0.01942133717238903 -0.007668876554816961
v -0.0038999998942017555 0.017521675676107407 -0.004885259550064802
v -0.0038999998942017555 0.01914624124765396 -0.005613118875771761
v -0.0038999998942017555 0.01942133717238903 -0.007668876554816961
v -0.0038999998942017555 0.01914624124765396 -0.005613118875771761
v -0.0038999998942017555 0.021496698260307312 -0.007481766398996115
v -0.0038999998942017555 0.021496698260307312 -0.007481766398996115
v -0.0038999998942017555 0.01914624124765396 -0.005613118875771761
v -0.0038999998942017555 0.0209257323294878 -0.005564025603234768
v -0.0038999998942017555 0.021496698260307312 -0.007481766398996115
v -0.0038999998942017555 0.0209257323294878 -0.005564025603234768
v -0.0038999998942017555 0.02338290400803089 -0.0065961251966655254
v -0.0038999998942017555 0.02338290400803089 -0.0065961251966655254
v -0.0038999998942017555 0.0209257323294878 -0.005564025603234768
v -0.0038999998942017555 0.022507697343826294 -0.004747702274471521
v -0.0038999998942017555 0.02338290400803089 -0.0065961251966655254
v -0.0038999998942017555 0.022507697343826294 -0.004747702274471521
v -0.0038999998942017555 0.02485244907438755 -0.005118774250149727
v -0.0038999998942017555 0.02485244907438755 -0.005118774250149727
v -0.0038999998942017555 0.022507697343826294 -0.004747702274471521
v -0.0038999998942017555 0.023578807711601257 -0.003325831377878785
v -0.0038999998942017555 0.020435543730854988 0.004288188181817532
v -0.0038999998942017555 0.022449739277362823 0.003754198784008622
v -0.0038999998942017555 0.022335205227136612 0.0015045711770653725
v -0.0038999998942017555 0.022335205227136612 0.0015045711770653725
v -0.0038999998942017555 0.022449739277362823 0.003754198784008622
v -0.0038999998942017555 0.024159830063581467 0.0025635173078626394
v -0.0038999998942017555 0.022335205227136612 0.0015045711770653725
v -0.0038999998942017555 0.024159830063581467 0.0025635173078626394
v -0.0038999998942017555 0.02348308265209198 0.00014391839795280248
v -0.0038999998942017555 0.02348308265209198 0.00014391839795280248
v -0.0038999998942017555 0.024159830063581467 0.0025635173078626394
v -0.0038999998942017555 0.02535955235362053 0.0008597570704296231
v -0.0038999998942017555 0.02348308265209198 0.00014391839795280248
v -0.0038999998942017555 0.02535955235362053 0.0008597570704296231
v -0.0038999998942017555 0.02392691932618618 -0.0015800307737663388
v -0.0038999998942017555 0.02392691932618618 -0.0015800307737663388
v -0.0038999998942017555 0.02535955235362053 0.0008597570704296231
v -0.0038999998942017555 0.025904202833771706 -0.0011515814112499356
v -0.0038999998942017555 0.02392691932618618 -0.0015800307737663388
v -0.0038999998942017555 0.025904202833771706 -0.0011515814112499356
v -0.0038999998942017555 0.023578807711601257 -0.003325831377878785
v -0.0038999998942017555 0.023578807711601257 -0.003325831377878785
v -0.0038999998942017555 0.025904202833771706 -0.0011515814112499356
v -0.0038999998942017555 0.02572808787226677 -0.0032279053702950478
v -0.0038999998942017555 0.023578807711601257 -0.003325831377878785
v -0.0038999998942017555 0.02572808787226677 -0.0032279053702950478
v -0.0038999998942017555 0.02485244907438755 -0.005118774250149727
v -0.0038999998942017555 0.010469627566635609 0.005133504047989845
v -0.0038999998942017555 0.009455421008169651 -0.00682356022298336
v -0.005900000222027302 0.010469627566635609 0.005133504047989845
v -0.005900000222027302 0.010469627566635609 0.005133504047989845
v -0.0038999998942017555 0.009455421008169651 -0.00682356022298336
v -0.005900000222027302 0.009455421008169651 -0.00682356022298336
v 0.005900000222027302 -0.0326070673763752 0.02361956425011158
v 0.005900000222027302 0.0008129071211442351 0.006334562320262194
v -0.005900000222027302 -0.0326070673763752 0.02361956425011158
v -0.005900000222027302 -0.0326070673763752 0.02361956425011158
v 0.005900000222027302 0.0008129071211442351 0.006334562320262194
v -0.005900000222027302 0.0008129071211442351 0.006334562320262194
v -0.005900000222027302 -0.04877861216664314 0.01847357302904129
v -0.005900000222027302 -0.0046998681500554085 -0.004324204288423061
v 0.005900000222027302 -0.04877861216664314 0.01847357302904129
v 0.005900000222027302 -0.04877861216664314 0.01847357302904129
v -0.005900000222027302 -0.0046998681500554085 -0.004324204288423061
v 0.005900000222027302 -0.0046998681500554085 -0.004324204288423061
v -0.0044999998062849045 -0.034658756107091904 0.04108324646949768
v 0.0044999998062849045 -0.034658756107091904 0.04108324646949768
v -0.0044999998062849045 -0.034289028495550156 0.04161425679922104
v -0.0044999998062849045 -0.034289028495550156 0.04161425679922104
v 0.0044999998062849045 -0.034658756107091904 0.04108324646949768
v 0.0044999998062849045 -0.034289028495550156 0.04161425679922104
v -0.0044999998062849045 -0.034289028495550156 0.04161425679922104
v 0.0044999998062849045 -0.034289028495550156 0.04161425679922104
v -0.0044999998062849045 -0.03423434495925903 0.042258989065885544
v -0.0044999998062849045 -0.03423434495925903 0.042258989065885544
v 0.0044999998062849045 -0.034289028495550156 0.04161425679922104
v 0.0044999998062849045 -0.03423434495925903 0.042258989065885544
v -0.0044999998062849045 -0.03423434495925903 0.042258989065885544
v 0.0044999998062849045 -0.03423434495925903 0.042258989065885544
v -0.0044999998062849045 -0.03450934961438179 0.04284468665719032
v -0.0044999998062849045 -0.03450934961438179 0.04284468665719032
v 0.0044999998062849045 -0.03423434495925903 0.042258989065885544
v 0.0044999998062849045 -0.03450934961438179 0.04284468665719032
v -0.0044999998062849045 -0.03450934961438179 0.04284468665719032
v 0.0044999998062849045 -0.03450934961438179 0.04284468665719032
v -0.0044999998062849045 -0.03504035994410515 0.04321441426873207
v -0.0044999998062849045 -0.03504035994410515 0.04321441426873207
v 0.0044999998062849045 -0.03450934961438179 0.04284468665719032
v 0.0044999998062849045 -0.03504035994410515 0.04321441426873207
v -0.0044999998062849045 -0.03504035994410515 0.04321441426873207
v 0.0044999998062849045 -0.03504035994410515 0.04321441426873207
v -0.0044999998062849045 -0.03568509221076965 0.04326910153031349
v -0.0044999998062849045 -0.03568509221076965 0.04326910153031349
v 0.0044999998062849045 -0.03504035994410515 0.04321441426873207
v 0.0044999998062849045 -0.03568509221076965 0.04326910153031349
v -0.0044999998062849045 -0.03568509221076965 0.04326910153031349
v 0.0044999998062849045 -0.03568509221076965 0.04326910153031349
v -0.0044999998062849045 -0.03627078980207443 0.042994093149900436
v -0.0044999998062849045 -0.03627078980207443 0.042994093149900436
v 0.0044999998062849045 -0.03568509221076965 0.04326910153031349
v 0.0044999998062849045 -0.03627078980207443 0.042994093149900436
v -0.0044999998062849045 -0.03627078980207443 0.042994093149900436
v 0.0044999998062849045 -0.03627078980207443 0.042994093149900436
v -0.0044999998062849045 -0.03664051741361618 0.04246308282017708
v -0.0044999998062849045 -0.03664051741361618 0.04246308282017708
v 0.0044999998062849045 -0.03627078980207443 0.042994093149900436
v 0.0044999998062849045 -0.03664051741361618 0.04246308282017708
v -0.0044999998062849045 -0.03664051741361618 0.04246308282017708
v 0.0044999998062849045 -0.03664051741361618 0.04246308282017708
v -0.0044999998062849045 -0.0366952046751976 0.04181835055351257
v -0.0044999998062849045 -0.0366952046751976 0.04181835055351257
v 0.0044999998062849045 -0.03664051741361618 0.04246308282017708
v 0.0044999998062849045 -0.0366952046751976 0.04181835055351257
v -0.0044999998062849045 -0.0366952046751976 0.04181835055351257
v 0.0044999998062849045 -0.0366952046751976 0.04181835055351257
v -0.0044999998062849045 -0.036420200020074844 0.041232652962207794
v -0.0044999998062849045 -0.036420200020074844 0.041232652962207794
v 0.0044999998062849045 -0.0366952046751976 0.04181835055351257
v 0.0044999998062849045 -0.036420200020074844 0.041232652962207794
v -0.0044999998062849045 -0.036420200020074844 0.041232652962207794
v 0.0044999998062849045 -0.036420200020074844 0.041232652962207794
v -0.0044999998062849045 -0.03588918596506119 0.040862925350666046
v -0.0044999998062849045 -0.03588918596506119 0.040862925350666046
v 0.0044999998062849045 -0.036420200020074844 0.041232652962207794
v 0.0044999998062849045 -0.03588918596506119 0.040862925350666046
v -0.0044999998062849045 -0.03588918596506119 0.040862925350666046
v 0.0044999998062849045 -0.03588918596506119 0.040862925350666046
v -0.0044999998062849045 -0.03524445369839668 0.040808238089084625
v -0.0044999998062849045 -0.03524445369839668 0.040808238089084625
v 0.0044999998062849045 -0.03588918596506119 0.040862925350666046
v 0.0044999998062849045 -0.03524445369839668 0.040808238089084625
v -0.0044999998062849045 -0.03524445369839668 0.040808238089084625
v 0.0044999998062849045 -0.03524445369839668 0.040808238089084625
v -0.0044999998062849045 -0.034658756107091904 0.04108324646949768
v -0.0044999998062849045 -0.034658756107091904 0.04108324646949768
v 0.0044999998062849045 -0.03524445369839668 0.040808238089084625
v 0.0044999998062849045 -0.034658756107091904 0.04108324646949768
v 0.0044999998062849045 -0.04423964396119118 0.03813333064317703
v 0.0044999998062849045 -0.03358087316155434 0.03262055292725563
v 0.0044999998062849045 -0.03588918596506119 0.040862925350666046
v 0.0044999998062849045 -0.03588918596506119 0.040862925350666046
v 0.0044999998062849045 -0.036420200020074844 0.041232652962207794
v 0.0044999998062849045 -0.04423964396119118 0.03813333064317703
v 0.0044999998062849045 -0.04423964396119118 0.03813333064317703
v 0.0044999998062849045 -0.036420200020074844 0.041232652962207794
v 0.0044999998062849045 -0.0366952046751976 0.04181835055351257
v 0.0044999998062849045 -0.04423964396119118 0.03813333064317703
v 0.0044999998062849045 -0.0366952046751976 0.04181835055351257
v 0.0044999998062849045 -0.04079415649175644 0.04479505866765976
v 0.0044999998062849045 -0.04079415649175644 0.04479505866765976
v 0.0044999998062849045 -0.0366952046751976 0.04181835055351257
v 0.0044999998062849045 -0.03664051741361618 0.04246308282017708
v 0.0044999998062849045 -0.04079415649175644 0.04479505866765976
v 0.0044999998062849045 -0.03664051741361618 0.04246308282017708
v 0.0044999998062849045 -0.03953001648187637 0.04645158350467682
v 0.0044999998062849045 -0.03953001648187637 0.04645158350467682
v 0.0044999998062849045 -0.03664051741361618 0.04246308282017708
v 0.0044999998062849045 -0.03627078980207443 0.042994093149900436
v 0.0044999998062849045 -0.03953001648187637 0.04645158350467682
v 0.0044999998062849045 -0.03627078980207443 0.042994093149900436
v 0.0044999998062849045 -0.03777554631233215 0.04757584631443024
v 0.0044999998062849045 -0.03777554631233215 0.04757584631443024
v 0.0044999998062849045 -0.03627078980207443 0.042994093149900436
v 0.0044999998062849045 -0.03568509221076965 0.04326910153031349
v 0.0044999998062849045 -0.03777554631233215 0.04757584631443024
v 0.0044999998062849045 -0.03568509221076965 0.04326910153031349
v 0.0044999998062849045 -0.03574236482381821 0.048032246530056
v 0.0044999998062849045 -0.03574236482381821 0.048032246530056
v 0.0044999998062849045 -0.03568509221076965 0.04326910153031349
v 0.0044999998062849045 -0.033675700426101685 0.04776573181152344
v 0.0044999998062849045 -0.033675700426101685 0.04776573181152344
v 0.0044999998062849045 -0.03568509221076965 0.04326910153031349
v 0.0044999998062849045 -0.03504035994410515 0.04321441426873207
v 0.0044999998062849045 -0.033675700426101685 0.04776573181152344
v 0.0044999998062849045 -0.03504035994410515 0.04321441426873207
v 0.0044999998062849045 -0.03182482346892357 0.04680844396352768
v 0.0044999998062849045 -0.03182482346892357 0.04680844396352768
v 0.0044999998062849045 -0.03504035994410515 0.04321441426873207
v 0.0044999998062849045 -0.03450934961438179 0.04284468665719032
v 0.0044999998062849045 -0.03182482346892357 0.04680844396352768
v 0.0044999998062849045 -0.03450934961438179 0.04284468665719032
v 0.0044999998062849045 -0.030412981286644936 0.04527585953474045
v 0.0044999998062849045 -0.030412981286644936 0.04527585953474045
v 0.0044999998062849045 -0.03450934961438179 0.04284468665719032
v 0.0044999998062849045 -0.02961045876145363 0.04335281625390053
v 0.0044999998062849045 -0.02961045876145363 0.04335281625390053
v 0.0044999998062849045 -0.03450934961438179 0.04284468665719032
v 0.0044999998062849045 -0.03423434495925903 0.042258989065885544
v 0.0044999998062849045 -0.02961045876145363 0.04335281625390053
v 0.0044999998062849045 -0.03423434495925903 0.042258989065885544
v 0.0044999998062849045 -0.029514051973819733 0.04127126932144165
v 0.0044999998062849045 -0.029514051973819733 0.04127126932144165
v 0.0044999998062849045 -0.03423434495925903 0.042258989065885544
v 0.0044999998062849045 -0.034289028495550156 0.04161425679922104
v 0.0044999998062849045 -0.029514051973819733 0.04127126932144165
v 0.0044999998062849045 -0.034289028495550156 0.04161425679922104
v 0.0044999998062849045 -0.030135391280055046 0.039282284677028656
v 0.0044999998062849045 -0.030135391280055046 0.039282284677028656
v 0.0044999998062849045 -0.034289028495550156 0.04161425679922104
v 0.0044999998062849045 -0.034658756107091904 0.04108324646949768
v 0.0044999998062849045 -0.030135391280055046 0.039282284677028656
v 0.0044999998062849045 -0.034658756107091904 0.04108324646949768
v 0.0044999998062849045 -0.03358087316155434 0.03262055292725563
v 0.0044999998062849045 -0.03358087316155434 0.03262055292725563
v 0.0044999998062849045 -0.034658756107091904 0.04108324646949768
v 0.0044999998062849045 -0.03524445369839668 0.040808238089084625
v 0.0044999998062849045 -0.03358087316155434 0.03262055292725563
v 0.0044999998062849045 -0.03524445369839668 0.040808238089084625
v 0.0044999998062849045 -0.03588918596506119 0.040862925350666046
v -0.0044999998062849045 -0.03627078980207443 0.042994093149900436
v -0.0044999998062849045 -0.03664051741361618 0.04246308282017708
v -0.0044999998062849045 -0.04079415649175644 0.04479505866765976
v -0.0044999998062849045 -0.04079415649175644 0.04479505866765976
v -0.0044999998062849045 -0.03664051741361618 0.04246308282017708
v -0.0044999998062849045 -0.04423964396119118 0.03813333064317703
v -0.0044999998062849045 -0.03504035994410515 0.04321441426873207
v -0.0044999998062849045 -0.03182482346892357 0.04680844396352768
v -0.0044999998062849045 -0.03450934961438179 0.04284468665719032
v -0.0044999998062849045 -0.03450934961438179 0.04284468665719032
v -0.0044999998062849045 -0.03182482346892357 0.04680844396352768
v -0.0044999998062849045 -0.030412981286644936 0.04527585953474045
v -0.0044999998062849045 -0.03450934961438179 0.04284468665719032
v -0.0044999998062849045 -0.030412981286644936 0.04527585953474045
v -0.0044999998062849045 -0.03423434495925903 0.042258989065885544
v -0.0044999998062849045 -0.03664051741361618 0.04246308282017708
v -0.0044999998062849045 -0.0366952046751976 0.04181835055351257
v -0.0044999998062849045 -0.04423964396119118 0.03813333064317703
v -0.0044999998062849045 -0.04423964396119118 0.03813333064317703
v -0.0044999998062849045 -0.0366952046751976 0.04181835055351257
v -0.0044999998062849045 -0.036420200020074844 0.041232652962207794
v -0.0044999998062849045 -0.04423964396119118 0.03813333064317703
v -0.0044999998062849045 -0.036420200020074844 0.041232652962207794
v -0.0044999998062849045 -0.03358087316155434 0.03262055292725563
v -0.0044999998062849045 -0.036420200020074844 0.041232652962207794
v -0.0044999998062849045 -0.03588918596506119 0.040862925350666046
v -0.0044999998062849045 -0.03358087316155434 0.03262055292725563
v -0.0044999998062849045 -0.03358087316155434 0.03262055292725563
v -0.0044999998062849045 -0.03588918596506119 0.040862925350666046
v -0.0044999998062849045 -0.03524445369839668 0.040808238089084625
v -0.0044999998062849045 -0.03358087316155434 0.03262055292725563
v -0.0044999998062849045 -0.03524445369839668 0.040808238089084625
v -0.0044999998062849045 -0.030135391280055046 0.039282284677028656
v -0.0044999998062849045 -0.03524445369839668 0.040808238089084625
v -0.0044999998062849045 -0.034658756107091904 0.04108324646949768
v -0.0044999998062849045 -0.030135391280055046 0.039282284677028656
v -0.0044999998062849045 -0.030135391280055046 0.039282284677028656
v -0.0044999998062849045 -0.034658756107091904 0.04108324646949768
v -0.0044999998062849045 -0.034289028495550156 0.04161425679922104
v -0.0044999998062849045 -0.030135391280055046 0.039282284677028656
v -0.0044999998062849045 -0.034289028495550156 0.04161425679922104
v -0.0044999998062849045 -0.029514051973819733 0.04127126932144165
v -0.0044999998062849045 -0.029514051973819733 0.04127126932144165
v -0.0044999998062849045 -0.034289028495550156 0.04161425679922104
v -0.0044999998062849045 -0.03423434495925903 0.042258989065885544
v -0.0044999998062849045 -0.029514051973819733 0.04127126932144165
v -0.0044999998062849045 -0.03423434495925903 0.042258989065885544
v -0.0044999998062849045 -0.02961045876145363 0.04335281625390053
v -0.0044999998062849045 -0.02961045876145363 0.04335281625390053
v -0.0044999998062849045 -0.03423434495925903 0.042258989065885544
v -0.0044999998062849045 -0.030412981286644936 0.04527585953474045
v -0.0044999998062849045 -0.04079415649175644 0.04479505866765976
v -0.0044999998062849045 -0.03953001648187637 0.04645158350467682
v -0.0044999998062849045 -0.03627078980207443 0.042994093149900436
v -0.0044999998062849045 -0.03627078980207443 0.042994093149900436
v -0.0044999998062849045 -0.03953001648187637 0.04645158350467682
v -0.0044999998062849045 -0.03777554631233215 0.04757584631443024
v -0.0044999998062849045 -0.03627078980207443 0.042994093149900436
v -0.0044999998062849045 -0.03777554631233215 0.04757584631443024
v -0.0044999998062849045 -0.03568509221076965 0.04326910153031349
v -0.0044999998062849045 -0.03568509221076965 0.04326910153031349
v -0.0044999998062849045 -0.03777554631233215 0.04757584631443024
v -0.0044999998062849045 -0.03574236482381821 0.048032246530056
v -0.0044999998062849045 -0.03568509221076965 0.04326910153031349
v -0.0044999998062849045 -0.03574236482381821 0.048032246530056
v -0.0044999998062849045 -0.03504035994410515 0.04321441426873207
v -0.0044999998062849045 -0.03504035994410515 0.04321441426873207
v -0.0044999998062849045 -0.03574236482381821 0.048032246530056
v -0.0044999998062849045 -0.033675700426101685 0.04776573181152344
v -0.0044999998062849045 -0.03504035994410515 0.04321441426873207
v -0.0044999998062849045 -0.033675700426101685 0.04776573181152344
v -0.0044999998062849045 -0.03182482346892357 0.04680844396352768
v 0.0044999998062849045 -0.030135391280055046 0.039282284677028656
v -0.0044999998062849045 -0.030135391280055046 0.039282284677028656
v -0.0044999998062849045 -0.029514051973819733 0.04127126932144165
v 0.0044999998062849045 -0.030135391280055046 0.039282284677028656
v -0.0044999998062849045 -0.029514051973819733 0.04127126932144165
v 0.0044999998062849045 -0.029514051973819733 0.04127126932144165
v 0.0044999998062849045 -0.029514051973819733 0.04127126932144165
v -0.0044999998062849045 -0.029514051973819733 0.04127126932144165
v -0.0044999998062849045 -0.02961045876145363 0.04335281625390053
v 0.0044999998062849045 -0.029514051973819733 0.04127126932144165
v -0.0044999998062849045 -0.02961045876145363 0.04335281625390053
v 0.0044999998062849045 -0.02961045876145363 0.04335281625390053
v 0.0044999998062849045 -0.02961045876145363 0.04335281625390053
v -0.0044999998062849045 -0.02961045876145363 0.04335281625390053
v -0.0044999998062849045 -0.030412981286644936 0.04527585953474045
v 0.0044999998062849045 -0.02961045876145363 0.04335281625390053
v -0.0044999998062849045 -0.030412981286644936 0.04527585953474045
v 0.0044999998062849045 -0.030412981286644936 0.04527585953474045
v 0.0044999998062849045 -0.030412981286644936 0.04527585953474045
v -0.0044999998062849045 -0.030412981286644936 0.04527585953474045
v -0.0044999998062849045 -0.03182482346892357 0.04680844396352768
v 0.0044999998062849045 -0.030412981286644936 0.04527585953474045
v -0.0044999998062849045 -0.03182482346892357 0.04680844396352768
v 0.0044999998062849045 -0.03182482346892357 0.04680844396352768
v 0.0044999998062849045 -0.03182482346892357 0.04680844396352768
v -0.0044999998062849045 -0.03182482346892357 0.04680844396352768
v -0.0044999998062849045 -0.033675700426101685 0.04776573181152344
v 0.0044999998062849045 -0.03182482346892357 0.04680844396352768
v -0.0044999998062849045 -0.033675700426101685 0.04776573181152344
v 0.0044999998062849045 -0.033675700426101685 0.04776573181152344
v 0.0044999998062849045 -0.033675700426101685 0.04776573181152344
v -0.0044999998062849045 -0.033675700426101685 0.04776573181152344
v -0.0044999998062849045 -0.03574236482381821 0.048032246530056
v 0.0044999998062849045 -0.033675700426101685 0.04776573181152344
v -0.0044999998062849045 -0.03574236482381821 0.048032246530056
v 0.0044999998062849045 -0.03574236482381821 0.048032246530056
v 0.0044999998062849045 -0.03574236482381821 0.048032246530056
v -0.0044999998062849045 -0.03574236482381821 0.048032246530056
v -0.0044999998062849045 -0.03777554631233215 0.04757584631443024
v 0.0044999998062849045 -0.03574236482381821 0.048032246530056
v -0.0044999998062849045 -0.03777554631233215 0.04757584631443024
v 0.0044999998062849045 -0.03777554631233215 0.04757584631443024
v 0.0044999998062849045 -0.03777554631233215 0.04757584631443024
v -0.0044999998062849045 -0.03777554631233215 0.04757584631443024
v -0.0044999998062849045 -0.03953001648187637 0.04645158350467682
v 0.0044999998062849045 -0.03777554631233215 0.04757584631443024
v -0.0044999998062849045 -0.03953001648187637 0.04645158350467682
v 0.0044999998062849045 -0.03953001648187637 0.04645158350467682
v 0.0044999998062849045 -0.03953001648187637 0.04645158350467682
v -0.0044999998062849045 -0.03953001648187637 0.04645158350467682
v -0.0044999998062849045 -0.04079415649175644 0.04479505866765976
v 0.0044999998062849045 -0.03953001648187637 0.04645158350467682
v -0.0044999998062849045 -0.04079415649175644 0.04479505866765976
v 0.0044999998062849045 -0.04079415649175644 0.04479505866765976
v -0.005900000222027302 0.0016731041250750422 -0.006163458805531263
v 0.005900000222027302 0.0016731041250750422 -0.006163458805531263
v 0.005900000222027302 -0.001603957382030785 -0.005557673051953316
v -0.005900000222027302 0.0016731041250750422 -0.006163458805531263
v 0.005900000222027302 -0.001603957382030785 -0.005557673051953316
v -0.005900000222027302 -0.001603957382030785 -0.005557673051953316
v -0.005900000222027302 -0.001603957382030785 -0.005557673051953316
v 0.005900000222027302 -0.001603957382030785 -0.005557673051953316
v 0.005900000222027302 -0.0046998681500554085 -0.004324204288423061
v -0.005900000222027302 -0.001603957382030785 -0.005557673051953316
v 0.005900000222027302 -0.0046998681500554085 -0.004324204288423061
v -0.005900000222027302 -0.0046998681500554085 -0.004324204288423061
v 0.005900000222027302 0.0026873107999563217 0.005793605465441942
v -0.005900000222027302 0.0026873107999563217 0.005793605465441942
v 0.005900000222027302 0.0008129071211442351 0.006334562320262194
v 0.005900000222027302 0.0008129071211442351 0.006334562320262194
v -0.005900000222027302 0.0026873107999563217 0.005793605465441942
v -0.005900000222027302 0.0008129071211442351 0.006334562320262194
v 0.005900000222027302 -0.0326070673763752 0.02361956425011158
v -0.005900000222027302 -0.0326070673763752 0.02361956425011158
v 0.005900000222027302 -0.03413177654147148 0.024836646392941475
v 0.005900000222027302 -0.03413177654147148 0.024836646392941475
v -0.005900000222027302 -0.0326070673763752 0.02361956425011158
v -0.005900000222027302 -0.03413177654147148 0.024836646392941475
v 0.005900000222027302 -0.03413177654147148 0.024836646392941475
v -0.005900000222027302 -0.03413177654147148 0.024836646392941475
v 0.005900000222027302 -0.035074666142463684 0.026544563472270966
v 0.005900000222027302 -0.035074666142463684 0.026544563472270966
v -0.005900000222027302 -0.03413177654147148 0.024836646392941475
v -0.005900000222027302 -0.035074666142463684 0.026544563472270966
v 0.005900000222027302 -0.035074666142463684 0.026544563472270966
v -0.005900000222027302 -0.035074666142463684 0.026544563472270966
v 0.005900000222027302 -0.035292189568281174 0.028483303263783455
v 0.005900000222027302 -0.035292189568281174 0.028483303263783455
v -0.005900000222027302 -0.035074666142463684 0.026544563472270966
v -0.005900000222027302 -0.035292189568281174 0.028483303263783455
v 0.005900000222027302 -0.035292189568281174 0.028483303263783455
v -0.005900000222027302 -0.035292189568281174 0.028483303263783455
v 0.005900000222027302 -0.03475123271346092 0.030357705429196358
v 0.005900000222027302 -0.03475123271346092 0.030357705429196358
v -0.005900000222027302 -0.035292189568281174 0.028483303263783455
v -0.005900000222027302 -0.03475123271346092 0.030357705429196358
v -0.005900000222027302 -0.04877861216664314 0.01847357302904129
v 0.005900000222027302 -0.04877861216664314 0.01847357302904129
v 0.005900000222027302 -0.05030331760644913 0.019690657034516335
v -0.005900000222027302 -0.04877861216664314 0.01847357302904129
v 0.005900000222027302 -0.05030331760644913 0.019690657034516335
v -0.005900000222027302 -0.05030331760644913 0.019690657034516335
v -0.005900000222027302 -0.05030331760644913 0.019690657034516335
v 0.005900000222027302 -0.05030331760644913 0.019690657034516335
v 0.005900000222027302 -0.05124620720744133 0.021398574113845825
v -0.005900000222027302 -0.05030331760644913 0.019690657034516335
v 0.005900000222027302 -0.05124620720744133 0.021398574113845825
v -0.005900000222027302 -0.05124620720744133 0.021398574113845825
v -0.005900000222027302 -0.05124620720744133 0.021398574113845825
v 0.005900000222027302 -0.05124620720744133 0.021398574113845825
v 0.005900000222027302 -0.05146373063325882 0.023337313905358315
v -0.005900000222027302 -0.05124620720744133 0.021398574113845825
v 0.005900000222027302 -0.05146373063325882 0.023337313905358315
v -0.005900000222027302 -0.05146373063325882 0.023337313905358315
v -0.005900000222027302 -0.05146373063325882 0.023337313905358315
v 0.005900000222027302 -0.05146373063325882 0.023337313905358315
v 0.005900000222027302 -0.05092277377843857 0.025211716070771217
v -0.005900000222027302 -0.05146373063325882 0.023337313905358315
v 0.005900000222027302 -0.05092277377843857 0.025211716070771217
v -0.005900000222027302 -0.05092277377843857 0.025211716070771217
v 0.005900000222027302 -0.04423964396119118 0.03813333064317703
v 0.005900000222027302 -0.03358087316155434 0.03262055292725563
v 0.0044999998062849045 -0.04423964396119118 0.03813333064317703
v 0.0044999998062849045 -0.04423964396119118 0.03813333064317703
v 0.005900000222027302 -0.03358087316155434 0.03262055292725563
v 0.0044999998062849045 -0.03358087316155434 0.03262055292725563
v -0.0044999998062849045 -0.03358087316155434 0.03262055292725563
v -0.005900000222027302 -0.03358087316155434 0.03262055292725563
v -0.0044999998062849045 -0.04423964396119118 0.03813333064317703
v -0.0044999998062849045 -0.04423964396119118 0.03813333064317703
v -0.005900000222027302 -0.03358087316155434 0.03262055292725563
v -0.005900000222027302 -0.04423964396119118 0.03813333064317703
v 0.002899999963119626 -0.0008060176041908562 0.0009554243297316134
v -0.0029000001959502697 -0.0008060176041908562 0.0009554243297316134
v 0.002899999963119626 -0.00022031956177670509 0.001230430556461215
v 0.002899999963119626 -0.00022031956177670509 0.001230430556461215
v -0.0029000001959502697 -0.0008060176041908562 0.0009554243297316134
v -0.0029000001959502697 -0.00022031956177670509 0.001230430556461215
v 0.002899999963119626 -0.00022031956177670509 0.001230430556461215
v -0.0029000001959502697 -0.00022031956177670509 0.001230430556461215
v 0.002899999963119626 0.0004244129522703588 0.0011757438769564033
v 0.002899999963119626 0.0004244129522703588 0.0011757438769564033
v -0.0029000001959502697 -0.00022031956177670509 0.001230430556461215
v -0.0029000001959502697 0.0004244129522703588 0.0011757438769564033
v 0.002899999963119626 0.0004244129522703588 0.0011757438769564033
v -0.0029000001959502697 0.0004244129522703588 0.0011757438769564033
v 0.002899999963119626 0.0009554243297316134 0.0008060176041908562
v 0.002899999963119626 0.0009554243297316134 0.0008060176041908562
v -0.0029000001959502697 0.0004244129522703588 0.0011757438769564033
v -0.0029000001959502697 0.0009554243297316134 0.0008060176041908562
v 0.002899999963119626 0.0009554243297316134 0.0008060176041908562
v -0.0029000001959502697 0.0009554243297316134 0.0008060176041908562
v 0.002899999963119626 0.001230430556461215 0.00022031956177670509
v 0.002899999963119626 0.001230430556461215 0.00022031956177670509
v -0.0029000001959502697 0.0009554243297316134 0.0008060176041908562
v -0.0029000001959502697 0.001230430556461215 0.00022031956177670509
v 0.002899999963119626 0.001230430556461215 0.00022031956177670509
v -0.0029000001959502697 0.001230430556461215 0.00022031956177670509
v 0.002899999963119626 0.0011757438769564033 -0.0004244129522703588
v 0.002899999963119626 0.0011757438769564033 -0.0004244129522703588
v -0.0029000001959502697 0.001230430556461215 0.00022031956177670509
v -0.0029000001959502697 0.0011757438769564033 -0.0004244129522703588
v 0.002899999963119626 0.0011757438769564033 -0.0004244129522703588
v -0.0029000001959502697 0.0011757438769564033 -0.0004244129522703588
v 0.002899999963119626 0.0008060176041908562 -0.0009554243297316134
v 0.002899999963119626 0.0008060176041908562 -0.0009554243297316134
v -0.0029000001959502697 0.0011757438769564033 -0.0004244129522703588
v -0.0029000001959502697 0.0008060176041908562 -0.0009554243297316134
v 0.002899999963119626 0.0008060176041908562 -0.0009554243297316134
v -0.0029000001959502697 0.0008060176041908562 -0.0009554243297316134
v 0.002899999963119626 0.00022031956177670509 -0.001230430556461215
v 0.002899999963119626 0.00022031956177670509 -0.001230430556461215
v -0.0029000001959502697 0.0008060176041908562 -0.0009554243297316134
v -0.0029000001959502697 0.00022031956177670509 -0.001230430556461215
v 0.002899999963119626 0.00022031956177670509 -0.001230430556461215
v -0.0029000001959502697 0.00022031956177670509 -0.001230430556461215
v 0.002899999963119626 -0.0004244129522703588 -0.0011757438769564033
v 0.002899999963119626 -0.0004244129522703588 -0.0011757438769564033
v -0.0029000001959502697 0.00022031956177670509 -0.001230430556461215
v -0.0029000001959502697 -0.0004244129522703588 -0.0011757438769564033
v 0.002899999963119626 -0.0004244129522703588 -0.0011757438769564033
v -0.0029000001959502697 -0.0004244129522703588 -0.0011757438769564033
v 0.002899999963119626 -0.0009554243297316134 -0.0008060176041908562
v 0.002899999963119626 -0.0009554243297316134 -0.0008060176041908562
v -0.0029000001959502697 -0.0004244129522703588 -0.0011757438769564033
v -0.0029000001959502697 -0.0009554243297316134 -0.0008060176041908562
v 0.002899999963119626 -0.0009554243297316134 -0.0008060176041908562
v -0.0029000001959502697 -0.0009554243297316134 -0.0008060176041908562
v 0.002899999963119626 -0.001230430556461215 -0.00022031956177670509
v 0.002899999963119626 -0.001230430556461215 -0.00022031956177670509
v -0.0029000001959502697 -0.0009554243297316134 -0.0008060176041908562
v -0.0029000001959502697 -0.001230430556461215 -0.00022031956177670509
v 0.002899999963119626 -0.001230430556461215 -0.00022031956177670509
v -0.0029000001959502697 -0.001230430556461215 -0.00022031956177670509
v 0.002899999963119626 -0.0011757438769564033 0.0004244129522703588
v 0.002899999963119626 -0.0011757438769564033 0.0004244129522703588
v -0.0029000001959502697 -0.001230430556461215 -0.00022031956177670509
v -0.0029000001959502697 -0.0011757438769564033 0.0004244129522703588
v 0.002899999963119626 -0.0011757438769564033 0.0004244129522703588
v -0.0029000001959502697 -0.0011757438769564033 0.0004244129522703588
v 0.002899999963119626 -0.0008060176041908562 0.0009554243297316134
v 0.002899999963119626 -0.0008060176041908562 0.0009554243297316134
v -0.0029000001959502697 -0.0011757438769564033 0.0004244129522703588
v -0.0029000001959502697 -0.0008060176041908562 0.0009554243297316134
usemtl DefaultMaterial
f 1 2 3
f 4 5 6
f 7 8 9
f 10 11 12
f 13 14 15
f 16 17 18
f 19 20 21
f 22 23 24
f 25 26 27
f 28 29 30
f 31 32 33
f 34 35 36
f 37 38 39
f 40 41 42
f 43 44 45
f 46 47 48
f 49 50 51
f 52 53 54
f 55 56 57
f 58 59 60
f 61 62 63
f 64 65 66
f 67 68 69
f 70 71 72
f 73 74 75
f 76 77 78
f 79 80 81
f 82 83 84
f 85 86 87
f 88 89 90
f 91 92 93
f 94 95 96
f 97 98 99
f 100 101 102
f 103 104 105
f 106 107 108
f 109 110 111
f 112 113 114
f 115 116 117
f 118 119 120
f 121 122 123
f 124 125 126
f 127 128 129
f 130 131 132
f 133 134 135
f 136 137 138
f 139 140 141
f 142 143 144
f 145 146 147
f 148 149 150
f 151 152 153
f 154 155 156
f 157 158 159
f 160 161 162
f 163 164 165
f 166 167 168
f 169 170 171
f 172 173 174
f 175 176 177
f 178 179 180
f 181 182 183
f 184 185 186
f 187 188 189
f 190 191 192
f 193 194 195
f 196 197 198
f 199 200 201
f 202 203 204
f 205 206 207
f 208 209 210
f 211 212 213
f 214 215 216
f 217 218 219
f 220 221 222
f 223 224 225
f 226 227 228
f 229 230 231
f 232 233 234
f 235 236 237
f 238 239 240
f 241 242 243
f 244 245 246
f 247 248 249
f 250 251 252
f 253 254 255
f 256 257 258
f 259 260 261
f 262 263 264
f 265 266 267
f 268 269 270
f 271 272 273
f 274 275 276
f 277 278 279
f 280 281 282
f 283 284 285
f 286 287 288
f 289 290 291
f 292 293 294
f 295 296 297
f 298 299 300
f 301 302 303
f 304 305 306
f 307 308 309
f 310 311 312
f 313 314 315
f 316 317 318
f 319 320 321
f 322 323 324
f 325 326 327
f 328 329 330
f 331 332 333
f 334 335 336
f 337 338 339
f 340 341 342
f 343 344 345
f 346 347 348
f 349 350 351
f 352 353 354
f 355 356 357
f 358 359 360
f 361 362 363
f 364 365 366
f 367 368 369
f 370 371 372
f 373 374 375
f 376 377 378
f 379 380 381
f 382 383 384
f 385 386 387
f 388 389 390
f 391 392 393
f 394 395 396
f 397 398 399
f 400 401 402
f 403 404 405
f 406 407 408
f 409 410 411
f 412 413 414
f 415 416 417
f 418 419 420
f 421 422 423
f 424 425 426
f 427 428 429
f 430 431 432
f 433 434 435
f 436 437 438
f 439 440 441
f 442 443 444
f 445 446 447
f 448 449 450
f 451 452 453
f 454 455 456
f 457 458 459
f 460 461 462
f 463 464 465
f 466 467 468
f 469 470 471
f 472 473 474
f 475 476 477
f 478 479 480
f 481 482 483
f 484 485 486
f 487 488 489
f 490 491 492
f 493 494 495
f 496 497 498
f 499 500 501
f 502 503 504
f 505 506 507
f 508 509 510
f 511 512 513
f 514 515 516
f 517 518 519
f 520 521 522
f 523 524 525
f 526 527 528
f 529 530 531
f 532 533 534
f 535 536 537
f 538 539 540
f 541 542 543
f 544 545 546
f 547 548 549
f 550 551 552
f 553 554 555
f 556 557 558
f 559 560 561
f 562 563 564
f 565 566 567
f 568 569 570
f 571 572 573
f 574 575 576
f 577 578 579
f 580 581 582
f 583 584 585
f 586 587 588
f 589 590 591
f 592 593 594
f 595 596 597
f 598 599 600
f 601 602 603
f 604 605 606
f 607 608 609
f 610 611 612
f 613 614 615
f 616 617 618
f 619 620 621
f 622 623 624
f 625 626 627
f 628 629 630
f 631 632 633
f 634 635 636
f 637 638 639
f 640 641 642
f 643 644 645
f 646 647 648
f 649 650 651
f 652 653 654
f 655 656 657
f 658 659 660
f 661 662 663
f 664 665 666
f 667 668 669
f 670 671 672
f 673 674 675
f 676 677 678
f 679 680 681
f 682 683 684
f 685 686 687
f 688 689 690
f 691 692 693
f 694 695 696
f 697 698 699
f 700 701 702
f 703 704 705
f 706 707 708
f 709 710 711
f 712 713 714
f 715 716 717
f 718 719 720
f 721 722 723
f 724 725 726
f 727 728 729
f 730 731 732
f 733 734 735
f 736 737 738
f 739 740 741
f 742 743 744
f 745 746 747
f 748 749 750
f 751 752 753
f 754 755 756
f 757 758 759
f 760 761 762
f 763 764 765
f 766 767 768
f 769 770 771
f 772 773 774
f 775 776 777
f 778 779 780
f 781 782 783
f 784 785 786
f 787 788 789
f 790 791 792
f 793 794 795
f 796 797 798
f 799 800 801
f 802 803 804
f 805 806 807
f 808 809 810
f 811 812 813
f 814 815 816
f 817 818 819
f 820 821 822
f 823 824 825
f 826 827 828
f 829 830 831
f 832 833 834
f 835 836 837
f 838 839 840
f 841 842 843
f 844 845 846
f 847 848 849
f 850 851 852
f 853 854 855
f 856 857 858
f 859 860 861
f 862 863 864
f 865 866 867
f 868 869 870
f 871 872 873
f 874 875 876
f 877 878 879
f 880 881 882
f 883 884 885
f 886 887 888
f 889 890 891
f 892 893 894
f 895 896 897
f 898 899 900
f 901 902 903
f 904 905 906
f 907 908 909
f 910 911 912
f 913 914 915
f 916 917 918
f 919 920 921
f 922 923 924
f 925 926 927
f 928 929 930
f 931 932 933
f 934 935 936
f 937 938 939
f 940 941 942
f 943 944 945
f 946 947 948
f 949 950 951
f 952 953 954
f 955 956 957
f 958 959 960
f 961 962 963
f 964 965 966
f 967 968 969
f 970 971 972
f 973 974 975
f 976 977 978
f 979 980 981
f 982 983 984
f 985 986 987
f 988 989 990
f 991 992 993
f 994 995 996
f 997 998 999
f 1000 1001 1002
f 1003 1004 1005
f 1006 1007 1008
f 1009 1010 1011
f 1012 1013 1014
f 1015 1016 1017
f 1018 1019 1020
f 1021 1022 1023
f 1024 1025 1026
f 1027 1028 1029
f 1030 1031 1032
f 1033 1034 1035
f 1036 1037 1038
f 1039 1040 1041
f 1042 1043 1044
f 1045 1046 1047
f 1048 1049 1050
f 1051 1052 1053
f 1054 1055 1056
f 1057 1058 1059
f 1060 1061 1062
f 1063 1064 1065
f 1066 1067 1068
f 1069 1070 1071
f 1072 1073 1074
f 1075 1076 1077
f 1078 1079 1080
f 1081 1082 1083
f 1084 1085 1086
f 1087 1088 1089
f 1090 1091 1092
f 1093 1094 1095
f 1096 1097 1098
f 1099 1100 1101
f 1102 1103 1104
f 1105 1106 1107
f 1108 1109 1110
f 1111 1112 1113
f 1114 1115 1116
f 1117 1118 1119
f 1120 1121 1122
f 1123 1124 1125
f 1126 1127 1128
f 1129 1130 1131
f 1132 1133 1134
f 1135 1136 1137
f 1138 1139 1140
f 1141 1142 1143
f 1144 1145 1146
f 1147 1148 1149
f 1150 1151 1152
f 1153 1154 1155
f 1156 1157 1158
f 1159 1160 1161
f 1162 1163 1164
f 1165 1166 1167
f 1168 1169 1170
f 1171 1172 1173
f 1174 1175 1176
f 1177 1178 1179
f 1180 1181 1182
f 1183 1184 1185
f 1186 1187 1188
f 1189 1190 1191
f 1192 1193 1194
f 1195 1196 1197
f 1198 1199 1200
f 1201 1202 1203
f 1204 1205 1206
f 1207 1208 1209
f 1210 1211 1212
f 1213 1214 1215
f 1216 1217 1218
f 1219 1220 1221
f 1222 1223 1224
f 1225 1226 1227
f 1228 1229 1230
f 1231 1232 1233
f 1234 1235 1236
f 1237 1238 1239
f 1240 1241 1242
f 1243 1244 1245
f 1246 1247 1248
f 1249 1250 1251
f 1252 1253 1254
f 1255 1256 1257
f 1258 1259 1260
f 1261 1262 1263
f 1264 1265 1266
f 1267 1268 1269
f 1270 1271 1272
f 1273 1274 1275
f 1276 1277 1278
f 1279 1280 1281
f 1282 1283 1284
f 1285 1286 1287
f 1288 1289 1290
f 1291 1292 1293
f 1294 1295 1296
f 1297 1298 1299
f 1300 1301 1302
f 1303 1304 1305
f 1306 1307 1308
f 1309 1310 1311
f 1312 1313 1314
f 1315 1316 1317
f 1318 1319 1320
f 1321 1322 1323
f 1324 1325 1326
f 1327 1328 1329
f 1330 1331 1332
