mtllib left_hand_thumb_0_link_visuals.mtl
v -0.011500000022351742 -0.0005000000237487257 -0.009499999694526196
v -0.011500000022351742 -0.019300000742077827 -0.009499999694526196
v -0.011500000022351742 -0.0005000000237487257 0.009499999694526196
v -0.011500000022351742 -0.019300000742077827 0.009499999694526196
v -0.011500000022351742 -0.019300000742077827 0.009499999694526196
v -0.011500000022351742 -0.019300000742077827 -0.009499999694526196
v -0.011423003859817982 -0.020474735647439957 -0.009499999694526196
v -0.011423003859817982 -0.020474735647439957 0.009499999694526196
v -0.011423003859817982 -0.020474735647439957 0.009499999694526196
v -0.011423003859817982 -0.020474735647439957 -0.009499999694526196
v -0.011193332262337208 -0.021629370748996735 -0.009499999694526196
v -0.011193332262337208 -0.021629370748996735 0.009499999694526196
v -0.011193332262337208 -0.021629370748996735 0.009499999694526196
v -0.011193332262337208 -0.021629370748996735 -0.009499999694526196
v -0.010814915411174297 -0.022744150832295418 -0.009499999694526196
v -0.010814915411174297 -0.022744150832295418 0.009499999694526196
v -0.010814915411174297 -0.022744150832295418 0.009499999694526196
v -0.010814915411174297 -0.022744150832295418 -0.009499999694526196
v -0.010294228792190552 -0.023800000548362732 -0.009499999694526196
v -0.010294228792190552 -0.023800000548362732 0.009499999694526196
v -0.010294228792190552 -0.023800000548362732 0.009499999694526196
v -0.010294228792190552 -0.023800000548362732 -0.009499999694526196
v -0.009640180505812168 -0.024778852239251137 -0.009499999694526196
v -0.009640180505812168 -0.024778852239251137 0.009499999694526196
v -0.009640180505812168 -0.024778852239251137 0.009499999694526196
v -0.009640180505812168 -0.024778852239251137 -0.009499999694526196
v -0.008863961324095726 -0.025663960725069046 -0.009499999694526196
v -0.008863961324095726 -0.025663960725069046 0.009499999694526196
v -0.008863961324095726 -0.025663960725069046 0.009499999694526196
v -0.008863961324095726 -0.025663960725069046 -0.009499999694526196
v -0.007978852838277817 -0.026440180838108063 -0.009499999694526196
v -0.007978852838277817 -0.026440180838108063 0.009499999694526196
v -0.007978852838277817 -0.026440180838108063 0.009499999694526196
v -0.007978852838277817 -0.026440180838108063 -0.009499999694526196
v -0.007000000216066837 -0.027094228193163872 -0.009499999694526196
v -0.007000000216066837 -0.027094228193163872 0.009499999694526196
v -0.007000000216066837 -0.027094228193163872 0.009499999694526196
v -0.007000000216066837 -0.027094228193163872 -0.009499999694526196
v -0.0059441509656608105 -0.027614915743470192 -0.009499999694526196
v -0.0059441509656608105 -0.027614915743470192 0.009499999694526196
v -0.0059441509656608105 -0.027614915743470192 0.009499999694526196
v -0.0059441509656608105 -0.027614915743470192 -0.009499999694526196
v -0.004829371348023415 -0.027993332594633102 -0.009499999694526196
v -0.004829371348023415 -0.027993332594633102 0.009499999694526196
v -0.004829371348023415 -0.027993332594633102 0.009499999694526196
v -0.004829371348023415 -0.027993332594633102 -0.009499999694526196
v -0.0036747357808053493 -0.028223004192113876 -0.009499999694526196
v -0.0036747357808053493 -0.028223004192113876 0.009499999694526196
v -0.0036747357808053493 -0.028223004192113876 0.009499999694526196
v -0.0036747357808053493 -0.028223004192113876 -0.009499999694526196
v -0.0024999999441206455 -0.028300000354647636 -0.009499999694526196
v -0.0024999999441206455 -0.028300000354647636 0.009499999694526196
v 0.0073928930796682835 -0.028300000354647636 0.009499999694526196
v -0.0024999999441206455 -0.028300000354647636 0.009499999694526196
v 0.0073928930796682835 -0.028300000354647636 -0.009499999694526196
v -0.0024999999441206455 -0.028300000354647636 -0.009499999694526196
v 0.0077464464120566845 -0.02815355360507965 -0.009499999694526196
v 0.009953553788363934 -0.025946445763111115 -0.009499999694526196
v 0.0077464464120566845 -0.02815355360507965 0.009499999694526196
v 0.009953553788363934 -0.025946445763111115 0.009499999694526196
v 0.010099999606609344 -0.025592893362045288 -0.009499999694526196
v 0.010099999606609344 -0.0005000000237487257 -0.009499999694526196
v 0.010099999606609344 -0.025592893362045288 0.009499999694526196
v 0.010099999606609344 -0.0005000000237487257 0.009499999694526196
v -0.010999999940395355 -2.5840047001360266e-18 0.009499999694526196
v 0.009600000455975533 -6.123234211227051e-20 0.009499999694526196
v -0.010999999940395355 -2.5840047001360266e-18 -0.009499999694526196
v 0.009600000455975533 -6.123234211227051e-20 -0.009499999694526196
v -0.011492404155433178 -0.000413175905123353 0.009499999694526196
v -0.011500000022351742 -0.0005000000237487257 0.009499999694526196
v -0.010999999940395355 -2.4936649967166602e-18 0.009499999694526196
v 0.009600000455975533 -6.123234211227051e-20 0.009499999694526196
v -0.011423003859817982 -0.020474735647439957 0.009499999694526196
v -0.0036747357808053493 -0.028223004192113876 0.009499999694526196
v -0.011500000022351742 -0.019300000742077827 0.009499999694526196
v -0.0024999999441206455 -0.028300000354647636 0.009499999694526196
v 0.009953553788363934 -0.025946445763111115 0.009499999694526196
v 0.0073928930796682835 -0.028300000354647636 0.009499999694526196
v 0.0077464464120566845 -0.02815355360507965 0.009499999694526196
v 0.010004508309066296 -0.025886785238981247 0.009499999694526196
v 0.01004550326615572 -0.025819888338446617 0.009499999694526196
v 0.010075528174638748 -0.025747401639819145 0.009499999694526196
v 0.01006984617561102 -0.00032898993231356144 0.009499999694526196
v 0.010033012367784977 -0.0002500000118743628 0.009499999694526196
v 0.009921393357217312 -0.00011697777517838404 0.009499999694526196
v 0.009850000031292439 -6.698729703202844e-05 0.009499999694526196
v 0.009771009907126427 -3.015368929482065e-05 0.009499999694526196
v 0.007547401823103428 -0.02827552892267704 0.009499999694526196
v 0.0076198885217309 -0.028245503082871437 0.009499999694526196
v 0.007686785887926817 -0.028204508125782013 0.009499999694526196
v 0.01009384449571371 -0.025671109557151794 0.009499999694526196
v 0.010099999606609344 -0.025592893362045288 0.009499999694526196
v 0.010099999606609344 -0.0005000000237487257 0.009499999694526196
v 0.01009240373969078 -0.000413175905123353 0.009499999694526196
v 0.009983021765947342 -0.0001786061911843717 0.009499999694526196
v 0.009686823934316635 -7.596123396069743e-06 0.009499999694526196
v -0.01132139377295971 -0.00011697777517838404 0.009499999694526196
v -0.01138302218168974 -0.0001786061911843717 0.009499999694526196
v -0.010294228792190552 -0.023800000548362732 0.009499999694526196
v -0.009640180505812168 -0.024778852239251137 0.009499999694526196
v -0.010814915411174297 -0.022744150832295418 0.009499999694526196
v -0.008863961324095726 -0.025663960725069046 0.009499999694526196
v -0.007978852838277817 -0.026440180838108063 0.009499999694526196
v -0.007000000216066837 -0.027094228193163872 0.009499999694526196
v -0.0059441509656608105 -0.027614915743470192 0.009499999694526196
v -0.011250000447034836 -6.698729703202844e-05 0.009499999694526196
v -0.011086824350059032 -7.596123396069743e-06 0.009499999694526196
v -0.011171010322868824 -3.015368929482065e-05 0.009499999694526196
v -0.011433012783527374 -0.0002500000118743628 0.009499999694526196
v -0.011469846591353416 -0.00032898993231356144 0.009499999694526196
v -0.011193332262337208 -0.021629370748996735 0.009499999694526196
v -0.004829371348023415 -0.027993332594633102 0.009499999694526196
v 0.007471110671758652 -0.028293844312429428 0.009499999694526196
v 0.010075528174638748 -0.025747401639819145 -0.009499999694526196
v 0.01004550326615572 -0.025819888338446617 -0.009499999694526196
v -0.010999999940395355 -2.5840047001360266e-18 -0.009499999694526196
v -0.011492404155433178 -0.000413175905123353 -0.009499999694526196
v -0.011469846591353416 -0.00032898993231356144 -0.009499999694526196
v 0.01009384449571371 -0.025671109557151794 -0.009499999694526196
v 0.010004508309066296 -0.025886785238981247 -0.009499999694526196
v 0.009953553788363934 -0.025946445763111115 -0.009499999694526196
v 0.0077464464120566845 -0.02815355360507965 -0.009499999694526196
v 0.007547401823103428 -0.02827552892267704 -0.009499999694526196
v 0.007471110671758652 -0.028293844312429428 -0.009499999694526196
v 0.0073928930796682835 -0.028300000354647636 -0.009499999694526196
v -0.0024999999441206455 -0.028300000354647636 -0.009499999694526196
v -0.011193332262337208 -0.021629370748996735 -0.009499999694526196
v -0.011423003859817982 -0.020474735647439957 -0.009499999694526196
v -0.0036747357808053493 -0.028223004192113876 -0.009499999694526196
v -0.011500000022351742 -0.019300000742077827 -0.009499999694526196
v -0.011500000022351742 -0.0005000000237487257 -0.009499999694526196
v 0.010033012367784977 -0.0002500000118743628 -0.009499999694526196
v 0.01006984617561102 -0.00032898993231356144 -0.009499999694526196
v 0.009600000455975533 0.0 -0.009499999694526196
v -0.007978852838277817 -0.026440180838108063 -0.009499999694526196
v -0.008863961324095726 -0.025663960725069046 -0.009499999694526196
v -0.009640180505812168 -0.024778852239251137 -0.009499999694526196
v 0.009771009907126427 -3.015368929482065e-05 -0.009499999694526196
v 0.009850000031292439 -6.698729703202844e-05 -0.009499999694526196
v 0.009921393357217312 -0.00011697777517838404 -0.009499999694526196
v 0.01009240373969078 -0.000413175905123353 -0.009499999694526196
v 0.010099999606609344 -0.0005000000237487257 -0.009499999694526196
v 0.010099999606609344 -0.025592893362045288 -0.009499999694526196
v -0.0059441509656608105 -0.027614915743470192 -0.009499999694526196
v -0.007000000216066837 -0.027094228193163872 -0.009499999694526196
v -0.010814915411174297 -0.022744150832295418 -0.009499999694526196
v -0.010294228792190552 -0.023800000548362732 -0.009499999694526196
v -0.011433012783527374 -0.0002500000118743628 -0.009499999694526196
v -0.01138302218168974 -0.0001786061911843717 -0.009499999694526196
v -0.01132139377295971 -0.00011697777517838404 -0.009499999694526196
v -0.011250000447034836 -6.698729703202844e-05 -0.009499999694526196
v -0.011171010322868824 -3.015368929482065e-05 -0.009499999694526196
v -0.011086824350059032 -7.596123396069743e-06 -0.009499999694526196
v 0.009686823934316635 -7.596123396069743e-06 -0.009499999694526196
v 0.007686785887926817 -0.028204508125782013 -0.009499999694526196
v 0.0076198885217309 -0.028245503082871437 -0.009499999694526196
v -0.004829371348023415 -0.027993332594633102 -0.009499999694526196
v 0.009983021765947342 -0.0001786061911843717 -0.009499999694526196
v 0.0073928930796682835 -0.028300000354647636 0.009499999694526196
v 0.0073928930796682835 -0.028300000354647636 -0.009499999694526196
v 0.007471110671758652 -0.028293844312429428 -0.009499999694526196
v 0.007471110671758652 -0.028293844312429428 0.009499999694526196
v 0.007471110671758652 -0.028293844312429428 0.009499999694526196
v 0.007471110671758652 -0.028293844312429428 -0.009499999694526196
v 0.007547401823103428 -0.02827552892267704 -0.009499999694526196
v 0.007547401823103428 -0.02827552892267704 0.009499999694526196
v 0.007547401823103428 -0.02827552892267704 0.009499999694526196
v 0.007547401823103428 -0.02827552892267704 -0.009499999694526196
v 0.0076198885217309 -0.028245503082871437 -0.009499999694526196
v 0.0076198885217309 -0.028245503082871437 0.009499999694526196
v 0.0076198885217309 -0.028245503082871437 0.009499999694526196
v 0.0076198885217309 -0.028245503082871437 -0.009499999694526196
v 0.007686785887926817 -0.028204508125782013 -0.009499999694526196
v 0.007686785887926817 -0.028204508125782013 0.009499999694526196
v 0.007686785887926817 -0.028204508125782013 0.009499999694526196
v 0.007686785887926817 -0.028204508125782013 -0.009499999694526196
v 0.0077464464120566845 -0.02815355360507965 -0.009499999694526196
v 0.0077464464120566845 -0.02815355360507965 0.009499999694526196
v 0.009953553788363934 -0.025946445763111115 0.009499999694526196
v 0.009953553788363934 -0.025946445763111115 -0.009499999694526196
v 0.010004508309066296 -0.025886785238981247 -0.009499999694526196
v 0.010004508309066296 -0.025886785238981247 0.009499999694526196
v 0.010004508309066296 -0.025886785238981247 0.009499999694526196
v 0.010004508309066296 -0.025886785238981247 -0.009499999694526196
v 0.01004550326615572 -0.025819888338446617 -0.009499999694526196
v 0.01004550326615572 -0.025819888338446617 0.009499999694526196
v 0.01004550326615572 -0.025819888338446617 0.009499999694526196
v 0.01004550326615572 -0.025819888338446617 -0.009499999694526196
v 0.010075528174638748 -0.025747401639819145 -0.009499999694526196
v 0.010075528174638748 -0.025747401639819145 0.009499999694526196
v 0.010075528174638748 -0.025747401639819145 0.009499999694526196
v 0.010075528174638748 -0.025747401639819145 -0.009499999694526196
v 0.01009384449571371 -0.025671109557151794 -0.009499999694526196
v 0.01009384449571371 -0.025671109557151794 0.009499999694526196
v 0.01009384449571371 -0.025671109557151794 0.009499999694526196
v 0.01009384449571371 -0.025671109557151794 -0.009499999694526196
v 0.010099999606609344 -0.025592893362045288 -0.009499999694526196
v 0.010099999606609344 -0.025592893362045288 0.009499999694526196
v -0.010999999940395355 -2.4936649967166602e-18 0.009499999694526196
v -0.010999999940395355 -2.4936649967166602e-18 -0.009499999694526196
v -0.011086824350059032 -7.596123396069743e-06 -0.009499999694526196
v -0.011086824350059032 -7.596123396069743e-06 0.009499999694526196
v -0.011086824350059032 -7.596123396069743e-06 0.009499999694526196
v -0.011086824350059032 -7.596123396069743e-06 -0.009499999694526196
v -0.011171010322868824 -3.015368929482065e-05 -0.009499999694526196
v -0.011171010322868824 -3.015368929482065e-05 0.009499999694526196
v -0.011171010322868824 -3.015368929482065e-05 0.009499999694526196
v -0.011171010322868824 -3.015368929482065e-05 -0.009499999694526196
v -0.011250000447034836 -6.698729703202844e-05 -0.009499999694526196
v -0.011250000447034836 -6.698729703202844e-05 0.009499999694526196
v -0.011250000447034836 -6.698729703202844e-05 0.009499999694526196
v -0.011250000447034836 -6.698729703202844e-05 -0.009499999694526196
v -0.01132139377295971 -0.00011697777517838404 -0.009499999694526196
v -0.01132139377295971 -0.00011697777517838404 0.009499999694526196
v -0.01132139377295971 -0.00011697777517838404 0.009499999694526196
v -0.01132139377295971 -0.00011697777517838404 -0.009499999694526196
v -0.01138302218168974 -0.0001786061911843717 -0.009499999694526196
v -0.01138302218168974 -0.0001786061911843717 0.009499999694526196
v -0.01138302218168974 -0.0001786061911843717 0.009499999694526196
v -0.01138302218168974 -0.0001786061911843717 -0.009499999694526196
v -0.011433012783527374 -0.0002500000118743628 -0.009499999694526196
v -0.011433012783527374 -0.0002500000118743628 0.009499999694526196
v -0.011433012783527374 -0.0002500000118743628 0.009499999694526196
v -0.011433012783527374 -0.0002500000118743628 -0.009499999694526196
v -0.011469846591353416 -0.00032898993231356144 -0.009499999694526196
v -0.011469846591353416 -0.00032898993231356144 0.009499999694526196
v -0.011469846591353416 -0.00032898993231356144 0.009499999694526196
v -0.011469846591353416 -0.00032898993231356144 -0.009499999694526196
v -0.011492404155433178 -0.000413175905123353 -0.009499999694526196
v -0.011492404155433178 -0.000413175905123353 0.009499999694526196
v -0.011492404155433178 -0.000413175905123353 0.009499999694526196
v -0.011492404155433178 -0.000413175905123353 -0.009499999694526196
v -0.011500000022351742 -0.0005000000237487257 -0.009499999694526196
v -0.011500000022351742 -0.0005000000237487257 0.009499999694526196
v 0.010099999606609344 -0.0005000000237487257 0.009499999694526196
v 0.010099999606609344 -0.0005000000237487257 -0.009499999694526196
v 0.01009240373969078 -0.000413175905123353 -0.009499999694526196
v 0.01009240373969078 -0.000413175905123353 0.009499999694526196
v 0.01009240373969078 -0.000413175905123353 0.009499999694526196
v 0.01009240373969078 -0.000413175905123353 -0.009499999694526196
v 0.01006984617561102 -0.00032898993231356144 -0.009499999694526196
v 0.01006984617561102 -0.00032898993231356144 0.009499999694526196
v 0.01006984617561102 -0.00032898993231356144 0.009499999694526196
v 0.01006984617561102 -0.00032898993231356144 -0.009499999694526196
v 0.010033012367784977 -0.0002500000118743628 -0.009499999694526196
v 0.010033012367784977 -0.0002500000118743628 0.009499999694526196
v 0.010033012367784977 -0.0002500000118743628 0.009499999694526196
v 0.010033012367784977 -0.0002500000118743628 -0.009499999694526196
v 0.009983021765947342 -0.0001786061911843717 -0.009499999694526196
v 0.009983021765947342 -0.0001786061911843717 0.009499999694526196
v 0.009983021765947342 -0.0001786061911843717 0.009499999694526196
v 0.009983021765947342 -0.0001786061911843717 -0.009499999694526196
v 0.009921393357217312 -0.00011697777517838404 -0.009499999694526196
v 0.009921393357217312 -0.00011697777517838404 0.009499999694526196
v 0.009921393357217312 -0.00011697777517838404 0.009499999694526196
v 0.009921393357217312 -0.00011697777517838404 -0.009499999694526196
v 0.009850000031292439 -6.698729703202844e-05 -0.009499999694526196
v 0.009850000031292439 -6.698729703202844e-05 0.009499999694526196
v 0.009850000031292439 -6.698729703202844e-05 0.009499999694526196
v 0.009850000031292439 -6.698729703202844e-05 -0.009499999694526196
v 0.009771009907126427 -3.015368929482065e-05 -0.009499999694526196
v 0.009771009907126427 -3.015368929482065e-05 0.009499999694526196
v 0.009771009907126427 -3.015368929482065e-05 0.009499999694526196
v 0.009771009907126427 -3.015368929482065e-05 -0.009499999694526196
v 0.009686823934316635 -7.596123396069743e-06 -0.009499999694526196
v 0.009686823934316635 -7.596123396069743e-06 0.009499999694526196
v 0.009686823934316635 -7.596123396069743e-06 0.009499999694526196
v 0.009686823934316635 -7.596123396069743e-06 -0.009499999694526196
v 0.009600000455975533 0.0 -0.009499999694526196
v 0.009600000455975533 0.0 0.009499999694526196
usemtl material_DefaultMaterial
f 1 2 3
f 3 2 4
f 5 6 7
f 5 7 8
f 9 10 11
f 9 11 12
f 13 14 15
f 13 15 16
f 17 18 19
f 17 19 20
f 21 22 23
f 21 23 24
f 25 26 27
f 25 27 28
f 29 30 31
f 29 31 32
f 33 34 35
f 33 35 36
f 37 38 39
f 37 39 40
f 41 42 43
f 41 43 44
f 45 46 47
f 45 47 48
f 49 50 51
f 49 51 52
f 53 54 55
f 55 54 56
f 57 58 59
f 59 58 60
f 61 62 63
f 63 62 64
f 65 66 67
f 67 66 68
f 69 70 71
f 71 70 72
f 73 74 75
f 75 74 76
f 75 76 77
f 77 76 78
f 77 78 79
f 77 80 75
f 75 80 81
f 75 81 82
f 72 83 84
f 85 86 87
f 88 89 90
f 82 91 75
f 75 91 92
f 75 92 70
f 70 92 93
f 70 93 72
f 72 93 94
f 72 94 83
f 84 95 72
f 72 95 85
f 72 85 96
f 96 85 87
f 71 97 98
f 99 100 101
f 101 100 102
f 102 103 101
f 101 103 104
f 101 104 105
f 97 71 106
f 106 71 107
f 106 107 108
f 98 109 71
f 71 109 110
f 71 110 69
f 73 111 74
f 74 111 101
f 74 101 112
f 112 101 105
f 79 78 90
f 90 78 113
f 90 113 88
f 114 115 116
f 117 118 116
f 114 116 119
f 115 120 116
f 116 120 121
f 116 121 122
f 123 124 116
f 116 124 125
f 116 125 126
f 127 128 129
f 129 128 130
f 129 130 126
f 126 130 116
f 116 130 131
f 116 131 117
f 132 133 134
f 135 136 137
f 138 139 140
f 133 141 134
f 134 141 142
f 134 142 116
f 116 142 143
f 116 143 119
f 144 145 146
f 146 145 135
f 146 135 147
f 147 135 137
f 118 148 116
f 116 148 149
f 116 149 150
f 150 151 116
f 116 151 152
f 116 152 153
f 138 140 154
f 122 155 116
f 116 155 156
f 116 156 123
f 127 129 146
f 146 129 157
f 146 157 144
f 154 140 134
f 134 140 158
f 134 158 132
f 159 160 161
f 159 161 162
f 163 164 165
f 163 165 166
f 167 168 169
f 167 169 170
f 171 172 173
f 171 173 174
f 175 176 177
f 175 177 178
f 179 180 181
f 179 181 182
f 183 184 185
f 183 185 186
f 187 188 189
f 187 189 190
f 191 192 193
f 191 193 194
f 195 196 197
f 195 197 198
f 199 200 201
f 199 201 202
f 203 204 205
f 203 205 206
f 207 208 209
f 207 209 210
f 211 212 213
f 211 213 214
f 215 216 217
f 215 217 218
f 219 220 221
f 219 221 222
f 223 224 225
f 223 225 226
f 227 228 229
f 227 229 230
f 231 232 233
f 231 233 234
f 235 236 237
f 235 237 238
f 239 240 241
f 239 241 242
f 243 244 245
f 243 245 246
f 247 248 249
f 247 249 250
f 251 252 253
f 251 253 254
f 255 256 257
f 255 257 258
f 259 260 261
f 259 261 262
f 263 264 265
f 263 265 266
f 267 268 269
f 267 269 270
