mtllib torso_l3_5_mesh.mtl
v -0.05870125815272331 -0.22955922782421112 0.40033501386642456
v -0.05297759175300598 -0.23384301364421844 0.40211915969848633
v -0.05870125815272331 -0.233987957239151 0.4019264578819275
v -0.05870125815272331 -0.22955922782421112 0.40033501386642456
v -0.06442491710186005 -0.2066909223794937 0.39339104294776917
v -0.05870125815272331 -0.2066909223794937 0.39310508966445923
v -0.05870125815272331 -0.233987957239151 0.4019264578819275
v -0.05297759175300598 -0.23384301364421844 0.40211915969848633
v -0.054293371737003326 -0.24977031350135803 0.408963680267334
v -0.041546691209077835 -0.24993136525154114 0.41422292590141296
v -0.04386577010154724 -0.2504306137561798 0.41584548354148865
v -0.054293371737003326 -0.24977031350135803 0.408963680267334
v -0.054293371737003326 -0.24977031350135803 0.408963680267334
v -0.047270361334085464 -0.23332765698432922 0.40268176794052124
v -0.050477590411901474 -0.24936768412590027 0.40936464071273804
v -0.054293371737003326 -0.24977031350135803 0.408963680267334
v -0.04386577010154724 -0.2504306137561798 0.41584548354148865
v -0.047270361334085464 -0.2506721615791321 0.41584548354148865
v -0.054293371737003326 -0.24977031350135803 0.408963680267334
v -0.047270361334085464 -0.2506721615791321 0.41584548354148865
v -0.048915088176727295 -0.25078487396240234 0.41584548354148865
v -0.050477590411901474 -0.24936768412590027 0.40936464071273804
v -0.047270361334085464 -0.23332765698432922 0.40268176794052124
v -0.043767090886831284 -0.23276400566101074 0.4031946361064911
v -0.05870125815272331 -0.24986691772937775 0.4088518023490906
v -0.05870125815272331 -0.233987957239151 0.4019264578819275
v -0.054293371737003326 -0.24977031350135803 0.408963680267334
v -0.06442491710186005 -0.22955922782421112 0.4006396234035492
v -0.06442491710186005 -0.2066909223794937 0.39339104294776917
v -0.05870125815272331 -0.22955922782421112 0.40033501386642456
v -0.06442491710186005 -0.22955922782421112 0.4006396234035492
v -0.11676031351089478 -0.16610772907733917 0.38409408926963806
v -0.11565834283828735 -0.16638152301311493 0.38409408926963806
v -0.06442491710186005 -0.22955922782421112 0.4006396234035492
v -0.11565834283828735 -0.16638152301311493 0.38409408926963806
v -0.10983598977327347 -0.16775037348270416 0.38409408926963806
v -0.038471050560474396 -0.24970586597919464 0.41474515199661255
v -0.041546691209077835 -0.24993136525154114 0.41422292590141296
v -0.054293371737003326 -0.24977031350135803 0.408963680267334
v -0.05870125815272331 -0.22955922782421112 0.40033501386642456
v -0.05870125815272331 -0.2066909223794937 0.39310508966445923
v -0.05297759175300598 -0.2066909223794937 0.3934718370437622
v -0.05870125815272331 -0.22955922782421112 0.40033501386642456
v -0.05297759175300598 -0.2066909223794937 0.3934718370437622
v -0.05297759175300598 -0.22955922782421112 0.4007359743118286
v -0.05870125815272331 -0.22955922782421112 0.40033501386642456
v -0.05297759175300598 -0.22955922782421112 0.4007359743118286
v -0.05297759175300598 -0.23384301364421844 0.40211915969848633
v -0.041546691209077835 -0.25025343894958496 0.41584548354148865
v -0.04386577010154724 -0.2504306137561798 0.41584548354148865
v -0.041546691209077835 -0.24993136525154114 0.41422292590141296
v -0.03269803151488304 -0.23266738653182983 0.408963680267334
v -0.014457950368523598 -0.15407772362232208 0.38409408926963806
v -0.011809930205345154 -0.15030927956104279 0.38409408926963806
v -0.03269803151488304 -0.23266738653182983 0.408963680267334
v -0.043767090886831284 -0.23276400566101074 0.4031946361064911
v -0.014457950368523598 -0.15407772362232208 0.38409408926963806
v -0.05870125815272331 -0.25052720308303833 0.4120284616947174
v -0.05870125815272331 -0.24986691772937775 0.4088518023490906
v -0.054293371737003326 -0.24977031350135803 0.408963680267334
v -0.07014858722686768 -0.23344041407108307 0.4025792181491852
v -0.14421090483665466 -0.1564611792564392 0.38409408926963806
v -0.14172734320163727 -0.15758848190307617 0.38409408926963806
v -0.05870125815272331 -0.25052720308303833 0.4120284616947174
v -0.048915088176727295 -0.25078487396240234 0.41584548354148865
v -0.05488548055291176 -0.2509620189666748 0.41584548354148865
v -0.05870125815272331 -0.25052720308303833 0.4120284616947174
v -0.05488548055291176 -0.2509620189666748 0.41584548354148865
v -0.05870125815272331 -0.25101032853126526 0.41584548354148865
v -0.05870125815272331 -0.25052720308303833 0.4120284616947174
v -0.05870125815272331 -0.25101032853126526 0.41584548354148865
v -0.06442491710186005 -0.250897616147995 0.41584548354148865
v -0.07014858722686768 -0.23344041407108307 0.4025792181491852
v -0.13227014243602753 -0.16148576140403748 0.38409408926963806
v -0.1311681717634201 -0.1618722677230835 0.38409408926963806
v -0.07014858722686768 -0.23344041407108307 0.4025792181491852
v -0.1311681717634201 -0.1618722677230835 0.38409408926963806
v -0.12731948494911194 -0.16316062211990356 0.38409408926963806
v -0.011365850456058979 -0.14963288605213165 0.38409408926963806
v -0.03269803151488304 -0.23266738653182983 0.408963680267334
v -0.011809930205345154 -0.15030927956104279 0.38409408926963806
v -0.038471050560474396 -0.24970586597919464 0.41474515199661255
v -0.041546691209077835 -0.25025343894958496 0.41584548354148865
v -0.041546691209077835 -0.24993136525154114 0.41422292590141296
v -0.06442491710186005 -0.23387522995471954 0.402072548866272
v -0.05870125815272331 -0.233987957239151 0.4019264578819275
v -0.05870125815272331 -0.24986691772937775 0.4088518023490906
v -0.038471050560474396 -0.24970586597919464 0.41474515199661255
v -0.054293371737003326 -0.24977031350135803 0.408963680267334
v -0.050477590411901474 -0.24936768412590027 0.40936464071273804
v -0.038471050560474396 -0.24970586597919464 0.41474515199661255
v -0.050477590411901474 -0.24936768412590027 0.40936464071273804
v -0.043767090886831284 -0.23276400566101074 0.4031946361064911
v -0.038471050560474396 -0.24970586597919464 0.41474515199661255
v -0.043767090886831284 -0.23276400566101074 0.4031946361064911
v -0.03269803151488304 -0.23266738653182983 0.408963680267334
v -0.007105989847332239 -0.08648738265037537 0.38409408926963806
v -0.0066290199756622314 -0.13299700617790222 0.38409408926963806
v -0.007155340164899826 -0.13806989789009094 0.38409408926963806
v -0.007105989847332239 -0.08648738265037537 0.38409408926963806
v -0.03024737909436226 -0.16707399487495422 0.38409408926963806
v -0.03072435036301613 -0.16731557250022888 0.38409408926963806
v -0.007105989847332239 -0.08648738265037537 0.38409408926963806
v -0.03072435036301613 -0.16731557250022888 0.38409408926963806
v -0.03414539992809296 -0.16899043321609497 0.38409408926963806
v -0.05870125815272331 -0.2066909223794937 0.39310508966445923
v -0.06447426974773407 -0.1733386367559433 0.38409408926963806
v -0.05870125815272331 -0.17375734448432922 0.38409408926963806
v -0.05870125815272331 -0.2066909223794937 0.39310508966445923
v -0.05870125815272331 -0.17375734448432922 0.38409408926963806
v -0.05297759175300598 -0.17380565404891968 0.38409408926963806
v -0.05870125815272331 -0.2066909223794937 0.39310508966445923
v -0.05297759175300598 -0.17380565404891968 0.38409408926963806
v -0.05161245912313461 -0.17369292676448822 0.38409408926963806
v -0.05870125815272331 -0.2066909223794937 0.39310508966445923
v -0.05161245912313461 -0.17369292676448822 0.38409408926963806
v -0.04713879153132439 -0.17322589457035065 0.38409408926963806
v -0.05870125815272331 -0.2066909223794937 0.39310508966445923
v -0.04713879153132439 -0.17322589457035065 0.38409408926963806
v -0.05297759175300598 -0.2066909223794937 0.3934718370437622
v -0.007105989847332239 -0.08648738265037537 0.38409408926963806
v -0.008652039803564548 -0.08648738265037537 0.3887813985347748
v -0.007155340164899826 -0.1437869817018509 0.41584548354148865
v -0.007105989847332239 -0.08648738265037537 0.38409408926963806
v -0.014457950368523598 -0.15407772362232208 0.38409408926963806
v -0.017056630924344063 -0.15691210329532623 0.38409408926963806
v -0.007105989847332239 -0.08648738265037537 0.38409408926963806
v -0.017056630924344063 -0.15691210329532623 0.38409408926963806
v -0.01740201935172081 -0.1572825014591217 0.38409408926963806
v -0.007105989847332239 -0.08648738265037537 0.38409408926963806
v -0.01740201935172081 -0.1572825014591217 0.38409408926963806
v -0.019902009516954422 -0.15964986383914948 0.38409408926963806
v -0.007105989847332239 -0.08648738265037537 0.38409408926963806
v -0.019902009516954422 -0.15964986383914948 0.38409408926963806
v -0.02356977015733719 -0.16262918710708618 0.38409408926963806
v -0.007105989847332239 -0.08648738265037537 0.38409408926963806
v -0.02356977015733719 -0.16262918710708618 0.38409408926963806
v -0.024112530052661896 -0.16306398808956146 0.38409408926963806
v -0.007105989847332239 -0.08648738265037537 0.38409408926963806
v -0.024112530052661896 -0.16306398808956146 0.38409408926963806
v -0.025017129257321358 -0.1637081801891327 0.38409408926963806
v -0.007105989847332239 -0.08648738265037537 0.38409408926963806
v -0.025017129257321358 -0.1637081801891327 0.38409408926963806
v -0.02628358080983162 -0.16457781195640564 0.38409408926963806
v -0.007105989847332239 -0.08648738265037537 0.38409408926963806
v -0.14527997374534607 -0.15594582259655 0.38409408926963806
v -0.15019771456718445 -0.1532563865184784 0.38409408926963806
v -0.007105989847332239 -0.08648738265037537 0.38409408926963806
v -0.007155340164899826 -0.13806989789009094 0.38409408926963806
v -0.007270469795912504 -0.13873018324375153 0.38409408926963806
v -0.007105989847332239 -0.08648738265037537 0.38409408926963806
v -0.007270469795912504 -0.13873018324375153 0.38409408926963806
v -0.008767169900238514 -0.1441090703010559 0.38409408926963806
v -0.007105989847332239 -0.08648738265037537 0.38409408926963806
v -0.008767169900238514 -0.1441090703010559 0.38409408926963806
v -0.008980990387499332 -0.1448015570640564 0.38409408926963806
v -0.007105989847332239 -0.08648738265037537 0.38409408926963806
v -0.008980990387499332 -0.1448015570640564 0.38409408926963806
v -0.009342829696834087 -0.1457517147064209 0.38409408926963806
v -0.007105989847332239 -0.08648738265037537 0.38409408926963806
v -0.009342829696834087 -0.1457517147064209 0.38409408926963806
v -0.009869149886071682 -0.14708839356899261 0.38409408926963806
v -0.007105989847332239 -0.08648738265037537 0.38409408926963806
v -0.009869149886071682 -0.14708839356899261 0.38409408926963806
v -0.011365850456058979 -0.14963288605213165 0.38409408926963806
v -0.007105989847332239 -0.08648738265037537 0.38409408926963806
v -0.011365850456058979 -0.14963288605213165 0.38409408926963806
v -0.011809930205345154 -0.15030927956104279 0.38409408926963806
v -0.043767090886831284 -0.23276400566101074 0.4031946361064911
v -0.047270361334085464 -0.23332765698432922 0.40268176794052124
v -0.03024737909436226 -0.16707399487495422 0.38409408926963806
v -0.007105989847332239 -0.08648738265037537 0.38409408926963806
v -0.006563229952007532 -0.14760373532772064 0.41584548354148865
v -0.006645469926297665 -0.10441161692142487 0.38409408926963806
v -0.007105989847332239 -0.08648738265037537 0.38409408926963806
v -0.02628358080983162 -0.16457781195640564 0.38409408926963806
v -0.03024737909436226 -0.16707399487495422 0.38409408926963806
v -0.007105989847332239 -0.08648738265037537 0.38409408926963806
v -0.006645469926297665 -0.10441161692142487 0.38409408926963806
v -0.006530339829623699 -0.11012870073318481 0.38409408926963806
v -0.007105989847332239 -0.08648738265037537 0.38409408926963806
v -0.006530339829623699 -0.11012870073318481 0.38409408926963806
v -0.0064974501729011536 -0.12156286090612411 0.38409408926963806
v -0.007105989847332239 -0.08648738265037537 0.38409408926963806
v -0.0064974501729011536 -0.12156286090612411 0.38409408926963806
v -0.0064974501729011536 -0.12661965191364288 0.38409408926963806
v -0.007105989847332239 -0.08648738265037537 0.38409408926963806
v -0.0064974501729011536 -0.12661965191364288 0.38409408926963806
v -0.0065961298532783985 -0.13233673572540283 0.38409408926963806
v -0.007105989847332239 -0.08648738265037537 0.38409408926963806
v -0.0065961298532783985 -0.13233673572540283 0.38409408926963806
v -0.0066290199756622314 -0.13299700617790222 0.38409408926963806
v -0.007105989847332239 -0.08648738265037537 0.38409408926963806
v -0.17452332377433777 -0.12661965191364288 0.38409408926963806
v -0.1743917465209961 -0.12091868370771408 0.38409408926963806
v -0.007105989847332239 -0.08648738265037537 0.38409408926963806
v -0.1743917465209961 -0.12091868370771408 0.38409408926963806
v -0.17348714172840118 -0.11518549174070358 0.38409408926963806
v -0.007105989847332239 -0.08648738265037537 0.38409408926963806
v -0.17348714172840118 -0.11518549174070358 0.38409408926963806
v -0.17222069203853607 -0.10930737853050232 0.38409408926963806
v -0.007105989847332239 -0.08648738265037537 0.38409408926963806
v -0.17222069203853607 -0.10930737853050232 0.38409408926963806
v -0.1706910878419876 -0.10375133901834488 0.38409408926963806
v -0.007155340164899826 -0.1437869817018509 0.41584548354148865
v -0.007171790115535259 -0.15903788805007935 0.41584548354148865
v -0.006826390046626329 -0.1552211344242096 0.41584548354148865
v -0.007105989847332239 -0.08648738265037537 0.38409408926963806
v -0.1673193871974945 -0.09329956024885178 0.38409408926963806
v -0.16440822184085846 -0.08648738265037537 0.38409408926963806
v -0.007105989847332239 -0.08648738265037537 0.38409408926963806
v -0.16440822184085846 -0.08648738265037537 0.38409408926963806
v -0.1616450548171997 -0.08648738265037537 0.3849395513534546
v -0.007105989847332239 -0.08648738265037537 0.38409408926963806
v -0.1616450548171997 -0.08648738265037537 0.3849395513534546
v -0.030050009489059448 -0.08648738265037537 0.39800065755844116
v -0.007105989847332239 -0.08648738265037537 0.38409408926963806
v -0.16105295717716217 -0.14592887461185455 0.38409408926963806
v -0.16256611049175262 -0.14465661346912384 0.38409408926963806
v -0.007105989847332239 -0.08648738265037537 0.38409408926963806
v -0.16256611049175262 -0.14465661346912384 0.38409408926963806
v -0.16450689733028412 -0.1429656445980072 0.38409408926963806
v -0.007105989847332239 -0.08648738265037537 0.38409408926963806
v -0.16450689733028412 -0.1429656445980072 0.38409408926963806
v -0.16654637455940247 -0.1411297470331192 0.38409408926963806
v -0.007105989847332239 -0.08648738265037537 0.38409408926963806
v -0.16654637455940247 -0.1411297470331192 0.38409408926963806
v -0.16848714649677277 -0.13914890587329865 0.38409408926963806
v -0.007105989847332239 -0.08648738265037537 0.38409408926963806
v -0.12350370734930038 -0.16428792476654053 0.38409408926963806
v -0.12731948494911194 -0.16316062211990356 0.38409408926963806
v -0.007105989847332239 -0.08648738265037537 0.38409408926963806
v -0.1703292429447174 -0.13715195655822754 0.38409408926963806
v -0.17169436812400818 -0.13531604409217834 0.38409408926963806
v -0.007105989847332239 -0.08648738265037537 0.38409408926963806
v -0.17169436812400818 -0.13531604409217834 0.38409408926963806
v -0.17268122732639313 -0.1327071338891983 0.38409408926963806
v -0.007105989847332239 -0.08648738265037537 0.38409408926963806
v -0.17268122732639313 -0.1327071338891983 0.38409408926963806
v -0.17452332377433777 -0.12661965191364288 0.38409408926963806
v -0.007105989847332239 -0.08648738265037537 0.38409408926963806
v -0.13297738134860992 -0.16122809052467346 0.38409408926963806
v -0.1387668251991272 -0.15890905261039734 0.38409408926963806
v -0.007105989847332239 -0.08648738265037537 0.38409408926963806
v -0.1387668251991272 -0.15890905261039734 0.38409408926963806
v -0.14172734320163727 -0.15758848190307617 0.38409408926963806
v -0.007105989847332239 -0.08648738265037537 0.38409408926963806
v -0.14172734320163727 -0.15758848190307617 0.38409408926963806
v -0.14421090483665466 -0.1564611792564392 0.38409408926963806
v -0.007105989847332239 -0.08648738265037537 0.38409408926963806
v -0.14421090483665466 -0.1564611792564392 0.38409408926963806
v -0.14527997374534607 -0.15594582259655 0.38409408926963806
v -0.007105989847332239 -0.08648738265037537 0.38409408926963806
v -0.08730314671993256 -0.17114843428134918 0.38409408926963806
v -0.09301037341356277 -0.17043982446193695 0.38409408926963806
v -0.007105989847332239 -0.08648738265037537 0.38409408926963806
v -0.15019771456718445 -0.1532563865184784 0.38409408926963806
v -0.1552470475435257 -0.15011602640151978 0.38409408926963806
v -0.007105989847332239 -0.08648738265037537 0.38409408926963806
v -0.1552470475435257 -0.15011602640151978 0.38409408926963806
v -0.15715494751930237 -0.1487632542848587 0.38409408926963806
v -0.007105989847332239 -0.08648738265037537 0.38409408926963806
v -0.15715494751930237 -0.1487632542848587 0.38409408926963806
v -0.16105295717716217 -0.14592887461185455 0.38409408926963806
v -0.007105989847332239 -0.08648738265037537 0.38409408926963806
v -0.10983598977327347 -0.16775037348270416 0.38409408926963806
v -0.11565834283828735 -0.16638152301311493 0.38409408926963806
v -0.007105989847332239 -0.08648738265037537 0.38409408926963806
v -0.11565834283828735 -0.16638152301311493 0.38409408926963806
v -0.11676031351089478 -0.16610772907733917 0.38409408926963806
v -0.007105989847332239 -0.08648738265037537 0.38409408926963806
v -0.11676031351089478 -0.16610772907733917 0.38409408926963806
v -0.12161228060722351 -0.1648193746805191 0.38409408926963806
v -0.007105989847332239 -0.08648738265037537 0.38409408926963806
v -0.12161228060722351 -0.1648193746805191 0.38409408926963806
v -0.12350370734930038 -0.16428792476654053 0.38409408926963806
v -0.007105989847332239 -0.08648738265037537 0.38409408926963806
v -0.05297759175300598 -0.17380565404891968 0.38409408926963806
v -0.05870125815272331 -0.17375734448432922 0.38409408926963806
v -0.007105989847332239 -0.08648738265037537 0.38409408926963806
v -0.12731948494911194 -0.16316062211990356 0.38409408926963806
v -0.1311681717634201 -0.1618722677230835 0.38409408926963806
v -0.007105989847332239 -0.08648738265037537 0.38409408926963806
v -0.1311681717634201 -0.1618722677230835 0.38409408926963806
v -0.13227014243602753 -0.16148576140403748 0.38409408926963806
v -0.007105989847332239 -0.08648738265037537 0.38409408926963806
v -0.13227014243602753 -0.16148576140403748 0.38409408926963806
v -0.13297738134860992 -0.16122809052467346 0.38409408926963806
v -0.007155340164899826 -0.1437869817018509 0.41584548354148865
v -0.16541150212287903 -0.1403084248304367 0.41584548354148865
v -0.1676647812128067 -0.14351320266723633 0.41584548354148865
v -0.007155340164899826 -0.1437869817018509 0.41584548354148865
v -0.1676647812128067 -0.14351320266723633 0.41584548354148865
v -0.1690628081560135 -0.14950406551361084 0.41584548354148865
v -0.007155340164899826 -0.1437869817018509 0.41584548354148865
v -0.1690628081560135 -0.14950406551361084 0.41584548354148865
v -0.16662859916687012 -0.15472188591957092 0.41584548354148865
v -0.007155340164899826 -0.1437869817018509 0.41584548354148865
v -0.16662859916687012 -0.15472188591957092 0.41584548354148865
v -0.16491807997226715 -0.15662221610546112 0.41584548354148865
v -0.008915199898183346 -0.1393260508775711 0.41584548354148865
v -0.02079017087817192 -0.08648738265037537 0.39794471859931946
v -0.0208395104855299 -0.08648738265037537 0.39796024560928345
v -0.007155340164899826 -0.1437869817018509 0.41584548354148865
v -0.07988540828227997 -0.24989913403987885 0.41584548354148865
v -0.07784593850374222 -0.25015681982040405 0.41584548354148865
v -0.007155340164899826 -0.1437869817018509 0.41584548354148865
v -0.07784593850374222 -0.25015681982040405 0.41584548354148865
v -0.07585582137107849 -0.25035005807876587 0.41584548354148865
v -0.007155340164899826 -0.1437869817018509 0.41584548354148865
v -0.07585582137107849 -0.25035005807876587 0.41584548354148865
v -0.06995122134685516 -0.25072047114372253 0.41584548354148865
v -0.007155340164899826 -0.1437869817018509 0.41584548354148865
v -0.01467175967991352 -0.13560593128204346 0.41584548354148865
v -0.01866847090423107 -0.13402768969535828 0.41584548354148865
v -0.007155340164899826 -0.1437869817018509 0.41584548354148865
v -0.01866847090423107 -0.13402768969535828 0.41584548354148865
v -0.024392129853367805 -0.13220788538455963 0.41584548354148865
v -0.007155340164899826 -0.1437869817018509 0.41584548354148865
v -0.024392129853367805 -0.13220788538455963 0.41584548354148865
v -0.02771449089050293 -0.1317891627550125 0.41584548354148865
v -0.007155340164899826 -0.1437869817018509 0.41584548354148865
v -0.02771449089050293 -0.1317891627550125 0.41584548354148865
v -0.030099360272288322 -0.13151539862155914 0.41584548354148865
v -0.007105989847332239 -0.08648738265037537 0.38409408926963806
v -0.017977679148316383 -0.08648738265037537 0.3969096541404724
v -0.017895439639687538 -0.08648738265037537 0.39686304330825806
v -0.007155340164899826 -0.1437869817018509 0.41584548354148865
v -0.15592138469219208 -0.13848862051963806 0.41584548354148865
v -0.16176019608974457 -0.1390683799982071 0.41584548354148865
v -0.007155340164899826 -0.1437869817018509 0.41584548354148865
v -0.16176019608974457 -0.1390683799982071 0.41584548354148865
v -0.16514833271503448 -0.1401795893907547 0.41584548354148865
v -0.007155340164899826 -0.1437869817018509 0.41584548354148865
v -0.16514833271503448 -0.1401795893907547 0.41584548354148865
v -0.16541150212287903 -0.1403084248304367 0.41584548354148865
v -0.007105989847332239 -0.08648738265037537 0.38409408926963806
v -0.010329670272767544 -0.08648738265037537 0.39172497391700745
v -0.008684930391609669 -0.08648738265037537 0.3888653516769409
v -0.007105989847332239 -0.08648738265037537 0.38409408926963806
v -0.008684930391609669 -0.08648738265037537 0.3888653516769409
v -0.008652039803564548 -0.08648738265037537 0.3887813985347748
v -0.008652039803564548 -0.08648738265037537 0.3887813985347748
v -0.008684930391609669 -0.08648738265037537 0.3888653516769409
v -0.007155340164899826 -0.1437869817018509 0.41584548354148865
v -0.007155340164899826 -0.1437869817018509 0.41584548354148865
v -0.008684930391609669 -0.08648738265037537 0.3888653516769409
v -0.010329670272767544 -0.08648738265037537 0.39172497391700745
v -0.007105989847332239 -0.08648738265037537 0.38409408926963806
v -0.1706910878419876 -0.10375133901834488 0.38409408926963806
v -0.1673193871974945 -0.09329956024885178 0.38409408926963806
v -0.007155340164899826 -0.1437869817018509 0.41584548354148865
v -0.0077309999614953995 -0.1418544501066208 0.41584548354148865
v -0.008915199898183346 -0.1393260508775711 0.41584548354148865
v -0.007155340164899826 -0.1437869817018509 0.41584548354148865
v -0.008915199898183346 -0.1393260508775711 0.41584548354148865
v -0.013224399648606777 -0.13620178401470184 0.41584548354148865
v -0.007155340164899826 -0.1437869817018509 0.41584548354148865
v -0.013224399648606777 -0.13620178401470184 0.41584548354148865
v -0.01467175967991352 -0.13560593128204346 0.41584548354148865
v -0.007105989847332239 -0.08648738265037537 0.38409408926963806
v -0.030050009489059448 -0.08648738265037537 0.39800065755844116
v -0.024392129853367805 -0.08648738265037537 0.3982928395271301
v -0.007105989847332239 -0.08648738265037537 0.38409408926963806
v -0.024392129853367805 -0.08648738265037537 0.3982928395271301
v -0.0208395104855299 -0.08648738265037537 0.39796024560928345
v -0.007105989847332239 -0.08648738265037537 0.38409408926963806
v -0.0208395104855299 -0.08648738265037537 0.39796024560928345
v -0.02079017087817192 -0.08648738265037537 0.39794471859931946
v -0.007105989847332239 -0.08648738265037537 0.38409408926963806
v -0.02079017087817192 -0.08648738265037537 0.39794471859931946
v -0.017977679148316383 -0.08648738265037537 0.3969096541404724
v -0.007105989847332239 -0.08648738265037537 0.38409408926963806
v -0.16848714649677277 -0.13914890587329865 0.38409408926963806
v -0.1703292429447174 -0.13715195655822754 0.38409408926963806
v -0.007105989847332239 -0.08648738265037537 0.38409408926963806
v -0.017895439639687538 -0.08648738265037537 0.39686304330825806
v -0.013191509991884232 -0.08648738265037537 0.3940500020980835
v -0.007105989847332239 -0.08648738265037537 0.38409408926963806
v -0.013191509991884232 -0.08648738265037537 0.3940500020980835
v -0.013142170384526253 -0.08648738265037537 0.3940126895904541
v -0.007105989847332239 -0.08648738265037537 0.38409408926963806
v -0.013142170384526253 -0.08648738265037537 0.3940126895904541
v -0.010329670272767544 -0.08648738265037537 0.39172497391700745
v -0.006563229952007532 -0.14950406551361084 0.41584548354148865
v -0.0065961298532783985 -0.13233673572540283 0.38409408926963806
v -0.006530339829623699 -0.13233673572540283 0.3891544044017792
v -0.006563229952007532 -0.14950406551361084 0.41584548354148865
v -0.006530339829623699 -0.13233673572540283 0.3891544044017792
v -0.0064974501729011536 -0.13233673572540283 0.394873708486557
v -0.006563229952007532 -0.14950406551361084 0.41584548354148865
v -0.006661919876933098 -0.1533208042383194 0.41584548354148865
v -0.0065961298532783985 -0.13233673572540283 0.38409408926963806
v -0.0064974501729011536 -0.13233673572540283 0.394873708486557
v -0.0064974501729011536 -0.12661965191364288 0.38409408926963806
v -0.0064974501729011536 -0.12156286090612411 0.38409408926963806
v -0.007171790115535259 -0.15903788805007935 0.41584548354148865
v -0.007155340164899826 -0.13806989789009094 0.38409408926963806
v -0.00680994987487793 -0.13806989789009094 0.3891544044017792
v -0.0064974501729011536 -0.13233673572540283 0.394873708486557
v -0.0064974501729011536 -0.12661965191364288 0.3891544044017792
v -0.006513889878988266 -0.12090256810188293 0.3891544044017792
v -0.0064974501729011536 -0.13233673572540283 0.394873708486557
v -0.006513889878988266 -0.12090256810188293 0.3891544044017792
v -0.006530339829623699 -0.11012870073318481 0.38409408926963806
v -0.0064974501729011536 -0.13233673572540283 0.394873708486557
v -0.006530339829623699 -0.13233673572540283 0.3891544044017792
v -0.0064974501729011536 -0.12661965191364288 0.38409408926963806
v -0.006563229952007532 -0.14760373532772064 0.41584548354148865
v -0.006563229952007532 -0.14950406551361084 0.41584548354148865
v -0.0064974501729011536 -0.13233673572540283 0.394873708486557
v -0.006563229952007532 -0.14760373532772064 0.41584548354148865
v -0.0064974501729011536 -0.13233673572540283 0.394873708486557
v -0.006530339829623699 -0.11012870073318481 0.38409408926963806
v -0.006563229952007532 -0.14760373532772064 0.41584548354148865
v -0.006530339829623699 -0.11012870073318481 0.38409408926963806
v -0.006645469926297665 -0.10441161692142487 0.38409408926963806
v -0.16440822184085846 -0.08648738265037537 0.38409408926963806
v -0.1673193871974945 -0.09329956024885178 0.38409408926963806
v -0.1676647812128067 -0.14351320266723633 0.41584548354148865
v -0.007155340164899826 -0.1437869817018509 0.41584548354148865
v -0.048915088176727295 -0.25078487396240234 0.41584548354148865
v -0.047270361334085464 -0.2506721615791321 0.41584548354148865
v -0.16440822184085846 -0.08648738265037537 0.38409408926963806
v -0.16541150212287903 -0.1403084248304367 0.41584548354148865
v -0.1616450548171997 -0.08648738265037537 0.3849395513534546
v -0.010329670272767544 -0.08648738265037537 0.39172497391700745
v -0.013142170384526253 -0.08648738265037537 0.3940126895904541
v -0.008915199898183346 -0.1393260508775711 0.41584548354148865
v -0.010329670272767544 -0.08648738265037537 0.39172497391700745
v -0.008915199898183346 -0.1393260508775711 0.41584548354148865
v -0.0077309999614953995 -0.1418544501066208 0.41584548354148865
v -0.007155340164899826 -0.1437869817018509 0.41584548354148865
v -0.03774736076593399 -0.24980251491069794 0.41584548354148865
v -0.026003969833254814 -0.23308610916137695 0.41584548354148865
v -0.007155340164899826 -0.1437869817018509 0.41584548354148865
v -0.026003969833254814 -0.23308610916137695 0.41584548354148865
v -0.01598755083978176 -0.20714184641838074 0.41584548354148865
v -0.007155340164899826 -0.1437869817018509 0.41584548354148865
v -0.01598755083978176 -0.20714184641838074 0.41584548354148865
v -0.015823079273104668 -0.2066909223794937 0.41584548354148865
v -0.007155340164899826 -0.1437869817018509 0.41584548354148865
v -0.015823079273104668 -0.2066909223794937 0.41584548354148865
v -0.007171790115535259 -0.15903788805007935 0.41584548354148865
v -0.007155340164899826 -0.1437869817018509 0.41584548354148865
v -0.16491807997226715 -0.15662221610546112 0.41584548354148865
v -0.07988540828227997 -0.24989913403987885 0.41584548354148865
v -0.007155340164899826 -0.1437869817018509 0.41584548354148865
v -0.006826390046626329 -0.1552211344242096 0.41584548354148865
v -0.006661919876933098 -0.1533208042383194 0.41584548354148865
v -0.007155340164899826 -0.1437869817018509 0.41584548354148865
v -0.006661919876933098 -0.1533208042383194 0.41584548354148865
v -0.006563229952007532 -0.14950406551361084 0.41584548354148865
v -0.007155340164899826 -0.1437869817018509 0.41584548354148865
v -0.006563229952007532 -0.14950406551361084 0.41584548354148865
v -0.006563229952007532 -0.14760373532772064 0.41584548354148865
v -0.007155340164899826 -0.1437869817018509 0.41584548354148865
v -0.06995122134685516 -0.25072047114372253 0.41584548354148865
v -0.06442491710186005 -0.250897616147995 0.41584548354148865
v -0.007155340164899826 -0.1437869817018509 0.41584548354148865
v -0.06442491710186005 -0.250897616147995 0.41584548354148865
v -0.05870125815272331 -0.25101032853126526 0.41584548354148865
v -0.007155340164899826 -0.1437869817018509 0.41584548354148865
v -0.05870125815272331 -0.25101032853126526 0.41584548354148865
v -0.05488548055291176 -0.2509620189666748 0.41584548354148865
v -0.007155340164899826 -0.1437869817018509 0.41584548354148865
v -0.05488548055291176 -0.2509620189666748 0.41584548354148865
v -0.048915088176727295 -0.25078487396240234 0.41584548354148865
v -0.007155340164899826 -0.1437869817018509 0.41584548354148865
v -0.030099360272288322 -0.13151539862155914 0.41584548354148865
v -0.15592138469219208 -0.13848862051963806 0.41584548354148865
v -0.007155340164899826 -0.1437869817018509 0.41584548354148865
v -0.047270361334085464 -0.2506721615791321 0.41584548354148865
v -0.04386577010154724 -0.2504306137561798 0.41584548354148865
v -0.007155340164899826 -0.1437869817018509 0.41584548354148865
v -0.04386577010154724 -0.2504306137561798 0.41584548354148865
v -0.041546691209077835 -0.25025343894958496 0.41584548354148865
v -0.007155340164899826 -0.1437869817018509 0.41584548354148865
v -0.041546691209077835 -0.25025343894958496 0.41584548354148865
v -0.03774736076593399 -0.24980251491069794 0.41584548354148865
v -0.16176019608974457 -0.1390683799982071 0.41584548354148865
v -0.024392129853367805 -0.08648738265037537 0.3982928395271301
v -0.030050009489059448 -0.08648738265037537 0.39800065755844116
v -0.0208395104855299 -0.08648738265037537 0.39796024560928345
v -0.01866847090423107 -0.13402768969535828 0.41584548354148865
v -0.01467175967991352 -0.13560593128204346 0.41584548354148865
v -0.0208395104855299 -0.08648738265037537 0.39796024560928345
v -0.01467175967991352 -0.13560593128204346 0.41584548354148865
v -0.013224399648606777 -0.13620178401470184 0.41584548354148865
v -0.0208395104855299 -0.08648738265037537 0.39796024560928345
v -0.024392129853367805 -0.08648738265037537 0.3982928395271301
v -0.024392129853367805 -0.13220788538455963 0.41584548354148865
v -0.07784593850374222 -0.25015681982040405 0.41584548354148865
v -0.07911238819360733 -0.24977031350135803 0.4146363437175751
v -0.07585582137107849 -0.2499796748161316 0.41409552097320557
v -0.0066290199756622314 -0.13299700617790222 0.38409408926963806
v -0.006826390046626329 -0.1552211344242096 0.41584548354148865
v -0.007171790115535259 -0.15903788805007935 0.41584548354148865
v -0.0066290199756622314 -0.13299700617790222 0.38409408926963806
v -0.007171790115535259 -0.15903788805007935 0.41584548354148865
v -0.00680994987487793 -0.13806989789009094 0.3891544044017792
v -0.0066290199756622314 -0.13299700617790222 0.38409408926963806
v -0.00680994987487793 -0.13806989789009094 0.3891544044017792
v -0.007155340164899826 -0.13806989789009094 0.38409408926963806
v -0.006661919876933098 -0.1533208042383194 0.41584548354148865
v -0.006826390046626329 -0.1552211344242096 0.41584548354148865
v -0.0066290199756622314 -0.13299700617790222 0.38409408926963806
v -0.17222069203853607 -0.10930737853050232 0.38409408926963806
v -0.17348714172840118 -0.11518549174070358 0.38409408926963806
v -0.1690628081560135 -0.14950406551361084 0.41584548354148865
v -0.1690628081560135 -0.14950406551361084 0.41584548354148865
v -0.16921083629131317 -0.14950406551361084 0.4120284616947174
v -0.16662859916687012 -0.15472188591957092 0.41584548354148865
v -0.1690628081560135 -0.14950406551361084 0.41584548354148865
v -0.17348714172840118 -0.11518549174070358 0.38409408926963806
v -0.1743917465209961 -0.12091868370771408 0.38409408926963806
v -0.1676647812128067 -0.14351320266723633 0.41584548354148865
v -0.17222069203853607 -0.10930737853050232 0.38409408926963806
v -0.1690628081560135 -0.14950406551361084 0.41584548354148865
v -0.1690628081560135 -0.14950406551361084 0.41584548354148865
v -0.17452332377433777 -0.12661965191364288 0.38409408926963806
v -0.1704772710800171 -0.14705617725849152 0.4052741229534149
v -0.1690628081560135 -0.14950406551361084 0.41584548354148865
v -0.1704772710800171 -0.14705617725849152 0.4052741229534149
v -0.16921083629131317 -0.14950406551361084 0.4120284616947174
v -0.16176019608974457 -0.1390683799982071 0.41584548354148865
v -0.15592138469219208 -0.13848862051963806 0.41584548354148865
v -0.024392129853367805 -0.08648738265037537 0.3982928395271301
v -0.013142170384526253 -0.08648738265037537 0.3940126895904541
v -0.013191509991884232 -0.08648738265037537 0.3940500020980835
v -0.008915199898183346 -0.1393260508775711 0.41584548354148865
v -0.008915199898183346 -0.1393260508775711 0.41584548354148865
v -0.013191509991884232 -0.08648738265037537 0.3940500020980835
v -0.017895439639687538 -0.08648738265037537 0.39686304330825806
v -0.008915199898183346 -0.1393260508775711 0.41584548354148865
v -0.017895439639687538 -0.08648738265037537 0.39686304330825806
v -0.017977679148316383 -0.08648738265037537 0.3969096541404724
v -0.008915199898183346 -0.1393260508775711 0.41584548354148865
v -0.017977679148316383 -0.08648738265037537 0.3969096541404724
v -0.02079017087817192 -0.08648738265037537 0.39794471859931946
v -0.0064974501729011536 -0.13233673572540283 0.394873708486557
v -0.0064974501729011536 -0.12156286090612411 0.38409408926963806
v -0.0064974501729011536 -0.12661965191364288 0.3891544044017792
v -0.008915199898183346 -0.1393260508775711 0.41584548354148865
v -0.0208395104855299 -0.08648738265037537 0.39796024560928345
v -0.013224399648606777 -0.13620178401470184 0.41584548354148865
v -0.0065961298532783985 -0.13233673572540283 0.38409408926963806
v -0.006661919876933098 -0.1533208042383194 0.41584548354148865
v -0.0066290199756622314 -0.13299700617790222 0.38409408926963806
v -0.0065961298532783985 -0.13233673572540283 0.38409408926963806
v -0.0064974501729011536 -0.12661965191364288 0.38409408926963806
v -0.006530339829623699 -0.13233673572540283 0.3891544044017792
v -0.006530339829623699 -0.11012870073318481 0.38409408926963806
v -0.006513889878988266 -0.12090256810188293 0.3891544044017792
v -0.0064974501729011536 -0.12661965191364288 0.3891544044017792
v -0.006530339829623699 -0.11012870073318481 0.38409408926963806
v -0.0064974501729011536 -0.12661965191364288 0.3891544044017792
v -0.0064974501729011536 -0.12156286090612411 0.38409408926963806
v -0.1673193871974945 -0.09329956024885178 0.38409408926963806
v -0.1706910878419876 -0.10375133901834488 0.38409408926963806
v -0.1676647812128067 -0.14351320266723633 0.41584548354148865
v -0.1676647812128067 -0.14351320266723633 0.41584548354148865
v -0.1706910878419876 -0.10375133901834488 0.38409408926963806
v -0.17222069203853607 -0.10930737853050232 0.38409408926963806
v -0.16440822184085846 -0.08648738265037537 0.38409408926963806
v -0.1676647812128067 -0.14351320266723633 0.41584548354148865
v -0.16541150212287903 -0.1403084248304367 0.41584548354148865
v -0.16541150212287903 -0.1403084248304367 0.41584548354148865
v -0.16514833271503448 -0.1401795893907547 0.41584548354148865
v -0.1616450548171997 -0.08648738265037537 0.3849395513534546
v -0.1616450548171997 -0.08648738265037537 0.3849395513534546
v -0.16514833271503448 -0.1401795893907547 0.41584548354148865
v -0.16176019608974457 -0.1390683799982071 0.41584548354148865
v -0.1616450548171997 -0.08648738265037537 0.3849395513534546
v -0.16176019608974457 -0.1390683799982071 0.41584548354148865
v -0.030050009489059448 -0.08648738265037537 0.39800065755844116
v -0.17179305851459503 -0.1383114755153656 0.38905805349349976
v -0.17108583450317383 -0.1427079737186432 0.394873708486557
v -0.17347069084644318 -0.13233673572540283 0.3891544044017792
v -0.007270469795912504 -0.13873018324375153 0.38409408926963806
v -0.015823079273104668 -0.2066909223794937 0.41584548354148865
v -0.008767169900238514 -0.1441090703010559 0.38409408926963806
v -0.015823079273104668 -0.2066909223794937 0.41584548354148865
v -0.01598755083978176 -0.20714184641838074 0.41584548354148865
v -0.008980990387499332 -0.1448015570640564 0.38409408926963806
v -0.015823079273104668 -0.2066909223794937 0.41584548354148865
v -0.008980990387499332 -0.1448015570640564 0.38409408926963806
v -0.008767169900238514 -0.1441090703010559 0.38409408926963806
v -0.06995122134685516 -0.25072047114372253 0.41584548354148865
v -0.06442491710186005 -0.24973809719085693 0.4090040922164917
v -0.06442491710186005 -0.25031787157058716 0.4120284616947174
v -0.07988540828227997 -0.24989913403987885 0.41584548354148865
v -0.17008253931999207 -0.14637978374958038 0.39826175570487976
v -0.169243723154068 -0.14555847644805908 0.394873708486557
v -0.07988540828227997 -0.24989913403987885 0.41584548354148865
v -0.169243723154068 -0.14555847644805908 0.394873708486557
v -0.16524702310562134 -0.14739437401294708 0.39090126752853394
v -0.07988540828227997 -0.24989913403987885 0.41584548354148865
v -0.16524702310562134 -0.14739437401294708 0.39090126752853394
v -0.16970424354076385 -0.14038893580436707 0.3870874047279358
v -0.1704772710800171 -0.14705617725849152 0.402072548866272
v -0.17008253931999207 -0.14637978374958038 0.39826175570487976
v -0.16585558652877808 -0.1536106914281845 0.4063091576099396
v -0.1704772710800171 -0.14705617725849152 0.402072548866272
v -0.16585558652877808 -0.1536106914281845 0.4063091576099396
v -0.16654637455940247 -0.1543997973203659 0.4120284616947174
v -0.1704772710800171 -0.14705617725849152 0.402072548866272
v -0.17347069084644318 -0.13233673572540283 0.3891544044017792
v -0.17108583450317383 -0.1427079737186432 0.394873708486557
v -0.16654637455940247 -0.1543997973203659 0.4120284616947174
v -0.16585558652877808 -0.1536106914281845 0.4063091576099396
v -0.07988540828227997 -0.24989913403987885 0.41584548354148865
v -0.17452332377433777 -0.12661965191364288 0.38409408926963806
v -0.17268122732639313 -0.1327071338891983 0.38409408926963806
v -0.17179305851459503 -0.1383114755153656 0.38905805349349976
v -0.17179305851459503 -0.1383114755153656 0.38905805349349976
v -0.17169436812400818 -0.13531604409217834 0.38409408926963806
v -0.17128318548202515 -0.1365721970796585 0.38463181257247925
v -0.17179305851459503 -0.1383114755153656 0.38905805349349976
v -0.17128318548202515 -0.1365721970796585 0.38463181257247925
v -0.17078977823257446 -0.14166119694709778 0.39090126752853394
v -0.17179305851459503 -0.1383114755153656 0.38905805349349976
v -0.17078977823257446 -0.14166119694709778 0.39090126752853394
v -0.17108583450317383 -0.1427079737186432 0.394873708486557
v -0.15592138469219208 -0.13848862051963806 0.41584548354148865
v -0.030099360272288322 -0.13151539862155914 0.41584548354148865
v -0.024392129853367805 -0.08648738265037537 0.3982928395271301
v -0.024392129853367805 -0.08648738265037537 0.3982928395271301
v -0.030099360272288322 -0.13151539862155914 0.41584548354148865
v -0.02771449089050293 -0.1317891627550125 0.41584548354148865
v -0.024392129853367805 -0.08648738265037537 0.3982928395271301
v -0.02771449089050293 -0.1317891627550125 0.41584548354148865
v -0.024392129853367805 -0.13220788538455963 0.41584548354148865
v -0.007171790115535259 -0.15903788805007935 0.41584548354148865
v -0.007270469795912504 -0.13873018324375153 0.38409408926963806
v -0.007155340164899826 -0.13806989789009094 0.38409408926963806
v -0.0208395104855299 -0.08648738265037537 0.39796024560928345
v -0.024392129853367805 -0.13220788538455963 0.41584548354148865
v -0.01866847090423107 -0.13402768969535828 0.41584548354148865
v -0.007171790115535259 -0.15903788805007935 0.41584548354148865
v -0.015823079273104668 -0.2066909223794937 0.41584548354148865
v -0.007270469795912504 -0.13873018324375153 0.38409408926963806
v -0.16491807997226715 -0.15662221610546112 0.41584548354148865
v -0.16654637455940247 -0.1543997973203659 0.4120284616947174
v -0.07988540828227997 -0.24989913403987885 0.41584548354148865
v -0.1704772710800171 -0.14705617725849152 0.402072548866272
v -0.17108583450317383 -0.1427079737186432 0.394873708486557
v -0.17008253931999207 -0.14637978374958038 0.39826175570487976
v -0.16921083629131317 -0.14950406551361084 0.4120284616947174
v -0.1704772710800171 -0.14705617725849152 0.4052741229534149
v -0.16662859916687012 -0.15472188591957092 0.41584548354148865
v -0.16662859916687012 -0.15472188591957092 0.41584548354148865
v -0.1704772710800171 -0.14705617725849152 0.4052741229534149
v -0.1704772710800171 -0.14705617725849152 0.402072548866272
v -0.16662859916687012 -0.15472188591957092 0.41584548354148865
v -0.1704772710800171 -0.14705617725849152 0.402072548866272
v -0.16654637455940247 -0.1543997973203659 0.4120284616947174
v -0.16662859916687012 -0.15472188591957092 0.41584548354148865
v -0.16654637455940247 -0.1543997973203659 0.4120284616947174
v -0.16491807997226715 -0.15662221610546112 0.41584548354148865
v -0.1690628081560135 -0.14950406551361084 0.41584548354148865
v -0.1743917465209961 -0.12091868370771408 0.38409408926963806
v -0.17452332377433777 -0.12661965191364288 0.38409408926963806
v -0.17452332377433777 -0.12661965191364288 0.38409408926963806
v -0.17179305851459503 -0.1383114755153656 0.38905805349349976
v -0.17347069084644318 -0.13233673572540283 0.3891544044017792
v -0.17452332377433777 -0.12661965191364288 0.38409408926963806
v -0.17347069084644318 -0.13233673572540283 0.3891544044017792
v -0.1704772710800171 -0.14705617725849152 0.4052741229534149
v -0.1704772710800171 -0.14705617725849152 0.4052741229534149
v -0.17347069084644318 -0.13233673572540283 0.3891544044017792
v -0.1704772710800171 -0.14705617725849152 0.402072548866272
v -0.07911238819360733 -0.24977031350135803 0.4146363437175751
v -0.15715494751930237 -0.1487632542848587 0.38409408926963806
v -0.1552470475435257 -0.15011602640151978 0.38409408926963806
v -0.07911238819360733 -0.24977031350135803 0.4146363437175751
v -0.1552470475435257 -0.15011602640151978 0.38409408926963806
v -0.06728675961494446 -0.24957704544067383 0.40916571021080017
v -0.07911238819360733 -0.24977031350135803 0.4146363437175751
v -0.06728675961494446 -0.24957704544067383 0.40916571021080017
v -0.07585582137107849 -0.2499796748161316 0.41409552097320557
v -0.009342829696834087 -0.1457517147064209 0.38409408926963806
v -0.026003969833254814 -0.23308610916137695 0.41584548354148865
v -0.009869149886071682 -0.14708839356899261 0.38409408926963806
v -0.05870125815272331 -0.25052720308303833 0.4120284616947174
v -0.054293371737003326 -0.24977031350135803 0.408963680267334
v -0.048915088176727295 -0.25078487396240234 0.41584548354148865
v -0.026003969833254814 -0.23308610916137695 0.41584548354148865
v -0.026776999235153198 -0.23289284110069275 0.4144032299518585
v -0.009869149886071682 -0.14708839356899261 0.38409408926963806
v -0.07585582137107849 -0.2499796748161316 0.41409552097320557
v -0.06728675961494446 -0.24957704544067383 0.40916571021080017
v -0.07585582137107849 -0.25035005807876587 0.41584548354148865
v -0.07585582137107849 -0.25035005807876587 0.41584548354148865
v -0.06728675961494446 -0.24957704544067383 0.40916571021080017
v -0.06442491710186005 -0.24973809719085693 0.4090040922164917
v -0.16970424354076385 -0.14038893580436707 0.3870874047279358
v -0.1658884733915329 -0.14228926599025726 0.38470640778541565
v -0.16384901106357574 -0.14610601961612701 0.3870905041694641
v -0.16970424354076385 -0.14038893580436707 0.3870874047279358
v -0.16384901106357574 -0.14610601961612701 0.3870905041694641
v -0.07911238819360733 -0.24977031350135803 0.4146363437175751
v -0.07911238819360733 -0.24977031350135803 0.4146363437175751
v -0.16384901106357574 -0.14610601961612701 0.3870905041694641
v -0.1658884733915329 -0.14228926599025726 0.38470640778541565
v -0.07911238819360733 -0.24977031350135803 0.4146363437175751
v -0.1658884733915329 -0.14228926599025726 0.38470640778541565
v -0.16654637455940247 -0.1411297470331192 0.38409408926963806
v -0.17169436812400818 -0.13531604409217834 0.38409408926963806
v -0.1703292429447174 -0.13715195655822754 0.38409408926963806
v -0.17128318548202515 -0.1365721970796585 0.38463181257247925
v -0.07911238819360733 -0.24977031350135803 0.4146363437175751
v -0.16450689733028412 -0.1429656445980072 0.38409408926963806
v -0.16256611049175262 -0.14465661346912384 0.38409408926963806
v -0.07911238819360733 -0.24977031350135803 0.4146363437175751
v -0.16256611049175262 -0.14465661346912384 0.38409408926963806
v -0.16105295717716217 -0.14592887461185455 0.38409408926963806
v -0.07911238819360733 -0.24977031350135803 0.4146363437175751
v -0.16105295717716217 -0.14592887461185455 0.38409408926963806
v -0.15715494751930237 -0.1487632542848587 0.38409408926963806
v -0.17078977823257446 -0.14166119694709778 0.39090126752853394
v -0.16524702310562134 -0.14739437401294708 0.39090126752853394
v -0.169243723154068 -0.14555847644805908 0.394873708486557
v -0.01598755083978176 -0.20714184641838074 0.41584548354148865
v -0.009342829696834087 -0.1457517147064209 0.38409408926963806
v -0.008980990387499332 -0.1448015570640564 0.38409408926963806
v -0.01598755083978176 -0.20714184641838074 0.41584548354148865
v -0.026003969833254814 -0.23308610916137695 0.41584548354148865
v -0.009342829696834087 -0.1457517147064209 0.38409408926963806
v -0.07784593850374222 -0.25015681982040405 0.41584548354148865
v -0.07585582137107849 -0.2499796748161316 0.41409552097320557
v -0.07585582137107849 -0.25035005807876587 0.41584548354148865
v -0.07988540828227997 -0.24989913403987885 0.41584548354148865
v -0.16585558652877808 -0.1536106914281845 0.4063091576099396
v -0.17008253931999207 -0.14637978374958038 0.39826175570487976
v -0.16970424354076385 -0.14038893580436707 0.3870874047279358
v -0.1703292429447174 -0.13715195655822754 0.38409408926963806
v -0.16848714649677277 -0.13914890587329865 0.38409408926963806
v -0.16970424354076385 -0.14038893580436707 0.3870874047279358
v -0.16848714649677277 -0.13914890587329865 0.38409408926963806
v -0.16654637455940247 -0.1411297470331192 0.38409408926963806
v -0.16970424354076385 -0.14038893580436707 0.3870874047279358
v -0.16654637455940247 -0.1411297470331192 0.38409408926963806
v -0.1658884733915329 -0.14228926599025726 0.38470640778541565
v -0.07988540828227997 -0.24989913403987885 0.41584548354148865
v -0.16970424354076385 -0.14038893580436707 0.3870874047279358
v -0.07911238819360733 -0.24977031350135803 0.4146363437175751
v -0.07988540828227997 -0.24989913403987885 0.41584548354148865
v -0.07911238819360733 -0.24977031350135803 0.4146363437175751
v -0.07784593850374222 -0.25015681982040405 0.41584548354148865
v -0.17108583450317383 -0.1427079737186432 0.394873708486557
v -0.17078977823257446 -0.14166119694709778 0.39090126752853394
v -0.17008253931999207 -0.14637978374958038 0.39826175570487976
v -0.17008253931999207 -0.14637978374958038 0.39826175570487976
v -0.17078977823257446 -0.14166119694709778 0.39090126752853394
v -0.169243723154068 -0.14555847644805908 0.394873708486557
v -0.17268122732639313 -0.1327071338891983 0.38409408926963806
v -0.17169436812400818 -0.13531604409217834 0.38409408926963806
v -0.17179305851459503 -0.1383114755153656 0.38905805349349976
v -0.17128318548202515 -0.1365721970796585 0.38463181257247925
v -0.1703292429447174 -0.13715195655822754 0.38409408926963806
v -0.16970424354076385 -0.14038893580436707 0.3870874047279358
v -0.17128318548202515 -0.1365721970796585 0.38463181257247925
v -0.16970424354076385 -0.14038893580436707 0.3870874047279358
v -0.17078977823257446 -0.14166119694709778 0.39090126752853394
v -0.17078977823257446 -0.14166119694709778 0.39090126752853394
v -0.16970424354076385 -0.14038893580436707 0.3870874047279358
v -0.16524702310562134 -0.14739437401294708 0.39090126752853394
v -0.06442491710186005 -0.23387522995471954 0.402072548866272
v -0.12161228060722351 -0.1648193746805191 0.38409408926963806
v -0.11676031351089478 -0.16610772907733917 0.38409408926963806
v -0.06442491710186005 -0.23387522995471954 0.402072548866272
v -0.11676031351089478 -0.16610772907733917 0.38409408926963806
v -0.06442491710186005 -0.22955922782421112 0.4006396234035492
v -0.14527997374534607 -0.15594582259655 0.38409408926963806
v -0.14421090483665466 -0.1564611792564392 0.38409408926963806
v -0.07388213276863098 -0.2328767478466034 0.4031045138835907
v -0.07388213276863098 -0.2328767478466034 0.4031045138835907
v -0.14421090483665466 -0.1564611792564392 0.38409408926963806
v -0.07014858722686768 -0.23344041407108307 0.4025792181491852
v -0.05870125815272331 -0.2066909223794937 0.39310508966445923
v -0.07575713098049164 -0.1723562628030777 0.38409408926963806
v -0.07070779800415039 -0.17280718684196472 0.38409408926963806
v -0.07014858722686768 -0.23344041407108307 0.4025792181491852
v -0.14172734320163727 -0.15758848190307617 0.38409408926963806
v -0.1387668251991272 -0.15890905261039734 0.38409408926963806
v -0.07014858722686768 -0.23344041407108307 0.4025792181491852
v -0.1387668251991272 -0.15890905261039734 0.38409408926963806
v -0.13297738134860992 -0.16122809052467346 0.38409408926963806
v -0.07014858722686768 -0.23344041407108307 0.4025792181491852
v -0.13297738134860992 -0.16122809052467346 0.38409408926963806
v -0.13227014243602753 -0.16148576140403748 0.38409408926963806
v -0.06442491710186005 -0.24973809719085693 0.4090040922164917
v -0.05870125815272331 -0.24986691772937775 0.4088518023490906
v -0.05870125815272331 -0.25052720308303833 0.4120284616947174
v -0.06442491710186005 -0.24973809719085693 0.4090040922164917
v -0.05870125815272331 -0.25052720308303833 0.4120284616947174
v -0.06442491710186005 -0.25031787157058716 0.4120284616947174
v -0.06442491710186005 -0.23387522995471954 0.402072548866272
v -0.06442491710186005 -0.22955922782421112 0.4006396234035492
v -0.05870125815272331 -0.22955922782421112 0.40033501386642456
v -0.06442491710186005 -0.23387522995471954 0.402072548866272
v -0.05870125815272331 -0.22955922782421112 0.40033501386642456
v -0.05870125815272331 -0.233987957239151 0.4019264578819275
v -0.06728675961494446 -0.24957704544067383 0.40916571021080017
v -0.14527997374534607 -0.15594582259655 0.38409408926963806
v -0.07388213276863098 -0.2328767478466034 0.4031045138835907
v -0.06442491710186005 -0.23387522995471954 0.402072548866272
v -0.07014858722686768 -0.23344041407108307 0.4025792181491852
v -0.12731948494911194 -0.16316062211990356 0.38409408926963806
v -0.06442491710186005 -0.23387522995471954 0.402072548866272
v -0.12731948494911194 -0.16316062211990356 0.38409408926963806
v -0.12350370734930038 -0.16428792476654053 0.38409408926963806
v -0.06442491710186005 -0.23387522995471954 0.402072548866272
v -0.12350370734930038 -0.16428792476654053 0.38409408926963806
v -0.12161228060722351 -0.1648193746805191 0.38409408926963806
v -0.03774736076593399 -0.24980251491069794 0.41584548354148865
v -0.038471050560474396 -0.24970586597919464 0.41474515199661255
v -0.026776999235153198 -0.23289284110069275 0.4144032299518585
v -0.03774736076593399 -0.24980251491069794 0.41584548354148865
v -0.041546691209077835 -0.25025343894958496 0.41584548354148865
v -0.038471050560474396 -0.24970586597919464 0.41474515199661255
v -0.026776999235153198 -0.23289284110069275 0.4144032299518585
v -0.038471050560474396 -0.24970586597919464 0.41474515199661255
v -0.03269803151488304 -0.23266738653182983 0.408963680267334
v -0.026776999235153198 -0.23289284110069275 0.4144032299518585
v -0.03269803151488304 -0.23266738653182983 0.408963680267334
v -0.011365850456058979 -0.14963288605213165 0.38409408926963806
v -0.026003969833254814 -0.23308610916137695 0.41584548354148865
v -0.03774736076593399 -0.24980251491069794 0.41584548354148865
v -0.026776999235153198 -0.23289284110069275 0.4144032299518585
v -0.06995122134685516 -0.25072047114372253 0.41584548354148865
v -0.06442491710186005 -0.25031787157058716 0.4120284616947174
v -0.05870125815272331 -0.25052720308303833 0.4120284616947174
v -0.06995122134685516 -0.25072047114372253 0.41584548354148865
v -0.05870125815272331 -0.25052720308303833 0.4120284616947174
v -0.06442491710186005 -0.250897616147995 0.41584548354148865
v -0.06442491710186005 -0.24973809719085693 0.4090040922164917
v -0.06442491710186005 -0.23387522995471954 0.402072548866272
v -0.05870125815272331 -0.24986691772937775 0.4088518023490906
v -0.07585582137107849 -0.25035005807876587 0.41584548354148865
v -0.06442491710186005 -0.24973809719085693 0.4090040922164917
v -0.06995122134685516 -0.25072047114372253 0.41584548354148865
v -0.1552470475435257 -0.15011602640151978 0.38409408926963806
v -0.15019771456718445 -0.1532563865184784 0.38409408926963806
v -0.06728675961494446 -0.24957704544067383 0.40916571021080017
v -0.06728675961494446 -0.24957704544067383 0.40916571021080017
v -0.06442491710186005 -0.23387522995471954 0.402072548866272
v -0.06442491710186005 -0.24973809719085693 0.4090040922164917
v -0.06728675961494446 -0.24957704544067383 0.40916571021080017
v -0.15019771456718445 -0.1532563865184784 0.38409408926963806
v -0.14527997374534607 -0.15594582259655 0.38409408926963806
v -0.07911238819360733 -0.24977031350135803 0.4146363437175751
v -0.16654637455940247 -0.1411297470331192 0.38409408926963806
v -0.16450689733028412 -0.1429656445980072 0.38409408926963806
v -0.06728675961494446 -0.24957704544067383 0.40916571021080017
v -0.07388213276863098 -0.2328767478466034 0.4031045138835907
v -0.07014858722686768 -0.23344041407108307 0.4025792181491852
v -0.06728675961494446 -0.24957704544067383 0.40916571021080017
v -0.07014858722686768 -0.23344041407108307 0.4025792181491852
v -0.06442491710186005 -0.23387522995471954 0.402072548866272
v -0.009869149886071682 -0.14708839356899261 0.38409408926963806
v -0.026776999235153198 -0.23289284110069275 0.4144032299518585
v -0.011365850456058979 -0.14963288605213165 0.38409408926963806
v -0.007105989847332239 -0.08648738265037537 0.38409408926963806
v -0.07070779800415039 -0.17280718684196472 0.38409408926963806
v -0.07575713098049164 -0.1723562628030777 0.38409408926963806
v -0.007105989847332239 -0.08648738265037537 0.38409408926963806
v -0.07575713098049164 -0.1723562628030777 0.38409408926963806
v -0.08157947659492493 -0.17177650332450867 0.38409408926963806
v -0.007105989847332239 -0.08648738265037537 0.38409408926963806
v -0.08157947659492493 -0.17177650332450867 0.38409408926963806
v -0.08202356100082397 -0.1717281937599182 0.38409408926963806
v -0.007105989847332239 -0.08648738265037537 0.38409408926963806
v -0.08202356100082397 -0.1717281937599182 0.38409408926963806
v -0.08730314671993256 -0.17114843428134918 0.38409408926963806
v -0.007155340164899826 -0.1437869817018509 0.41584548354148865
v -0.010329670272767544 -0.08648738265037537 0.39172497391700745
v -0.0077309999614953995 -0.1418544501066208 0.41584548354148865
v -0.007105989847332239 -0.08648738265037537 0.38409408926963806
v -0.09301037341356277 -0.17043982446193695 0.38409408926963806
v -0.0987340435385704 -0.169634610414505 0.38409408926963806
v -0.007105989847332239 -0.08648738265037537 0.38409408926963806
v -0.0987340435385704 -0.169634610414505 0.38409408926963806
v -0.10444127023220062 -0.1687488555908203 0.38409408926963806
v -0.007105989847332239 -0.08648738265037537 0.38409408926963806
v -0.10444127023220062 -0.1687488555908203 0.38409408926963806
v -0.10983598977327347 -0.16775037348270416 0.38409408926963806
v -0.007105989847332239 -0.08648738265037537 0.38409408926963806
v -0.035823021084070206 -0.169763445854187 0.38409408926963806
v -0.041990768164396286 -0.17203417420387268 0.38409408926963806
v -0.007105989847332239 -0.08648738265037537 0.38409408926963806
v -0.041990768164396286 -0.17203417420387268 0.38409408926963806
v -0.04713879153132439 -0.17322589457035065 0.38409408926963806
v -0.007105989847332239 -0.08648738265037537 0.38409408926963806
v -0.04713879153132439 -0.17322589457035065 0.38409408926963806
v -0.05161245912313461 -0.17369292676448822 0.38409408926963806
v -0.007105989847332239 -0.08648738265037537 0.38409408926963806
v -0.05161245912313461 -0.17369292676448822 0.38409408926963806
v -0.05297759175300598 -0.17380565404891968 0.38409408926963806
v -0.007105989847332239 -0.08648738265037537 0.38409408926963806
v -0.011809930205345154 -0.15030927956104279 0.38409408926963806
v -0.014457950368523598 -0.15407772362232208 0.38409408926963806
v -0.007105989847332239 -0.08648738265037537 0.38409408926963806
v -0.05870125815272331 -0.17375734448432922 0.38409408926963806
v -0.06447426974773407 -0.1733386367559433 0.38409408926963806
v -0.007105989847332239 -0.08648738265037537 0.38409408926963806
v -0.06447426974773407 -0.1733386367559433 0.38409408926963806
v -0.07016503810882568 -0.17285549640655518 0.38409408926963806
v -0.007105989847332239 -0.08648738265037537 0.38409408926963806
v -0.07016503810882568 -0.17285549640655518 0.38409408926963806
v -0.07070779800415039 -0.17280718684196472 0.38409408926963806
v -0.05297759175300598 -0.2066909223794937 0.3934718370437622
v -0.035823021084070206 -0.169763445854187 0.38409408926963806
v -0.047270361334085464 -0.23332765698432922 0.40268176794052124
v -0.05297759175300598 -0.22955922782421112 0.4007359743118286
v -0.047270361334085464 -0.23332765698432922 0.40268176794052124
v -0.05297759175300598 -0.23384301364421844 0.40211915969848633
v -0.047270361334085464 -0.23332765698432922 0.40268176794052124
v -0.035823021084070206 -0.169763445854187 0.38409408926963806
v -0.03414539992809296 -0.16899043321609497 0.38409408926963806
v -0.047270361334085464 -0.23332765698432922 0.40268176794052124
v -0.03414539992809296 -0.16899043321609497 0.38409408926963806
v -0.03072435036301613 -0.16731557250022888 0.38409408926963806
v -0.047270361334085464 -0.23332765698432922 0.40268176794052124
v -0.03072435036301613 -0.16731557250022888 0.38409408926963806
v -0.03024737909436226 -0.16707399487495422 0.38409408926963806
v -0.05870125815272331 -0.2066909223794937 0.39310508966445923
v -0.10444127023220062 -0.1687488555908203 0.38409408926963806
v -0.0987340435385704 -0.169634610414505 0.38409408926963806
v -0.05297759175300598 -0.2066909223794937 0.3934718370437622
v -0.041990768164396286 -0.17203417420387268 0.38409408926963806
v -0.035823021084070206 -0.169763445854187 0.38409408926963806
v -0.007105989847332239 -0.08648738265037537 0.38409408926963806
v -0.03414539992809296 -0.16899043321609497 0.38409408926963806
v -0.035823021084070206 -0.169763445854187 0.38409408926963806
v -0.043767090886831284 -0.23276400566101074 0.4031946361064911
v -0.025017129257321358 -0.1637081801891327 0.38409408926963806
v -0.024112530052661896 -0.16306398808956146 0.38409408926963806
v -0.05870125815272331 -0.2066909223794937 0.39310508966445923
v -0.0987340435385704 -0.169634610414505 0.38409408926963806
v -0.09301037341356277 -0.17043982446193695 0.38409408926963806
v -0.05870125815272331 -0.2066909223794937 0.39310508966445923
v -0.09301037341356277 -0.17043982446193695 0.38409408926963806
v -0.08730314671993256 -0.17114843428134918 0.38409408926963806
v -0.05870125815272331 -0.2066909223794937 0.39310508966445923
v -0.08730314671993256 -0.17114843428134918 0.38409408926963806
v -0.08202356100082397 -0.1717281937599182 0.38409408926963806
v -0.05870125815272331 -0.2066909223794937 0.39310508966445923
v -0.08202356100082397 -0.1717281937599182 0.38409408926963806
v -0.08157947659492493 -0.17177650332450867 0.38409408926963806
v -0.05870125815272331 -0.2066909223794937 0.39310508966445923
v -0.08157947659492493 -0.17177650332450867 0.38409408926963806
v -0.07575713098049164 -0.1723562628030777 0.38409408926963806
v -0.05297759175300598 -0.2066909223794937 0.3934718370437622
v -0.047270361334085464 -0.23332765698432922 0.40268176794052124
v -0.05297759175300598 -0.22955922782421112 0.4007359743118286
v -0.05297759175300598 -0.2066909223794937 0.3934718370437622
v -0.04713879153132439 -0.17322589457035065 0.38409408926963806
v -0.041990768164396286 -0.17203417420387268 0.38409408926963806
v -0.043767090886831284 -0.23276400566101074 0.4031946361064911
v -0.03024737909436226 -0.16707399487495422 0.38409408926963806
v -0.02628358080983162 -0.16457781195640564 0.38409408926963806
v -0.043767090886831284 -0.23276400566101074 0.4031946361064911
v -0.02628358080983162 -0.16457781195640564 0.38409408926963806
v -0.025017129257321358 -0.1637081801891327 0.38409408926963806
v -0.06442491710186005 -0.22955922782421112 0.4006396234035492
v -0.10983598977327347 -0.16775037348270416 0.38409408926963806
v -0.06442491710186005 -0.2066909223794937 0.39339104294776917
v -0.043767090886831284 -0.23276400566101074 0.4031946361064911
v -0.024112530052661896 -0.16306398808956146 0.38409408926963806
v -0.02356977015733719 -0.16262918710708618 0.38409408926963806
v -0.043767090886831284 -0.23276400566101074 0.4031946361064911
v -0.02356977015733719 -0.16262918710708618 0.38409408926963806
v -0.019902009516954422 -0.15964986383914948 0.38409408926963806
v -0.043767090886831284 -0.23276400566101074 0.4031946361064911
v -0.019902009516954422 -0.15964986383914948 0.38409408926963806
v -0.01740201935172081 -0.1572825014591217 0.38409408926963806
v -0.043767090886831284 -0.23276400566101074 0.4031946361064911
v -0.01740201935172081 -0.1572825014591217 0.38409408926963806
v -0.017056630924344063 -0.15691210329532623 0.38409408926963806
v -0.043767090886831284 -0.23276400566101074 0.4031946361064911
v -0.017056630924344063 -0.15691210329532623 0.38409408926963806
v -0.014457950368523598 -0.15407772362232208 0.38409408926963806
v -0.06442491710186005 -0.2066909223794937 0.39339104294776917
v -0.10983598977327347 -0.16775037348270416 0.38409408926963806
v -0.10444127023220062 -0.1687488555908203 0.38409408926963806
v -0.06442491710186005 -0.2066909223794937 0.39339104294776917
v -0.10444127023220062 -0.1687488555908203 0.38409408926963806
v -0.05870125815272331 -0.2066909223794937 0.39310508966445923
v -0.054293371737003326 -0.24977031350135803 0.408963680267334
v -0.05297759175300598 -0.23384301364421844 0.40211915969848633
v -0.047270361334085464 -0.23332765698432922 0.40268176794052124
v -0.05870125815272331 -0.2066909223794937 0.39310508966445923
v -0.07070779800415039 -0.17280718684196472 0.38409408926963806
v -0.07016503810882568 -0.17285549640655518 0.38409408926963806
v -0.05870125815272331 -0.2066909223794937 0.39310508966445923
v -0.07016503810882568 -0.17285549640655518 0.38409408926963806
v -0.06447426974773407 -0.1733386367559433 0.38409408926963806
v -0.007105989847332239 -0.08648738265037537 0.38409408926963806
v -0.007155340164899826 -0.1437869817018509 0.41584548354148865
v -0.006563229952007532 -0.14760373532772064 0.41584548354148865
usemtl DefaultMaterial
f 1 2 3
f 4 5 6
f 7 8 9
f 10 11 12
f 13 14 15
f 16 17 18
f 19 20 21
f 22 23 24
f 25 26 27
f 28 29 30
f 31 32 33
f 34 35 36
f 37 38 39
f 40 41 42
f 43 44 45
f 46 47 48
f 49 50 51
f 52 53 54
f 55 56 57
f 58 59 60
f 61 62 63
f 64 65 66
f 67 68 69
f 70 71 72
f 73 74 75
f 76 77 78
f 79 80 81
f 82 83 84
f 85 86 87
f 88 89 90
f 91 92 93
f 94 95 96
f 97 98 99
f 100 101 102
f 103 104 105
f 106 107 108
f 109 110 111
f 112 113 114
f 115 116 117
f 118 119 120
f 121 122 123
f 124 125 126
f 127 128 129
f 130 131 132
f 133 134 135
f 136 137 138
f 139 140 141
f 142 143 144
f 145 146 147
f 148 149 150
f 151 152 153
f 154 155 156
f 157 158 159
f 160 161 162
f 163 164 165
f 166 167 168
f 169 170 171
f 172 173 174
f 175 176 177
f 178 179 180
f 181 182 183
f 184 185 186
f 187 188 189
f 190 191 192
f 193 194 195
f 196 197 198
f 199 200 201
f 202 203 204
f 205 206 207
f 208 209 210
f 211 212 213
f 214 215 216
f 217 218 219
f 220 221 222
f 223 224 225
f 226 227 228
f 229 230 231
f 232 233 234
f 235 236 237
f 238 239 240
f 241 242 243
f 244 245 246
f 247 248 249
f 250 251 252
f 253 254 255
f 256 257 258
f 259 260 261
f 262 263 264
f 265 266 267
f 268 269 270
f 271 272 273
f 274 275 276
f 277 278 279
f 280 281 282
f 283 284 285
f 286 287 288
f 289 290 291
f 292 293 294
f 295 296 297
f 298 299 300
f 301 302 303
f 304 305 306
f 307 308 309
f 310 311 312
f 313 314 315
f 316 317 318
f 319 320 321
f 322 323 324
f 325 326 327
f 328 329 330
f 331 332 333
f 334 335 336
f 337 338 339
f 340 341 342
f 343 344 345
f 346 347 348
f 349 350 351
f 352 353 354
f 355 356 357
f 358 359 360
f 361 362 363
f 364 365 366
f 367 368 369
f 370 371 372
f 373 374 375
f 376 377 378
f 379 380 381
f 382 383 384
f 385 386 387
f 388 389 390
f 391 392 393
f 394 395 396
f 397 398 399
f 400 401 402
f 403 404 405
f 406 407 408
f 409 410 411
f 412 413 414
f 415 416 417
f 418 419 420
f 421 422 423
f 424 425 426
f 427 428 429
f 430 431 432
f 433 434 435
f 436 437 438
f 439 440 441
f 442 443 444
f 445 446 447
f 448 449 450
f 451 452 453
f 454 455 456
f 457 458 459
f 460 461 462
f 463 464 465
f 466 467 468
f 469 470 471
f 472 473 474
f 475 476 477
f 478 479 480
f 481 482 483
f 484 485 486
f 487 488 489
f 490 491 492
f 493 494 495
f 496 497 498
f 499 500 501
f 502 503 504
f 505 506 507
f 508 509 510
f 511 512 513
f 514 515 516
f 517 518 519
f 520 521 522
f 523 524 525
f 526 527 528
f 529 530 531
f 532 533 534
f 535 536 537
f 538 539 540
f 541 542 543
f 544 545 546
f 547 548 549
f 550 551 552
f 553 554 555
f 556 557 558
f 559 560 561
f 562 563 564
f 565 566 567
f 568 569 570
f 571 572 573
f 574 575 576
f 577 578 579
f 580 581 582
f 583 584 585
f 586 587 588
f 589 590 591
f 592 593 594
f 595 596 597
f 598 599 600
f 601 602 603
f 604 605 606
f 607 608 609
f 610 611 612
f 613 614 615
f 616 617 618
f 619 620 621
f 622 623 624
f 625 626 627
f 628 629 630
f 631 632 633
f 634 635 636
f 637 638 639
f 640 641 642
f 643 644 645
f 646 647 648
f 649 650 651
f 652 653 654
f 655 656 657
f 658 659 660
f 661 662 663
f 664 665 666
f 667 668 669
f 670 671 672
f 673 674 675
f 676 677 678
f 679 680 681
f 682 683 684
f 685 686 687
f 688 689 690
f 691 692 693
f 694 695 696
f 697 698 699
f 700 701 702
f 703 704 705
f 706 707 708
f 709 710 711
f 712 713 714
f 715 716 717
f 718 719 720
f 721 722 723
f 724 725 726
f 727 728 729
f 730 731 732
f 733 734 735
f 736 737 738
f 739 740 741
f 742 743 744
f 745 746 747
f 748 749 750
f 751 752 753
f 754 755 756
f 757 758 759
f 760 761 762
f 763 764 765
f 766 767 768
f 769 770 771
f 772 773 774
f 775 776 777
f 778 779 780
f 781 782 783
f 784 785 786
f 787 788 789
f 790 791 792
f 793 794 795
f 796 797 798
f 799 800 801
f 802 803 804
f 805 806 807
f 808 809 810
f 811 812 813
f 814 815 816
f 817 818 819
f 820 821 822
f 823 824 825
f 826 827 828
f 829 830 831
f 832 833 834
f 835 836 837
f 838 839 840
f 841 842 843
f 844 845 846
f 847 848 849
f 850 851 852
f 853 854 855
f 856 857 858
f 859 860 861
f 862 863 864
f 865 866 867
f 868 869 870
f 871 872 873
f 874 875 876
f 877 878 879
f 880 881 882
f 883 884 885
f 886 887 888
f 889 890 891
f 892 893 894
f 895 896 897
f 898 899 900
f 901 902 903
f 904 905 906
f 907 908 909
f 910 911 912
f 913 914 915
f 916 917 918
f 919 920 921
f 922 923 924
f 925 926 927
f 928 929 930
f 931 932 933
f 934 935 936
f 937 938 939
f 940 941 942
f 943 944 945
f 946 947 948
f 949 950 951
f 952 953 954
f 955 956 957
f 958 959 960
f 961 962 963
f 964 965 966
f 967 968 969
f 970 971 972
f 973 974 975
f 976 977 978
f 979 980 981
f 982 983 984
f 985 986 987
f 988 989 990
f 991 992 993
f 994 995 996
f 997 998 999
f 1000 1001 1002
