mtllib torso_l3_2_mesh.mtl
v -0.047259021550416946 -0.009101450443267822 0.32521897554397583
v -0.11117087304592133 -0.021741710603237152 0.32521897554397583
v -0.11570145934820175 -0.024102479219436646 0.32521897554397583
v -0.047259021550416946 -0.009101450443267822 0.32521897554397583
v -0.11570145934820175 -0.024102479219436646 0.32521897554397583
v -0.11624017357826233 -0.02438577078282833 0.32521897554397583
v -0.047259021550416946 -0.009101450443267822 0.32521897554397583
v -0.12639257311820984 -0.031117349863052368 0.32521897554397583
v -0.12901701033115387 -0.03334321826696396 0.32521897554397583
v -0.047259021550416946 -0.009101450443267822 0.32521897554397583
v -0.12901701033115387 -0.03334321826696396 0.32521897554397583
v -0.12954188883304596 -0.033828869462013245 0.32521897554397583
v -0.047259021550416946 -0.009101450443267822 0.32521897554397583
v -0.12954188883304596 -0.033828869462013245 0.32521897554397583
v -0.1311994343996048 -0.03540721908211708 0.32521897554397583
v -0.047259021550416946 -0.009101450443267822 0.32521897554397583
v -0.1311994343996048 -0.03540721908211708 0.32521897554397583
v -0.13193151354789734 -0.036135680973529816 0.32521897554397583
v -0.047259021550416946 -0.009101450443267822 0.32521897554397583
v -0.05196918919682503 -0.009182389825582504 0.32521897554397583
v -0.052576951682567596 -0.00919588003307581 0.32521897554397583
v -0.047259021550416946 -0.009101450443267822 0.32521897554397583
v -0.052576951682567596 -0.00919588003307581 0.32521897554397583
v -0.05314328148961067 -0.00922286044806242 0.32521897554397583
v -0.047259021550416946 -0.009101450443267822 0.32521897554397583
v -0.087260901927948 -0.013957899995148182 0.32521897554397583
v -0.09068647772073746 -0.014726829715073109 0.32521897554397583
v -0.047259021550416946 -0.009101450443267822 0.32521897554397583
v -0.09068647772073746 -0.014726829715073109 0.32521897554397583
v -0.09404298663139343 -0.015617179684340954 0.32521897554397583
v -0.047259021550416946 -0.009101450443267822 0.32521897554397583
v -0.13193151354789734 -0.036135680973529816 0.32521897554397583
v -0.1348322033882141 -0.0393868088722229 0.32521897554397583
v -0.047259021550416946 -0.009101450443267822 0.32521897554397583
v -0.1348322033882141 -0.0393868088722229 0.32521897554397583
v -0.1353570818901062 -0.040061309933662415 0.32521897554397583
v -0.047259021550416946 -0.009101450443267822 0.32521897554397583
v -0.1353570818901062 -0.040061309933662415 0.32521897554397583
v -0.13653117418289185 -0.04159919172525406 0.32521897554397583
v -0.047259021550416946 -0.009101450443267822 0.32521897554397583
v -0.13653117418289185 -0.04159919172525406 0.32521897554397583
v -0.1371941864490509 -0.042476050555706024 0.32521897554397583
v -0.047259021550416946 -0.009101450443267822 0.32521897554397583
v -0.10780054330825806 -0.020244300365447998 0.32521897554397583
v -0.10824254900217056 -0.020433159545063972 0.32521897554397583
v -0.047259021550416946 -0.009101450443267822 0.32521897554397583
v -0.10824254900217056 -0.020433159545063972 0.32521897554397583
v -0.11117087304592133 -0.021741710603237152 0.32521897554397583
v -0.041581958532333374 -0.14081914722919464 0.23273706436157227
v -0.047259021550416946 -0.14691667258739471 0.32521897554397583
v -0.04348812997341156 -0.1408461183309555 0.23273706436157227
v -0.07726042717695236 -0.1367855966091156 0.23273706436157227
v -0.07586534321308136 -0.13731171190738678 0.23273706436157227
v -0.1043887808918953 -0.13701492547988892 0.32521897554397583
v -0.047259021550416946 -0.009101450443267822 0.32521897554397583
v -0.1432718187570572 -0.10239923000335693 0.32521897554397583
v -0.14259499311447144 -0.10411248356103897 0.32521897554397583
v -0.047259021550416946 -0.009101450443267822 0.32521897554397583
v -0.14259499311447144 -0.10411248356103897 0.32521897554397583
v -0.13988767564296722 -0.10945457220077515 0.32521897554397583
v -0.047259021550416946 -0.009101450443267822 0.32521897554397583
v -0.13988767564296722 -0.10945457220077515 0.32521897554397583
v -0.1372079998254776 -0.11352860182523727 0.32521897554397583
v -0.047259021550416946 -0.009101450443267822 0.32521897554397583
v -0.1372079998254776 -0.11352860182523727 0.32521897554397583
v -0.13543996214866638 -0.11587587743997574 0.32521897554397583
v -0.047259021550416946 -0.009101450443267822 0.32521897554397583
v -0.1455647498369217 -0.0608900785446167 0.32521897554397583
v -0.14631064236164093 -0.06370951980352402 0.32521897554397583
v -0.047259021550416946 -0.009101450443267822 0.32521897554397583
v -0.14631064236164093 -0.06370951980352402 0.32521897554397583
v -0.14716702699661255 -0.06942933797836304 0.32521897554397583
v -0.047259021550416946 -0.14691667258739471 0.32521897554397583
v -0.047259021550416946 -0.140886589884758 0.23273706436157227
v -0.04348812997341156 -0.1408461183309555 0.23273706436157227
v -0.047259021550416946 -0.14691667258739471 0.32521897554397583
v -0.0483916699886322 -0.14690318703651428 0.32521897554397583
v -0.056030161678791046 -0.14092706143856049 0.23273706436157227
v -0.07586534321308136 -0.13731171190738678 0.23273706436157227
v -0.09306228160858154 -0.14065726101398468 0.32521897554397583
v -0.09405680000782013 -0.14038746058940887 0.32521897554397583
v -0.07586534321308136 -0.13731171190738678 0.23273706436157227
v -0.09405680000782013 -0.14038746058940887 0.32521897554397583
v -0.09872552752494812 -0.13898448646068573 0.32521897554397583
v -0.0483916699886322 -0.14690318703651428 0.32521897554397583
v -0.05227306857705116 -0.14683574438095093 0.32521897554397583
v -0.056030161678791046 -0.14092706143856049 0.23273706436157227
v -0.056030161678791046 -0.14092706143856049 0.23273706436157227
v -0.05759099870920181 -0.1464715152978897 0.32521897554397583
v -0.05915185064077377 -0.1463366150856018 0.32521897554397583
v -0.07992631196975708 -0.13577382266521454 0.23273706436157227
v -0.11009346693754196 -0.1347350925207138 0.32521897554397583
v -0.11112943291664124 -0.13423596322536469 0.32521897554397583
v -0.042880360037088394 -0.14674131572246552 0.32521897554397583
v -0.047259021550416946 -0.14691667258739471 0.32521897554397583
v -0.041581958532333374 -0.14081914722919464 0.23273706436157227
v -0.047259021550416946 -0.009101450443267822 0.32521897554397583
v -0.05911041051149368 -0.009668029844760895 0.32521897554397583
v -0.06340619176626205 -0.0101401899009943 0.32521897554397583
v -0.047259021550416946 -0.009101450443267822 0.32521897554397583
v -0.06340619176626205 -0.0101401899009943 0.32521897554397583
v -0.06442833691835403 -0.010261599905788898 0.32521897554397583
v -0.047259021550416946 -0.009101450443267822 0.32521897554397583
v -0.0483916699886322 -0.14690318703651428 0.32521897554397583
v -0.047259021550416946 -0.14691667258739471 0.32521897554397583
v -0.047259021550416946 -0.009101450443267822 0.32521897554397583
v -0.047259021550416946 -0.14691667258739471 0.32521897554397583
v -0.042880360037088394 -0.14674131572246552 0.32521897554397583
v -0.047259021550416946 -0.009101450443267822 0.32521897554397583
v -0.042880360037088394 -0.14674131572246552 0.32521897554397583
v -0.04199634864926338 -0.14666037261486053 0.32521897554397583
v -0.047259021550416946 -0.009101450443267822 0.32521897554397583
v -0.04199634864926338 -0.14666037261486053 0.32521897554397583
v -0.04071174934506416 -0.14653895795345306 0.32521897554397583
v -0.047259021550416946 -0.009101450443267822 0.32521897554397583
v -0.09306228160858154 -0.14065726101398468 0.32521897554397583
v -0.09115611016750336 -0.141156405210495 0.32521897554397583
v -0.047259021550416946 -0.009101450443267822 0.32521897554397583
v -0.09115611016750336 -0.141156405210495 0.32521897554397583
v -0.087260901927948 -0.14203324913978577 0.32521897554397583
v -0.047259021550416946 -0.009101450443267822 0.32521897554397583
v -0.13195912539958954 -0.11988244950771332 0.32521897554397583
v -0.12965239584445953 -0.12212181091308594 0.32521897554397583
v -0.047259021550416946 -0.009101450443267822 0.32521897554397583
v -0.12965239584445953 -0.12212181091308594 0.32521897554397583
v -0.1284645050764084 -0.12316054850816727 0.32521897554397583
v -0.047259021550416946 -0.009101450443267822 0.32521897554397583
v -0.09404298663139343 -0.015617179684340954 0.32521897554397583
v -0.09753762930631638 -0.016642430797219276 0.32521897554397583
v -0.047259021550416946 -0.009101450443267822 0.32521897554397583
v -0.09753762930631638 -0.016642430797219276 0.32521897554397583
v -0.09872552752494812 -0.01702016033232212 0.32521897554397583
v -0.047259021550416946 -0.009101450443267822 0.32521897554397583
v -0.09872552752494812 -0.01702016033232212 0.32521897554397583
v -0.1034357026219368 -0.01859850063920021 0.32521897554397583
v -0.047259021550416946 -0.009101450443267822 0.32521897554397583
v -0.1034357026219368 -0.01859850063920021 0.32521897554397583
v -0.10780054330825806 -0.020244300365447998 0.32521897554397583
v -0.047259021550416946 -0.009101450443267822 0.32521897554397583
v -0.05314328148961067 -0.00922286044806242 0.32521897554397583
v -0.055408578366041183 -0.009344270452857018 0.32521897554397583
v -0.047259021550416946 -0.009101450443267822 0.32521897554397583
v -0.055408578366041183 -0.009344270452857018 0.32521897554397583
v -0.05911041051149368 -0.009668029844760895 0.32521897554397583
v -0.047259021550416946 -0.009101450443267822 0.32521897554397583
v -0.14483267068862915 -0.0980149433016777 0.32521897554397583
v -0.1446669101715088 -0.09851407259702682 0.32521897554397583
v -0.047259021550416946 -0.009101450443267822 0.32521897554397583
v -0.1446669101715088 -0.09851407259702682 0.32521897554397583
v -0.1432718187570572 -0.10239923000335693 0.32521897554397583
v -0.047259021550416946 -0.009101450443267822 0.32521897554397583
v -0.06442833691835403 -0.010261599905788898 0.32521897554397583
v -0.0701468363404274 -0.010963089764118195 0.32521897554397583
v -0.047259021550416946 -0.009101450443267822 0.32521897554397583
v -0.0701468363404274 -0.010963089764118195 0.32521897554397583
v -0.07484319061040878 -0.01162410993129015 0.32521897554397583
v -0.047259021550416946 -0.009101450443267822 0.32521897554397583
v -0.07484319061040878 -0.01162410993129015 0.32521897554397583
v -0.07586534321308136 -0.011785989627242088 0.32521897554397583
v -0.047259021550416946 -0.009101450443267822 0.32521897554397583
v -0.07586534321308136 -0.011785989627242088 0.32521897554397583
v -0.08157002925872803 -0.012770759873092175 0.32521897554397583
v -0.047259021550416946 -0.009101450443267822 0.32521897554397583
v -0.13543996214866638 -0.11587587743997574 0.32521897554397583
v -0.13412773609161377 -0.11738677322864532 0.32521897554397583
v -0.047259021550416946 -0.009101450443267822 0.32521897554397583
v -0.13412773609161377 -0.11738677322864532 0.32521897554397583
v -0.13195912539958954 -0.11988244950771332 0.32521897554397583
v -0.047259021550416946 -0.009101450443267822 0.32521897554397583
v -0.14716702699661255 -0.06942933797836304 0.32521897554397583
v -0.147457093000412 -0.07317960262298584 0.32521897554397583
v -0.047259021550416946 -0.009101450443267822 0.32521897554397583
v -0.147457093000412 -0.07317960262298584 0.32521897554397583
v -0.14759522676467896 -0.07514916360378265 0.32521897554397583
v -0.047259021550416946 -0.009101450443267822 0.32521897554397583
v -0.1284645050764084 -0.12316054850816727 0.32521897554397583
v -0.12640638649463654 -0.1249142736196518 0.32521897554397583
v -0.047259021550416946 -0.009101450443267822 0.32521897554397583
v -0.12640638649463654 -0.1249142736196518 0.32521897554397583
v -0.1219724789261818 -0.12819236516952515 0.32521897554397583
v -0.047259021550416946 -0.009101450443267822 0.32521897554397583
v -0.1219724789261818 -0.12819236516952515 0.32521897554397583
v -0.12128183990716934 -0.12869150936603546 0.32521897554397583
v -0.047259021550416946 -0.009101450443267822 0.32521897554397583
v -0.12128183990716934 -0.12869150936603546 0.32521897554397583
v -0.11691699177026749 -0.1312006711959839 0.32521897554397583
v -0.047259021550416946 -0.009101450443267822 0.32521897554397583
v -0.14632445573806763 -0.09229511767625809 0.32521897554397583
v -0.1455371230840683 -0.09531690925359726 0.32521897554397583
v -0.047259021550416946 -0.009101450443267822 0.32521897554397583
v -0.1455371230840683 -0.09531690925359726 0.32521897554397583
v -0.14483267068862915 -0.0980149433016777 0.32521897554397583
v -0.047259021550416946 -0.009101450443267822 0.32521897554397583
v -0.11112943291664124 -0.13423596322536469 0.32521897554397583
v -0.11009346693754196 -0.1347350925207138 0.32521897554397583
v -0.047259021550416946 -0.009101450443267822 0.32521897554397583
v -0.11009346693754196 -0.1347350925207138 0.32521897554397583
v -0.10821492969989777 -0.13554449379444122 0.32521897554397583
v -0.04177533835172653 -0.01518549956381321 0.23273706436157227
v -0.007892530411481857 -0.1266140341758728 0.23273706436157227
v -0.008997559547424316 -0.12885339558124542 0.23273706436157227
v -0.04177533835172653 -0.01518549956381321 0.23273706436157227
v -0.008997559547424316 -0.12885339558124542 0.23273706436157227
v -0.009591509588062763 -0.13004052639007568 0.23273706436157227
v -0.04177533835172653 -0.01518549956381321 0.23273706436157227
v -0.009591509588062763 -0.13004052639007568 0.23273706436157227
v -0.012948020361363888 -0.132765531539917 0.23273706436157227
v -0.04177533835172653 -0.01518549956381321 0.23273706436157227
v -0.012948020361363888 -0.132765531539917 0.23273706436157227
v -0.01611115038394928 -0.13505885004997253 0.23273706436157227
v -0.04177533835172653 -0.01518549956381321 0.23273706436157227
v -0.018942780792713165 -0.019731679931282997 0.23273706436157227
v -0.01706423982977867 -0.020514100790023804 0.23273706436157227
v -0.04177533835172653 -0.01518549956381321 0.23273706436157227
v -0.01706423982977867 -0.020514100790023804 0.23273706436157227
v -0.016083529219031334 -0.02093230001628399 0.23273706436157227
v -0.047259021550416946 -0.009101450443267822 0.32521897554397583
v -0.042880360037088394 -0.009263330139219761 0.32521897554397583
v -0.046236880123615265 -0.009114939719438553 0.32521897554397583
v -0.047259021550416946 -0.009101450443267822 0.32521897554397583
v -0.046236880123615265 -0.009114939719438553 0.32521897554397583
v -0.04177533835172653 -0.01518549956381321 0.23273706436157227
v -0.047259021550416946 -0.009101450443267822 0.32521897554397583
v -0.07586534321308136 -0.14421865344047546 0.32521897554397583
v -0.0701468363404274 -0.1450415551662445 0.32521897554397583
v -0.047259021550416946 -0.009101450443267822 0.32521897554397583
v -0.0701468363404274 -0.1450415551662445 0.32521897554397583
v -0.06442833691835403 -0.1457565277814865 0.32521897554397583
v -0.047259021550416946 -0.009101450443267822 0.32521897554397583
v -0.06442833691835403 -0.1457565277814865 0.32521897554397583
v -0.05992535874247551 -0.14625567197799683 0.32521897554397583
v -0.047259021550416946 -0.009101450443267822 0.32521897554397583
v -0.05992535874247551 -0.14625567197799683 0.32521897554397583
v -0.05915185064077377 -0.1463366150856018 0.32521897554397583
v -0.047259021550416946 -0.009101450443267822 0.32521897554397583
v -0.11691699177026749 -0.1312006711959839 0.32521897554397583
v -0.11624017357826233 -0.13157840073108673 0.32521897554397583
v -0.047259021550416946 -0.009101450443267822 0.32521897554397583
v -0.11624017357826233 -0.13157840073108673 0.32521897554397583
v -0.11112943291664124 -0.13423596322536469 0.32521897554397583
v -0.047259021550416946 -0.009101450443267822 0.32521897554397583
v -0.02069699950516224 -0.014672880060970783 0.32521897554397583
v -0.023804880678653717 -0.013377820141613483 0.32521897554397583
v -0.047259021550416946 -0.009101450443267822 0.32521897554397583
v -0.023804880678653717 -0.013377820141613483 0.32521897554397583
v -0.02438502013683319 -0.013148490339517593 0.32521897554397583
v -0.047259021550416946 -0.009101450443267822 0.32521897554397583
v -0.10821492969989777 -0.13554449379444122 0.32521897554397583
v -0.1043887808918953 -0.13701492547988892 0.32521897554397583
v -0.047259021550416946 -0.009101450443267822 0.32521897554397583
v -0.1043887808918953 -0.13701492547988892 0.32521897554397583
v -0.09872552752494812 -0.13898448646068573 0.32521897554397583
v -0.047259021550416946 -0.009101450443267822 0.32521897554397583
v -0.09872552752494812 -0.13898448646068573 0.32521897554397583
v -0.09405680000782013 -0.14038746058940887 0.32521897554397583
v -0.047259021550416946 -0.009101450443267822 0.32521897554397583
v -0.09405680000782013 -0.14038746058940887 0.32521897554397583
v -0.09306228160858154 -0.14065726101398468 0.32521897554397583
v -0.047259021550416946 -0.009101450443267822 0.32521897554397583
v -0.03955148160457611 -0.009614069946110249 0.32521897554397583
v -0.04071174934506416 -0.009465680457651615 0.32521897554397583
v -0.047259021550416946 -0.009101450443267822 0.32521897554397583
v -0.04071174934506416 -0.009465680457651615 0.32521897554397583
v -0.042880360037088394 -0.009263330139219761 0.32521897554397583
v -0.047259021550416946 -0.009101450443267822 0.32521897554397583
v -0.006594129838049412 -0.03511042892932892 0.32521897554397583
v -0.0073400200344622135 -0.0293906107544899 0.32521897554397583
v -0.047259021550416946 -0.009101450443267822 0.32521897554397583
v -0.0073400200344622135 -0.0293906107544899 0.32521897554397583
v -0.00903899036347866 -0.024750009179115295 0.32521897554397583
v -0.047259021550416946 -0.009101450443267822 0.32521897554397583
v -0.04177533835172653 -0.01518549956381321 0.23273706436157227
v -0.047259021550416946 -0.015131539665162563 0.23273706436157227
v -0.047259021550416946 -0.009101450443267822 0.32521897554397583
v -0.047259021550416946 -0.015131539665162563 0.23273706436157227
v -0.05375104025006294 -0.015077579766511917 0.23273706436157227
v -0.047259021550416946 -0.009101450443267822 0.32521897554397583
v -0.05375104025006294 -0.015077579766511917 0.23273706436157227
v -0.05601634085178375 -0.015077579766511917 0.23273706436157227
v -0.047259021550416946 -0.009101450443267822 0.32521897554397583
v -0.05601634085178375 -0.015077579766511917 0.23273706436157227
v -0.05196918919682503 -0.009182389825582504 0.32521897554397583
v -0.047259021550416946 -0.009101450443267822 0.32521897554397583
v -0.01707804948091507 -0.01675035059452057 0.32521897554397583
v -0.017837749794125557 -0.016237730160355568 0.32521897554397583
v -0.047259021550416946 -0.009101450443267822 0.32521897554397583
v -0.017837749794125557 -0.016237730160355568 0.32521897554397583
v -0.02069699950516224 -0.014672880060970783 0.32521897554397583
v -0.047259021550416946 -0.009101450443267822 0.32521897554397583
v -0.01097279042005539 -0.13410106301307678 0.32521897554397583
v -0.00903899036347866 -0.13124114274978638 0.32521897554397583
v -0.047259021550416946 -0.009101450443267822 0.32521897554397583
v -0.00903899036347866 -0.13124114274978638 0.32521897554397583
v -0.008735120296478271 -0.1304452270269394 0.32521897554397583
v -0.04177533835172653 -0.01518549956381321 0.23273706436157227
v -0.09679173678159714 -0.10744453966617584 0.23273706436157227
v -0.09777244925498962 -0.10373476147651672 0.23273706436157227
v -0.04177533835172653 -0.01518549956381321 0.23273706436157227
v -0.09777244925498962 -0.10373476147651672 0.23273706436157227
v -0.09802108258008957 -0.0990806594491005 0.23273706436157227
v -0.04177533835172653 -0.01518549956381321 0.23273706436157227
v -0.09802108258008957 -0.0990806594491005 0.23273706436157227
v -0.09807632863521576 -0.0980149433016777 0.23273706436157227
v -0.04177533835172653 -0.01518549956381321 0.23273706436157227
v -0.09807632863521576 -0.0980149433016777 0.23273706436157227
v -0.09923660010099411 -0.06370951980352402 0.23273706436157227
v -0.04177533835172653 -0.01518549956381321 0.23273706436157227
v -0.05888941138982773 -0.14063027501106262 0.23273706436157227
v -0.06442833691835403 -0.13991530239582062 0.23273706436157227
v -0.04177533835172653 -0.01518549956381321 0.23273706436157227
v -0.06442833691835403 -0.13991530239582062 0.23273706436157227
v -0.0701468363404274 -0.13886307179927826 0.23273706436157227
v -0.04177533835172653 -0.01518549956381321 0.23273706436157227
v -0.018970400094985962 -0.136245995759964 0.23273706436157227
v -0.02083512954413891 -0.13689351081848145 0.23273706436157227
v -0.04177533835172653 -0.01518549956381321 0.23273706436157227
v -0.02083512954413891 -0.13689351081848145 0.23273706436157227
v -0.02438502013683319 -0.13810762763023376 0.23273706436157227
v -0.047259021550416946 -0.009101450443267822 0.32521897554397583
v -0.00903899036347866 -0.024750009179115295 0.32521897554397583
v -0.010599840432405472 -0.022402720525860786 0.32521897554397583
v -0.047259021550416946 -0.009101450443267822 0.32521897554397583
v -0.010599840432405472 -0.022402720525860786 0.32521897554397583
v -0.010958969593048096 -0.021890100091695786 0.32521897554397583
v -0.047259021550416946 -0.009101450443267822 0.32521897554397583
v -0.010958969593048096 -0.021890100091695786 0.32521897554397583
v -0.013818220235407352 -0.019097639247775078 0.32521897554397583
v -0.047259021550416946 -0.009101450443267822 0.32521897554397583
v -0.013818220235407352 -0.019097639247775078 0.32521897554397583
v -0.01707804948091507 -0.01675035059452057 0.32521897554397583
v -0.047259021550416946 -0.009101450443267822 0.32521897554397583
v -0.013832040131092072 -0.13690699636936188 0.32521897554397583
v -0.013320960104465485 -0.1364213526248932 0.32521897554397583
v -0.047259021550416946 -0.009101450443267822 0.32521897554397583
v -0.013320960104465485 -0.1364213526248932 0.32521897554397583
v -0.01097279042005539 -0.13410106301307678 0.32521897554397583
v -0.04177533835172653 -0.01518549956381321 0.23273706436157227
v -0.006594129838049412 -0.12089420855045319 0.23273706436157227
v -0.0074367099441587925 -0.12463098019361496 0.23273706436157227
v -0.04177533835172653 -0.01518549956381321 0.23273706436157227
v -0.0074367099441587925 -0.12463098019361496 0.23273706436157227
v -0.007892530411481857 -0.1266140341758728 0.23273706436157227
v -0.047259021550416946 -0.009101450443267822 0.32521897554397583
v -0.008735120296478271 -0.1304452270269394 0.32521897554397583
v -0.007326209917664528 -0.1266140341758728 0.32521897554397583
v -0.047259021550416946 -0.009101450443267822 0.32521897554397583
v -0.007326209917664528 -0.1266140341758728 0.32521897554397583
v -0.007188090123236179 -0.1255887746810913 0.32521897554397583
v -0.047259021550416946 -0.009101450443267822 0.32521897554397583
v -0.007188090123236179 -0.1255887746810913 0.32521897554397583
v -0.006594129838049412 -0.12089420855045319 0.32521897554397583
v -0.047259021550416946 -0.009101450443267822 0.32521897554397583
v -0.006594129838049412 -0.12089420855045319 0.32521897554397583
v -0.006497439928352833 -0.11517439037561417 0.32521897554397583
v -0.04177533835172653 -0.01518549956381321 0.23273706436157227
v -0.01611115038394928 -0.13505885004997253 0.23273706436157227
v -0.017975879833102226 -0.1358412802219391 0.23273706436157227
v -0.04177533835172653 -0.01518549956381321 0.23273706436157227
v -0.017975879833102226 -0.1358412802219391 0.23273706436157227
v -0.018970400094985962 -0.136245995759964 0.23273706436157227
v -0.04177533835172653 -0.01518549956381321 0.23273706436157227
v -0.016083529219031334 -0.02093230001628399 0.23273706436157227
v -0.014978500083088875 -0.021728219464421272 0.23273706436157227
v -0.04177533835172653 -0.01518549956381321 0.23273706436157227
v -0.014978500083088875 -0.021728219464421272 0.23273706436157227
v -0.012948020361363888 -0.0232121292501688 0.23273706436157227
v -0.04177533835172653 -0.01518549956381321 0.23273706436157227
v -0.02438502013683319 -0.13810762763023376 0.23273706436157227
v -0.030103519558906555 -0.13947013020515442 0.23273706436157227
v -0.04177533835172653 -0.01518549956381321 0.23273706436157227
v -0.030103519558906555 -0.13947013020515442 0.23273706436157227
v -0.032092560082674026 -0.13979388773441315 0.23273706436157227
v -0.04177533835172653 -0.01518549956381321 0.23273706436157227
v -0.032092560082674026 -0.13979388773441315 0.23273706436157227
v -0.03582201898097992 -0.14038746058940887 0.23273706436157227
v -0.04177533835172653 -0.01518549956381321 0.23273706436157227
v -0.03582201898097992 -0.14038746058940887 0.23273706436157227
v -0.041581958532333374 -0.14081914722919464 0.23273706436157227
v -0.04177533835172653 -0.01518549956381321 0.23273706436157227
v -0.006497439928352833 -0.04083025082945824 0.23273706436157227
v -0.006497439928352833 -0.11517439037561417 0.23273706436157227
v -0.04177533835172653 -0.01518549956381321 0.23273706436157227
v -0.006497439928352833 -0.11517439037561417 0.23273706436157227
v -0.006594129838049412 -0.12089420855045319 0.23273706436157227
v -0.04177533835172653 -0.01518549956381321 0.23273706436157227
v -0.03582201898097992 -0.01560369972139597 0.23273706436157227
v -0.033846791833639145 -0.01591397076845169 0.23273706436157227
v -0.04177533835172653 -0.01518549956381321 0.23273706436157227
v -0.033846791833639145 -0.01591397076845169 0.23273706436157227
v -0.030103519558906555 -0.016521019861102104 0.23273706436157227
v -0.03582201898097992 -0.01560369972139597 0.23273706436157227
v -0.03613971918821335 -0.01007273979485035 0.32521897554397583
v -0.033846791833639145 -0.01591397076845169 0.23273706436157227
v -0.05701085925102234 -0.015172010287642479 0.23273706436157227
v -0.058875590562820435 -0.015374359674751759 0.23273706436157227
v -0.05911041051149368 -0.009668029844760895 0.32521897554397583
v -0.05911041051149368 -0.009668029844760895 0.32521897554397583
v -0.058875590562820435 -0.015374359674751759 0.23273706436157227
v -0.06340619176626205 -0.0101401899009943 0.32521897554397583
v -0.033846791833639145 -0.01591397076845169 0.23273706436157227
v -0.03613971918821335 -0.01007273979485035 0.32521897554397583
v -0.030103519558906555 -0.016521019861102104 0.23273706436157227
v -0.04177533835172653 -0.01518549956381321 0.23273706436157227
v -0.058875590562820435 -0.015374359674751759 0.23273706436157227
v -0.05701085925102234 -0.015172010287642479 0.23273706436157227
v -0.04177533835172653 -0.01518549956381321 0.23273706436157227
v -0.05701085925102234 -0.015172010287642479 0.23273706436157227
v -0.05601634085178375 -0.015077579766511917 0.23273706436157227
v -0.04177533835172653 -0.01518549956381321 0.23273706436157227
v -0.09839402139186859 -0.052269890904426575 0.23273706436157227
v -0.09688843041658401 -0.04816887900233269 0.23273706436157227
v -0.04177533835172653 -0.01518549956381321 0.23273706436157227
v -0.09688843041658401 -0.04816887900233269 0.23273706436157227
v -0.090506911277771 -0.03125225007534027 0.23273706436157227
v -0.04177533835172653 -0.01518549956381321 0.23273706436157227
v -0.012948020361363888 -0.0232121292501688 0.23273706436157227
v -0.009577699936926365 -0.025950629264116287 0.23273706436157227
v -0.04177533835172653 -0.01518549956381321 0.23273706436157227
v -0.009577699936926365 -0.025950629264116287 0.23273706436157227
v -0.007878719829022884 -0.0293906107544899 0.23273706436157227
v -0.04177533835172653 -0.01518549956381321 0.23273706436157227
v -0.007878719829022884 -0.0293906107544899 0.23273706436157227
v -0.006594129838049412 -0.03511042892932892 0.23273706436157227
v -0.04177533835172653 -0.01518549956381321 0.23273706436157227
v -0.006594129838049412 -0.03511042892932892 0.23273706436157227
v -0.006497439928352833 -0.04083025082945824 0.23273706436157227
v -0.05196918919682503 -0.009182389825582504 0.32521897554397583
v -0.05601634085178375 -0.015077579766511917 0.23273706436157227
v -0.052576951682567596 -0.00919588003307581 0.32521897554397583
v -0.046236880123615265 -0.009114939719438553 0.32521897554397583
v -0.042880360037088394 -0.009263330139219761 0.32521897554397583
v -0.04177533835172653 -0.01518549956381321 0.23273706436157227
v -0.04177533835172653 -0.01518549956381321 0.23273706436157227
v -0.08924995362758636 -0.12757183611392975 0.23273706436157227
v -0.090506911277771 -0.12471192330121994 0.23273706436157227
v -0.04177533835172653 -0.01518549956381321 0.23273706436157227
v -0.090506911277771 -0.12471192330121994 0.23273706436157227
v -0.09679173678159714 -0.10744453966617584 0.23273706436157227
v -0.04177533835172653 -0.01518549956381321 0.23273706436157227
v -0.030103519558906555 -0.016521019861102104 0.23273706436157227
v -0.02812829054892063 -0.01697969064116478 0.23273706436157227
v -0.04177533835172653 -0.01518549956381321 0.23273706436157227
v -0.02812829054892063 -0.01697969064116478 0.23273706436157227
v -0.02438502013683319 -0.01787002943456173 0.23273706436157227
v -0.04177533835172653 -0.01518549956381321 0.23273706436157227
v -0.02438502013683319 -0.01787002943456173 0.23273706436157227
v -0.022506479173898697 -0.01850407011806965 0.23273706436157227
v -0.04177533835172653 -0.01518549956381321 0.23273706436157227
v -0.022506479173898697 -0.01850407011806965 0.23273706436157227
v -0.018942780792713165 -0.019731679931282997 0.23273706436157227
v -0.04177533835172653 -0.01518549956381321 0.23273706436157227
v -0.09923660010099411 -0.06370951980352402 0.23273706436157227
v -0.0992918610572815 -0.06045839935541153 0.23273706436157227
v -0.04177533835172653 -0.01518549956381321 0.23273706436157227
v -0.0992918610572815 -0.06045839935541153 0.23273706436157227
v -0.09839402139186859 -0.052269890904426575 0.23273706436157227
v -0.04177533835172653 -0.01518549956381321 0.23273706436157227
v -0.0701468363404274 -0.13886307179927826 0.23273706436157227
v -0.07586534321308136 -0.13731171190738678 0.23273706436157227
v -0.04177533835172653 -0.01518549956381321 0.23273706436157227
v -0.07586534321308136 -0.13731171190738678 0.23273706436157227
v -0.07726042717695236 -0.1367855966091156 0.23273706436157227
v -0.04177533835172653 -0.01518549956381321 0.23273706436157227
v -0.090506911277771 -0.03125225007534027 0.23273706436157227
v -0.09007871896028519 -0.030253980308771133 0.23273706436157227
v -0.04177533835172653 -0.01518549956381321 0.23273706436157227
v -0.09007871896028519 -0.030253980308771133 0.23273706436157227
v -0.08926375955343246 -0.028392339125275612 0.23273706436157227
v -0.04177533835172653 -0.01518549956381321 0.23273706436157227
v -0.08926375955343246 -0.028392339125275612 0.23273706436157227
v -0.08738522231578827 -0.025937139987945557 0.23273706436157227
v -0.04177533835172653 -0.01518549956381321 0.23273706436157227
v -0.08738522231578827 -0.025937139987945557 0.23273706436157227
v -0.08639068901538849 -0.024642089381814003 0.23273706436157227
v -0.04177533835172653 -0.01518549956381321 0.23273706436157227
v -0.0840425193309784 -0.1332646757364273 0.23273706436157227
v -0.08639068901538849 -0.1313895434141159 0.23273706436157227
v -0.04177533835172653 -0.01518549956381321 0.23273706436157227
v -0.08639068901538849 -0.1313895434141159 0.23273706436157227
v -0.08924995362758636 -0.12757183611392975 0.23273706436157227
v -0.04177533835172653 -0.01518549956381321 0.23273706436157227
v -0.047259021550416946 -0.140886589884758 0.23273706436157227
v -0.04857124015688896 -0.14090007543563843 0.23273706436157227
v -0.04177533835172653 -0.01518549956381321 0.23273706436157227
v -0.04857124015688896 -0.14090007543563843 0.23273706436157227
v -0.053557660430669785 -0.14094054698944092 0.23273706436157227
v -0.02069699950516224 -0.014672880060970783 0.32521897554397583
v -0.016083529219031334 -0.02093230001628399 0.23273706436157227
v -0.01706423982977867 -0.020514100790023804 0.23273706436157227
v -0.07991249114274979 -0.020230809226632118 0.23273706436157227
v -0.08277174085378647 -0.021782180294394493 0.23273706436157227
v -0.11947236210107803 -0.02613949030637741 0.32521897554397583
v -0.07991249114274979 -0.020230809226632118 0.23273706436157227
v -0.11947236210107803 -0.02613949030637741 0.32521897554397583
v -0.11624017357826233 -0.02438577078282833 0.32521897554397583
v -0.07991249114274979 -0.020230809226632118 0.23273706436157227
v -0.11624017357826233 -0.02438577078282833 0.32521897554397583
v -0.11570145934820175 -0.024102479219436646 0.32521897554397583
v -0.0701468363404274 -0.017128080129623413 0.23273706436157227
v -0.087260901927948 -0.013957899995148182 0.32521897554397583
v -0.08626638352870941 -0.013742060400545597 0.32521897554397583
v -0.0701468363404274 -0.017128080129623413 0.23273706436157227
v -0.08626638352870941 -0.013742060400545597 0.32521897554397583
v -0.08157002925872803 -0.012770759873092175 0.32521897554397583
v -0.058875590562820435 -0.015374359674751759 0.23273706436157227
v -0.0701468363404274 -0.010963089764118195 0.32521897554397583
v -0.06442833691835403 -0.010261599905788898 0.32521897554397583
v -0.058875590562820435 -0.015374359674751759 0.23273706436157227
v -0.06442833691835403 -0.010261599905788898 0.32521897554397583
v -0.06340619176626205 -0.0101401899009943 0.32521897554397583
v -0.04177533835172653 -0.01518549956381321 0.23273706436157227
v -0.07726042717695236 -0.1367855966091156 0.23273706436157227
v -0.07992631196975708 -0.13577382266521454 0.23273706436157227
v -0.04177533835172653 -0.01518549956381321 0.23273706436157227
v -0.07992631196975708 -0.13577382266521454 0.23273706436157227
v -0.08179102838039398 -0.13478904962539673 0.23273706436157227
v -0.04177533835172653 -0.01518549956381321 0.23273706436157227
v -0.08179102838039398 -0.13478904962539673 0.23273706436157227
v -0.08278556168079376 -0.13424943387508392 0.23273706436157227
v -0.04177533835172653 -0.01518549956381321 0.23273706436157227
v -0.08278556168079376 -0.13424943387508392 0.23273706436157227
v -0.0840425193309784 -0.1332646757364273 0.23273706436157227
v -0.04177533835172653 -0.01518549956381321 0.23273706436157227
v -0.041581958532333374 -0.14081914722919464 0.23273706436157227
v -0.04348812997341156 -0.1408461183309555 0.23273706436157227
v -0.04177533835172653 -0.01518549956381321 0.23273706436157227
v -0.04348812997341156 -0.1408461183309555 0.23273706436157227
v -0.047259021550416946 -0.140886589884758 0.23273706436157227
v -0.03582201898097992 -0.01560369972139597 0.23273706436157227
v -0.04071174934506416 -0.009465680457651615 0.32521897554397583
v -0.03955148160457611 -0.009614069946110249 0.32521897554397583
v -0.03582201898097992 -0.01560369972139597 0.23273706436157227
v -0.03955148160457611 -0.009614069946110249 0.32521897554397583
v -0.03613971918821335 -0.01007273979485035 0.32521897554397583
v -0.04177533835172653 -0.01518549956381321 0.23273706436157227
v -0.053557660430669785 -0.14094054698944092 0.23273706436157227
v -0.05390297994017601 -0.14094054698944092 0.23273706436157227
v -0.04177533835172653 -0.01518549956381321 0.23273706436157227
v -0.05390297994017601 -0.14094054698944092 0.23273706436157227
v -0.056030161678791046 -0.14092706143856049 0.23273706436157227
v -0.04177533835172653 -0.01518549956381321 0.23273706436157227
v -0.056030161678791046 -0.14092706143856049 0.23273706436157227
v -0.057894881814718246 -0.14073820412158966 0.23273706436157227
v -0.04177533835172653 -0.01518549956381321 0.23273706436157227
v -0.057894881814718246 -0.14073820412158966 0.23273706436157227
v -0.05888941138982773 -0.14063027501106262 0.23273706436157227
v -0.03613971918821335 -0.01007273979485035 0.32521897554397583
v -0.030103519558906555 -0.011340809985995293 0.32521897554397583
v -0.030103519558906555 -0.016521019861102104 0.23273706436157227
v -0.058875590562820435 -0.015374359674751759 0.23273706436157227
v -0.06442833691835403 -0.016089340671896935 0.23273706436157227
v -0.0701468363404274 -0.010963089764118195 0.32521897554397583
v -0.04177533835172653 -0.01518549956381321 0.23273706436157227
v -0.05601634085178375 -0.015077579766511917 0.23273706436157227
v -0.05375104025006294 -0.015077579766511917 0.23273706436157227
v -0.04177533835172653 -0.01518549956381321 0.23273706436157227
v -0.05375104025006294 -0.015077579766511917 0.23273706436157227
v -0.047259021550416946 -0.015131539665162563 0.23273706436157227
v -0.030103519558906555 -0.016521019861102104 0.23273706436157227
v -0.030103519558906555 -0.011340809985995293 0.32521897554397583
v -0.02812829054892063 -0.01697969064116478 0.23273706436157227
v -0.030103519558906555 -0.011340809985995293 0.32521897554397583
v -0.02909518964588642 -0.01165108010172844 0.32521897554397583
v -0.02438502013683319 -0.01787002943456173 0.23273706436157227
v -0.030103519558906555 -0.011340809985995293 0.32521897554397583
v -0.02438502013683319 -0.01787002943456173 0.23273706436157227
v -0.02812829054892063 -0.01697969064116478 0.23273706436157227
v -0.06442833691835403 -0.016089340671896935 0.23273706436157227
v -0.0701468363404274 -0.017128080129623413 0.23273706436157227
v -0.08157002925872803 -0.012770759873092175 0.32521897554397583
v -0.05601634085178375 -0.015077579766511917 0.23273706436157227
v -0.05911041051149368 -0.009668029844760895 0.32521897554397583
v -0.055408578366041183 -0.009344270452857018 0.32521897554397583
v -0.042880360037088394 -0.009263330139219761 0.32521897554397583
v -0.04071174934506416 -0.009465680457651615 0.32521897554397583
v -0.03582201898097992 -0.01560369972139597 0.23273706436157227
v -0.04177533835172653 -0.01518549956381321 0.23273706436157227
v -0.08277174085378647 -0.021782180294394493 0.23273706436157227
v -0.07991249114274979 -0.020230809226632118 0.23273706436157227
v -0.04177533835172653 -0.01518549956381321 0.23273706436157227
v -0.07991249114274979 -0.020230809226632118 0.23273706436157227
v -0.07586534321308136 -0.01870642974972725 0.23273706436157227
v -0.007878719829022884 -0.0293906107544899 0.23273706436157227
v -0.007381460163742304 -0.0293906107544899 0.3147903084754944
v -0.006594129838049412 -0.03511042892932892 0.23273706436157227
v -0.08738522231578827 -0.025937139987945557 0.23273706436157227
v -0.08926375955343246 -0.028392339125275612 0.23273706436157227
v -0.1353570818901062 -0.040061309933662415 0.32521897554397583
v -0.1353570818901062 -0.040061309933662415 0.32521897554397583
v -0.08926375955343246 -0.028392339125275612 0.23273706436157227
v -0.13653117418289185 -0.04159919172525406 0.32521897554397583
v -0.0073400200344622135 -0.0293906107544899 0.32521897554397583
v -0.006594129838049412 -0.03511042892932892 0.32521897554397583
v -0.006580309942364693 -0.03511042892932892 0.3205116093158722
v -0.010958969593048096 -0.021890100091695786 0.32521897554397583
v -0.010599840432405472 -0.022402720525860786 0.32521897554397583
v -0.009577699936926365 -0.025950629264116287 0.23273706436157227
v -0.009577699936926365 -0.025950629264116287 0.23273706436157227
v -0.010599840432405472 -0.022402720525860786 0.32521897554397583
v -0.00903899036347866 -0.024750009179115295 0.32521897554397583
v -0.07991249114274979 -0.020230809226632118 0.23273706436157227
v -0.10824254900217056 -0.020433159545063972 0.32521897554397583
v -0.10780054330825806 -0.020244300365447998 0.32521897554397583
v -0.07991249114274979 -0.020230809226632118 0.23273706436157227
v -0.10780054330825806 -0.020244300365447998 0.32521897554397583
v -0.1034357026219368 -0.01859850063920021 0.32521897554397583
v -0.04177533835172653 -0.01518549956381321 0.23273706436157227
v -0.042880360037088394 -0.009263330139219761 0.32521897554397583
v -0.03582201898097992 -0.01560369972139597 0.23273706436157227
v -0.05601634085178375 -0.015077579766511917 0.23273706436157227
v -0.055408578366041183 -0.009344270452857018 0.32521897554397583
v -0.05314328148961067 -0.00922286044806242 0.32521897554397583
v -0.05601634085178375 -0.015077579766511917 0.23273706436157227
v -0.05314328148961067 -0.00922286044806242 0.32521897554397583
v -0.052576951682567596 -0.00919588003307581 0.32521897554397583
v -0.05601634085178375 -0.015077579766511917 0.23273706436157227
v -0.05701085925102234 -0.015172010287642479 0.23273706436157227
v -0.05911041051149368 -0.009668029844760895 0.32521897554397583
v -0.04177533835172653 -0.01518549956381321 0.23273706436157227
v -0.08639068901538849 -0.024642089381814003 0.23273706436157227
v -0.08513373136520386 -0.023643819615244865 0.23273706436157227
v -0.04177533835172653 -0.01518549956381321 0.23273706436157227
v -0.08513373136520386 -0.023643819615244865 0.23273706436157227
v -0.08277174085378647 -0.021782180294394493 0.23273706436157227
v -0.07586534321308136 -0.01870642974972725 0.23273706436157227
v -0.09872552752494812 -0.01702016033232212 0.32521897554397583
v -0.09753762930631638 -0.016642430797219276 0.32521897554397583
v -0.02069699950516224 -0.014672880060970783 0.32521897554397583
v -0.017837749794125557 -0.016237730160355568 0.32521897554397583
v -0.016083529219031334 -0.02093230001628399 0.23273706436157227
v -0.04177533835172653 -0.01518549956381321 0.23273706436157227
v -0.07586534321308136 -0.01870642974972725 0.23273706436157227
v -0.07387629896402359 -0.01815333031117916 0.23273706436157227
v -0.04177533835172653 -0.01518549956381321 0.23273706436157227
v -0.07387629896402359 -0.01815333031117916 0.23273706436157227
v -0.0701468363404274 -0.017128080129623413 0.23273706436157227
v -0.04177533835172653 -0.01518549956381321 0.23273706436157227
v -0.0701468363404274 -0.017128080129623413 0.23273706436157227
v -0.06442833691835403 -0.016089340671896935 0.23273706436157227
v -0.04177533835172653 -0.01518549956381321 0.23273706436157227
v -0.06442833691835403 -0.016089340671896935 0.23273706436157227
v -0.058875590562820435 -0.015374359674751759 0.23273706436157227
v -0.07991249114274979 -0.020230809226632118 0.23273706436157227
v -0.11570145934820175 -0.024102479219436646 0.32521897554397583
v -0.11117087304592133 -0.021741710603237152 0.32521897554397583
v -0.07991249114274979 -0.020230809226632118 0.23273706436157227
v -0.11117087304592133 -0.021741710603237152 0.32521897554397583
v -0.10824254900217056 -0.020433159545063972 0.32521897554397583
v -0.02438502013683319 -0.013148490339517593 0.32521897554397583
v -0.023804880678653717 -0.013377820141613483 0.32521897554397583
v -0.018942780792713165 -0.019731679931282997 0.23273706436157227
v -0.02438502013683319 -0.013148490339517593 0.32521897554397583
v -0.018942780792713165 -0.019731679931282997 0.23273706436157227
v -0.022506479173898697 -0.01850407011806965 0.23273706436157227
v -0.017837749794125557 -0.016237730160355568 0.32521897554397583
v -0.01707804948091507 -0.01675035059452057 0.32521897554397583
v -0.016083529219031334 -0.02093230001628399 0.23273706436157227
v -0.016083529219031334 -0.02093230001628399 0.23273706436157227
v -0.01707804948091507 -0.01675035059452057 0.32521897554397583
v -0.013818220235407352 -0.019097639247775078 0.32521897554397583
v -0.016083529219031334 -0.02093230001628399 0.23273706436157227
v -0.013818220235407352 -0.019097639247775078 0.32521897554397583
v -0.014978500083088875 -0.021728219464421272 0.23273706436157227
v -0.08277174085378647 -0.021782180294394493 0.23273706436157227
v -0.08513373136520386 -0.023643819615244865 0.23273706436157227
v -0.12639257311820984 -0.031117349863052368 0.32521897554397583
v -0.07586534321308136 -0.01870642974972725 0.23273706436157227
v -0.07991249114274979 -0.020230809226632118 0.23273706436157227
v -0.1034357026219368 -0.01859850063920021 0.32521897554397583
v -0.07586534321308136 -0.01870642974972725 0.23273706436157227
v -0.1034357026219368 -0.01859850063920021 0.32521897554397583
v -0.09872552752494812 -0.01702016033232212 0.32521897554397583
v -0.06442833691835403 -0.016089340671896935 0.23273706436157227
v -0.07484319061040878 -0.01162410993129015 0.32521897554397583
v -0.0701468363404274 -0.010963089764118195 0.32521897554397583
v -0.02909518964588642 -0.01165108010172844 0.32521897554397583
v -0.02438502013683319 -0.013148490339517593 0.32521897554397583
v -0.02438502013683319 -0.01787002943456173 0.23273706436157227
v -0.006594129838049412 -0.12089420855045319 0.23273706436157227
v -0.007326209917664528 -0.1266140341758728 0.32521897554397583
v -0.0073400200344622135 -0.1266140341758728 0.3205116093158722
v -0.006594129838049412 -0.12089420855045319 0.23273706436157227
v -0.0073400200344622135 -0.1266140341758728 0.3205116093158722
v -0.0074367099441587925 -0.12463098019361496 0.23273706436157227
v -0.14479123055934906 -0.057989701628685 0.32521897554397583
v -0.09839402139186859 -0.052269890904426575 0.23273706436157227
v -0.14495697617530823 -0.05861024931073189 0.32521897554397583
v -0.09839402139186859 -0.052269890904426575 0.23273706436157227
v -0.0992918610572815 -0.06045839935541153 0.23273706436157227
v -0.14716702699661255 -0.06942933797836304 0.32521897554397583
v -0.09007871896028519 -0.030253980308771133 0.23273706436157227
v -0.090506911277771 -0.03125225007534027 0.23273706436157227
v -0.14258117973804474 -0.05189216136932373 0.32521897554397583
v -0.14258117973804474 -0.05189216136932373 0.32521897554397583
v -0.090506911277771 -0.03125225007534027 0.23273706436157227
v -0.1432580053806305 -0.05364587903022766 0.32521897554397583
v -0.0073400200344622135 -0.0293906107544899 0.32521897554397583
v -0.006594129838049412 -0.03511042892932892 0.23273706436157227
v -0.007353830151259899 -0.0293906107544899 0.3205116093158722
v -0.007353830151259899 -0.0293906107544899 0.3205116093158722
v -0.006594129838049412 -0.03511042892932892 0.23273706436157227
v -0.007381460163742304 -0.0293906107544899 0.3147903084754944
v -0.07387629896402359 -0.01815333031117916 0.23273706436157227
v -0.07586534321308136 -0.01870642974972725 0.23273706436157227
v -0.09404298663139343 -0.015617179684340954 0.32521897554397583
v -0.09404298663139343 -0.015617179684340954 0.32521897554397583
v -0.07586534321308136 -0.01870642974972725 0.23273706436157227
v -0.09753762930631638 -0.016642430797219276 0.32521897554397583
v -0.023804880678653717 -0.013377820141613483 0.32521897554397583
v -0.02069699950516224 -0.014672880060970783 0.32521897554397583
v -0.01706423982977867 -0.020514100790023804 0.23273706436157227
v -0.023804880678653717 -0.013377820141613483 0.32521897554397583
v -0.01706423982977867 -0.020514100790023804 0.23273706436157227
v -0.018942780792713165 -0.019731679931282997 0.23273706436157227
v -0.06442833691835403 -0.016089340671896935 0.23273706436157227
v -0.08157002925872803 -0.012770759873092175 0.32521897554397583
v -0.07586534321308136 -0.011785989627242088 0.32521897554397583
v -0.06442833691835403 -0.016089340671896935 0.23273706436157227
v -0.07586534321308136 -0.011785989627242088 0.32521897554397583
v -0.07484319061040878 -0.01162410993129015 0.32521897554397583
v -0.00903899036347866 -0.024750009179115295 0.32521897554397583
v -0.007353830151259899 -0.0293906107544899 0.3205116093158722
v -0.007381460163742304 -0.0293906107544899 0.3147903084754944
v -0.00903899036347866 -0.024750009179115295 0.32521897554397583
v -0.007381460163742304 -0.0293906107544899 0.3147903084754944
v -0.007878719829022884 -0.0293906107544899 0.23273706436157227
v -0.02438502013683319 -0.01787002943456173 0.23273706436157227
v -0.02438502013683319 -0.013148490339517593 0.32521897554397583
v -0.022506479173898697 -0.01850407011806965 0.23273706436157227
v -0.0701468363404274 -0.017128080129623413 0.23273706436157227
v -0.07387629896402359 -0.01815333031117916 0.23273706436157227
v -0.09404298663139343 -0.015617179684340954 0.32521897554397583
v -0.0701468363404274 -0.017128080129623413 0.23273706436157227
v -0.09404298663139343 -0.015617179684340954 0.32521897554397583
v -0.09068647772073746 -0.014726829715073109 0.32521897554397583
v -0.0701468363404274 -0.017128080129623413 0.23273706436157227
v -0.09068647772073746 -0.014726829715073109 0.32521897554397583
v -0.087260901927948 -0.013957899995148182 0.32521897554397583
v -0.0073400200344622135 -0.0293906107544899 0.32521897554397583
v -0.006580309942364693 -0.03511042892932892 0.3205116093158722
v -0.006580309942364693 -0.03511042892932892 0.2747595012187958
v -0.0073400200344622135 -0.0293906107544899 0.32521897554397583
v -0.006580309942364693 -0.03511042892932892 0.2747595012187958
v -0.006594129838049412 -0.03511042892932892 0.23273706436157227
v -0.009577699936926365 -0.025950629264116287 0.23273706436157227
v -0.00903899036347866 -0.024750009179115295 0.32521897554397583
v -0.007878719829022884 -0.0293906107544899 0.23273706436157227
v -0.08639068901538849 -0.024642089381814003 0.23273706436157227
v -0.08738522231578827 -0.025937139987945557 0.23273706436157227
v -0.1353570818901062 -0.040061309933662415 0.32521897554397583
v -0.006594129838049412 -0.03511042892932892 0.23273706436157227
v -0.006580309942364693 -0.03511042892932892 0.2747595012187958
v -0.006497439928352833 -0.04083025082945824 0.23273706436157227
v -0.08926375955343246 -0.028392339125275612 0.23273706436157227
v -0.09007871896028519 -0.030253980308771133 0.23273706436157227
v -0.14258117973804474 -0.05189216136932373 0.32521897554397583
v -0.08926375955343246 -0.028392339125275612 0.23273706436157227
v -0.14258117973804474 -0.05189216136932373 0.32521897554397583
v -0.14148996770381927 -0.04962582141160965 0.32521897554397583
v -0.08926375955343246 -0.028392339125275612 0.23273706436157227
v -0.14148996770381927 -0.04962582141160965 0.32521897554397583
v -0.13992911577224731 -0.04669845849275589 0.32521897554397583
v -0.08639068901538849 -0.024642089381814003 0.23273706436157227
v -0.12954188883304596 -0.033828869462013245 0.32521897554397583
v -0.12901701033115387 -0.03334321826696396 0.32521897554397583
v -0.00903899036347866 -0.024750009179115295 0.32521897554397583
v -0.0073400200344622135 -0.0293906107544899 0.32521897554397583
v -0.007353830151259899 -0.0293906107544899 0.3205116093158722
v -0.08277174085378647 -0.021782180294394493 0.23273706436157227
v -0.12159953266382217 -0.027515480294823647 0.32521897554397583
v -0.11947236210107803 -0.02613949030637741 0.32521897554397583
v -0.013818220235407352 -0.019097639247775078 0.32521897554397583
v -0.010958969593048096 -0.021890100091695786 0.32521897554397583
v -0.009577699936926365 -0.025950629264116287 0.23273706436157227
v -0.09679173678159714 -0.10744453966617584 0.23273706436157227
v -0.1446669101715088 -0.09851407259702682 0.32521897554397583
v -0.14483267068862915 -0.0980149433016777 0.32521897554397583
v -0.09679173678159714 -0.10744453966617584 0.23273706436157227
v -0.090506911277771 -0.12471192330121994 0.23273706436157227
v -0.1432718187570572 -0.10239923000335693 0.32521897554397583
v -0.013832040131092072 -0.13690699636936188 0.32521897554397583
v -0.017796309664845467 -0.13976691663265228 0.32521897554397583
v -0.01611115038394928 -0.13505885004997253 0.23273706436157227
v -0.013832040131092072 -0.13690699636936188 0.32521897554397583
v -0.01611115038394928 -0.13505885004997253 0.23273706436157227
v -0.012948020361363888 -0.132765531539917 0.23273706436157227
v -0.14760904014110565 -0.08085548132658005 0.32521897554397583
v -0.09777244925498962 -0.10373476147651672 0.23273706436157227
v -0.14716702699661255 -0.08657529950141907 0.32521897554397583
v -0.00903899036347866 -0.13124114274978638 0.32521897554397583
v -0.01097279042005539 -0.13410106301307678 0.32521897554397583
v -0.009591509588062763 -0.13004052639007568 0.23273706436157227
v -0.09839402139186859 -0.052269890904426575 0.23273706436157227
v -0.1455647498369217 -0.0608900785446167 0.32521897554397583
v -0.14495697617530823 -0.05861024931073189 0.32521897554397583
v -0.006594129838049412 -0.12089420855045319 0.32521897554397583
v -0.007188090123236179 -0.1255887746810913 0.32521897554397583
v -0.006580309942364693 -0.12089420855045319 0.3205116093158722
v -0.08639068901538849 -0.024642089381814003 0.23273706436157227
v -0.1353570818901062 -0.040061309933662415 0.32521897554397583
v -0.1348322033882141 -0.0393868088722229 0.32521897554397583
v -0.08639068901538849 -0.024642089381814003 0.23273706436157227
v -0.1348322033882141 -0.0393868088722229 0.32521897554397583
v -0.13193151354789734 -0.036135680973529816 0.32521897554397583
v -0.08639068901538849 -0.024642089381814003 0.23273706436157227
v -0.13193151354789734 -0.036135680973529816 0.32521897554397583
v -0.1311994343996048 -0.03540721908211708 0.32521897554397583
v -0.08639068901538849 -0.024642089381814003 0.23273706436157227
v -0.1311994343996048 -0.03540721908211708 0.32521897554397583
v -0.12954188883304596 -0.033828869462013245 0.32521897554397583
v -0.08277174085378647 -0.021782180294394493 0.23273706436157227
v -0.12639257311820984 -0.031117349863052368 0.32521897554397583
v -0.12584005296230316 -0.0306856706738472 0.32521897554397583
v -0.08277174085378647 -0.021782180294394493 0.23273706436157227
v -0.12584005296230316 -0.0306856706738472 0.32521897554397583
v -0.12159953266382217 -0.027515480294823647 0.32521897554397583
v -0.006580309942364693 -0.12089420855045319 0.2976355254650116
v -0.007188090123236179 -0.1255887746810913 0.32521897554397583
v -0.006594129838049412 -0.12089420855045319 0.23273706436157227
v -0.006594129838049412 -0.12089420855045319 0.23273706436157227
v -0.007188090123236179 -0.1255887746810913 0.32521897554397583
v -0.007326209917664528 -0.1266140341758728 0.32521897554397583
v -0.013818220235407352 -0.019097639247775078 0.32521897554397583
v -0.009577699936926365 -0.025950629264116287 0.23273706436157227
v -0.012948020361363888 -0.0232121292501688 0.23273706436157227
v -0.013818220235407352 -0.019097639247775078 0.32521897554397583
v -0.012948020361363888 -0.0232121292501688 0.23273706436157227
v -0.014978500083088875 -0.021728219464421272 0.23273706436157227
v -0.08513373136520386 -0.023643819615244865 0.23273706436157227
v -0.08639068901538849 -0.024642089381814003 0.23273706436157227
v -0.12639257311820984 -0.031117349863052368 0.32521897554397583
v -0.12639257311820984 -0.031117349863052368 0.32521897554397583
v -0.08639068901538849 -0.024642089381814003 0.23273706436157227
v -0.12901701033115387 -0.03334321826696396 0.32521897554397583
v -0.09839402139186859 -0.052269890904426575 0.23273706436157227
v -0.14716702699661255 -0.06942933797836304 0.32521897554397583
v -0.14631064236164093 -0.06370951980352402 0.32521897554397583
v -0.09839402139186859 -0.052269890904426575 0.23273706436157227
v -0.14631064236164093 -0.06370951980352402 0.32521897554397583
v -0.1455647498369217 -0.0608900785446167 0.32521897554397583
v -0.006497439928352833 -0.11517439037561417 0.23273706436157227
v -0.006497439928352833 -0.11517439037561417 0.32521897554397583
v -0.006580309942364693 -0.12089420855045319 0.3205116093158722
v -0.006497439928352833 -0.11517439037561417 0.23273706436157227
v -0.006580309942364693 -0.12089420855045319 0.3205116093158722
v -0.006580309942364693 -0.12089420855045319 0.2976355254650116
v -0.007326209917664528 -0.1266140341758728 0.32521897554397583
v -0.008735120296478271 -0.1304452270269394 0.32521897554397583
v -0.0073400200344622135 -0.1266140341758728 0.3205116093158722
v -0.0073400200344622135 -0.1266140341758728 0.3205116093158722
v -0.008735120296478271 -0.1304452270269394 0.32521897554397583
v -0.007892530411481857 -0.1266140341758728 0.23273706436157227
v -0.0073400200344622135 -0.1266140341758728 0.3205116093158722
v -0.007892530411481857 -0.1266140341758728 0.23273706436157227
v -0.0074367099441587925 -0.12463098019361496 0.23273706436157227
v -0.0992918610572815 -0.06045839935541153 0.23273706436157227
v -0.09923660010099411 -0.06370951980352402 0.23273706436157227
v -0.14760904014110565 -0.08085548132658005 0.32521897554397583
v -0.006497439928352833 -0.11517439037561417 0.32521897554397583
v -0.006594129838049412 -0.12089420855045319 0.32521897554397583
v -0.006580309942364693 -0.12089420855045319 0.3205116093158722
v -0.006580309942364693 -0.12089420855045319 0.2976355254650116
v -0.006580309942364693 -0.12089420855045319 0.3205116093158722
v -0.007188090123236179 -0.1255887746810913 0.32521897554397583
v -0.08926375955343246 -0.028392339125275612 0.23273706436157227
v -0.1371941864490509 -0.042476050555706024 0.32521897554397583
v -0.13653117418289185 -0.04159919172525406 0.32521897554397583
v -0.006594129838049412 -0.03511042892932892 0.32521897554397583
v -0.006497439928352833 -0.04083025082945824 0.32521897554397583
v -0.006580309942364693 -0.03511042892932892 0.3205116093158722
v -0.030103519558906555 -0.13947013020515442 0.23273706436157227
v -0.036167338490486145 -0.14587794244289398 0.32521897554397583
v -0.032092560082674026 -0.13979388773441315 0.23273706436157227
v -0.036167338490486145 -0.14587794244289398 0.32521897554397583
v -0.040228310972452164 -0.14648500084877014 0.32521897554397583
v -0.03582201898097992 -0.14038746058940887 0.23273706436157227
v -0.036167338490486145 -0.14587794244289398 0.32521897554397583
v -0.03582201898097992 -0.14038746058940887 0.23273706436157227
v -0.032092560082674026 -0.13979388773441315 0.23273706436157227
v -0.08179102838039398 -0.13478904962539673 0.23273706436157227
v -0.07992631196975708 -0.13577382266521454 0.23273706436157227
v -0.11624017357826233 -0.13157840073108673 0.32521897554397583
v -0.08639068901538849 -0.1313895434141159 0.23273706436157227
v -0.13543996214866638 -0.11587587743997574 0.32521897554397583
v -0.1372079998254776 -0.11352860182523727 0.32521897554397583
v -0.02438502013683319 -0.1428561508655548 0.32521897554397583
v -0.02438502013683319 -0.13810762763023376 0.23273706436157227
v -0.02083512954413891 -0.13689351081848145 0.23273706436157227
v -0.017796309664845467 -0.13976691663265228 0.32521897554397583
v -0.020144490525126457 -0.14107544720172882 0.32521897554397583
v -0.01611115038394928 -0.13505885004997253 0.23273706436157227
v -0.01611115038394928 -0.13505885004997253 0.23273706436157227
v -0.020144490525126457 -0.14107544720172882 0.32521897554397583
v -0.02065555937588215 -0.14135874807834625 0.32521897554397583
v -0.006497439928352833 -0.11517439037561417 0.23273706436157227
v -0.006580309942364693 -0.12089420855045319 0.2976355254650116
v -0.006594129838049412 -0.12089420855045319 0.23273706436157227
v -0.090506911277771 -0.03125225007534027 0.23273706436157227
v -0.09688843041658401 -0.04816887900233269 0.23273706436157227
v -0.1432580053806305 -0.05364587903022766 0.32521897554397583
v -0.1432580053806305 -0.05364587903022766 0.32521897554397583
v -0.09688843041658401 -0.04816887900233269 0.23273706436157227
v -0.09839402139186859 -0.052269890904426575 0.23273706436157227
v -0.1432580053806305 -0.05364587903022766 0.32521897554397583
v -0.09839402139186859 -0.052269890904426575 0.23273706436157227
v -0.14479123055934906 -0.057989701628685 0.32521897554397583
v -0.08926375955343246 -0.028392339125275612 0.23273706436157227
v -0.13992911577224731 -0.04669845849275589 0.32521897554397583
v -0.13984625041484833 -0.046550069004297256 0.32521897554397583
v -0.08926375955343246 -0.028392339125275612 0.23273706436157227
v -0.13984625041484833 -0.046550069004297256 0.32521897554397583
v -0.1371941864490509 -0.042476050555706024 0.32521897554397583
v -0.009591509588062763 -0.13004052639007568 0.23273706436157227
v -0.013832040131092072 -0.13690699636936188 0.32521897554397583
v -0.012948020361363888 -0.132765531539917 0.23273706436157227
v -0.09679173678159714 -0.10744453966617584 0.23273706436157227
v -0.1432718187570572 -0.10239923000335693 0.32521897554397583
v -0.1446669101715088 -0.09851407259702682 0.32521897554397583
v -0.006580309942364693 -0.03511042892932892 0.3205116093158722
v -0.006497439928352833 -0.04083025082945824 0.32521897554397583
v -0.006497439928352833 -0.04083025082945824 0.23273706436157227
v -0.006580309942364693 -0.03511042892932892 0.3205116093158722
v -0.006497439928352833 -0.04083025082945824 0.23273706436157227
v -0.006580309942364693 -0.03511042892932892 0.2747595012187958
v -0.006497439928352833 -0.04083025082945824 0.23273706436157227
v -0.006497439928352833 -0.04083025082945824 0.32521897554397583
v -0.006497439928352833 -0.11517439037561417 0.32521897554397583
v -0.006497439928352833 -0.04083025082945824 0.23273706436157227
v -0.006497439928352833 -0.11517439037561417 0.32521897554397583
v -0.006497439928352833 -0.11517439037561417 0.23273706436157227
v -0.1432718187570572 -0.10239923000335693 0.32521897554397583
v -0.090506911277771 -0.12471192330121994 0.23273706436157227
v -0.14259499311447144 -0.10411248356103897 0.32521897554397583
v -0.090506911277771 -0.12471192330121994 0.23273706436157227
v -0.08924995362758636 -0.12757183611392975 0.23273706436157227
v -0.14259499311447144 -0.10411248356103897 0.32521897554397583
v -0.00903899036347866 -0.13124114274978638 0.32521897554397583
v -0.009591509588062763 -0.13004052639007568 0.23273706436157227
v -0.008997559547424316 -0.12885339558124542 0.23273706436157227
v -0.14716702699661255 -0.08657529950141907 0.32521897554397583
v -0.09777244925498962 -0.10373476147651672 0.23273706436157227
v -0.1464763879776001 -0.09133732318878174 0.32521897554397583
v -0.01611115038394928 -0.13505885004997253 0.23273706436157227
v -0.02065555937588215 -0.14135874807834625 0.32521897554397583
v -0.017975879833102226 -0.1358412802219391 0.23273706436157227
v -0.14259499311447144 -0.10411248356103897 0.32521897554397583
v -0.08924995362758636 -0.12757183611392975 0.23273706436157227
v -0.13988767564296722 -0.10945457220077515 0.32521897554397583
v -0.08924995362758636 -0.12757183611392975 0.23273706436157227
v -0.08639068901538849 -0.1313895434141159 0.23273706436157227
v -0.1372079998254776 -0.11352860182523727 0.32521897554397583
v -0.08924995362758636 -0.12757183611392975 0.23273706436157227
v -0.1372079998254776 -0.11352860182523727 0.32521897554397583
v -0.13988767564296722 -0.10945457220077515 0.32521897554397583
v -0.01097279042005539 -0.13410106301307678 0.32521897554397583
v -0.013320960104465485 -0.1364213526248932 0.32521897554397583
v -0.009591509588062763 -0.13004052639007568 0.23273706436157227
v -0.009591509588062763 -0.13004052639007568 0.23273706436157227
v -0.013320960104465485 -0.1364213526248932 0.32521897554397583
v -0.013832040131092072 -0.13690699636936188 0.32521897554397583
v -0.0992918610572815 -0.06045839935541153 0.23273706436157227
v -0.147457093000412 -0.07317960262298584 0.32521897554397583
v -0.14716702699661255 -0.06942933797836304 0.32521897554397583
v -0.008735120296478271 -0.1304452270269394 0.32521897554397583
v -0.00903899036347866 -0.13124114274978638 0.32521897554397583
v -0.007892530411481857 -0.1266140341758728 0.23273706436157227
v -0.0701468363404274 -0.13886307179927826 0.23273706436157227
v -0.08157002925872803 -0.14322039484977722 0.32521897554397583
v -0.087260901927948 -0.14203324913978577 0.32521897554397583
v -0.0701468363404274 -0.13886307179927826 0.23273706436157227
v -0.087260901927948 -0.14203324913978577 0.32521897554397583
v -0.09115611016750336 -0.141156405210495 0.32521897554397583
v -0.0701468363404274 -0.13886307179927826 0.23273706436157227
v -0.09115611016750336 -0.141156405210495 0.32521897554397583
v -0.09306228160858154 -0.14065726101398468 0.32521897554397583
v -0.05915185064077377 -0.1463366150856018 0.32521897554397583
v -0.05992535874247551 -0.14625567197799683 0.32521897554397583
v -0.057894881814718246 -0.14073820412158966 0.23273706436157227
v -0.047259021550416946 -0.14691667258739471 0.32521897554397583
v -0.056030161678791046 -0.14092706143856049 0.23273706436157227
v -0.05390297994017601 -0.14094054698944092 0.23273706436157227
v -0.047259021550416946 -0.14691667258739471 0.32521897554397583
v -0.05390297994017601 -0.14094054698944092 0.23273706436157227
v -0.053557660430669785 -0.14094054698944092 0.23273706436157227
v -0.03582201898097992 -0.14038746058940887 0.23273706436157227
v -0.04071174934506416 -0.14653895795345306 0.32521897554397583
v -0.04199634864926338 -0.14666037261486053 0.32521897554397583
v -0.03582201898097992 -0.14038746058940887 0.23273706436157227
v -0.04199634864926338 -0.14666037261486053 0.32521897554397583
v -0.042880360037088394 -0.14674131572246552 0.32521897554397583
v -0.09777244925498962 -0.10373476147651672 0.23273706436157227
v -0.09679173678159714 -0.10744453966617584 0.23273706436157227
v -0.14483267068862915 -0.0980149433016777 0.32521897554397583
v -0.09777244925498962 -0.10373476147651672 0.23273706436157227
v -0.14483267068862915 -0.0980149433016777 0.32521897554397583
v -0.1455371230840683 -0.09531690925359726 0.32521897554397583
v -0.09777244925498962 -0.10373476147651672 0.23273706436157227
v -0.1455371230840683 -0.09531690925359726 0.32521897554397583
v -0.14632445573806763 -0.09229511767625809 0.32521897554397583
v -0.09777244925498962 -0.10373476147651672 0.23273706436157227
v -0.14632445573806763 -0.09229511767625809 0.32521897554397583
v -0.1464763879776001 -0.09133732318878174 0.32521897554397583
v -0.0992918610572815 -0.06045839935541153 0.23273706436157227
v -0.14760904014110565 -0.08085548132658005 0.32521897554397583
v -0.14759522676467896 -0.07514916360378265 0.32521897554397583
v -0.0992918610572815 -0.06045839935541153 0.23273706436157227
v -0.14759522676467896 -0.07514916360378265 0.32521897554397583
v -0.147457093000412 -0.07317960262298584 0.32521897554397583
v -0.08278556168079376 -0.13424943387508392 0.23273706436157227
v -0.11691699177026749 -0.1312006711959839 0.32521897554397583
v -0.12128183990716934 -0.12869150936603546 0.32521897554397583
v -0.08278556168079376 -0.13424943387508392 0.23273706436157227
v -0.12128183990716934 -0.12869150936603546 0.32521897554397583
v -0.1219724789261818 -0.12819236516952515 0.32521897554397583
v -0.007892530411481857 -0.1266140341758728 0.23273706436157227
v -0.00903899036347866 -0.13124114274978638 0.32521897554397583
v -0.008997559547424316 -0.12885339558124542 0.23273706436157227
v -0.09923660010099411 -0.06370951980352402 0.23273706436157227
v -0.09807632863521576 -0.0980149433016777 0.23273706436157227
v -0.14760904014110565 -0.08085548132658005 0.32521897554397583
v -0.14760904014110565 -0.08085548132658005 0.32521897554397583
v -0.09807632863521576 -0.0980149433016777 0.23273706436157227
v -0.09802108258008957 -0.0990806594491005 0.23273706436157227
v -0.14760904014110565 -0.08085548132658005 0.32521897554397583
v -0.09802108258008957 -0.0990806594491005 0.23273706436157227
v -0.09777244925498962 -0.10373476147651672 0.23273706436157227
v -0.11624017357826233 -0.13157840073108673 0.32521897554397583
v -0.07992631196975708 -0.13577382266521454 0.23273706436157227
v -0.11112943291664124 -0.13423596322536469 0.32521897554397583
v -0.040228310972452164 -0.14648500084877014 0.32521897554397583
v -0.04071174934506416 -0.14653895795345306 0.32521897554397583
v -0.03582201898097992 -0.14038746058940887 0.23273706436157227
v -0.02438502013683319 -0.1428561508655548 0.32521897554397583
v -0.02083512954413891 -0.13689351081848145 0.23273706436157227
v -0.018970400094985962 -0.136245995759964 0.23273706436157227
v -0.02438502013683319 -0.1428561508655548 0.32521897554397583
v -0.030103519558906555 -0.1445963829755783 0.32521897554397583
v -0.02438502013683319 -0.13810762763023376 0.23273706436157227
v -0.03582201898097992 -0.14038746058940887 0.23273706436157227
v -0.042880360037088394 -0.14674131572246552 0.32521897554397583
v -0.041581958532333374 -0.14081914722919464 0.23273706436157227
v -0.07992631196975708 -0.13577382266521454 0.23273706436157227
v -0.07726042717695236 -0.1367855966091156 0.23273706436157227
v -0.1043887808918953 -0.13701492547988892 0.32521897554397583
v -0.07992631196975708 -0.13577382266521454 0.23273706436157227
v -0.1043887808918953 -0.13701492547988892 0.32521897554397583
v -0.10821492969989777 -0.13554449379444122 0.32521897554397583
v -0.07992631196975708 -0.13577382266521454 0.23273706436157227
v -0.10821492969989777 -0.13554449379444122 0.32521897554397583
v -0.11009346693754196 -0.1347350925207138 0.32521897554397583
v -0.08278556168079376 -0.13424943387508392 0.23273706436157227
v -0.08179102838039398 -0.13478904962539673 0.23273706436157227
v -0.11624017357826233 -0.13157840073108673 0.32521897554397583
v -0.08278556168079376 -0.13424943387508392 0.23273706436157227
v -0.11624017357826233 -0.13157840073108673 0.32521897554397583
v -0.11691699177026749 -0.1312006711959839 0.32521897554397583
v -0.047259021550416946 -0.009101450443267822 0.32521897554397583
v -0.11624017357826233 -0.02438577078282833 0.32521897554397583
v -0.11947236210107803 -0.02613949030637741 0.32521897554397583
v -0.047259021550416946 -0.009101450443267822 0.32521897554397583
v -0.11947236210107803 -0.02613949030637741 0.32521897554397583
v -0.12159953266382217 -0.027515480294823647 0.32521897554397583
v -0.047259021550416946 -0.009101450443267822 0.32521897554397583
v -0.12159953266382217 -0.027515480294823647 0.32521897554397583
v -0.12584005296230316 -0.0306856706738472 0.32521897554397583
v -0.047259021550416946 -0.009101450443267822 0.32521897554397583
v -0.12584005296230316 -0.0306856706738472 0.32521897554397583
v -0.12639257311820984 -0.031117349863052368 0.32521897554397583
v -0.047259021550416946 -0.009101450443267822 0.32521897554397583
v -0.08157002925872803 -0.012770759873092175 0.32521897554397583
v -0.08626638352870941 -0.013742060400545597 0.32521897554397583
v -0.047259021550416946 -0.009101450443267822 0.32521897554397583
v -0.08626638352870941 -0.013742060400545597 0.32521897554397583
v -0.087260901927948 -0.013957899995148182 0.32521897554397583
v -0.1043887808918953 -0.13701492547988892 0.32521897554397583
v -0.07586534321308136 -0.13731171190738678 0.23273706436157227
v -0.09872552752494812 -0.13898448646068573 0.32521897554397583
v -0.047259021550416946 -0.14691667258739471 0.32521897554397583
v -0.04857124015688896 -0.14090007543563843 0.23273706436157227
v -0.047259021550416946 -0.140886589884758 0.23273706436157227
v -0.0840425193309784 -0.1332646757364273 0.23273706436157227
v -0.08278556168079376 -0.13424943387508392 0.23273706436157227
v -0.12640638649463654 -0.1249142736196518 0.32521897554397583
v -0.12640638649463654 -0.1249142736196518 0.32521897554397583
v -0.08278556168079376 -0.13424943387508392 0.23273706436157227
v -0.1219724789261818 -0.12819236516952515 0.32521897554397583
v -0.02438502013683319 -0.13810762763023376 0.23273706436157227
v -0.030103519558906555 -0.1445963829755783 0.32521897554397583
v -0.030103519558906555 -0.13947013020515442 0.23273706436157227
v -0.030103519558906555 -0.1445963829755783 0.32521897554397583
v -0.036167338490486145 -0.14587794244289398 0.32521897554397583
v -0.030103519558906555 -0.13947013020515442 0.23273706436157227
v -0.02065555937588215 -0.14135874807834625 0.32521897554397583
v -0.02438502013683319 -0.1428561508655548 0.32521897554397583
v -0.018970400094985962 -0.136245995759964 0.23273706436157227
v -0.02065555937588215 -0.14135874807834625 0.32521897554397583
v -0.018970400094985962 -0.136245995759964 0.23273706436157227
v -0.017975879833102226 -0.1358412802219391 0.23273706436157227
v -0.08639068901538849 -0.1313895434141159 0.23273706436157227
v -0.0840425193309784 -0.1332646757364273 0.23273706436157227
v -0.12640638649463654 -0.1249142736196518 0.32521897554397583
v -0.08639068901538849 -0.1313895434141159 0.23273706436157227
v -0.12640638649463654 -0.1249142736196518 0.32521897554397583
v -0.1284645050764084 -0.12316054850816727 0.32521897554397583
v -0.08639068901538849 -0.1313895434141159 0.23273706436157227
v -0.1284645050764084 -0.12316054850816727 0.32521897554397583
v -0.12965239584445953 -0.12212181091308594 0.32521897554397583
v -0.08639068901538849 -0.1313895434141159 0.23273706436157227
v -0.12965239584445953 -0.12212181091308594 0.32521897554397583
v -0.13195912539958954 -0.11988244950771332 0.32521897554397583
v -0.08639068901538849 -0.1313895434141159 0.23273706436157227
v -0.13195912539958954 -0.11988244950771332 0.32521897554397583
v -0.13412773609161377 -0.11738677322864532 0.32521897554397583
v -0.08639068901538849 -0.1313895434141159 0.23273706436157227
v -0.13412773609161377 -0.11738677322864532 0.32521897554397583
v -0.13543996214866638 -0.11587587743997574 0.32521897554397583
v -0.057894881814718246 -0.14073820412158966 0.23273706436157227
v -0.05992535874247551 -0.14625567197799683 0.32521897554397583
v -0.05888941138982773 -0.14063027501106262 0.23273706436157227
v -0.06442833691835403 -0.13991530239582062 0.23273706436157227
v -0.0701468363404274 -0.1450415551662445 0.32521897554397583
v -0.07586534321308136 -0.14421865344047546 0.32521897554397583
v -0.06442833691835403 -0.13991530239582062 0.23273706436157227
v -0.07586534321308136 -0.14421865344047546 0.32521897554397583
v -0.08157002925872803 -0.14322039484977722 0.32521897554397583
v -0.06442833691835403 -0.13991530239582062 0.23273706436157227
v -0.05888941138982773 -0.14063027501106262 0.23273706436157227
v -0.0701468363404274 -0.1450415551662445 0.32521897554397583
v -0.047259021550416946 -0.14691667258739471 0.32521897554397583
v -0.053557660430669785 -0.14094054698944092 0.23273706436157227
v -0.04857124015688896 -0.14090007543563843 0.23273706436157227
v -0.07586534321308136 -0.13731171190738678 0.23273706436157227
v -0.0701468363404274 -0.13886307179927826 0.23273706436157227
v -0.09306228160858154 -0.14065726101398468 0.32521897554397583
v -0.05992535874247551 -0.14625567197799683 0.32521897554397583
v -0.06442833691835403 -0.1457565277814865 0.32521897554397583
v -0.05888941138982773 -0.14063027501106262 0.23273706436157227
v -0.05888941138982773 -0.14063027501106262 0.23273706436157227
v -0.06442833691835403 -0.1457565277814865 0.32521897554397583
v -0.0701468363404274 -0.1450415551662445 0.32521897554397583
v -0.056030161678791046 -0.14092706143856049 0.23273706436157227
v -0.05915185064077377 -0.1463366150856018 0.32521897554397583
v -0.057894881814718246 -0.14073820412158966 0.23273706436157227
v -0.056030161678791046 -0.14092706143856049 0.23273706436157227
v -0.05227306857705116 -0.14683574438095093 0.32521897554397583
v -0.053419530391693115 -0.146781787276268 0.32521897554397583
v -0.056030161678791046 -0.14092706143856049 0.23273706436157227
v -0.053419530391693115 -0.146781787276268 0.32521897554397583
v -0.05759099870920181 -0.1464715152978897 0.32521897554397583
v -0.0701468363404274 -0.13886307179927826 0.23273706436157227
v -0.06442833691835403 -0.13991530239582062 0.23273706436157227
v -0.08157002925872803 -0.14322039484977722 0.32521897554397583
v -0.047259021550416946 -0.009101450443267822 0.32521897554397583
v -0.13992911577224731 -0.04669845849275589 0.32521897554397583
v -0.14148996770381927 -0.04962582141160965 0.32521897554397583
v -0.047259021550416946 -0.009101450443267822 0.32521897554397583
v -0.14148996770381927 -0.04962582141160965 0.32521897554397583
v -0.14258117973804474 -0.05189216136932373 0.32521897554397583
v -0.047259021550416946 -0.009101450443267822 0.32521897554397583
v -0.02438502013683319 -0.013148490339517593 0.32521897554397583
v -0.02909518964588642 -0.01165108010172844 0.32521897554397583
v -0.047259021550416946 -0.009101450443267822 0.32521897554397583
v -0.02909518964588642 -0.01165108010172844 0.32521897554397583
v -0.030103519558906555 -0.011340809985995293 0.32521897554397583
v -0.047259021550416946 -0.009101450443267822 0.32521897554397583
v -0.030103519558906555 -0.011340809985995293 0.32521897554397583
v -0.03613971918821335 -0.01007273979485035 0.32521897554397583
v -0.047259021550416946 -0.009101450443267822 0.32521897554397583
v -0.03613971918821335 -0.01007273979485035 0.32521897554397583
v -0.03955148160457611 -0.009614069946110249 0.32521897554397583
v -0.047259021550416946 -0.009101450443267822 0.32521897554397583
v -0.006497439928352833 -0.11517439037561417 0.32521897554397583
v -0.006497439928352833 -0.04083025082945824 0.32521897554397583
v -0.047259021550416946 -0.009101450443267822 0.32521897554397583
v -0.006497439928352833 -0.04083025082945824 0.32521897554397583
v -0.006594129838049412 -0.03511042892932892 0.32521897554397583
v -0.047259021550416946 -0.009101450443267822 0.32521897554397583
v -0.036167338490486145 -0.14587794244289398 0.32521897554397583
v -0.030103519558906555 -0.1445963829755783 0.32521897554397583
v -0.047259021550416946 -0.009101450443267822 0.32521897554397583
v -0.030103519558906555 -0.1445963829755783 0.32521897554397583
v -0.02438502013683319 -0.1428561508655548 0.32521897554397583
v -0.047259021550416946 -0.009101450443267822 0.32521897554397583
v -0.14759522676467896 -0.07514916360378265 0.32521897554397583
v -0.14760904014110565 -0.08085548132658005 0.32521897554397583
v -0.047259021550416946 -0.009101450443267822 0.32521897554397583
v -0.14760904014110565 -0.08085548132658005 0.32521897554397583
v -0.14716702699661255 -0.08657529950141907 0.32521897554397583
v -0.047259021550416946 -0.009101450443267822 0.32521897554397583
v -0.14716702699661255 -0.08657529950141907 0.32521897554397583
v -0.1464763879776001 -0.09133732318878174 0.32521897554397583
v -0.047259021550416946 -0.009101450443267822 0.32521897554397583
v -0.1464763879776001 -0.09133732318878174 0.32521897554397583
v -0.14632445573806763 -0.09229511767625809 0.32521897554397583
v -0.047259021550416946 -0.009101450443267822 0.32521897554397583
v -0.1371941864490509 -0.042476050555706024 0.32521897554397583
v -0.13984625041484833 -0.046550069004297256 0.32521897554397583
v -0.047259021550416946 -0.009101450443267822 0.32521897554397583
v -0.13984625041484833 -0.046550069004297256 0.32521897554397583
v -0.13992911577224731 -0.04669845849275589 0.32521897554397583
v -0.047259021550416946 -0.009101450443267822 0.32521897554397583
v -0.053419530391693115 -0.146781787276268 0.32521897554397583
v -0.05227306857705116 -0.14683574438095093 0.32521897554397583
v -0.047259021550416946 -0.009101450443267822 0.32521897554397583
v -0.05227306857705116 -0.14683574438095093 0.32521897554397583
v -0.0483916699886322 -0.14690318703651428 0.32521897554397583
v -0.047259021550416946 -0.009101450443267822 0.32521897554397583
v -0.14258117973804474 -0.05189216136932373 0.32521897554397583
v -0.1432580053806305 -0.05364587903022766 0.32521897554397583
v -0.047259021550416946 -0.009101450443267822 0.32521897554397583
v -0.1432580053806305 -0.05364587903022766 0.32521897554397583
v -0.14479123055934906 -0.057989701628685 0.32521897554397583
v -0.047259021550416946 -0.009101450443267822 0.32521897554397583
v -0.14479123055934906 -0.057989701628685 0.32521897554397583
v -0.14495697617530823 -0.05861024931073189 0.32521897554397583
v -0.047259021550416946 -0.009101450443267822 0.32521897554397583
v -0.14495697617530823 -0.05861024931073189 0.32521897554397583
v -0.1455647498369217 -0.0608900785446167 0.32521897554397583
v -0.047259021550416946 -0.009101450443267822 0.32521897554397583
v -0.04071174934506416 -0.14653895795345306 0.32521897554397583
v -0.040228310972452164 -0.14648500084877014 0.32521897554397583
v -0.047259021550416946 -0.009101450443267822 0.32521897554397583
v -0.040228310972452164 -0.14648500084877014 0.32521897554397583
v -0.036167338490486145 -0.14587794244289398 0.32521897554397583
v -0.047259021550416946 -0.009101450443267822 0.32521897554397583
v -0.087260901927948 -0.14203324913978577 0.32521897554397583
v -0.08157002925872803 -0.14322039484977722 0.32521897554397583
v -0.047259021550416946 -0.009101450443267822 0.32521897554397583
v -0.08157002925872803 -0.14322039484977722 0.32521897554397583
v -0.07586534321308136 -0.14421865344047546 0.32521897554397583
v -0.047259021550416946 -0.009101450443267822 0.32521897554397583
v -0.02438502013683319 -0.1428561508655548 0.32521897554397583
v -0.02065555937588215 -0.14135874807834625 0.32521897554397583
v -0.047259021550416946 -0.009101450443267822 0.32521897554397583
v -0.02065555937588215 -0.14135874807834625 0.32521897554397583
v -0.020144490525126457 -0.14107544720172882 0.32521897554397583
v -0.047259021550416946 -0.009101450443267822 0.32521897554397583
v -0.020144490525126457 -0.14107544720172882 0.32521897554397583
v -0.017796309664845467 -0.13976691663265228 0.32521897554397583
v -0.047259021550416946 -0.009101450443267822 0.32521897554397583
v -0.017796309664845467 -0.13976691663265228 0.32521897554397583
v -0.013832040131092072 -0.13690699636936188 0.32521897554397583
v -0.047259021550416946 -0.009101450443267822 0.32521897554397583
v -0.05915185064077377 -0.1463366150856018 0.32521897554397583
v -0.05759099870920181 -0.1464715152978897 0.32521897554397583
v -0.047259021550416946 -0.009101450443267822 0.32521897554397583
v -0.05759099870920181 -0.1464715152978897 0.32521897554397583
v -0.053419530391693115 -0.146781787276268 0.32521897554397583
usemtl DefaultMaterial
f 1 2 3
f 4 5 6
f 7 8 9
f 10 11 12
f 13 14 15
f 16 17 18
f 19 20 21
f 22 23 24
f 25 26 27
f 28 29 30
f 31 32 33
f 34 35 36
f 37 38 39
f 40 41 42
f 43 44 45
f 46 47 48
f 49 50 51
f 52 53 54
f 55 56 57
f 58 59 60
f 61 62 63
f 64 65 66
f 67 68 69
f 70 71 72
f 73 74 75
f 76 77 78
f 79 80 81
f 82 83 84
f 85 86 87
f 88 89 90
f 91 92 93
f 94 95 96
f 97 98 99
f 100 101 102
f 103 104 105
f 106 107 108
f 109 110 111
f 112 113 114
f 115 116 117
f 118 119 120
f 121 122 123
f 124 125 126
f 127 128 129
f 130 131 132
f 133 134 135
f 136 137 138
f 139 140 141
f 142 143 144
f 145 146 147
f 148 149 150
f 151 152 153
f 154 155 156
f 157 158 159
f 160 161 162
f 163 164 165
f 166 167 168
f 169 170 171
f 172 173 174
f 175 176 177
f 178 179 180
f 181 182 183
f 184 185 186
f 187 188 189
f 190 191 192
f 193 194 195
f 196 197 198
f 199 200 201
f 202 203 204
f 205 206 207
f 208 209 210
f 211 212 213
f 214 215 216
f 217 218 219
f 220 221 222
f 223 224 225
f 226 227 228
f 229 230 231
f 232 233 234
f 235 236 237
f 238 239 240
f 241 242 243
f 244 245 246
f 247 248 249
f 250 251 252
f 253 254 255
f 256 257 258
f 259 260 261
f 262 263 264
f 265 266 267
f 268 269 270
f 271 272 273
f 274 275 276
f 277 278 279
f 280 281 282
f 283 284 285
f 286 287 288
f 289 290 291
f 292 293 294
f 295 296 297
f 298 299 300
f 301 302 303
f 304 305 306
f 307 308 309
f 310 311 312
f 313 314 315
f 316 317 318
f 319 320 321
f 322 323 324
f 325 326 327
f 328 329 330
f 331 332 333
f 334 335 336
f 337 338 339
f 340 341 342
f 343 344 345
f 346 347 348
f 349 350 351
f 352 353 354
f 355 356 357
f 358 359 360
f 361 362 363
f 364 365 366
f 367 368 369
f 370 371 372
f 373 374 375
f 376 377 378
f 379 380 381
f 382 383 384
f 385 386 387
f 388 389 390
f 391 392 393
f 394 395 396
f 397 398 399
f 400 401 402
f 403 404 405
f 406 407 408
f 409 410 411
f 412 413 414
f 415 416 417
f 418 419 420
f 421 422 423
f 424 425 426
f 427 428 429
f 430 431 432
f 433 434 435
f 436 437 438
f 439 440 441
f 442 443 444
f 445 446 447
f 448 449 450
f 451 452 453
f 454 455 456
f 457 458 459
f 460 461 462
f 463 464 465
f 466 467 468
f 469 470 471
f 472 473 474
f 475 476 477
f 478 479 480
f 481 482 483
f 484 485 486
f 487 488 489
f 490 491 492
f 493 494 495
f 496 497 498
f 499 500 501
f 502 503 504
f 505 506 507
f 508 509 510
f 511 512 513
f 514 515 516
f 517 518 519
f 520 521 522
f 523 524 525
f 526 527 528
f 529 530 531
f 532 533 534
f 535 536 537
f 538 539 540
f 541 542 543
f 544 545 546
f 547 548 549
f 550 551 552
f 553 554 555
f 556 557 558
f 559 560 561
f 562 563 564
f 565 566 567
f 568 569 570
f 571 572 573
f 574 575 576
f 577 578 579
f 580 581 582
f 583 584 585
f 586 587 588
f 589 590 591
f 592 593 594
f 595 596 597
f 598 599 600
f 601 602 603
f 604 605 606
f 607 608 609
f 610 611 612
f 613 614 615
f 616 617 618
f 619 620 621
f 622 623 624
f 625 626 627
f 628 629 630
f 631 632 633
f 634 635 636
f 637 638 639
f 640 641 642
f 643 644 645
f 646 647 648
f 649 650 651
f 652 653 654
f 655 656 657
f 658 659 660
f 661 662 663
f 664 665 666
f 667 668 669
f 670 671 672
f 673 674 675
f 676 677 678
f 679 680 681
f 682 683 684
f 685 686 687
f 688 689 690
f 691 692 693
f 694 695 696
f 697 698 699
f 700 701 702
f 703 704 705
f 706 707 708
f 709 710 711
f 712 713 714
f 715 716 717
f 718 719 720
f 721 722 723
f 724 725 726
f 727 728 729
f 730 731 732
f 733 734 735
f 736 737 738
f 739 740 741
f 742 743 744
f 745 746 747
f 748 749 750
f 751 752 753
f 754 755 756
f 757 758 759
f 760 761 762
f 763 764 765
f 766 767 768
f 769 770 771
f 772 773 774
f 775 776 777
f 778 779 780
f 781 782 783
f 784 785 786
f 787 788 789
f 790 791 792
f 793 794 795
f 796 797 798
f 799 800 801
f 802 803 804
f 805 806 807
f 808 809 810
f 811 812 813
f 814 815 816
f 817 818 819
f 820 821 822
f 823 824 825
f 826 827 828
f 829 830 831
f 832 833 834
f 835 836 837
f 838 839 840
f 841 842 843
f 844 845 846
f 847 848 849
f 850 851 852
f 853 854 855
f 856 857 858
f 859 860 861
f 862 863 864
f 865 866 867
f 868 869 870
f 871 872 873
f 874 875 876
f 877 878 879
f 880 881 882
f 883 884 885
f 886 887 888
f 889 890 891
f 892 893 894
f 895 896 897
f 898 899 900
f 901 902 903
f 904 905 906
f 907 908 909
f 910 911 912
f 913 914 915
f 916 917 918
f 919 920 921
f 922 923 924
f 925 926 927
f 928 929 930
f 931 932 933
f 934 935 936
f 937 938 939
f 940 941 942
f 943 944 945
f 946 947 948
f 949 950 951
f 952 953 954
f 955 956 957
f 958 959 960
f 961 962 963
f 964 965 966
f 967 968 969
f 970 971 972
f 973 974 975
f 976 977 978
f 979 980 981
f 982 983 984
f 985 986 987
f 988 989 990
f 991 992 993
f 994 995 996
f 997 998 999
f 1000 1001 1002
f 1003 1004 1005
f 1006 1007 1008
f 1009 1010 1011
f 1012 1013 1014
f 1015 1016 1017
f 1018 1019 1020
f 1021 1022 1023
f 1024 1025 1026
f 1027 1028 1029
f 1030 1031 1032
f 1033 1034 1035
f 1036 1037 1038
f 1039 1040 1041
f 1042 1043 1044
f 1045 1046 1047
f 1048 1049 1050
f 1051 1052 1053
f 1054 1055 1056
f 1057 1058 1059
f 1060 1061 1062
f 1063 1064 1065
f 1066 1067 1068
f 1069 1070 1071
f 1072 1073 1074
f 1075 1076 1077
f 1078 1079 1080
f 1081 1082 1083
f 1084 1085 1086
f 1087 1088 1089
f 1090 1091 1092
f 1093 1094 1095
f 1096 1097 1098
f 1099 1100 1101
f 1102 1103 1104
f 1105 1106 1107
f 1108 1109 1110
f 1111 1112 1113
f 1114 1115 1116
f 1117 1118 1119
f 1120 1121 1122
f 1123 1124 1125
f 1126 1127 1128
f 1129 1130 1131
f 1132 1133 1134
f 1135 1136 1137
f 1138 1139 1140
f 1141 1142 1143
f 1144 1145 1146
f 1147 1148 1149
f 1150 1151 1152
f 1153 1154 1155
f 1156 1157 1158
f 1159 1160 1161
f 1162 1163 1164
f 1165 1166 1167
f 1168 1169 1170
f 1171 1172 1173
f 1174 1175 1176
f 1177 1178 1179
f 1180 1181 1182
f 1183 1184 1185
f 1186 1187 1188
f 1189 1190 1191
f 1192 1193 1194
f 1195 1196 1197
f 1198 1199 1200
f 1201 1202 1203
f 1204 1205 1206
f 1207 1208 1209
f 1210 1211 1212
f 1213 1214 1215
f 1216 1217 1218
f 1219 1220 1221
f 1222 1223 1224
f 1225 1226 1227
f 1228 1229 1230
f 1231 1232 1233
f 1234 1235 1236
f 1237 1238 1239
f 1240 1241 1242
f 1243 1244 1245
f 1246 1247 1248
