mtllib torso_l3_6_mesh.mtl
v -0.06441839039325714 0.07356295734643936 0.4006362557411194
v -0.11566057801246643 0.010327720083296299 0.38409098982810974
v -0.12159907072782516 0.008782800287008286 0.38409098982810974
v -0.047260891646146774 0.09453485161066055 0.4152364730834961
v -0.04318125173449516 0.09425070881843567 0.4152364730834961
v -0.05446605011820793 0.09375350177288055 0.40898358821868896
v -0.05446605011820793 0.09375350177288055 0.40898358821868896
v -0.04318125173449516 0.09425070881843567 0.4152364730834961
v -0.04155268892645836 0.09391331672668457 0.4142334461212158
v -0.05446605011820793 0.09375350177288055 0.40898358821868896
v -0.04155268892645836 0.09391331672668457 0.4142334461212158
v -0.03847651183605194 0.09370020776987076 0.4147486686706543
v -0.05446605011820793 0.09375350177288055 0.40898358821868896
v -0.03847651183605194 0.09370020776987076 0.4147486686706543
v -0.05064960941672325 0.09327402710914612 0.4094591736793518
v -0.058710191398859024 0.07798463106155396 0.4019228219985962
v -0.0529855415225029 0.07784257084131241 0.4021148681640625
v -0.058710191398859024 0.07356295734643936 0.4003283381462097
v -0.05446605011820793 0.09375350177288055 0.40898358821868896
v -0.047260891646146774 0.07732760906219482 0.40267887711524963
v -0.0529855415225029 0.07784257084131241 0.4021148681640625
v -0.0529855415225029 0.07784257084131241 0.4021148681640625
v -0.047260891646146774 0.07732760906219482 0.40267887711524963
v -0.0529855415225029 0.07356295734643936 0.40072768926620483
v -0.016235919669270515 0.050691019743680954 0.4152364730834961
v -0.009376210160553455 -0.010111420415341854 0.38409098982810974
v -0.0263363104313612 0.0770079717040062 0.4152364730834961
v -0.058710191398859024 0.07356295734643936 0.4003283381462097
v -0.0529855415225029 0.07784257084131241 0.4021148681640625
v -0.0529855415225029 0.07356295734643936 0.40072768926620483
v -0.058710191398859024 0.07356295734643936 0.4003283381462097
v -0.0529855415225029 0.07356295734643936 0.40072768926620483
v -0.0529855415225029 0.050691019743680954 0.3934778869152069
v -0.058710191398859024 0.07356295734643936 0.4003283381462097
v -0.0529855415225029 0.050691019743680954 0.3934778869152069
v -0.058710191398859024 0.050691019743680954 0.3931029438972473
v -0.058710191398859024 0.07356295734643936 0.4003283381462097
v -0.058710191398859024 0.050691019743680954 0.3931029438972473
v -0.06441839039325714 0.050691019743680954 0.393398642539978
v -0.07014302909374237 0.07743415236473083 0.4025813341140747
v -0.14420157670974731 0.00047217999235726893 0.38409098982810974
v -0.07389367371797562 0.07686591148376465 0.4031056761741638
v -0.06441839039325714 0.07356295734643936 0.4006362557411194
v -0.06441839039325714 0.050691019743680954 0.393398642539978
v -0.11110387742519379 0.011446449905633926 0.38409098982810974
v -0.06441839039325714 0.07356295734643936 0.4006362557411194
v -0.11110387742519379 0.011446449905633926 0.38409098982810974
v -0.11566057801246643 0.010327720083296299 0.38409098982810974
v -0.058710191398859024 0.09449931979179382 0.4120292067527771
v -0.058710191398859024 0.09492550045251846 0.4152364730834961
v -0.05288683995604515 0.09474792331457138 0.4152364730834961
v -0.058710191398859024 0.09449931979179382 0.4120292067527771
v -0.05288683995604515 0.09474792331457138 0.4152364730834961
v -0.047260891646146774 0.09453485161066055 0.4152364730834961
v -0.058710191398859024 0.09449931979179382 0.4120292067527771
v -0.047260891646146774 0.09453485161066055 0.4152364730834961
v -0.05446605011820793 0.09375350177288055 0.40898358821868896
v -0.058710191398859024 0.09449931979179382 0.4120292067527771
v -0.05446605011820793 0.09375350177288055 0.40898358821868896
v -0.058710191398859024 0.09386003017425537 0.40886467695236206
v -0.058710191398859024 0.09386003017425537 0.40886467695236206
v -0.05446605011820793 0.09375350177288055 0.40898358821868896
v -0.058710191398859024 0.07798463106155396 0.4019228219985962
v -0.03847651183605194 0.09370020776987076 0.4147486686706543
v -0.03898647055029869 0.0938422679901123 0.4152364730834961
v -0.038163959980010986 0.09373573958873749 0.4152364730834961
v -0.058710191398859024 0.07798463106155396 0.4019228219985962
v -0.05446605011820793 0.09375350177288055 0.40898358821868896
v -0.0529855415225029 0.07784257084131241 0.4021148681640625
v -0.008751110173761845 -0.011869439855217934 0.38409098982810974
v -0.009376210160553455 -0.010111420415341854 0.38409098982810974
v -0.016235919669270515 0.050691019743680954 0.4152364730834961
v -0.06441839039325714 0.07787808775901794 0.4020721912384033
v -0.127323716878891 0.007131319958716631 0.38409098982810974
v -0.07014302909374237 0.07743415236473083 0.4025813341140747
v -0.07014302909374237 0.07743415236473083 0.4025813341140747
v -0.127323716878891 0.007131319958716631 0.38409098982810974
v -0.13225877285003662 0.005462099798023701 0.38409098982810974
v -0.07014302909374237 0.07743415236473083 0.4025813341140747
v -0.13225877285003662 0.005462099798023701 0.38409098982810974
v -0.13296613097190857 0.005213490221649408 0.38409098982810974
v -0.07014302909374237 0.07743415236473083 0.4025813341140747
v -0.13296613097190857 0.005213490221649408 0.38409098982810974
v -0.13875657320022583 0.0029049799777567387 0.38409098982810974
v -0.07014302909374237 0.07743415236473083 0.4025813341140747
v -0.13875657320022583 0.0029049799777567387 0.38409098982810974
v -0.14420157670974731 0.00047217999235726893 0.38409098982810974
v -0.02084195986390114 -0.08648738265037537 0.39795950055122375
v -0.015347619540989399 -0.02085484005510807 0.4152364730834961
v -0.018670540302991867 -0.022328730672597885 0.4152364730834961
v -0.07389367371797562 0.07686591148376465 0.4031056761741638
v -0.14420157670974731 0.00047217999235726893 0.38409098982810974
v -0.14528727531433105 -4.279000131646171e-05 0.38409098982810974
v -0.06191796064376831 0.09488998353481293 0.4152364730834961
v -0.058710191398859024 0.09492550045251846 0.4152364730834961
v -0.058710191398859024 0.09449931979179382 0.4120292067527771
v -0.06441839039325714 0.050691019743680954 0.393398642539978
v -0.10692554712295532 0.012245549820363522 0.38409098982810974
v -0.10983722656965256 0.011695059947669506 0.38409098982810974
v -0.06441839039325714 0.050691019743680954 0.393398642539978
v -0.10983722656965256 0.011695059947669506 0.38409098982810974
v -0.11110387742519379 0.011446449905633926 0.38409098982810974
v -0.04318125173449516 0.09425070881843567 0.4152364730834961
v -0.04155268892645836 0.09412641078233719 0.4152364730834961
v -0.04155268892645836 0.09391331672668457 0.4142334461212158
v -0.04155268892645836 0.09391331672668457 0.4142334461212158
v -0.04155268892645836 0.09412641078233719 0.4152364730834961
v -0.03847651183605194 0.09370020776987076 0.4147486686706543
v -0.03847651183605194 0.09370020776987076 0.4147486686706543
v -0.04155268892645836 0.09412641078233719 0.4152364730834961
v -0.03898647055029869 0.0938422679901123 0.4152364730834961
v -0.058710191398859024 0.050691019743680954 0.3931029438972473
v -0.058710191398859024 0.01775044947862625 0.38409098982810974
v -0.060651298612356186 0.017643900588154793 0.38409098982810974
v -0.03847651183605194 0.09370020776987076 0.4147486686706543
v -0.038163959980010986 0.09373573958873749 0.4152364730834961
v -0.02678046002984047 0.07688367366790771 0.41440722346305847
v -0.03847651183605194 0.09370020776987076 0.4147486686706543
v -0.02678046002984047 0.07688367366790771 0.41440722346305847
v -0.03270250931382179 0.0766705572605133 0.4089652895927429
v -0.058710191398859024 0.050691019743680954 0.3931029438972473
v -0.06589890271425247 0.017199959605932236 0.38409098982810974
v -0.0864122211933136 0.015228849835693836 0.38409098982810974
v -0.058710191398859024 0.050691019743680954 0.3931029438972473
v -0.0864122211933136 0.015228849835693836 0.38409098982810974
v -0.09157756716012955 0.014625079929828644 0.38409098982810974
v -0.058710191398859024 0.050691019743680954 0.3931029438972473
v -0.09157756716012955 0.014625079929828644 0.38409098982810974
v -0.09300872683525085 0.014429749920964241 0.38409098982810974
v -0.058710191398859024 0.050691019743680954 0.3931029438972473
v -0.09300872683525085 0.014429749920964241 0.38409098982810974
v -0.0967429131269455 0.013914770446717739 0.38409098982810974
v -0.058710191398859024 0.050691019743680954 0.3931029438972473
v -0.0967429131269455 0.013914770446717739 0.38409098982810974
v -0.09873338043689728 0.013630650006234646 0.38409098982810974
v -0.0529855415225029 0.050691019743680954 0.3934778869152069
v -0.04293449968099594 0.016294309869408607 0.38409098982810974
v -0.058710191398859024 0.050691019743680954 0.3931029438972473
v -0.058710191398859024 0.050691019743680954 0.3931029438972473
v -0.1044415831565857 0.012707250192761421 0.38409098982810974
v -0.06441839039325714 0.050691019743680954 0.393398642539978
v -0.06441839039325714 0.050691019743680954 0.393398642539978
v -0.1044415831565857 0.012707250192761421 0.38409098982810974
v -0.10692554712295532 0.012245549820363522 0.38409098982810974
v -0.043757010251283646 0.07677710801362991 0.40318799018859863
v -0.019904300570487976 0.0036508101038634777 0.38409098982810974
v -0.020496509969234467 0.004219059832394123 0.38409098982810974
v -0.058710191398859024 0.050691019743680954 0.3931029438972473
v -0.04293449968099594 0.016294309869408607 0.38409098982810974
v -0.04696479067206383 0.01718219928443432 0.38409098982810974
v -0.058710191398859024 0.050691019743680954 0.3931029438972473
v -0.04696479067206383 0.01718219928443432 0.38409098982810974
v -0.0473102405667305 0.017235469073057175 0.38409098982810974
v -0.058710191398859024 0.050691019743680954 0.3931029438972473
v -0.0473102405667305 0.017235469073057175 0.38409098982810974
v -0.0529855415225029 0.01780370995402336 0.38409098982810974
v -0.058710191398859024 0.050691019743680954 0.3931029438972473
v -0.0529855415225029 0.01780370995402336 0.38409098982810974
v -0.055041808634996414 0.01780370995402336 0.38409098982810974
v -0.058710191398859024 0.050691019743680954 0.3931029438972473
v -0.055041808634996414 0.01780370995402336 0.38409098982810974
v -0.058710191398859024 0.01775044947862625 0.38409098982810974
v -0.058710191398859024 0.050691019743680954 0.3931029438972473
v -0.060651298612356186 0.017643900588154793 0.38409098982810974
v -0.06450063735246658 0.017324259504675865 0.38409098982810974
v -0.058710191398859024 0.050691019743680954 0.3931029438972473
v -0.06450063735246658 0.017324259504675865 0.38409098982810974
v -0.06589890271425247 0.017199959605932236 0.38409098982810974
v -0.009376210160553455 -0.010111420415341854 0.38409098982810974
v -0.010544169694185257 -0.007749639917165041 0.38409098982810974
v -0.02678046002984047 0.07688367366790771 0.41440722346305847
v -0.03270250931382179 0.0766705572605133 0.4089652895927429
v -0.014887009747326374 -0.001392379985190928 0.38409098982810974
v -0.043757010251283646 0.07677710801362991 0.40318799018859863
v -0.043757010251283646 0.07677710801362991 0.40318799018859863
v -0.014887009747326374 -0.001392379985190928 0.38409098982810974
v -0.017058420926332474 0.0009161200141534209 0.38409098982810974
v -0.043757010251283646 0.07677710801362991 0.40318799018859863
v -0.017058420926332474 0.0009161200141534209 0.38409098982810974
v -0.019904300570487976 0.0036508101038634777 0.38409098982810974
v -0.043757010251283646 0.07677710801362991 0.40318799018859863
v -0.020496509969234467 0.004219059832394123 0.38409098982810974
v -0.023572679609060287 0.006616349797695875 0.38409098982810974
v -0.043757010251283646 0.07677710801362991 0.40318799018859863
v -0.023572679609060287 0.006616349797695875 0.38409098982810974
v -0.02502029947936535 0.007681820075958967 0.38409098982810974
v -0.043757010251283646 0.07677710801362991 0.40318799018859863
v -0.02502029947936535 0.007681820075958967 0.38409098982810974
v -0.029971789568662643 0.010878199711441994 0.38409098982810974
v -0.047260891646146774 0.07732760906219482 0.40267887711524963
v -0.030728500336408615 0.01130438968539238 0.38409098982810974
v -0.035828039050102234 0.013754960149526596 0.38409098982810974
v -0.1745520830154419 -0.03443950042128563 0.38409098982810974
v -0.15523962676525116 -0.0058850799687206745 0.38409098982810974
v -0.15216344594955444 -0.0039495001547038555 0.38409098982810974
v -0.1745520830154419 -0.03443950042128563 0.38409098982810974
v -0.16655732691287994 -0.014906009659171104 0.38409098982810974
v -0.16558675467967987 -0.01398260984569788 0.38409098982810974
v -0.1745520830154419 -0.03443950042128563 0.38409098982810974
v -0.16558675467967987 -0.01398260984569788 0.38409098982810974
v -0.16254347562789917 -0.011354460380971432 0.38409098982810974
v -0.1745520830154419 -0.03443950042128563 0.38409098982810974
v -0.16254347562789917 -0.011354460380971432 0.38409098982810974
v -0.16104651987552643 -0.010093670338392258 0.38409098982810974
v -0.1745520830154419 -0.03443950042128563 0.38409098982810974
v -0.16104651987552643 -0.010093670338392258 0.38409098982810974
v -0.1593850553035736 -0.008815109729766846 0.38409098982810974
v -0.1745520830154419 -0.03443950042128563 0.38409098982810974
v -0.1593850553035736 -0.008815109729766846 0.38409098982810974
v -0.15523962676525116 -0.0058850799687206745 0.38409098982810974
v -0.1745520830154419 -0.03443950042128563 0.38409098982810974
v -0.15216344594955444 -0.0039495001547038555 0.38409098982810974
v -0.15020586550235748 -0.0027419698890298605 0.38409098982810974
v -0.1745520830154419 -0.03443950042128563 0.38409098982810974
v -0.15020586550235748 -0.0027419698890298605 0.38409098982810974
v -0.14528727531433105 -4.279000131646171e-05 0.38409098982810974
v -0.1745520830154419 -0.03443950042128563 0.38409098982810974
v -0.1745356321334839 -0.028721509501338005 0.38409098982810974
v -0.17238067090511322 -0.022222189232707024 0.38409098982810974
v -0.1745520830154419 -0.03443950042128563 0.38409098982810974
v -0.17238067090511322 -0.022222189232707024 0.38409098982810974
v -0.17168976366519928 -0.020677270367741585 0.38409098982810974
v -0.1745520830154419 -0.03443950042128563 0.38409098982810974
v -0.1711140125989914 -0.019647320732474327 0.38409098982810974
v -0.1684819757938385 -0.016859350726008415 0.38409098982810974
v -0.1745520830154419 -0.03443950042128563 0.38409098982810974
v -0.1684819757938385 -0.016859350726008415 0.38409098982810974
v -0.16655732691287994 -0.014906009659171104 0.38409098982810974
v -0.1745520830154419 -0.03443950042128563 0.38409098982810974
v -0.029971789568662643 0.010878199711441994 0.38409098982810974
v -0.02502029947936535 0.007681820075958967 0.38409098982810974
v -0.1745520830154419 -0.03443950042128563 0.38409098982810974
v -0.04696479067206383 0.01718219928443432 0.38409098982810974
v -0.04293449968099594 0.016294309869408607 0.38409098982810974
v -0.1745520830154419 -0.03443950042128563 0.38409098982810974
v -0.04293449968099594 0.016294309869408607 0.38409098982810974
v -0.04198038950562477 0.016027940437197685 0.38409098982810974
v -0.1745520830154419 -0.03443950042128563 0.38409098982810974
v -0.04198038950562477 0.016027940437197685 0.38409098982810974
v -0.035828039050102234 0.013754960149526596 0.38409098982810974
v -0.1745520830154419 -0.03443950042128563 0.38409098982810974
v -0.035828039050102234 0.013754960149526596 0.38409098982810974
v -0.030728500336408615 0.01130438968539238 0.38409098982810974
v -0.1745520830154419 -0.03443950042128563 0.38409098982810974
v -0.030728500336408615 0.01130438968539238 0.38409098982810974
v -0.029971789568662643 0.010878199711441994 0.38409098982810974
v -0.1745520830154419 -0.03443950042128563 0.38409098982810974
v -0.0967429131269455 0.013914770446717739 0.38409098982810974
v -0.09300872683525085 0.014429749920964241 0.38409098982810974
v -0.1745520830154419 -0.03443950042128563 0.38409098982810974
v -0.02502029947936535 0.007681820075958967 0.38409098982810974
v -0.023572679609060287 0.006616349797695875 0.38409098982810974
v -0.1745520830154419 -0.03443950042128563 0.38409098982810974
v -0.023572679609060287 0.006616349797695875 0.38409098982810974
v -0.020496509969234467 0.004219059832394123 0.38409098982810974
v -0.1745520830154419 -0.03443950042128563 0.38409098982810974
v -0.0864122211933136 0.015228849835693836 0.38409098982810974
v -0.06589890271425247 0.017199959605932236 0.38409098982810974
v -0.1745520830154419 -0.03443950042128563 0.38409098982810974
v -0.06589890271425247 0.017199959605932236 0.38409098982810974
v -0.06450063735246658 0.017324259504675865 0.38409098982810974
v -0.1745520830154419 -0.03443950042128563 0.38409098982810974
v -0.06450063735246658 0.017324259504675865 0.38409098982810974
v -0.060651298612356186 0.017643900588154793 0.38409098982810974
v -0.1745520830154419 -0.03443950042128563 0.38409098982810974
v -0.060651298612356186 0.017643900588154793 0.38409098982810974
v -0.058710191398859024 0.01775044947862625 0.38409098982810974
v -0.1745520830154419 -0.03443950042128563 0.38409098982810974
v -0.058710191398859024 0.01775044947862625 0.38409098982810974
v -0.055041808634996414 0.01780370995402336 0.38409098982810974
v -0.1745520830154419 -0.03443950042128563 0.38409098982810974
v -0.127323716878891 0.007131319958716631 0.38409098982810974
v -0.12159907072782516 0.008782800287008286 0.38409098982810974
v -0.1745520830154419 -0.03443950042128563 0.38409098982810974
v -0.0529855415225029 0.01780370995402336 0.38409098982810974
v -0.0473102405667305 0.017235469073057175 0.38409098982810974
v -0.1745520830154419 -0.03443950042128563 0.38409098982810974
v -0.0473102405667305 0.017235469073057175 0.38409098982810974
v -0.04696479067206383 0.01718219928443432 0.38409098982810974
v -0.1745520830154419 -0.03443950042128563 0.38409098982810974
v -0.11110387742519379 0.011446449905633926 0.38409098982810974
v -0.10983722656965256 0.011695059947669506 0.38409098982810974
v -0.1745520830154419 -0.03443950042128563 0.38409098982810974
v -0.10983722656965256 0.011695059947669506 0.38409098982810974
v -0.10692554712295532 0.012245549820363522 0.38409098982810974
v -0.1745520830154419 -0.03443950042128563 0.38409098982810974
v -0.10692554712295532 0.012245549820363522 0.38409098982810974
v -0.1044415831565857 0.012707250192761421 0.38409098982810974
v -0.1745520830154419 -0.03443950042128563 0.38409098982810974
v -0.1044415831565857 0.012707250192761421 0.38409098982810974
v -0.09873338043689728 0.013630650006234646 0.38409098982810974
v -0.1745520830154419 -0.03443950042128563 0.38409098982810974
v -0.09873338043689728 0.013630650006234646 0.38409098982810974
v -0.0967429131269455 0.013914770446717739 0.38409098982810974
v -0.1690741777420044 -0.009010439738631248 0.4152364730834961
v -0.1618196666240692 -0.01730329915881157 0.4152364730834961
v -0.1583815962076187 -0.017640700563788414 0.4152364730834961
v -0.1745520830154419 -0.03443950042128563 0.38409098982810974
v -0.09300872683525085 0.014429749920964241 0.38409098982810974
v -0.09157756716012955 0.014625079929828644 0.38409098982810974
v -0.1745520830154419 -0.03443950042128563 0.38409098982810974
v -0.09157756716012955 0.014625079929828644 0.38409098982810974
v -0.0864122211933136 0.015228849835693836 0.38409098982810974
v -0.1745520830154419 -0.03443950042128563 0.38409098982810974
v -0.14528727531433105 -4.279000131646171e-05 0.38409098982810974
v -0.14420157670974731 0.00047217999235726893 0.38409098982810974
v -0.1745520830154419 -0.03443950042128563 0.38409098982810974
v -0.14420157670974731 0.00047217999235726893 0.38409098982810974
v -0.13875657320022583 0.0029049799777567387 0.38409098982810974
v -0.1745520830154419 -0.03443950042128563 0.38409098982810974
v -0.13875657320022583 0.0029049799777567387 0.38409098982810974
v -0.13296613097190857 0.005213490221649408 0.38409098982810974
v -0.1745520830154419 -0.03443950042128563 0.38409098982810974
v -0.13296613097190857 0.005213490221649408 0.38409098982810974
v -0.13225877285003662 0.005462099798023701 0.38409098982810974
v -0.1745520830154419 -0.03443950042128563 0.38409098982810974
v -0.13225877285003662 0.005462099798023701 0.38409098982810974
v -0.127323716878891 0.007131319958716631 0.38409098982810974
v -0.1745520830154419 -0.03443950042128563 0.38409098982810974
v -0.17168976366519928 -0.020677270367741585 0.38409098982810974
v -0.1711140125989914 -0.019647320732474327 0.38409098982810974
v -0.1745520830154419 -0.03443950042128563 0.38409098982810974
v -0.12159907072782516 0.008782800287008286 0.38409098982810974
v -0.11566057801246643 0.010327720083296299 0.38409098982810974
v -0.1745520830154419 -0.03443950042128563 0.38409098982810974
v -0.11566057801246643 0.010327720083296299 0.38409098982810974
v -0.11110387742519379 0.011446449905633926 0.38409098982810974
v -0.17369668185710907 -0.04017525166273117 0.38409098982810974
v -0.1644187867641449 -0.08648738265037537 0.38409098982810974
v -0.1690741777420044 -0.009010439738631248 0.4152364730834961
v -0.1690741777420044 -0.009010439738631248 0.4152364730834961
v -0.1644187867641449 -0.08648738265037537 0.38409098982810974
v -0.16792267560958862 -0.012437679804861546 0.4152364730834961
v -0.1690741777420044 -0.009010439738631248 0.4152364730834961
v -0.16792267560958862 -0.012437679804861546 0.4152364730834961
v -0.16670535504817963 -0.014568610116839409 0.4152364730834961
v -0.1690741777420044 -0.009010439738631248 0.4152364730834961
v -0.16670535504817963 -0.014568610116839409 0.4152364730834961
v -0.16560320556163788 -0.01588268019258976 0.4152364730834961
v -0.1690741777420044 -0.009010439738631248 0.4152364730834961
v -0.16560320556163788 -0.01588268019258976 0.4152364730834961
v -0.1618196666240692 -0.01730329915881157 0.4152364730834961
v -0.1745520830154419 -0.03443950042128563 0.38409098982810974
v -0.006579679902642965 -0.046532511711120605 0.38409098982810974
v -0.00710608996450901 -0.08648738265037537 0.38409098982810974
v -0.1690741777420044 -0.009010439738631248 0.4152364730834961
v -0.1583815962076187 -0.017640700563788414 0.4152364730834961
v -0.1559305191040039 -0.017871549353003502 0.4152364730834961
v -0.1690741777420044 -0.009010439738631248 0.4152364730834961
v -0.1559305191040039 -0.017871549353003502 0.4152364730834961
v -0.03010338917374611 -0.02522324025630951 0.4152364730834961
v -0.1745520830154419 -0.03443950042128563 0.38409098982810974
v -0.17369668185710907 -0.04017525166273117 0.38409098982810974
v -0.1690741777420044 -0.009010439738631248 0.4152364730834961
v -0.1745520830154419 -0.03443950042128563 0.38409098982810974
v -0.1690741777420044 -0.009010439738631248 0.4152364730834961
v -0.1690906286239624 -0.006488849874585867 0.4152364730834961
v -0.1745520830154419 -0.03443950042128563 0.38409098982810974
v -0.1690906286239624 -0.006488849874585867 0.4152364730834961
v -0.1745356321334839 -0.028721509501338005 0.38409098982810974
v -0.1745356321334839 -0.028721509501338005 0.38409098982810974
v -0.1710975617170334 -0.013307809829711914 0.39487114548683167
v -0.17178845405578613 -0.01769397035241127 0.38905730843544006
v -0.1745356321334839 -0.028721509501338005 0.38409098982810974
v -0.17178845405578613 -0.01769397035241127 0.38905730843544006
v -0.17238067090511322 -0.022222189232707024 0.38409098982810974
v -0.1745520830154419 -0.03443950042128563 0.38409098982810974
v -0.011333780363202095 -0.006346790120005608 0.38409098982810974
v -0.010544169694185257 -0.007749639917165041 0.38409098982810974
v -0.1745356321334839 -0.028721509501338005 0.38409098982810974
v -0.17047244310379028 -0.008939409628510475 0.40523064136505127
v -0.17047244310379028 -0.008939409628510475 0.40210267901420593
v -0.1745356321334839 -0.028721509501338005 0.38409098982810974
v -0.17047244310379028 -0.008939409628510475 0.40210267901420593
v -0.1710975617170334 -0.013307809829711914 0.39487114548683167
v -0.1745520830154419 -0.03443950042128563 0.38409098982810974
v -0.008751110173761845 -0.011869439855217934 0.38409098982810974
v -0.00715543981641531 -0.017942579463124275 0.38409098982810974
v -0.1745520830154419 -0.03443950042128563 0.38409098982810974
v -0.00715543981641531 -0.017942579463124275 0.38409098982810974
v -0.0066125900484621525 -0.023660559207201004 0.38409098982810974
v -0.1745520830154419 -0.03443950042128563 0.38409098982810974
v -0.0066125900484621525 -0.023660559207201004 0.38409098982810974
v -0.006497439928352833 -0.029378550127148628 0.38409098982810974
v -0.1745520830154419 -0.03443950042128563 0.38409098982810974
v -0.006497439928352833 -0.029378550127148628 0.38409098982810974
v -0.006530339829623699 -0.04081451892852783 0.38409098982810974
v -0.1745520830154419 -0.03443950042128563 0.38409098982810974
v -0.006530339829623699 -0.04081451892852783 0.38409098982810974
v -0.006579679902642965 -0.046532511711120605 0.38409098982810974
v -0.1690906286239624 -0.006488849874585867 0.4152364730834961
v -0.16779106855392456 -0.0034877900034189224 0.4152364730834961
v -0.16920578479766846 -0.006488849874585867 0.4120292067527771
v -0.1745520830154419 -0.03443950042128563 0.38409098982810974
v -0.00710608996450901 -0.08648738265037537 0.38409098982810974
v -0.1644187867641449 -0.08648738265037537 0.38409098982810974
v -0.1745520830154419 -0.03443950042128563 0.38409098982810974
v -0.1644187867641449 -0.08648738265037537 0.38409098982810974
v -0.17369668185710907 -0.04017525166273117 0.38409098982810974
v -0.1745520830154419 -0.03443950042128563 0.38409098982810974
v -0.020496509969234467 0.004219059832394123 0.38409098982810974
v -0.019904300570487976 0.0036508101038634777 0.38409098982810974
v -0.1745520830154419 -0.03443950042128563 0.38409098982810974
v -0.019904300570487976 0.0036508101038634777 0.38409098982810974
v -0.017058420926332474 0.0009161200141534209 0.38409098982810974
v -0.1745520830154419 -0.03443950042128563 0.38409098982810974
v -0.017058420926332474 0.0009161200141534209 0.38409098982810974
v -0.014887009747326374 -0.001392379985190928 0.38409098982810974
v -0.1745520830154419 -0.03443950042128563 0.38409098982810974
v -0.014887009747326374 -0.001392379985190928 0.38409098982810974
v -0.014459299854934216 -0.0019251100020483136 0.38409098982810974
v -0.1745520830154419 -0.03443950042128563 0.38409098982810974
v -0.014459299854934216 -0.0019251100020483136 0.38409098982810974
v -0.011333780363202095 -0.006346790120005608 0.38409098982810974
v -0.1745520830154419 -0.03443950042128563 0.38409098982810974
v -0.055041808634996414 0.01780370995402336 0.38409098982810974
v -0.0529855415225029 0.01780370995402336 0.38409098982810974
v -0.1745520830154419 -0.03443950042128563 0.38409098982810974
v -0.010544169694185257 -0.007749639917165041 0.38409098982810974
v -0.009376210160553455 -0.010111420415341854 0.38409098982810974
v -0.1745520830154419 -0.03443950042128563 0.38409098982810974
v -0.009376210160553455 -0.010111420415341854 0.38409098982810974
v -0.008751110173761845 -0.011869439855217934 0.38409098982810974
v -0.1690741777420044 -0.009010439738631248 0.4152364730834961
v -0.0758676826953888 0.09421519935131073 0.4152364730834961
v -0.07948672026395798 0.09382452815771103 0.4152364730834961
v -0.1690741777420044 -0.009010439738631248 0.4152364730834961
v -0.07948672026395798 0.09382452815771103 0.4152364730834961
v -0.16662311553955078 -0.0013391099637374282 0.4152364730834961
v -0.1690741777420044 -0.009010439738631248 0.4152364730834961
v -0.16662311553955078 -0.0013391099637374282 0.4152364730834961
v -0.16779106855392456 -0.0034877900034189224 0.4152364730834961
v -0.1690741777420044 -0.009010439738631248 0.4152364730834961
v -0.16779106855392456 -0.0034877900034189224 0.4152364730834961
v -0.1690906286239624 -0.006488849874585867 0.4152364730834961
v -0.1690906286239624 -0.006488849874585867 0.4152364730834961
v -0.16920578479766846 -0.006488849874585867 0.4120292067527771
v -0.17047244310379028 -0.008939409628510475 0.40523064136505127
v -0.1690741777420044 -0.009010439738631248 0.4152364730834961
v -0.016235919669270515 0.050691019743680954 0.4152364730834961
v -0.0263363104313612 0.0770079717040062 0.4152364730834961
v -0.1710975617170334 -0.013307809829711914 0.39487114548683167
v -0.17078499495983124 -0.014337760396301746 0.3909017741680145
v -0.17178845405578613 -0.01769397035241127 0.38905730843544006
v -0.1710975617170334 -0.013307809829711914 0.39487114548683167
v -0.17047244310379028 -0.008939409628510475 0.40210267901420593
v -0.17006118595600128 -0.009649720042943954 0.39829179644584656
v -0.1690741777420044 -0.009010439738631248 0.4152364730834961
v -0.03898647055029869 0.0938422679901123 0.4152364730834961
v -0.04155268892645836 0.09412641078233719 0.4152364730834961
v -0.1690741777420044 -0.009010439738631248 0.4152364730834961
v -0.04155268892645836 0.09412641078233719 0.4152364730834961
v -0.04318125173449516 0.09425070881843567 0.4152364730834961
v -0.1690741777420044 -0.009010439738631248 0.4152364730834961
v -0.04318125173449516 0.09425070881843567 0.4152364730834961
v -0.047260891646146774 0.09453485161066055 0.4152364730834961
v -0.1690741777420044 -0.009010439738631248 0.4152364730834961
v -0.047260891646146774 0.09453485161066055 0.4152364730834961
v -0.05288683995604515 0.09474792331457138 0.4152364730834961
v -0.1690741777420044 -0.009010439738631248 0.4152364730834961
v -0.05288683995604515 0.09474792331457138 0.4152364730834961
v -0.058710191398859024 0.09492550045251846 0.4152364730834961
v -0.1690741777420044 -0.009010439738631248 0.4152364730834961
v -0.015347619540989399 -0.02085484005510807 0.4152364730834961
v -0.012353690341114998 -0.01936318911612034 0.4152364730834961
v -0.1690741777420044 -0.009010439738631248 0.4152364730834961
v -0.06191796064376831 0.09488998353481293 0.4152364730834961
v -0.06803742051124573 0.09473016113042831 0.4152364730834961
v -0.1690741777420044 -0.009010439738631248 0.4152364730834961
v -0.06803742051124573 0.09473016113042831 0.4152364730834961
v -0.0758676826953888 0.09421519935131073 0.4152364730834961
v -0.1690741777420044 -0.009010439738631248 0.4152364730834961
v -0.008849809877574444 -0.016859350726008415 0.4152364730834961
v -0.007073199842125177 -0.012206840328872204 0.4152364730834961
v -0.1690741777420044 -0.009010439738631248 0.4152364730834961
v -0.007073199842125177 -0.012206840328872204 0.4152364730834961
v -0.006563229952007532 -0.006488849874585867 0.4152364730834961
v -0.1690741777420044 -0.009010439738631248 0.4152364730834961
v -0.006563229952007532 -0.006488849874585867 0.4152364730834961
v -0.006859339773654938 -0.0007708600023761392 0.4152364730834961
v -0.1690741777420044 -0.009010439738631248 0.4152364730834961
v -0.006859339773654938 -0.0007708600023761392 0.4152364730834961
v -0.0076489499770104885 0.004929369781166315 0.4152364730834961
v -0.1690741777420044 -0.009010439738631248 0.4152364730834961
v -0.0076489499770104885 0.004929369781166315 0.4152364730834961
v -0.016235919669270515 0.050691019743680954 0.4152364730834961
v -0.17078499495983124 -0.014337760396301746 0.3909017741680145
v -0.17006118595600128 -0.009649720042943954 0.39829179644584656
v -0.16923868656158447 -0.01044881995767355 0.39487114548683167
v -0.1690741777420044 -0.009010439738631248 0.4152364730834961
v -0.0263363104313612 0.0770079717040062 0.4152364730834961
v -0.038163959980010986 0.09373573958873749 0.4152364730834961
v -0.1690741777420044 -0.009010439738631248 0.4152364730834961
v -0.038163959980010986 0.09373573958873749 0.4152364730834961
v -0.03898647055029869 0.0938422679901123 0.4152364730834961
v -0.1690741777420044 -0.009010439738631248 0.4152364730834961
v -0.03010338917374611 -0.02522324025630951 0.4152364730834961
v -0.028195179998874664 -0.024956880137324333 0.4152364730834961
v -0.1690741777420044 -0.009010439738631248 0.4152364730834961
v -0.028195179998874664 -0.024956880137324333 0.4152364730834961
v -0.024378739297389984 -0.024406390264630318 0.4152364730834961
v -0.1690741777420044 -0.009010439738631248 0.4152364730834961
v -0.024378739297389984 -0.024406390264630318 0.4152364730834961
v -0.020595209673047066 -0.023039039224386215 0.4152364730834961
v -0.1690741777420044 -0.009010439738631248 0.4152364730834961
v -0.020595209673047066 -0.023039039224386215 0.4152364730834961
v -0.018670540302991867 -0.022328730672597885 0.4152364730834961
v -0.1690741777420044 -0.009010439738631248 0.4152364730834961
v -0.018670540302991867 -0.022328730672597885 0.4152364730834961
v -0.015347619540989399 -0.02085484005510807 0.4152364730834961
v -0.1745356321334839 -0.028721509501338005 0.38409098982810974
v -0.1690906286239624 -0.006488849874585867 0.4152364730834961
v -0.17047244310379028 -0.008939409628510475 0.40523064136505127
v -0.1690741777420044 -0.009010439738631248 0.4152364730834961
v -0.012353690341114998 -0.01936318911612034 0.4152364730834961
v -0.010758019983768463 -0.01851082034409046 0.4152364730834961
v -0.1690741777420044 -0.009010439738631248 0.4152364730834961
v -0.010758019983768463 -0.01851082034409046 0.4152364730834961
v -0.008849809877574444 -0.016859350726008415 0.4152364730834961
v -0.1644187867641449 -0.08648738265037537 0.38409098982810974
v -0.16155646741390228 -0.08648738265037537 0.38494765758514404
v -0.16163872182369232 -0.08648738265037537 0.384938508272171
v -0.1644187867641449 -0.08648738265037537 0.38409098982810974
v -0.16163872182369232 -0.08648738265037537 0.384938508272171
v -0.16560320556163788 -0.01588268019258976 0.4152364730834961
v -0.1644187867641449 -0.08648738265037537 0.38409098982810974
v -0.16560320556163788 -0.01588268019258976 0.4152364730834961
v -0.16670535504817963 -0.014568610116839409 0.4152364730834961
v -0.1644187867641449 -0.08648738265037537 0.38409098982810974
v -0.16670535504817963 -0.014568610116839409 0.4152364730834961
v -0.16792267560958862 -0.012437679804861546 0.4152364730834961
v -0.17078499495983124 -0.014337760396301746 0.3909017741680145
v -0.1696992963552475 -0.015616320073604584 0.3870878517627716
v -0.1712949573993683 -0.019434230402112007 0.38463059067726135
v -0.1644187867641449 -0.08648738265037537 0.38409098982810974
v -0.010297420434653759 -0.08648738265037537 0.39167919754981995
v -0.010330320335924625 -0.08648738265037537 0.39172491431236267
v -0.17078499495983124 -0.014337760396301746 0.3909017741680145
v -0.16923868656158447 -0.01044881995767355 0.39487114548683167
v -0.1652577668428421 -0.0086020203307271 0.3909017741680145
v -0.17078499495983124 -0.014337760396301746 0.3909017741680145
v -0.1652577668428421 -0.0086020203307271 0.3909017741680145
v -0.1696992963552475 -0.015616320073604584 0.3870878517627716
v -0.1644187867641449 -0.08648738265037537 0.38409098982810974
v -0.01319263968616724 -0.08648738265037537 0.39405107498168945
v -0.017897389829158783 -0.08648738265037537 0.39686501026153564
v -0.1644187867641449 -0.08648738265037537 0.38409098982810974
v -0.017897389829158783 -0.08648738265037537 0.39686501026153564
v -0.017979640513658524 -0.08648738265037537 0.39691072702407837
v -0.1644187867641449 -0.08648738265037537 0.38409098982810974
v -0.017979640513658524 -0.08648738265037537 0.39691072702407837
v -0.020792609080672264 -0.08648738265037537 0.39794424176216125
v -0.1644187867641449 -0.08648738265037537 0.38409098982810974
v -0.020792609080672264 -0.08648738265037537 0.39794424176216125
v -0.02084195986390114 -0.08648738265037537 0.39795950055122375
v -0.1644187867641449 -0.08648738265037537 0.38409098982810974
v -0.02084195986390114 -0.08648738265037537 0.39795950055122375
v -0.02432939037680626 -0.08648738265037537 0.398288756608963
v -0.17047244310379028 -0.008939409628510475 0.40523064136505127
v -0.16779106855392456 -0.0034877900034189224 0.4152364730834961
v -0.17047244310379028 -0.008939409628510475 0.40210267901420593
v -0.1644187867641449 -0.08648738265037537 0.38409098982810974
v -0.024378739297389984 -0.08648738265037537 0.39829179644584656
v -0.030054040253162384 -0.08648738265037537 0.39800217747688293
v -0.1644187867641449 -0.08648738265037537 0.38409098982810974
v -0.030054040253162384 -0.08648738265037537 0.39800217747688293
v -0.16155646741390228 -0.08648738265037537 0.38494765758514404
v -0.17047244310379028 -0.008939409628510475 0.40210267901420593
v -0.16655732691287994 -0.0015877099940553308 0.4120292067527771
v -0.1658664047718048 -0.0023690499365329742 0.4063098728656769
v -0.17047244310379028 -0.008939409628510475 0.40210267901420593
v -0.1658664047718048 -0.0023690499365329742 0.4063098728656769
v -0.17006118595600128 -0.009649720042943954 0.39829179644584656
v -0.1644187867641449 -0.08648738265037537 0.38409098982810974
v -0.00710608996450901 -0.08648738265037537 0.38409098982810974
v -0.008652400225400925 -0.08648738265037537 0.388779878616333
v -0.1644187867641449 -0.08648738265037537 0.38409098982810974
v -0.008652400225400925 -0.08648738265037537 0.388779878616333
v -0.008685310371220112 -0.08648738265037537 0.38886523246765137
v -0.1644187867641449 -0.08648738265037537 0.38409098982810974
v -0.008685310371220112 -0.08648738265037537 0.38886523246765137
v -0.010297420434653759 -0.08648738265037537 0.39167919754981995
v -0.006563229952007532 -0.006488849874585867 0.4152364730834961
v -0.0066125900484621525 -0.023660559207201004 0.38409098982810974
v -0.006629039999097586 -0.006488849874585867 0.4120292067527771
v -0.1644187867641449 -0.08648738265037537 0.38409098982810974
v -0.010330320335924625 -0.08648738265037537 0.39172491431236267
v -0.01314328983426094 -0.08648738265037537 0.3940114378929138
v -0.1644187867641449 -0.08648738265037537 0.38409098982810974
v -0.01314328983426094 -0.08648738265037537 0.3940114378929138
v -0.01319263968616724 -0.08648738265037537 0.39405107498168945
v -0.1710975617170334 -0.013307809829711914 0.39487114548683167
v -0.17006118595600128 -0.009649720042943954 0.39829179644584656
v -0.17078499495983124 -0.014337760396301746 0.3909017741680145
v -0.17178845405578613 -0.01769397035241127 0.38905730843544006
v -0.17078499495983124 -0.014337760396301746 0.3909017741680145
v -0.1712949573993683 -0.019434230402112007 0.38463059067726135
v -0.17178845405578613 -0.01769397035241127 0.38905730843544006
v -0.1712949573993683 -0.019434230402112007 0.38463059067726135
v -0.17238067090511322 -0.022222189232707024 0.38409098982810974
v -0.17238067090511322 -0.022222189232707024 0.38409098982810974
v -0.1712949573993683 -0.019434230402112007 0.38463059067726135
v -0.17168976366519928 -0.020677270367741585 0.38409098982810974
v -0.17047244310379028 -0.008939409628510475 0.40523064136505127
v -0.16920578479766846 -0.006488849874585867 0.4120292067527771
v -0.16779106855392456 -0.0034877900034189224 0.4152364730834961
v -0.1690741777420044 -0.009010439738631248 0.4152364730834961
v -0.058710191398859024 0.09492550045251846 0.4152364730834961
v -0.06191796064376831 0.09488998353481293 0.4152364730834961
v -0.17047244310379028 -0.008939409628510475 0.40210267901420593
v -0.16779106855392456 -0.0034877900034189224 0.4152364730834961
v -0.16662311553955078 -0.0013391099637374282 0.4152364730834961
v -0.17047244310379028 -0.008939409628510475 0.40210267901420593
v -0.16662311553955078 -0.0013391099637374282 0.4152364730834961
v -0.16655732691287994 -0.0015877099940553308 0.4120292067527771
v -0.006579679902642965 -0.046532511711120605 0.38409098982810974
v -0.006530339829623699 -0.04081451892852783 0.38409098982810974
v -0.006513889878988266 -0.03509654104709625 0.38915181159973145
v -0.006579679902642965 -0.046532511711120605 0.38409098982810974
v -0.006513889878988266 -0.03509654104709625 0.38915181159973145
v -0.006563229952007532 -0.006488849874585867 0.4152364730834961
v -0.006563229952007532 -0.006488849874585867 0.4152364730834961
v -0.006497439928352833 -0.023660559207201004 0.39487114548683167
v -0.006497439928352833 -0.029378550127148628 0.38409098982810974
v -0.006563229952007532 -0.006488849874585867 0.4152364730834961
v -0.006497439928352833 -0.029378550127148628 0.38409098982810974
v -0.006530339829623699 -0.023660559207201004 0.38915181159973145
v -0.006563229952007532 -0.006488849874585867 0.4152364730834961
v -0.006530339829623699 -0.023660559207201004 0.38915181159973145
v -0.0066125900484621525 -0.023660559207201004 0.38409098982810974
v -0.1696992963552475 -0.015616320073604584 0.3870878517627716
v -0.1684819757938385 -0.016859350726008415 0.38409098982810974
v -0.1711140125989914 -0.019647320732474327 0.38409098982810974
v -0.006563229952007532 -0.006488849874585867 0.4152364730834961
v -0.006629039999097586 -0.006488849874585867 0.4120292067527771
v -0.006859339773654938 -0.0007708600023761392 0.4152364730834961
v -0.006563229952007532 -0.006488849874585867 0.4152364730834961
v -0.006513889878988266 -0.03509654104709625 0.38915181159973145
v -0.006497439928352833 -0.023660559207201004 0.39487114548683167
v -0.1696992963552475 -0.015616320073604584 0.3870878517627716
v -0.0791083574295044 0.09377125650644302 0.4146389067173004
v -0.163843035697937 -0.009898330084979534 0.3870878517627716
v -0.1696992963552475 -0.015616320073604584 0.3870878517627716
v -0.163843035697937 -0.009898330084979534 0.3870878517627716
v -0.16588285565376282 -0.01369848009198904 0.38472509384155273
v -0.16923868656158447 -0.01044881995767355 0.39487114548683167
v -0.07948672026395798 0.09382452815771103 0.4152364730834961
v -0.1652577668428421 -0.0086020203307271 0.3909017741680145
v -0.07948672026395798 0.09382452815771103 0.4152364730834961
v -0.0758676826953888 0.09421519935131073 0.4152364730834961
v -0.0791083574295044 0.09377125650644302 0.4146389067173004
v -0.007073199842125177 -0.012206840328872204 0.4152364730834961
v -0.008849809877574444 -0.016859350726008415 0.4152364730834961
v -0.010330320335924625 -0.08648738265037537 0.39172491431236267
v -0.16655732691287994 -0.0015877099940553308 0.4120292067527771
v -0.07948672026395798 0.09382452815771103 0.4152364730834961
v -0.1658664047718048 -0.0023690499365329742 0.4063098728656769
v -0.007073199842125177 -0.012206840328872204 0.4152364730834961
v -0.010297420434653759 -0.08648738265037537 0.39167919754981995
v -0.008685310371220112 -0.08648738265037537 0.38886523246765137
v -0.007073199842125177 -0.012206840328872204 0.4152364730834961
v -0.008685310371220112 -0.08648738265037537 0.38886523246765137
v -0.008652400225400925 -0.08648738265037537 0.388779878616333
v -0.00710608996450901 -0.08648738265037537 0.38409098982810974
v -0.006563229952007532 -0.006488849874585867 0.4152364730834961
v -0.007073199842125177 -0.012206840328872204 0.4152364730834961
v -0.16163872182369232 -0.08648738265037537 0.384938508272171
v -0.16155646741390228 -0.08648738265037537 0.38494765758514404
v -0.1618196666240692 -0.01730329915881157 0.4152364730834961
v -0.16163872182369232 -0.08648738265037537 0.384938508272171
v -0.1618196666240692 -0.01730329915881157 0.4152364730834961
v -0.16560320556163788 -0.01588268019258976 0.4152364730834961
v -0.1696992963552475 -0.015616320073604584 0.3870878517627716
v -0.16588285565376282 -0.01369848009198904 0.38472509384155273
v -0.16655732691287994 -0.014906009659171104 0.38409098982810974
v -0.1696992963552475 -0.015616320073604584 0.3870878517627716
v -0.16655732691287994 -0.014906009659171104 0.38409098982810974
v -0.1684819757938385 -0.016859350726008415 0.38409098982810974
v -0.0066125900484621525 -0.023660559207201004 0.38409098982810974
v -0.006859339773654938 -0.0007708600023761392 0.4152364730834961
v -0.006629039999097586 -0.006488849874585867 0.4120292067527771
v -0.1696992963552475 -0.015616320073604584 0.3870878517627716
v -0.1652577668428421 -0.0086020203307271 0.3909017741680145
v -0.07948672026395798 0.09382452815771103 0.4152364730834961
v -0.1696992963552475 -0.015616320073604584 0.3870878517627716
v -0.07948672026395798 0.09382452815771103 0.4152364730834961
v -0.0791083574295044 0.09377125650644302 0.4146389067173004
v -0.17006118595600128 -0.009649720042943954 0.39829179644584656
v -0.1658664047718048 -0.0023690499365329742 0.4063098728656769
v -0.07948672026395798 0.09382452815771103 0.4152364730834961
v -0.17006118595600128 -0.009649720042943954 0.39829179644584656
v -0.07948672026395798 0.09382452815771103 0.4152364730834961
v -0.16923868656158447 -0.01044881995767355 0.39487114548683167
v -0.1712949573993683 -0.019434230402112007 0.38463059067726135
v -0.1711140125989914 -0.019647320732474327 0.38409098982810974
v -0.17168976366519928 -0.020677270367741585 0.38409098982810974
v -0.1712949573993683 -0.019434230402112007 0.38463059067726135
v -0.1696992963552475 -0.015616320073604584 0.3870878517627716
v -0.1711140125989914 -0.019647320732474327 0.38409098982810974
v -0.16662311553955078 -0.0013391099637374282 0.4152364730834961
v -0.07948672026395798 0.09382452815771103 0.4152364730834961
v -0.16655732691287994 -0.0015877099940553308 0.4120292067527771
v -0.1644187867641449 -0.08648738265037537 0.38409098982810974
v -0.02432939037680626 -0.08648738265037537 0.398288756608963
v -0.024378739297389984 -0.08648738265037537 0.39829179644584656
v -0.00710608996450901 -0.08648738265037537 0.38409098982810974
v -0.007073199842125177 -0.012206840328872204 0.4152364730834961
v -0.008652400225400925 -0.08648738265037537 0.388779878616333
v -0.00710608996450901 -0.08648738265037537 0.38409098982810974
v -0.006579679902642965 -0.046532511711120605 0.38409098982810974
v -0.006563229952007532 -0.006488849874585867 0.4152364730834961
v -0.006513889878988266 -0.03509654104709625 0.38915181159973145
v -0.006497439928352833 -0.029378550127148628 0.38915181159973145
v -0.006497439928352833 -0.023660559207201004 0.39487114548683167
v -0.006497439928352833 -0.023660559207201004 0.39487114548683167
v -0.006497439928352833 -0.029378550127148628 0.38915181159973145
v -0.006497439928352833 -0.029378550127148628 0.38409098982810974
v -0.006497439928352833 -0.029378550127148628 0.38409098982810974
v -0.0066125900484621525 -0.023660559207201004 0.38409098982810974
v -0.006530339829623699 -0.023660559207201004 0.38915181159973145
v -0.0066125900484621525 -0.023660559207201004 0.38409098982810974
v -0.00715543981641531 -0.017942579463124275 0.38409098982810974
v -0.006826439872384071 -0.017942579463124275 0.38915181159973145
v -0.0066125900484621525 -0.023660559207201004 0.38409098982810974
v -0.006826439872384071 -0.017942579463124275 0.38915181159973145
v -0.006859339773654938 -0.0007708600023761392 0.4152364730834961
v -0.0758676826953888 0.09421519935131073 0.4152364730834961
v -0.06803742051124573 0.09473016113042831 0.4152364730834961
v -0.0633162185549736 0.09378901869058609 0.4089469909667969
v -0.006859339773654938 -0.0007708600023761392 0.4152364730834961
v -0.00710608996450901 -0.0007708600023761392 0.4120292067527771
v -0.0076489499770104885 0.004929369781166315 0.4152364730834961
v -0.006859339773654938 -0.0007708600023761392 0.4152364730834961
v -0.006826439872384071 -0.017942579463124275 0.38915181159973145
v -0.00715543981641531 -0.017942579463124275 0.38409098982810974
v -0.008849809877574444 -0.016859350726008415 0.4152364730834961
v -0.02084195986390114 -0.08648738265037537 0.39795950055122375
v -0.020792609080672264 -0.08648738265037537 0.39794424176216125
v -0.008849809877574444 -0.016859350726008415 0.4152364730834961
v -0.020792609080672264 -0.08648738265037537 0.39794424176216125
v -0.017979640513658524 -0.08648738265037537 0.39691072702407837
v -0.008849809877574444 -0.016859350726008415 0.4152364730834961
v -0.017979640513658524 -0.08648738265037537 0.39691072702407837
v -0.017897389829158783 -0.08648738265037537 0.39686501026153564
v -0.008849809877574444 -0.016859350726008415 0.4152364730834961
v -0.017897389829158783 -0.08648738265037537 0.39686501026153564
v -0.01319263968616724 -0.08648738265037537 0.39405107498168945
v -0.008849809877574444 -0.016859350726008415 0.4152364730834961
v -0.01319263968616724 -0.08648738265037537 0.39405107498168945
v -0.01314328983426094 -0.08648738265037537 0.3940114378929138
v -0.16588285565376282 -0.01369848009198904 0.38472509384155273
v -0.0791083574295044 0.09377125650644302 0.4146389067173004
v -0.16558675467967987 -0.01398260984569788 0.38409098982810974
v -0.006530339829623699 -0.04081451892852783 0.38409098982810974
v -0.006497439928352833 -0.029378550127148628 0.38409098982810974
v -0.006497439928352833 -0.029378550127148628 0.38915181159973145
v -0.006530339829623699 -0.04081451892852783 0.38409098982810974
v -0.006497439928352833 -0.029378550127148628 0.38915181159973145
v -0.006513889878988266 -0.03509654104709625 0.38915181159973145
v -0.0791083574295044 0.09377125650644302 0.4146389067173004
v -0.06713265925645828 0.09348714351654053 0.40925490856170654
v -0.15523962676525116 -0.0058850799687206745 0.38409098982810974
v -0.0791083574295044 0.09377125650644302 0.4146389067173004
v -0.15523962676525116 -0.0058850799687206745 0.38409098982810974
v -0.1593850553035736 -0.008815109729766846 0.38409098982810974
v -0.0791083574295044 0.09377125650644302 0.4146389067173004
v -0.1593850553035736 -0.008815109729766846 0.38409098982810974
v -0.16104651987552643 -0.010093670338392258 0.38409098982810974
v -0.0791083574295044 0.09377125650644302 0.4146389067173004
v -0.16104651987552643 -0.010093670338392258 0.38409098982810974
v -0.16254347562789917 -0.011354460380971432 0.38409098982810974
v -0.0791083574295044 0.09377125650644302 0.4146389067173004
v -0.16254347562789917 -0.011354460380971432 0.38409098982810974
v -0.16558675467967987 -0.01398260984569788 0.38409098982810974
v -0.06441839039325714 0.07787808775901794 0.4020721912384033
v -0.058710191398859024 0.07356295734643936 0.4003283381462097
v -0.06441839039325714 0.07356295734643936 0.4006362557411194
v -0.0758676826953888 0.09421519935131073 0.4152364730834961
v -0.0633162185549736 0.09378901869058609 0.4089469909667969
v -0.0758676826953888 0.09398432821035385 0.4141084551811218
v -0.008849809877574444 -0.016859350726008415 0.4152364730834961
v -0.010758019983768463 -0.01851082034409046 0.4152364730834961
v -0.02084195986390114 -0.08648738265037537 0.39795950055122375
v -0.16155646741390228 -0.08648738265037537 0.38494765758514404
v -0.030054040253162384 -0.08648738265037537 0.39800217747688293
v -0.1618196666240692 -0.01730329915881157 0.4152364730834961
v -0.1618196666240692 -0.01730329915881157 0.4152364730834961
v -0.030054040253162384 -0.08648738265037537 0.39800217747688293
v -0.024378739297389984 -0.08648738265037537 0.39829179644584656
v -0.1618196666240692 -0.01730329915881157 0.4152364730834961
v -0.024378739297389984 -0.08648738265037537 0.39829179644584656
v -0.1583815962076187 -0.017640700563788414 0.4152364730834961
v -0.16588285565376282 -0.01369848009198904 0.38472509384155273
v -0.16558675467967987 -0.01398260984569788 0.38409098982810974
v -0.16655732691287994 -0.014906009659171104 0.38409098982810974
v -0.16588285565376282 -0.01369848009198904 0.38472509384155273
v -0.163843035697937 -0.009898330084979534 0.3870878517627716
v -0.0791083574295044 0.09377125650644302 0.4146389067173004
v -0.007073199842125177 -0.012206840328872204 0.4152364730834961
v -0.010330320335924625 -0.08648738265037537 0.39172491431236267
v -0.010297420434653759 -0.08648738265037537 0.39167919754981995
v -0.0791083574295044 0.09377125650644302 0.4146389067173004
v -0.0758676826953888 0.09421519935131073 0.4152364730834961
v -0.0758676826953888 0.09398432821035385 0.4141084551811218
v -0.0791083574295044 0.09377125650644302 0.4146389067173004
v -0.0758676826953888 0.09398432821035385 0.4141084551811218
v -0.06713265925645828 0.09348714351654053 0.40925490856170654
v -0.02084195986390114 -0.08648738265037537 0.39795950055122375
v -0.024378739297389984 -0.024406390264630318 0.4152364730834961
v -0.02432939037680626 -0.08648738265037537 0.398288756608963
v -0.00715543981641531 -0.017942579463124275 0.38409098982810974
v -0.008751110173761845 -0.011869439855217934 0.38409098982810974
v -0.016235919669270515 0.050691019743680954 0.4152364730834961
v -0.00715543981641531 -0.017942579463124275 0.38409098982810974
v -0.016235919669270515 0.050691019743680954 0.4152364730834961
v -0.0076489499770104885 0.004929369781166315 0.4152364730834961
v -0.00715543981641531 -0.017942579463124275 0.38409098982810974
v -0.0076489499770104885 0.004929369781166315 0.4152364730834961
v -0.00710608996450901 -0.0007708600023761392 0.4120292067527771
v -0.06441839039325714 0.07787808775901794 0.4020721912384033
v -0.058710191398859024 0.07798463106155396 0.4019228219985962
v -0.058710191398859024 0.07356295734643936 0.4003283381462097
v -0.06713265925645828 0.09348714351654053 0.40925490856170654
v -0.15216344594955444 -0.0039495001547038555 0.38409098982810974
v -0.15523962676525116 -0.0058850799687206745 0.38409098982810974
v -0.06441839039325714 0.07787808775901794 0.4020721912384033
v -0.06441839039325714 0.07356295734643936 0.4006362557411194
v -0.12159907072782516 0.008782800287008286 0.38409098982810974
v -0.06441839039325714 0.07787808775901794 0.4020721912384033
v -0.12159907072782516 0.008782800287008286 0.38409098982810974
v -0.127323716878891 0.007131319958716631 0.38409098982810974
v -0.0633162185549736 0.09378901869058609 0.4089469909667969
v -0.058710191398859024 0.09449931979179382 0.4120292067527771
v -0.058710191398859024 0.09386003017425537 0.40886467695236206
v -0.0633162185549736 0.09378901869058609 0.4089469909667969
v -0.058710191398859024 0.09386003017425537 0.40886467695236206
v -0.058710191398859024 0.07798463106155396 0.4019228219985962
v -0.0633162185549736 0.09378901869058609 0.4089469909667969
v -0.058710191398859024 0.07798463106155396 0.4019228219985962
v -0.06441839039325714 0.07787808775901794 0.4020721912384033
v -0.010758019983768463 -0.01851082034409046 0.4152364730834961
v -0.012353690341114998 -0.01936318911612034 0.4152364730834961
v -0.02084195986390114 -0.08648738265037537 0.39795950055122375
v -0.02084195986390114 -0.08648738265037537 0.39795950055122375
v -0.012353690341114998 -0.01936318911612034 0.4152364730834961
v -0.015347619540989399 -0.02085484005510807 0.4152364730834961
v -0.024378739297389984 -0.08648738265037537 0.39829179644584656
v -0.03010338917374611 -0.02522324025630951 0.4152364730834961
v -0.1559305191040039 -0.017871549353003502 0.4152364730834961
v -0.02084195986390114 -0.08648738265037537 0.39795950055122375
v -0.018670540302991867 -0.022328730672597885 0.4152364730834961
v -0.020595209673047066 -0.023039039224386215 0.4152364730834961
v -0.02084195986390114 -0.08648738265037537 0.39795950055122375
v -0.020595209673047066 -0.023039039224386215 0.4152364730834961
v -0.024378739297389984 -0.024406390264630318 0.4152364730834961
v -0.06713265925645828 0.09348714351654053 0.40925490856170654
v -0.06441839039325714 0.07787808775901794 0.4020721912384033
v -0.07014302909374237 0.07743415236473083 0.4025813341140747
v -0.06713265925645828 0.09348714351654053 0.40925490856170654
v -0.07014302909374237 0.07743415236473083 0.4025813341140747
v -0.07389367371797562 0.07686591148376465 0.4031056761741638
v -0.06713265925645828 0.09348714351654053 0.40925490856170654
v -0.07389367371797562 0.07686591148376465 0.4031056761741638
v -0.14528727531433105 -4.279000131646171e-05 0.38409098982810974
v -0.06713265925645828 0.09348714351654053 0.40925490856170654
v -0.14528727531433105 -4.279000131646171e-05 0.38409098982810974
v -0.15020586550235748 -0.0027419698890298605 0.38409098982810974
v -0.06713265925645828 0.09348714351654053 0.40925490856170654
v -0.15020586550235748 -0.0027419698890298605 0.38409098982810974
v -0.15216344594955444 -0.0039495001547038555 0.38409098982810974
v -0.05446605011820793 0.09375350177288055 0.40898358821868896
v -0.05064960941672325 0.09327402710914612 0.4094591736793518
v -0.047260891646146774 0.07732760906219482 0.40267887711524963
v -0.06803742051124573 0.09473016113042831 0.4152364730834961
v -0.06191796064376831 0.09488998353481293 0.4152364730834961
v -0.058710191398859024 0.09449931979179382 0.4120292067527771
v -0.06803742051124573 0.09473016113042831 0.4152364730834961
v -0.058710191398859024 0.09449931979179382 0.4120292067527771
v -0.0633162185549736 0.09378901869058609 0.4089469909667969
v -0.006859339773654938 -0.0007708600023761392 0.4152364730834961
v -0.00715543981641531 -0.017942579463124275 0.38409098982810974
v -0.00710608996450901 -0.0007708600023761392 0.4120292067527771
v -0.1583815962076187 -0.017640700563788414 0.4152364730834961
v -0.024378739297389984 -0.08648738265037537 0.39829179644584656
v -0.1559305191040039 -0.017871549353003502 0.4152364730834961
v -0.024378739297389984 -0.08648738265037537 0.39829179644584656
v -0.02432939037680626 -0.08648738265037537 0.398288756608963
v -0.024378739297389984 -0.024406390264630318 0.4152364730834961
v -0.024378739297389984 -0.08648738265037537 0.39829179644584656
v -0.024378739297389984 -0.024406390264630318 0.4152364730834961
v -0.028195179998874664 -0.024956880137324333 0.4152364730834961
v -0.024378739297389984 -0.08648738265037537 0.39829179644584656
v -0.028195179998874664 -0.024956880137324333 0.4152364730834961
v -0.03010338917374611 -0.02522324025630951 0.4152364730834961
v -0.008849809877574444 -0.016859350726008415 0.4152364730834961
v -0.01314328983426094 -0.08648738265037537 0.3940114378929138
v -0.010330320335924625 -0.08648738265037537 0.39172491431236267
v -0.0758676826953888 0.09398432821035385 0.4141084551811218
v -0.0633162185549736 0.09378901869058609 0.4089469909667969
v -0.06713265925645828 0.09348714351654053 0.40925490856170654
v -0.06713265925645828 0.09348714351654053 0.40925490856170654
v -0.0633162185549736 0.09378901869058609 0.4089469909667969
v -0.06441839039325714 0.07787808775901794 0.4020721912384033
v -0.03847651183605194 0.09370020776987076 0.4147486686706543
v -0.03270250931382179 0.0766705572605133 0.4089652895927429
v -0.043757010251283646 0.07677710801362991 0.40318799018859863
v -0.03847651183605194 0.09370020776987076 0.4147486686706543
v -0.043757010251283646 0.07677710801362991 0.40318799018859863
v -0.05064960941672325 0.09327402710914612 0.4094591736793518
v -0.05064960941672325 0.09327402710914612 0.4094591736793518
v -0.043757010251283646 0.07677710801362991 0.40318799018859863
v -0.047260891646146774 0.07732760906219482 0.40267887711524963
v -0.047260891646146774 0.07732760906219482 0.40267887711524963
v -0.043757010251283646 0.07677710801362991 0.40318799018859863
v -0.029971789568662643 0.010878199711441994 0.38409098982810974
v -0.047260891646146774 0.07732760906219482 0.40267887711524963
v -0.029971789568662643 0.010878199711441994 0.38409098982810974
v -0.030728500336408615 0.01130438968539238 0.38409098982810974
v -0.058710191398859024 0.050691019743680954 0.3931029438972473
v -0.09873338043689728 0.013630650006234646 0.38409098982810974
v -0.1044415831565857 0.012707250192761421 0.38409098982810974
v -0.010544169694185257 -0.007749639917165041 0.38409098982810974
v -0.011333780363202095 -0.006346790120005608 0.38409098982810974
v -0.02678046002984047 0.07688367366790771 0.41440722346305847
v -0.02678046002984047 0.07688367366790771 0.41440722346305847
v -0.011333780363202095 -0.006346790120005608 0.38409098982810974
v -0.03270250931382179 0.0766705572605133 0.4089652895927429
v -0.009376210160553455 -0.010111420415341854 0.38409098982810974
v -0.02678046002984047 0.07688367366790771 0.41440722346305847
v -0.0263363104313612 0.0770079717040062 0.4152364730834961
v -0.0263363104313612 0.0770079717040062 0.4152364730834961
v -0.02678046002984047 0.07688367366790771 0.41440722346305847
v -0.038163959980010986 0.09373573958873749 0.4152364730834961
v -0.0529855415225029 0.07356295734643936 0.40072768926620483
v -0.047260891646146774 0.07732760906219482 0.40267887711524963
v -0.0529855415225029 0.050691019743680954 0.3934778869152069
v -0.0529855415225029 0.050691019743680954 0.3934778869152069
v -0.04198038950562477 0.016027940437197685 0.38409098982810974
v -0.04293449968099594 0.016294309869408607 0.38409098982810974
v -0.058710191398859024 0.07356295734643936 0.4003283381462097
v -0.06441839039325714 0.050691019743680954 0.393398642539978
v -0.06441839039325714 0.07356295734643936 0.4006362557411194
v -0.0529855415225029 0.050691019743680954 0.3934778869152069
v -0.047260891646146774 0.07732760906219482 0.40267887711524963
v -0.035828039050102234 0.013754960149526596 0.38409098982810974
v -0.0529855415225029 0.050691019743680954 0.3934778869152069
v -0.035828039050102234 0.013754960149526596 0.38409098982810974
v -0.04198038950562477 0.016027940437197685 0.38409098982810974
v -0.03270250931382179 0.0766705572605133 0.4089652895927429
v -0.014459299854934216 -0.0019251100020483136 0.38409098982810974
v -0.014887009747326374 -0.001392379985190928 0.38409098982810974
v -0.03270250931382179 0.0766705572605133 0.4089652895927429
v -0.011333780363202095 -0.006346790120005608 0.38409098982810974
v -0.014459299854934216 -0.0019251100020483136 0.38409098982810974
usemtl DefaultMaterial
f 1 2 3
f 4 5 6
f 7 8 9
f 10 11 12
f 13 14 15
f 16 17 18
f 19 20 21
f 22 23 24
f 25 26 27
f 28 29 30
f 31 32 33
f 34 35 36
f 37 38 39
f 40 41 42
f 43 44 45
f 46 47 48
f 49 50 51
f 52 53 54
f 55 56 57
f 58 59 60
f 61 62 63
f 64 65 66
f 67 68 69
f 70 71 72
f 73 74 75
f 76 77 78
f 79 80 81
f 82 83 84
f 85 86 87
f 88 89 90
f 91 92 93
f 94 95 96
f 97 98 99
f 100 101 102
f 103 104 105
f 106 107 108
f 109 110 111
f 112 113 114
f 115 116 117
f 118 119 120
f 121 122 123
f 124 125 126
f 127 128 129
f 130 131 132
f 133 134 135
f 136 137 138
f 139 140 141
f 142 143 144
f 145 146 147
f 148 149 150
f 151 152 153
f 154 155 156
f 157 158 159
f 160 161 162
f 163 164 165
f 166 167 168
f 169 170 171
f 172 173 174
f 175 176 177
f 178 179 180
f 181 182 183
f 184 185 186
f 187 188 189
f 190 191 192
f 193 194 195
f 196 197 198
f 199 200 201
f 202 203 204
f 205 206 207
f 208 209 210
f 211 212 213
f 214 215 216
f 217 218 219
f 220 221 222
f 223 224 225
f 226 227 228
f 229 230 231
f 232 233 234
f 235 236 237
f 238 239 240
f 241 242 243
f 244 245 246
f 247 248 249
f 250 251 252
f 253 254 255
f 256 257 258
f 259 260 261
f 262 263 264
f 265 266 267
f 268 269 270
f 271 272 273
f 274 275 276
f 277 278 279
f 280 281 282
f 283 284 285
f 286 287 288
f 289 290 291
f 292 293 294
f 295 296 297
f 298 299 300
f 301 302 303
f 304 305 306
f 307 308 309
f 310 311 312
f 313 314 315
f 316 317 318
f 319 320 321
f 322 323 324
f 325 326 327
f 328 329 330
f 331 332 333
f 334 335 336
f 337 338 339
f 340 341 342
f 343 344 345
f 346 347 348
f 349 350 351
f 352 353 354
f 355 356 357
f 358 359 360
f 361 362 363
f 364 365 366
f 367 368 369
f 370 371 372
f 373 374 375
f 376 377 378
f 379 380 381
f 382 383 384
f 385 386 387
f 388 389 390
f 391 392 393
f 394 395 396
f 397 398 399
f 400 401 402
f 403 404 405
f 406 407 408
f 409 410 411
f 412 413 414
f 415 416 417
f 418 419 420
f 421 422 423
f 424 425 426
f 427 428 429
f 430 431 432
f 433 434 435
f 436 437 438
f 439 440 441
f 442 443 444
f 445 446 447
f 448 449 450
f 451 452 453
f 454 455 456
f 457 458 459
f 460 461 462
f 463 464 465
f 466 467 468
f 469 470 471
f 472 473 474
f 475 476 477
f 478 479 480
f 481 482 483
f 484 485 486
f 487 488 489
f 490 491 492
f 493 494 495
f 496 497 498
f 499 500 501
f 502 503 504
f 505 506 507
f 508 509 510
f 511 512 513
f 514 515 516
f 517 518 519
f 520 521 522
f 523 524 525
f 526 527 528
f 529 530 531
f 532 533 534
f 535 536 537
f 538 539 540
f 541 542 543
f 544 545 546
f 547 548 549
f 550 551 552
f 553 554 555
f 556 557 558
f 559 560 561
f 562 563 564
f 565 566 567
f 568 569 570
f 571 572 573
f 574 575 576
f 577 578 579
f 580 581 582
f 583 584 585
f 586 587 588
f 589 590 591
f 592 593 594
f 595 596 597
f 598 599 600
f 601 602 603
f 604 605 606
f 607 608 609
f 610 611 612
f 613 614 615
f 616 617 618
f 619 620 621
f 622 623 624
f 625 626 627
f 628 629 630
f 631 632 633
f 634 635 636
f 637 638 639
f 640 641 642
f 643 644 645
f 646 647 648
f 649 650 651
f 652 653 654
f 655 656 657
f 658 659 660
f 661 662 663
f 664 665 666
f 667 668 669
f 670 671 672
f 673 674 675
f 676 677 678
f 679 680 681
f 682 683 684
f 685 686 687
f 688 689 690
f 691 692 693
f 694 695 696
f 697 698 699
f 700 701 702
f 703 704 705
f 706 707 708
f 709 710 711
f 712 713 714
f 715 716 717
f 718 719 720
f 721 722 723
f 724 725 726
f 727 728 729
f 730 731 732
f 733 734 735
f 736 737 738
f 739 740 741
f 742 743 744
f 745 746 747
f 748 749 750
f 751 752 753
f 754 755 756
f 757 758 759
f 760 761 762
f 763 764 765
f 766 767 768
f 769 770 771
f 772 773 774
f 775 776 777
f 778 779 780
f 781 782 783
f 784 785 786
f 787 788 789
f 790 791 792
f 793 794 795
f 796 797 798
f 799 800 801
f 802 803 804
f 805 806 807
f 808 809 810
f 811 812 813
f 814 815 816
f 817 818 819
f 820 821 822
f 823 824 825
f 826 827 828
f 829 830 831
f 832 833 834
f 835 836 837
f 838 839 840
f 841 842 843
f 844 845 846
f 847 848 849
f 850 851 852
f 853 854 855
f 856 857 858
f 859 860 861
f 862 863 864
f 865 866 867
f 868 869 870
f 871 872 873
f 874 875 876
f 877 878 879
f 880 881 882
f 883 884 885
f 886 887 888
f 889 890 891
f 892 893 894
f 895 896 897
f 898 899 900
f 901 902 903
f 904 905 906
f 907 908 909
f 910 911 912
f 913 914 915
f 916 917 918
f 919 920 921
f 922 923 924
f 925 926 927
f 928 929 930
f 931 932 933
f 934 935 936
f 937 938 939
f 940 941 942
f 943 944 945
f 946 947 948
f 949 950 951
f 952 953 954
