mtllib torso_l3_3_mesh.mtl
v -0.04156886041164398 -0.1408146768808365 0.23273706436157227
v -0.01694072037935257 -0.143064945936203 0.16852515935897827
v -0.014569279737770557 -0.143064945936203 0.16618119180202484
v -0.009695869870483875 -0.013210169970989227 0.1601538509130478
v -0.011414620094001293 -0.013210169970989227 0.16270510852336884
v -0.035825200378894806 -0.015600290149450302 0.23273706436157227
v -0.009695869870483875 -0.013210169970989227 0.1601538509130478
v -0.035825200378894806 -0.015600290149450302 0.23273706436157227
v -0.033834490925073624 -0.015918120741844177 0.23273706436157227
v -0.05600417032837868 -0.015066320076584816 0.23273706436157227
v -0.06485898792743683 -0.013210169970989227 0.17735888063907623
v -0.06994996964931488 -0.013210169970989227 0.17405818402767181
v -0.05600417032837868 -0.015066320076584816 0.23273706436157227
v -0.06994996964931488 -0.013210169970989227 0.17405818402767181
v -0.07132060825824738 -0.013210169970989227 0.1729898452758789
v -0.05600417032837868 -0.015066320076584816 0.23273706436157227
v -0.07132060825824738 -0.013210169970989227 0.1729898452758789
v -0.0737464427947998 -0.013210169970989227 0.17080533504486084
v -0.05600417032837868 -0.015066320076584816 0.23273706436157227
v -0.0737464427947998 -0.013210169970989227 0.17080533504486084
v -0.0753672868013382 -0.013210169970989227 0.16927458345890045
v -0.05600417032837868 -0.015066320076584816 0.23273706436157227
v -0.0753672868013382 -0.013210169970989227 0.16927458345890045
v -0.07718393951654434 -0.013210169970989227 0.1673930436372757
v -0.053752388805150986 -0.015066320076584816 0.23273706436157227
v -0.03607539087533951 -0.013210169970989227 0.1810900866985321
v -0.04036138951778412 -0.013210169970989227 0.18188735842704773
v -0.053752388805150986 -0.015066320076584816 0.23273706436157227
v -0.04036138951778412 -0.013210169970989227 0.18188735842704773
v -0.04154710844159126 -0.013210169970989227 0.18209464848041534
v -0.053752388805150986 -0.015066320076584816 0.23273706436157227
v -0.04154710844159126 -0.013210169970989227 0.18209464848041534
v -0.04643139988183975 -0.013210169970989227 0.18246139585971832
v -0.011414620094001293 -0.013210169970989227 0.16270510852336884
v -0.014253820292651653 -0.013210169970989227 0.1662449687719345
v -0.035825200378894806 -0.015600290149450302 0.23273706436157227
v -0.035825200378894806 -0.015600290149450302 0.23273706436157227
v -0.014253820292651653 -0.013210169970989227 0.1662449687719345
v -0.03953465074300766 -0.015346020460128784 0.23273706436157227
v -0.08587557822465897 -0.143064945936203 0.15497161448001862
v -0.08557099103927612 -0.143064945936203 0.15556159615516663
v -0.06441298872232437 -0.13991202414035797 0.23273706436157227
v -0.08587557822465897 -0.143064945936203 0.15497161448001862
v -0.06441298872232437 -0.13991202414035797 0.23273706436157227
v -0.06639280915260315 -0.13955603539943695 0.23273706436157227
v -0.04156886041164398 -0.1408146768808365 0.23273706436157227
v -0.018931420519948006 -0.143064945936203 0.17040671408176422
v -0.01694072037935257 -0.143064945936203 0.16852515935897827
v -0.05602592974901199 -0.14092908799648285 0.23273706436157227
v -0.05300179868936539 -0.143064945936203 0.18177573382854462
v -0.0538938082754612 -0.1409418135881424 0.23273706436157227
v -0.04725813865661621 -0.013210169970989227 0.18249328434467316
v -0.053752388805150986 -0.015066320076584816 0.23273706436157227
v -0.04643139988183975 -0.013210169970989227 0.18246139585971832
v -0.05602592974901199 -0.14092908799648285 0.23273706436157227
v -0.07559572905302048 -0.143064945936203 0.1687483936548233
v -0.06991732865571976 -0.143064945936203 0.1736755073070526
v -0.05602592974901199 -0.14092908799648285 0.23273706436157227
v -0.06991732865571976 -0.143064945936203 0.1736755073070526
v -0.06643632054328918 -0.143064945936203 0.17584407329559326
v -0.05602592974901199 -0.14092908799648285 0.23273706436157227
v -0.06643632054328918 -0.143064945936203 0.17584407329559326
v -0.06476108729839325 -0.143064945936203 0.17686456441879272
v -0.08854073286056519 -0.143064945936203 0.14910373091697693
v -0.08587557822465897 -0.143064945936203 0.15497161448001862
v -0.07013490051031113 -0.1388695240020752 0.23273706436157227
v -0.08854073286056519 -0.143064945936203 0.14910373091697693
v -0.07013490051031113 -0.1388695240020752 0.23273706436157227
v -0.0721147209405899 -0.13833555579185486 0.23273706436157227
v -0.08854073286056519 -0.143064945936203 0.14910373091697693
v -0.0721147209405899 -0.13833555579185486 0.23273706436157227
v -0.07584592700004578 -0.13730576634407043 0.23273706436157227
v -0.05602592974901199 -0.14092908799648285 0.23273706436157227
v -0.06476108729839325 -0.143064945936203 0.17686456441879272
v -0.058691080659627914 -0.143064945936203 0.1801333725452423
v -0.05602592974901199 -0.14092908799648285 0.23273706436157227
v -0.058691080659627914 -0.143064945936203 0.1801333725452423
v -0.05300179868936539 -0.143064945936203 0.18177573382854462
v -0.041775550693273544 -0.015193459577858448 0.23273706436157227
v -0.018974939361214638 -0.013210169970989227 0.170773446559906
v -0.0242617204785347 -0.013210169970989227 0.1748235672712326
v -0.041775550693273544 -0.015193459577858448 0.23273706436157227
v -0.0242617204785347 -0.013210169970989227 0.1748235672712326
v -0.029570259153842926 -0.013210169970989227 0.17783723771572113
v -0.041775550693273544 -0.015193459577858448 0.23273706436157227
v -0.029570259153842926 -0.013210169970989227 0.17783723771572113
v -0.0297225508838892 -0.013210169970989227 0.1779169738292694
v -0.041775550693273544 -0.015193459577858448 0.23273706436157227
v -0.0297225508838892 -0.013210169970989227 0.1779169738292694
v -0.03607539087533951 -0.013210169970989227 0.1810900866985321
v -0.041775550693273544 -0.015193459577858448 0.23273706436157227
v -0.03607539087533951 -0.013210169970989227 0.1810900866985321
v -0.04725813865661621 -0.01512989029288292 0.23273706436157227
v -0.08216612786054611 -0.143064945936203 0.1608554571866989
v -0.08173100650310516 -0.143064945936203 0.16152514517307281
v -0.05602592974901199 -0.14092908799648285 0.23273706436157227
v -0.05602592974901199 -0.14092908799648285 0.23273706436157227
v -0.08173100650310516 -0.143064945936203 0.16152514517307281
v -0.07658564299345016 -0.143064945936203 0.16780762374401093
v -0.05602592974901199 -0.14092908799648285 0.23273706436157227
v -0.07658564299345016 -0.143064945936203 0.16780762374401093
v -0.07559572905302048 -0.143064945936203 0.1687483936548233
v -0.05600417032837868 -0.015066320076584816 0.23273706436157227
v -0.07718393951654434 -0.013210169970989227 0.1673930436372757
v -0.07957713305950165 -0.013210169970989227 0.16453881561756134
v -0.05600417032837868 -0.015066320076584816 0.23273706436157227
v -0.058799859136343 -0.013210169970989227 0.1806117296218872
v -0.06485898792743683 -0.013210169970989227 0.17735888063907623
v -0.009695869870483875 -0.013210169970989227 0.1601538509130478
v -0.033834490925073624 -0.015918120741844177 0.23273706436157227
v -0.0301032904535532 -0.01651564985513687 0.23273706436157227
v -0.05600417032837868 -0.015066320076584816 0.23273706436157227
v -0.08078461140394211 -0.013210169970989227 0.16299211978912354
v -0.08230754733085632 -0.013210169970989227 0.16095112264156342
v -0.05600417032837868 -0.015066320076584816 0.23273706436157227
v -0.053752388805150986 -0.015066320076584816 0.23273706436157227
v -0.04725813865661621 -0.013210169970989227 0.18249328434467316
v -0.053556591272354126 -0.1409418135881424 0.23273706436157227
v -0.0538938082754612 -0.1409418135881424 0.23273706436157227
v -0.04725813865661621 -0.143064945936203 0.18219031393527985
v -0.04725813865661621 -0.143064945936203 0.18219031393527985
v -0.0538938082754612 -0.1409418135881424 0.23273706436157227
v -0.05300179868936539 -0.143064945936203 0.18177573382854462
v -0.014678070321679115 -0.013210169970989227 0.16665954887866974
v -0.018974939361214638 -0.013210169970989227 0.170773446559906
v -0.041775550693273544 -0.015193459577858448 0.23273706436157227
v -0.04725813865661621 -0.143064945936203 0.06983941048383713
v -0.08101305365562439 -0.143064945936203 0.08656608313322067
v -0.07530201971530914 -0.143064945936203 0.08085764944553375
v -0.04725813865661621 -0.143064945936203 0.06983941048383713
v -0.07530201971530914 -0.143064945936203 0.08085764944553375
v -0.07013490051031113 -0.143064945936203 0.07728589326143265
v -0.04725813865661621 -0.143064945936203 0.06983941048383713
v -0.07013490051031113 -0.143064945936203 0.07728589326143265
v -0.06433683633804321 -0.143064945936203 0.07395332306623459
v -0.04725813865661621 -0.143064945936203 0.06983941048383713
v -0.06433683633804321 -0.143064945936203 0.07395332306623459
v -0.058691080659627914 -0.143064945936203 0.07213553786277771
v -0.04725813865661621 -0.143064945936203 0.06983941048383713
v -0.0914452001452446 -0.143064945936203 0.13819710910320282
v -0.09202174097299576 -0.143064945936203 0.13247272372245789
v -0.04725813865661621 -0.143064945936203 0.06983941048383713
v -0.09202174097299576 -0.143064945936203 0.13247272372245789
v -0.09239160269498825 -0.143064945936203 0.12606270611286163
v -0.04725813865661621 -0.143064945936203 0.06983941048383713
v -0.05300179868936539 -0.143064945936203 0.18177573382854462
v -0.058691080659627914 -0.143064945936203 0.1801333725452423
v -0.04725813865661621 -0.143064945936203 0.06983941048383713
v -0.058691080659627914 -0.143064945936203 0.1801333725452423
v -0.06476108729839325 -0.143064945936203 0.17686456441879272
v -0.04725813865661621 -0.143064945936203 0.06983941048383713
v -0.01694072037935257 -0.143064945936203 0.16852515935897827
v -0.018931420519948006 -0.143064945936203 0.17040671408176422
v -0.04725813865661621 -0.143064945936203 0.06983941048383713
v -0.018931420519948006 -0.143064945936203 0.17040671408176422
v -0.022608239203691483 -0.143064945936203 0.17340442538261414
v -0.04725813865661621 -0.143064945936203 0.06983941048383713
v -0.04154710844159126 -0.143064945936203 0.18179167807102203
v -0.04725813865661621 -0.143064945936203 0.18219031393527985
v -0.04725813865661621 -0.143064945936203 0.06983941048383713
v -0.04725813865661621 -0.143064945936203 0.18219031393527985
v -0.05300179868936539 -0.143064945936203 0.18177573382854462
v -0.04725813865661621 -0.143064945936203 0.06983941048383713
v 0.0003881799930240959 -0.143064945936203 0.11357749253511429
v 0.000594860001001507 -0.143064945936203 0.11915837228298187
v -0.04725813865661621 -0.143064945936203 0.06983941048383713
v 0.000594860001001507 -0.143064945936203 0.11915837228298187
v 0.00033378999796696007 -0.143064945936203 0.1251538246870041
v -0.04725813865661621 -0.143064945936203 0.06983941048383713
v -0.06476108729839325 -0.143064945936203 0.17686456441879272
v -0.06643632054328918 -0.143064945936203 0.17584407329559326
v -0.04725813865661621 -0.143064945936203 0.06983941048383713
v -0.06643632054328918 -0.143064945936203 0.17584407329559326
v -0.06991732865571976 -0.143064945936203 0.1736755073070526
v -0.04725813865661621 -0.143064945936203 0.06983941048383713
v -0.06991732865571976 -0.143064945936203 0.1736755073070526
v -0.07559572905302048 -0.143064945936203 0.1687483936548233
v -0.04725813865661621 -0.143064945936203 0.06983941048383713
v -0.07559572905302048 -0.143064945936203 0.1687483936548233
v -0.07658564299345016 -0.143064945936203 0.16780762374401093
v -0.04725813865661621 -0.143064945936203 0.06983941048383713
v -0.011164420284330845 -0.143064945936203 0.16193972527980804
v -0.014569279737770557 -0.143064945936203 0.16618119180202484
v -0.04725813865661621 -0.143064945936203 0.06983941048383713
v -0.014569279737770557 -0.143064945936203 0.16618119180202484
v -0.01694072037935257 -0.143064945936203 0.16852515935897827
v -0.04725813865661621 -0.143064945936203 0.06983941048383713
v -0.03850122168660164 -0.143064945936203 0.07054100930690765
v -0.0290372297167778 -0.143064945936203 0.0728052482008934
v -0.04725813865661621 -0.143064945936203 0.06983941048383713
v -0.0290372297167778 -0.143064945936203 0.0728052482008934
v -0.024272600188851357 -0.143064945936203 0.0745432898402214
v -0.050173480063676834 -0.013210169970989227 0.07055695354938507
v -0.08447229862213135 -0.013210169970989227 0.15777799487113953
v -0.08230754733085632 -0.013210169970989227 0.16095112264156342
v -0.050173480063676834 -0.013210169970989227 0.07055695354938507
v -0.08230754733085632 -0.013210169970989227 0.16095112264156342
v -0.08078461140394211 -0.013210169970989227 0.16299211978912354
v -0.050173480063676834 -0.013210169970989227 0.07055695354938507
v -0.08078461140394211 -0.013210169970989227 0.16299211978912354
v -0.07957713305950165 -0.013210169970989227 0.16453881561756134
v -0.050173480063676834 -0.013210169970989227 0.07055695354938507
v -0.07957713305950165 -0.013210169970989227 0.16453881561756134
v -0.07718393951654434 -0.013210169970989227 0.1673930436372757
v -0.050173480063676834 -0.013210169970989227 0.07055695354938507
v -0.09273970127105713 -0.013210169970989227 0.11461394280195236
v -0.0927070677280426 -0.013210169970989227 0.1203383207321167
v -0.050173480063676834 -0.013210169970989227 0.07055695354938507
v -0.0927070677280426 -0.013210169970989227 0.1203383207321167
v -0.0924459919333458 -0.013210169970989227 0.12509003281593323
v -0.050173480063676834 -0.013210169970989227 0.07055695354938507
v -0.052980050444602966 -0.143064945936203 0.0707801878452301
v -0.054861970245838165 -0.013210169970989227 0.07143394649028778
v -0.050173480063676834 -0.013210169970989227 0.07055695354938507
v -0.054861970245838165 -0.013210169970989227 0.07143394649028778
v -0.05945254862308502 -0.013210169970989227 0.07275740802288055
v -0.04725813865661621 -0.143064945936203 0.06983941048383713
v 0.00033378999796696007 -0.143064945936203 0.1251538246870041
v -0.0007649100152775645 -0.143064945936203 0.13186681270599365
v -0.04725813865661621 -0.143064945936203 0.06983941048383713
v -0.0007649100152775645 -0.143064945936203 0.13186681270599365
v -0.007683409843593836 -0.143064945936203 0.15463675558567047
v -0.04725813865661621 -0.143064945936203 0.06983941048383713
v -0.007683409843593836 -0.143064945936203 0.15463675558567047
v -0.009315130300819874 -0.143064945936203 0.15903766453266144
v -0.04725813865661621 -0.143064945936203 0.06983941048383713
v -0.009315130300819874 -0.143064945936203 0.15903766453266144
v -0.011164420284330845 -0.143064945936203 0.16193972527980804
v -0.04725813865661621 -0.143064945936203 0.06983941048383713
v -0.04327673092484474 -0.143064945936203 0.06993508338928223
v -0.04154710844159126 -0.143064945936203 0.06998292356729507
v -0.04725813865661621 -0.143064945936203 0.06983941048383713
v -0.04154710844159126 -0.143064945936203 0.06998292356729507
v -0.03850122168660164 -0.143064945936203 0.07054100930690765
v -0.04725813865661621 -0.143064945936203 0.06983941048383713
v -0.08762697130441666 -0.143064945936203 0.09610140323638916
v -0.08467899262905121 -0.143064945936203 0.09174831956624985
v -0.04725813865661621 -0.143064945936203 0.06983941048383713
v -0.08467899262905121 -0.143064945936203 0.09174831956624985
v -0.08101305365562439 -0.143064945936203 0.08656608313322067
v -0.04725813865661621 -0.143064945936203 0.06983941048383713
v -0.024272600188851357 -0.143064945936203 0.0745432898402214
v -0.01684281975030899 -0.143064945936203 0.07864125072956085
v -0.04725813865661621 -0.143064945936203 0.06983941048383713
v -0.01684281975030899 -0.143064945936203 0.07864125072956085
v -0.010838080197572708 -0.143064945936203 0.08385536819696426
v -0.04725813865661621 -0.143064945936203 0.06983941048383713
v -0.010838080197572708 -0.143064945936203 0.08385536819696426
v -0.006106080021709204 -0.143064945936203 0.09045673906803131
v -0.04725813865661621 -0.143064945936203 0.06983941048383713
v -0.006106080021709204 -0.143064945936203 0.09045673906803131
v -0.0036367399152368307 -0.143064945936203 0.09490550309419632
v -0.04725813865661621 -0.143064945936203 0.06983941048383713
v -0.058691080659627914 -0.143064945936203 0.07213553786277771
v -0.052980050444602966 -0.143064945936203 0.0707801878452301
v -0.04725813865661621 -0.143064945936203 0.06983941048383713
v -0.052980050444602966 -0.143064945936203 0.0707801878452301
v -0.050173480063676834 -0.013210169970989227 0.07055695354938507
v -0.04725813865661621 -0.143064945936203 0.06983941048383713
v -0.09239160269498825 -0.143064945936203 0.12606270611286163
v -0.09264179319143295 -0.143064945936203 0.12103991955518723
v -0.04725813865661621 -0.143064945936203 0.06983941048383713
v -0.09264179319143295 -0.143064945936203 0.12103991955518723
v -0.09267442673444748 -0.143064945936203 0.1203383207321167
v -0.050173480063676834 -0.013210169970989227 0.07055695354938507
v -0.05945254862308502 -0.013210169970989227 0.07275740802288055
v -0.06461966782808304 -0.013210169970989227 0.07462301105260849
v -0.050173480063676834 -0.013210169970989227 0.07055695354938507
v -0.06461966782808304 -0.013210169970989227 0.07462301105260849
v -0.06824210286140442 -0.013210169970989227 0.07624944299459457
v -0.050173480063676834 -0.013210169970989227 0.07055695354938507
v -0.06824210286140442 -0.013210169970989227 0.07624944299459457
v -0.07141851633787155 -0.013210169970989227 0.07814692705869675
v -0.050173480063676834 -0.013210169970989227 0.07055695354938507
v -0.07141851633787155 -0.013210169970989227 0.07814692705869675
v -0.07518236339092255 -0.013210169970989227 0.08096925914287567
v -0.04725813865661621 -0.143064945936203 0.06983941048383713
v -0.09117323905229568 -0.143064945936203 0.10378704965114594
v -0.09102094918489456 -0.143064945936203 0.10319706797599792
v -0.04725813865661621 -0.143064945936203 0.06983941048383713
v -0.09102094918489456 -0.143064945936203 0.10319706797599792
v -0.08762697130441666 -0.143064945936203 0.09610140323638916
v -0.04725813865661621 -0.143064945936203 0.06983941048383713
v -0.08216612786054611 -0.143064945936203 0.1608554571866989
v -0.08557099103927612 -0.143064945936203 0.15556159615516663
v -0.04725813865661621 -0.143064945936203 0.06983941048383713
v -0.08557099103927612 -0.143064945936203 0.15556159615516663
v -0.08587557822465897 -0.143064945936203 0.15497161448001862
v -0.050173480063676834 -0.013210169970989227 0.07055695354938507
v -4.695000097854063e-05 -0.013210169970989227 0.1203383207321167
v -0.0001339699956588447 -0.013210169970989227 0.11461394280195236
v -0.050173480063676834 -0.013210169970989227 0.07055695354938507
v -0.0001339699956588447 -0.013210169970989227 0.11461394280195236
v -0.0005582200246863067 -0.013210169970989227 0.10888955742120743
v -0.050173480063676834 -0.013210169970989227 0.07055695354938507
v -0.0005582200246863067 -0.013210169970989227 0.10888955742120743
v -0.0010912499856203794 -0.013210169970989227 0.10295788943767548
v -0.050173480063676834 -0.013210169970989227 0.07055695354938507
v -0.0010912499856203794 -0.013210169970989227 0.10295788943767548
v -0.0034953199792653322 -0.013210169970989227 0.09745675325393677
v -0.050173480063676834 -0.013210169970989227 0.07055695354938507
v -0.029570259153842926 -0.013210169970989227 0.17783723771572113
v -0.0242617204785347 -0.013210169970989227 0.1748235672712326
v -0.050173480063676834 -0.013210169970989227 0.07055695354938507
v -0.0242617204785347 -0.013210169970989227 0.1748235672712326
v -0.018974939361214638 -0.013210169970989227 0.170773446559906
v -0.050173480063676834 -0.013210169970989227 0.07055695354938507
v -0.0737464427947998 -0.013210169970989227 0.17080533504486084
v -0.07132060825824738 -0.013210169970989227 0.1729898452758789
v -0.050173480063676834 -0.013210169970989227 0.07055695354938507
v -0.07132060825824738 -0.013210169970989227 0.1729898452758789
v -0.06994996964931488 -0.013210169970989227 0.17405818402767181
v -0.04725813865661621 -0.143064945936203 0.06983941048383713
v -0.09267442673444748 -0.143064945936203 0.1203383207321167
v -0.0926961898803711 -0.143064945936203 0.1153155267238617
v -0.04725813865661621 -0.143064945936203 0.06983941048383713
v -0.0926961898803711 -0.143064945936203 0.1153155267238617
v -0.0926961898803711 -0.143064945936203 0.11461394280195236
v -0.04725813865661621 -0.143064945936203 0.06983941048383713
v -0.0926961898803711 -0.143064945936203 0.11461394280195236
v -0.09225018322467804 -0.143064945936203 0.10888955742120743
v -0.04725813865661621 -0.143064945936203 0.06983941048383713
v -0.09225018322467804 -0.143064945936203 0.10888955742120743
v -0.09117323905229568 -0.143064945936203 0.10378704965114594
v -0.04725813865661621 -0.143064945936203 0.06983941048383713
v -0.07658564299345016 -0.143064945936203 0.16780762374401093
v -0.08173100650310516 -0.143064945936203 0.16152514517307281
v -0.04725813865661621 -0.143064945936203 0.06983941048383713
v -0.08173100650310516 -0.143064945936203 0.16152514517307281
v -0.08216612786054611 -0.143064945936203 0.1608554571866989
v -0.050173480063676834 -0.013210169970989227 0.07055695354938507
v -0.08620192855596542 -0.013210169970989227 0.15441353619098663
v -0.085418701171875 -0.013210169970989227 0.15608778595924377
v -0.050173480063676834 -0.013210169970989227 0.07055695354938507
v -0.085418701171875 -0.013210169970989227 0.15608778595924377
v -0.08447229862213135 -0.013210169970989227 0.15777799487113953
v -0.04725813865661621 -0.143064945936203 0.06983941048383713
v -0.08587557822465897 -0.143064945936203 0.15497161448001862
v -0.08854073286056519 -0.143064945936203 0.14910373091697693
v -0.04725813865661621 -0.143064945936203 0.06983941048383713
v -0.08854073286056519 -0.143064945936203 0.14910373091697693
v -0.09054230898618698 -0.143064945936203 0.1435706913471222
v -0.04725813865661621 -0.143064945936203 0.06983941048383713
v -0.09054230898618698 -0.143064945936203 0.1435706913471222
v -0.09059669822454453 -0.143064945936203 0.1432996243238449
v -0.04725813865661621 -0.143064945936203 0.06983941048383713
v -0.09059669822454453 -0.143064945936203 0.1432996243238449
v -0.0914452001452446 -0.143064945936203 0.13819710910320282
v -0.050173480063676834 -0.013210169970989227 0.07055695354938507
v -0.07718393951654434 -0.013210169970989227 0.1673930436372757
v -0.0753672868013382 -0.013210169970989227 0.16927458345890045
v -0.050173480063676834 -0.013210169970989227 0.07055695354938507
v -0.0753672868013382 -0.013210169970989227 0.16927458345890045
v -0.0737464427947998 -0.013210169970989227 0.17080533504486084
v -0.050173480063676834 -0.013210169970989227 0.07055695354938507
v -0.0924459919333458 -0.013210169970989227 0.12509003281593323
v -0.09239160269498825 -0.013210169970989227 0.12606270611286163
v -0.050173480063676834 -0.013210169970989227 0.07055695354938507
v -0.09239160269498825 -0.013210169970989227 0.12606270611286163
v -0.09206525981426239 -0.013210169970989227 0.13177113234996796
v -0.050173480063676834 -0.013210169970989227 0.07055695354938507
v -0.06994996964931488 -0.013210169970989227 0.17405818402767181
v -0.06485898792743683 -0.013210169970989227 0.17735888063907623
v -0.050173480063676834 -0.013210169970989227 0.07055695354938507
v -0.06485898792743683 -0.013210169970989227 0.17735888063907623
v -0.058799859136343 -0.013210169970989227 0.1806117296218872
v -0.050173480063676834 -0.013210169970989227 0.07055695354938507
v -0.058799859136343 -0.013210169970989227 0.1806117296218872
v -0.05693969130516052 -0.013210169970989227 0.18144088983535767
v -0.050173480063676834 -0.013210169970989227 0.07055695354938507
v -0.05693969130516052 -0.013210169970989227 0.18144088983535767
v -0.05300179868936539 -0.013210169970989227 0.1821424812078476
v -0.050173480063676834 -0.013210169970989227 0.07055695354938507
v -0.09000927954912186 -0.013210169970989227 0.14581897854804993
v -0.08867126703262329 -0.013210169970989227 0.14896021783351898
v -0.050173480063676834 -0.013210169970989227 0.07055695354938507
v -0.08867126703262329 -0.013210169970989227 0.14896021783351898
v -0.08620192855596542 -0.013210169970989227 0.15441353619098663
v -0.050173480063676834 -0.013210169970989227 0.07055695354938507
v -0.0808933898806572 -0.013210169970989227 0.08669363707304001
v -0.08380872756242752 -0.013210169970989227 0.09042485058307648
v -0.050173480063676834 -0.013210169970989227 0.07055695354938507
v -0.08380872756242752 -0.013210169970989227 0.09042485058307648
v -0.08577767759561539 -0.013210169970989227 0.09345447272062302
v -0.024272600188851357 -0.143064945936203 0.0745432898402214
v -0.024675089865922928 -0.013210169970989227 0.07508543133735657
v -0.01684281975030899 -0.143064945936203 0.07864125072956085
v -0.07530201971530914 -0.143064945936203 0.08085764944553375
v -0.07518236339092255 -0.013210169970989227 0.08096925914287567
v -0.07141851633787155 -0.013210169970989227 0.07814692705869675
v -0.07530201971530914 -0.143064945936203 0.08085764944553375
v -0.08101305365562439 -0.143064945936203 0.08656608313322067
v -0.07810857892036438 -0.013210169970989227 0.08377564698457718
v -0.07530201971530914 -0.143064945936203 0.08085764944553375
v -0.07810857892036438 -0.013210169970989227 0.08377564698457718
v -0.07518236339092255 -0.013210169970989227 0.08096925914287567
v -0.04154710844159126 -0.013210169970989227 0.07038155943155289
v -0.035825200378894806 -0.013210169970989227 0.07160934805870056
v -0.03850122168660164 -0.143064945936203 0.07054100930690765
v -0.058691080659627914 -0.143064945936203 0.07213553786277771
v -0.06433683633804321 -0.143064945936203 0.07395332306623459
v -0.05945254862308502 -0.013210169970989227 0.07275740802288055
v -0.050173480063676834 -0.013210169970989227 0.07055695354938507
v -0.01126231998205185 -0.013210169970989227 0.0858166515827179
v -0.012807019986212254 -0.013210169970989227 0.08417428284883499
v -0.050173480063676834 -0.013210169970989227 0.07055695354938507
v -0.012807019986212254 -0.013210169970989227 0.08417428284883499
v -0.017223550006747246 -0.013210169970989227 0.08026766777038574
v -0.050173480063676834 -0.013210169970989227 0.07055695354938507
v -0.09206525981426239 -0.013210169970989227 0.13177113234996796
v -0.09155397862195969 -0.013210169970989227 0.1374955028295517
v -0.050173480063676834 -0.013210169970989227 0.07055695354938507
v -0.09155397862195969 -0.013210169970989227 0.1374955028295517
v -0.09072723984718323 -0.013210169970989227 0.14293287694454193
v -0.050173480063676834 -0.013210169970989227 0.07055695354938507
v -0.09072723984718323 -0.013210169970989227 0.14293287694454193
v -0.09053143113851547 -0.013210169970989227 0.14403310418128967
v -0.050173480063676834 -0.013210169970989227 0.07055695354938507
v -0.09053143113851547 -0.013210169970989227 0.14403310418128967
v -0.09000927954912186 -0.013210169970989227 0.14581897854804993
v -0.050173480063676834 -0.013210169970989227 0.07055695354938507
v -0.07518236339092255 -0.013210169970989227 0.08096925914287567
v -0.07810857892036438 -0.013210169970989227 0.08377564698457718
v -0.050173480063676834 -0.013210169970989227 0.07055695354938507
v -0.07810857892036438 -0.013210169970989227 0.08377564698457718
v -0.0808933898806572 -0.013210169970989227 0.08669363707304001
v -0.050173480063676834 -0.013210169970989227 0.07055695354938507
v -0.0008628100040368736 -0.013210169970989227 0.13186681270599365
v -0.0003080200112890452 -0.013210169970989227 0.12604674696922302
v -0.050173480063676834 -0.013210169970989227 0.07055695354938507
v -0.0003080200112890452 -0.013210169970989227 0.12604674696922302
v -4.695000097854063e-05 -0.013210169970989227 0.1203383207321167
v -0.050173480063676834 -0.013210169970989227 0.07055695354938507
v -0.08577767759561539 -0.013210169970989227 0.09345447272062302
v -0.08987875282764435 -0.013210169970989227 0.10024718195199966
v -0.050173480063676834 -0.013210169970989227 0.07055695354938507
v -0.08987875282764435 -0.013210169970989227 0.10024718195199966
v -0.09101007133722305 -0.013210169970989227 0.10324490815401077
v -0.050173480063676834 -0.013210169970989227 0.07055695354938507
v -0.09101007133722305 -0.013210169970989227 0.10324490815401077
v -0.09223929792642593 -0.013210169970989227 0.10888955742120743
v -0.050173480063676834 -0.013210169970989227 0.07055695354938507
v -0.09223929792642593 -0.013210169970989227 0.10888955742120743
v -0.09273970127105713 -0.013210169970989227 0.11461394280195236
v -0.050173480063676834 -0.013210169970989227 0.07055695354938507
v -0.0034953199792653322 -0.013210169970989227 0.09745675325393677
v -0.006987209897488356 -0.013210169970989227 0.09168454259634018
v -0.050173480063676834 -0.013210169970989227 0.07055695354938507
v -0.006987209897488356 -0.013210169970989227 0.09168454259634018
v -0.01126231998205185 -0.013210169970989227 0.0858166515827179
v -0.050173480063676834 -0.013210169970989227 0.07055695354938507
v -0.018974939361214638 -0.013210169970989227 0.170773446559906
v -0.014678070321679115 -0.013210169970989227 0.16665954887866974
v -0.050173480063676834 -0.013210169970989227 0.07055695354938507
v -0.014678070321679115 -0.013210169970989227 0.16665954887866974
v -0.014253820292651653 -0.013210169970989227 0.1662449687719345
v -0.050173480063676834 -0.013210169970989227 0.07055695354938507
v -0.017223550006747246 -0.013210169970989227 0.08026766777038574
v -0.01847453974187374 -0.013210169970989227 0.07921528071165085
v -0.050173480063676834 -0.013210169970989227 0.07055695354938507
v -0.01847453974187374 -0.013210169970989227 0.07921528071165085
v -0.024675089865922928 -0.013210169970989227 0.07508543133735657
v -0.050173480063676834 -0.013210169970989227 0.07055695354938507
v -0.024675089865922928 -0.013210169970989227 0.07508543133735657
v -0.02476211078464985 -0.013210169970989227 0.07503759860992432
v -0.050173480063676834 -0.013210169970989227 0.07055695354938507
v -0.02476211078464985 -0.013210169970989227 0.07503759860992432
v -0.0301032904535532 -0.013210169970989227 0.07325171679258347
v -0.050173480063676834 -0.013210169970989227 0.07055695354938507
v -0.007900970056653023 -0.013210169970989227 0.15576888620853424
v -0.0010368600487709045 -0.013210169970989227 0.1329829841852188
v -0.050173480063676834 -0.013210169970989227 0.07055695354938507
v -0.0010368600487709045 -0.013210169970989227 0.1329829841852188
v -0.0008628100040368736 -0.013210169970989227 0.13186681270599365
v -0.050173480063676834 -0.013210169970989227 0.07055695354938507
v -0.04725813865661621 -0.013210169970989227 0.18249328434467316
v -0.04643139988183975 -0.013210169970989227 0.18246139585971832
v -0.050173480063676834 -0.013210169970989227 0.07055695354938507
v -0.04643139988183975 -0.013210169970989227 0.18246139585971832
v -0.04154710844159126 -0.013210169970989227 0.18209464848041534
v -0.09225018322467804 -0.143064945936203 0.10888955742120743
v -0.11050371825695038 -0.07514990866184235 0.21183271706104279
v -0.1097748875617981 -0.06942886859178543 0.20610834658145905
v -0.09225018322467804 -0.143064945936203 0.10888955742120743
v -0.1097748875617981 -0.06942886859178543 0.20610834658145905
v -0.11011210829019547 -0.04654473066329956 0.20610834658145905
v -0.09225018322467804 -0.143064945936203 0.10888955742120743
v -0.11011210829019547 -0.04654473066329956 0.20610834658145905
v -0.09223929792642593 -0.013210169970989227 0.10888955742120743
v -0.09223929792642593 -0.013210169970989227 0.10888955742120743
v -0.11011210829019547 -0.04654473066329956 0.20610834658145905
v -0.11051460355520248 -0.04082370176911354 0.21183271706104279
v -0.0034953199792653322 -0.013210169970989227 0.09745675325393677
v -0.0010912499856203794 -0.013210169970989227 0.10295788943767548
v -0.00043856000411324203 -0.143064945936203 0.10169821232557297
v -0.0034953199792653322 -0.013210169970989227 0.09745675325393677
v -0.00043856000411324203 -0.143064945936203 0.10169821232557297
v -0.0036367399152368307 -0.143064945936203 0.09490550309419632
v -0.01684281975030899 -0.143064945936203 0.07864125072956085
v -0.017223550006747246 -0.013210169970989227 0.08026766777038574
v -0.010838080197572708 -0.143064945936203 0.08385536819696426
v -0.08101305365562439 -0.143064945936203 0.08656608313322067
v -0.0808933898806572 -0.013210169970989227 0.08669363707304001
v -0.07810857892036438 -0.013210169970989227 0.08377564698457718
v -0.050173480063676834 -0.013210169970989227 0.07055695354938507
v -0.014253820292651653 -0.013210169970989227 0.1662449687719345
v -0.011414620094001293 -0.013210169970989227 0.16270510852336884
v -0.050173480063676834 -0.013210169970989227 0.07055695354938507
v -0.011414620094001293 -0.013210169970989227 0.16270510852336884
v -0.009695869870483875 -0.013210169970989227 0.1601538509130478
v -0.050173480063676834 -0.013210169970989227 0.07055695354938507
v -0.009695869870483875 -0.013210169970989227 0.1601538509130478
v -0.009249869734048843 -0.013210169970989227 0.159197136759758
v -0.050173480063676834 -0.013210169970989227 0.07055695354938507
v -0.009249869734048843 -0.013210169970989227 0.159197136759758
v -0.007900970056653023 -0.013210169970989227 0.15576888620853424
v -0.050173480063676834 -0.013210169970989227 0.07055695354938507
v -0.05300179868936539 -0.013210169970989227 0.1821424812078476
v -0.05190310999751091 -0.013210169970989227 0.1822381466627121
v -0.050173480063676834 -0.013210169970989227 0.07055695354938507
v -0.05190310999751091 -0.013210169970989227 0.1822381466627121
v -0.04725813865661621 -0.013210169970989227 0.18249328434467316
v -0.07013490051031113 -0.143064945936203 0.07728589326143265
v -0.07141851633787155 -0.013210169970989227 0.07814692705869675
v -0.06824210286140442 -0.013210169970989227 0.07624944299459457
v -0.02476211078464985 -0.013210169970989227 0.07503759860992432
v -0.024675089865922928 -0.013210169970989227 0.07508543133735657
v -0.024272600188851357 -0.143064945936203 0.0745432898402214
v -0.050173480063676834 -0.013210169970989227 0.07055695354938507
v -0.04154710844159126 -0.013210169970989227 0.18209464848041534
v -0.04036138951778412 -0.013210169970989227 0.18188735842704773
v -0.050173480063676834 -0.013210169970989227 0.07055695354938507
v -0.04036138951778412 -0.013210169970989227 0.18188735842704773
v -0.03607539087533951 -0.013210169970989227 0.1810900866985321
v -0.050173480063676834 -0.013210169970989227 0.07055695354938507
v -0.03607539087533951 -0.013210169970989227 0.1810900866985321
v -0.0297225508838892 -0.013210169970989227 0.1779169738292694
v -0.050173480063676834 -0.013210169970989227 0.07055695354938507
v -0.0297225508838892 -0.013210169970989227 0.1779169738292694
v -0.029570259153842926 -0.013210169970989227 0.17783723771572113
v -0.024675089865922928 -0.013210169970989227 0.07508543133735657
v -0.01847453974187374 -0.013210169970989227 0.07921528071165085
v -0.01684281975030899 -0.143064945936203 0.07864125072956085
v -0.01684281975030899 -0.143064945936203 0.07864125072956085
v -0.01847453974187374 -0.013210169970989227 0.07921528071165085
v -0.017223550006747246 -0.013210169970989227 0.08026766777038574
v -0.05945254862308502 -0.013210169970989227 0.07275740802288055
v -0.06433683633804321 -0.143064945936203 0.07395332306623459
v -0.06461966782808304 -0.013210169970989227 0.07462301105260849
v -0.03850122168660164 -0.143064945936203 0.07054100930690765
v -0.035825200378894806 -0.013210169970989227 0.07160934805870056
v -0.0290372297167778 -0.143064945936203 0.0728052482008934
v -0.08101305365562439 -0.143064945936203 0.08656608313322067
v -0.08467899262905121 -0.143064945936203 0.09174831956624985
v -0.08380872756242752 -0.013210169970989227 0.09042485058307648
v -0.08101305365562439 -0.143064945936203 0.08656608313322067
v -0.08380872756242752 -0.013210169970989227 0.09042485058307648
v -0.0808933898806572 -0.013210169970989227 0.08669363707304001
v -0.017223550006747246 -0.013210169970989227 0.08026766777038574
v -0.012807019986212254 -0.013210169970989227 0.08417428284883499
v -0.010838080197572708 -0.143064945936203 0.08385536819696426
v -0.010838080197572708 -0.143064945936203 0.08385536819696426
v -0.012807019986212254 -0.013210169970989227 0.08417428284883499
v -0.01126231998205185 -0.013210169970989227 0.0858166515827179
v -0.0290372297167778 -0.143064945936203 0.0728052482008934
v -0.02476211078464985 -0.013210169970989227 0.07503759860992432
v -0.024272600188851357 -0.143064945936203 0.0745432898402214
v -0.07013490051031113 -0.143064945936203 0.07728589326143265
v -0.07530201971530914 -0.143064945936203 0.08085764944553375
v -0.07141851633787155 -0.013210169970989227 0.07814692705869675
v -0.050173480063676834 -0.013210169970989227 0.07055695354938507
v -0.04154710844159126 -0.013210169970989227 0.07038155943155289
v -0.04725813865661621 -0.013210169970989227 0.07022210210561752
v -0.04725813865661621 -0.013210169970989227 0.07022210210561752
v -0.04154710844159126 -0.143064945936203 0.06998292356729507
v -0.04327673092484474 -0.143064945936203 0.06993508338928223
v -0.1104167029261589 -0.07514990866184235 0.21755710244178772
v -0.10869795083999634 -0.07350987941026688 0.22750699520111084
v -0.11009036004543304 -0.06942886859178543 0.22328147292137146
v -0.1104167029261589 -0.07514990866184235 0.21755710244178772
v -0.11009036004543304 -0.06942886859178543 0.22328147292137146
v -0.11039494723081589 -0.04082370176911354 0.21755710244178772
v -0.09267442673444748 -0.143064945936203 0.1203383207321167
v -0.09264179319143295 -0.143064945936203 0.12103991955518723
v -0.10002806037664413 -0.10945069044828415 0.21755710244178772
v -0.11039494723081589 -0.04082370176911354 0.21755710244178772
v -0.10848038643598557 -0.037391070276498795 0.21755710244178772
v -0.10863267630338669 -0.03731479123234749 0.21183271706104279
v 0.00033378999796696007 -0.143064945936203 0.1251538246870041
v -0.006595599930733442 -0.12089276313781738 0.23273706436157227
v -0.0074332100339233875 -0.12463050335645676 0.23273706436157227
v 0.00033378999796696007 -0.143064945936203 0.1251538246870041
v -0.0074332100339233875 -0.12463050335645676 0.23273706436157227
v -0.007890099659562111 -0.1266137957572937 0.23273706436157227
v -4.695000097854063e-05 -0.013210169970989227 0.1203383207321167
v -0.0003080200112890452 -0.013210169970989227 0.12604674696922302
v 0.00033378999796696007 -0.143064945936203 0.1251538246870041
v -0.0926961898803711 -0.143064945936203 0.11461394280195236
v -0.0926961898803711 -0.143064945936203 0.1153155267238617
v -0.11050371825695038 -0.07514990866184235 0.21183271706104279
v -0.035825200378894806 -0.013210169970989227 0.07160934805870056
v -0.0301032904535532 -0.013210169970989227 0.07325171679258347
v -0.0290372297167778 -0.143064945936203 0.0728052482008934
v -0.06433683633804321 -0.143064945936203 0.07395332306623459
v -0.07013490051031113 -0.143064945936203 0.07728589326143265
v -0.06824210286140442 -0.013210169970989227 0.07624944299459457
v -0.06433683633804321 -0.143064945936203 0.07395332306623459
v -0.06824210286140442 -0.013210169970989227 0.07624944299459457
v -0.06461966782808304 -0.013210169970989227 0.07462301105260849
v -0.0290372297167778 -0.143064945936203 0.0728052482008934
v -0.0301032904535532 -0.013210169970989227 0.07325171679258347
v -0.02476211078464985 -0.013210169970989227 0.07503759860992432
v -0.050173480063676834 -0.013210169970989227 0.07055695354938507
v -0.0301032904535532 -0.013210169970989227 0.07325171679258347
v -0.035825200378894806 -0.013210169970989227 0.07160934805870056
v -0.050173480063676834 -0.013210169970989227 0.07055695354938507
v -0.035825200378894806 -0.013210169970989227 0.07160934805870056
v -0.04154710844159126 -0.013210169970989227 0.07038155943155289
v -0.0001339699956588447 -0.013210169970989227 0.11461394280195236
v -4.695000097854063e-05 -0.013210169970989227 0.1203383207321167
v 0.000594860001001507 -0.143064945936203 0.11915837228298187
v -0.09225018322467804 -0.143064945936203 0.10888955742120743
v -0.0926961898803711 -0.143064945936203 0.11461394280195236
v -0.11050371825695038 -0.07514990866184235 0.21183271706104279
v -0.04725813865661621 -0.013210169970989227 0.07022210210561752
v -0.04154710844159126 -0.013210169970989227 0.07038155943155289
v -0.04154710844159126 -0.143064945936203 0.06998292356729507
v -0.052980050444602966 -0.143064945936203 0.0707801878452301
v -0.058691080659627914 -0.143064945936203 0.07213553786277771
v -0.054861970245838165 -0.013210169970989227 0.07143394649028778
v -0.054861970245838165 -0.013210169970989227 0.07143394649028778
v -0.058691080659627914 -0.143064945936203 0.07213553786277771
v -0.05945254862308502 -0.013210169970989227 0.07275740802288055
v -0.04154710844159126 -0.143064945936203 0.06998292356729507
v -0.04154710844159126 -0.013210169970989227 0.07038155943155289
v -0.03850122168660164 -0.143064945936203 0.07054100930690765
v -0.09223929792642593 -0.013210169970989227 0.10888955742120743
v -0.11051460355520248 -0.04082370176911354 0.21183271706104279
v -0.09273970127105713 -0.013210169970989227 0.11461394280195236
v 0.000594860001001507 -0.143064945936203 0.11915837228298187
v -4.695000097854063e-05 -0.013210169970989227 0.1203383207321167
v 0.00033378999796696007 -0.143064945936203 0.1251538246870041
v -0.09102094918489456 -0.143064945936203 0.10319706797599792
v -0.09117323905229568 -0.143064945936203 0.10378704965114594
v -0.09101007133722305 -0.013210169970989227 0.10324490815401077
v -0.09102094918489456 -0.143064945936203 0.10319706797599792
v -0.09101007133722305 -0.013210169970989227 0.10324490815401077
v -0.08987875282764435 -0.013210169970989227 0.10024718195199966
v -0.11050371825695038 -0.07514990866184235 0.21183271706104279
v -0.1104167029261589 -0.07514990866184235 0.21755710244178772
v -0.11051460355520248 -0.04082370176911354 0.21183271706104279
v -0.11050371825695038 -0.07514990866184235 0.21183271706104279
v -0.11051460355520248 -0.04082370176911354 0.21183271706104279
v -0.11011210829019547 -0.04654473066329956 0.20610834658145905
v -0.11050371825695038 -0.07514990866184235 0.21183271706104279
v -0.11011210829019547 -0.04654473066329956 0.20610834658145905
v -0.1097748875617981 -0.06942886859178543 0.20610834658145905
v -0.11050371825695038 -0.07514990866184235 0.21183271706104279
v -0.0926961898803711 -0.143064945936203 0.1153155267238617
v -0.09267442673444748 -0.143064945936203 0.1203383207321167
v -0.09117323905229568 -0.143064945936203 0.10378704965114594
v -0.09223929792642593 -0.013210169970989227 0.10888955742120743
v -0.09101007133722305 -0.013210169970989227 0.10324490815401077
v -0.0001339699956588447 -0.013210169970989227 0.11461394280195236
v 0.000594860001001507 -0.143064945936203 0.11915837228298187
v 0.0003881799930240959 -0.143064945936203 0.11357749253511429
v -0.08467899262905121 -0.143064945936203 0.09174831956624985
v -0.08762697130441666 -0.143064945936203 0.09610140323638916
v -0.08380872756242752 -0.013210169970989227 0.09042485058307648
v -0.08380872756242752 -0.013210169970989227 0.09042485058307648
v -0.08762697130441666 -0.143064945936203 0.09610140323638916
v -0.08577767759561539 -0.013210169970989227 0.09345447272062302
v -0.006497689988464117 -0.04082370176911354 0.23273706436157227
v -0.058865129947662354 -0.01537145022302866 0.23273706436157227
v -0.06441298872232437 -0.016083400696516037 0.23273706436157227
v -0.006497689988464117 -0.04082370176911354 0.23273706436157227
v -0.06441298872232437 -0.016083400696516037 0.23273706436157227
v -0.06814418733119965 -0.01676991954445839 0.23273706436157227
v -0.006497689988464117 -0.04082370176911354 0.23273706436157227
v -0.06814418733119965 -0.01676991954445839 0.23273706436157227
v -0.07013490051031113 -0.017138609662652016 0.23273706436157227
v -0.006497689988464117 -0.04082370176911354 0.23273706436157227
v -0.07013490051031113 -0.017138609662652016 0.23273706436157227
v -0.0738660991191864 -0.018155690282583237 0.23273706436157227
v -0.006497689988464117 -0.04082370176911354 0.23273706436157227
v -0.016070470213890076 -0.02092720940709114 0.23273706436157227
v -0.018931420519948006 -0.019732149317860603 0.23273706436157227
v -0.006497689988464117 -0.04082370176911354 0.23273706436157227
v -0.018931420519948006 -0.019732149317860603 0.23273706436157227
v -0.022510340437293053 -0.018498949706554413 0.23273706436157227
v -0.11039494723081589 -0.04082370176911354 0.21755710244178772
v -0.10855653136968613 -0.04246373102068901 0.22729970514774323
v -0.10919834673404694 -0.04067113995552063 0.22301040589809418
v -0.11039494723081589 -0.04082370176911354 0.21755710244178772
v -0.10919834673404694 -0.04067113995552063 0.22301040589809418
v -0.10848038643598557 -0.037391070276498795 0.21755710244178772
v -0.0010912499856203794 -0.013210169970989227 0.10295788943767548
v -0.0005582200246863067 -0.013210169970989227 0.10888955742120743
v -0.00043856000411324203 -0.143064945936203 0.10169821232557297
v -0.00043856000411324203 -0.143064945936203 0.10169821232557297
v -0.0005582200246863067 -0.013210169970989227 0.10888955742120743
v -0.0001339699956588447 -0.013210169970989227 0.11461394280195236
v -0.00043856000411324203 -0.143064945936203 0.10169821232557297
v -0.0001339699956588447 -0.013210169970989227 0.11461394280195236
v 0.0003881799930240959 -0.143064945936203 0.11357749253511429
v -0.09117323905229568 -0.143064945936203 0.10378704965114594
v -0.09225018322467804 -0.143064945936203 0.10888955742120743
v -0.09223929792642593 -0.013210169970989227 0.10888955742120743
v -0.010838080197572708 -0.143064945936203 0.08385536819696426
v -0.01126231998205185 -0.013210169970989227 0.0858166515827179
v -0.006987209897488356 -0.013210169970989227 0.09168454259634018
v -0.010838080197572708 -0.143064945936203 0.08385536819696426
v -0.006987209897488356 -0.013210169970989227 0.09168454259634018
v -0.006106080021709204 -0.143064945936203 0.09045673906803131
v -0.1104167029261589 -0.07514990866184235 0.21755710244178772
v -0.0996146872639656 -0.10372965037822723 0.22898991405963898
v -0.10931801050901413 -0.07530246675014496 0.223042294383049
v -0.1104167029261589 -0.07514990866184235 0.21755710244178772
v -0.10931801050901413 -0.07530246675014496 0.223042294383049
v -0.10869795083999634 -0.07350987941026688 0.22750699520111084
v -0.006987209897488356 -0.013210169970989227 0.09168454259634018
v -0.0034953199792653322 -0.013210169970989227 0.09745675325393677
v -0.006106080021709204 -0.143064945936203 0.09045673906803131
v -0.006106080021709204 -0.143064945936203 0.09045673906803131
v -0.0034953199792653322 -0.013210169970989227 0.09745675325393677
v -0.0036367399152368307 -0.143064945936203 0.09490550309419632
v -0.08762697130441666 -0.143064945936203 0.09610140323638916
v -0.09102094918489456 -0.143064945936203 0.10319706797599792
v -0.08987875282764435 -0.013210169970989227 0.10024718195199966
v -0.08762697130441666 -0.143064945936203 0.09610140323638916
v -0.08987875282764435 -0.013210169970989227 0.10024718195199966
v -0.08577767759561539 -0.013210169970989227 0.09345447272062302
v -0.11039494723081589 -0.04082370176911354 0.21755710244178772
v -0.11009036004543304 -0.06942886859178543 0.22328147292137146
v -0.10964435338973999 -0.04654473066329956 0.22328147292137146
v -0.11039494723081589 -0.04082370176911354 0.21755710244178772
v -0.10964435338973999 -0.04654473066329956 0.22328147292137146
v -0.10855653136968613 -0.04246373102068901 0.22729970514774323
v 0.00033378999796696007 -0.143064945936203 0.1251538246870041
v -0.007890099659562111 -0.1266137957572937 0.23273706436157227
v -0.008999669924378395 -0.12885135412216187 0.23273706436157227
v 0.00033378999796696007 -0.143064945936203 0.1251538246870041
v -0.008999669924378395 -0.12885135412216187 0.23273706436157227
v -0.009587090462446213 -0.1300337016582489 0.23273706436157227
v -0.10863267630338669 -0.03731479123234749 0.21183271706104279
v -0.10848038643598557 -0.037391070276498795 0.21755710244178772
v -0.0927070677280426 -0.013210169970989227 0.1203383207321167
v -0.0927070677280426 -0.013210169970989227 0.1203383207321167
v -0.10848038643598557 -0.037391070276498795 0.21755710244178772
v -0.0924459919333458 -0.013210169970989227 0.12509003281593323
v -0.0007649100152775645 -0.143064945936203 0.13186681270599365
v -0.009587090462446213 -0.1300337016582489 0.23273706436157227
v -0.01294844038784504 -0.13276708126068115 0.23273706436157227
v -0.0007649100152775645 -0.143064945936203 0.13186681270599365
v -0.01294844038784504 -0.13276708126068115 0.23273706436157227
v -0.016103100031614304 -0.13505549728870392 0.23273706436157227
v -0.1104167029261589 -0.07514990866184235 0.21755710244178772
v -0.09267442673444748 -0.143064945936203 0.1203383207321167
v -0.10002806037664413 -0.10945069044828415 0.21755710244178772
v -0.1104167029261589 -0.07514990866184235 0.21755710244178772
v -0.10002806037664413 -0.10945069044828415 0.21755710244178772
v -0.0996146872639656 -0.10372965037822723 0.22898991405963898
v -0.11051460355520248 -0.04082370176911354 0.21183271706104279
v -0.11039494723081589 -0.04082370176911354 0.21755710244178772
v -0.10863267630338669 -0.03731479123234749 0.21183271706104279
v -0.11051460355520248 -0.04082370176911354 0.21183271706104279
v -0.10863267630338669 -0.03731479123234749 0.21183271706104279
v -0.09273970127105713 -0.013210169970989227 0.11461394280195236
v -0.006497689988464117 -0.04082370176911354 0.23273706436157227
v -0.06639280915260315 -0.13955603539943695 0.23273706436157227
v -0.06441298872232437 -0.13991202414035797 0.23273706436157227
v -0.006497689988464117 -0.04082370176911354 0.23273706436157227
v -0.06441298872232437 -0.13991202414035797 0.23273706436157227
v -0.060823190957307816 -0.14038242399692535 0.23273706436157227
v -0.006497689988464117 -0.04082370176911354 0.23273706436157227
v -0.060823190957307816 -0.14038242399692535 0.23273706436157227
v -0.05887601152062416 -0.14062397181987762 0.23273706436157227
v -0.006497689988464117 -0.04082370176911354 0.23273706436157227
v -0.05887601152062416 -0.14062397181987762 0.23273706436157227
v -0.05602592974901199 -0.14092908799648285 0.23273706436157227
v -0.006497689988464117 -0.04082370176911354 0.23273706436157227
v -0.09678637236356735 -0.10745467990636826 0.23273706436157227
v -0.09050968289375305 -0.12470678240060806 0.23273706436157227
v -0.006497689988464117 -0.04082370176911354 0.23273706436157227
v -0.09050968289375305 -0.12470678240060806 0.23273706436157227
v -0.08924780786037445 -0.12756730616092682 0.23273706436157227
v -0.006497689988464117 -0.04082370176911354 0.23273706436157227
v -0.07991436123847961 -0.02022797055542469 0.23273706436157227
v -0.0809042677283287 -0.02076192945241928 0.23273706436157227
v -0.006497689988464117 -0.04082370176911354 0.23273706436157227
v -0.0809042677283287 -0.02076192945241928 0.23273706436157227
v -0.0827753096818924 -0.021779010072350502 0.23273706436157227
v 0.00033378999796696007 -0.143064945936203 0.1251538246870041
v -0.009587090462446213 -0.1300337016582489 0.23273706436157227
v -0.0007649100152775645 -0.143064945936203 0.13186681270599365
v -0.0003080200112890452 -0.013210169970989227 0.12604674696922302
v -0.0008628100040368736 -0.013210169970989227 0.13186681270599365
v -0.006595599930733442 -0.035102661699056625 0.23273706436157227
v -0.0003080200112890452 -0.013210169970989227 0.12604674696922302
v -0.006595599930733442 -0.035102661699056625 0.23273706436157227
v -0.006530330050736666 -0.0388403981924057 0.23273706436157227
v -0.0003080200112890452 -0.013210169970989227 0.12604674696922302
v -0.006530330050736666 -0.0388403981924057 0.23273706436157227
v -0.006497689988464117 -0.04082370176911354 0.23273706436157227
v -0.11050371825695038 -0.07514990866184235 0.21183271706104279
v -0.09267442673444748 -0.143064945936203 0.1203383207321167
v -0.1104167029261589 -0.07514990866184235 0.21755710244178772
v -0.11051460355520248 -0.04082370176911354 0.21183271706104279
v -0.1104167029261589 -0.07514990866184235 0.21755710244178772
v -0.11039494723081589 -0.04082370176911354 0.21755710244178772
v -0.006497689988464117 -0.04082370176911354 0.23273706436157227
v -0.053752388805150986 -0.015066320076584816 0.23273706436157227
v -0.05600417032837868 -0.015066320076584816 0.23273706436157227
v -0.006497689988464117 -0.04082370176911354 0.23273706436157227
v -0.05600417032837868 -0.015066320076584816 0.23273706436157227
v -0.058865129947662354 -0.01537145022302866 0.23273706436157227
v -0.09273970127105713 -0.013210169970989227 0.11461394280195236
v -0.10863267630338669 -0.03731479123234749 0.21183271706104279
v -0.0927070677280426 -0.013210169970989227 0.1203383207321167
v 0.00033378999796696007 -0.143064945936203 0.1251538246870041
v -0.0003080200112890452 -0.013210169970989227 0.12604674696922302
v -0.006497689988464117 -0.04082370176911354 0.23273706436157227
v 0.00033378999796696007 -0.143064945936203 0.1251538246870041
v -0.006497689988464117 -0.04082370176911354 0.23273706436157227
v -0.006497689988464117 -0.11517173051834106 0.23273706436157227
v 0.00033378999796696007 -0.143064945936203 0.1251538246870041
v -0.006497689988464117 -0.11517173051834106 0.23273706436157227
v -0.006595599930733442 -0.12089276313781738 0.23273706436157227
v -0.006497689988464117 -0.04082370176911354 0.23273706436157227
v -0.0738660991191864 -0.018155690282583237 0.23273706436157227
v -0.07584592700004578 -0.01870235987007618 0.23273706436157227
v -0.006497689988464117 -0.04082370176911354 0.23273706436157227
v -0.07584592700004578 -0.01870235987007618 0.23273706436157227
v -0.07991436123847961 -0.02022797055542469 0.23273706436157227
v -0.006497689988464117 -0.04082370176911354 0.23273706436157227
v -0.022510340437293053 -0.018498949706554413 0.23273706436157227
v -0.024381380528211594 -0.017863279208540916 0.23273706436157227
v -0.006497689988464117 -0.04082370176911354 0.23273706436157227
v -0.024381380528211594 -0.017863279208540916 0.23273706436157227
v -0.0301032904535532 -0.01651564985513687 0.23273706436157227
v -0.006497689988464117 -0.04082370176911354 0.23273706436157227
v -0.0827753096818924 -0.021779010072350502 0.23273706436157227
v -0.08639772981405258 -0.024639520794153214 0.23273706436157227
v -0.006497689988464117 -0.04082370176911354 0.23273706436157227
v -0.08639772981405258 -0.024639520794153214 0.23273706436157227
v -0.08738763630390167 -0.025936290621757507 0.23273706436157227
v -0.006497689988464117 -0.04082370176911354 0.23273706436157227
v -0.08738763630390167 -0.025936290621757507 0.23273706436157227
v -0.08925869315862656 -0.028389979153871536 0.23273706436157227
v -0.006497689988464117 -0.04082370176911354 0.23273706436157227
v -0.08925869315862656 -0.028389979153871536 0.23273706436157227
v -0.09050968289375305 -0.031250499188899994 0.23273706436157227
v -0.006497689988464117 -0.04082370176911354 0.23273706436157227
v -0.041775550693273544 -0.015193459577858448 0.23273706436157227
v -0.04725813865661621 -0.01512989029288292 0.23273706436157227
v -0.006497689988464117 -0.04082370176911354 0.23273706436157227
v -0.04725813865661621 -0.01512989029288292 0.23273706436157227
v -0.053752388805150986 -0.015066320076584816 0.23273706436157227
v -0.006497689988464117 -0.04082370176911354 0.23273706436157227
v -0.006595599930733442 -0.035102661699056625 0.23273706436157227
v -0.007879219949245453 -0.02939433977007866 0.23273706436157227
v -0.006497689988464117 -0.04082370176911354 0.23273706436157227
v -0.007879219949245453 -0.02939433977007866 0.23273706436157227
v -0.008466639555990696 -0.02819927968084812 0.23273706436157227
v -0.0996146872639656 -0.10372965037822723 0.22898991405963898
v -0.09050968289375305 -0.12470678240060806 0.23273706436157227
v -0.09678637236356735 -0.10745467990636826 0.23273706436157227
v -0.0996146872639656 -0.10372965037822723 0.22898991405963898
v -0.09678637236356735 -0.10745467990636826 0.23273706436157227
v -0.10869795083999634 -0.07350987941026688 0.22750699520111084
v -0.0996146872639656 -0.10372965037822723 0.22898991405963898
v -0.10869795083999634 -0.07350987941026688 0.22750699520111084
v -0.10931801050901413 -0.07530246675014496 0.223042294383049
v -0.10869795083999634 -0.07350987941026688 0.22750699520111084
v -0.09678637236356735 -0.10745467990636826 0.23273706436157227
v -0.09776540845632553 -0.10372965037822723 0.23273706436157227
v -0.006497689988464117 -0.04082370176911354 0.23273706436157227
v -0.0074332100339233875 -0.12463050335645676 0.23273706436157227
v -0.006595599930733442 -0.12089276313781738 0.23273706436157227
v -0.006497689988464117 -0.04082370176911354 0.23273706436157227
v -0.006595599930733442 -0.12089276313781738 0.23273706436157227
v -0.006497689988464117 -0.11517173051834106 0.23273706436157227
v -0.006497689988464117 -0.04082370176911354 0.23273706436157227
v -0.053556591272354126 -0.1409418135881424 0.23273706436157227
v -0.04725813865661621 -0.1408909559249878 0.23273706436157227
v -0.006497689988464117 -0.04082370176911354 0.23273706436157227
v -0.04725813865661621 -0.1408909559249878 0.23273706436157227
v -0.043483421206474304 -0.14085280895233154 0.23273706436157227
v -0.006497689988464117 -0.04082370176911354 0.23273706436157227
v -0.0301032904535532 -0.01651564985513687 0.23273706436157227
v -0.033834490925073624 -0.015918120741844177 0.23273706436157227
v -0.006497689988464117 -0.04082370176911354 0.23273706436157227
v -0.033834490925073624 -0.015918120741844177 0.23273706436157227
v -0.035825200378894806 -0.015600290149450302 0.23273706436157227
v -0.006497689988464117 -0.04082370176911354 0.23273706436157227
v -0.035825200378894806 -0.015600290149450302 0.23273706436157227
v -0.03953465074300766 -0.015346020460128784 0.23273706436157227
v -0.006497689988464117 -0.04082370176911354 0.23273706436157227
v -0.03953465074300766 -0.015346020460128784 0.23273706436157227
v -0.041775550693273544 -0.015193459577858448 0.23273706436157227
v -0.0007649100152775645 -0.143064945936203 0.13186681270599365
v -0.016103100031614304 -0.13505549728870392 0.23273706436157227
v -0.007683409843593836 -0.143064945936203 0.15463675558567047
v -0.006497689988464117 -0.04082370176911354 0.23273706436157227
v -0.006530330050736666 -0.0388403981924057 0.23273706436157227
v -0.006595599930733442 -0.035102661699056625 0.23273706436157227
v -0.006497689988464117 -0.04082370176911354 0.23273706436157227
v -0.0721147209405899 -0.13833555579185486 0.23273706436157227
v -0.07013490051031113 -0.1388695240020752 0.23273706436157227
v -0.006497689988464117 -0.04082370176911354 0.23273706436157227
v -0.07013490051031113 -0.1388695240020752 0.23273706436157227
v -0.06639280915260315 -0.13955603539943695 0.23273706436157227
v -0.006497689988464117 -0.04082370176911354 0.23273706436157227
v -0.008466639555990696 -0.02819927968084812 0.23273706436157227
v -0.009587090462446213 -0.025949010625481606 0.23273706436157227
v -0.006497689988464117 -0.04082370176911354 0.23273706436157227
v -0.009587090462446213 -0.025949010625481606 0.23273706436157227
v -0.011784479953348637 -0.024143699556589127 0.23273706436157227
v -0.006497689988464117 -0.04082370176911354 0.23273706436157227
v -0.011784479953348637 -0.024143699556589127 0.23273706436157227
v -0.01294844038784504 -0.023202909156680107 0.23273706436157227
v -0.006497689988464117 -0.04082370176911354 0.23273706436157227
v -0.01294844038784504 -0.023202909156680107 0.23273706436157227
v -0.016070470213890076 -0.02092720940709114 0.23273706436157227
v -0.006497689988464117 -0.04082370176911354 0.23273706436157227
v -0.05602592974901199 -0.14092908799648285 0.23273706436157227
v -0.0538938082754612 -0.1409418135881424 0.23273706436157227
v -0.006497689988464117 -0.04082370176911354 0.23273706436157227
v -0.0538938082754612 -0.1409418135881424 0.23273706436157227
v -0.053556591272354126 -0.1409418135881424 0.23273706436157227
v -0.006497689988464117 -0.04082370176911354 0.23273706436157227
v -0.08924780786037445 -0.12756730616092682 0.23273706436157227
v -0.08638685941696167 -0.13139404356479645 0.23273706436157227
v -0.006497689988464117 -0.04082370176911354 0.23273706436157227
v -0.08638685941696167 -0.13139404356479645 0.23273706436157227
v -0.08404804766178131 -0.13326291739940643 0.23273706436157227
v -0.006497689988464117 -0.04082370176911354 0.23273706436157227
v -0.043483421206474304 -0.14085280895233154 0.23273706436157227
v -0.04156886041164398 -0.1408146768808365 0.23273706436157227
v -0.006497689988464117 -0.04082370176911354 0.23273706436157227
v -0.04156886041164398 -0.1408146768808365 0.23273706436157227
v -0.035825200378894806 -0.1403951346874237 0.23273706436157227
v -0.006497689988464117 -0.04082370176911354 0.23273706436157227
v -0.035825200378894806 -0.1403951346874237 0.23273706436157227
v -0.0301032904535532 -0.1394670456647873 0.23273706436157227
v -0.006497689988464117 -0.04082370176911354 0.23273706436157227
v -0.0301032904535532 -0.1394670456647873 0.23273706436157227
v -0.024381380528211594 -0.1381194293498993 0.23273706436157227
v -0.006497689988464117 -0.04082370176911354 0.23273706436157227
v -0.0772600919008255 -0.13678452372550964 0.23273706436157227
v -0.07584592700004578 -0.13730576634407043 0.23273706436157227
v -0.006497689988464117 -0.04082370176911354 0.23273706436157227
v -0.07584592700004578 -0.13730576634407043 0.23273706436157227
v -0.0721147209405899 -0.13833555579185486 0.23273706436157227
v -0.006497689988464117 -0.04082370176911354 0.23273706436157227
v -0.09839633852243423 -0.052265770733356476 0.23273706436157227
v -0.09928835183382034 -0.060465920716524124 0.23273706436157227
v -0.006497689988464117 -0.04082370176911354 0.23273706436157227
v -0.09928835183382034 -0.060465920716524124 0.23273706436157227
v -0.0992339625954628 -0.06370784342288971 0.23273706436157227
v -0.0010368600487709045 -0.013210169970989227 0.1329829841852188
v -0.011784479953348637 -0.024143699556589127 0.23273706436157227
v -0.009587090462446213 -0.025949010625481606 0.23273706436157227
v -0.08924780786037445 -0.12756730616092682 0.23273706436157227
v -0.0914452001452446 -0.143064945936203 0.13819710910320282
v -0.08638685941696167 -0.13139404356479645 0.23273706436157227
v -0.0914452001452446 -0.143064945936203 0.13819710910320282
v -0.09059669822454453 -0.143064945936203 0.1432996243238449
v -0.08638685941696167 -0.13139404356479645 0.23273706436157227
v -0.09776540845632553 -0.10372965037822723 0.23273706436157227
v -0.09801560640335083 -0.09908925741910934 0.23273706436157227
v -0.10444459319114685 -0.06942886859178543 0.2301539182662964
v -0.10855653136968613 -0.04246373102068901 0.22729970514774323
v -0.09681901335716248 -0.04798135161399841 0.23273706436157227
v -0.09050968289375305 -0.031250499188899994 0.23273706436157227
v -0.10855653136968613 -0.04246373102068901 0.22729970514774323
v -0.09050968289375305 -0.031250499188899994 0.23273706436157227
v -0.08925869315862656 -0.028389979153871536 0.23273706436157227
v -0.11009036004543304 -0.06942886859178543 0.22328147292137146
v -0.10871970653533936 -0.06942886859178543 0.22768239676952362
v -0.10855653136968613 -0.04246373102068901 0.22729970514774323
v -0.11009036004543304 -0.06942886859178543 0.22328147292137146
v -0.10855653136968613 -0.04246373102068901 0.22729970514774323
v -0.10964435338973999 -0.04654473066329956 0.22328147292137146
v -0.006497689988464117 -0.04082370176911354 0.23273706436157227
v -0.08404804766178131 -0.13326291739940643 0.23273706436157227
v -0.0827861875295639 -0.1342545449733734 0.23273706436157227
v -0.006497689988464117 -0.04082370176911354 0.23273706436157227
v -0.0827861875295639 -0.1342545449733734 0.23273706436157227
v -0.08179628103971481 -0.13478851318359375 0.23273706436157227
v -0.006497689988464117 -0.04082370176911354 0.23273706436157227
v -0.08179628103971481 -0.13478851318359375 0.23273706436157227
v -0.07992523163557053 -0.13578015565872192 0.23273706436157227
v -0.006497689988464117 -0.04082370176911354 0.23273706436157227
v -0.07992523163557053 -0.13578015565872192 0.23273706436157227
v -0.0772600919008255 -0.13678452372550964 0.23273706436157227
v -0.006497689988464117 -0.04082370176911354 0.23273706436157227
v -0.09050968289375305 -0.031250499188899994 0.23273706436157227
v -0.09681901335716248 -0.04798135161399841 0.23273706436157227
v -0.006497689988464117 -0.04082370176911354 0.23273706436157227
v -0.09681901335716248 -0.04798135161399841 0.23273706436157227
v -0.09839633852243423 -0.052265770733356476 0.23273706436157227
v -0.10002806037664413 -0.10945069044828415 0.21755710244178772
v -0.09202174097299576 -0.143064945936203 0.13247272372245789
v -0.0914452001452446 -0.143064945936203 0.13819710910320282
v -0.10002806037664413 -0.10945069044828415 0.21755710244178772
v -0.0914452001452446 -0.143064945936203 0.13819710910320282
v -0.08924780786037445 -0.12756730616092682 0.23273706436157227
v -0.006497689988464117 -0.04082370176911354 0.23273706436157227
v -0.0992339625954628 -0.06370784342288971 0.23273706436157227
v -0.09806998819112778 -0.09800861775875092 0.23273706436157227
v -0.006497689988464117 -0.04082370176911354 0.23273706436157227
v -0.09806998819112778 -0.09800861775875092 0.23273706436157227
v -0.09801560640335083 -0.09908925741910934 0.23273706436157227
v -0.006497689988464117 -0.04082370176911354 0.23273706436157227
v -0.09801560640335083 -0.09908925741910934 0.23273706436157227
v -0.09776540845632553 -0.10372965037822723 0.23273706436157227
v -0.006497689988464117 -0.04082370176911354 0.23273706436157227
v -0.09776540845632553 -0.10372965037822723 0.23273706436157227
v -0.09678637236356735 -0.10745467990636826 0.23273706436157227
v -0.10869795083999634 -0.07350987941026688 0.22750699520111084
v -0.09776540845632553 -0.10372965037822723 0.23273706436157227
v -0.10871970653533936 -0.06942886859178543 0.22768239676952362
v -0.10869795083999634 -0.07350987941026688 0.22750699520111084
v -0.10871970653533936 -0.06942886859178543 0.22768239676952362
v -0.11009036004543304 -0.06942886859178543 0.22328147292137146
v -0.0008628100040368736 -0.013210169970989227 0.13186681270599365
v -0.0010368600487709045 -0.013210169970989227 0.1329829841852188
v -0.009587090462446213 -0.025949010625481606 0.23273706436157227
v -0.0008628100040368736 -0.013210169970989227 0.13186681270599365
v -0.009587090462446213 -0.025949010625481606 0.23273706436157227
v -0.008466639555990696 -0.02819927968084812 0.23273706436157227
v -0.10848038643598557 -0.037391070276498795 0.21755710244178772
v -0.10919834673404694 -0.04067113995552063 0.22301040589809418
v -0.10781682282686234 -0.03774705156683922 0.22093750536441803
v -0.10848038643598557 -0.037391070276498795 0.21755710244178772
v -0.10781682282686234 -0.03774705156683922 0.22093750536441803
v -0.0827753096818924 -0.021779010072350502 0.23273706436157227
v -0.10848038643598557 -0.037391070276498795 0.21755710244178772
v -0.0827753096818924 -0.021779010072350502 0.23273706436157227
v -0.09053143113851547 -0.013210169970989227 0.14403310418128967
v -0.10848038643598557 -0.037391070276498795 0.21755710244178772
v -0.09053143113851547 -0.013210169970989227 0.14403310418128967
v -0.09072723984718323 -0.013210169970989227 0.14293287694454193
v -0.10002806037664413 -0.10945069044828415 0.21755710244178772
v -0.09264179319143295 -0.143064945936203 0.12103991955518723
v -0.09239160269498825 -0.143064945936203 0.12606270611286163
v -0.10002806037664413 -0.10945069044828415 0.21755710244178772
v -0.09239160269498825 -0.143064945936203 0.12606270611286163
v -0.09202174097299576 -0.143064945936203 0.13247272372245789
v -0.006497689988464117 -0.04082370176911354 0.23273706436157227
v -0.01797414943575859 -0.13584372401237488 0.23273706436157227
v -0.016103100031614304 -0.13505549728870392 0.23273706436157227
v -0.006497689988464117 -0.04082370176911354 0.23273706436157227
v -0.016103100031614304 -0.13505549728870392 0.23273706436157227
v -0.01294844038784504 -0.13276708126068115 0.23273706436157227
v -0.09054230898618698 -0.143064945936203 0.1435706913471222
v -0.07584592700004578 -0.13730576634407043 0.23273706436157227
v -0.0772600919008255 -0.13678452372550964 0.23273706436157227
v -0.09054230898618698 -0.143064945936203 0.1435706913471222
v -0.0772600919008255 -0.13678452372550964 0.23273706436157227
v -0.07992523163557053 -0.13578015565872192 0.23273706436157227
v -0.09054230898618698 -0.143064945936203 0.1435706913471222
v -0.07992523163557053 -0.13578015565872192 0.23273706436157227
v -0.08179628103971481 -0.13478851318359375 0.23273706436157227
v -0.09054230898618698 -0.143064945936203 0.1435706913471222
v -0.08179628103971481 -0.13478851318359375 0.23273706436157227
v -0.0827861875295639 -0.1342545449733734 0.23273706436157227
v -0.08638685941696167 -0.13139404356479645 0.23273706436157227
v -0.09059669822454453 -0.143064945936203 0.1432996243238449
v -0.09054230898618698 -0.143064945936203 0.1435706913471222
v -0.08638685941696167 -0.13139404356479645 0.23273706436157227
v -0.09054230898618698 -0.143064945936203 0.1435706913471222
v -0.08404804766178131 -0.13326291739940643 0.23273706436157227
v -0.0827753096818924 -0.021779010072350502 0.23273706436157227
v -0.0809042677283287 -0.02076192945241928 0.23273706436157227
v -0.09053143113851547 -0.013210169970989227 0.14403310418128967
v -0.09053143113851547 -0.013210169970989227 0.14403310418128967
v -0.0809042677283287 -0.02076192945241928 0.23273706436157227
v -0.07991436123847961 -0.02022797055542469 0.23273706436157227
v -0.0008628100040368736 -0.013210169970989227 0.13186681270599365
v -0.008466639555990696 -0.02819927968084812 0.23273706436157227
v -0.007879219949245453 -0.02939433977007866 0.23273706436157227
v -0.0008628100040368736 -0.013210169970989227 0.13186681270599365
v -0.007879219949245453 -0.02939433977007866 0.23273706436157227
v -0.006595599930733442 -0.035102661699056625 0.23273706436157227
v -0.10002806037664413 -0.10945069044828415 0.21755710244178772
v -0.08924780786037445 -0.12756730616092682 0.23273706436157227
v -0.09050968289375305 -0.12470678240060806 0.23273706436157227
v -0.10002806037664413 -0.10945069044828415 0.21755710244178772
v -0.09050968289375305 -0.12470678240060806 0.23273706436157227
v -0.0996146872639656 -0.10372965037822723 0.22898991405963898
v -0.006497689988464117 -0.04082370176911354 0.23273706436157227
v -0.024381380528211594 -0.1381194293498993 0.23273706436157227
v -0.01896405965089798 -0.1362505555152893 0.23273706436157227
v -0.006497689988464117 -0.04082370176911354 0.23273706436157227
v -0.01896405965089798 -0.1362505555152893 0.23273706436157227
v -0.01797414943575859 -0.13584372401237488 0.23273706436157227
v -0.0010368600487709045 -0.013210169970989227 0.1329829841852188
v -0.016070470213890076 -0.02092720940709114 0.23273706436157227
v -0.01294844038784504 -0.023202909156680107 0.23273706436157227
v -0.0010368600487709045 -0.013210169970989227 0.1329829841852188
v -0.01294844038784504 -0.023202909156680107 0.23273706436157227
v -0.011784479953348637 -0.024143699556589127 0.23273706436157227
v -0.006497689988464117 -0.04082370176911354 0.23273706436157227
v -0.01294844038784504 -0.13276708126068115 0.23273706436157227
v -0.009587090462446213 -0.1300337016582489 0.23273706436157227
v -0.006497689988464117 -0.04082370176911354 0.23273706436157227
v -0.009587090462446213 -0.1300337016582489 0.23273706436157227
v -0.008999669924378395 -0.12885135412216187 0.23273706436157227
v -0.006497689988464117 -0.04082370176911354 0.23273706436157227
v -0.008999669924378395 -0.12885135412216187 0.23273706436157227
v -0.007890099659562111 -0.1266137957572937 0.23273706436157227
v -0.006497689988464117 -0.04082370176911354 0.23273706436157227
v -0.007890099659562111 -0.1266137957572937 0.23273706436157227
v -0.0074332100339233875 -0.12463050335645676 0.23273706436157227
v -0.09776540845632553 -0.10372965037822723 0.23273706436157227
v -0.10444459319114685 -0.06942886859178543 0.2301539182662964
v -0.10871970653533936 -0.06942886859178543 0.22768239676952362
v -0.10781682282686234 -0.03774705156683922 0.22093750536441803
v -0.08639772981405258 -0.024639520794153214 0.23273706436157227
v -0.0827753096818924 -0.021779010072350502 0.23273706436157227
v -0.10855653136968613 -0.04246373102068901 0.22729970514774323
v -0.08925869315862656 -0.028389979153871536 0.23273706436157227
v -0.08738763630390167 -0.025936290621757507 0.23273706436157227
v -0.10855653136968613 -0.04246373102068901 0.22729970514774323
v -0.08738763630390167 -0.025936290621757507 0.23273706436157227
v -0.08639772981405258 -0.024639520794153214 0.23273706436157227
v -0.09053143113851547 -0.013210169970989227 0.14403310418128967
v -0.07991436123847961 -0.02022797055542469 0.23273706436157227
v -0.09000927954912186 -0.013210169970989227 0.14581897854804993
v -0.10444459319114685 -0.06942886859178543 0.2301539182662964
v -0.09801560640335083 -0.09908925741910934 0.23273706436157227
v -0.09806998819112778 -0.09800861775875092 0.23273706436157227
v -0.10444459319114685 -0.06942886859178543 0.2301539182662964
v -0.09806998819112778 -0.09800861775875092 0.23273706436157227
v -0.0992339625954628 -0.06370784342288971 0.23273706436157227
v -0.10444459319114685 -0.06942886859178543 0.2301539182662964
v -0.0992339625954628 -0.06370784342288971 0.23273706436157227
v -0.09928835183382034 -0.060465920716524124 0.23273706436157227
v -0.007683409843593836 -0.143064945936203 0.15463675558567047
v -0.01896405965089798 -0.1362505555152893 0.23273706436157227
v -0.009315130300819874 -0.143064945936203 0.15903766453266144
v -0.0010368600487709045 -0.013210169970989227 0.1329829841852188
v -0.007900970056653023 -0.013210169970989227 0.15576888620853424
v -0.016070470213890076 -0.02092720940709114 0.23273706436157227
v -0.10848038643598557 -0.037391070276498795 0.21755710244178772
v -0.09206525981426239 -0.013210169970989227 0.13177113234996796
v -0.09239160269498825 -0.013210169970989227 0.12606270611286163
v -0.10848038643598557 -0.037391070276498795 0.21755710244178772
v -0.09239160269498825 -0.013210169970989227 0.12606270611286163
v -0.0924459919333458 -0.013210169970989227 0.12509003281593323
v -0.04725813865661621 -0.1408909559249878 0.23273706436157227
v -0.053556591272354126 -0.1409418135881424 0.23273706436157227
v -0.04154710844159126 -0.143064945936203 0.18179167807102203
v -0.04154710844159126 -0.143064945936203 0.18179167807102203
v -0.053556591272354126 -0.1409418135881424 0.23273706436157227
v -0.04725813865661621 -0.143064945936203 0.18219031393527985
v -0.014253820292651653 -0.013210169970989227 0.1662449687719345
v -0.014678070321679115 -0.013210169970989227 0.16665954887866974
v -0.041775550693273544 -0.015193459577858448 0.23273706436157227
v -0.014253820292651653 -0.013210169970989227 0.1662449687719345
v -0.041775550693273544 -0.015193459577858448 0.23273706436157227
v -0.03953465074300766 -0.015346020460128784 0.23273706436157227
v -0.06814418733119965 -0.01676991954445839 0.23273706436157227
v -0.06441298872232437 -0.016083400696516037 0.23273706436157227
v -0.085418701171875 -0.013210169970989227 0.15608778595924377
v -0.085418701171875 -0.013210169970989227 0.15608778595924377
v -0.06441298872232437 -0.016083400696516037 0.23273706436157227
v -0.08447229862213135 -0.013210169970989227 0.15777799487113953
v -0.07013490051031113 -0.017138609662652016 0.23273706436157227
v -0.085418701171875 -0.013210169970989227 0.15608778595924377
v -0.08620192855596542 -0.013210169970989227 0.15441353619098663
v -0.04156886041164398 -0.1408146768808365 0.23273706436157227
v -0.043483421206474304 -0.14085280895233154 0.23273706436157227
v -0.03590134158730507 -0.143064945936203 0.18065957725048065
v -0.10855653136968613 -0.04246373102068901 0.22729970514774323
v -0.08639772981405258 -0.024639520794153214 0.23273706436157227
v -0.10781682282686234 -0.03774705156683922 0.22093750536441803
v -0.10855653136968613 -0.04246373102068901 0.22729970514774323
v -0.10781682282686234 -0.03774705156683922 0.22093750536441803
v -0.10919834673404694 -0.04067113995552063 0.22301040589809418
v -0.007683409843593836 -0.143064945936203 0.15463675558567047
v -0.016103100031614304 -0.13505549728870392 0.23273706436157227
v -0.01797414943575859 -0.13584372401237488 0.23273706436157227
v -0.007683409843593836 -0.143064945936203 0.15463675558567047
v -0.01797414943575859 -0.13584372401237488 0.23273706436157227
v -0.01896405965089798 -0.1362505555152893 0.23273706436157227
v -0.10848038643598557 -0.037391070276498795 0.21755710244178772
v -0.09072723984718323 -0.013210169970989227 0.14293287694454193
v -0.09155397862195969 -0.013210169970989227 0.1374955028295517
v -0.10848038643598557 -0.037391070276498795 0.21755710244178772
v -0.09155397862195969 -0.013210169970989227 0.1374955028295517
v -0.09206525981426239 -0.013210169970989227 0.13177113234996796
v -0.08404804766178131 -0.13326291739940643 0.23273706436157227
v -0.09054230898618698 -0.143064945936203 0.1435706913471222
v -0.0827861875295639 -0.1342545449733734 0.23273706436157227
v -0.09054230898618698 -0.143064945936203 0.1435706913471222
v -0.08854073286056519 -0.143064945936203 0.14910373091697693
v -0.07584592700004578 -0.13730576634407043 0.23273706436157227
v -0.10855653136968613 -0.04246373102068901 0.22729970514774323
v -0.10871970653533936 -0.06942886859178543 0.22768239676952362
v -0.10444459319114685 -0.06942886859178543 0.2301539182662964
v -0.10855653136968613 -0.04246373102068901 0.22729970514774323
v -0.10444459319114685 -0.06942886859178543 0.2301539182662964
v -0.09928835183382034 -0.060465920716524124 0.23273706436157227
v -0.10855653136968613 -0.04246373102068901 0.22729970514774323
v -0.09928835183382034 -0.060465920716524124 0.23273706436157227
v -0.09839633852243423 -0.052265770733356476 0.23273706436157227
v -0.10855653136968613 -0.04246373102068901 0.22729970514774323
v -0.09839633852243423 -0.052265770733356476 0.23273706436157227
v -0.09681901335716248 -0.04798135161399841 0.23273706436157227
v -0.08867126703262329 -0.013210169970989227 0.14896021783351898
v -0.07013490051031113 -0.017138609662652016 0.23273706436157227
v -0.08620192855596542 -0.013210169970989227 0.15441353619098663
v -0.07013490051031113 -0.017138609662652016 0.23273706436157227
v -0.06814418733119965 -0.01676991954445839 0.23273706436157227
v -0.085418701171875 -0.013210169970989227 0.15608778595924377
v -0.09000927954912186 -0.013210169970989227 0.14581897854804993
v -0.07991436123847961 -0.02022797055542469 0.23273706436157227
v -0.07584592700004578 -0.01870235987007618 0.23273706436157227
v -0.09000927954912186 -0.013210169970989227 0.14581897854804993
v -0.07584592700004578 -0.01870235987007618 0.23273706436157227
v -0.0738660991191864 -0.018155690282583237 0.23273706436157227
v -0.04156886041164398 -0.1408146768808365 0.23273706436157227
v -0.03590134158730507 -0.143064945936203 0.18065957725048065
v -0.029776940122246742 -0.143064945936203 0.17755022644996643
v -0.04156886041164398 -0.1408146768808365 0.23273706436157227
v -0.029776940122246742 -0.143064945936203 0.17755022644996643
v -0.024239959195256233 -0.143064945936203 0.17455250024795532
v -0.04156886041164398 -0.1408146768808365 0.23273706436157227
v -0.024239959195256233 -0.143064945936203 0.17455250024795532
v -0.022608239203691483 -0.143064945936203 0.17340442538261414
v -0.04156886041164398 -0.1408146768808365 0.23273706436157227
v -0.022608239203691483 -0.143064945936203 0.17340442538261414
v -0.018931420519948006 -0.143064945936203 0.17040671408176422
v -0.009249869734048843 -0.013210169970989227 0.159197136759758
v -0.009695869870483875 -0.013210169970989227 0.1601538509130478
v -0.024381380528211594 -0.017863279208540916 0.23273706436157227
v -0.024381380528211594 -0.017863279208540916 0.23273706436157227
v -0.009695869870483875 -0.013210169970989227 0.1601538509130478
v -0.0301032904535532 -0.01651564985513687 0.23273706436157227
v -0.009315130300819874 -0.143064945936203 0.15903766453266144
v -0.0301032904535532 -0.1394670456647873 0.23273706436157227
v -0.035825200378894806 -0.1403951346874237 0.23273706436157227
v -0.009315130300819874 -0.143064945936203 0.15903766453266144
v -0.035825200378894806 -0.1403951346874237 0.23273706436157227
v -0.011164420284330845 -0.143064945936203 0.16193972527980804
v -0.08557099103927612 -0.143064945936203 0.15556159615516663
v -0.05887601152062416 -0.14062397181987762 0.23273706436157227
v -0.060823190957307816 -0.14038242399692535 0.23273706436157227
v -0.08557099103927612 -0.143064945936203 0.15556159615516663
v -0.060823190957307816 -0.14038242399692535 0.23273706436157227
v -0.06441298872232437 -0.13991202414035797 0.23273706436157227
v -0.09000927954912186 -0.013210169970989227 0.14581897854804993
v -0.0738660991191864 -0.018155690282583237 0.23273706436157227
v -0.07013490051031113 -0.017138609662652016 0.23273706436157227
v -0.09000927954912186 -0.013210169970989227 0.14581897854804993
v -0.07013490051031113 -0.017138609662652016 0.23273706436157227
v -0.08867126703262329 -0.013210169970989227 0.14896021783351898
v -0.035825200378894806 -0.1403951346874237 0.23273706436157227
v -0.04156886041164398 -0.1408146768808365 0.23273706436157227
v -0.014569279737770557 -0.143064945936203 0.16618119180202484
v -0.035825200378894806 -0.1403951346874237 0.23273706436157227
v -0.014569279737770557 -0.143064945936203 0.16618119180202484
v -0.011164420284330845 -0.143064945936203 0.16193972527980804
v -0.009315130300819874 -0.143064945936203 0.15903766453266144
v -0.01896405965089798 -0.1362505555152893 0.23273706436157227
v -0.024381380528211594 -0.1381194293498993 0.23273706436157227
v -0.009315130300819874 -0.143064945936203 0.15903766453266144
v -0.024381380528211594 -0.1381194293498993 0.23273706436157227
v -0.0301032904535532 -0.1394670456647873 0.23273706436157227
v -0.08447229862213135 -0.013210169970989227 0.15777799487113953
v -0.058865129947662354 -0.01537145022302866 0.23273706436157227
v -0.05600417032837868 -0.015066320076584816 0.23273706436157227
v -0.08447229862213135 -0.013210169970989227 0.15777799487113953
v -0.05600417032837868 -0.015066320076584816 0.23273706436157227
v -0.08230754733085632 -0.013210169970989227 0.16095112264156342
v -0.007900970056653023 -0.013210169970989227 0.15576888620853424
v -0.009249869734048843 -0.013210169970989227 0.159197136759758
v -0.024381380528211594 -0.017863279208540916 0.23273706436157227
v -0.007900970056653023 -0.013210169970989227 0.15576888620853424
v -0.024381380528211594 -0.017863279208540916 0.23273706436157227
v -0.022510340437293053 -0.018498949706554413 0.23273706436157227
v -0.007900970056653023 -0.013210169970989227 0.15576888620853424
v -0.022510340437293053 -0.018498949706554413 0.23273706436157227
v -0.018931420519948006 -0.019732149317860603 0.23273706436157227
v -0.007900970056653023 -0.013210169970989227 0.15576888620853424
v -0.018931420519948006 -0.019732149317860603 0.23273706436157227
v -0.016070470213890076 -0.02092720940709114 0.23273706436157227
v -0.08557099103927612 -0.143064945936203 0.15556159615516663
v -0.08216612786054611 -0.143064945936203 0.1608554571866989
v -0.05602592974901199 -0.14092908799648285 0.23273706436157227
v -0.08557099103927612 -0.143064945936203 0.15556159615516663
v -0.05602592974901199 -0.14092908799648285 0.23273706436157227
v -0.05887601152062416 -0.14062397181987762 0.23273706436157227
v -0.043483421206474304 -0.14085280895233154 0.23273706436157227
v -0.04725813865661621 -0.1408909559249878 0.23273706436157227
v -0.03590134158730507 -0.143064945936203 0.18065957725048065
v -0.03590134158730507 -0.143064945936203 0.18065957725048065
v -0.04725813865661621 -0.1408909559249878 0.23273706436157227
v -0.04154710844159126 -0.143064945936203 0.18179167807102203
v -0.05600417032837868 -0.015066320076584816 0.23273706436157227
v -0.04725813865661621 -0.013210169970989227 0.18249328434467316
v -0.05190310999751091 -0.013210169970989227 0.1822381466627121
v -0.05600417032837868 -0.015066320076584816 0.23273706436157227
v -0.05190310999751091 -0.013210169970989227 0.1822381466627121
v -0.05300179868936539 -0.013210169970989227 0.1821424812078476
v -0.05600417032837868 -0.015066320076584816 0.23273706436157227
v -0.05300179868936539 -0.013210169970989227 0.1821424812078476
v -0.05693969130516052 -0.013210169970989227 0.18144088983535767
v -0.05600417032837868 -0.015066320076584816 0.23273706436157227
v -0.05693969130516052 -0.013210169970989227 0.18144088983535767
v -0.058799859136343 -0.013210169970989227 0.1806117296218872
v -0.08587557822465897 -0.143064945936203 0.15497161448001862
v -0.06639280915260315 -0.13955603539943695 0.23273706436157227
v -0.07013490051031113 -0.1388695240020752 0.23273706436157227
v -0.06441298872232437 -0.016083400696516037 0.23273706436157227
v -0.058865129947662354 -0.01537145022302866 0.23273706436157227
v -0.08447229862213135 -0.013210169970989227 0.15777799487113953
v -0.04725813865661621 -0.143064945936203 0.06983941048383713
v -0.022608239203691483 -0.143064945936203 0.17340442538261414
v -0.024239959195256233 -0.143064945936203 0.17455250024795532
v -0.04725813865661621 -0.143064945936203 0.06983941048383713
v -0.024239959195256233 -0.143064945936203 0.17455250024795532
v -0.029776940122246742 -0.143064945936203 0.17755022644996643
v -0.04725813865661621 -0.143064945936203 0.06983941048383713
v -0.029776940122246742 -0.143064945936203 0.17755022644996643
v -0.03590134158730507 -0.143064945936203 0.18065957725048065
v -0.04725813865661621 -0.143064945936203 0.06983941048383713
v -0.03590134158730507 -0.143064945936203 0.18065957725048065
v -0.04154710844159126 -0.143064945936203 0.18179167807102203
v -0.04725813865661621 -0.143064945936203 0.06983941048383713
v -0.0036367399152368307 -0.143064945936203 0.09490550309419632
v -0.00043856000411324203 -0.143064945936203 0.10169821232557297
v -0.04725813865661621 -0.143064945936203 0.06983941048383713
v -0.00043856000411324203 -0.143064945936203 0.10169821232557297
v 0.0003881799930240959 -0.143064945936203 0.11357749253511429
v -0.04725813865661621 -0.143064945936203 0.06983941048383713
v -0.050173480063676834 -0.013210169970989227 0.07055695354938507
v -0.04725813865661621 -0.013210169970989227 0.07022210210561752
v -0.04725813865661621 -0.143064945936203 0.06983941048383713
v -0.04725813865661621 -0.013210169970989227 0.07022210210561752
v -0.04327673092484474 -0.143064945936203 0.06993508338928223
v -0.05600417032837868 -0.015066320076584816 0.23273706436157227
v -0.07957713305950165 -0.013210169970989227 0.16453881561756134
v -0.08078461140394211 -0.013210169970989227 0.16299211978912354
v -0.053752388805150986 -0.015066320076584816 0.23273706436157227
v -0.04725813865661621 -0.01512989029288292 0.23273706436157227
v -0.03607539087533951 -0.013210169970989227 0.1810900866985321
usemtl DefaultMaterial
f 1 2 3
f 4 5 6
f 7 8 9
f 10 11 12
f 13 14 15
f 16 17 18
f 19 20 21
f 22 23 24
f 25 26 27
f 28 29 30
f 31 32 33
f 34 35 36
f 37 38 39
f 40 41 42
f 43 44 45
f 46 47 48
f 49 50 51
f 52 53 54
f 55 56 57
f 58 59 60
f 61 62 63
f 64 65 66
f 67 68 69
f 70 71 72
f 73 74 75
f 76 77 78
f 79 80 81
f 82 83 84
f 85 86 87
f 88 89 90
f 91 92 93
f 94 95 96
f 97 98 99
f 100 101 102
f 103 104 105
f 106 107 108
f 109 110 111
f 112 113 114
f 115 116 117
f 118 119 120
f 121 122 123
f 124 125 126
f 127 128 129
f 130 131 132
f 133 134 135
f 136 137 138
f 139 140 141
f 142 143 144
f 145 146 147
f 148 149 150
f 151 152 153
f 154 155 156
f 157 158 159
f 160 161 162
f 163 164 165
f 166 167 168
f 169 170 171
f 172 173 174
f 175 176 177
f 178 179 180
f 181 182 183
f 184 185 186
f 187 188 189
f 190 191 192
f 193 194 195
f 196 197 198
f 199 200 201
f 202 203 204
f 205 206 207
f 208 209 210
f 211 212 213
f 214 215 216
f 217 218 219
f 220 221 222
f 223 224 225
f 226 227 228
f 229 230 231
f 232 233 234
f 235 236 237
f 238 239 240
f 241 242 243
f 244 245 246
f 247 248 249
f 250 251 252
f 253 254 255
f 256 257 258
f 259 260 261
f 262 263 264
f 265 266 267
f 268 269 270
f 271 272 273
f 274 275 276
f 277 278 279
f 280 281 282
f 283 284 285
f 286 287 288
f 289 290 291
f 292 293 294
f 295 296 297
f 298 299 300
f 301 302 303
f 304 305 306
f 307 308 309
f 310 311 312
f 313 314 315
f 316 317 318
f 319 320 321
f 322 323 324
f 325 326 327
f 328 329 330
f 331 332 333
f 334 335 336
f 337 338 339
f 340 341 342
f 343 344 345
f 346 347 348
f 349 350 351
f 352 353 354
f 355 356 357
f 358 359 360
f 361 362 363
f 364 365 366
f 367 368 369
f 370 371 372
f 373 374 375
f 376 377 378
f 379 380 381
f 382 383 384
f 385 386 387
f 388 389 390
f 391 392 393
f 394 395 396
f 397 398 399
f 400 401 402
f 403 404 405
f 406 407 408
f 409 410 411
f 412 413 414
f 415 416 417
f 418 419 420
f 421 422 423
f 424 425 426
f 427 428 429
f 430 431 432
f 433 434 435
f 436 437 438
f 439 440 441
f 442 443 444
f 445 446 447
f 448 449 450
f 451 452 453
f 454 455 456
f 457 458 459
f 460 461 462
f 463 464 465
f 466 467 468
f 469 470 471
f 472 473 474
f 475 476 477
f 478 479 480
f 481 482 483
f 484 485 486
f 487 488 489
f 490 491 492
f 493 494 495
f 496 497 498
f 499 500 501
f 502 503 504
f 505 506 507
f 508 509 510
f 511 512 513
f 514 515 516
f 517 518 519
f 520 521 522
f 523 524 525
f 526 527 528
f 529 530 531
f 532 533 534
f 535 536 537
f 538 539 540
f 541 542 543
f 544 545 546
f 547 548 549
f 550 551 552
f 553 554 555
f 556 557 558
f 559 560 561
f 562 563 564
f 565 566 567
f 568 569 570
f 571 572 573
f 574 575 576
f 577 578 579
f 580 581 582
f 583 584 585
f 586 587 588
f 589 590 591
f 592 593 594
f 595 596 597
f 598 599 600
f 601 602 603
f 604 605 606
f 607 608 609
f 610 611 612
f 613 614 615
f 616 617 618
f 619 620 621
f 622 623 624
f 625 626 627
f 628 629 630
f 631 632 633
f 634 635 636
f 637 638 639
f 640 641 642
f 643 644 645
f 646 647 648
f 649 650 651
f 652 653 654
f 655 656 657
f 658 659 660
f 661 662 663
f 664 665 666
f 667 668 669
f 670 671 672
f 673 674 675
f 676 677 678
f 679 680 681
f 682 683 684
f 685 686 687
f 688 689 690
f 691 692 693
f 694 695 696
f 697 698 699
f 700 701 702
f 703 704 705
f 706 707 708
f 709 710 711
f 712 713 714
f 715 716 717
f 718 719 720
f 721 722 723
f 724 725 726
f 727 728 729
f 730 731 732
f 733 734 735
f 736 737 738
f 739 740 741
f 742 743 744
f 745 746 747
f 748 749 750
f 751 752 753
f 754 755 756
f 757 758 759
f 760 761 762
f 763 764 765
f 766 767 768
f 769 770 771
f 772 773 774
f 775 776 777
f 778 779 780
f 781 782 783
f 784 785 786
f 787 788 789
f 790 791 792
f 793 794 795
f 796 797 798
f 799 800 801
f 802 803 804
f 805 806 807
f 808 809 810
f 811 812 813
f 814 815 816
f 817 818 819
f 820 821 822
f 823 824 825
f 826 827 828
f 829 830 831
f 832 833 834
f 835 836 837
f 838 839 840
f 841 842 843
f 844 845 846
f 847 848 849
f 850 851 852
f 853 854 855
f 856 857 858
f 859 860 861
f 862 863 864
f 865 866 867
f 868 869 870
f 871 872 873
f 874 875 876
f 877 878 879
f 880 881 882
f 883 884 885
f 886 887 888
f 889 890 891
f 892 893 894
f 895 896 897
f 898 899 900
f 901 902 903
f 904 905 906
f 907 908 909
f 910 911 912
f 913 914 915
f 916 917 918
f 919 920 921
f 922 923 924
f 925 926 927
f 928 929 930
f 931 932 933
f 934 935 936
f 937 938 939
f 940 941 942
f 943 944 945
f 946 947 948
f 949 950 951
f 952 953 954
f 955 956 957
f 958 959 960
f 961 962 963
f 964 965 966
f 967 968 969
f 970 971 972
f 973 974 975
f 976 977 978
f 979 980 981
f 982 983 984
f 985 986 987
f 988 989 990
f 991 992 993
f 994 995 996
f 997 998 999
f 1000 1001 1002
f 1003 1004 1005
f 1006 1007 1008
f 1009 1010 1011
f 1012 1013 1014
f 1015 1016 1017
f 1018 1019 1020
f 1021 1022 1023
f 1024 1025 1026
f 1027 1028 1029
f 1030 1031 1032
f 1033 1034 1035
f 1036 1037 1038
f 1039 1040 1041
f 1042 1043 1044
f 1045 1046 1047
f 1048 1049 1050
f 1051 1052 1053
f 1054 1055 1056
f 1057 1058 1059
f 1060 1061 1062
f 1063 1064 1065
f 1066 1067 1068
f 1069 1070 1071
f 1072 1073 1074
f 1075 1076 1077
f 1078 1079 1080
f 1081 1082 1083
f 1084 1085 1086
f 1087 1088 1089
f 1090 1091 1092
f 1093 1094 1095
f 1096 1097 1098
f 1099 1100 1101
f 1102 1103 1104
f 1105 1106 1107
f 1108 1109 1110
f 1111 1112 1113
f 1114 1115 1116
f 1117 1118 1119
f 1120 1121 1122
f 1123 1124 1125
f 1126 1127 1128
f 1129 1130 1131
f 1132 1133 1134
f 1135 1136 1137
f 1138 1139 1140
f 1141 1142 1143
f 1144 1145 1146
f 1147 1148 1149
f 1150 1151 1152
f 1153 1154 1155
f 1156 1157 1158
f 1159 1160 1161
f 1162 1163 1164
f 1165 1166 1167
f 1168 1169 1170
f 1171 1172 1173
f 1174 1175 1176
f 1177 1178 1179
f 1180 1181 1182
f 1183 1184 1185
f 1186 1187 1188
f 1189 1190 1191
f 1192 1193 1194
f 1195 1196 1197
f 1198 1199 1200
f 1201 1202 1203
f 1204 1205 1206
f 1207 1208 1209
f 1210 1211 1212
f 1213 1214 1215
f 1216 1217 1218
f 1219 1220 1221
f 1222 1223 1224
f 1225 1226 1227
f 1228 1229 1230
f 1231 1232 1233
f 1234 1235 1236
f 1237 1238 1239
f 1240 1241 1242
f 1243 1244 1245
f 1246 1247 1248
f 1249 1250 1251
f 1252 1253 1254
f 1255 1256 1257
f 1258 1259 1260
f 1261 1262 1263
f 1264 1265 1266
f 1267 1268 1269
f 1270 1271 1272
f 1273 1274 1275
f 1276 1277 1278
f 1279 1280 1281
f 1282 1283 1284
f 1285 1286 1287
f 1288 1289 1290
f 1291 1292 1293
f 1294 1295 1296
f 1297 1298 1299
f 1300 1301 1302
f 1303 1304 1305
f 1306 1307 1308
f 1309 1310 1311
f 1312 1313 1314
f 1315 1316 1317
f 1318 1319 1320
f 1321 1322 1323
f 1324 1325 1326
f 1327 1328 1329
f 1330 1331 1332
f 1333 1334 1335
f 1336 1337 1338
f 1339 1340 1341
f 1342 1343 1344
f 1345 1346 1347
f 1348 1349 1350
