v 0.001218340010382235 -0.0759592205286026 -0.07999151945114136
v 0.001218340010382235 -0.07034432142972946 -0.07999151945114136
v 0.006825840100646019 -0.0759592205286026 -0.0796891301870346
v 0.001218340010382235 -0.08157411217689514 -0.07996632158756256
v -0.004444669932126999 -0.0759592205286026 -0.07986553013324738
v 0.001218340010382235 0.04186654090881348 -0.07996632158756256
v 0.006825840100646019 0.03625164180994034 -0.0796891301870346
v -0.004444669932126999 0.03625164180994034 -0.07986553013324738
v 0.012433329597115517 -0.0759592205286026 -0.07898356020450592
v 0.006825840100646019 -0.08157411217689514 -0.07966393232345581
v 0.001218340010382235 -0.08718901127576828 -0.07898356020450592
v -0.004444669932126999 -0.08157411217689514 -0.07984031736850739
v -0.010052169673144817 -0.0759592205286026 -0.07936155050992966
v 0.001218340010382235 0.04746691882610321 -0.07868117094039917
v 0.006825840100646019 0.04746691882610321 -0.07837876677513123
v 0.006825840100646019 0.04186654090881348 -0.07963872700929642
v -0.004444669932126999 0.04186654090881348 -0.07984031736850739
v 0.012433329597115517 0.04186654090881348 -0.07895836234092712
v 0.012433329597115517 0.03625164180994034 -0.07898356020450592
v -0.010052169673144817 0.03625164180994034 -0.07936155050992966
v 0.012433329597115517 -0.08157411217689514 -0.07895836234092712
v 0.01804083026945591 -0.08157411217689514 -0.07795040309429169
v 0.012433329597115517 -0.08718901127576828 -0.07800079882144928
v 0.006825840100646019 -0.08718901127576828 -0.07868117094039917
v 0.006825840100646019 -0.09058406203985214 -0.07621166110038757
v 0.001218340010382235 -0.09058406203985214 -0.07636286318302155
v -0.004444669932126999 -0.09058406203985214 -0.07628726959228516
v -0.004444669932126999 -0.08718901127576828 -0.07885757088661194
v -0.010052169673144817 -0.08157411217689514 -0.07933635264635086
v -0.01565966010093689 -0.08157411217689514 -0.07842917740345001
v 0.001218340010382235 0.050716888159513474 -0.0760604664683342
v 0.006825840100646019 0.05073139816522598 -0.07593447715044022
v 0.012433329597115517 0.05073139816522598 -0.07565727829933167
v 0.01804083026945591 0.050716888159513474 -0.0753801017999649
v -0.004444669932126999 0.04746691882610321 -0.078555166721344
v -0.004444669932126999 0.05073139816522598 -0.0759848803281784
v 0.022482410073280334 0.05055728927254677 -0.07507771253585815
v 0.012433329597115517 0.04746691882610321 -0.07777400314807892
v -0.010052169673144817 0.04186654090881348 -0.07933635264635086
v -0.010052169673144817 0.04746691882610321 -0.07810159027576447
v 0.01804083026945591 0.04746691882610321 -0.07701802998781204
v 0.01804083026945591 0.04186654090881348 -0.07795040309429169
v -0.01565966010093689 0.04186654090881348 -0.07842917740345001
v 0.01804083026945591 -0.08718901127576828 -0.07719442248344421
v 0.023648319765925407 -0.08157411217689514 -0.07638806104660034
v 0.023648319765925407 -0.08718901127576828 -0.07593447715044022
v 0.023648319765925407 -0.09029389172792435 -0.07507771253585815
v 0.01804083026945591 -0.09056954830884933 -0.07558169215917587
v 0.012433329597115517 -0.09058406203985214 -0.07588408142328262
v 0.01804083026945591 -0.09110637754201889 -0.07187744975090027
v -0.01565966010093689 -0.0911208912730217 -0.07187744975090027
v -0.010052169673144817 -0.09058406203985214 -0.0760352686047554
v -0.01565966010093689 -0.09058406203985214 -0.07570768147706985
v -0.021267160773277283 -0.09046798944473267 -0.07532969862222672
v -0.010052169673144817 -0.08718901127576828 -0.07835359126329422
v -0.01565966010093689 -0.08718901127576828 -0.07757241278886795
v -0.021267160773277283 -0.08718901127576828 -0.07656445354223251
v -0.021267160773277283 -0.08157411217689514 -0.07714402675628662
v -0.035702288150787354 0.055940039455890656 -0.05791720002889633
v -0.03514707833528519 0.055940039455890656 -0.05791720002889633
v -0.021267160773277283 0.050615329295396805 -0.07517849653959274
v -0.01565966010093689 0.05073139816522598 -0.07550609111785889
v -0.010052169673144817 0.05073139816522598 -0.07578328996896744
v 0.03486331179738045 0.05057179927825928 -0.06965993344783783
v 0.03791689872741699 0.050383180379867554 -0.0692063421010971
v 0.026257749646902084 0.05004948005080223 -0.07447292655706406
v -0.01565966010093689 0.04746691882610321 -0.07737080752849579
v -0.024653859436511993 0.05044122040271759 -0.07487612217664719
v 0.024092480540275574 0.0479021891951561 -0.07560689747333527
v 0.02720157988369465 0.046306218951940536 -0.07495172321796417
v 0.023648319765925407 0.04186654090881348 -0.07638806104660034
v -0.021267160773277283 0.04186654090881348 -0.07714402675628662
v -0.021267160773277283 0.04746691882610321 -0.07638806104660034
v 0.02653535082936287 -0.09001822024583817 -0.07472492754459381
v 0.02753470093011856 -0.08157411217689514 -0.07510291785001755
v 0.027090560644865036 -0.08718901127576828 -0.07492651790380478
v 0.023648319765925407 -0.09084521979093552 -0.07187744975090027
v 0.03808346018195152 -0.09017781913280487 -0.06928194314241409
v 0.03486331179738045 -0.09042446315288544 -0.0698363333940506
v 0.03486331179738045 -0.09096129238605499 -0.06628327071666718
v 0.040470801293849945 -0.09099031239748001 -0.06066389009356499
v 0.06290078163146973 -0.09106285125017166 -0.03821159154176712
v 0.06850828230381012 -0.09109187126159668 -0.026998039335012436
v 0.07411576807498932 -0.0911208912730217 -0.0045457398518919945
v -0.021267160773277283 -0.09101931750774384 -0.07187744975090027
v 0.001218340010382235 -0.09113539755344391 0.07397431135177612
v -0.07173459976911545 -0.0911208912730217 -0.01578449085354805
v -0.48130378127098083 -0.09107735753059387 0.09642661362886429
v -0.4083508253097534 -0.09107735753059387 0.02350074052810669
v -0.413958340883255 -0.09106285125017166 0.02350074052810669
v -0.02487594075500965 -0.09023585170507431 -0.07495172321796417
v -0.4196213483810425 -0.09093227237462997 0.02350074052810669
v -0.4196213483810425 -0.09039545059204102 0.02022486925125122
v -0.42356324195861816 -0.09019231796264648 0.02047686092555523
v -0.42533987760543823 -0.08714547753334045 0.020199669525027275
v -0.4283379316329956 -0.08524482697248459 0.02060285024344921
v -0.42850449681282043 -0.08157411217689514 0.02055245079100132
v -0.04369711875915527 0.05649137869477272 -0.05411215126514435
v -0.03775652125477791 0.056389808654785156 -0.05532170087099075
v -0.42311909794807434 0.050383180379867554 0.020577650517225266
v -0.034036699682474136 0.05621571093797684 -0.055044520646333694
v 0.040026649832725525 0.050673358142375946 -0.06605646759271622
v 0.03852761164307594 0.04746691882610321 -0.06953393667936325
v 0.044357191771268845 0.05057179927825928 -0.06406576186418533
v 0.054073140025138855 0.04962873086333275 -0.05741322040557861
v 0.04829908907413483 0.04746691882610321 -0.06285619735717773
v 0.04546758159995079 0.04746691882610321 -0.0648721233010292
v -0.42506226897239685 0.04732184112071991 0.02025005966424942
v 0.03486331179738045 0.04186654090881348 -0.07197822630405426
v 0.030366210266947746 0.04186654090881348 -0.07404454797506332
v 0.02753470093011856 0.04186654090881348 -0.07510291785001755
v -0.42850449681282043 0.04186654090881348 0.02055245079100132
v -0.4283379316329956 0.0453486405313015 0.02060285024344921
v 0.0386386513710022 -0.08718901127576828 -0.06960953027009964
v 0.030366210266947746 -0.08157411217689514 -0.07404454797506332
v 0.03486331179738045 -0.08157411217689514 -0.07197822630405426
v 0.041414640843868256 -0.08718901127576828 -0.06777001172304153
v 0.04563413932919502 -0.08718901127576828 -0.0649729073047638
v 0.04846565052866936 -0.08718901127576828 -0.0630325973033905
v 0.05435074120759964 -0.08968452364206314 -0.05771559849381447
v 0.04457927122712135 -0.09038093686103821 -0.06419175118207932
v 0.04013768956065178 -0.09055504947900772 -0.0661572590470314
v 0.04630038142204285 -0.09068562835454941 -0.06086549162864685
v 0.05218546837568283 -0.09068562835454941 -0.05552329123020172
v 0.05768192932009697 -0.09068562835454941 -0.04980313032865524
v 0.062956303358078 -0.0906711220741272 -0.04383096098899841
v 0.06728684157133102 -0.09056954830884933 -0.03821159154176712
v 0.07189498096704483 -0.09038093686103821 -0.031307071447372437
v 0.0724501833319664 -0.09056954830884933 -0.026998039335012436
v 0.07411576807498932 -0.09106285125017166 -0.010165110230445862
v 0.07772453129291534 -0.09056954830884933 -0.0045457398518919945
v 0.07772453129291534 -0.09058406203985214 0.0010484299855306745
v 0.07411576807498932 -0.0911208912730217 0.0010484299855306745
v 0.006825840100646019 -0.0911208912730217 0.07397431135177612
v -0.39152833819389343 -0.09106285125017166 0.16937768459320068
v -0.4252288341522217 -0.09106285125017166 0.16937768459320068
v -0.47569629549980164 -0.09104835242033005 0.12447308748960495
v -0.48130378127098083 -0.09106285125017166 0.10204599052667618
v -0.48485705256462097 -0.0905260294675827 0.10204599052667618
v -0.48485705256462097 -0.0905260294675827 0.09642661362886429
v -0.48130378127098083 -0.09104835242033005 0.0908072367310524
v -0.46448129415512085 -0.09100481867790222 0.05152200907468796
v -0.45326632261276245 -0.09099031239748001 0.04033365845680237
v -0.43644383549690247 -0.09099031239748001 0.029120109975337982
v -0.43644383549690247 -0.09045349061489105 0.025541849434375763
v -0.43994155526161194 -0.09025035798549652 0.02599542960524559
v -0.42728307843208313 -0.08898810297250748 0.02115722931921482
v -0.4407743811607361 -0.08718901127576828 0.025592250749468803
v -0.43644383549690247 -0.08157411217689514 0.02327393926680088
v -0.43133601546287537 -0.08157411217689514 0.021434420719742775
v -0.04369711875915527 0.057086240500211716 -0.0494503416121006
v -0.4196213483810425 0.05054277926683426 0.020350860431790352
v -0.43644383549690247 0.050600819289684296 0.02574343979358673
v -0.03808964043855667 0.05704271048307419 -0.0494503416121006
v -0.4397194981575012 0.05044122040271759 0.026096230372786522
v 0.046133819967508316 0.05078943073749542 -0.06073947995901108
v 0.041803281754255295 0.04186654090881348 -0.06819838285446167
v 0.03897177055478096 0.04186654090881348 -0.0698363333940506
v 0.04607829824090004 0.04186654090881348 -0.06537610292434692
v 0.050297800451517105 0.05057179927825928 -0.05889996141195297
v 0.05573873966932297 0.05057179927825928 -0.05368376895785332
v 0.06090207025408745 0.05057179927825928 -0.047887999564409256
v 0.06617645174264908 0.05055728927254677 -0.04178984835743904
v 0.05951407924294472 0.04919347167015076 -0.05164264887571335
v 0.06023583933711052 0.04545019939541817 -0.05239862948656082
v 0.05473937839269638 0.045885469764471054 -0.058093588799238205
v 0.048909809440374374 0.04186654090881348 -0.06346096843481064
v -0.43133601546287537 0.04186654090881348 0.021434420719742775
v -0.43644383549690247 0.04186654090881348 0.02327393926680088
v -0.44060781598091125 0.04746691882610321 0.02566784992814064
v 0.03897177055478096 -0.08157411217689514 -0.0698363333940506
v 0.041803281754255295 -0.08157411217689514 -0.06819838285446167
v 0.04607829824090004 -0.08157411217689514 -0.06537610292434692
v 0.048909809440374374 -0.08157411217689514 -0.06346096843481064
v 0.05473937839269638 -0.08594126254320145 -0.058093588799238205
v 0.06023583933711052 -0.08538991957902908 -0.05239862948656082
v 0.0597916804254055 -0.08913318812847137 -0.0518946498632431
v 0.06628748774528503 -0.0903664380311966 -0.04196624085307121
v 0.06106863170862198 -0.09038093686103821 -0.04816519841551781
v 0.05601632967591286 -0.09038093686103821 -0.05398615077137947
v 0.05063091963529587 -0.09038093686103821 -0.05915195122361183
v 0.0710066705942154 -0.08911868184804916 -0.03506172075867653
v 0.07700277119874954 -0.09001822024583817 -0.018732769414782524
v 0.07722485065460205 -0.09025035798549652 -0.01578449085354805
v 0.07755797356367111 -0.09051152318716049 -0.010165110230445862
v 0.07911252975463867 -0.08718901127576828 -0.0045457398518919945
v 0.07922357320785522 -0.08718901127576828 0.0010484299855306745
v 0.07766900956630707 -0.09055504947900772 0.006667810026556253
v 0.07411576807498932 -0.09110637754201889 0.006667810026556253
v 0.05729328840970993 -0.09103383123874664 0.04595303162932396
v 0.04607829824090004 -0.09103383123874664 0.057141389697790146
v 0.0292558204382658 -0.09103383123874664 0.06838013231754303
v 0.012433329597115517 -0.09099031239748001 0.07397431135177612
v -0.38592085242271423 -0.09096129238605499 0.16937768459320068
v -0.39152833819389343 -0.09054054319858551 0.17313234508037567
v -0.397135853767395 -0.09054054319858551 0.17340952157974243
v -0.4027433395385742 -0.09054054319858551 0.1736363172531128
v -0.4083508253097534 -0.09054054319858551 0.173711895942688
v -0.413958340883255 -0.09054054319858551 0.1735355108976364
v -0.4196213483810425 -0.09054054319858551 0.17328353226184845
v -0.4252288341522217 -0.09051152318716049 0.1729811429977417
v -0.4308363199234009 -0.09078718721866608 0.16937768459320068
v -0.44205132126808167 -0.09091777354478836 0.1637583076953888
v -0.47008877992630005 -0.09100481867790222 0.13571183383464813
v -0.4743082821369171 -0.09051152318716049 0.13571183383464813
v -0.475973904132843 -0.09064210206270218 0.1303444504737854
v -0.47902747988700867 -0.09033741056919098 0.12865611910820007
v -0.47952714562416077 -0.0905260294675827 0.12447308748960495
v -0.48130378127098083 -0.09099031239748001 0.10764016211032867
v -0.48469048738479614 -0.09043896943330765 0.10764016211032867
v -0.4862450361251831 -0.08718901127576828 0.10204599052667618
v -0.4863005578517914 -0.08718901127576828 0.09642661362886429
v -0.4848015308380127 -0.09049700945615768 0.0908072367310524
v -0.48130378127098083 -0.09091777354478836 0.0852130576968193
v -0.47569629549980164 -0.0909757986664772 0.06838013231754303
v -0.47008877992630005 -0.09090325981378555 0.057141389697790146
v -0.4643702507019043 -0.09062758833169937 0.04607902839779854
v -0.4587627649307251 -0.09062758833169937 0.04043446108698845
v -0.44765880703926086 -0.09093227237462997 0.034714289009571075
v -0.44188475608825684 -0.09058406203985214 0.029145309701561928
v -0.44765880703926086 -0.09038093686103821 0.03111083060503006
v -0.4507679343223572 -0.09016331285238266 0.031715601682662964
v -0.4512676000595093 -0.08718901127576828 0.03136282041668892
v -0.44405004382133484 -0.08157411217689514 0.026726210489869118
v -0.4412740468978882 -0.08157411217689514 0.02531505934894085
v -0.04930463060736656 0.057086240500211716 -0.04383096098899841
v -0.04369711875915527 0.057086240500211716 -0.04383096098899841
v -0.4417737126350403 0.050673358142375946 0.029246099293231964
v -0.45865172147750854 0.050716888159513474 0.040535248816013336
v -0.46425920724868774 0.05073139816522598 0.046179819852113724
v -0.054912108927965164 0.05702820047736168 -0.021378669887781143
v -0.04408577084541321 0.05598356947302818 0.039854880422353745
v -0.04081010818481445 0.05592554062604904 0.037687771022319794
v 0.07411576807498932 0.05096353963017464 0.012287179939448833
v 0.07411576807498932 0.050992559641599655 -0.010165110230445862
v 0.0722280964255333 0.050716888159513474 -0.026998039335012436
v 0.06873036175966263 0.05077492073178291 -0.0327938087284565
v 0.06700924038887024 0.050716888159513474 -0.03821159154176712
v 0.06284525990486145 0.05078943073749542 -0.04373016953468323
v -0.45060136914253235 0.05036868155002594 0.031816400587558746
v -0.44765880703926086 0.05054277926683426 0.03131242096424103
v 0.06678716838359833 0.04746691882610321 -0.042722221463918686
v 0.07178393751382828 0.05057179927825928 -0.03102988936007023
v 0.07072906941175461 0.04917896166443825 -0.03478451818227768
v 0.06473293155431747 0.04746691882610321 -0.04551929980516434
v 0.06534364819526672 0.04186654090881348 -0.04607367888092995
v 0.0627342164516449 0.04186654090881348 -0.0494503416121006
v 0.06034687161445618 0.04186654090881348 -0.05249942094087601
v 0.05768192932009697 0.04186654090881348 -0.05529649928212166
v 0.05485042184591293 0.04186654090881348 -0.058219581842422485
v 0.051685791462659836 0.04186654090881348 -0.06101667881011963
v 0.05490593984723091 0.02502184920012951 -0.05824479088187218
v -0.4412740468978882 0.04186654090881348 0.02531505934894085
v -0.44405004382133484 0.04186654090881348 0.026726210489869118
v -0.4511565566062927 0.04746691882610321 0.031438421458005905
v 0.05490593984723091 -0.06474394351243973 -0.05824479088187218
v 0.051685791462659836 -0.08157411217689514 -0.06101667881011963
v 0.05485042184591293 -0.08157411217689514 -0.058219581842422485
v 0.05768192932009697 -0.08157411217689514 -0.05529649928212166
v 0.06034687161445618 -0.08157411217689514 -0.05249942094087601
v 0.0627342164516449 -0.08157411217689514 -0.0494503416121006
v 0.06534364819526672 -0.08157411217689514 -0.04607367888092995
v 0.06689819693565369 -0.08718901127576828 -0.042873408645391464
v 0.06484396755695343 -0.08718901127576828 -0.045670490711927414
v 0.07145082205533981 -0.08537542074918747 -0.03564129024744034
v 0.07228361815214157 -0.0872180163860321 -0.032944999635219574
v 0.07716932892799377 -0.08718901127576828 -0.019463539123535156
v 0.07794661074876785 -0.08718901127576828 -0.01578449085354805
v 0.07877940684556961 -0.08718901127576828 -0.010165110230445862
v 0.07977878302335739 -0.08157411217689514 -0.0045457398518919945
v 0.07900148630142212 -0.08718901127576828 0.006667810026556253
v 0.07988981902599335 -0.08157411217689514 0.0010484299855306745
v 0.07744693011045456 -0.09043896943330765 0.012287179939448833
v 0.07411576807498932 -0.09099031239748001 0.012287179939448833
v 0.06850828230381012 -0.09103383123874664 0.029120109975337982
v 0.06290078163146973 -0.09099031239748001 0.04033365845680237
v 0.05723777040839195 -0.0906711220741272 0.05144641175866127
v 0.05163026973605156 -0.0906711220741272 0.057090990245342255
v 0.040470801293849945 -0.09096129238605499 0.06276076287031174
v 0.03480779007077217 -0.09061308205127716 0.06840533018112183
v 0.0292558204382658 -0.09049700945615768 0.07200878858566284
v 0.012433329597115517 -0.09045349061489105 0.07732578366994858
v -0.38592085242271423 -0.09042446315288544 0.17275434732437134
v -0.4027433395385742 -0.08718901127576828 0.17620661854743958
v -0.4083508253097534 -0.08718901127576828 0.17633260786533356
v -0.413958340883255 -0.08718901127576828 0.1760302186012268
v -0.4308363199234009 -0.09025035798549652 0.17250236868858337
v -0.4196213483810425 -0.08718901127576828 0.1754254400730133
v -0.44205132126808167 -0.0903664380311966 0.16723577678203583
v -0.4472701847553253 -0.09051152318716049 0.16360712051391602
v -0.4533773362636566 -0.09064210206270218 0.15823973715305328
v -0.45937347412109375 -0.09064210206270218 0.15302352607250214
v -0.46475890278816223 -0.09064210206270218 0.14720258116722107
v -0.47008877992630005 -0.09062758833169937 0.14125561714172363
v -0.47341999411582947 -0.09032291173934937 0.13936568796634674
v -0.4780281186103821 -0.08884301036596298 0.13238556683063507
v -0.4794716238975525 -0.08705843240022659 0.1303444504737854
v -0.48413529992103577 -0.09001822024583817 0.11618261784315109
v -0.4843573570251465 -0.09020683169364929 0.11325953155755997
v -0.48130378127098083 -0.09074366092681885 0.11325953155755997
v -0.4858008921146393 -0.08718901127576828 0.10764016211032867
v -0.4869112968444824 -0.08157411217689514 0.10204599052667618
v -0.487022340297699 -0.08157411217689514 0.09642661362886429
v -0.48613402247428894 -0.08718901127576828 0.0908072367310524
v -0.4845794439315796 -0.09038093686103821 0.0852130576968193
v -0.4792495369911194 -0.09043896943330765 0.06838013231754303
v -0.47569629549980164 -0.09056954830884933 0.06293714791536331
v -0.46986672282218933 -0.09049700945615768 0.05195039138197899
v -0.46786800026893616 -0.09033741056919098 0.04804455116391182
v -0.4624270796775818 -0.09035191684961319 0.04234958067536354
v -0.4568195641040802 -0.09032291173934937 0.03698218986392021
v -0.4528776705265045 -0.09051152318716049 0.03496627137064934
v -0.4604283571243286 -0.08718901127576828 0.03872092068195343
v -0.4575968384742737 -0.08718901127576828 0.03635222092270851
v -0.4540991187095642 -0.08718901127576828 0.03352992981672287
v -0.45160073041915894 -0.08157411217689514 0.03111083060503006
v -0.44765880703926086 -0.08157411217689514 0.028716929256916046
v -0.4544322192668915 -0.08157411217689514 0.033177148550748825
v -0.054912108927965164 0.05707173049449921 -0.03821159154176712
v -0.06051962077617645 0.05707173049449921 -0.026998039335012436
v -0.04930463060736656 0.057086240500211716 -0.03821159154176712
v -0.06051962077617645 0.0570572204887867 -0.01578449085354805
v -0.45282214879989624 0.050629839301109314 0.035041868686676025
v -0.45665299892425537 0.050513770431280136 0.03710819035768509
v -0.46226051449775696 0.05054277926683426 0.042525969445705414
v -0.4677569568157196 0.05052826926112175 0.0481957383453846
v -0.46981120109558105 0.050615329295396805 0.05205119028687477
v -0.4755852520465851 0.050658851861953735 0.06306315213441849
v -0.47974923253059387 0.050673358142375946 0.07397431135177612
v -0.049804311245679855 0.05598356947302818 0.04554985091090202
v -0.046195510774850845 0.05595456063747406 0.04340793937444687
v 0.0571267306804657 0.05078943073749542 0.051345620304346085
v 0.06845276057720184 0.05073139816522598 0.034487489610910416
v 0.0719505026936531 0.050644341856241226 0.029120109975337982
v 0.077335886657238 0.050600819289684296 0.012287179939448833
v 0.07750245183706284 0.050702378153800964 0.006667810026556253
v 0.07761348783969879 0.050716888159513474 0.0010484299855306745
v 0.07755797356367111 0.050716888159513474 -0.0045457398518919945
v 0.07744693011045456 0.050658851861953735 -0.010165110230445862
v 0.07722485065460205 0.05049924924969673 -0.014600140042603016
v -0.45398807525634766 0.04746691882610321 0.03363072872161865
v -0.4574858248233795 0.04746691882610321 0.036453019827604294
v -0.4602617919445038 0.04746691882610321 0.03884692117571831
v 0.07145082205533981 0.04543568938970566 -0.03564129024744034
v 0.06723131984472275 0.04186654090881348 -0.043276578187942505
v 0.0722280964255333 0.04736535996198654 -0.0327938087284565
v 0.07672519981861115 0.05006399005651474 -0.018354790285229683
v 0.057737451046705246 0.01942146010696888 -0.05527130886912346
v -0.44765880703926086 0.04186654090881348 0.028716929256916046
v -0.45160073041915894 0.04186654090881348 0.03111083060503006
v -0.4544322192668915 0.04186654090881348 0.033177148550748825
v 0.057737451046705246 -0.05912904068827629 -0.05527130886912346
v 0.06723131984472275 -0.08157411217689514 -0.043276578187942505
v 0.0700073093175888 -0.08157411217689514 -0.03856436908245087
v 0.07150633633136749 -0.08157411217689514 -0.03576729819178581
v 0.0729498565196991 -0.08157411217689514 -0.03261740878224373
v 0.07522617280483246 -0.08157411217689514 -0.026998039335012436
v 0.07661415636539459 -0.08157411217689514 -0.022941000759601593
v 0.077335886657238 -0.08157411217689514 -0.020118720829486847
v 0.07839076966047287 -0.08157411217689514 -0.01578449085354805
v 0.0792790874838829 -0.08157411217689514 -0.010165110230445862
v 0.07977878302335739 0.04186654090881348 -0.0045457398518919945
v 0.0800008624792099 0.04186654090881348 0.0010484299855306745
v 0.07850181311368942 -0.08718901127576828 0.012287179939448833
v 0.07722485065460205 -0.0902213528752327 0.016319019719958305
v 0.07961221784353256 -0.08157411217689514 0.006667810026556253
v 0.07217258214950562 -0.09049700945615768 0.029120109975337982
v 0.0685637965798378 -0.09061308205127716 0.03461349010467529
v 0.0666206106543541 -0.09043896943330765 0.04033365845680237
v 0.0627342164516449 -0.09055504947900772 0.045600250363349915
v 0.06073550879955292 -0.0903664380311966 0.049506090581417084
v 0.05529458075761795 -0.09038093686103821 0.05517585948109627
v 0.04968708008527756 -0.0903664380311966 0.06056844815611839
v 0.04574517905712128 -0.09054054319858551 0.06255917251110077
v 0.040470801293849945 -0.09042446315288544 0.06646501272916794
v 0.03286460041999817 -0.09026487171649933 0.07150480896234512
v 0.016597310081124306 -0.0902213528752327 0.07704859226942062
v -0.3824231028556824 -0.09020683169364929 0.1724267601966858
v -0.397135853767395 -0.08718901127576828 0.17572784423828125
v -0.4027433395385742 -0.08157411217689514 0.177315354347229
v -0.4083508253097534 -0.08157411217689514 0.17741617560386658
v -0.413958340883255 -0.08157411217689514 0.17713896930217743
v -0.4252288341522217 -0.08718901127576828 0.17456866800785065
v -0.43361231684684753 -0.08998920023441315 0.17217476665973663
v -0.4451604187488556 -0.09013429284095764 0.1667318046092987
v -0.4196213483810425 -0.08157411217689514 0.17645859718322754
v -0.45154520869255066 -0.09035191684961319 0.16161639988422394
v -0.4578189253807068 -0.09035191684961319 0.15645059943199158
v -0.46309328079223633 -0.09035191684961319 0.15146121382713318
v -0.4682011306285858 -0.09035191684961319 0.14553943276405334
v -0.4740307033061981 -0.08718901127576828 0.1402476578950882
v -0.46153876185417175 -0.08975706249475479 0.15519066154956818
v -0.4668131172657013 -0.08894457668066025 0.14926888048648834
v -0.47858330607414246 -0.08509974926710129 0.13309113681316376
v -0.4801378846168518 -0.08157411217689514 0.13009247183799744
v -0.4823586642742157 -0.08157411217689514 0.12447308748960495
v -0.4843573570251465 -0.08718901127576828 0.11686298996210098
v -0.4850236177444458 -0.08718901127576828 0.11325953155755997
v -0.48641160130500793 -0.08157411217689514 0.10764016211032867
v -0.4869668185710907 -0.05351414903998375 0.10204599052667618
v -0.48707786202430725 -0.06474394351243973 0.09642661362886429
v -0.4867447316646576 -0.08157411217689514 0.0908072367310524
v -0.4855232834815979 -0.08718901127576828 0.0852130576968193
v -0.4843018352985382 -0.09017781913280487 0.08135761320590973
v -0.47880539298057556 -0.0902213528752327 0.06490267068147659
v -0.47369757294654846 -0.09035191684961319 0.057141389697790146
v -0.4730868637561798 -0.09011977910995483 0.05409231036901474
v -0.4685342311859131 -0.08718901127576828 0.04726338014006615
v -0.4660358428955078 -0.08718901127576828 0.0444662906229496
v -0.46320435404777527 -0.08718901127576828 0.04151801019906998
v -0.4636484980583191 -0.08157411217689514 0.041089631617069244
v -0.46081697940826416 -0.08157411217689514 0.0382925383746624
v -0.4580410122871399 -0.08157411217689514 0.035974230617284775
v -0.06051962077617645 0.05707173049449921 -0.021378669887781143
v -0.48130378127098083 0.050702378153800964 0.0852130576968193
v -0.48469048738479614 0.050673358142375946 0.09642661362886429
v -0.052191659808158875 0.05592554062604904 0.0488005205988884
v -0.48469048738479614 0.050658851861953735 0.10204599052667618
v -0.47930505871772766 0.050673358142375946 0.12447308748960495
v -0.4699777364730835 0.050687868148088455 0.14115481078624725
v -0.4532108008861542 0.050644341856241226 0.1581137329339981
v -0.44715914130210876 0.050629839301109314 0.16350632905960083
v -0.43644383549690247 0.050673358142375946 0.1681177318096161
v -0.46309328079223633 0.04746691882610321 0.04166920855641365
v -0.46842318773269653 0.04746691882610321 0.047389380633831024
v -0.47297582030296326 0.05032515153288841 0.05424350127577782
v -0.465869277715683 0.04746691882610321 0.04459229111671448
v -0.47347548604011536 0.050513770431280136 0.057141389697790146
v -0.478694349527359 0.05042671039700508 0.06512946635484695
v -0.47908300161361694 0.050586309283971786 0.06838013231754303
v -0.48441287875175476 0.05052826926112175 0.0852130576968193
v -0.48463496565818787 0.050644341856241226 0.0908072367310524
v -0.051969580352306366 0.05592554062604904 0.0488005205988884
v 0.051519230008125305 0.05078943073749542 0.05699019134044647
v 0.05512801930308342 0.05057179927825928 0.054999470710754395
v 0.060568951070308685 0.05055728927254677 0.04935489967465401
v 0.06262318044900894 0.050673358142375946 0.04552464932203293
v 0.06639853119850159 0.050586309283971786 0.04033365845680237
v 0.07156185805797577 0.05047024041414261 0.03247157111763954
v 0.0771138072013855 0.05042671039700508 0.015941040590405464
v 0.07889045029878616 0.04746691882610321 0.006667810026556253
v 0.07911252975463867 0.04746691882610321 0.0010484299855306745
v 0.07900148630142212 0.04746691882610321 -0.0045457398518919945
v 0.07861284911632538 0.04746691882610321 -0.010165110230445862
v 0.07766900956630707 0.0479021891951561 -0.016187669709324837
v -0.4580410122871399 0.04186654090881348 0.035974230617284775
v -0.46081697940826416 0.04186654090881348 0.0382925383746624
v -0.4636484980583191 0.04186654090881348 0.041089631617069244
v 0.07522617280483246 0.04186654090881348 -0.026998039335012436
v 0.0729498565196991 0.04186654090881348 -0.03261740878224373
v 0.07150633633136749 0.04186654090881348 -0.03576729819178581
v 0.0700073093175888 0.04186654090881348 -0.03856436908245087
v 0.07722485065460205 0.046320728957653046 -0.019614730030298233
v 0.07661415636539459 0.03625164180994034 -0.022941000759601593
v 0.07739140838384628 -0.05912904068827629 -0.020017920061945915
v 0.07839076966047287 0.04186654090881348 -0.01578449085354805
v 0.0792790874838829 0.04186654090881348 -0.010165110230445862
v 0.07966773957014084 0.04186654090881348 0.006667810026556253
v 0.07894597202539444 -0.08157411217689514 0.012287179939448833
v 0.07744693011045456 -0.08704391866922379 0.018057750537991524
v 0.07650312036275864 -0.08881399035453796 0.020048469305038452
v 0.07167290151119232 -0.09026487171649933 0.03267316892743111
v 0.06595437228679657 -0.09019231796264648 0.043508730828762054
v 0.061346229165792465 -0.08718901127576828 0.050287261605262756
v 0.05890335887670517 -0.08718901127576828 0.0530843511223793
v 0.05612736940383911 -0.08718901127576828 0.05600742995738983
v 0.05329586938023567 -0.08718901127576828 0.05880451947450638
v 0.05046435818076134 -0.08718901127576828 0.06122361868619919
v 0.04363543167710304 -0.09016331285238266 0.06578464061021805
v 0.033697400242090225 -0.08718901127576828 0.07193318754434586
v 0.02037266083061695 -0.08927827328443527 0.07646901160478592
v -0.38592085242271423 -0.08718901127576828 0.17396390438079834
v -0.39152833819389343 -0.08718901127576828 0.17499706149101257
v -0.397135853767395 -0.08157411217689514 0.17681138217449188
v -0.4027433395385742 0.01942146010696888 0.177315354347229
v -0.4083508253097534 -0.003023609984666109 0.17744134366512299
v -0.413958340883255 0.01942146010696888 0.17713896930217743
v -0.4252288341522217 -0.08157411217689514 0.17534984648227692
v -0.4308363199234009 -0.08718901127576828 0.17333392798900604
v -0.434112012386322 -0.08718901127576828 0.1723763644695282
v -0.44571560621261597 -0.08718901127576828 0.16705937683582306
v -0.4484916031360626 -0.08718901127576828 0.16521984338760376
v -0.45260006189346313 -0.08718901127576828 0.162397563457489
v -0.4196213483810425 0.04186654090881348 0.17645859718322754
v -0.47197645902633667 -0.08718901127576828 0.14304473996162415
v -0.46742385625839233 -0.08520130813121796 0.14987367391586304
v -0.47247615456581116 -0.08157411217689514 0.14349833130836487
v -0.4743638038635254 -0.08157411217689514 0.14070123434066772
v -0.4619829058647156 -0.0860138013958931 0.1556190401315689
v -0.45543158054351807 -0.08718901127576828 0.16030603647232056
v -0.4771953225135803 -0.08157411217689514 0.1359890252351761
v -0.47863882780075073 -0.08157411217689514 0.13316673040390015
v -0.4801378846168518 0.04186654090881348 0.13009247183799744
v -0.48369112610816956 -0.08157411217689514 0.12031524628400803
v -0.4823586642742157 0.04186654090881348 0.12447308748960495
v -0.4845794439315796 -0.08157411217689514 0.11749295890331268
v -0.4854677617549896 -0.08157411217689514 0.11325953155755997
v -0.487022340297699 0.03063674084842205 0.10204599052667618
v -0.48641160130500793 0.04186654090881348 0.10764016211032867
v -0.4871889054775238 0.04186654090881348 0.09642661362886429
v -0.4871333837509155 -0.02545418031513691 0.09642661362886429
v -0.48680025339126587 -0.05351414903998375 0.0908072367310524
v -0.48607850074768066 -0.08157411217689514 0.0852130576968193
v -0.4845794439315796 -0.08700039982795715 0.07951808720827103
v -0.4836356043815613 -0.08875595778226852 0.07760296016931534
v -0.48419082164764404 -0.08501268923282623 0.0765446126461029
v -0.48074856400489807 -0.08718901127576828 0.06838013231754303
v -0.4791940152645111 -0.08718901127576828 0.06409630924463272
v -0.47341999411582947 -0.08718901127576828 0.05361352860927582
v -0.47131022810935974 -0.08718901127576828 0.05081643909215927
v -0.46886736154556274 -0.08157411217689514 0.04686019942164421
v -0.46642449498176575 -0.08157411217689514 0.04403790831565857
v -0.4716988801956177 -0.08157411217689514 0.05046365037560463
v -0.4862450361251831 0.04746691882610321 0.09642661362886429
v -0.4252288341522217 0.050658851861953735 0.17277954518795013
v -0.4196213483810425 0.050673358142375946 0.1730315238237381
v -0.413958340883255 0.050673358142375946 0.17325833439826965
v -0.4083508253097534 0.050673358142375946 0.17338432371616364
v -0.4845239222049713 0.050600819289684296 0.10764016211032867
v -0.48613402247428894 0.04746691882610321 0.10204599052667618
v -0.4843018352985382 0.05044122040271759 0.11194919049739838
v -0.4789164364337921 0.05052826926112175 0.12835372984409332
v -0.4740307033061981 0.050658851861953735 0.13571183383464813
v -0.4733089506626129 0.050513770431280136 0.13916409015655518
v -0.4679790437221527 0.05054277926683426 0.1452370434999466
v -0.46281570196151733 0.05054277926683426 0.15110841393470764
v -0.45743030309677124 0.05054277926683426 0.15622380375862122
v -0.45132312178611755 0.05054277926683426 0.16146521270275116
v -0.44499388337135315 0.05033966153860092 0.16663098335266113
v -0.44205132126808167 0.05052826926112175 0.16703417897224426
v -0.429503858089447 0.050513770431280136 0.17250236868858337
v -0.46642449498176575 0.04186654090881348 0.04403790831565857
v -0.46886736154556274 0.04186654090881348 0.04686019942164421
v -0.4716988801956177 0.04186654090881348 0.05046365037560463
v -0.4711991846561432 0.04746691882610321 0.05094242841005325
v -0.4733089506626129 0.04746691882610321 0.0537395216524601
v -0.4791385233402252 0.04746691882610321 0.06427270174026489
v -0.48419082164764404 0.04516002908349037 0.0765446126461029
v -0.4842463433742523 0.050383180379867554 0.08176080137491226
v -0.4859674572944641 0.04746691882610321 0.0908072367310524
v 0.012433329597115517 0.050600819289684296 0.0771997794508934
v 0.012433329597115517 0.05096353963017464 0.07397431135177612
v 0.0292558204382658 0.050644341856241226 0.07180719822645187
v 0.03464122861623764 0.05073139816522598 0.06830453872680664
v -0.4027433395385742 0.050673358142375946 0.17333392798900604
v -0.397135853767395 0.050673358142375946 0.17313234508037567
v -0.39152833819389343 0.050673358142375946 0.17290553450584412
v -0.38592085242271423 0.05057179927825928 0.17260316014289856
v 0.04563413932919502 0.050658851861953735 0.06248357146978378
v 0.04952051863074303 0.05055728927254677 0.060442451387643814
v 0.05318482965230942 0.04746691882610321 0.0586785189807415
v 0.05601632967591286 0.04746691882610321 0.05588144063949585
v 0.058792319148778915 0.04746691882610321 0.052958350628614426
v 0.06129071116447449 0.04746691882610321 0.050161268562078476
v 0.06584332883358002 0.05039770156145096 0.04335753992199898
v 0.07200601696968079 0.04746691882610321 0.033353541046381
v 0.07700277119874954 0.0452035516500473 0.020955640822649002
v 0.07739140838384628 0.047234781086444855 0.01783096045255661
v 0.0783352479338646 0.04746691882610321 0.012287179939448833
v 0.07655864208936691 0.04186654090881348 -0.022941000759601593
v 0.077335886657238 0.04186654090881348 -0.020118720829486847
v 0.07739140838384628 0.01942146010696888 -0.020017920061945915
v 0.07894597202539444 0.04186654090881348 0.012287179939448833
v 0.0778355672955513 -0.08157411217689514 0.0178813599050045
v 0.07700277119874954 -0.08508524298667908 0.020955640822649002
v 0.0736716091632843 -0.08718901127576828 0.029120109975337982
v 0.07206153869628906 -0.08718901127576828 0.033504728227853775
v 0.06628748774528503 -0.08718901127576828 0.04398750886321068
v 0.0641777366399765 -0.08718901127576828 0.04680979996919632
v 0.06167934834957123 -0.08157411217689514 0.050665248185396194
v 0.05929199978709221 -0.08157411217689514 0.053462330251932144
v 0.05651601031422615 -0.08157411217689514 0.05641061067581177
v 0.053684499114751816 -0.08157411217689514 0.059207700192928314
v 0.046911101788282394 -0.08718901127576828 0.06402070820331573
v 0.050852999091148376 -0.08157411217689514 0.061551209539175034
v 0.04413510859012604 -0.08718901127576828 0.0661122277379036
v 0.03697305917739868 -0.08157411217689514 0.07082443684339523
v 0.03419706970453262 -0.08157411217689514 0.07215998321771622
v 0.0292558204382658 -0.08157411217689514 0.07425150275230408
v 0.02126096934080124 -0.08553501218557358 0.07692258805036545
v 0.0183184202760458 -0.08731959015130997 0.07732578366994858
v -0.38592085242271423 -0.08157411217689514 0.17456866800785065
v -0.39152833819389343 -0.08157411217689514 0.17590421438217163
v -0.397135853767395 0.04186654090881348 0.17681138217449188
v -0.4027433395385742 0.04186654090881348 0.1772901564836502
v -0.4083508253097534 0.013806570321321487 0.17744134366512299
v -0.413958340883255 0.04186654090881348 0.17711377143859863
v -0.4252288341522217 0.04186654090881348 0.17534984648227692
v -0.4308363199234009 -0.08157411217689514 0.17383791506290436
v -0.4346116781234741 -0.08157411217689514 0.17257794737815857
v -0.43744316697120667 -0.08157411217689514 0.17146921157836914
v -0.44205132126808167 -0.08157411217689514 0.16937768459320068
v -0.4461042582988739 -0.08157411217689514 0.16728615760803223
v -0.44888025522232056 -0.08157411217689514 0.16564823687076569
v -0.4530997574329376 -0.08157411217689514 0.16285113990306854
v -0.45593124628067017 -0.08157411217689514 0.16083522140979767
v -0.4196213483810425 0.04746691882610321 0.17517346143722534
v -0.4252288341522217 0.04746691882610321 0.17436708509922028
v -0.46492546796798706 -0.08157411217689514 0.15274634957313538
v -0.4674793481826782 -0.08157411217689514 0.14994925260543823
v -0.46986672282218933 -0.08157411217689514 0.14692537486553192
v -0.47247615456581116 0.04186654090881348 0.14349833130836487
v -0.4743638038635254 0.04186654090881348 0.14070123434066772
v -0.45887380838394165 -0.08157411217689514 0.15841613709926605
v -0.46209394931793213 -0.08157411217689514 0.1557450294494629
v -0.4771953225135803 0.04186654090881348 0.1359890252351761
v -0.47863882780075073 0.04186654090881348 0.13316673040390015
v -0.47858330607414246 0.04523257166147232 0.13309113681316376
v -0.48369112610816956 0.04186654090881348 0.12031524628400803
v -0.4794161021709442 0.047249291092157364 0.13016805052757263
v -0.48441287875175476 0.046306218951940536 0.11701419204473495
v -0.4845794439315796 0.04186654090881348 0.11749295890331268
v -0.4854677617549896 0.04186654090881348 0.11325953155755997
v -0.487022340297699 0.04186654090881348 0.10204599052667618
v -0.4848015308380127 0.04788767918944359 0.11358711868524551
v -0.48568984866142273 0.04746691882610321 0.10764016211032867
v -0.48680025339126587 0.04186654090881348 0.0908072367310524
v -0.48607850074768066 0.04186654090881348 0.0852130576968193
v -0.4849680960178375 -0.08157411217689514 0.07959368079900742
v -0.4842463433742523 -0.08157411217689514 0.07644380629062653
v -0.4833579957485199 -0.08157411217689514 0.07362151890993118
v -0.48152586817741394 -0.08157411217689514 0.06838013231754303
v -0.4794716238975525 -0.08157411217689514 0.0636175274848938
v -0.47808364033699036 -0.08157411217689514 0.06082044169306755
v -0.4736420512199402 -0.08157411217689514 0.053260739892721176
v -0.4760293960571289 -0.08157411217689514 0.057141389697790146
v -0.413958340883255 0.04746691882610321 0.17572784423828125
v -0.4083508253097534 0.04746691882610321 0.176005020737648
v -0.4838576912879944 0.05003498122096062 0.11567863821983337
v -0.4777505099773407 0.04897584021091461 0.13210837543010712
v -0.47391965985298157 0.04746691882610321 0.14009647071361542
v -0.4665355384349823 0.04904837906360626 0.14899170398712158
v -0.4612056314945221 0.0497012697160244 0.15486307442188263
v -0.4524334967136383 0.04746691882610321 0.16229677200317383
v -0.44838055968284607 0.04746691882610321 0.16509385406970978
v -0.4455490708351135 0.04746691882610321 0.16698378324508667
v -0.43427854776382446 0.04616113007068634 0.1724519580602646
v -0.433223694562912 0.04990439862012863 0.17182199656963348
v -0.43116945028305054 0.04781512916088104 0.1730315238237381
v -0.4736420512199402 0.04186654090881348 0.053260739892721176
v -0.4760293960571289 0.04186654090881348 0.057141389697790146
v -0.47808364033699036 0.04186654090881348 0.06082044169306755
v -0.4794716238975525 0.04186654090881348 0.0636175274848938
v -0.48152586817741394 0.04186654090881348 0.06838013231754303
v -0.4833579957485199 0.04186654090881348 0.07362151890993118
v -0.4842463433742523 0.04186654090881348 0.07644380629062653
v -0.4849680960178375 0.04186654090881348 0.07959368079900742
v -0.4845239222049713 0.047205761075019836 0.07977008074522018
v -0.48541224002838135 0.04746691882610321 0.0852130576968193
v 0.016208669170737267 0.05042671039700508 0.07694779336452484
v 0.03264252096414566 0.05047024041414261 0.07140401005744934
v 0.040470801293849945 0.05057179927825928 0.06626342236995697
v -0.4027433395385742 0.04746691882610321 0.17590421438217163
v -0.397135853767395 0.04746691882610321 0.1754506379365921
v -0.3826451897621155 0.05041220039129257 0.1723259687423706
v 0.04346887022256851 0.05036868155002594 0.06568384170532227
v 0.05035331845283508 0.04746691882610321 0.0611228309571743
v 0.053684499114751816 0.04186654090881348 0.059207700192928314
v 0.05651601031422615 0.04186654090881348 0.05641061067581177
v 0.05929199978709221 0.04186654090881348 0.053462330251932144
v 0.06167934834957123 0.04186654090881348 0.050665248185396194
v 0.06406670063734055 0.04746691882610321 0.04668379947543144
v 0.06623197346925735 0.04746691882610321 0.04388672113418579
v 0.07095114886760712 0.04186654090881348 0.03675540164113045
v 0.07228361815214157 0.04186654090881348 0.0339331217110157
v 0.0743933692574501 0.04186654090881348 0.029120109975337982
v 0.07628104090690613 0.04186654090881348 0.023903919383883476
v 0.07705829292535782 0.04186654090881348 0.02110682986676693
v 0.0778355672955513 0.04186654090881348 0.0178813599050045
v 0.07705829292535782 -0.08157411217689514 0.02110682986676693
v 0.07628104090690613 -0.08157411217689514 0.023903919383883476
v 0.0743933692574501 -0.08157411217689514 0.029120109975337982
v 0.07228361815214157 -0.08157411217689514 0.0339331217110157
v 0.07095114886760712 -0.08157411217689514 0.03675540164113045
v 0.06650956720113754 -0.08157411217689514 0.04431509971618652
v 0.06451085954904556 -0.08157411217689514 0.04711218923330307
v 0.06895244121551514 -0.08157411217689514 0.04033365845680237
v 0.061734870076179504 -0.06474394351243973 0.0506400503218174
v 0.04724420979619026 -0.08157411217689514 0.06437350064516068
v 0.050852999091148376 0.04186654090881348 0.061551209539175034
v 0.04441270977258682 -0.08157411217689514 0.06633902341127396
v 0.040470801293849945 -0.08157411217689514 0.06878332048654556
v 0.040470801293849945 -0.0759592205286026 0.06880851835012436
v 0.03697305917739868 0.04186654090881348 0.07082443684339523
v 0.03419706970453262 0.04186654090881348 0.07215998321771622
v 0.024259040132164955 -0.08157411217689514 0.07606583088636398
v 0.0292558204382658 0.04186654090881348 0.07425150275230408
v 0.02142753079533577 -0.08157411217689514 0.07697299122810364
v -0.38592085242271423 0.04186654090881348 0.17456866800785065
v -0.39152833819389343 0.04186654090881348 0.17590421438217163
v -0.39152833819389343 0.04746691882610321 0.1747702658176422
v -0.4083508253097534 0.04186654090881348 0.1773909628391266
v -0.4083508253097534 0.03063674084842205 0.17741617560386658
v -0.4308363199234009 0.04186654090881348 0.17383791506290436
v -0.4346116781234741 0.04186654090881348 0.17257794737815857
v -0.43744316697120667 0.04186654090881348 0.17146921157836914
v -0.44205132126808167 0.04186654090881348 0.16937768459320068
v -0.4461042582988739 0.04186654090881348 0.16728615760803223
v -0.44888025522232056 0.04186654090881348 0.16564823687076569
v -0.4530997574329376 0.04186654090881348 0.16285113990306854
v -0.45593124628067017 0.04186654090881348 0.16083522140979767
v -0.46492546796798706 0.04186654090881348 0.15274634957313538
v -0.4674793481826782 0.04186654090881348 0.14994925260543823
v -0.46986672282218933 0.04186654090881348 0.14692537486553192
v -0.46742385625839233 0.045305121690034866 0.14987367391586304
v -0.45887380838394165 0.04186654090881348 0.15841613709926605
v -0.46209394931793213 0.04186654090881348 0.1557450294494629
v -0.47180992364883423 0.04746691882610321 0.14289355278015137
v -0.4687563180923462 0.04729282110929489 0.1470261961221695
v -0.4619829058647156 0.045958008617162704 0.1556190401315689
v 0.01804083026945591 0.0474524088203907 0.07727538049221039
v 0.02126096934080124 0.04556627944111824 0.07692258805036545
v 0.019928500056266785 0.049309540539979935 0.07616662234067917
v 0.03358636051416397 0.04746691882610321 0.07185760140419006
v -0.38592085242271423 0.04746691882610321 0.17378750443458557
v 0.04402406886219978 0.04746691882610321 0.06603662669658661
v 0.04680005833506584 0.04746691882610321 0.06391990929841995
v 0.061734870076179504 0.02502184920012951 0.0506400503218174
v 0.06451085954904556 0.04186654090881348 0.04711218923330307
v 0.06650956720113754 0.04186654090881348 0.04431509971618652
v 0.06895244121551514 0.04186654090881348 0.04033365845680237
v 0.07228361815214157 0.01942146010696888 0.0339583195745945
v 0.07228361815214157 -0.05912904068827629 0.0339583195745945
v 0.04724420979619026 0.04186654090881348 0.06437350064516068
v 0.04441270977258682 0.04186654090881348 0.06633902341127396
v 0.040470801293849945 0.03625164180994034 0.06880851835012436
v 0.040470801293849945 0.04186654090881348 0.06878332048654556
v 0.024259040132164955 0.04186654090881348 0.07606583088636398
v 0.02142753079533577 0.04186654090881348 0.07697299122810364
f 1 2 7
f 1 7 3
f 1 3 10
f 1 10 4
f 1 4 12
f 1 12 5
f 1 5 8
f 1 8 2
f 2 6 7
f 2 8 6
f 3 7 19
f 3 19 9
f 3 9 21
f 3 21 10
f 4 10 24
f 4 24 11
f 4 11 28
f 4 28 12
f 5 12 29
f 5 29 13
f 5 13 20
f 5 20 8
f 6 14 15
f 6 15 16
f 6 16 7
f 6 8 17
f 6 17 35
f 6 35 14
f 7 16 18
f 7 18 19
f 8 20 39
f 8 39 17
f 9 19 42
f 9 42 22
f 9 22 21
f 10 21 23
f 10 23 24
f 11 24 25
f 11 25 26
f 11 26 27
f 11 27 28
f 12 28 55
f 12 55 29
f 13 29 30
f 13 30 43
f 13 43 20
f 14 31 32
f 14 32 33
f 14 33 34
f 14 34 15
f 14 35 36
f 14 36 31
f 15 34 37
f 15 37 38
f 15 38 16
f 16 38 18
f 17 39 40
f 17 40 35
f 18 38 41
f 18 41 42
f 18 42 19
f 20 43 39
f 21 22 44
f 21 44 23
f 22 42 71
f 22 71 45
f 22 45 46
f 22 46 44
f 23 44 47
f 23 47 24
f 24 47 48
f 24 48 25
f 25 48 49
f 25 49 50
f 25 50 26
f 26 51 27
f 26 50 51
f 27 51 52
f 27 52 28
f 28 52 53
f 28 53 54
f 28 54 55
f 29 55 56
f 29 56 30
f 30 56 57
f 30 57 58
f 30 58 72
f 30 72 43
f 31 36 59
f 31 59 60
f 31 60 32
f 32 60 33
f 33 60 34
f 34 60 37
f 35 40 61
f 35 61 62
f 35 62 63
f 35 63 36
f 36 63 59
f 37 41 38
f 37 60 64
f 37 64 65
f 37 65 66
f 37 66 41
f 39 43 67
f 39 67 40
f 40 67 68
f 40 68 61
f 41 66 69
f 41 69 42
f 42 69 70
f 42 70 71
f 43 72 73
f 43 73 67
f 44 46 74
f 44 74 47
f 45 71 111
f 45 111 75
f 45 75 76
f 45 76 46
f 46 76 74
f 47 77 48
f 47 74 78
f 47 78 79
f 47 79 77
f 48 77 50
f 48 50 49
f 50 77 80
f 50 80 81
f 50 81 82
f 50 82 83
f 50 83 84
f 50 84 51
f 51 85 53
f 51 53 52
f 51 84 86
f 51 86 87
f 51 87 88
f 51 88 89
f 51 89 90
f 51 90 85
f 53 85 54
f 54 91 55
f 54 85 92
f 54 92 93
f 54 93 94
f 54 94 91
f 55 91 56
f 56 91 57
f 57 91 94
f 57 94 95
f 57 95 96
f 57 96 58
f 58 96 97
f 58 97 112
f 58 112 72
f 59 98 99
f 59 99 60
f 59 63 62
f 59 62 61
f 59 61 68
f 59 68 100
f 59 100 98
f 60 99 101
f 60 101 64
f 64 102 65
f 64 101 102
f 65 103 70
f 65 70 66
f 65 102 104
f 65 104 105
f 65 105 106
f 65 106 107
f 65 107 103
f 66 70 69
f 67 73 68
f 68 73 108
f 68 108 100
f 70 103 109
f 70 109 110
f 70 110 111
f 70 111 71
f 72 112 113
f 72 113 73
f 73 113 108
f 74 76 114
f 74 114 78
f 75 111 110
f 75 110 115
f 75 115 76
f 76 115 116
f 76 116 114
f 77 79 80
f 78 114 117
f 78 117 118
f 78 118 119
f 78 119 120
f 78 120 121
f 78 121 122
f 78 122 79
f 79 122 80
f 80 122 123
f 80 123 124
f 80 124 81
f 81 124 82
f 82 125 126
f 82 126 127
f 82 127 83
f 82 124 125
f 83 127 128
f 83 128 129
f 83 129 130
f 83 130 84
f 84 130 131
f 84 131 132
f 84 132 133
f 84 133 86
f 85 90 92
f 86 133 134
f 86 134 135
f 86 135 136
f 86 136 88
f 86 88 87
f 88 136 137
f 88 137 138
f 88 138 139
f 88 139 140
f 88 140 141
f 88 141 142
f 88 142 89
f 89 142 90
f 90 142 143
f 90 143 144
f 90 144 92
f 92 144 145
f 92 145 93
f 93 145 94
f 94 145 146
f 94 146 147
f 94 147 95
f 95 147 96
f 96 147 146
f 96 146 148
f 96 148 149
f 96 149 150
f 96 150 97
f 97 150 168
f 97 168 112
f 98 151 99
f 98 100 152
f 98 152 153
f 98 153 151
f 99 154 101
f 99 151 154
f 100 108 113
f 100 113 155
f 100 155 153
f 100 153 152
f 101 154 102
f 102 156 104
f 102 154 156
f 103 157 158
f 103 158 109
f 103 107 159
f 103 159 157
f 104 156 160
f 104 160 105
f 105 161 162
f 105 162 163
f 105 163 164
f 105 164 165
f 105 165 166
f 105 166 106
f 105 160 161
f 106 166 167
f 106 167 107
f 107 167 159
f 109 116 115
f 109 115 110
f 109 158 171
f 109 171 116
f 112 168 113
f 113 168 169
f 113 169 170
f 113 170 155
f 114 116 171
f 114 171 172
f 114 172 173
f 114 173 117
f 117 173 118
f 118 173 174
f 118 174 119
f 119 174 175
f 119 175 120
f 120 175 176
f 120 176 177
f 120 177 178
f 120 178 179
f 120 179 180
f 120 180 181
f 120 181 121
f 121 181 123
f 121 123 122
f 123 181 124
f 124 181 180
f 124 180 125
f 125 179 126
f 125 180 179
f 126 178 127
f 126 179 178
f 127 178 128
f 128 178 182
f 128 182 183
f 128 183 184
f 128 184 129
f 129 184 185
f 129 185 130
f 130 185 131
f 131 185 186
f 131 186 187
f 131 187 132
f 132 187 188
f 132 188 189
f 132 189 133
f 133 189 134
f 134 189 190
f 134 190 191
f 134 191 192
f 134 192 193
f 134 193 194
f 134 194 135
f 135 194 195
f 135 195 196
f 135 196 197
f 135 197 198
f 135 198 136
f 136 198 199
f 136 199 200
f 136 200 201
f 136 201 202
f 136 202 203
f 136 203 204
f 136 204 137
f 137 204 205
f 137 205 206
f 137 206 207
f 137 207 208
f 137 208 209
f 137 209 138
f 138 209 139
f 139 209 210
f 139 210 211
f 139 211 212
f 139 212 140
f 140 213 141
f 140 212 213
f 141 214 215
f 141 215 142
f 141 213 214
f 142 215 216
f 142 216 217
f 142 217 218
f 142 218 143
f 143 218 219
f 143 219 144
f 144 219 220
f 144 220 145
f 145 220 146
f 146 220 221
f 146 221 222
f 146 222 148
f 148 222 223
f 148 223 224
f 148 224 225
f 148 225 149
f 149 225 253
f 149 253 169
f 149 169 168
f 149 168 150
f 151 226 321
f 151 321 227
f 151 227 154
f 151 153 228
f 151 228 229
f 151 229 230
f 151 230 226
f 153 155 228
f 154 227 231
f 154 231 232
f 154 232 233
f 154 233 234
f 154 234 235
f 154 235 236
f 154 236 237
f 154 237 238
f 154 238 239
f 154 239 156
f 155 170 240
f 155 240 241
f 155 241 228
f 156 239 161
f 156 161 160
f 157 172 171
f 157 171 158
f 157 159 173
f 157 173 172
f 159 167 174
f 159 174 173
f 161 239 162
f 162 239 163
f 163 242 164
f 163 239 238
f 163 238 243
f 163 243 244
f 163 244 242
f 164 242 245
f 164 245 165
f 165 245 242
f 165 242 246
f 165 246 247
f 165 247 248
f 165 248 249
f 165 249 166
f 166 250 251
f 166 251 167
f 166 249 250
f 167 251 252
f 167 252 256
f 167 256 174
f 169 253 170
f 170 253 254
f 170 254 255
f 170 255 240
f 174 256 257
f 174 257 175
f 175 257 258
f 175 258 259
f 175 259 176
f 176 259 260
f 176 260 261
f 176 261 262
f 176 262 263
f 176 263 264
f 176 264 177
f 177 264 263
f 177 263 178
f 178 263 182
f 182 263 265
f 182 265 266
f 182 266 183
f 183 267 268
f 183 268 269
f 183 269 184
f 183 266 267
f 184 269 185
f 185 269 186
f 186 269 270
f 186 270 272
f 186 272 187
f 187 271 188
f 187 272 271
f 188 271 273
f 188 273 274
f 188 274 189
f 189 274 275
f 189 275 190
f 190 275 276
f 190 276 277
f 190 277 278
f 190 278 191
f 191 278 279
f 191 279 192
f 192 279 280
f 192 280 281
f 192 281 193
f 193 281 282
f 193 282 283
f 193 283 194
f 194 283 195
f 195 283 284
f 195 284 196
f 196 284 197
f 197 284 285
f 197 285 198
f 198 285 199
f 199 285 200
f 200 285 286
f 200 286 201
f 201 287 202
f 201 286 288
f 201 288 287
f 202 287 289
f 202 289 203
f 203 289 290
f 203 290 291
f 203 291 292
f 203 292 204
f 204 293 294
f 204 294 205
f 204 292 293
f 205 294 295
f 205 295 207
f 205 207 206
f 207 295 296
f 207 296 297
f 207 297 298
f 207 298 299
f 207 299 208
f 208 300 209
f 208 299 210
f 208 210 300
f 209 300 210
f 210 299 211
f 211 299 301
f 211 301 302
f 211 302 303
f 211 303 212
f 212 304 213
f 212 303 304
f 213 305 214
f 213 304 305
f 214 306 215
f 214 305 306
f 215 306 307
f 215 307 216
f 216 308 217
f 216 307 308
f 217 308 309
f 217 309 310
f 217 310 218
f 218 310 311
f 218 311 312
f 218 312 219
f 219 221 220
f 219 312 221
f 221 312 222
f 222 312 311
f 222 311 313
f 222 313 314
f 222 314 315
f 222 315 223
f 223 316 317
f 223 317 224
f 223 315 318
f 223 318 316
f 224 317 349
f 224 349 254
f 224 254 253
f 224 253 225
f 226 319 320
f 226 320 414
f 226 414 321
f 226 230 319
f 227 321 414
f 227 414 322
f 227 322 231
f 228 241 323
f 228 323 229
f 229 323 324
f 229 324 325
f 229 325 230
f 230 325 326
f 230 326 327
f 230 327 328
f 230 328 329
f 230 329 320
f 230 320 319
f 231 322 232
f 232 330 331
f 232 331 233
f 232 322 330
f 233 331 332
f 233 332 333
f 233 333 234
f 234 333 334
f 234 334 335
f 234 335 336
f 234 336 337
f 234 337 235
f 235 337 338
f 235 338 339
f 235 339 236
f 236 243 238
f 236 238 237
f 236 339 340
f 236 340 243
f 240 255 341
f 240 341 342
f 240 342 343
f 240 343 324
f 240 324 323
f 240 323 241
f 242 244 344
f 242 344 345
f 242 345 246
f 243 346 244
f 243 340 347
f 243 347 346
f 244 346 344
f 246 345 353
f 246 353 262
f 246 262 261
f 246 261 247
f 247 261 260
f 247 260 248
f 248 260 352
f 248 352 348
f 248 348 252
f 248 252 249
f 249 252 250
f 250 252 251
f 252 348 352
f 252 352 256
f 254 349 255
f 255 349 350
f 255 350 351
f 255 351 341
f 256 258 257
f 256 352 260
f 256 260 259
f 256 259 258
f 262 353 263
f 263 353 265
f 265 353 354
f 265 354 355
f 265 355 356
f 265 356 357
f 265 357 266
f 266 357 267
f 267 357 358
f 267 358 359
f 267 359 360
f 267 360 268
f 268 360 361
f 268 361 269
f 269 361 270
f 270 362 363
f 270 363 272
f 270 361 457
f 270 457 362
f 271 364 365
f 271 365 273
f 271 272 366
f 271 366 364
f 272 363 366
f 273 365 367
f 273 367 274
f 274 367 275
f 275 367 368
f 275 368 276
f 276 369 370
f 276 370 277
f 276 368 369
f 277 370 371
f 277 371 372
f 277 372 278
f 278 372 373
f 278 373 374
f 278 374 279
f 279 375 280
f 279 374 375
f 280 376 281
f 280 375 376
f 281 376 377
f 281 377 282
f 282 377 283
f 283 378 379
f 283 379 284
f 283 377 378
f 284 379 380
f 284 380 285
f 285 380 381
f 285 381 382
f 285 382 286
f 286 382 288
f 287 288 383
f 287 383 384
f 287 384 385
f 287 385 289
f 288 382 386
f 288 386 383
f 289 385 290
f 290 385 387
f 290 387 291
f 291 387 388
f 291 388 292
f 292 388 389
f 292 389 293
f 293 389 294
f 294 389 390
f 294 390 295
f 295 391 296
f 295 390 392
f 295 392 393
f 295 393 391
f 296 394 297
f 296 391 394
f 297 394 395
f 297 395 396
f 297 396 397
f 297 397 298
f 298 397 398
f 298 398 301
f 298 301 299
f 301 398 399
f 301 399 302
f 302 399 400
f 302 400 401
f 302 401 303
f 303 401 402
f 303 402 304
f 304 403 404
f 304 404 305
f 304 402 403
f 305 404 306
f 306 405 307
f 306 404 405
f 307 405 406
f 307 406 308
f 308 406 407
f 308 407 309
f 309 408 409
f 309 409 310
f 309 407 408
f 310 410 313
f 310 313 311
f 310 409 410
f 313 410 411
f 313 411 412
f 313 412 314
f 314 412 413
f 314 413 315
f 315 413 318
f 316 318 351
f 316 351 350
f 316 350 349
f 316 349 317
f 318 413 446
f 318 446 351
f 320 329 415
f 320 415 416
f 320 416 414
f 322 417 330
f 322 414 418
f 322 418 419
f 322 419 420
f 322 420 421
f 322 421 422
f 322 422 423
f 322 423 417
f 324 343 325
f 325 343 424
f 325 424 326
f 326 425 426
f 326 426 327
f 326 424 427
f 326 427 425
f 327 426 428
f 327 428 429
f 327 429 328
f 328 429 430
f 328 430 329
f 329 430 431
f 329 431 432
f 329 432 415
f 330 417 433
f 330 433 331
f 331 433 434
f 331 434 332
f 332 434 435
f 332 435 436
f 332 436 437
f 332 437 333
f 333 437 438
f 333 438 439
f 333 439 334
f 334 439 440
f 334 440 335
f 335 440 441
f 335 441 442
f 335 442 336
f 336 442 337
f 337 442 338
f 338 442 443
f 338 443 339
f 339 443 340
f 340 443 444
f 340 444 445
f 340 445 347
f 341 351 446
f 341 446 342
f 342 446 447
f 342 447 343
f 343 447 448
f 343 448 424
f 344 346 449
f 344 449 450
f 344 450 451
f 344 451 452
f 344 452 345
f 345 452 354
f 345 354 353
f 346 347 453
f 346 453 449
f 347 445 453
f 354 452 451
f 354 451 355
f 355 451 450
f 355 450 356
f 356 450 449
f 356 449 357
f 357 449 454
f 357 454 358
f 358 454 562
f 358 562 455
f 358 455 359
f 359 455 360
f 360 455 562
f 360 562 456
f 360 456 457
f 360 457 361
f 362 457 444
f 362 444 443
f 362 443 363
f 363 458 366
f 363 443 442
f 363 442 441
f 363 441 458
f 364 366 459
f 364 459 460
f 364 460 365
f 365 460 461
f 365 461 462
f 365 462 367
f 366 458 459
f 367 462 369
f 367 369 368
f 369 463 370
f 369 462 463
f 370 463 371
f 371 464 465
f 371 465 466
f 371 466 372
f 371 463 464
f 372 466 467
f 372 467 373
f 373 467 468
f 373 468 469
f 373 469 374
f 374 469 375
f 375 469 376
f 376 469 470
f 376 470 471
f 376 471 377
f 377 471 378
f 378 472 473
f 378 473 379
f 378 471 472
f 379 474 380
f 379 473 474
f 380 475 586
f 380 586 476
f 380 476 381
f 380 474 584
f 380 584 475
f 381 476 382
f 382 476 586
f 382 586 477
f 382 477 484
f 382 484 386
f 383 478 479
f 383 479 384
f 383 386 478
f 384 480 481
f 384 481 385
f 384 479 480
f 385 481 482
f 385 482 483
f 385 483 392
f 385 392 387
f 386 484 588
f 386 588 478
f 387 392 388
f 388 392 389
f 389 392 390
f 391 393 485
f 391 485 486
f 391 486 487
f 391 487 488
f 391 488 394
f 392 489 486
f 392 486 393
f 392 483 490
f 392 490 489
f 393 486 485
f 394 488 491
f 394 491 492
f 394 492 395
f 395 492 607
f 395 607 493
f 395 493 495
f 395 495 396
f 396 494 397
f 396 495 609
f 396 609 494
f 397 494 496
f 397 496 497
f 397 497 398
f 398 497 399
f 399 498 400
f 399 497 613
f 399 613 499
f 399 499 614
f 399 614 498
f 400 498 500
f 400 500 501
f 400 501 401
f 401 501 502
f 401 502 402
f 402 502 503
f 402 503 403
f 403 503 504
f 403 504 404
f 404 504 505
f 404 505 405
f 405 505 506
f 405 506 507
f 405 507 508
f 405 508 407
f 405 407 406
f 407 508 509
f 407 509 510
f 407 510 408
f 408 511 512
f 408 512 409
f 408 510 513
f 408 513 511
f 409 512 411
f 409 411 410
f 411 512 532
f 411 532 448
f 411 448 447
f 411 447 412
f 412 447 446
f 412 446 413
f 414 416 418
f 415 432 416
f 416 432 514
f 416 514 418
f 417 423 515
f 417 515 516
f 417 516 517
f 417 517 518
f 417 518 433
f 418 519 419
f 418 514 520
f 418 520 519
f 419 519 521
f 419 521 522
f 419 522 523
f 419 523 420
f 420 523 524
f 420 524 525
f 420 525 526
f 420 526 421
f 421 526 527
f 421 527 528
f 421 528 422
f 422 529 530
f 422 530 423
f 422 528 529
f 423 530 531
f 423 531 515
f 424 448 427
f 425 427 532
f 425 532 533
f 425 533 534
f 425 534 535
f 425 535 426
f 426 535 536
f 426 536 537
f 426 537 429
f 426 429 428
f 427 448 532
f 429 537 538
f 429 538 539
f 429 539 430
f 430 539 431
f 431 539 540
f 431 540 514
f 431 514 432
f 433 541 542
f 433 542 543
f 433 543 544
f 433 544 434
f 433 518 545
f 433 545 546
f 433 546 547
f 433 547 548
f 433 548 541
f 434 544 549
f 434 549 550
f 434 550 435
f 435 550 551
f 435 551 552
f 435 552 436
f 436 552 553
f 436 553 554
f 436 554 555
f 436 555 437
f 437 555 438
f 438 555 439
f 439 556 557
f 439 557 440
f 439 555 556
f 440 557 558
f 440 558 559
f 440 559 441
f 441 559 458
f 444 457 445
f 445 457 456
f 445 456 453
f 449 453 560
f 449 560 454
f 453 456 561
f 453 561 560
f 454 560 561
f 454 561 562
f 456 562 561
f 458 559 563
f 458 563 459
f 459 564 565
f 459 565 460
f 459 563 669
f 459 669 564
f 460 565 461
f 461 565 566
f 461 566 462
f 462 566 567
f 462 567 463
f 463 567 568
f 463 568 569
f 463 569 464
f 464 570 571
f 464 571 465
f 464 569 570
f 465 571 572
f 465 572 466
f 466 572 573
f 466 573 467
f 467 573 468
f 468 574 469
f 468 573 575
f 468 575 574
f 469 574 576
f 469 576 470
f 470 576 577
f 470 577 578
f 470 578 579
f 470 579 580
f 470 580 471
f 471 580 581
f 471 581 472
f 472 582 583
f 472 583 473
f 472 581 580
f 472 580 582
f 473 583 474
f 474 583 690
f 474 690 584
f 475 585 586
f 475 584 585
f 477 587 484
f 477 586 587
f 478 588 694
f 478 694 589
f 478 589 479
f 479 589 480
f 480 590 591
f 480 591 592
f 480 592 481
f 480 589 590
f 481 592 593
f 481 593 594
f 481 594 482
f 482 594 595
f 482 595 483
f 483 595 596
f 483 596 490
f 484 597 598
f 484 598 588
f 484 587 597
f 486 599 600
f 486 600 601
f 486 601 487
f 486 489 599
f 487 601 704
f 487 704 602
f 487 602 603
f 487 603 488
f 488 603 606
f 488 606 491
f 489 490 596
f 489 596 604
f 489 604 605
f 489 605 599
f 491 606 607
f 491 607 492
f 493 607 608
f 493 608 495
f 494 609 612
f 494 612 496
f 495 608 610
f 495 610 611
f 495 611 609
f 496 612 613
f 496 613 497
f 498 614 500
f 499 613 611
f 499 611 615
f 499 615 616
f 499 616 614
f 500 614 520
f 500 520 514
f 500 514 540
f 500 540 617
f 500 617 502
f 500 502 501
f 502 617 618
f 502 618 503
f 503 618 647
f 503 647 619
f 503 619 506
f 503 506 504
f 504 506 505
f 506 619 620
f 506 620 621
f 506 621 622
f 506 622 508
f 506 508 507
f 508 622 623
f 508 623 624
f 508 624 509
f 509 625 513
f 509 513 510
f 509 624 626
f 509 626 625
f 511 533 532
f 511 532 512
f 511 513 534
f 511 534 533
f 513 625 640
f 513 640 534
f 515 531 627
f 515 627 628
f 515 628 516
f 516 628 517
f 517 628 518
f 518 628 545
f 519 520 521
f 520 616 521
f 520 614 616
f 521 616 615
f 521 615 629
f 521 629 522
f 522 629 610
f 522 610 630
f 522 630 524
f 522 524 523
f 524 630 631
f 524 631 632
f 524 632 633
f 524 633 525
f 525 633 526
f 526 633 527
f 527 633 528
f 528 633 529
f 529 633 634
f 529 634 635
f 529 635 636
f 529 636 637
f 529 637 638
f 529 638 531
f 529 531 530
f 531 598 597
f 531 597 627
f 531 638 639
f 531 639 598
f 534 640 536
f 534 536 535
f 536 640 641
f 536 641 642
f 536 642 537
f 537 642 643
f 537 643 644
f 537 644 538
f 538 645 646
f 538 646 647
f 538 647 618
f 538 618 648
f 538 648 539
f 538 644 645
f 539 648 649
f 539 649 540
f 540 649 617
f 541 650 543
f 541 543 542
f 541 548 650
f 543 650 651
f 543 651 544
f 544 651 652
f 544 652 549
f 545 628 653
f 545 653 546
f 546 653 547
f 547 653 548
f 548 653 654
f 548 654 655
f 548 655 650
f 549 652 656
f 549 656 550
f 550 657 551
f 550 656 657
f 551 658 659
f 551 659 552
f 551 657 658
f 552 659 553
f 553 659 660
f 553 660 554
f 554 660 661
f 554 661 662
f 554 662 555
f 555 663 556
f 555 662 663
f 556 664 665
f 556 665 666
f 556 666 557
f 556 663 664
f 557 667 668
f 557 668 669
f 557 669 563
f 557 563 558
f 557 666 667
f 558 563 559
f 564 670 565
f 564 669 668
f 564 668 670
f 565 670 671
f 565 671 672
f 565 672 567
f 565 567 566
f 567 672 673
f 567 673 674
f 567 674 568
f 568 675 676
f 568 676 569
f 568 674 677
f 568 677 675
f 569 676 570
f 570 676 678
f 570 678 571
f 571 660 659
f 571 659 572
f 571 678 718
f 571 718 660
f 572 659 658
f 572 658 573
f 573 658 680
f 573 680 575
f 574 575 679
f 574 679 576
f 575 680 724
f 575 724 679
f 576 679 681
f 576 681 682
f 576 682 577
f 577 682 683
f 577 683 726
f 577 726 684
f 577 684 685
f 577 685 578
f 578 685 687
f 578 687 579
f 579 686 580
f 579 687 728
f 579 728 686
f 580 686 688
f 580 688 582
f 582 689 690
f 582 690 583
f 582 688 729
f 582 729 689
f 584 654 585
f 584 690 691
f 584 691 654
f 585 653 628
f 585 628 692
f 585 692 693
f 585 693 586
f 585 654 653
f 586 693 587
f 587 693 692
f 587 692 628
f 587 628 627
f 587 627 597
f 588 598 639
f 588 639 637
f 588 637 694
f 589 694 695
f 589 695 590
f 590 695 696
f 590 696 591
f 591 696 697
f 591 697 592
f 592 697 698
f 592 698 593
f 593 698 699
f 593 699 594
f 594 699 700
f 594 700 595
f 595 700 701
f 595 701 596
f 596 701 706
f 596 706 604
f 599 702 703
f 599 703 600
f 599 605 707
f 599 707 702
f 600 703 704
f 600 704 601
f 602 631 603
f 602 704 705
f 602 705 631
f 603 631 608
f 603 608 606
f 604 706 707
f 604 707 605
f 606 608 607
f 608 630 610
f 608 631 630
f 609 611 612
f 610 629 611
f 611 629 615
f 611 613 612
f 617 649 618
f 618 649 648
f 619 647 646
f 619 646 620
f 620 646 645
f 620 645 621
f 621 645 644
f 621 644 622
f 622 644 643
f 622 643 623
f 623 643 642
f 623 642 624
f 624 642 641
f 624 641 626
f 625 626 641
f 625 641 640
f 631 705 708
f 631 708 632
f 632 708 709
f 632 709 705
f 632 705 633
f 633 705 710
f 633 710 634
f 634 710 701
f 634 701 700
f 634 700 635
f 635 700 636
f 636 700 699
f 636 699 698
f 636 698 697
f 636 697 637
f 637 696 695
f 637 695 694
f 637 639 638
f 637 697 696
f 650 711 712
f 650 712 713
f 650 713 651
f 650 655 711
f 651 714 656
f 651 656 652
f 651 713 712
f 651 712 714
f 654 691 655
f 655 691 715
f 655 715 711
f 656 714 716
f 656 716 717
f 656 717 657
f 657 717 680
f 657 680 658
f 660 718 661
f 661 718 719
f 661 719 662
f 662 719 663
f 663 719 720
f 663 720 721
f 663 721 664
f 664 722 665
f 664 721 677
f 664 677 674
f 664 674 723
f 664 723 722
f 665 722 666
f 666 722 723
f 666 723 672
f 666 672 671
f 666 671 667
f 667 671 670
f 667 670 668
f 672 723 673
f 673 723 674
f 675 720 719
f 675 719 676
f 675 677 721
f 675 721 720
f 676 719 718
f 676 718 678
f 679 724 725
f 679 725 681
f 680 717 724
f 681 683 682
f 681 725 726
f 681 726 683
f 684 714 685
f 684 726 727
f 684 727 716
f 684 716 714
f 685 714 687
f 686 728 729
f 686 729 688
f 687 714 712
f 687 712 728
f 689 715 690
f 689 729 712
f 689 712 715
f 690 715 691
f 701 710 706
f 702 705 703
f 702 707 710
f 702 710 705
f 703 705 704
f 705 709 708
f 706 710 707
f 711 715 712
f 712 729 728
f 716 725 724
f 716 724 717
f 716 727 725
f 725 727 726
