v -0.017548574134707454 0.06791844964027403 0.0411534458398819
v -0.03575266525149346 0.06794669479131697 0.02755158208310604
v -0.0444902889430523 0.06794688850641249 0.007998115383088589
v -0.0444902889430523 0.06794688850641249 0.007998115383088589
v -0.04348833486437798 0.0679471269249916 -0.013839952647686005
v -0.017548574134707454 0.06791844964027403 0.0411534458398819
v -0.017548574134707454 0.06791844964027403 0.0411534458398819
v -0.04348833486437798 0.0679471269249916 -0.013839952647686005
v -0.03251056373119355 0.0679456666111946 -0.0319964699447155
v -0.03251056373119355 0.0679456666111946 -0.0319964699447155
v -0.04348833486437798 0.0679471269249916 -0.013839952647686005
v -0.03199491649866105 0.10764481872320174 -0.033019840717315674
v 0.03228806704282761 0.06794667243957518 -0.032717205584049225
v 0.015002509579062465 0.06794695556163786 -0.04313791170716286
v 0.018733626231551174 0.10936619341373442 -0.04072890803217888
v 0.015002509579062465 0.06794695556163786 -0.04313791170716286
v -0.017548574134707454 0.06791844964027403 0.0411534458398819
v -0.002158523537218571 0.06794656068086623 -0.045847874134778976
v -0.017548574134707454 0.06791844964027403 0.0411534458398819
v 0.015002509579062465 0.06794695556163786 -0.04313791170716286
v 0.03228806704282761 0.06794667243957518 -0.032717205584049225
v 0.03228806704282761 0.06794667243957518 -0.032717205584049225
v 0.044248770922422416 0.06794671714305876 -0.01095857284963131
v -0.017548574134707454 0.06791844964027403 0.0411534458398819
v -0.029771881178021438 0.11649963259696959 -0.01018302608281374
v -0.004977644886821509 0.11671048402786253 -0.01684090681374073
v -0.023129638284444812 0.11649812757968901 -0.02171173505485058
v -0.014617981389164928 0.10770589113235472 -0.04327451065182686
v 0.0025348518975079064 0.10779152810573576 -0.045821595937013626
v -0.002158523537218571 0.06794656068086623 -0.045847874134778976
v 0.0025348518975079064 0.10779152810573576 -0.045821595937013626
v 0.015002509579062465 0.06794695556163786 -0.04313791170716286
v -0.002158523537218571 0.06794656068086623 -0.045847874134778976
v 0.015002509579062465 0.06794695556163786 -0.04313791170716286
v 0.0025348518975079064 0.10779152810573576 -0.045821595937013626
v 0.018733626231551174 0.10936619341373442 -0.04072890803217888
v -0.03251056373119355 0.0679456666111946 -0.0319964699447155
v -0.03199491649866105 0.10764481872320174 -0.033019840717315674
v -0.01840716600418091 0.06794694066047667 -0.04178145155310631
v -0.014617981389164928 0.10770589113235472 -0.04327451065182686
v -0.01840716600418091 0.06794694066047667 -0.04178145155310631
v -0.03199491649866105 0.10764481872320174 -0.033019840717315674
v -0.01840716600418091 0.06794694066047667 -0.04178145155310631
v -0.014617981389164928 0.10770589113235472 -0.04327451065182686
v -0.002158523537218571 0.06794656068086623 -0.045847874134778976
v -0.017548574134707454 0.06791844964027403 0.0411534458398819
v -0.01840716600418091 0.06794694066047667 -0.04178145155310631
v -0.002158523537218571 0.06794656068086623 -0.045847874134778976
v -0.03251056373119355 0.0679456666111946 -0.0319964699447155
v -0.01840716600418091 0.06794694066047667 -0.04178145155310631
v -0.017548574134707454 0.06791844964027403 0.0411534458398819
v -0.014617981389164928 0.10770589113235472 -0.04327451065182686
v -0.03199491649866105 0.10764481872320174 -0.033019840717315674
v -0.02648997493088246 0.11019860953092574 -0.034456517547369
v -0.014617981389164928 0.10770589113235472 -0.04327451065182686
v -0.02648997493088246 0.11019860953092574 -0.034456517547369
v -0.012708276510238651 0.11639499664306639 -0.029187669977545738
v -0.012708276510238651 0.11639499664306639 -0.029187669977545738
v -0.02648997493088246 0.11019860953092574 -0.034456517547369
v -0.023129638284444812 0.11649812757968901 -0.02171173505485058
v 0.044248770922422416 0.06794671714305876 -0.01095857284963131
v 0.04366498440504075 0.10766689479351042 -0.013260561972856522
v 0.04434700310230256 0.10784856975078581 0.008666347712278366
v 0.03228806704282761 0.06794667243957518 -0.032717205584049225
v 0.04366498440504075 0.10766689479351042 -0.013260561972856522
v 0.044248770922422416 0.06794671714305876 -0.01095857284963131
v 0.030440850183367736 0.11659715324640273 0.006368420552462339
v 0.02084305323660374 0.11668584495782851 0.022289501503109932
v 0.026043104007840163 0.1162973642349243 0.0169869102537632
v 0.030440850183367736 0.11659715324640273 0.006368420552462339
v 5.843170220032336e-05 0.11670816689729689 -0.01726015843451023
v 0.02084305323660374 0.11668584495782851 0.022289501503109932
v 0.044248770922422416 0.06794671714305876 -0.01095857284963131
v 0.04396093264222146 0.06794692575931548 0.010402271524071693
v -0.017548574134707454 0.06791844964027403 0.0411534458398819
v 0.03838475421071053 0.06794696301221846 0.023065196350216866
v 0.04396093264222146 0.06794692575931548 0.010402271524071693
v 0.04434700310230256 0.10784856975078581 0.008666347712278366
v 0.04396093264222146 0.06794692575931548 0.010402271524071693
v 0.044248770922422416 0.06794671714305876 -0.01095857284963131
v 0.04434700310230256 0.10784856975078581 0.008666347712278366
v -0.012708276510238651 0.11639499664306639 -0.029187669977545738
v -0.002746684476733208 0.11021220684051512 -0.04352165386080742
v -0.014617981389164928 0.10770589113235472 -0.04327451065182686
v -0.002746684476733208 0.11021220684051512 -0.04352165386080742
v 0.0025348518975079064 0.10779152810573576 -0.045821595937013626
v -0.014617981389164928 0.10770589113235472 -0.04327451065182686
v 0.0025348518975079064 0.10779152810573576 -0.045821595937013626
v -0.002746684476733208 0.11021220684051512 -0.04352165386080742
v 0.018733626231551174 0.10936619341373442 -0.04072890803217888
v 0.03508907929062844 0.10781911760568617 0.028396710753440857
v 0.03838475421071053 0.06794696301221846 0.023065196350216866
v 0.04434700310230256 0.10784856975078581 0.008666347712278366
v 0.03508907929062844 0.10781911760568617 0.028396710753440857
v 0.026221925392746932 0.06794480234384535 0.03661087900400162
v 0.03838475421071053 0.06794696301221846 0.023065196350216866
v 0.026221925392746932 0.06794480234384535 0.03661087900400162
v 0.03508907929062844 0.10781911760568617 0.028396710753440857
v 0.02093223482370377 0.10766850411891936 0.039402544498443604
v 0.03183133527636529 0.11537814140319823 -0.003927466459572315
v 0.030440850183367736 0.11659715324640273 0.006368420552462339
v 0.042473953217268 0.1101979836821556 -0.005816764198243618
v 0.04366498440504075 0.10766689479351042 -0.013260561972856522
v 0.042473953217268 0.1101979836821556 -0.005816764198243618
v 0.04434700310230256 0.10784856975078581 0.008666347712278366
v 0.033341377973556525 0.11022157967090605 -0.028054285794496536
v 0.042473953217268 0.1101979836821556 -0.005816764198243618
v 0.04366498440504075 0.10766689479351042 -0.013260561972856522
v 0.033341377973556525 0.11022157967090605 -0.028054285794496536
v 0.018733626231551174 0.10936619341373442 -0.04072890803217888
v 0.015210670419037346 0.11639592796564101 -0.02792014181613922
v -0.005557574797421695 0.11658135056495665 0.030107179656624794
v -0.024915061891078956 0.11024343967437743 0.03506293520331383
v -0.0003662439703475685 0.11023467034101485 0.04196528345346451
v -0.018924096599221233 0.1077216938138008 0.04045970365405083
v -0.0060214106924831885 0.10769890248775481 0.04415503144264221
v -0.024915061891078956 0.11024343967437743 0.03506293520331383
v -0.024915061891078956 0.11024343967437743 0.03506293520331383
v -0.0060214106924831885 0.10769890248775481 0.04415503144264221
v -0.0003662439703475685 0.11023467034101485 0.04196528345346451
v 0.02206452935934067 0.11022258549928664 0.03620331361889839
v 0.03508907929062844 0.10781911760568617 0.028396710753440857
v 0.02084305323660374 0.11668584495782851 0.022289501503109932
v 0.03508907929062844 0.10781911760568617 0.028396710753440857
v 0.02206452935934067 0.11022258549928664 0.03620331361889839
v 0.02093223482370377 0.10766850411891936 0.039402544498443604
v 0.026043104007840163 0.1162973642349243 0.0169869102537632
v 0.02084305323660374 0.11668584495782851 0.022289501503109932
v 0.03940657153725625 0.11020843684673308 0.01709228940308094
v 0.03508907929062844 0.10781911760568617 0.028396710753440857
v 0.03940657153725625 0.11020843684673308 0.01709228940308094
v 0.02084305323660374 0.11668584495782851 0.022289501503109932
v 0.04434700310230256 0.10784856975078581 0.008666347712278366
v 0.03940657153725625 0.11020843684673308 0.01709228940308094
v 0.03508907929062844 0.10781911760568617 0.028396710753440857
v 0.026043104007840163 0.1162973642349243 0.0169869102537632
v 0.03940657153725625 0.11020843684673308 0.01709228940308094
v 0.030440850183367736 0.11659715324640273 0.006368420552462339
v 0.042473953217268 0.1101979836821556 -0.005816764198243618
v 0.03940657153725625 0.11020843684673308 0.01709228940308094
v 0.04434700310230256 0.10784856975078581 0.008666347712278366
v 0.042473953217268 0.1101979836821556 -0.005816764198243618
v 0.030440850183367736 0.11659715324640273 0.006368420552462339
v 0.03940657153725625 0.11020843684673308 0.01709228940308094
v 0.03280187770724297 0.10782135277986525 -0.03168707340955734
v 0.04366498440504075 0.10766689479351042 -0.013260561972856522
v 0.03228806704282761 0.06794667243957518 -0.032717205584049225
v 0.04366498440504075 0.10766689479351042 -0.013260561972856522
v 0.03280187770724297 0.10782135277986525 -0.03168707340955734
v 0.033341377973556525 0.11022157967090605 -0.028054285794496536
v 0.018733626231551174 0.10936619341373442 -0.04072890803217888
v 0.03280187770724297 0.10782135277986525 -0.03168707340955734
v 0.03228806704282761 0.06794667243957518 -0.032717205584049225
v 0.033341377973556525 0.11022157967090605 -0.028054285794496536
v 0.03280187770724297 0.10782135277986525 -0.03168707340955734
v 0.018733626231551174 0.10936619341373442 -0.04072890803217888
v 0.03183133527636529 0.11537814140319823 -0.003927466459572315
v 0.026410117745399482 0.11630377918481825 -0.017990978434681892
v 0.030440850183367736 0.11659715324640273 0.006368420552462339
v 0.015210670419037346 0.11639592796564101 -0.02792014181613922
v 0.026410117745399482 0.11630377918481825 -0.017990978434681892
v 0.033341377973556525 0.11022157967090605 -0.028054285794496536
v 0.042473953217268 0.1101979836821556 -0.005816764198243618
v 0.026410117745399482 0.11630377918481825 -0.017990978434681892
v 0.03183133527636529 0.11537814140319823 -0.003927466459572315
v 0.026410117745399482 0.11630377918481825 -0.017990978434681892
v 0.042473953217268 0.1101979836821556 -0.005816764198243618
v 0.033341377973556525 0.11022157967090605 -0.028054285794496536
v 5.843170220032336e-05 0.11670816689729689 -0.01726015843451023
v 0.001215001801028848 0.1167025864124298 0.027605226263403893
v 0.02084305323660374 0.11668584495782851 0.022289501503109932
v -0.004977644886821509 0.11671048402786253 -0.01684090681374073
v 0.001215001801028848 0.1167025864124298 0.027605226263403893
v 5.843170220032336e-05 0.11670816689729689 -0.01726015843451023
v -0.0037639453075826177 0.11669988185167311 0.015883859246969223
v 0.001215001801028848 0.1167025864124298 0.027605226263403893
v -0.004977644886821509 0.11671048402786253 -0.01684090681374073
v 0.02084305323660374 0.11668584495782851 0.022289501503109932
v 0.008138755336403848 0.1164092570543289 0.029917698353528976
v 0.02206452935934067 0.11022258549928664 0.03620331361889839
v 0.02206452935934067 0.11022258549928664 0.03620331361889839
v 0.008138755336403848 0.1164092570543289 0.029917698353528976
v 0.006310001946985723 0.11019197106361388 0.041620414704084396
v 0.001215001801028848 0.1167025864124298 0.027605226263403893
v 0.008138755336403848 0.1164092570543289 0.029917698353528976
v 0.02084305323660374 0.11668584495782851 0.022289501503109932
v -0.005557574797421695 0.11658135056495665 0.030107179656624794
v 0.008138755336403848 0.1164092570543289 0.029917698353528976
v 0.001215001801028848 0.1167025864124298 0.027605226263403893
v 0.006310001946985723 0.11019197106361388 0.041620414704084396
v 0.008138755336403848 0.1164092570543289 0.029917698353528976
v -0.0003662439703475685 0.11023467034101485 0.04196528345346451
v -0.0003662439703475685 0.11023467034101485 0.04196528345346451
v 0.008138755336403848 0.1164092570543289 0.029917698353528976
v -0.005557574797421695 0.11658135056495665 0.030107179656624794
v -0.024915061891078956 0.11024343967437743 0.03506293520331383
v -0.01493764761835337 0.11562044918537139 0.027618378400802612
v -0.02159424684941769 0.11654261499643324 0.021918047219514847
v -0.02159424684941769 0.11654261499643324 0.021918047219514847
v -0.01493764761835337 0.11562044918537139 0.027618378400802612
v -0.005557574797421695 0.11658135056495665 0.030107179656624794
v -0.005557574797421695 0.11658135056495665 0.030107179656624794
v -0.01493764761835337 0.11562044918537139 0.027618378400802612
v -0.024915061891078956 0.11024343967437743 0.03506293520331383
v -0.04348833486437798 0.0679471269249916 -0.013839952647686005
v -0.0444902889430523 0.06794688850641249 0.007998115383088589
v -0.04412812367081643 0.10762614756822585 -0.011583270505070686
v -0.04348833486437798 0.0679471269249916 -0.013839952647686005
v -0.04412812367081643 0.10762614756822585 -0.011583270505070686
v -0.03199491649866105 0.10764481872320174 -0.033019840717315674
v 5.843170220032336e-05 0.11670816689729689 -0.01726015843451023
v 0.002118743490427733 0.11654480546712874 -0.031955134123563766
v -0.004977644886821509 0.11671048402786253 -0.01684090681374073
v 0.002118743490427733 0.11654480546712874 -0.031955134123563766
v -0.002746684476733208 0.11021220684051512 -0.04352165386080742
v -0.012708276510238651 0.11639499664306639 -0.029187669977545738
v -0.002746684476733208 0.11021220684051512 -0.04352165386080742
v 0.002118743490427733 0.11654480546712874 -0.031955134123563766
v 0.018733626231551174 0.10936619341373442 -0.04072890803217888
v 0.015210670419037346 0.11639592796564101 -0.02792014181613922
v 0.018733626231551174 0.10936619341373442 -0.04072890803217888
v 0.002118743490427733 0.11654480546712874 -0.031955134123563766
v -0.023129638284444812 0.11649812757968901 -0.02171173505485058
v -0.004977644886821509 0.11671048402786253 -0.01684090681374073
v 0.002118743490427733 0.11654480546712874 -0.031955134123563766
v -0.023129638284444812 0.11649812757968901 -0.02171173505485058
v 0.002118743490427733 0.11654480546712874 -0.031955134123563766
v -0.012708276510238651 0.11639499664306639 -0.029187669977545738
v 0.026410117745399482 0.11630377918481825 -0.017990978434681892
v 0.02215606160461903 0.1165364310145378 -0.02060622349381447
v 0.030440850183367736 0.11659715324640273 0.006368420552462339
v 5.843170220032336e-05 0.11670816689729689 -0.01726015843451023
v 0.030440850183367736 0.11659715324640273 0.006368420552462339
v 0.02215606160461903 0.1165364310145378 -0.02060622349381447
v 0.026410117745399482 0.11630377918481825 -0.017990978434681892
v 0.015210670419037346 0.11639592796564101 -0.02792014181613922
v 0.02215606160461903 0.1165364310145378 -0.02060622349381447
v 0.002118743490427733 0.11654480546712874 -0.031955134123563766
v 5.843170220032336e-05 0.11670816689729689 -0.01726015843451023
v 0.02215606160461903 0.1165364310145378 -0.02060622349381447
v -0.02159424684941769 0.11654261499643324 0.021918047219514847
v -0.014550406485795978 0.11662507802248 0.019438857212662697
v -0.029771881178021438 0.11649963259696959 -0.01018302608281374
v -0.029771881178021438 0.11649963259696959 -0.01018302608281374
v -0.014550406485795978 0.11662507802248 0.019438857212662697
v -0.004977644886821509 0.11671048402786253 -0.01684090681374073
v -0.0037639453075826177 0.11669988185167311 0.015883859246969223
v -0.004977644886821509 0.11671048402786253 -0.01684090681374073
v -0.014550406485795978 0.11662507802248 0.019438857212662697
v 0.007990305311977865 0.10768260806798934 0.04399449750781059
v 0.0005824212566949428 0.08321345597505568 0.05154503881931305
v 0.02093223482370377 0.10766850411891936 0.039402544498443604
v 0.02206452935934067 0.11022258549928664 0.03620331361889839
v 0.007990305311977865 0.10768260806798934 0.04399449750781059
v 0.02093223482370377 0.10766850411891936 0.039402544498443604
v 0.02206452935934067 0.11022258549928664 0.03620331361889839
v 0.006310001946985723 0.11019197106361388 0.041620414704084396
v 0.007990305311977865 0.10768260806798934 0.04399449750781059
v 0.02093223482370377 0.10766850411891936 0.039402544498443604
v 0.0035586780868470677 0.07938607782125472 0.050661779940128326
v 0.026221925392746932 0.06794480234384535 0.03661087900400162
v 0.0005824212566949428 0.08321345597505568 0.05154503881931305
v 0.0035586780868470677 0.07938607782125472 0.050661779940128326
v 0.02093223482370377 0.10766850411891936 0.039402544498443604
v -0.0060214106924831885 0.10769890248775481 0.04415503144264221
v -0.018924096599221233 0.1077216938138008 0.04045970365405083
v -0.0023957483936101203 0.08287491649389266 0.051185138523578644
v 0.0005824212566949428 0.08321345597505568 0.05154503881931305
v -0.0060214106924831885 0.10769890248775481 0.04415503144264221
v -0.0023957483936101203 0.08287491649389266 0.051185138523578644
v -0.017548574134707454 0.06791844964027403 0.0411534458398819
v -0.0023957483936101203 0.08287491649389266 0.051185138523578644
v -0.018924096599221233 0.1077216938138008 0.04045970365405083
v -0.024915061891078956 0.11024343967437743 0.03506293520331383
v -0.02159424684941769 0.11654261499643324 0.021918047219514847
v -0.03419712185859681 0.10780558735132216 0.029439037665724754
v -0.040345620363950736 0.11019795387983321 0.013754797168076038
v -0.03419712185859681 0.10780558735132216 0.029439037665724754
v -0.02159424684941769 0.11654261499643324 0.021918047219514847
v -0.024915061891078956 0.11024343967437743 0.03506293520331383
v -0.03419712185859681 0.10780558735132216 0.029439037665724754
v -0.018924096599221233 0.1077216938138008 0.04045970365405083
v -0.017548574134707454 0.06791844964027403 0.0411534458398819
v -0.018924096599221233 0.1077216938138008 0.04045970365405083
v -0.03419712185859681 0.10780558735132216 0.029439037665724754
v -0.017548574134707454 0.06791844964027403 0.0411534458398819
v -0.03419712185859681 0.10780558735132216 0.029439037665724754
v -0.03575266525149346 0.06794669479131697 0.02755158208310604
v -0.02159424684941769 0.11654261499643324 0.021918047219514847
v -0.028425261378288276 0.11645805090665816 0.012468134053051472
v -0.040345620363950736 0.11019795387983321 0.013754797168076038
v -0.040345620363950736 0.11019795387983321 0.013754797168076038
v -0.028425261378288276 0.11645805090665816 0.012468134053051472
v -0.031179662793874748 0.1163908466696739 0.0029154731892049313
v -0.02159424684941769 0.11654261499643324 0.021918047219514847
v -0.029771881178021438 0.11649963259696959 -0.01018302608281374
v -0.028425261378288276 0.11645805090665816 0.012468134053051472
v -0.031179662793874748 0.1163908466696739 0.0029154731892049313
v -0.028425261378288276 0.11645805090665816 0.012468134053051472
v -0.029771881178021438 0.11649963259696959 -0.01018302608281374
v -0.04201871901750565 0.11020275205373763 -0.011724935844540596
v -0.040345620363950736 0.11019795387983321 0.013754797168076038
v -0.031179662793874748 0.1163908466696739 0.0029154731892049313
v -0.031179662793874748 0.1163908466696739 0.0029154731892049313
v -0.029771881178021438 0.11649963259696959 -0.01018302608281374
v -0.04201871901750565 0.11020275205373763 -0.011724935844540596
v -0.04412812367081643 0.10762614756822585 -0.011583270505070686
v -0.04201871901750565 0.11020275205373763 -0.011724935844540596
v -0.03199491649866105 0.10764481872320174 -0.033019840717315674
v -0.023129638284444812 0.11649812757968901 -0.02171173505485058
v -0.04201871901750565 0.11020275205373763 -0.011724935844540596
v -0.029771881178021438 0.11649963259696959 -0.01018302608281374
v -0.04201871901750565 0.11020275205373763 -0.011724935844540596
v -0.02648997493088246 0.11019860953092574 -0.034456517547369
v -0.03199491649866105 0.10764481872320174 -0.033019840717315674
v -0.02648997493088246 0.11019860953092574 -0.034456517547369
v -0.04201871901750565 0.11020275205373763 -0.011724935844540596
v -0.023129638284444812 0.11649812757968901 -0.02171173505485058
v 0.002118743490427733 0.11654480546712874 -0.031955134123563766
v 0.019198944792151455 0.11651111394166945 -0.023027442395687103
v 0.015210670419037346 0.11639592796564101 -0.02792014181613922
v 0.02215606160461903 0.1165364310145378 -0.02060622349381447
v 0.015210670419037346 0.11639592796564101 -0.02792014181613922
v 0.019198944792151455 0.11651111394166945 -0.023027442395687103
v 0.02215606160461903 0.1165364310145378 -0.02060622349381447
v 0.019198944792151455 0.11651111394166945 -0.023027442395687103
v 0.002118743490427733 0.11654480546712874 -0.031955134123563766
v 0.001215001801028848 0.1167025864124298 0.027605226263403893
v -0.0037639453075826177 0.11669988185167311 0.015883859246969223
v -1.0213977219564188e-07 0.1166962832212448 0.027714964002370834
v -0.014550406485795978 0.11662507802248 0.019438857212662697
v -1.0213977219564188e-07 0.1166962832212448 0.027714964002370834
v -0.0037639453075826177 0.11669988185167311 0.015883859246969223
v -0.02159424684941769 0.11654261499643324 0.021918047219514847
v -1.0213977219564188e-07 0.1166962832212448 0.027714964002370834
v -0.014550406485795978 0.11662507802248 0.019438857212662697
v -0.005557574797421695 0.11658135056495665 0.030107179656624794
v -1.0213977219564188e-07 0.1166962832212448 0.027714964002370834
v -0.02159424684941769 0.11654261499643324 0.021918047219514847
v 0.001215001801028848 0.1167025864124298 0.027605226263403893
v -1.0213977219564188e-07 0.1166962832212448 0.027714964002370834
v -0.005557574797421695 0.11658135056495665 0.030107179656624794
v 0.012867306359112266 0.067933551967144 0.041274141520261765
v 0.0003966160002164544 0.06794802844524382 0.044603705406188965
v -0.017548574134707454 0.06791844964027403 0.0411534458398819
v 0.026221925392746932 0.06794480234384535 0.03661087900400162
v 0.012867306359112266 0.067933551967144 0.041274141520261765
v 0.03838475421071053 0.06794696301221846 0.023065196350216866
v 0.0035586780868470677 0.07938607782125472 0.050661779940128326
v 0.012867306359112266 0.067933551967144 0.041274141520261765
v 0.026221925392746932 0.06794480234384535 0.03661087900400162
v 0.012867306359112266 0.067933551967144 0.041274141520261765
v 0.04396093264222146 0.06794692575931548 0.010402271524071693
v 0.03838475421071053 0.06794696301221846 0.023065196350216866
v 0.04396093264222146 0.06794692575931548 0.010402271524071693
v 0.012867306359112266 0.067933551967144 0.041274141520261765
v -0.017548574134707454 0.06791844964027403 0.0411534458398819
v 0.0005824212566949428 0.08321345597505568 0.05154503881931305
v -9.863509120577876e-08 0.10769639909267424 0.04446474835276604
v -0.0060214106924831885 0.10769890248775481 0.04415503144264221
v 0.007990305311977865 0.10768260806798934 0.04399449750781059
v -9.863509120577876e-08 0.10769639909267424 0.04446474835276604
v 0.0005824212566949428 0.08321345597505568 0.05154503881931305
v -0.0060214106924831885 0.10769890248775481 0.04415503144264221
v -9.863509120577876e-08 0.10769639909267424 0.04446474835276604
v -0.0003662439703475685 0.11023467034101485 0.04196528345346451
v 0.006310001946985723 0.11019197106361388 0.041620414704084396
v -0.0003662439703475685 0.11023467034101485 0.04196528345346451
v -9.863509120577876e-08 0.10769639909267424 0.04446474835276604
v 0.007990305311977865 0.10768260806798934 0.04399449750781059
v 0.006310001946985723 0.11019197106361388 0.041620414704084396
v -9.863509120577876e-08 0.10769639909267424 0.04446474835276604
v 0.0003966160002164544 0.06794802844524382 0.044603705406188965
v -0.0016633486375212674 0.0787791684269905 0.05156276747584343
v -0.017548574134707454 0.06791844964027403 0.0411534458398819
v -0.017548574134707454 0.06791844964027403 0.0411534458398819
v -0.0016633486375212674 0.0787791684269905 0.05156276747584343
v -0.0023957483936101203 0.08287491649389266 0.051185138523578644
v 0.0035586780868470677 0.07938607782125472 0.050661779940128326
v 0.0005824212566949428 0.08321345597505568 0.05154503881931305
v -0.0016633486375212674 0.0787791684269905 0.05156276747584343
v -0.0023957483936101203 0.08287491649389266 0.051185138523578644
v -0.0016633486375212674 0.0787791684269905 0.05156276747584343
v 0.0005824212566949428 0.08321345597505568 0.05154503881931305
v -0.04201871901750565 0.11020275205373763 -0.011724935844540596
v -0.04412812367081643 0.10762614756822585 -0.011583270505070686
v -0.044093545526266105 0.10772114992141722 0.009898181073367596
v -0.04201871901750565 0.11020275205373763 -0.011724935844540596
v -0.044093545526266105 0.10772114992141722 0.009898181073367596
v -0.040345620363950736 0.11019795387983321 0.013754797168076038
v -0.04412812367081643 0.10762614756822585 -0.011583270505070686
v -0.0444902889430523 0.06794688850641249 0.007998115383088589
v -0.044093545526266105 0.10772114992141722 0.009898181073367596
v -0.03419712185859681 0.10780558735132216 0.029439037665724754
v -0.040345620363950736 0.11019795387983321 0.013754797168076038
v -0.044093545526266105 0.10772114992141722 0.009898181073367596
v -0.03575266525149346 0.06794669479131697 0.02755158208310604
v -0.044093545526266105 0.10772114992141722 0.009898181073367596
v -0.0444902889430523 0.06794688850641249 0.007998115383088589
v -0.03419712185859681 0.10780558735132216 0.029439037665724754
v -0.044093545526266105 0.10772114992141722 0.009898181073367596
v -0.03575266525149346 0.06794669479131697 0.02755158208310604
v 0.012867306359112266 0.067933551967144 0.041274141520261765
v 0.0013867063680663707 0.07670609652996062 0.049921490252017975
v 0.0003966160002164544 0.06794802844524382 0.044603705406188965
v 0.012867306359112266 0.067933551967144 0.041274141520261765
v 0.0035586780868470677 0.07938607782125472 0.050661779940128326
v 0.0013867063680663707 0.07670609652996062 0.049921490252017975
v 0.0013867063680663707 0.07670609652996062 0.049921490252017975
v -0.0016633486375212674 0.0787791684269905 0.05156276747584343
v 0.0003966160002164544 0.06794802844524382 0.044603705406188965
v -0.0016633486375212674 0.0787791684269905 0.05156276747584343
v 0.0013867063680663707 0.07670609652996062 0.049921490252017975
v 0.0035586780868470677 0.07938607782125472 0.050661779940128326
f 1 2 3
f 4 5 6
f 7 8 9
f 10 11 12
f 13 14 15
f 16 17 18
f 19 20 21
f 22 23 24
f 25 26 27
f 28 29 30
f 31 32 33
f 34 35 36
f 37 38 39
f 40 41 42
f 43 44 45
f 46 47 48
f 49 50 51
f 52 53 54
f 55 56 57
f 58 59 60
f 61 62 63
f 64 65 66
f 67 68 69
f 70 71 72
f 73 74 75
f 76 77 78
f 79 80 81
f 82 83 84
f 85 86 87
f 88 89 90
f 91 92 93
f 94 95 96
f 97 98 99
f 100 101 102
f 103 104 105
f 106 107 108
f 109 110 111
f 112 113 114
f 115 116 117
f 118 119 120
f 121 122 123
f 124 125 126
f 127 128 129
f 130 131 132
f 133 134 135
f 136 137 138
f 139 140 141
f 142 143 144
f 145 146 147
f 148 149 150
f 151 152 153
f 154 155 156
f 157 158 159
f 160 161 162
f 163 164 165
f 166 167 168
f 169 170 171
f 172 173 174
f 175 176 177
f 178 179 180
f 181 182 183
f 184 185 186
f 187 188 189
f 190 191 192
f 193 194 195
f 196 197 198
f 199 200 201
f 202 203 204
f 205 206 207
f 208 209 210
f 211 212 213
f 214 215 216
f 217 218 219
f 220 221 222
f 223 224 225
f 226 227 228
f 229 230 231
f 232 233 234
f 235 236 237
f 238 239 240
f 241 242 243
f 244 245 246
f 247 248 249
f 250 251 252
f 253 254 255
f 256 257 258
f 259 260 261
f 262 263 264
f 265 266 267
f 268 269 270
f 271 272 273
f 274 275 276
f 277 278 279
f 280 281 282
f 283 284 285
f 286 287 288
f 289 290 291
f 292 293 294
f 295 296 297
f 298 299 300
f 301 302 303
f 304 305 306
f 307 308 309
f 310 311 312
f 313 314 315
f 316 317 318
f 319 320 321
f 322 323 324
f 325 326 327
f 328 329 330
f 331 332 333
f 334 335 336
f 337 338 339
f 340 341 342
f 343 344 345
f 346 347 348
f 349 350 351
f 352 353 354
f 355 356 357
f 358 359 360
f 361 362 363
f 364 365 366
f 367 368 369
f 370 371 372
f 373 374 375
f 376 377 378
f 379 380 381
f 382 383 384
f 385 386 387
f 388 389 390
f 391 392 393
f 394 395 396
f 397 398 399
f 400 401 402
f 403 404 405
f 406 407 408
f 409 410 411
f 412 413 414
