v 0.06139564886689186 -0.07254552096128464 -5.503460798195192e-09
v -0.05296071246266365 -0.07886652648448944 3.447364393949215e-09
v 0.09502347558736801 0.0017342099454253912 -1.8772729148963663e-08
v -0.09485281258821487 0.00526398466899991 -2.3009769090087673e-10
v -0.09489494562149048 -0.005241145845502615 1.1808564792659126e-08
v -0.09492876380681992 -0.0019188312580808997 0.01748047210276127
v -0.024342497810721397 -0.0918695405125618 1.0825742968734176e-08
v -0.013993565924465656 -0.09396247565746307 4.107098217076555e-09
v -0.020682474598288536 -0.09266125410795212 0.017517637461423874
v -0.06494352966547012 0.03749511018395424 0.09929872304201126
v -0.04820285737514496 0.057445891201496124 0.09929871559143066
v -0.054545991122722626 0.051461443305015564 0.09929871559143066
v -0.09485281258821487 0.00526398466899991 -2.3009769090087673e-10
v -0.09042919427156448 0.02938411943614483 8.347827318289092e-09
v -0.07983166724443436 0.05149435997009277 -2.250891251165399e-09
v -0.08662804216146469 -0.039197202771902084 1.5633297323347506e-08
v -0.06186984106898308 -0.07216879725456238 1.0997121435707413e-08
v -0.07185234874486923 -0.0622415691614151 1.9193931777294893e-08
v -0.08662804216146469 -0.039197202771902084 1.5633297323347506e-08
v -0.09142249822616577 -0.025973955169320107 2.0072686623962e-08
v -0.09368784725666046 -0.0157274529337883 6.874671942824762e-10
v -0.06186984106898308 -0.07216879725456238 1.0997121435707413e-08
v -0.09368784725666046 -0.0157274529337883 6.874671942824762e-10
v -0.05296071246266365 -0.07886652648448944 3.447364393949215e-09
v -0.06186984106898308 -0.07216879725456238 1.0997121435707413e-08
v -0.08662804216146469 -0.039197202771902084 1.5633297323347506e-08
v -0.09368784725666046 -0.0157274529337883 6.874671942824762e-10
v -0.09489494562149048 -0.005241145845502615 1.1808564792659126e-08
v -0.09485281258821487 0.00526398466899991 -2.3009769090087673e-10
v -0.09368784725666046 -0.0157274529337883 6.874671942824762e-10
v -0.08849713206291199 0.032109249383211136 0.022239668294787407
v -0.08427803963422775 0.04211965948343277 0.02210398018360138
v -0.08657792955636978 0.038963209837675095 0.017517689615488052
v -0.054545991122722626 0.051461443305015564 0.09929871559143066
v -0.06015147641301155 0.04478108137845993 0.09929871559143066
v -0.06494352966547012 0.03749511018395424 0.09929872304201126
v -0.07524677366018295 0.056823670864105225 0.021497268229722977
v -0.06015147641301155 0.04478108137845993 0.09929871559143066
v -0.054545991122722626 0.051461443305015564 0.09929871559143066
v -0.06829917430877686 0.06495355814695358 0.02187374047935009
v -0.07524677366018295 0.056823670864105225 0.021497268229722977
v -0.054545991122722626 0.051461443305015564 0.09929871559143066
v -0.04820285737514496 0.057445891201496124 0.09929871559143066
v -0.06829917430877686 0.06495355814695358 0.02187374047935009
v -0.054545991122722626 0.051461443305015564 0.09929871559143066
v -0.01729392819106579 -0.07296893000602722 0.09929871559143066
v -0.008705812506377697 -0.0744832381606102 0.09929871559143066
v -0.06494352966547012 0.03749511018395424 0.09929872304201126
v 0.06139564886689186 -0.07254552096128464 -5.503460798195192e-09
v -0.034317441284656525 -0.08858373016119003 3.872117293468591e-09
v -0.05296071246266365 -0.07886652648448944 3.447364393949215e-09
v -0.024342497810721397 -0.0918695405125618 1.0825742968734176e-08
v -0.034317441284656525 -0.08858373016119003 3.872117293468591e-09
v -0.013993565924465656 -0.09396247565746307 4.107098217076555e-09
v -0.05296071246266365 -0.07886652648448944 3.447364393949215e-09
v -0.034317441284656525 -0.08858373016119003 3.872117293468591e-09
v -0.043419577181339264 -0.08456481248140335 2.6192491731080736e-08
v -0.09462920576334 0.008108478970825672 0.017747405916452408
v -0.09485281258821487 0.00526398466899991 -2.3009769090087673e-10
v -0.09492876380681992 -0.0019188312580808997 0.01748047210276127
v 0.008705870248377323 -0.0744832307100296 0.09929871559143066
v 0.017293984070420265 -0.07296892255544662 0.09929871559143066
v -0.06494352966547012 0.03749511018395424 0.09929872304201126
v -0.06494352966547012 0.03749511018395424 0.09929872304201126
v 0.017293984070420265 -0.07296892255544662 0.09929871559143066
v 0.025648223236203194 -0.07046782225370407 0.09929871559143066
v 0.014016654342412949 -0.09310198575258255 0.022130757570266724
v 0.017293984070420265 -0.07296892255544662 0.09929871559143066
v 0.008705870248377323 -0.0744832307100296 0.09929871559143066
v 0.025648223236203194 -0.07046782225370407 0.09929871559143066
v 0.03365560993552208 -0.06701376289129257 0.09929871559143066
v -0.06494352966547012 0.03749511018395424 0.09929872304201126
v 0.06494352221488953 -0.03749511018395424 0.09929871559143066
v 0.06885731965303421 -0.029702112078666687 0.09929871559143066
v -0.06494352966547012 0.03749511018395424 0.09929872304201126
v 0.06015147641301155 -0.044781073927879333 0.09929871559143066
v 0.06494352221488953 -0.03749511018395424 0.09929871559143066
v -0.06494352966547012 0.03749511018395424 0.09929872304201126
v 0.04820285737514496 -0.05744588375091553 0.09929871559143066
v 0.054545991122722626 -0.05146143585443497 0.09929871559143066
v -0.06494352966547012 0.03749511018395424 0.09929872304201126
v -0.06494352966547012 0.03749511018395424 0.09929872304201126
v 0.054545991122722626 -0.05146143585443497 0.09929871559143066
v 0.06015147641301155 -0.044781073927879333 0.09929871559143066
v 0.054545991122722626 -0.05146143585443497 0.09929871559143066
v 0.07509942352771759 -0.05715613439679146 0.021349521353840828
v 0.06015147641301155 -0.044781073927879333 0.09929871559143066
v 0.025648223236203194 -0.07046782225370407 0.09929871559143066
v 0.03709670156240463 -0.08657462894916534 0.022270960733294487
v 0.03365560993552208 -0.06701376289129257 0.09929871559143066
v 0.03365560993552208 -0.06701376289129257 0.09929871559143066
v 0.03709670156240463 -0.08657462894916534 0.022270960733294487
v 0.04619583487510681 -0.08205493539571762 0.022081324830651283
v 0.06885728985071182 0.02970217540860176 0.09929871559143066
v 0.06494349241256714 0.037495169788599014 0.09929871559143066
v -0.06494352966547012 0.03749511018395424 0.09929872304201126
v 0.07385102659463882 0.013021964579820633 0.09929871559143066
v 0.07183991372585297 0.021507492288947105 0.09929871559143066
v -0.06494352966547012 0.03749511018395424 0.09929872304201126
v -0.06494352966547012 0.03749511018395424 0.09929872304201126
v 0.07183991372585297 0.021507492288947105 0.09929871559143066
v 0.06885728985071182 0.02970217540860176 0.09929871559143066
v 0.07385104149580002 -0.01302189752459526 0.09929871559143066
v 0.07486344128847122 -0.004360264632850885 0.09929871559143066
v -0.06494352966547012 0.03749511018395424 0.09929872304201126
v -0.06494352966547012 0.03749511018395424 0.09929872304201126
v 0.07486344128847122 0.004360331688076258 0.09929871559143066
v 0.07385102659463882 0.013021964579820633 0.09929871559143066
v 0.07486344128847122 -0.004360264632850885 0.09929871559143066
v 0.07486344128847122 0.004360331688076258 0.09929871559143066
v -0.06494352966547012 0.03749511018395424 0.09929872304201126
v 0.0892288088798523 -0.032725948840379715 1.5967787092563412e-08
v 0.09227053076028824 -0.022603429853916168 9.880288809327453e-10
v 0.09035517275333405 -0.02911841683089733 0.017681362107396126
v -0.0640789344906807 0.07024554163217545 9.308243065220267e-09
v -0.043908823281526566 0.08424238115549088 -3.6823522009399312e-09
v -0.07983166724443436 0.05149435997009277 -2.250891251165399e-09
v -0.08657792955636978 0.038963209837675095 0.017517689615488052
v -0.08506467938423157 0.04238539934158325 9.746536022703367e-09
v -0.09042919427156448 0.02938411943614483 8.347827318289092e-09
v -0.09042919427156448 0.02938411943614483 8.347827318289092e-09
v -0.08506467938423157 0.04238539934158325 9.746536022703367e-09
v -0.07983166724443436 0.05149435997009277 -2.250891251165399e-09
v -0.003672614460811019 0.09487710893154144 0.01748044043779373
v -0.013811969198286533 0.09311377257108688 0.022467030212283134
v 0.000341190054314211 0.09417492151260376 0.022320223972201347
v -0.09246483445167542 0.021786699071526527 0.01757458783686161
v -0.09462920576334 0.008108478970825672 0.017747405916452408
v -0.0927930399775505 0.015903588384389877 0.022371288388967514
v -0.06829917430877686 0.06495355814695358 0.02187374047935009
v -0.06090597063302994 0.07198243588209152 0.021497266367077827
v -0.06435757130384445 0.0698547214269638 0.01760917901992798
v -0.04820285737514496 0.057445891201496124 0.09929871559143066
v -0.06090597063302994 0.07198243588209152 0.021497266367077827
v -0.06829917430877686 0.06495355814695358 0.02187374047935009
v -0.07588797062635422 0.057051628828048706 0.01751765049993992
v -0.07989829033613205 0.051266010850667953 0.017681308090686798
v -0.07524677366018295 0.056823670864105225 0.021497268229722977
v -0.07983166724443436 0.05149435997009277 -2.250891251165399e-09
v -0.07989829033613205 0.051266010850667953 0.017681308090686798
v -0.07588797062635422 0.057051628828048706 0.01751765049993992
v -0.0640789344906807 0.07024554163217545 9.308243065220267e-09
v -0.07983166724443436 0.05149435997009277 -2.250891251165399e-09
v -0.07365918904542923 0.060057010501623154 9.00485375154858e-09
v -0.07588797062635422 0.057051628828048706 0.01751765049993992
v -0.07365918904542923 0.060057010501623154 9.00485375154858e-09
v -0.07983166724443436 0.05149435997009277 -2.250891251165399e-09
v -0.06829917430877686 0.06495355814695358 0.02187374047935009
v -0.07144590467214584 0.06253507733345032 0.01748042181134224
v -0.07524677366018295 0.056823670864105225 0.021497268229722977
v -0.07588797062635422 0.057051628828048706 0.01751765049993992
v -0.07524677366018295 0.056823670864105225 0.021497268229722977
v -0.07144590467214584 0.06253507733345032 0.01748042181134224
v -0.06829917430877686 0.06495355814695358 0.02187374047935009
v -0.06435757130384445 0.0698547214269638 0.01760917901992798
v -0.07144590467214584 0.06253507733345032 0.01748042181134224
v -0.07365918904542923 0.060057010501623154 9.00485375154858e-09
v -0.07588797062635422 0.057051628828048706 0.01751765049993992
v -0.07144590467214584 0.06253507733345032 0.01748042181134224
v -0.0640789344906807 0.07024554163217545 9.308243065220267e-09
v -0.07144590467214584 0.06253507733345032 0.01748042181134224
v -0.06435757130384445 0.0698547214269638 0.01760917901992798
v -0.07365918904542923 0.060057010501623154 9.00485375154858e-09
v -0.07144590467214584 0.06253507733345032 0.01748042181134224
v -0.0640789344906807 0.07024554163217545 9.308243065220267e-09
v -0.06494352966547012 0.03749511018395424 0.09929872304201126
v 2.9202297469055338e-08 -0.07499028742313385 0.09929871559143066
v 0.008705870248377323 -0.0744832307100296 0.09929871559143066
v -0.008705812506377697 -0.0744832381606102 0.09929871559143066
v 2.9202297469055338e-08 -0.07499028742313385 0.09929871559143066
v -0.06494352966547012 0.03749511018395424 0.09929872304201126
v -0.013993565924465656 -0.09396247565746307 4.107098217076555e-09
v -0.009982483461499214 -0.09446189552545547 0.017674876376986504
v -0.020682474598288536 -0.09266125410795212 0.017517637461423874
v -0.004717601928859949 -0.09493263065814972 4.149637078398882e-09
v -0.009982483461499214 -0.09446189552545547 0.017674876376986504
v -0.013993565924465656 -0.09396247565746307 4.107098217076555e-09
v -0.09402256458997726 -0.005088284611701965 0.022301029413938522
v -0.09400023519992828 0.005230702925473452 0.022149821743369102
v -0.09492876380681992 -0.0019188312580808997 0.01748047210276127
v -0.09492876380681992 -0.0019188312580808997 0.01748047210276127
v -0.09400023519992828 0.005230702925473452 0.022149821743369102
v -0.09462920576334 0.008108478970825672 0.017747405916452408
v -0.09462920576334 0.008108478970825672 0.017747405916452408
v -0.09400023519992828 0.005230702925473452 0.022149821743369102
v -0.0927930399775505 0.015903588384389877 0.022371288388967514
v -0.07729506492614746 -0.054004449397325516 0.021497271955013275
v -0.07111848145723343 -0.06201763451099396 0.021428504958748817
v -0.060151439160108566 -0.044781118631362915 0.09929871559143066
v -0.0798819363117218 -0.051492322236299515 2.4941066101291653e-08
v -0.08662804216146469 -0.039197202771902084 1.5633297323347506e-08
v -0.07185234874486923 -0.0622415691614151 1.9193931777294893e-08
v -0.06494352966547012 0.03749511018395424 0.09929872304201126
v -0.06494349241256714 -0.03749516233801842 0.09929871559143066
v -0.060151439160108566 -0.044781118631362915 0.09929871559143066
v -0.06885728985071182 -0.029702166095376015 0.09929871559143066
v -0.06494349241256714 -0.03749516233801842 0.09929871559143066
v -0.06494352966547012 0.03749511018395424 0.09929872304201126
v -0.07729506492614746 -0.054004449397325516 0.021497271955013275
v -0.060151439160108566 -0.044781118631362915 0.09929871559143066
v -0.06494349241256714 -0.03749516233801842 0.09929871559143066
v -0.06494352966547012 0.03749511018395424 0.09929872304201126
v -0.07183991372585297 -0.02150748483836651 0.09929871559143066
v -0.06885728985071182 -0.029702166095376015 0.09929871559143066
v -0.07486344128847122 -0.004360322840511799 0.09929871559143066
v -0.06494352966547012 0.03749511018395424 0.09929872304201126
v -0.07486344128847122 0.004360273480415344 0.09929871559143066
v -0.07385104149580002 0.013021906837821007 0.09929871559143066
v -0.07486344128847122 0.004360273480415344 0.09929871559143066
v -0.06494352966547012 0.03749511018395424 0.09929872304201126
v -0.07486344128847122 -0.004360322840511799 0.09929871559143066
v -0.07486344128847122 0.004360273480415344 0.09929871559143066
v -0.09402256458997726 -0.005088284611701965 0.022301029413938522
v -0.07486344128847122 0.004360273480415344 0.09929871559143066
v -0.09400023519992828 0.005230702925473452 0.022149821743369102
v -0.09402256458997726 -0.005088284611701965 0.022301029413938522
v -0.07385104149580002 0.013021906837821007 0.09929871559143066
v -0.0927930399775505 0.015903588384389877 0.022371288388967514
v -0.07486344128847122 0.004360273480415344 0.09929871559143066
v -0.09400023519992828 0.005230702925473452 0.022149821743369102
v -0.07486344128847122 0.004360273480415344 0.09929871559143066
v -0.0927930399775505 0.015903588384389877 0.022371288388967514
v -0.08427803963422775 0.04211965948343277 0.02210398018360138
v -0.06885731965303421 0.029702121391892433 0.09929871559143066
v -0.06494352966547012 0.03749511018395424 0.09929872304201126
v -0.06885731965303421 0.029702121391892433 0.09929871559143066
v -0.08427803963422775 0.04211965948343277 0.02210398018360138
v -0.08849713206291199 0.032109249383211136 0.022239668294787407
v 0.05454595386981964 0.051461488008499146 0.09929871559143066
v 0.04820281267166138 0.05744592845439911 0.09929871559143066
v -0.06494352966547012 0.03749511018395424 0.09929872304201126
v 0.04820281267166138 0.05744592845439911 0.09929871559143066
v 0.04120782017707825 0.06265349686145782 0.09929871559143066
v -0.06494352966547012 0.03749511018395424 0.09929872304201126
v 0.06655068695545197 0.06779210269451141 -2.963285838930574e-09
v 0.07369102537631989 0.06001794710755348 8.968527254182845e-09
v 0.08171790093183517 0.048605963587760925 -1.4123118674547186e-08
v 0.07369102537631989 0.06001794710755348 8.968527254182845e-09
v 0.07567118108272552 0.057350024580955505 0.01748047024011612
v 0.08171790093183517 0.048605963587760925 -1.4123118674547186e-08
v 0.08643204718828201 0.03930209204554558 0.01748044230043888
v 0.08797745406627655 0.03594903647899628 8.868267897810256e-09
v 0.08171790093183517 0.048605963587760925 -1.4123118674547186e-08
v 0.07751002162694931 0.05371048301458359 0.0216908510774374
v 0.08137976378202438 0.04897289723157883 0.017685264348983765
v 0.07567118108272552 0.057350024580955505 0.01748047024011612
v 0.07567118108272552 0.057350024580955505 0.01748047024011612
v 0.08137976378202438 0.04897289723157883 0.017685264348983765
v 0.08171790093183517 0.048605963587760925 -1.4123118674547186e-08
v 0.08171790093183517 0.048605963587760925 -1.4123118674547186e-08
v 0.08137976378202438 0.04897289723157883 0.017685264348983765
v 0.08643204718828201 0.03930209204554558 0.01748044230043888
v 0.07486344128847122 0.004360331688076258 0.09929871559143066
v 0.09289851784706116 0.015284883789718151 0.022402390837669373
v 0.07385102659463882 0.013021964579820633 0.09929871559143066
v 0.07385102659463882 0.013021964579820633 0.09929871559143066
v 0.09289851784706116 0.015284883789718151 0.022402390837669373
v 0.07183991372585297 0.021507492288947105 0.09929871559143066
v -0.06494352966547012 0.03749511018395424 0.09929872304201126
v 0.041207872331142426 -0.06265345215797424 0.09929871559143066
v 0.04820285737514496 -0.05744588375091553 0.09929871559143066
v 0.03365560993552208 -0.06701376289129257 0.09929871559143066
v 0.041207872331142426 -0.06265345215797424 0.09929871559143066
v -0.06494352966547012 0.03749511018395424 0.09929872304201126
v 0.03365560993552208 -0.06701376289129257 0.09929871559143066
v 0.04619583487510681 -0.08205493539571762 0.022081324830651283
v 0.041207872331142426 -0.06265345215797424 0.09929871559143066
v 0.06015147641301155 -0.044781073927879333 0.09929871559143066
v 0.08118816465139389 -0.047729093581438065 0.02206968329846859
v 0.06494352221488953 -0.03749511018395424 0.09929871559143066
v 0.07509942352771759 -0.05715613439679146 0.021349521353840828
v 0.08118816465139389 -0.047729093581438065 0.02206968329846859
v 0.06015147641301155 -0.044781073927879333 0.09929871559143066
v 0.06139564886689186 -0.07254552096128464 -5.503460798195192e-09
v 0.05296090245246887 -0.0788663849234581 3.4473601751017213e-09
v 0.034317538142204285 -0.08858369290828705 3.872116849379381e-09
v 0.04390231892466545 -0.08429218828678131 2.640445728729901e-08
v 0.034317538142204285 -0.08858369290828705 3.872116849379381e-09
v 0.05296090245246887 -0.0788663849234581 3.4473601751017213e-09
v 0.05454595386981964 0.051461488008499146 0.09929871559143066
v -0.06494352966547012 0.03749511018395424 0.09929872304201126
v 0.060151439160108566 0.04478112608194351 0.09929871559143066
v 0.06494349241256714 0.037495169788599014 0.09929871559143066
v 0.060151439160108566 0.04478112608194351 0.09929871559143066
v -0.06494352966547012 0.03749511018395424 0.09929872304201126
v 0.07751002162694931 0.05371048301458359 0.0216908510774374
v 0.060151439160108566 0.04478112608194351 0.09929871559143066
v 0.06494349241256714 0.037495169788599014 0.09929871559143066
v 0.06494349241256714 0.037495169788599014 0.09929871559143066
v 0.06885728985071182 0.02970217540860176 0.09929871559143066
v 0.08456383645534515 0.041567590087652206 0.021990276873111725
v 0.08137976378202438 0.04897289723157883 0.017685264348983765
v 0.08456383645534515 0.041567590087652206 0.021990276873111725
v 0.08643204718828201 0.03930209204554558 0.01748044230043888
v 0.06494349241256714 0.037495169788599014 0.09929871559143066
v 0.08456383645534515 0.041567590087652206 0.021990276873111725
v 0.07751002162694931 0.05371048301458359 0.0216908510774374
v 0.08456383645534515 0.041567590087652206 0.021990276873111725
v 0.08137976378202438 0.04897289723157883 0.017685264348983765
v 0.07751002162694931 0.05371048301458359 0.0216908510774374
v 0.06885731965303421 -0.029702112078666687 0.09929871559143066
v 0.07183992862701416 -0.02150742895901203 0.09929871559143066
v -0.06494352966547012 0.03749511018395424 0.09929872304201126
v -0.06494352966547012 0.03749511018395424 0.09929872304201126
v 0.07183992862701416 -0.02150742895901203 0.09929871559143066
v 0.07385104149580002 -0.01302189752459526 0.09929871559143066
v 0.0905001163482666 -0.026039959862828255 0.022297777235507965
v 0.07183992862701416 -0.02150742895901203 0.09929871559143066
v 0.06885731965303421 -0.029702112078666687 0.09929871559143066
v 0.07385104149580002 -0.01302189752459526 0.09929871559143066
v 0.07183992862701416 -0.02150742895901203 0.09929871559143066
v 0.0905001163482666 -0.026039959862828255 0.022297777235507965
v 0.07385104149580002 -0.01302189752459526 0.09929871559143066
v 0.0905001163482666 -0.026039959862828255 0.022297777235507965
v 0.09286724030971527 -0.015482831746339798 0.022138742730021477
v -0.05295391008257866 0.07892149686813354 1.5500853933758663e-08
v -0.043908823281526566 0.08424238115549088 -3.6823522009399312e-09
v -0.0640789344906807 0.07024554163217545 9.308243065220267e-09
v -0.020871562883257866 0.09276220947504044 -4.584266299900719e-09
v -0.007003482896834612 0.09478036314249039 6.295792331911798e-09
v 0.0035103524569422007 0.0949338898062706 -4.149691701371694e-09
v 0.0035103524569422007 0.0949338898062706 -4.149691701371694e-09
v -0.007003482896834612 0.09478036314249039 6.295792331911798e-09
v -0.003672614460811019 0.09487710893154144 0.01748044043779373
v -0.03716011717915535 0.08642835170030594 0.022399775683879852
v -0.02691161073744297 0.09028705209493637 0.02208464778959751
v -0.028017275035381317 0.09074181318283081 0.017787624150514603
v -0.03433318808674812 0.08861931413412094 -5.346561415819906e-09
v -0.028017275035381317 0.09074181318283081 0.017787624150514603
v -0.020871562883257866 0.09276220947504044 -4.584266299900719e-09
v -0.03716011717915535 0.08642835170030594 0.022399775683879852
v -0.037546295672655106 0.08720604330301285 0.017503639683127403
v -0.04364510625600815 0.08342424780130386 0.02212947979569435
v -0.043908823281526566 0.08424238115549088 -3.6823522009399312e-09
v -0.037546295672655106 0.08720604330301285 0.017503639683127403
v -0.03433318808674812 0.08861931413412094 -5.346561415819906e-09
v -0.037546295672655106 0.08720604330301285 0.017503639683127403
v -0.028017275035381317 0.09074181318283081 0.017787624150514603
v -0.03433318808674812 0.08861931413412094 -5.346561415819906e-09
v -0.028017275035381317 0.09074181318283081 0.017787624150514603
v -0.037546295672655106 0.08720604330301285 0.017503639683127403
v -0.03716011717915535 0.08642835170030594 0.022399775683879852
v -0.028017275035381317 0.09074181318283081 0.017787624150514603
v -0.017646418884396553 0.09328705817461014 0.017517678439617157
v -0.020871562883257866 0.09276220947504044 -4.584266299900719e-09
v -0.013811969198286533 0.09311377257108688 0.022467030212283134
v -0.017646418884396553 0.09328705817461014 0.017517678439617157
v -0.02691161073744297 0.09028705209493637 0.02208464778959751
v -0.017646418884396553 0.09328705817461014 0.017517678439617157
v -0.028017275035381317 0.09074181318283081 0.017787624150514603
v -0.02691161073744297 0.09028705209493637 0.02208464778959751
v -0.07385104149580002 0.013021906837821007 0.09929871559143066
v -0.09060400724411011 0.02560388296842575 0.02212655171751976
v -0.0927930399775505 0.015903588384389877 0.022371288388967514
v -0.09060400724411011 0.02560388296842575 0.02212655171751976
v -0.09246483445167542 0.021786699071526527 0.01757458783686161
v -0.0927930399775505 0.015903588384389877 0.022371288388967514
v -0.08924315869808197 0.03240324556827545 0.017520930618047714
v -0.08849713206291199 0.032109249383211136 0.022239668294787407
v -0.08657792955636978 0.038963209837675095 0.017517689615488052
v -0.09042919427156448 0.02938411943614483 8.347827318289092e-09
v -0.08924315869808197 0.03240324556827545 0.017520930618047714
v -0.08657792955636978 0.038963209837675095 0.017517689615488052
v -0.09246483445167542 0.021786699071526527 0.01757458783686161
v -0.08924315869808197 0.03240324556827545 0.017520930618047714
v -0.09042919427156448 0.02938411943614483 8.347827318289092e-09
v -0.08849713206291199 0.032109249383211136 0.022239668294787407
v -0.08924315869808197 0.03240324556827545 0.017520930618047714
v -0.09060400724411011 0.02560388296842575 0.02212655171751976
v -0.09060400724411011 0.02560388296842575 0.02212655171751976
v -0.08924315869808197 0.03240324556827545 0.017520930618047714
v -0.09246483445167542 0.021786699071526527 0.01757458783686161
v -0.09462920576334 0.008108478970825672 0.017747405916452408
v -0.09372388571500778 0.01575925014913082 1.0926273219524774e-08
v -0.09485281258821487 0.00526398466899991 -2.3009769090087673e-10
v -0.09246483445167542 0.021786699071526527 0.01757458783686161
v -0.09372388571500778 0.01575925014913082 1.0926273219524774e-08
v -0.09462920576334 0.008108478970825672 0.017747405916452408
v -0.09372388571500778 0.01575925014913082 1.0926273219524774e-08
v -0.09042919427156448 0.02938411943614483 8.347827318289092e-09
v -0.09485281258821487 0.00526398466899991 -2.3009769090087673e-10
v -0.09042919427156448 0.02938411943614483 8.347827318289092e-09
v -0.09372388571500778 0.01575925014913082 1.0926273219524774e-08
v -0.09246483445167542 0.021786699071526527 0.01757458783686161
v -0.06494352966547012 0.03749511018395424 0.09929872304201126
v -0.041207872331142426 0.06265345960855484 0.09929871559143066
v -0.04820285737514496 0.057445891201496124 0.09929871559143066
v -0.08427803963422775 0.04211965948343277 0.02210398018360138
v -0.08345068246126175 0.04528949037194252 0.01748037151992321
v -0.08657792955636978 0.038963209837675095 0.017517689615488052
v -0.08657792955636978 0.038963209837675095 0.017517689615488052
v -0.08345068246126175 0.04528949037194252 0.01748037151992321
v -0.08506467938423157 0.04238539934158325 9.746536022703367e-09
v -0.08506467938423157 0.04238539934158325 9.746536022703367e-09
v -0.08345068246126175 0.04528949037194252 0.01748037151992321
v -0.07983166724443436 0.05149435997009277 -2.250891251165399e-09
v -0.07983166724443436 0.05149435997009277 -2.250891251165399e-09
v -0.08345068246126175 0.04528949037194252 0.01748037151992321
v -0.07989829033613205 0.051266010850667953 0.017681308090686798
v -0.07989829033613205 0.051266010850667953 0.017681308090686798
v -0.07907619327306747 0.0510886050760746 0.02210121974349022
v -0.07524677366018295 0.056823670864105225 0.021497268229722977
v -0.06015147641301155 0.04478108137845993 0.09929871559143066
v -0.07907619327306747 0.0510886050760746 0.02210121974349022
v -0.06494352966547012 0.03749511018395424 0.09929872304201126
v -0.06015147641301155 0.04478108137845993 0.09929871559143066
v -0.07524677366018295 0.056823670864105225 0.021497268229722977
v -0.07907619327306747 0.0510886050760746 0.02210121974349022
v -0.08427803963422775 0.04211965948343277 0.02210398018360138
v -0.06494352966547012 0.03749511018395424 0.09929872304201126
v -0.07907619327306747 0.0510886050760746 0.02210121974349022
v -0.07907619327306747 0.0510886050760746 0.02210121974349022
v -0.08345068246126175 0.04528949037194252 0.01748037151992321
v -0.08427803963422775 0.04211965948343277 0.02210398018360138
v -0.08345068246126175 0.04528949037194252 0.01748037151992321
v -0.07907619327306747 0.0510886050760746 0.02210121974349022
v -0.07989829033613205 0.051266010850667953 0.017681308090686798
v -0.034097135066986084 -0.08775243908166885 0.022154485806822777
v -0.0336555577814579 -0.06701378524303436 0.09929871559143066
v -0.044080156832933426 -0.08318544924259186 0.022365786135196686
v -0.06186984106898308 -0.07216879725456238 1.0997121435707413e-08
v -0.06595248728990555 -0.06836555898189545 0.01762162335216999
v -0.07185234874486923 -0.0622415691614151 1.9193931777294893e-08
v -0.009982483461499214 -0.09446189552545547 0.017674876376986504
v -0.010724818333983421 -0.09357535094022751 0.022214209660887718
v -0.020682474598288536 -0.09266125410795212 0.017517637461423874
v -0.01729392819106579 -0.07296893000602722 0.09929871559143066
v -0.010724818333983421 -0.09357535094022751 0.022214209660887718
v -0.008705812506377697 -0.0744832381606102 0.09929871559143066
v -0.008705812506377697 -0.0744832381606102 0.09929871559143066
v -0.010724818333983421 -0.09357535094022751 0.022214209660887718
v 2.9202297469055338e-08 -0.07499028742313385 0.09929871559143066
v -0.010724818333983421 -0.09357535094022751 0.022214209660887718
v 0.00010243283759336919 -0.09414871782064438 0.022139785811305046
v 2.9202297469055338e-08 -0.07499028742313385 0.09929871559143066
v 0.008475306443870068 -0.09472209215164185 6.417344167175543e-08
v -0.0006682561943307519 -0.09493716806173325 0.017754536122083664
v -0.004717601928859949 -0.09493263065814972 4.149637078398882e-09
v -0.0006682561943307519 -0.09493716806173325 0.017754536122083664
v -0.009982483461499214 -0.09446189552545547 0.017674876376986504
v -0.004717601928859949 -0.09493263065814972 4.149637078398882e-09
v -0.010724818333983421 -0.09357535094022751 0.022214209660887718
v -0.0006682561943307519 -0.09493716806173325 0.017754536122083664
v 0.00010243283759336919 -0.09414871782064438 0.022139785811305046
v -0.009982483461499214 -0.09446189552545547 0.017674876376986504
v -0.0006682561943307519 -0.09493716806173325 0.017754536122083664
v -0.010724818333983421 -0.09357535094022751 0.022214209660887718
v -0.07111848145723343 -0.06201763451099396 0.021428504958748817
v -0.05454595386981964 -0.05146148055791855 0.09929871559143066
v -0.060151439160108566 -0.044781118631362915 0.09929871559143066
v -0.060151439160108566 -0.044781118631362915 0.09929871559143066
v -0.05454595386981964 -0.05146148055791855 0.09929871559143066
v -0.06494352966547012 0.03749511018395424 0.09929872304201126
v -0.05454595386981964 -0.05146148055791855 0.09929871559143066
v -0.04820281267166138 -0.05744592100381851 0.09929871559143066
v -0.06494352966547012 0.03749511018395424 0.09929872304201126
v -0.07111848145723343 -0.06201763451099396 0.021428504958748817
v -0.07729506492614746 -0.054004449397325516 0.021497271955013275
v -0.07353326678276062 -0.06007285416126251 0.017463143914937973
v -0.06595248728990555 -0.06836555898189545 0.01762162335216999
v -0.07353326678276062 -0.06007285416126251 0.017463143914937973
v -0.07185234874486923 -0.0622415691614151 1.9193931777294893e-08
v -0.07111848145723343 -0.06201763451099396 0.021428504958748817
v -0.07353326678276062 -0.06007285416126251 0.017463143914937973
v -0.06595248728990555 -0.06836555898189545 0.01762162335216999
v -0.07353326678276062 -0.06007285416126251 0.017463143914937973
v -0.07729506492614746 -0.054004449397325516 0.021497271955013275
v -0.07773388177156448 -0.054500579833984375 0.017567133530974388
v -0.07773388177156448 -0.054500579833984375 0.017567133530974388
v -0.0798819363117218 -0.051492322236299515 2.4941066101291653e-08
v -0.07185234874486923 -0.0622415691614151 1.9193931777294893e-08
v -0.07353326678276062 -0.06007285416126251 0.017463143914937973
v -0.07773388177156448 -0.054500579833984375 0.017567133530974388
v -0.07185234874486923 -0.0622415691614151 1.9193931777294893e-08
v -0.07486344128847122 -0.004360322840511799 0.09929871559143066
v -0.07385102659463882 -0.013021955266594887 0.09929871559143066
v -0.06494352966547012 0.03749511018395424 0.09929872304201126
v -0.07385102659463882 -0.013021955266594887 0.09929871559143066
v -0.07183991372585297 -0.02150748483836651 0.09929871559143066
v -0.06494352966547012 0.03749511018395424 0.09929872304201126
v -0.08662804216146469 -0.039197202771902084 1.5633297323347506e-08
v -0.09021424502134323 -0.029552148655056953 0.017681332305073738
v -0.09142249822616577 -0.025973955169320107 2.0072686623962e-08
v 0.03085329383611679 0.08978276699781418 0.017567118629813194
v 0.027697553858160973 0.09004614502191544 0.022091113030910492
v 0.03725344315171242 0.08640403300523758 0.022336095571517944
v 0.08171790093183517 0.048605963587760925 -1.4123118674547186e-08
v 0.014534462243318558 0.09394042193889618 -2.3104497870463092e-08
v 0.06655068695545197 0.06779210269451141 -2.963285838930574e-09
v -0.020871562883257866 0.09276220947504044 -4.584266299900719e-09
v 0.0035103524569422007 0.0949338898062706 -4.149691701371694e-09
v 0.014534462243318558 0.09394042193889618 -2.3104497870463092e-08
v 0.010453457944095135 0.09437261521816254 0.01746004819869995
v 0.014534462243318558 0.09394042193889618 -2.3104497870463092e-08
v 0.0035103524569422007 0.0949338898062706 -4.149691701371694e-09
v 0.010453457944095135 0.09437261521816254 0.01746004819869995
v 0.017429936677217484 0.09331347793340683 0.017699167132377625
v 0.014534462243318558 0.09394042193889618 -2.3104497870463092e-08
v -0.020871562883257866 0.09276220947504044 -4.584266299900719e-09
v 0.014534462243318558 0.09394042193889618 -2.3104497870463092e-08
v -0.03433318808674812 0.08861931413412094 -5.346561415819906e-09
v 0.09382268041372299 0.015273121185600758 -1.8396626444427966e-08
v 0.014534462243318558 0.09394042193889618 -2.3104497870463092e-08
v 0.08171790093183517 0.048605963587760925 -1.4123118674547186e-08
v -0.043908823281526566 0.08424238115549088 -3.6823522009399312e-09
v -0.03433318808674812 0.08861931413412094 -5.346561415819906e-09
v 0.014534462243318558 0.09394042193889618 -2.3104497870463092e-08
v -0.043908823281526566 0.08424238115549088 -3.6823522009399312e-09
v 0.014534462243318558 0.09394042193889618 -2.3104497870463092e-08
v -0.07983166724443436 0.05149435997009277 -2.250891251165399e-09
v 0.09382268041372299 0.015273121185600758 -1.8396626444427966e-08
v 0.09502347558736801 0.0017342099454253912 -1.8772729148963663e-08
v 0.014534462243318558 0.09394042193889618 -2.3104497870463092e-08
v -0.07983166724443436 0.05149435997009277 -2.250891251165399e-09
v 0.014534462243318558 0.09394042193889618 -2.3104497870463092e-08
v -0.09485281258821487 0.00526398466899991 -2.3009769090087673e-10
v -0.09368784725666046 -0.0157274529337883 6.874671942824762e-10
v -0.09485281258821487 0.00526398466899991 -2.3009769090087673e-10
v 0.014534462243318558 0.09394042193889618 -2.3104497870463092e-08
v -0.05296071246266365 -0.07886652648448944 3.447364393949215e-09
v 0.014534462243318558 0.09394042193889618 -2.3104497870463092e-08
v 0.09502347558736801 0.0017342099454253912 -1.8772729148963663e-08
v -0.09368784725666046 -0.0157274529337883 6.874671942824762e-10
v 0.014534462243318558 0.09394042193889618 -2.3104497870463092e-08
v -0.05296071246266365 -0.07886652648448944 3.447364393949215e-09
v 0.03085329383611679 0.08978276699781418 0.017567118629813194
v 0.02422959916293621 0.09180419892072678 0.01750262826681137
v 0.027697553858160973 0.09004614502191544 0.022091113030910492
v 0.014534462243318558 0.09394042193889618 -2.3104497870463092e-08
v 0.04704410210251808 0.08262983709573746 1.034247620879114e-08
v 0.06655068695545197 0.06779210269451141 -2.963285838930574e-09
v 0.06120419502258301 0.07258924841880798 0.01748051866889
v 0.0685701072216034 0.06571636348962784 0.017733866348862648
v 0.06655068695545197 0.06779210269451141 -2.963285838930574e-09
v 0.0685701072216034 0.06571636348962784 0.017733866348862648
v 0.07369102537631989 0.06001794710755348 8.968527254182845e-09
v 0.06655068695545197 0.06779210269451141 -2.963285838930574e-09
v 0.07369102537631989 0.06001794710755348 8.968527254182845e-09
v 0.0685701072216034 0.06571636348962784 0.017733866348862648
v 0.07567118108272552 0.057350024580955505 0.01748047024011612
v 0.04120782017707825 0.06265349686145782 0.09929871559143066
v 0.05850030854344368 0.07405298948287964 0.021360969170928
v 0.04963838681578636 0.08016881346702576 0.021497266367077827
v 0.04820281267166138 0.05744592845439911 0.09929871559143066
v 0.05850030854344368 0.07405298948287964 0.021360969170928
v 0.04120782017707825 0.06265349686145782 0.09929871559143066
v 0.08171790093183517 0.048605963587760925 -1.4123118674547186e-08
v 0.09137223660945892 0.025997677817940712 -1.1363929797170158e-09
v 0.09382268041372299 0.015273121185600758 -1.8396626444427966e-08
v 0.08797745406627655 0.03594903647899628 8.868267897810256e-09
v 0.09137223660945892 0.025997677817940712 -1.1363929797170158e-09
v 0.08171790093183517 0.048605963587760925 -1.4123118674547186e-08
v 0.09382268041372299 0.015273121185600758 -1.8396626444427966e-08
v 0.09451931715011597 0.009224288165569305 0.017796942964196205
v 0.09502347558736801 0.0017342099454253912 -1.8772729148963663e-08
v 0.06139564886689186 -0.07254552096128464 -5.503460798195192e-09
v 0.06901031732559204 -0.06528660655021667 2.8537694429786598e-09
v 0.06405558437108994 -0.07009217143058777 0.01744047738611698
v 0.08793601393699646 -0.03582299128174782 0.017440445721149445
v 0.0892288088798523 -0.032725948840379715 1.5967787092563412e-08
v 0.09035517275333405 -0.02911841683089733 0.017681362107396126
v 0.0905001163482666 -0.026039959862828255 0.022297777235507965
v 0.08793601393699646 -0.03582299128174782 0.017440445721149445
v 0.09035517275333405 -0.02911841683089733 0.017681362107396126
v 0.09227053076028824 -0.022603429853916168 9.880288809327453e-10
v 0.0892288088798523 -0.032725948840379715 1.5967787092563412e-08
v 0.08346646279096603 -0.04553868994116783 -2.9458890882239075e-09
v 0.08793601393699646 -0.03582299128174782 0.017440445721149445
v 0.08346646279096603 -0.04553868994116783 -2.9458890882239075e-09
v 0.0892288088798523 -0.032725948840379715 1.5967787092563412e-08
v 0.08793601393699646 -0.03582299128174782 0.017440445721149445
v 0.0836368128657341 -0.04498640075325966 0.01778430864214897
v 0.08346646279096603 -0.04553868994116783 -2.9458890882239075e-09
v 0.06901031732559204 -0.06528660655021667 2.8537694429786598e-09
v 0.08346646279096603 -0.04553868994116783 -2.9458890882239075e-09
v 0.07583306729793549 -0.057286206632852554 1.2921812952981782e-08
v 0.06139564886689186 -0.07254552096128464 -5.503460798195192e-09
v 0.08346646279096603 -0.04553868994116783 -2.9458890882239075e-09
v 0.06901031732559204 -0.06528660655021667 2.8537694429786598e-09
v 0.09502347558736801 0.0017342099454253912 -1.8772729148963663e-08
v 0.08346646279096603 -0.04553868994116783 -2.9458890882239075e-09
v 0.06139564886689186 -0.07254552096128464 -5.503460798195192e-09
v 0.09227053076028824 -0.022603429853916168 9.880288809327453e-10
v 0.08346646279096603 -0.04553868994116783 -2.9458890882239075e-09
v 0.09502347558736801 0.0017342099454253912 -1.8772729148963663e-08
v 0.08118816465139389 -0.047729093581438065 0.02206968329846859
v 0.07509942352771759 -0.05715613439679146 0.021349521353840828
v 0.07792682200670242 -0.054245416074991226 0.017480473965406418
v 0.08118816465139389 -0.047729093581438065 0.02206968329846859
v 0.07792682200670242 -0.054245416074991226 0.017480473965406418
v 0.0836368128657341 -0.04498640075325966 0.01778430864214897
v 0.08346646279096603 -0.04553868994116783 -2.9458890882239075e-09
v 0.07792682200670242 -0.054245416074991226 0.017480473965406418
v 0.07583306729793549 -0.057286206632852554 1.2921812952981782e-08
v 0.07792682200670242 -0.054245416074991226 0.017480473965406418
v 0.08346646279096603 -0.04553868994116783 -2.9458890882239075e-09
v 0.0836368128657341 -0.04498640075325966 0.01778430864214897
v 0.05296090245246887 -0.0788663849234581 3.4473601751017213e-09
v 0.05051211640238762 -0.08043268322944641 0.01771281659603119
v 0.04390231892466545 -0.08429218828678131 2.640445728729901e-08
v 0.04390231892466545 -0.08429218828678131 2.640445728729901e-08
v 0.040892571210861206 -0.08569103479385376 0.017480436712503433
v 0.034317538142204285 -0.08858369290828705 3.872116849379381e-09
v 0.034317538142204285 -0.08858369290828705 3.872116849379381e-09
v 0.040892571210861206 -0.08569103479385376 0.017480436712503433
v 0.03162345290184021 -0.08955659717321396 0.017746422439813614
v 0.05051211640238762 -0.08043268322944641 0.01771281659603119
v 0.040892571210861206 -0.08569103479385376 0.017480436712503433
v 0.04390231892466545 -0.08429218828678131 2.640445728729901e-08
v 0.03162345290184021 -0.08955659717321396 0.017746422439813614
v 0.040892571210861206 -0.08569103479385376 0.017480436712503433
v 0.03709670156240463 -0.08657462894916534 0.022270960733294487
v 0.03709670156240463 -0.08657462894916534 0.022270960733294487
v 0.040892571210861206 -0.08569103479385376 0.017480436712503433
v 0.04619583487510681 -0.08205493539571762 0.022081324830651283
v 0.040892571210861206 -0.08569103479385376 0.017480436712503433
v 0.05051211640238762 -0.08043268322944641 0.01771281659603119
v 0.04619583487510681 -0.08205493539571762 0.022081324830651283
v 0.09502347558736801 0.0017342099454253912 -1.8772729148963663e-08
v 0.0943414568901062 -0.01165132224559784 9.187163030333068e-09
v 0.09227053076028824 -0.022603429853916168 9.880288809327453e-10
v 0.0905001163482666 -0.026039959862828255 0.022297777235507965
v 0.09035517275333405 -0.02911841683089733 0.017681362107396126
v 0.09310844540596008 -0.01872466504573822 0.017764650285243988
v 0.09286724030971527 -0.015482831746339798 0.022138742730021477
v 0.0905001163482666 -0.026039959862828255 0.022297777235507965
v 0.09310844540596008 -0.01872466504573822 0.017764650285243988
v 0.09227053076028824 -0.022603429853916168 9.880288809327453e-10
v 0.09310844540596008 -0.01872466504573822 0.017764650285243988
v 0.09035517275333405 -0.02911841683089733 0.017681362107396126
v 0.0943414568901062 -0.01165132224559784 9.187163030333068e-09
v 0.09310844540596008 -0.01872466504573822 0.017764650285243988
v 0.09227053076028824 -0.022603429853916168 9.880288809327453e-10
v -0.05295391008257866 0.07892149686813354 1.5500853933758663e-08
v -0.050123367458581924 0.08063995093107224 0.017480408772826195
v -0.043908823281526566 0.08424238115549088 -3.6823522009399312e-09
v -0.003672614460811019 0.09487710893154144 0.01748044043779373
v -0.010669536888599396 0.094346784055233 0.017480429261922836
v -0.013811969198286533 0.09311377257108688 0.022467030212283134
v -0.010669536888599396 0.094346784055233 0.017480429261922836
v -0.017646418884396553 0.09328705817461014 0.017517678439617157
v -0.013811969198286533 0.09311377257108688 0.022467030212283134
v -0.007003482896834612 0.09478036314249039 6.295792331911798e-09
v -0.010669536888599396 0.094346784055233 0.017480429261922836
v -0.003672614460811019 0.09487710893154144 0.01748044043779373
v -0.010669536888599396 0.094346784055233 0.017480429261922836
v -0.007003482896834612 0.09478036314249039 6.295792331911798e-09
v -0.020871562883257866 0.09276220947504044 -4.584266299900719e-09
v -0.017646418884396553 0.09328705817461014 0.017517678439617157
v -0.010669536888599396 0.094346784055233 0.017480429261922836
v -0.020871562883257866 0.09276220947504044 -4.584266299900719e-09
v -0.09060400724411011 0.02560388296842575 0.02212655171751976
v -0.07385104149580002 0.013021906837821007 0.09929871559143066
v -0.07183992862701416 0.02150743640959263 0.09929871559143066
v -0.07385104149580002 0.013021906837821007 0.09929871559143066
v -0.06494352966547012 0.03749511018395424 0.09929872304201126
v -0.07183992862701416 0.02150743640959263 0.09929871559143066
v -0.06885731965303421 0.029702121391892433 0.09929871559143066
v -0.07183992862701416 0.02150743640959263 0.09929871559143066
v -0.06494352966547012 0.03749511018395424 0.09929872304201126
v -0.07183992862701416 0.02150743640959263 0.09929871559143066
v -0.06885731965303421 0.029702121391892433 0.09929871559143066
v -0.08849713206291199 0.032109249383211136 0.022239668294787407
v -0.09060400724411011 0.02560388296842575 0.02212655171751976
v -0.07183992862701416 0.02150743640959263 0.09929871559143066
v -0.08849713206291199 0.032109249383211136 0.022239668294787407
v -0.010724818333983421 -0.09357535094022751 0.022214209660887718
v -0.024390406906604767 -0.09094072133302689 0.022335156798362732
v -0.020682474598288536 -0.09266125410795212 0.017517637461423874
v -0.010724818333983421 -0.09357535094022751 0.022214209660887718
v -0.01729392819106579 -0.07296893000602722 0.09929871559143066
v -0.024390406906604767 -0.09094072133302689 0.022335156798362732
v -0.03715885430574417 -0.08739939332008362 0.017790399491786957
v -0.034097135066986084 -0.08775243908166885 0.022154485806822777
v -0.044080156832933426 -0.08318544924259186 0.022365786135196686
v -0.034317441284656525 -0.08858373016119003 3.872117293468591e-09
v -0.03715885430574417 -0.08739939332008362 0.017790399491786957
v -0.043419577181339264 -0.08456481248140335 2.6192491731080736e-08
v -0.0336555577814579 -0.06701378524303436 0.09929871559143066
v -0.04120782017707825 -0.06265348941087723 0.09929871559143066
v -0.044080156832933426 -0.08318544924259186 0.022365786135196686
v -0.04820281267166138 -0.05744592100381851 0.09929871559143066
v -0.04120782017707825 -0.06265348941087723 0.09929871559143066
v -0.06494352966547012 0.03749511018395424 0.09929872304201126
v -0.06494352966547012 0.03749511018395424 0.09929872304201126
v -0.04120782017707825 -0.06265348941087723 0.09929871559143066
v -0.0336555577814579 -0.06701378524303436 0.09929871559143066
v -0.06494352966547012 0.03749511018395424 0.09929872304201126
v -0.025648167356848717 -0.07046784460544586 0.09929871559143066
v -0.01729392819106579 -0.07296893000602722 0.09929871559143066
v -0.0336555577814579 -0.06701378524303436 0.09929871559143066
v -0.025648167356848717 -0.07046784460544586 0.09929871559143066
v -0.06494352966547012 0.03749511018395424 0.09929872304201126
v -0.025648167356848717 -0.07046784460544586 0.09929871559143066
v -0.0336555577814579 -0.06701378524303436 0.09929871559143066
v -0.034097135066986084 -0.08775243908166885 0.022154485806822777
v -0.024390406906604767 -0.09094072133302689 0.022335156798362732
v -0.01729392819106579 -0.07296893000602722 0.09929871559143066
v -0.025648167356848717 -0.07046784460544586 0.09929871559143066
v -0.024390406906604767 -0.09094072133302689 0.022335156798362732
v -0.025648167356848717 -0.07046784460544586 0.09929871559143066
v -0.034097135066986084 -0.08775243908166885 0.022154485806822777
v -0.05296071246266365 -0.07886652648448944 3.447364393949215e-09
v -0.058444198220968246 -0.07482075691223145 0.017517676576972008
v -0.06186984106898308 -0.07216879725456238 1.0997121435707413e-08
v -0.06595248728990555 -0.06836555898189545 0.01762162335216999
v -0.06186984106898308 -0.07216879725456238 1.0997121435707413e-08
v -0.058444198220968246 -0.07482075691223145 0.017517676576972008
v 0.007063036784529686 -0.09382761269807816 0.022337833419442177
v 0.014016654342412949 -0.09310198575258255 0.022130757570266724
v 0.008705870248377323 -0.0744832307100296 0.09929871559143066
v 2.9202297469055338e-08 -0.07499028742313385 0.09929871559143066
v 0.007063036784529686 -0.09382761269807816 0.022337833419442177
v 0.008705870248377323 -0.0744832307100296 0.09929871559143066
v 0.00010243283759336919 -0.09414871782064438 0.022139785811305046
v 0.007063036784529686 -0.09382761269807816 0.022337833419442177
v 2.9202297469055338e-08 -0.07499028742313385 0.09929871559143066
v 0.0236896350979805 -0.09113084524869919 0.022307628765702248
v 0.017293984070420265 -0.07296892255544662 0.09929871559143066
v 0.014016654342412949 -0.09310198575258255 0.022130757570266724
v 0.017293984070420265 -0.07296892255544662 0.09929871559143066
v 0.0236896350979805 -0.09113084524869919 0.022307628765702248
v 0.025648223236203194 -0.07046782225370407 0.09929871559143066
v 0.03709670156240463 -0.08657462894916534 0.022270960733294487
v 0.025648223236203194 -0.07046782225370407 0.09929871559143066
v 0.0236896350979805 -0.09113084524869919 0.022307628765702248
v 0.03162345290184021 -0.08955659717321396 0.017746422439813614
v 0.03709670156240463 -0.08657462894916534 0.022270960733294487
v 0.0236896350979805 -0.09113084524869919 0.022307628765702248
v 0.03162345290184021 -0.08955659717321396 0.017746422439813614
v 0.023737028241157532 -0.0920477956533432 1.4289820438051493e-09
v 0.034317538142204285 -0.08858369290828705 3.872116849379381e-09
v 0.008475306443870068 -0.09472209215164185 6.417344167175543e-08
v 0.023737028241157532 -0.0920477956533432 1.4289820438051493e-09
v 0.014148412272334099 -0.09388810396194458 0.01748046651482582
v 0.023737028241157532 -0.0920477956533432 1.4289820438051493e-09
v 0.008475306443870068 -0.09472209215164185 6.417344167175543e-08
v -0.004717601928859949 -0.09493263065814972 4.149637078398882e-09
v 0.06139564886689186 -0.07254552096128464 -5.503460798195192e-09
v 0.034317538142204285 -0.08858369290828705 3.872116849379381e-09
v 0.023737028241157532 -0.0920477956533432 1.4289820438051493e-09
v -0.004717601928859949 -0.09493263065814972 4.149637078398882e-09
v -0.013993565924465656 -0.09396247565746307 4.107098217076555e-09
v 0.023737028241157532 -0.0920477956533432 1.4289820438051493e-09
v -0.034317441284656525 -0.08858373016119003 3.872117293468591e-09
v 0.06139564886689186 -0.07254552096128464 -5.503460798195192e-09
v 0.023737028241157532 -0.0920477956533432 1.4289820438051493e-09
v -0.034317441284656525 -0.08858373016119003 3.872117293468591e-09
v 0.023737028241157532 -0.0920477956533432 1.4289820438051493e-09
v -0.013993565924465656 -0.09396247565746307 4.107098217076555e-09
v 0.014148412272334099 -0.09388810396194458 0.01748046651482582
v 0.006557880435138941 -0.09473171830177307 0.017615489661693573
v 0.008475306443870068 -0.09472209215164185 6.417344167175543e-08
v 0.006557880435138941 -0.09473171830177307 0.017615489661693573
v -0.0006682561943307519 -0.09493716806173325 0.017754536122083664
v 0.008475306443870068 -0.09472209215164185 6.417344167175543e-08
v 0.014148412272334099 -0.09388810396194458 0.01748046651482582
v 0.014016654342412949 -0.09310198575258255 0.022130757570266724
v 0.006557880435138941 -0.09473171830177307 0.017615489661693573
v 0.007063036784529686 -0.09382761269807816 0.022337833419442177
v 0.006557880435138941 -0.09473171830177307 0.017615489661693573
v 0.014016654342412949 -0.09310198575258255 0.022130757570266724
v -0.0006682561943307519 -0.09493716806173325 0.017754536122083664
v 0.006557880435138941 -0.09473171830177307 0.017615489661693573
v 0.00010243283759336919 -0.09414871782064438 0.022139785811305046
v 0.007063036784529686 -0.09382761269807816 0.022337833419442177
v 0.00010243283759336919 -0.09414871782064438 0.022139785811305046
v 0.006557880435138941 -0.09473171830177307 0.017615489661693573
v -0.09021424502134323 -0.029552148655056953 0.017681332305073738
v -0.08662804216146469 -0.039197202771902084 1.5633297323347506e-08
v -0.08627939969301224 -0.039708368480205536 0.01769828051328659
v -0.07183991372585297 -0.02150748483836651 0.09929871559143066
v -0.0858408734202385 -0.03868074715137482 0.02238965965807438
v -0.06885728985071182 -0.029702166095376015 0.09929871559143066
v -0.08627939969301224 -0.039708368480205536 0.01769828051328659
v -0.0858408734202385 -0.03868074715137482 0.02238965965807438
v -0.09021424502134323 -0.029552148655056953 0.017681332305073738
v -0.0858408734202385 -0.03868074715137482 0.02238965965807438
v -0.06494349241256714 -0.03749516233801842 0.09929871559143066
v -0.06885728985071182 -0.029702166095376015 0.09929871559143066
v -0.09402256458997726 -0.005088284611701965 0.022301029413938522
v -0.09492876380681992 -0.0019188312580808997 0.01748047210276127
v -0.09409324824810028 -0.012919129803776741 0.01774837262928486
v -0.09489494562149048 -0.005241145845502615 1.1808564792659126e-08
v -0.09409324824810028 -0.012919129803776741 0.01774837262928486
v -0.09492876380681992 -0.0019188312580808997 0.01748047210276127
v -0.09368784725666046 -0.0157274529337883 6.874671942824762e-10
v -0.09409324824810028 -0.012919129803776741 0.01774837262928486
v -0.09489494562149048 -0.005241145845502615 1.1808564792659126e-08
v -0.09409324824810028 -0.012919129803776741 0.01774837262928486
v -0.09283335506916046 -0.0156837310642004 0.0221392922103405
v -0.09402256458997726 -0.005088284611701965 0.022301029413938522
v -0.07486344128847122 -0.004360322840511799 0.09929871559143066
v -0.09402256458997726 -0.005088284611701965 0.022301029413938522
v -0.09283335506916046 -0.0156837310642004 0.0221392922103405
v -0.07385102659463882 -0.013021955266594887 0.09929871559143066
v -0.07486344128847122 -0.004360322840511799 0.09929871559143066
v -0.09283335506916046 -0.0156837310642004 0.0221392922103405
v -0.003672614460811019 0.09487710893154144 0.01748044043779373
v 0.0032799632754176855 0.0948745608329773 0.017681336030364037
v 0.0035103524569422007 0.0949338898062706 -4.149691701371694e-09
v 0.0035103524569422007 0.0949338898062706 -4.149691701371694e-09
v 0.0032799632754176855 0.0948745608329773 0.017681336030364037
v 0.010453457944095135 0.09437261521816254 0.01746004819869995
v 0.000341190054314211 0.09417492151260376 0.022320223972201347
v 0.0032799632754176855 0.0948745608329773 0.017681336030364037
v -0.003672614460811019 0.09487710893154144 0.01748044043779373
v 0.010453457944095135 0.09437261521816254 0.01746004819869995
v 0.0032799632754176855 0.0948745608329773 0.017681336030364037
v 0.000341190054314211 0.09417492151260376 0.022320223972201347
v 0.06120419502258301 0.07258924841880798 0.01748051866889
v 0.06655068695545197 0.06779210269451141 -2.963285838930574e-09
v 0.058694999665021896 0.07475034892559052 1.5684275211924614e-08
v 0.04704410210251808 0.08262983709573746 1.034247620879114e-08
v 0.058694999665021896 0.07475034892559052 1.5684275211924614e-08
v 0.06655068695545197 0.06779210269451141 -2.963285838930574e-09
v 0.07567118108272552 0.057350024580955505 0.01748047024011612
v 0.07084466516971588 0.06222572177648544 0.021497268229722977
v 0.07751002162694931 0.05371048301458359 0.0216908510774374
v 0.0685701072216034 0.06571636348962784 0.017733866348862648
v 0.07084466516971588 0.06222572177648544 0.021497268229722977
v 0.07567118108272552 0.057350024580955505 0.01748047024011612
v 0.07751002162694931 0.05371048301458359 0.0216908510774374
v 0.07084466516971588 0.06222572177648544 0.021497268229722977
v 0.060151439160108566 0.04478112608194351 0.09929871559143066
v 0.060151439160108566 0.04478112608194351 0.09929871559143066
v 0.07084466516971588 0.06222572177648544 0.021497268229722977
v 0.05454595386981964 0.051461488008499146 0.09929871559143066
v 0.06605567038059235 0.0672878548502922 0.021497266367077827
v 0.0685701072216034 0.06571636348962784 0.017733866348862648
v 0.06120419502258301 0.07258924841880798 0.01748051866889
v 0.05850030854344368 0.07405298948287964 0.021360969170928
v 0.06605567038059235 0.0672878548502922 0.021497266367077827
v 0.06120419502258301 0.07258924841880798 0.01748051866889
v 0.07084466516971588 0.06222572177648544 0.021497268229722977
v 0.06605567038059235 0.0672878548502922 0.021497266367077827
v 0.05454595386981964 0.051461488008499146 0.09929871559143066
v 0.06605567038059235 0.0672878548502922 0.021497266367077827
v 0.07084466516971588 0.06222572177648544 0.021497268229722977
v 0.0685701072216034 0.06571636348962784 0.017733866348862648
v 0.04820281267166138 0.05744592845439911 0.09929871559143066
v 0.05454595386981964 0.051461488008499146 0.09929871559143066
v 0.06605567038059235 0.0672878548502922 0.021497266367077827
v 0.05850030854344368 0.07405298948287964 0.021360969170928
v 0.04820281267166138 0.05744592845439911 0.09929871559143066
v 0.06605567038059235 0.0672878548502922 0.021497266367077827
v 0.09289851784706116 0.015284883789718151 0.022402390837669373
v 0.07486344128847122 0.004360331688076258 0.09929871559143066
v 0.09400676935911179 0.005066971760243177 0.02215663157403469
v 0.09400676935911179 0.005066971760243177 0.02215663157403469
v 0.09451931715011597 0.009224288165569305 0.017796942964196205
v 0.09289851784706116 0.015284883789718151 0.022402390837669373
v 0.06885731965303421 -0.029702112078666687 0.09929871559143066
v 0.085561603307724 -0.039321936666965485 0.022341888397932053
v 0.0905001163482666 -0.026039959862828255 0.022297777235507965
v 0.08793601393699646 -0.03582299128174782 0.017440445721149445
v 0.0905001163482666 -0.026039959862828255 0.022297777235507965
v 0.085561603307724 -0.039321936666965485 0.022341888397932053
v 0.08793601393699646 -0.03582299128174782 0.017440445721149445
v 0.085561603307724 -0.039321936666965485 0.022341888397932053
v 0.0836368128657341 -0.04498640075325966 0.01778430864214897
v 0.085561603307724 -0.039321936666965485 0.022341888397932053
v 0.08118816465139389 -0.047729093581438065 0.02206968329846859
v 0.0836368128657341 -0.04498640075325966 0.01778430864214897
v 0.06494352221488953 -0.03749511018395424 0.09929871559143066
v 0.085561603307724 -0.039321936666965485 0.022341888397932053
v 0.06885731965303421 -0.029702112078666687 0.09929871559143066
v 0.08118816465139389 -0.047729093581438065 0.02206968329846859
v 0.085561603307724 -0.039321936666965485 0.022341888397932053
v 0.06494352221488953 -0.03749511018395424 0.09929871559143066
v 0.06849699467420578 -0.06480098515748978 0.021497273817658424
v 0.07509942352771759 -0.05715613439679146 0.021349521353840828
v 0.054545991122722626 -0.05146143585443497 0.09929871559143066
v 0.06901031732559204 -0.06528660655021667 2.8537694429786598e-09
v 0.07583306729793549 -0.057286206632852554 1.2921812952981782e-08
v 0.07370783388614655 -0.05985238403081894 0.017480455338954926
v 0.07792682200670242 -0.054245416074991226 0.017480473965406418
v 0.07370783388614655 -0.05985238403081894 0.017480455338954926
v 0.07583306729793549 -0.057286206632852554 1.2921812952981782e-08
v 0.07792682200670242 -0.054245416074991226 0.017480473965406418
v 0.07509942352771759 -0.05715613439679146 0.021349521353840828
v 0.07370783388614655 -0.05985238403081894 0.017480455338954926
v 0.06849699467420578 -0.06480098515748978 0.021497273817658424
v 0.07370783388614655 -0.05985238403081894 0.017480455338954926
v 0.07509942352771759 -0.05715613439679146 0.021349521353840828
v 0.06849699467420578 -0.06480098515748978 0.021497273817658424
v 0.060521360486745834 -0.07239580154418945 0.021442189812660217
v 0.06405558437108994 -0.07009217143058777 0.01744047738611698
v 0.041207872331142426 -0.06265345215797424 0.09929871559143066
v 0.060521360486745834 -0.07239580154418945 0.021442189812660217
v 0.04820285737514496 -0.05744588375091553 0.09929871559143066
v 0.04820285737514496 -0.05744588375091553 0.09929871559143066
v 0.060521360486745834 -0.07239580154418945 0.021442189812660217
v 0.054545991122722626 -0.05146143585443497 0.09929871559143066
v 0.06849699467420578 -0.06480098515748978 0.021497273817658424
v 0.054545991122722626 -0.05146143585443497 0.09929871559143066
v 0.060521360486745834 -0.07239580154418945 0.021442189812660217
v -0.04394811391830444 0.08415864408016205 0.017599469050765038
v -0.037546295672655106 0.08720604330301285 0.017503639683127403
v -0.043908823281526566 0.08424238115549088 -3.6823522009399312e-09
v -0.050123367458581924 0.08063995093107224 0.017480408772826195
v -0.04394811391830444 0.08415864408016205 0.017599469050765038
v -0.043908823281526566 0.08424238115549088 -3.6823522009399312e-09
v -0.037546295672655106 0.08720604330301285 0.017503639683127403
v -0.04394811391830444 0.08415864408016205 0.017599469050765038
v -0.04364510625600815 0.08342424780130386 0.02212947979569435
v -0.0494161956012249 0.08014155924320221 0.022095149382948875
v -0.04364510625600815 0.08342424780130386 0.02212947979569435
v -0.04394811391830444 0.08415864408016205 0.017599469050765038
v -0.0494161956012249 0.08014155924320221 0.022095149382948875
v -0.04394811391830444 0.08415864408016205 0.017599469050765038
v -0.050123367458581924 0.08063995093107224 0.017480408772826195
v 0.025648167356848717 0.07046785205602646 0.09929871559143066
v 0.03725344315171242 0.08640403300523758 0.022336095571517944
v 0.027697553858160973 0.09004614502191544 0.022091113030910492
v -0.013811969198286533 0.09311377257108688 0.022467030212283134
v -0.02691161073744297 0.09028705209493637 0.02208464778959751
v -0.017293984070420265 0.07296893000602722 0.09929871559143066
v 0.010453457944095135 0.09437261521816254 0.01746004819869995
v 0.01442433800548315 0.09303111582994461 0.022411247715353966
v 0.017429936677217484 0.09331347793340683 0.017699167132377625
v 0.000341190054314211 0.09417492151260376 0.022320223972201347
v 0.01442433800548315 0.09303111582994461 0.022411247715353966
v 0.010453457944095135 0.09437261521816254 0.01746004819869995
v 0.02422959916293621 0.09180419892072678 0.01750262826681137
v 0.01442433800548315 0.09303111582994461 0.022411247715353966
v 0.027697553858160973 0.09004614502191544 0.022091113030910492
v 0.017429936677217484 0.09331347793340683 0.017699167132377625
v 0.01442433800548315 0.09303111582994461 0.022411247715353966
v 0.02422959916293621 0.09180419892072678 0.01750262826681137
v -0.024390406906604767 -0.09094072133302689 0.022335156798362732
v -0.034097135066986084 -0.08775243908166885 0.022154485806822777
v -0.027556417509913445 -0.09086623787879944 0.01744047738611698
v -0.03715885430574417 -0.08739939332008362 0.017790399491786957
v -0.027556417509913445 -0.09086623787879944 0.01744047738611698
v -0.034097135066986084 -0.08775243908166885 0.022154485806822777
v -0.024390406906604767 -0.09094072133302689 0.022335156798362732
v -0.027556417509913445 -0.09086623787879944 0.01744047738611698
v -0.020682474598288536 -0.09266125410795212 0.017517637461423874
v -0.024342497810721397 -0.0918695405125618 1.0825742968734176e-08
v -0.020682474598288536 -0.09266125410795212 0.017517637461423874
v -0.027556417509913445 -0.09086623787879944 0.01744047738611698
v -0.027556417509913445 -0.09086623787879944 0.01744047738611698
v -0.034317441284656525 -0.08858373016119003 3.872117293468591e-09
v -0.024342497810721397 -0.0918695405125618 1.0825742968734176e-08
v -0.034317441284656525 -0.08858373016119003 3.872117293468591e-09
v -0.027556417509913445 -0.09086623787879944 0.01744047738611698
v -0.03715885430574417 -0.08739939332008362 0.017790399491786957
v -0.043419577181339264 -0.08456481248140335 2.6192491731080736e-08
v -0.046823810786008835 -0.08259954303503036 0.017480386421084404
v -0.05296071246266365 -0.07886652648448944 3.447364393949215e-09
v -0.03715885430574417 -0.08739939332008362 0.017790399491786957
v -0.046823810786008835 -0.08259954303503036 0.017480386421084404
v -0.043419577181339264 -0.08456481248140335 2.6192491731080736e-08
v -0.03715885430574417 -0.08739939332008362 0.017790399491786957
v -0.044080156832933426 -0.08318544924259186 0.022365786135196686
v -0.046823810786008835 -0.08259954303503036 0.017480386421084404
v -0.058444198220968246 -0.07482075691223145 0.017517676576972008
v -0.06352416425943375 -0.06968274712562561 0.021497273817658424
v -0.06595248728990555 -0.06836555898189545 0.01762162335216999
v -0.05454595386981964 -0.05146148055791855 0.09929871559143066
v -0.06352416425943375 -0.06968274712562561 0.021497273817658424
v -0.04820281267166138 -0.05744592100381851 0.09929871559143066
v -0.06595248728990555 -0.06836555898189545 0.01762162335216999
v -0.06352416425943375 -0.06968274712562561 0.021497273817658424
v -0.07111848145723343 -0.06201763451099396 0.021428504958748817
v -0.05454595386981964 -0.05146148055791855 0.09929871559143066
v -0.07111848145723343 -0.06201763451099396 0.021428504958748817
v -0.06352416425943375 -0.06968274712562561 0.021497273817658424
v 0.0236896350979805 -0.09113084524869919 0.022307628765702248
v 0.02104373276233673 -0.09258680045604706 0.017480436712503433
v 0.03162345290184021 -0.08955659717321396 0.017746422439813614
v 0.02104373276233673 -0.09258680045604706 0.017480436712503433
v 0.023737028241157532 -0.0920477956533432 1.4289820438051493e-09
v 0.03162345290184021 -0.08955659717321396 0.017746422439813614
v 0.023737028241157532 -0.0920477956533432 1.4289820438051493e-09
v 0.02104373276233673 -0.09258680045604706 0.017480436712503433
v 0.014148412272334099 -0.09388810396194458 0.01748046651482582
v 0.014148412272334099 -0.09388810396194458 0.01748046651482582
v 0.02104373276233673 -0.09258680045604706 0.017480436712503433
v 0.014016654342412949 -0.09310198575258255 0.022130757570266724
v 0.014016654342412949 -0.09310198575258255 0.022130757570266724
v 0.02104373276233673 -0.09258680045604706 0.017480436712503433
v 0.0236896350979805 -0.09113084524869919 0.022307628765702248
v -0.0858408734202385 -0.03868074715137482 0.02238965965807438
v -0.07183991372585297 -0.02150748483836651 0.09929871559143066
v -0.09069400280714035 -0.025454608723521233 0.022116463631391525
v -0.0858408734202385 -0.03868074715137482 0.02238965965807438
v -0.09069400280714035 -0.025454608723521233 0.022116463631391525
v -0.09021424502134323 -0.029552148655056953 0.017681332305073738
v -0.07385102659463882 -0.013021955266594887 0.09929871559143066
v -0.09069400280714035 -0.025454608723521233 0.022116463631391525
v -0.07183991372585297 -0.02150748483836651 0.09929871559143066
v -0.09283335506916046 -0.0156837310642004 0.0221392922103405
v -0.09069400280714035 -0.025454608723521233 0.022116463631391525
v -0.07385102659463882 -0.013021955266594887 0.09929871559143066
v -0.06494349241256714 -0.03749516233801842 0.09929871559143066
v -0.08114047348499298 -0.047812074422836304 0.02203487977385521
v -0.07729506492614746 -0.054004449397325516 0.021497271955013275
v -0.0858408734202385 -0.03868074715137482 0.02238965965807438
v -0.08114047348499298 -0.047812074422836304 0.02203487977385521
v -0.06494349241256714 -0.03749516233801842 0.09929871559143066
v -0.0858408734202385 -0.03868074715137482 0.02238965965807438
v -0.08627939969301224 -0.039708368480205536 0.01769828051328659
v -0.08114047348499298 -0.047812074422836304 0.02203487977385521
v 0.04704410210251808 0.08262983709573746 1.034247620879114e-08
v 0.05561451613903046 0.076934814453125 0.017681345343589783
v 0.058694999665021896 0.07475034892559052 1.5684275211924614e-08
v 0.04980616271495819 0.08082833141088486 0.017517607659101486
v 0.05561451613903046 0.076934814453125 0.017681345343589783
v 0.04704410210251808 0.08262983709573746 1.034247620879114e-08
v 0.058694999665021896 0.07475034892559052 1.5684275211924614e-08
v 0.05561451613903046 0.076934814453125 0.017681345343589783
v 0.06120419502258301 0.07258924841880798 0.01748051866889
v 0.05850030854344368 0.07405298948287964 0.021360969170928
v 0.06120419502258301 0.07258924841880798 0.01748051866889
v 0.05561451613903046 0.076934814453125 0.017681345343589783
v 0.05850030854344368 0.07405298948287964 0.021360969170928
v 0.05561451613903046 0.076934814453125 0.017681345343589783
v 0.04963838681578636 0.08016881346702576 0.021497266367077827
v 0.04980616271495819 0.08082833141088486 0.017517607659101486
v 0.04963838681578636 0.08016881346702576 0.021497266367077827
v 0.05561451613903046 0.076934814453125 0.017681345343589783
v 0.03739650920033455 0.08727344125509262 0.017480500042438507
v 0.034359339624643326 0.08861163258552551 1.882468758651612e-08
v 0.03085329383611679 0.08978276699781418 0.017567118629813194
v 0.034359339624643326 0.08861163258552551 1.882468758651612e-08
v 0.03739650920033455 0.08727344125509262 0.017480500042438507
v 0.04704410210251808 0.08262983709573746 1.034247620879114e-08
v 0.03725344315171242 0.08640403300523758 0.022336095571517944
v 0.03739650920033455 0.08727344125509262 0.017480500042438507
v 0.03085329383611679 0.08978276699781418 0.017567118629813194
v 0.014534462243318558 0.09394042193889618 -2.3104497870463092e-08
v 0.0243047084659338 0.09183705598115921 -4.014324872514408e-09
v 0.04704410210251808 0.08262983709573746 1.034247620879114e-08
v 0.04704410210251808 0.08262983709573746 1.034247620879114e-08
v 0.0243047084659338 0.09183705598115921 -4.014324872514408e-09
v 0.034359339624643326 0.08861163258552551 1.882468758651612e-08
v 0.014534462243318558 0.09394042193889618 -2.3104497870463092e-08
v 0.017429936677217484 0.09331347793340683 0.017699167132377625
v 0.0243047084659338 0.09183705598115921 -4.014324872514408e-09
v 0.02422959916293621 0.09180419892072678 0.01750262826681137
v 0.0243047084659338 0.09183705598115921 -4.014324872514408e-09
v 0.017429936677217484 0.09331347793340683 0.017699167132377625
v 0.02422959916293621 0.09180419892072678 0.01750262826681137
v 0.03085329383611679 0.08978276699781418 0.017567118629813194
v 0.0243047084659338 0.09183705598115921 -4.014324872514408e-09
v 0.034359339624643326 0.08861163258552551 1.882468758651612e-08
v 0.0243047084659338 0.09183705598115921 -4.014324872514408e-09
v 0.03085329383611679 0.08978276699781418 0.017567118629813194
v 0.09289851784706116 0.015284883789718151 0.022402390837669373
v 0.0896640345454216 0.028787920251488686 0.022301647812128067
v 0.07183991372585297 0.021507492288947105 0.09929871559143066
v 0.07183991372585297 0.021507492288947105 0.09929871559143066
v 0.0896640345454216 0.028787920251488686 0.022301647812128067
v 0.06885728985071182 0.02970217540860176 0.09929871559143066
v 0.0896640345454216 0.028787920251488686 0.022301647812128067
v 0.08456383645534515 0.041567590087652206 0.021990276873111725
v 0.06885728985071182 0.02970217540860176 0.09929871559143066
v 0.09451931715011597 0.009224288165569305 0.017796942964196205
v 0.09298396855592728 0.0192209891974926 0.017460033297538757
v 0.09289851784706116 0.015284883789718151 0.022402390837669373
v 0.0896640345454216 0.028787920251488686 0.022301647812128067
v 0.09289851784706116 0.015284883789718151 0.022402390837669373
v 0.09298396855592728 0.0192209891974926 0.017460033297538757
v 0.0896640345454216 0.028787920251488686 0.022301647812128067
v 0.09298396855592728 0.0192209891974926 0.017460033297538757
v 0.09124463051557541 0.026198415085673332 0.017681369557976723
v 0.09298396855592728 0.0192209891974926 0.017460033297538757
v 0.09451931715011597 0.009224288165569305 0.017796942964196205
v 0.09382268041372299 0.015273121185600758 -1.8396626444427966e-08
v 0.09137223660945892 0.025997677817940712 -1.1363929797170158e-09
v 0.09298396855592728 0.0192209891974926 0.017460033297538757
v 0.09382268041372299 0.015273121185600758 -1.8396626444427966e-08
v 0.09124463051557541 0.026198415085673332 0.017681369557976723
v 0.09298396855592728 0.0192209891974926 0.017460033297538757
v 0.09137223660945892 0.025997677817940712 -1.1363929797170158e-09
v 0.09310844540596008 -0.01872466504573822 0.017764650285243988
v 0.09453825652599335 -0.008778066374361515 0.01750735193490982
v 0.09286724030971527 -0.015482831746339798 0.022138742730021477
v 0.0943414568901062 -0.01165132224559784 9.187163030333068e-09
v 0.09453825652599335 -0.008778066374361515 0.01750735193490982
v 0.09310844540596008 -0.01872466504573822 0.017764650285243988
v 0.07486344128847122 0.004360331688076258 0.09929871559143066
v 0.07486344128847122 -0.004360264632850885 0.09929871559143066
v 0.09400483220815659 -0.005692410282790661 0.022203514352440834
v 0.09400676935911179 0.005066971760243177 0.02215663157403469
v 0.07486344128847122 0.004360331688076258 0.09929871559143066
v 0.09400483220815659 -0.005692410282790661 0.022203514352440834
v 0.09453825652599335 -0.008778066374361515 0.01750735193490982
v 0.09400483220815659 -0.005692410282790661 0.022203514352440834
v 0.09286724030971527 -0.015482831746339798 0.022138742730021477
v 0.07385104149580002 -0.01302189752459526 0.09929871559143066
v 0.09400483220815659 -0.005692410282790661 0.022203514352440834
v 0.07486344128847122 -0.004360264632850885 0.09929871559143066
v 0.09286724030971527 -0.015482831746339798 0.022138742730021477
v 0.09400483220815659 -0.005692410282790661 0.022203514352440834
v 0.07385104149580002 -0.01302189752459526 0.09929871559143066
v 0.06901031732559204 -0.06528660655021667 2.8537694429786598e-09
v 0.06911775469779968 -0.0650743842124939 0.017681343480944633
v 0.06405558437108994 -0.07009217143058777 0.01744047738611698
v 0.07370783388614655 -0.05985238403081894 0.017480455338954926
v 0.06911775469779968 -0.0650743842124939 0.017681343480944633
v 0.06901031732559204 -0.06528660655021667 2.8537694429786598e-09
v 0.06849699467420578 -0.06480098515748978 0.021497273817658424
v 0.06405558437108994 -0.07009217143058777 0.01744047738611698
v 0.06911775469779968 -0.0650743842124939 0.017681343480944633
v 0.07370783388614655 -0.05985238403081894 0.017480455338954926
v 0.06849699467420578 -0.06480098515748978 0.021497273817658424
v 0.06911775469779968 -0.0650743842124939 0.017681343480944633
v 0.060521360486745834 -0.07239580154418945 0.021442189812660217
v 0.05862170830368996 -0.0746791884303093 0.01755477674305439
v 0.06405558437108994 -0.07009217143058777 0.01744047738611698
v 0.06405558437108994 -0.07009217143058777 0.01744047738611698
v 0.05862170830368996 -0.0746791884303093 0.01755477674305439
v 0.06139564886689186 -0.07254552096128464 -5.503460798195192e-09
v 0.06139564886689186 -0.07254552096128464 -5.503460798195192e-09
v 0.05862170830368996 -0.0746791884303093 0.01755477674305439
v 0.05296090245246887 -0.0788663849234581 3.4473601751017213e-09
v 0.05296090245246887 -0.0788663849234581 3.4473601751017213e-09
v 0.05862170830368996 -0.0746791884303093 0.01755477674305439
v 0.05051211640238762 -0.08043268322944641 0.01771281659603119
v 0.060521360486745834 -0.07239580154418945 0.021442189812660217
v 0.041207872331142426 -0.06265345215797424 0.09929871559143066
v 0.05256689712405205 -0.07827981561422348 0.021497273817658424
v 0.05862170830368996 -0.0746791884303093 0.01755477674305439
v 0.05256689712405205 -0.07827981561422348 0.021497273817658424
v 0.05051211640238762 -0.08043268322944641 0.01771281659603119
v 0.05862170830368996 -0.0746791884303093 0.01755477674305439
v 0.060521360486745834 -0.07239580154418945 0.021442189812660217
v 0.05256689712405205 -0.07827981561422348 0.021497273817658424
v 0.041207872331142426 -0.06265345215797424 0.09929871559143066
v 0.04619583487510681 -0.08205493539571762 0.022081324830651283
v 0.05256689712405205 -0.07827981561422348 0.021497273817658424
v 0.05051211640238762 -0.08043268322944641 0.01771281659603119
v 0.05256689712405205 -0.07827981561422348 0.021497273817658424
v 0.04619583487510681 -0.08205493539571762 0.022081324830651283
v -0.050123367458581924 0.08063995093107224 0.017480408772826195
v -0.0554235614836216 0.07628391683101654 0.021497266367077827
v -0.0494161956012249 0.08014155924320221 0.022095149382948875
v -0.0494161956012249 0.08014155924320221 0.022095149382948875
v -0.0554235614836216 0.07628391683101654 0.021497266367077827
v -0.041207872331142426 0.06265345960855484 0.09929871559143066
v -0.04820285737514496 0.057445891201496124 0.09929871559143066
v -0.0554235614836216 0.07628391683101654 0.021497266367077827
v -0.06090597063302994 0.07198243588209152 0.021497266367077827
v -0.041207872331142426 0.06265345960855484 0.09929871559143066
v -0.0554235614836216 0.07628391683101654 0.021497266367077827
v -0.04820285737514496 0.057445891201496124 0.09929871559143066
v 0.04120782017707825 0.06265349686145782 0.09929871559143066
v 0.0336555577814579 0.06701379269361496 0.09929871559143066
v -0.06494352966547012 0.03749511018395424 0.09929872304201126
v 0.025648167356848717 0.07046785205602646 0.09929871559143066
v -0.06494352966547012 0.03749511018395424 0.09929872304201126
v 0.0336555577814579 0.06701379269361496 0.09929871559143066
v 0.0336555577814579 0.06701379269361496 0.09929871559143066
v 0.04120782017707825 0.06265349686145782 0.09929871559143066
v 0.04963838681578636 0.08016881346702576 0.021497266367077827
v 0.04347909986972809 0.0835057869553566 0.02214580774307251
v 0.0336555577814579 0.06701379269361496 0.09929871559143066
v 0.04963838681578636 0.08016881346702576 0.021497266367077827
v 0.025648167356848717 0.07046785205602646 0.09929871559143066
v 0.0336555577814579 0.06701379269361496 0.09929871559143066
v 0.03725344315171242 0.08640403300523758 0.022336095571517944
v 0.04347909986972809 0.0835057869553566 0.02214580774307251
v 0.03725344315171242 0.08640403300523758 0.022336095571517944
v 0.0336555577814579 0.06701379269361496 0.09929871559143066
v 0.025648167356848717 0.07046785205602646 0.09929871559143066
v 0.01729392819106579 0.07296893745660782 0.09929871559143066
v -0.06494352966547012 0.03749511018395424 0.09929872304201126
v 0.027697553858160973 0.09004614502191544 0.022091113030910492
v 0.01729392819106579 0.07296893745660782 0.09929871559143066
v 0.025648167356848717 0.07046785205602646 0.09929871559143066
v 0.01442433800548315 0.09303111582994461 0.022411247715353966
v 0.01729392819106579 0.07296893745660782 0.09929871559143066
v 0.027697553858160973 0.09004614502191544 0.022091113030910492
v -0.017293984070420265 0.07296893000602722 0.09929871559143066
v -0.025648223236203194 0.07046782970428467 0.09929871559143066
v -0.06494352966547012 0.03749511018395424 0.09929872304201126
v -0.03716011717915535 0.08642835170030594 0.022399775683879852
v -0.025648223236203194 0.07046782970428467 0.09929871559143066
v -0.02691161073744297 0.09028705209493637 0.02208464778959751
v -0.025648223236203194 0.07046782970428467 0.09929871559143066
v -0.017293984070420265 0.07296893000602722 0.09929871559143066
v -0.02691161073744297 0.09028705209493637 0.02208464778959751
v -2.9202301021769017e-08 0.07499030232429504 0.09929871559143066
v -0.008705870248377323 0.0744832381606102 0.09929871559143066
v -0.06494352966547012 0.03749511018395424 0.09929872304201126
v -0.06494352966547012 0.03749511018395424 0.09929872304201126
v -0.008705870248377323 0.0744832381606102 0.09929871559143066
v -0.017293984070420265 0.07296893000602722 0.09929871559143066
v -0.017293984070420265 0.07296893000602722 0.09929871559143066
v -0.008705870248377323 0.0744832381606102 0.09929871559143066
v -0.013811969198286533 0.09311377257108688 0.022467030212283134
v -0.013811969198286533 0.09311377257108688 0.022467030212283134
v -0.008705870248377323 0.0744832381606102 0.09929871559143066
v 0.000341190054314211 0.09417492151260376 0.022320223972201347
v 0.000341190054314211 0.09417492151260376 0.022320223972201347
v -0.008705870248377323 0.0744832381606102 0.09929871559143066
v -2.9202301021769017e-08 0.07499030232429504 0.09929871559143066
v -0.05296071246266365 -0.07886652648448944 3.447364393949215e-09
v -0.05273372679948807 -0.07893729209899902 0.017681285738945007
v -0.058444198220968246 -0.07482075691223145 0.017517676576972008
v -0.046823810786008835 -0.08259954303503036 0.017480386421084404
v -0.05273372679948807 -0.07893729209899902 0.017681285738945007
v -0.05296071246266365 -0.07886652648448944 3.447364393949215e-09
v -0.06352416425943375 -0.06968274712562561 0.021497273817658424
v -0.058204445987939835 -0.0741838812828064 0.021497273817658424
v -0.04820281267166138 -0.05744592100381851 0.09929871559143066
v -0.058444198220968246 -0.07482075691223145 0.017517676576972008
v -0.058204445987939835 -0.0741838812828064 0.021497273817658424
v -0.06352416425943375 -0.06968274712562561 0.021497273817658424
v -0.04120782017707825 -0.06265348941087723 0.09929871559143066
v -0.04820281267166138 -0.05744592100381851 0.09929871559143066
v -0.058204445987939835 -0.0741838812828064 0.021497273817658424
v -0.05273372679948807 -0.07893729209899902 0.017681285738945007
v -0.058204445987939835 -0.0741838812828064 0.021497273817658424
v -0.058444198220968246 -0.07482075691223145 0.017517676576972008
v -0.09409324824810028 -0.012919129803776741 0.01774837262928486
v -0.09218213707208633 -0.0227509792894125 0.017480483278632164
v -0.09283335506916046 -0.0156837310642004 0.0221392922103405
v -0.09283335506916046 -0.0156837310642004 0.0221392922103405
v -0.09218213707208633 -0.0227509792894125 0.017480483278632164
v -0.09069400280714035 -0.025454608723521233 0.022116463631391525
v -0.09069400280714035 -0.025454608723521233 0.022116463631391525
v -0.09218213707208633 -0.0227509792894125 0.017480483278632164
v -0.09021424502134323 -0.029552148655056953 0.017681332305073738
v -0.09021424502134323 -0.029552148655056953 0.017681332305073738
v -0.09218213707208633 -0.0227509792894125 0.017480483278632164
v -0.09142249822616577 -0.025973955169320107 2.0072686623962e-08
v -0.09368784725666046 -0.0157274529337883 6.874671942824762e-10
v -0.09142249822616577 -0.025973955169320107 2.0072686623962e-08
v -0.09218213707208633 -0.0227509792894125 0.017480483278632164
v -0.09368784725666046 -0.0157274529337883 6.874671942824762e-10
v -0.09218213707208633 -0.0227509792894125 0.017480483278632164
v -0.09409324824810028 -0.012919129803776741 0.01774837262928486
v -0.08155243843793869 -0.04862461984157562 0.017480473965406418
v -0.08114047348499298 -0.047812074422836304 0.02203487977385521
v -0.08627939969301224 -0.039708368480205536 0.01769828051328659
v -0.07773388177156448 -0.054500579833984375 0.017567133530974388
v -0.08155243843793869 -0.04862461984157562 0.017480473965406418
v -0.0798819363117218 -0.051492322236299515 2.4941066101291653e-08
v -0.07773388177156448 -0.054500579833984375 0.017567133530974388
v -0.07729506492614746 -0.054004449397325516 0.021497271955013275
v -0.08155243843793869 -0.04862461984157562 0.017480473965406418
v -0.08114047348499298 -0.047812074422836304 0.02203487977385521
v -0.08155243843793869 -0.04862461984157562 0.017480473965406418
v -0.07729506492614746 -0.054004449397325516 0.021497271955013275
v -0.0798819363117218 -0.051492322236299515 2.4941066101291653e-08
v -0.08155243843793869 -0.04862461984157562 0.017480473965406418
v -0.08662804216146469 -0.039197202771902084 1.5633297323347506e-08
v -0.08627939969301224 -0.039708368480205536 0.01769828051328659
v -0.08662804216146469 -0.039197202771902084 1.5633297323347506e-08
v -0.08155243843793869 -0.04862461984157562 0.017480473965406418
v 0.04704410210251808 0.08262983709573746 1.034247620879114e-08
v 0.04367523640394211 0.08428768068552017 0.017681345343589783
v 0.04980616271495819 0.08082833141088486 0.017517607659101486
v 0.03739650920033455 0.08727344125509262 0.017480500042438507
v 0.04367523640394211 0.08428768068552017 0.017681345343589783
v 0.04704410210251808 0.08262983709573746 1.034247620879114e-08
v 0.04980616271495819 0.08082833141088486 0.017517607659101486
v 0.04367523640394211 0.08428768068552017 0.017681345343589783
v 0.04963838681578636 0.08016881346702576 0.021497266367077827
v 0.04963838681578636 0.08016881346702576 0.021497266367077827
v 0.04367523640394211 0.08428768068552017 0.017681345343589783
v 0.04347909986972809 0.0835057869553566 0.02214580774307251
v 0.04347909986972809 0.0835057869553566 0.02214580774307251
v 0.04367523640394211 0.08428768068552017 0.017681345343589783
v 0.03725344315171242 0.08640403300523758 0.022336095571517944
v 0.04367523640394211 0.08428768068552017 0.017681345343589783
v 0.03739650920033455 0.08727344125509262 0.017480500042438507
v 0.03725344315171242 0.08640403300523758 0.022336095571517944
v 0.08456383645534515 0.041567590087652206 0.021990276873111725
v 0.08909860253334045 0.032811470329761505 0.01748042181134224
v 0.08643204718828201 0.03930209204554558 0.01748044230043888
v 0.0896640345454216 0.028787920251488686 0.022301647812128067
v 0.08909860253334045 0.032811470329761505 0.01748042181134224
v 0.08456383645534515 0.041567590087652206 0.021990276873111725
v 0.09124463051557541 0.026198415085673332 0.017681369557976723
v 0.08909860253334045 0.032811470329761505 0.01748042181134224
v 0.0896640345454216 0.028787920251488686 0.022301647812128067
v 0.08909860253334045 0.032811470329761505 0.01748042181134224
v 0.08797745406627655 0.03594903647899628 8.868267897810256e-09
v 0.08643204718828201 0.03930209204554558 0.01748044230043888
v 0.08909860253334045 0.032811470329761505 0.01748042181134224
v 0.09137223660945892 0.025997677817940712 -1.1363929797170158e-09
v 0.08797745406627655 0.03594903647899628 8.868267897810256e-09
v 0.09137223660945892 0.025997677817940712 -1.1363929797170158e-09
v 0.08909860253334045 0.032811470329761505 0.01748042181134224
v 0.09124463051557541 0.026198415085673332 0.017681369557976723
v 0.09400676935911179 0.005066971760243177 0.02215663157403469
v 0.09493456035852432 -0.0017011752352118492 0.017460092902183533
v 0.09451931715011597 0.009224288165569305 0.017796942964196205
v 0.09400483220815659 -0.005692410282790661 0.022203514352440834
v 0.09493456035852432 -0.0017011752352118492 0.017460092902183533
v 0.09400676935911179 0.005066971760243177 0.02215663157403469
v 0.09453825652599335 -0.008778066374361515 0.01750735193490982
v 0.09493456035852432 -0.0017011752352118492 0.017460092902183533
v 0.09400483220815659 -0.005692410282790661 0.022203514352440834
v 0.09451931715011597 0.009224288165569305 0.017796942964196205
v 0.09493456035852432 -0.0017011752352118492 0.017460092902183533
v 0.09502347558736801 0.0017342099454253912 -1.8772729148963663e-08
v 0.09502347558736801 0.0017342099454253912 -1.8772729148963663e-08
v 0.09493456035852432 -0.0017011752352118492 0.017460092902183533
v 0.0943414568901062 -0.01165132224559784 9.187163030333068e-09
v 0.09493456035852432 -0.0017011752352118492 0.017460092902183533
v 0.09453825652599335 -0.008778066374361515 0.01750735193490982
v 0.0943414568901062 -0.01165132224559784 9.187163030333068e-09
v -0.05598350241780281 0.07666672766208649 0.017681356519460678
v -0.0554235614836216 0.07628391683101654 0.021497266367077827
v -0.050123367458581924 0.08063995093107224 0.017480408772826195
v -0.05295391008257866 0.07892149686813354 1.5500853933758663e-08
v -0.05598350241780281 0.07666672766208649 0.017681356519460678
v -0.050123367458581924 0.08063995093107224 0.017480408772826195
v -0.06090597063302994 0.07198243588209152 0.021497266367077827
v -0.05598350241780281 0.07666672766208649 0.017681356519460678
v -0.06435757130384445 0.0698547214269638 0.01760917901992798
v -0.0554235614836216 0.07628391683101654 0.021497266367077827
v -0.05598350241780281 0.07666672766208649 0.017681356519460678
v -0.06090597063302994 0.07198243588209152 0.021497266367077827
v -0.05598350241780281 0.07666672766208649 0.017681356519460678
v -0.0640789344906807 0.07024554163217545 9.308243065220267e-09
v -0.06435757130384445 0.0698547214269638 0.01760917901992798
v -0.0640789344906807 0.07024554163217545 9.308243065220267e-09
v -0.05598350241780281 0.07666672766208649 0.017681356519460678
v -0.05295391008257866 0.07892149686813354 1.5500853933758663e-08
v -2.9202301021769017e-08 0.07499030232429504 0.09929871559143066
v -0.06494352966547012 0.03749511018395424 0.09929872304201126
v 0.008705812506377697 0.0744832456111908 0.09929871559143066
v 0.01729392819106579 0.07296893745660782 0.09929871559143066
v 0.008705812506377697 0.0744832456111908 0.09929871559143066
v -0.06494352966547012 0.03749511018395424 0.09929872304201126
v 0.01442433800548315 0.09303111582994461 0.022411247715353966
v 0.008705812506377697 0.0744832456111908 0.09929871559143066
v 0.01729392819106579 0.07296893745660782 0.09929871559143066
v -2.9202301021769017e-08 0.07499030232429504 0.09929871559143066
v 0.008705812506377697 0.0744832456111908 0.09929871559143066
v 0.000341190054314211 0.09417492151260376 0.022320223972201347
v 0.008705812506377697 0.0744832456111908 0.09929871559143066
v 0.01442433800548315 0.09303111582994461 0.022411247715353966
v 0.000341190054314211 0.09417492151260376 0.022320223972201347
v -0.03365560993552208 0.06701377034187317 0.09929871559143066
v -0.041207872331142426 0.06265345960855484 0.09929871559143066
v -0.06494352966547012 0.03749511018395424 0.09929872304201126
v -0.025648223236203194 0.07046782970428467 0.09929871559143066
v -0.03365560993552208 0.06701377034187317 0.09929871559143066
v -0.06494352966547012 0.03749511018395424 0.09929872304201126
v -0.0494161956012249 0.08014155924320221 0.022095149382948875
v -0.03365560993552208 0.06701377034187317 0.09929871559143066
v -0.04364510625600815 0.08342424780130386 0.02212947979569435
v -0.041207872331142426 0.06265345960855484 0.09929871559143066
v -0.03365560993552208 0.06701377034187317 0.09929871559143066
v -0.0494161956012249 0.08014155924320221 0.022095149382948875
v -0.04364510625600815 0.08342424780130386 0.02212947979569435
v -0.03365560993552208 0.06701377034187317 0.09929871559143066
v -0.03716011717915535 0.08642835170030594 0.022399775683879852
v -0.03365560993552208 0.06701377034187317 0.09929871559143066
v -0.025648223236203194 0.07046782970428467 0.09929871559143066
v -0.03716011717915535 0.08642835170030594 0.022399775683879852
v -0.05256683751940727 -0.07827986031770706 0.021497273817658424
v -0.058204445987939835 -0.0741838812828064 0.021497273817658424
v -0.05273372679948807 -0.07893729209899902 0.017681285738945007
v -0.058204445987939835 -0.0741838812828064 0.021497273817658424
v -0.05256683751940727 -0.07827986031770706 0.021497273817658424
v -0.04120782017707825 -0.06265348941087723 0.09929871559143066
v -0.04120782017707825 -0.06265348941087723 0.09929871559143066
v -0.05256683751940727 -0.07827986031770706 0.021497273817658424
v -0.044080156832933426 -0.08318544924259186 0.022365786135196686
v -0.046823810786008835 -0.08259954303503036 0.017480386421084404
v -0.044080156832933426 -0.08318544924259186 0.022365786135196686
v -0.05256683751940727 -0.07827986031770706 0.021497273817658424
v -0.05273372679948807 -0.07893729209899902 0.017681285738945007
v -0.046823810786008835 -0.08259954303503036 0.017480386421084404
v -0.05256683751940727 -0.07827986031770706 0.021497273817658424
f 1 2 3
f 4 5 6
f 7 8 9
f 10 11 12
f 13 14 15
f 16 17 18
f 19 20 21
f 22 23 24
f 25 26 27
f 28 29 30
f 31 32 33
f 34 35 36
f 37 38 39
f 40 41 42
f 43 44 45
f 46 47 48
f 49 50 51
f 52 53 54
f 55 56 57
f 58 59 60
f 61 62 63
f 64 65 66
f 67 68 69
f 70 71 72
f 73 74 75
f 76 77 78
f 79 80 81
f 82 83 84
f 85 86 87
f 88 89 90
f 91 92 93
f 94 95 96
f 97 98 99
f 100 101 102
f 103 104 105
f 106 107 108
f 109 110 111
f 112 113 114
f 115 116 117
f 118 119 120
f 121 122 123
f 124 125 126
f 127 128 129
f 130 131 132
f 133 134 135
f 136 137 138
f 139 140 141
f 142 143 144
f 145 146 147
f 148 149 150
f 151 152 153
f 154 155 156
f 157 158 159
f 160 161 162
f 163 164 165
f 166 167 168
f 169 170 171
f 172 173 174
f 175 176 177
f 178 179 180
f 181 182 183
f 184 185 186
f 187 188 189
f 190 191 192
f 193 194 195
f 196 197 198
f 199 200 201
f 202 203 204
f 205 206 207
f 208 209 210
f 211 212 213
f 214 215 216
f 217 218 219
f 220 221 222
f 223 224 225
f 226 227 228
f 229 230 231
f 232 233 234
f 235 236 237
f 238 239 240
f 241 242 243
f 244 245 246
f 247 248 249
f 250 251 252
f 253 254 255
f 256 257 258
f 259 260 261
f 262 263 264
f 265 266 267
f 268 269 270
f 271 272 273
f 274 275 276
f 277 278 279
f 280 281 282
f 283 284 285
f 286 287 288
f 289 290 291
f 292 293 294
f 295 296 297
f 298 299 300
f 301 302 303
f 304 305 306
f 307 308 309
f 310 311 312
f 313 314 315
f 316 317 318
f 319 320 321
f 322 323 324
f 325 326 327
f 328 329 330
f 331 332 333
f 334 335 336
f 337 338 339
f 340 341 342
f 343 344 345
f 346 347 348
f 349 350 351
f 352 353 354
f 355 356 357
f 358 359 360
f 361 362 363
f 364 365 366
f 367 368 369
f 370 371 372
f 373 374 375
f 376 377 378
f 379 380 381
f 382 383 384
f 385 386 387
f 388 389 390
f 391 392 393
f 394 395 396
f 397 398 399
f 400 401 402
f 403 404 405
f 406 407 408
f 409 410 411
f 412 413 414
f 415 416 417
f 418 419 420
f 421 422 423
f 424 425 426
f 427 428 429
f 430 431 432
f 433 434 435
f 436 437 438
f 439 440 441
f 442 443 444
f 445 446 447
f 448 449 450
f 451 452 453
f 454 455 456
f 457 458 459
f 460 461 462
f 463 464 465
f 466 467 468
f 469 470 471
f 472 473 474
f 475 476 477
f 478 479 480
f 481 482 483
f 484 485 486
f 487 488 489
f 490 491 492
f 493 494 495
f 496 497 498
f 499 500 501
f 502 503 504
f 505 506 507
f 508 509 510
f 511 512 513
f 514 515 516
f 517 518 519
f 520 521 522
f 523 524 525
f 526 527 528
f 529 530 531
f 532 533 534
f 535 536 537
f 538 539 540
f 541 542 543
f 544 545 546
f 547 548 549
f 550 551 552
f 553 554 555
f 556 557 558
f 559 560 561
f 562 563 564
f 565 566 567
f 568 569 570
f 571 572 573
f 574 575 576
f 577 578 579
f 580 581 582
f 583 584 585
f 586 587 588
f 589 590 591
f 592 593 594
f 595 596 597
f 598 599 600
f 601 602 603
f 604 605 606
f 607 608 609
f 610 611 612
f 613 614 615
f 616 617 618
f 619 620 621
f 622 623 624
f 625 626 627
f 628 629 630
f 631 632 633
f 634 635 636
f 637 638 639
f 640 641 642
f 643 644 645
f 646 647 648
f 649 650 651
f 652 653 654
f 655 656 657
f 658 659 660
f 661 662 663
f 664 665 666
f 667 668 669
f 670 671 672
f 673 674 675
f 676 677 678
f 679 680 681
f 682 683 684
f 685 686 687
f 688 689 690
f 691 692 693
f 694 695 696
f 697 698 699
f 700 701 702
f 703 704 705
f 706 707 708
f 709 710 711
f 712 713 714
f 715 716 717
f 718 719 720
f 721 722 723
f 724 725 726
f 727 728 729
f 730 731 732
f 733 734 735
f 736 737 738
f 739 740 741
f 742 743 744
f 745 746 747
f 748 749 750
f 751 752 753
f 754 755 756
f 757 758 759
f 760 761 762
f 763 764 765
f 766 767 768
f 769 770 771
f 772 773 774
f 775 776 777
f 778 779 780
f 781 782 783
f 784 785 786
f 787 788 789
f 790 791 792
f 793 794 795
f 796 797 798
f 799 800 801
f 802 803 804
f 805 806 807
f 808 809 810
f 811 812 813
f 814 815 816
f 817 818 819
f 820 821 822
f 823 824 825
f 826 827 828
f 829 830 831
f 832 833 834
f 835 836 837
f 838 839 840
f 841 842 843
f 844 845 846
f 847 848 849
f 850 851 852
f 853 854 855
f 856 857 858
f 859 860 861
f 862 863 864
f 865 866 867
f 868 869 870
f 871 872 873
f 874 875 876
f 877 878 879
f 880 881 882
f 883 884 885
f 886 887 888
f 889 890 891
f 892 893 894
f 895 896 897
f 898 899 900
f 901 902 903
f 904 905 906
f 907 908 909
f 910 911 912
f 913 914 915
f 916 917 918
f 919 920 921
f 922 923 924
f 925 926 927
f 928 929 930
f 931 932 933
f 934 935 936
f 937 938 939
f 940 941 942
f 943 944 945
f 946 947 948
f 949 950 951
f 952 953 954
f 955 956 957
f 958 959 960
f 961 962 963
f 964 965 966
f 967 968 969
f 970 971 972
f 973 974 975
f 976 977 978
f 979 980 981
f 982 983 984
f 985 986 987
f 988 989 990
f 991 992 993
f 994 995 996
f 997 998 999
f 1000 1001 1002
f 1003 1004 1005
f 1006 1007 1008
f 1009 1010 1011
f 1012 1013 1014
f 1015 1016 1017
f 1018 1019 1020
f 1021 1022 1023
f 1024 1025 1026
f 1027 1028 1029
f 1030 1031 1032
f 1033 1034 1035
f 1036 1037 1038
f 1039 1040 1041
f 1042 1043 1044
f 1045 1046 1047
f 1048 1049 1050
f 1051 1052 1053
f 1054 1055 1056
f 1057 1058 1059
f 1060 1061 1062
f 1063 1064 1065
f 1066 1067 1068
f 1069 1070 1071
f 1072 1073 1074
f 1075 1076 1077
f 1078 1079 1080
f 1081 1082 1083
f 1084 1085 1086
f 1087 1088 1089
f 1090 1091 1092
f 1093 1094 1095
f 1096 1097 1098
f 1099 1100 1101
f 1102 1103 1104
f 1105 1106 1107
f 1108 1109 1110
f 1111 1112 1113
f 1114 1115 1116
f 1117 1118 1119
f 1120 1121 1122
f 1123 1124 1125
f 1126 1127 1128
f 1129 1130 1131
f 1132 1133 1134
f 1135 1136 1137
f 1138 1139 1140
f 1141 1142 1143
f 1144 1145 1146
f 1147 1148 1149
f 1150 1151 1152
f 1153 1154 1155
f 1156 1157 1158
f 1159 1160 1161
f 1162 1163 1164
f 1165 1166 1167
f 1168 1169 1170
f 1171 1172 1173
f 1174 1175 1176
f 1177 1178 1179
f 1180 1181 1182
f 1183 1184 1185
f 1186 1187 1188
f 1189 1190 1191
f 1192 1193 1194
f 1195 1196 1197
f 1198 1199 1200
f 1201 1202 1203
f 1204 1205 1206
f 1207 1208 1209
f 1210 1211 1212
f 1213 1214 1215
f 1216 1217 1218
f 1219 1220 1221
f 1222 1223 1224
f 1225 1226 1227
f 1228 1229 1230
f 1231 1232 1233
f 1234 1235 1236
f 1237 1238 1239
f 1240 1241 1242
f 1243 1244 1245
f 1246 1247 1248
f 1249 1250 1251
f 1252 1253 1254
f 1255 1256 1257
f 1258 1259 1260
f 1261 1262 1263
f 1264 1265 1266
f 1267 1268 1269
f 1270 1271 1272
f 1273 1274 1275
f 1276 1277 1278
f 1279 1280 1281
f 1282 1283 1284
f 1285 1286 1287
f 1288 1289 1290
f 1291 1292 1293
f 1294 1295 1296
f 1297 1298 1299
f 1300 1301 1302
f 1303 1304 1305
f 1306 1307 1308
f 1309 1310 1311
f 1312 1313 1314
f 1315 1316 1317
f 1318 1319 1320
f 1321 1322 1323
f 1324 1325 1326
f 1327 1328 1329
f 1330 1331 1332
f 1333 1334 1335
f 1336 1337 1338
f 1339 1340 1341
f 1342 1343 1344
f 1345 1346 1347
f 1348 1349 1350
f 1351 1352 1353
f 1354 1355 1356
f 1357 1358 1359
f 1360 1361 1362
f 1363 1364 1365
f 1366 1367 1368
f 1369 1370 1371
f 1372 1373 1374
