# File produced by Open Asset Import Library (http://www.assimp.sf.net)
# (assimp v5.0.1937526254)

mtllib Left_Pad_Link.mtl

# 36 vertex positions
v  0.00150000153 0.0222500004 -0.00320849731
v  -0.0014999985 0.0222500004 -0.00320849731
v  0.00150000153 0.0222500004 0.00320849731
v  -0.0014999985 0.0222500004 0.00320849731
v  0.00150000153 -0.0172500014 -0.0115
v  0.00150000153 0.0172499996 -0.0115
v  0.00150000153 0.0206731781 -0.00888332911
v  0.00150000153 0.0215395577 -0.00709758466
v  0.00150000153 0.0220709313 -0.00518521992
v  0.00150000153 0.0215395577 0.00709758466
v  0.00150000153 0.0206731781 0.00888332911
v  0.00150000153 0.0172499996 0.0115
v  0.00150000153 -0.0172500014 0.0115
v  0.00150000153 0.0220709313 0.00518521992
v  0.00150000153 0.0195000004 0.0104843136
v  0.00150000153 0.018857196 0.0110331634
v  0.00150000153 0.0180868115 0.0113809276
v  0.00150000153 0.0180868115 -0.0113809276
v  0.00150000153 0.018857196 -0.0110331634
v  0.00150000153 0.0195000004 -0.0104843136
v  -0.0014999985 0.0172499996 -0.0115
v  -0.0014999985 -0.0172500014 -0.0115
v  -0.0014999985 -0.0172500014 0.0115
v  -0.0014999985 0.0172499996 0.0115
v  -0.0014999985 0.0220709313 -0.00518521992
v  -0.0014999985 0.0215395577 -0.00709758466
v  -0.0014999985 0.0206731781 -0.00888332911
v  -0.0014999985 0.0206731781 0.00888332911
v  -0.0014999985 0.0215395577 0.00709758466
v  -0.0014999985 0.0220709313 0.00518521992
v  -0.0014999985 0.0195000004 0.0104843136
v  -0.0014999985 0.0180868115 0.0113809276
v  -0.0014999985 0.018857196 0.0110331634
v  -0.0014999985 0.0195000004 -0.0104843136
v  -0.0014999985 0.018857196 -0.0110331634
v  -0.0014999985 0.0180868115 -0.0113809276

# 0 UV coordinates

# 20 vertex normals
vn -7.26918525e-14 1 4.19337128e-15
vn 1 7.26918525e-14 -8.37960513e-18
vn -1 -7.26918525e-14 8.37960513e-18
vn -8.37960513e-18 4.19337128e-15 -1
vn 8.37960513e-18 -4.19337128e-15 1
vn 7.26918525e-14 -1 -4.19337128e-15
vn -1.02486785e-14 0.140873879 -0.990027547
vn -2.99158281e-14 0.411438018 -0.91143775
vn -4.72081446e-14 0.64934063 -0.760497689
vn -5.86393523e-14 0.80661577 -0.591076136
vn -6.54046993e-14 0.899702489 -0.436503619
vn -7.00406259e-14 0.963496983 -0.267719209
vn -7.23961635e-14 0.99592191 -0.0902194679
vn -4.71953985e-14 0.64934063 0.760497689
vn -2.99005544e-14 0.411438018 0.91143775
vn -1.02320869e-14 0.140873879 0.990027547
vn -7.23946524e-14 0.99592191 0.0902194679
vn -7.00361332e-14 0.963496983 0.267719209
vn -6.5397381e-14 0.899702489 0.436503619
vn -5.86294454e-14 0.80661577 0.591076136

# Mesh 'mesh' with 68 faces
g mesh
usemtl white_001
f  1//1 2//1 3//1
f  3//1 2//1 4//1
f  1//2 5//2 6//2
f  7//2 8//2 6//2
f  6//2 8//2 9//2
f  6//2 9//2 1//2
f  10//2 11//2 12//2
f  5//2 1//2 13//2
f  13//2 1//2 3//2
f  13//2 3//2 12//2
f  12//2 3//2 14//2
f  12//2 14//2 10//2
f  11//2 15//2 12//2
f  12//2 15//2 16//2
f  12//2 16//2 17//2
f  18//2 19//2 6//2
f  6//2 19//2 20//2
f  6//2 20//2 7//2
f  21//3 22//3 2//3
f  2//3 22//3 4//3
f  4//3 22//3 23//3
f  4//3 23//3 24//3
f  2//3 25//3 21//3
f  21//3 25//3 26//3
f  21//3 26//3 27//3
f  28//3 29//3 24//3
f  24//3 29//3 30//3
f  24//3 30//3 4//3
f  28//3 24//3 31//3
f  31//3 24//3 32//3
f  31//3 32//3 33//3
f  27//3 34//3 21//3
f  21//3 34//3 35//3
f  21//3 35//3 36//3
f  6//4 5//4 21//4
f  21//4 5//4 22//4
f  24//5 23//5 12//5
f  12//5 23//5 13//5
f  5//6 13//6 22//6
f  22//6 13//6 23//6
f  6//7 21//7 36//7
f  6//7 36//7 18//7
f  18//8 36//8 35//8
f  18//8 35//8 19//8
f  19//9 35//9 34//9
f  19//9 34//9 20//9
f  20//10 34//10 27//10
f  20//10 27//10 7//10
f  7//11 27//11 26//11
f  7//11 26//11 8//11
f  8//12 26//12 25//12
f  8//12 25//12 9//12
f  9//13 25//13 2//13
f  9//13 2//13 1//13
f  15//14 31//14 33//14
f  15//14 33//14 16//14
f  16//15 33//15 32//15
f  16//15 32//15 17//15
f  17//16 32//16 24//16
f  17//16 24//16 12//16
f  3//17 4//17 30//17
f  3//17 30//17 14//17
f  14//18 30//18 29//18
f  14//18 29//18 10//18
f  10//19 29//19 28//19
f  10//19 28//19 11//19
f  11//20 28//20 31//20
f  11//20 31//20 15//20

