mtllib openarm_left_link7_collision_mesh.mtl
v -0.0049990003099190106 -0.08405797976158258 0.6690005200570681
v 0.0050010001650555025 -0.08405797976158258 0.6690005200570681
v -0.0049990003099190106 0.08405797976158258 0.6690005200570681
v -0.0049990003099190106 0.08405797976158258 0.6690005200570681
v 0.0050010001650555025 -0.08405797976158258 0.6690005200570681
v 0.0050010001650555025 0.08405797976158258 0.6690005200570681
v -0.0049990003099190106 -0.08405797976158258 0.6690005200570681
v -0.0049990003099190106 -0.08405797976158258 0.6645005198433296
v 0.0050010001650555025 -0.08405797976158258 0.6690005200570681
v 0.0050010001650555025 -0.08405797976158258 0.6690005200570681
v -0.0049990003099190106 -0.08405797976158258 0.6645005198433296
v 0.0050010001650555025 -0.08405797976158258 0.6645005198433296
v -0.0049990003099190106 0.08405797976158258 0.6690005200570681
v -0.0049990003099190106 0.03682592566881526 0.6645005198433296
v -0.0049990003099190106 -0.08405797976158258 0.6690005200570681
v -0.0049990003099190106 -0.08405797976158258 0.6690005200570681
v -0.0049990003099190106 0.03682592566881526 0.6645005198433296
v -0.0049990003099190106 -0.03682592566881526 0.6645005198433296
v -0.0049990003099190106 -0.08405797976158258 0.6690005200570681
v -0.0049990003099190106 -0.03682592566881526 0.6645005198433296
v -0.0049990003099190106 -0.04086738017595959 0.6645005198433296
v -0.0049990003099190106 -0.04086738017595959 0.6645005198433296
v -0.0049990003099190106 -0.03682592566881526 0.6645005198433296
v -0.0049990003099190106 -0.04045996667394247 0.6644220896638231
v -0.0049990003099190106 -0.04045996667394247 0.6644220896638231
v -0.0049990003099190106 -0.03682592566881526 0.6645005198433296
v -0.0049990003099190106 -0.04016027259842847 0.6642076121145735
v -0.0049990003099190106 -0.04016027259842847 0.6642076121145735
v -0.0049990003099190106 -0.03682592566881526 0.6645005198433296
v -0.0049990003099190106 -0.040001352302794224 0.6640005198195809
v -0.0049990003099190106 -0.040001352302794224 0.6640005198195809
v -0.0049990003099190106 -0.03682592566881526 0.6645005198433296
v -0.0049990003099190106 -0.03184828909510995 0.656086823154638
v -0.0049990003099190106 -0.040001352302794224 0.6640005198195809
v -0.0049990003099190106 -0.03184828909510995 0.656086823154638
v -0.0049990003099190106 -0.03406168145793087 0.6539574285222471
v -0.0049990003099190106 0.08405797976158258 0.6645005198433296
v -0.0049990003099190106 0.0403298091970572 0.664396638002458
v -0.0049990003099190106 0.08405797976158258 0.6690005200570681
v -0.0049990003099190106 0.08405797976158258 0.6690005200570681
v -0.0049990003099190106 0.0403298091970572 0.664396638002458
v -0.0049990003099190106 0.03682592566881526 0.6645005198433296
v -0.0049990003099190106 0.03682592566881526 0.6645005198433296
v -0.0049990003099190106 0.0403298091970572 0.664396638002458
v -0.0049990003099190106 0.03188365515513936 0.6561162421013478
v -0.0049990003099190106 0.03188365515513936 0.6561162421013478
v -0.0049990003099190106 0.0403298091970572 0.664396638002458
v -0.0049990003099190106 0.03406091851844151 0.653997101375694
v -0.0049990003099190106 -0.04086738017595959 0.6645005198433296
v -0.0049990003099190106 -0.08405797976158258 0.6645005198433296
v -0.0049990003099190106 -0.08405797976158258 0.6690005200570681
v -0.007511276125046484 0.028500001353677362 0.5745149198661181
v 0.007513275980182976 0.028500001353677362 0.5745149198661181
v -0.007499000428662639 0.028500001353677362 0.574625027293223
v -0.007499000428662639 0.028500001353677362 0.574625027293223
v 0.007513275980182976 0.028500001353677362 0.5745149198661181
v 0.007501000283799131 0.028500001353677362 0.574625027293223
v -0.007499000428662639 0.028500001353677362 0.574625027293223
v 0.007501000283799131 0.028500001353677362 0.574625027293223
v -0.007499000428662639 0.028500001353677362 0.5764327056017393
v -0.007499000428662639 0.028500001353677362 0.5764327056017393
v 0.007501000283799131 0.028500001353677362 0.574625027293223
v 0.007501000283799131 0.028500001353677362 0.5764327056017393
v -0.007499000428662639 0.028500001353677362 0.5764327056017393
v 0.007501000283799131 0.028500001353677362 0.5764327056017393
v -0.0074847019889576205 0.028500001353677362 0.5765514189862841
v -0.0074847019889576205 0.028500001353677362 0.5765514189862841
v 0.007501000283799131 0.028500001353677362 0.5764327056017393
v 0.0074867018440941124 0.028500001353677362 0.5765514189862841
v -0.0074847019889576205 0.028500001353677362 0.5765514189862841
v 0.0074867018440941124 0.028500001353677362 0.5765514189862841
v -0.007442624445607726 0.028500001353677362 0.5766633574681634
v -0.007442624445607726 0.028500001353677362 0.5766633574681634
v 0.0074867018440941124 0.028500001353677362 0.5765514189862841
v 0.007444624300744218 0.028500001353677362 0.5766633574681634
v -0.007442624445607726 0.028500001353677362 0.5766633574681634
v 0.007444624300744218 0.028500001353677362 0.5766633574681634
v -0.007375174395864714 0.028500001353677362 0.5767620513205074
v -0.007375174395864714 0.028500001353677362 0.5767620513205074
v 0.007444624300744218 0.028500001353677362 0.5766633574681634
v 0.007377174727838387 0.028500001353677362 0.5767620513205074
v -0.007375174395864714 0.028500001353677362 0.5767620513205074
v 0.007377174727838387 0.028500001353677362 0.5767620513205074
v -0.007286209929358856 0.028500001353677362 0.5768419463438335
v -0.007286209929358856 0.028500001353677362 0.5768419463438335
v 0.007377174727838387 0.028500001353677362 0.5767620513205074
v 0.0072882097844953475 0.028500001353677362 0.5768419463438335
v -0.007286209929358856 0.028500001353677362 0.5768419463438335
v 0.0072882097844953475 0.028500001353677362 0.5768419463438335
v -0.007180818421972657 0.028500001353677362 0.5768984649012054
v -0.007180818421972657 0.028500001353677362 0.5768984649012054
v 0.0072882097844953475 0.028500001353677362 0.5768419463438335
v 0.00670055945751119 0.028500001353677362 0.5771189849312108
v -0.007180818421972657 0.028500001353677362 0.5768984649012054
v 0.00670055945751119 0.028500001353677362 0.5771189849312108
v -0.003990760515936442 0.028500001353677362 0.5778688628965156
v -0.003990760515936442 0.028500001353677362 0.5778688628965156
v 0.00670055945751119 0.028500001353677362 0.5771189849312108
v 0.0013184148699409842 0.028500001353677362 0.5782779205331323
v 0.007513275980182976 0.028500001353677362 0.5745149198661181
v -0.007511276125046484 0.028500001353677362 0.5745149198661181
v 0.007549500823975097 0.028500001353677362 0.5744102445681776
v 0.007549500823975097 0.028500001353677362 0.5744102445681776
v -0.007511276125046484 0.028500001353677362 0.5745149198661181
v -0.007547500968838605 0.028500001353677362 0.5744102445681776
v 0.007549500823975097 0.028500001353677362 0.5744102445681776
v -0.007547500968838605 0.028500001353677362 0.5744102445681776
v 0.007607895735653736 0.028500001353677362 0.5743160673176106
v 0.007607895735653736 0.028500001353677362 0.5743160673176106
v -0.007547500968838605 0.028500001353677362 0.5744102445681776
v -0.007605895403680063 0.028500001353677362 0.5743160673176106
v 0.007607895735653736 0.028500001353677362 0.5743160673176106
v -0.007605895403680063 0.028500001353677362 0.5743160673176106
v 0.00768559301641325 0.028500001353677362 0.5742370878216718
v 0.00768559301641325 0.028500001353677362 0.5742370878216718
v -0.007605895403680063 0.028500001353677362 0.5743160673176106
v -0.007641004925306172 0.028500001353677362 0.5742729764952514
v 0.00768559301641325 0.028500001353677362 0.5742370878216718
v -0.007641004925306172 0.028500001353677362 0.5742729764952514
v 0.009659501534546311 0.028500001353677362 0.5730574613007988
v 0.009659501534546311 0.028500001353677362 0.5730574613007988
v -0.007641004925306172 0.028500001353677362 0.5742729764952514
v -0.011235941466906096 0.028500001353677362 0.5720229763883822
v 0.009659501534546311 0.028500001353677362 0.5730574613007988
v -0.011235941466906096 0.028500001353677362 0.5720229763883822
v 0.012371732345743403 0.028500001353677362 0.5709221462579706
v 0.012371732345743403 0.028500001353677362 0.5709221462579706
v -0.011235941466906096 0.028500001353677362 0.5720229763883822
v 0.015055043935596202 0.028500001353677362 0.567484218848584
v 0.015055043935596202 0.028500001353677362 0.567484218848584
v -0.011235941466906096 0.028500001353677362 0.5720229763883822
v 0.01680664905266749 0.028500001353677362 0.5634906273503049
v 0.01680664905266749 0.028500001353677362 0.5634906273503049
v -0.011235941466906096 0.028500001353677362 0.5720229763883822
v 0.017518364784714358 0.028500001353677362 0.5591882589818908
v 0.017518364784714358 0.028500001353677362 0.5591882589818908
v -0.011235941466906096 0.028500001353677362 0.5720229763883822
v 0.017146136144597923 0.028500001353677362 0.5548432880723908
v 0.017146136144597923 0.028500001353677362 0.5548432880723908
v -0.011235941466906096 0.028500001353677362 0.5720229763883822
v 0.01571300581224566 0.028500001353677362 0.5507246965681745
v 0.01571300581224566 0.028500001353677362 0.5507246965681745
v -0.011235941466906096 0.028500001353677362 0.5720229763883822
v 0.013307727492129495 0.028500001353677362 0.547087306258689
v 0.013307727492129495 0.028500001353677362 0.547087306258689
v -0.011235941466906096 0.028500001353677362 0.5720229763883822
v 0.010078651906932912 0.028500001353677362 0.5441557875647618
v 0.010078651906932912 0.028500001353677362 0.5441557875647618
v -0.011235941466906096 0.028500001353677362 0.5720229763883822
v 0.0062261951542794125 0.028500001353677362 0.5421121473309753
v 0.0062261951542794125 0.028500001353677362 0.5421121473309753
v -0.011235941466906096 0.028500001353677362 0.5720229763883822
v 0.0019889652481649284 0.028500001353677362 0.5410827283367681
v 0.0019889652481649284 0.028500001353677362 0.5410827283367681
v -0.011235941466906096 0.028500001353677362 0.5720229763883822
v -0.0023716293507750064 0.028500001353677362 0.5411309461124958
v -0.0023716293507750064 0.028500001353677362 0.5411309461124958
v -0.011235941466906096 0.028500001353677362 0.5720229763883822
v -0.00658506138607684 0.028500001353677362 0.5422538709705194
v -0.00658506138607684 0.028500001353677362 0.5422538709705194
v -0.011235941466906096 0.028500001353677362 0.5720229763883822
v -0.01039138366464576 0.028500001353677362 0.5443821059348863
v -0.01039138366464576 0.028500001353677362 0.5443821059348863
v -0.011235941466906096 0.028500001353677362 0.5720229763883822
v -0.015412266509631234 0.028500001353677362 0.5669692652108438
v -0.01039138366464576 0.028500001353677362 0.5443821059348863
v -0.015412266509631234 0.028500001353677362 0.5669692652108438
v -0.014313608849415571 0.028500001353677362 0.5482838395186462
v -0.014313608849415571 0.028500001353677362 0.5482838395186462
v -0.015412266509631234 0.028500001353677362 0.5669692652108438
v -0.016679488020626687 0.028500001353677362 0.5531067767594422
v -0.016679488020626687 0.028500001353677362 0.5531067767594422
v -0.015412266509631234 0.028500001353677362 0.5669692652108438
v -0.01722731099891739 0.028500001353677362 0.5617434348845052
v -0.016679488020626687 0.028500001353677362 0.5531067767594422
v -0.01722731099891739 0.028500001353677362 0.5617434348845052
v -0.017494696494405604 0.028500001353677362 0.5573907735449524
v -0.007458602305863704 0.029000001377426088 0.5767170073730554
v -0.007180818421972657 0.028500001353677362 0.5768984649012054
v -0.004354775158775526 0.029000001377426088 0.5777902496115317
v -0.004354775158775526 0.029000001377426088 0.5777902496115317
v -0.007180818421972657 0.028500001353677362 0.5768984649012054
v -0.003990760515936442 0.028500001353677362 0.5778688628965156
v -0.004354775158775526 0.029000001377426088 0.5777902496115317
v -0.003990760515936442 0.028500001353677362 0.5778688628965156
v -0.0001852021454324098 0.029000001377426088 0.5782750518806523
v -0.0001852021454324098 0.029000001377426088 0.5782750518806523
v -0.003990760515936442 0.028500001353677362 0.5778688628965156
v 0.0013184148699409842 0.028500001353677362 0.5782779205331323
v -0.0001852021454324098 0.029000001377426088 0.5782750518806523
v 0.0013184148699409842 0.028500001353677362 0.5782779205331323
v 0.003992759655817163 0.029000001377426088 0.5778688628965156
v 0.003992759655817163 0.029000001377426088 0.5778688628965156
v 0.0013184148699409842 0.028500001353677362 0.5782779205331323
v 0.00670055945751119 0.028500001353677362 0.5771189849312108
v 0.003992759655817163 0.029000001377426088 0.5778688628965156
v 0.00670055945751119 0.028500001353677362 0.5771189849312108
v 0.0074557718003581686 0.029000001377426088 0.576732388233161
v 0.0074557718003581686 0.029000001377426088 0.576732388233161
v 0.00670055945751119 0.028500001353677362 0.5771189849312108
v 0.0072882097844953475 0.028500001353677362 0.5768419463438335
v 0.0074557718003581686 0.029000001377426088 0.576732388233161
v 0.0072882097844953475 0.028500001353677362 0.5768419463438335
v 0.007377174727838387 0.028500001353677362 0.5767620513205074
v 0.0074557718003581686 0.029000001377426088 0.576732388233161
v 0.007377174727838387 0.028500001353677362 0.5767620513205074
v 0.007444624300744218 0.028500001353677362 0.5766633574681634
v 0.0074557718003581686 0.029000001377426088 0.576732388233161
v 0.007444624300744218 0.028500001353677362 0.5766633574681634
v 0.0074867018440941124 0.028500001353677362 0.5765514189862841
v 0.0074557718003581686 0.029000001377426088 0.576732388233161
v 0.0074867018440941124 0.028500001353677362 0.5765514189862841
v 0.007501000283799131 0.028500001353677362 0.5764327056017393
v 0.007501000283799131 0.028500001353677362 0.5764327056017393
v 0.007501000283799131 0.028500001353677362 0.574625027293223
v 0.0074557718003581686 0.029000001377426088 0.576732388233161
v 0.0074557718003581686 0.029000001377426088 0.576732388233161
v 0.007501000283799131 0.028500001353677362 0.574625027293223
v 0.007501000283799131 0.03450000163866207 0.574625027293223
v 0.0074557718003581686 0.029000001377426088 0.576732388233161
v 0.007501000283799131 0.03450000163866207 0.574625027293223
v 0.007501000283799131 0.03450000163866207 0.5990015543299521
v 0.007501000283799131 0.029000001377426088 0.5990015543299521
v 0.007501000283799131 0.029000001377426088 0.5990005167322465
v 0.007501000283799131 0.03450000163866207 0.5990015543299521
v 0.007501000283799131 0.03450000163866207 0.5990015543299521
v 0.007501000283799131 0.029000001377426088 0.5990005167322465
v 0.0074557718003581686 0.029000001377426088 0.576732388233161
v 0.007513275980182976 0.028500001353677362 0.5745149198661181
v 0.007569641949657091 0.030500001448672265 0.5743893095085895
v 0.007501000283799131 0.028500001353677362 0.574625027293223
v 0.007501000283799131 0.028500001353677362 0.574625027293223
v 0.007569641949657091 0.030500001448672265 0.5743893095085895
v 0.007513275980182976 0.03250000154366717 0.5745149198661181
v 0.007501000283799131 0.028500001353677362 0.574625027293223
v 0.007513275980182976 0.03250000154366717 0.5745149198661181
v 0.007501000283799131 0.03450000163866207 0.574625027293223
v 0.007501000283799131 0.03450000163866207 0.574625027293223
v 0.007513275980182976 0.03250000154366717 0.5745149198661181
v 0.007513275980182976 0.03450000163866207 0.5745149198661181
v 0.007513275980182976 0.03450000163866207 0.5745149198661181
v 0.007513275980182976 0.03250000154366717 0.5745149198661181
v 0.007596387270293881 0.03450000163866207 0.5743245512047324
v 0.007596387270293881 0.03450000163866207 0.5743245512047324
v 0.007569641949657091 0.030500001448672265 0.5743893095085895
v 0.009659501534546311 0.028500001353677362 0.5730574613007988
v 0.009659501534546311 0.028500001353677362 0.5730574613007988
v 0.007569641949657091 0.030500001448672265 0.5743893095085895
v 0.00768559301641325 0.028500001353677362 0.5742370878216718
v 0.00768559301641325 0.028500001353677362 0.5742370878216718
v 0.007569641949657091 0.030500001448672265 0.5743893095085895
v 0.007607895735653736 0.028500001353677362 0.5743160673176106
v 0.007607895735653736 0.028500001353677362 0.5743160673176106
v 0.007569641949657091 0.030500001448672265 0.5743893095085895
v 0.007549500823975097 0.028500001353677362 0.5744102445681776
v 0.007549500823975097 0.028500001353677362 0.5744102445681776
v 0.007569641949657091 0.030500001448672265 0.5743893095085895
v 0.007513275980182976 0.028500001353677362 0.5745149198661181
v 0.007596387270293881 0.03450000163866207 0.5743245512047324
v 0.007513275980182976 0.03250000154366717 0.5745149198661181
v 0.007569641949657091 0.030500001448672265 0.5743893095085895
v -0.0049990003099190106 -0.028057977101725307 0.6530005192971089
v -0.0012897012846309341 -0.028500556392155874 0.6530005192971089
v -0.0049990003099190106 -0.031994214623891626 0.6530350041620281
v -0.0049990003099190106 -0.031994214623891626 0.6530350041620281
v -0.0012897012846309341 -0.028500556392155874 0.6530005192971089
v 0.0050010001650555025 -0.03206405029005044 0.6530387273067362
v 0.0050010001650555025 -0.03206405029005044 0.6530387273067362
v -0.0012897012846309341 -0.028500556392155874 0.6530005192971089
v 0.004987190960298038 -0.028104888343577494 0.6530005192971089
v 0.0050010001650555025 0.028057977101725307 0.6530005192971089
v 0.0012851089849514469 0.02850047628350949 0.6530005192971089
v 0.0050010001650555025 0.031994214623891626 0.6530350041620281
v 0.0050010001650555025 0.031994214623891626 0.6530350041620281
v 0.0012851089849514469 0.02850047628350949 0.6530005192971089
v -0.0049990003099190106 0.03206405029005044 0.6530387273067362
v -0.0049990003099190106 0.03206405029005044 0.6530387273067362
v 0.0012851089849514469 0.02850047628350949 0.6530005192971089
v -0.004985115288049791 0.02810555782297941 0.6530005192971089
v 0.0050010001650555025 0.03406168145793087 0.6539574285222471
v 0.0050010001650555025 0.03184828909510995 0.656086823154638
v 0.0050010001650555025 0.031994214623891626 0.6530350041620281
v 0.0050010001650555025 0.03184828909510995 0.656086823154638
v 0.0050010001650555025 0.028057977101725307 0.6560005194396012
v 0.0050010001650555025 0.031994214623891626 0.6530350041620281
v 0.0050010001650555025 0.031994214623891626 0.6530350041620281
v 0.0050010001650555025 0.028057977101725307 0.6560005194396012
v 0.0050010001650555025 0.028057977101725307 0.6530005192971089
v 0.0050010001650555025 -0.028057977101725307 0.6560005194396012
v 0.0050010001650555025 -0.03188365515513936 0.6561162421013478
v 0.004987190960298038 -0.028104888343577494 0.6530005192971089
v 0.004987190960298038 -0.028104888343577494 0.6530005192971089
v 0.0050010001650555025 -0.03188365515513936 0.6561162421013478
v 0.0050010001650555025 -0.03206405029005044 0.6530387273067362
v 0.0050010001650555025 -0.03206405029005044 0.6530387273067362
v 0.0050010001650555025 -0.03188365515513936 0.6561162421013478
v 0.0050010001650555025 -0.03406091851844151 0.653997101375694
v -0.0049990003099190106 -0.03406168145793087 0.6539574285222471
v -0.0049990003099190106 -0.03184828909510995 0.656086823154638
v -0.0049990003099190106 -0.031994214623891626 0.6530350041620281
v -0.0049990003099190106 -0.03184828909510995 0.656086823154638
v -0.005011392831412165 -0.0281476778048384 0.6560005194396012
v -0.0049990003099190106 -0.031994214623891626 0.6530350041620281
v -0.0049990003099190106 -0.031994214623891626 0.6530350041620281
v -0.005011392831412165 -0.0281476778048384 0.6560005194396012
v -0.0049990003099190106 -0.028057977101725307 0.6530005192971089
v -0.0049990003099190106 0.028057977101725307 0.6560005194396012
v -0.0049990003099190106 0.03188365515513936 0.6561162421013478
v -0.004985115288049791 0.02810555782297941 0.6530005192971089
v -0.004985115288049791 0.02810555782297941 0.6530005192971089
v -0.0049990003099190106 0.03188365515513936 0.6561162421013478
v -0.0049990003099190106 0.03206405029005044 0.6530387273067362
v -0.0049990003099190106 0.03206405029005044 0.6530387273067362
v -0.0049990003099190106 0.03188365515513936 0.6561162421013478
v -0.0049990003099190106 0.03406091851844151 0.653997101375694
v 0.0050010001650555025 -0.08405797976158258 0.6690005200570681
v 0.0050010001650555025 0.03682592566881526 0.6645005198433296
v 0.0050010001650555025 0.08405797976158258 0.6690005200570681
v 0.0050010001650555025 0.08405797976158258 0.6690005200570681
v 0.0050010001650555025 0.03682592566881526 0.6645005198433296
v 0.0050010001650555025 0.040372945795785764 0.6644125681789959
v 0.0050010001650555025 0.08405797976158258 0.6690005200570681
v 0.0050010001650555025 0.040372945795785764 0.6644125681789959
v 0.0050010001650555025 0.08405797976158258 0.6645005198433296
v 0.0050010001650555025 -0.08405797976158258 0.6645005198433296
v 0.0050010001650555025 -0.04086738017595959 0.6645005198433296
v 0.0050010001650555025 -0.08405797976158258 0.6690005200570681
v 0.0050010001650555025 -0.08405797976158258 0.6690005200570681
v 0.0050010001650555025 -0.04086738017595959 0.6645005198433296
v 0.0050010001650555025 -0.03682592566881526 0.6645005198433296
v 0.0050010001650555025 -0.08405797976158258 0.6690005200570681
v 0.0050010001650555025 -0.03682592566881526 0.6645005198433296
v 0.0050010001650555025 0.03682592566881526 0.6645005198433296
v 0.0050010001650555025 -0.04086738017595959 0.6645005198433296
v 0.0050010001650555025 -0.04048287774680803 0.6644289256016478
v 0.0050010001650555025 -0.03682592566881526 0.6645005198433296
v 0.0050010001650555025 -0.03682592566881526 0.6645005198433296
v 0.0050010001650555025 -0.04048287774680803 0.6644289256016478
v 0.0050010001650555025 -0.04028940392170055 0.6643225413192511
v 0.0050010001650555025 -0.04028940392170055 0.6643225413192511
v 0.0050010001650555025 -0.040001352302794224 0.6640005198195809
v 0.0050010001650555025 -0.03682592566881526 0.6645005198433296
v 0.0050010001650555025 -0.03682592566881526 0.6645005198433296
v 0.0050010001650555025 -0.040001352302794224 0.6640005198195809
v 0.0050010001650555025 -0.03188365515513936 0.6561162421013478
v 0.0050010001650555025 -0.03188365515513936 0.6561162421013478
v 0.0050010001650555025 -0.040001352302794224 0.6640005198195809
v 0.0050010001650555025 -0.03406091851844151 0.653997101375694
v 0.0050010001650555025 0.03184828909510995 0.656086823154638
v 0.0050010001650555025 0.040372945795785764 0.6644125681789959
v 0.0050010001650555025 0.03682592566881526 0.6645005198433296
v 0.0050010001650555025 0.03184828909510995 0.656086823154638
v 0.0050010001650555025 0.03406168145793087 0.6539574285222471
v 0.0050010001650555025 0.040372945795785764 0.6644125681789959
v 0.0050010001650555025 0.08405797976158258 0.6690005200570681
v 0.0050010001650555025 0.08405797976158258 0.6645005198433296
v -0.0049990003099190106 0.08405797976158258 0.6690005200570681
v -0.0049990003099190106 0.08405797976158258 0.6690005200570681
v 0.0050010001650555025 0.08405797976158258 0.6645005198433296
v -0.0049990003099190106 0.08405797976158258 0.6645005198433296
v 0.0050010001650555025 0.08405797976158258 0.6645005198433296
v 0.0050010001650555025 0.040372945795785764 0.6644125681789959
v -0.0049990003099190106 0.08405797976158258 0.6645005198433296
v -0.0049990003099190106 0.08405797976158258 0.6645005198433296
v 0.0050010001650555025 0.040372945795785764 0.6644125681789959
v -0.0049990003099190106 0.0403298091970572 0.664396638002458
v 0.0050010001650555025 0.040372945795785764 0.6644125681789959
v 0.0050010001650555025 0.03406168145793087 0.6539574285222471
v -0.0049990003099190106 0.0403298091970572 0.664396638002458
v -0.0049990003099190106 0.0403298091970572 0.664396638002458
v 0.0050010001650555025 0.03406168145793087 0.6539574285222471
v -0.0049990003099190106 0.03406091851844151 0.653997101375694
v -0.0049990003099190106 -0.08405797976158258 0.6645005198433296
v -0.0049990003099190106 -0.04086738017595959 0.6645005198433296
v 0.0050010001650555025 -0.08405797976158258 0.6645005198433296
v 0.0050010001650555025 -0.08405797976158258 0.6645005198433296
v -0.0049990003099190106 -0.04086738017595959 0.6645005198433296
v 0.0050010001650555025 -0.04086738017595959 0.6645005198433296
v -0.0049990003099190106 -0.040001352302794224 0.6640005198195809
v -0.0049990003099190106 -0.03406168145793087 0.6539574285222471
v 0.0050010001650555025 -0.040001352302794224 0.6640005198195809
v 0.0050010001650555025 -0.040001352302794224 0.6640005198195809
v -0.0049990003099190106 -0.03406168145793087 0.6539574285222471
v 0.0050010001650555025 -0.03406091851844151 0.653997101375694
v -0.0049990003099190106 -0.040001352302794224 0.6640005198195809
v 0.0050010001650555025 -0.040001352302794224 0.6640005198195809
v 9.999993965029407e-07 -0.04016027259842847 0.6642076121145735
v 9.999993965029407e-07 -0.04016027259842847 0.6642076121145735
v 0.0050010001650555025 -0.040001352302794224 0.6640005198195809
v 0.0050010001650555025 -0.04028940392170055 0.6643225413192511
v 0.0050010001650555025 -0.04028940392170055 0.6643225413192511
v 0.0050010001650555025 -0.04048287774680803 0.6644289256016478
v 9.999993965029407e-07 -0.040608560583588194 0.6644664622245244
v 9.999993965029407e-07 -0.040608560583588194 0.6644664622245244
v 0.0050010001650555025 -0.04048287774680803 0.6644289256016478
v 0.0050010001650555025 -0.04086738017595959 0.6645005198433296
v 0.0050010001650555025 -0.04086738017595959 0.6645005198433296
v -0.0049990003099190106 -0.04086738017595959 0.6645005198433296
v 9.999993965029407e-07 -0.040608560583588194 0.6644664622245244
v 9.999993965029407e-07 -0.040608560583588194 0.6644664622245244
v -0.0049990003099190106 -0.04086738017595959 0.6645005198433296
v -0.0049990003099190106 -0.04045996667394247 0.6644220896638231
v 9.999993965029407e-07 -0.040608560583588194 0.6644664622245244
v -0.0049990003099190106 -0.04045996667394247 0.6644220896638231
v 0.0050010001650555025 -0.04028940392170055 0.6643225413192511
v 0.0050010001650555025 -0.04028940392170055 0.6643225413192511
v -0.0049990003099190106 -0.04045996667394247 0.6644220896638231
v 9.999993965029407e-07 -0.04016027259842847 0.6642076121145735
v 9.999993965029407e-07 -0.04016027259842847 0.6642076121145735
v -0.0049990003099190106 -0.04045996667394247 0.6644220896638231
v -0.0049990003099190106 -0.04016027259842847 0.6642076121145735
v 9.999993965029407e-07 -0.04016027259842847 0.6642076121145735
v -0.0049990003099190106 -0.04016027259842847 0.6642076121145735
v -0.0049990003099190106 -0.040001352302794224 0.6640005198195809
v -0.0049990003099190106 -0.031994214623891626 0.6530350041620281
v 0.0050010001650555025 -0.03206405029005044 0.6530387273067362
v -0.0049990003099190106 -0.03406168145793087 0.6539574285222471
v -0.0049990003099190106 -0.03406168145793087 0.6539574285222471
v 0.0050010001650555025 -0.03206405029005044 0.6530387273067362
v 0.0050010001650555025 -0.03406091851844151 0.653997101375694
v 0.0050010001650555025 0.031994214623891626 0.6530350041620281
v -0.0049990003099190106 0.03206405029005044 0.6530387273067362
v 0.0050010001650555025 0.03406168145793087 0.6539574285222471
v 0.0050010001650555025 0.03406168145793087 0.6539574285222471
v -0.0049990003099190106 0.03206405029005044 0.6530387273067362
v -0.0049990003099190106 0.03406091851844151 0.653997101375694
v -0.0049990003099190106 0.03682592566881526 0.6645005198433296
v -0.0049990003099190106 0.03188365515513936 0.6561162421013478
v 0.0050010001650555025 0.03682592566881526 0.6645005198433296
v 0.0050010001650555025 0.03682592566881526 0.6645005198433296
v -0.0049990003099190106 0.03188365515513936 0.6561162421013478
v 0.0050010001650555025 0.03184828909510995 0.656086823154638
v -0.0049990003099190106 -0.03184828909510995 0.656086823154638
v -0.0049990003099190106 -0.03682592566881526 0.6645005198433296
v 0.0050010001650555025 -0.03188365515513936 0.6561162421013478
v 0.0050010001650555025 -0.03188365515513936 0.6561162421013478
v -0.0049990003099190106 -0.03682592566881526 0.6645005198433296
v 0.0050010001650555025 -0.03682592566881526 0.6645005198433296
v -0.0049990003099190106 0.03188365515513936 0.6561162421013478
v -0.0049990003099190106 0.028057977101725307 0.6560005194396012
v 0.0050010001650555025 0.03184828909510995 0.656086823154638
v 0.0050010001650555025 0.03184828909510995 0.656086823154638
v -0.0049990003099190106 0.028057977101725307 0.6560005194396012
v 0.0050010001650555025 0.028057977101725307 0.6560005194396012
v 0.0050010001650555025 0.028057977101725307 0.6560005194396012
v -0.0049990003099190106 0.028057977101725307 0.6560005194396012
v -0.005011392831412165 -0.0281476778048384 0.6560005194396012
v 0.0050010001650555025 0.028057977101725307 0.6560005194396012
v -0.005011392831412165 -0.0281476778048384 0.6560005194396012
v 0.0050010001650555025 -0.028057977101725307 0.6560005194396012
v 0.0050010001650555025 -0.028057977101725307 0.6560005194396012
v -0.005011392831412165 -0.0281476778048384 0.6560005194396012
v -0.0049990003099190106 -0.03184828909510995 0.656086823154638
v 0.0050010001650555025 -0.028057977101725307 0.6560005194396012
v -0.0049990003099190106 -0.03184828909510995 0.656086823154638
v 0.0050010001650555025 -0.03188365515513936 0.6561162421013478
v -0.005011392831412165 -0.0281476778048384 0.6560005194396012
v -0.0049990003099190106 0.028057977101725307 0.6560005194396012
v -0.008889685099361389 0.027121720648564107 0.6560005194396012
v -0.005011392831412165 -0.0281476778048384 0.6560005194396012
v -0.008889685099361389 0.027121720648564107 0.6560005194396012
v -0.01168491800495497 -0.026029626175305687 0.6560005194396012
v -0.01168491800495497 -0.026029626175305687 0.6560005194396012
v -0.008889685099361389 0.027121720648564107 0.6560005194396012
v -0.01277541125896009 0.025475741642772 0.6560005194396012
v -0.01168491800495497 -0.026029626175305687 0.6560005194396012
v -0.01277541125896009 0.025475741642772 0.6560005194396012
v -0.01646390802381492 -0.023302138481670065 0.6560005194396012
v -0.01646390802381492 -0.023302138481670065 0.6560005194396012
v -0.01277541125896009 0.025475741642772 0.6560005194396012
v -0.017606879116921492 0.022522120591838002 0.6560005194396012
v -0.01646390802381492 -0.023302138481670065 0.6560005194396012
v -0.017606879116921492 0.022522120591838002 0.6560005194396012
v -0.02164771945777688 -0.018669424943756896 0.6560005194396012
v -0.02164771945777688 -0.018669424943756896 0.6560005194396012
v -0.017606879116921492 0.022522120591838002 0.6560005194396012
v -0.023315739785416678 0.01654025919321289 0.6560005194396012
v -0.02164771945777688 -0.018669424943756896 0.6560005194396012
v -0.023315739785416678 0.01654025919321289 0.6560005194396012
v -0.02539812590117041 -0.012996453902515692 0.6560005194396012
v -0.02539812590117041 -0.012996453902515692 0.6560005194396012
v -0.023315739785416678 0.01654025919321289 0.6560005194396012
v -0.027073010776865747 0.009176480729133352 0.6560005194396012
v -0.02539812590117041 -0.012996453902515692 0.6560005194396012
v -0.027073010776865747 0.009176480729133352 0.6560005194396012
v -0.027743089086280648 -0.006804934824864994 0.6560005194396012
v -0.027743089086280648 -0.006804934824864994 0.6560005194396012
v -0.027073010776865747 0.009176480729133352 0.6560005194396012
v -0.028565829680168298 0.0010477117797669938 0.6560005194396012
v 0.0050010001650555025 0.028057977101725307 0.6560005194396012
v 0.0050010001650555025 -0.028057977101725307 0.6560005194396012
v 0.008891683047149157 0.027121720648564107 0.6560005194396012
v 0.008891683047149157 0.027121720648564107 0.6560005194396012
v 0.0050010001650555025 -0.028057977101725307 0.6560005194396012
v 0.010204000957686477 -0.02672462018109445 0.6560005194396012
v 0.008891683047149157 0.027121720648564107 0.6560005194396012
v 0.010204000957686477 -0.02672462018109445 0.6560005194396012
v 0.012777411114096582 0.025475741642772 0.6560005194396012
v 0.012777411114096582 0.025475741642772 0.6560005194396012
v 0.010204000957686477 -0.02672462018109445 0.6560005194396012
v 0.016430596178360624 0.02332776180442031 0.6560005194396012
v 0.016430596178360624 0.02332776180442031 0.6560005194396012
v 0.010204000957686477 -0.02672462018109445 0.6560005194396012
v 0.017656773452177088 -0.022483676070969016 0.6560005194396012
v 0.016430596178360624 0.02332776180442031 0.6560005194396012
v 0.017656773452177088 -0.022483676070969016 0.6560005194396012
v 0.021611123157820877 0.018715367252457593 0.6560005194396012
v 0.021611123157820877 0.018715367252457593 0.6560005194396012
v 0.017656773452177088 -0.022483676070969016 0.6560005194396012
v 0.023351235545159277 -0.016491389104221765 0.6560005194396012
v 0.021611123157820877 0.018715367252457593 0.6560005194396012
v 0.023351235545159277 -0.016491389104221765 0.6560005194396012
v 0.02606247072032275 0.011748362145541646 0.6560005194396012
v 0.02606247072032275 0.011748362145541646 0.6560005194396012
v 0.023351235545159277 -0.016491389104221765 0.6560005194396012
v 0.026534051248092716 -0.01048841716992599 0.6560005194396012
v 0.02606247072032275 0.011748362145541646 0.6560005194396012
v 0.026534051248092716 -0.01048841716992599 0.6560005194396012
v 0.028333505068913745 0.003800992430979949 0.6560005194396012
v 0.028333505068913745 0.003800992430979949 0.6560005194396012
v 0.026534051248092716 -0.01048841716992599 0.6560005194396012
v 0.028270909698508984 -0.004104503826545258 0.6560005194396012
v -0.0049990003099190106 -0.03682592566881526 0.6645005198433296
v -0.0049990003099190106 0.03682592566881526 0.6645005198433296
v 0.0050010001650555025 -0.03682592566881526 0.6645005198433296
v 0.0050010001650555025 -0.03682592566881526 0.6645005198433296
v -0.0049990003099190106 0.03682592566881526 0.6645005198433296
v 0.0050010001650555025 0.03682592566881526 0.6645005198433296
v -0.007499000428662639 0.029000001377426088 0.5990005167322465
v -0.0001852021454324098 0.029000001377426088 0.5782750518806523
v 0.007501000283799131 0.029000001377426088 0.5990005167322465
v 0.007501000283799131 0.029000001377426088 0.5990005167322465
v -0.0001852021454324098 0.029000001377426088 0.5782750518806523
v 0.003992759655817163 0.029000001377426088 0.5778688628965156
v -0.007499000428662639 0.029000001377426088 0.5990005167322465
v -0.007458602305863704 0.029000001377426088 0.5767170073730554
v -0.004354775158775526 0.029000001377426088 0.5777902496115317
v -0.007499000428662639 0.029000001377426088 0.5990005167322465
v -0.004354775158775526 0.029000001377426088 0.5777902496115317
v -0.0001852021454324098 0.029000001377426088 0.5782750518806523
v 0.003992759655817163 0.029000001377426088 0.5778688628965156
v 0.0074557718003581686 0.029000001377426088 0.576732388233161
v 0.007501000283799131 0.029000001377426088 0.5990005167322465
v 0.007596387270293881 0.03450000163866207 0.5743245512047324
v 0.009659501534546311 0.028500001353677362 0.5730574613007988
v 0.012846993102875182 0.03450000163866207 0.5705117458478526
v 0.012846993102875182 0.03450000163866207 0.5705117458478526
v 0.009659501534546311 0.028500001353677362 0.5730574613007988
v 0.012371732345743403 0.028500001353677362 0.5709221462579706
v 0.012846993102875182 0.03450000163866207 0.5705117458478526
v 0.012371732345743403 0.028500001353677362 0.5709221462579706
v 0.015055043935596202 0.028500001353677362 0.567484218848584
v 0.012846993102875182 0.03450000163866207 0.5705117458478526
v 0.015055043935596202 0.028500001353677362 0.567484218848584
v 0.01589585665863813 0.03450000163866207 0.565895412620776
v 0.01589585665863813 0.03450000163866207 0.565895412620776
v 0.015055043935596202 0.028500001353677362 0.567484218848584
v 0.01680664905266749 0.028500001353677362 0.5634906273503049
v 0.01589585665863813 0.03450000163866207 0.565895412620776
v 0.01680664905266749 0.028500001353677362 0.5634906273503049
v 0.017443007344001282 0.03450000163866207 0.5607510031967422
v 0.017443007344001282 0.03450000163866207 0.5607510031967422
v 0.01680664905266749 0.028500001353677362 0.5634906273503049
v 0.017518364784714358 0.028500001353677362 0.5591882589818908
v 0.017443007344001282 0.03450000163866207 0.5607510031967422
v 0.017518364784714358 0.028500001353677362 0.5591882589818908
v 0.017059077119466748 0.03450000163866207 0.5542214618709806
v 0.017059077119466748 0.03450000163866207 0.5542214618709806
v 0.017518364784714358 0.028500001353677362 0.5591882589818908
v 0.017146136144597923 0.028500001353677362 0.5548432880723908
v 0.017059077119466748 0.03450000163866207 0.5542214618709806
v 0.017146136144597923 0.028500001353677362 0.5548432880723908
v 0.01571300581224566 0.028500001353677362 0.5507246965681745
v 0.017059077119466748 0.03450000163866207 0.5542214618709806
v 0.01571300581224566 0.028500001353677362 0.5507246965681745
v 0.014315609658226425 0.03450000163866207 0.5482838395186462
v 0.014315609658226425 0.03450000163866207 0.5482838395186462
v 0.01571300581224566 0.028500001353677362 0.5507246965681745
v 0.013307727492129495 0.028500001353677362 0.547087306258689
v 0.014315609658226425 0.03450000163866207 0.5482838395186462
v 0.013307727492129495 0.028500001353677362 0.547087306258689
v 0.010393387334479698 0.03450000163866207 0.5443821059348863
v 0.010393387334479698 0.03450000163866207 0.5443821059348863
v 0.013307727492129495 0.028500001353677362 0.547087306258689
v 0.010078651906932912 0.028500001353677362 0.5441557875647618
v 0.010393387334479698 0.03450000163866207 0.5443821059348863
v 0.010078651906932912 0.028500001353677362 0.5441557875647618
v 0.0065870602875389705 0.03450000163866207 0.5422538709705194
v 0.0065870602875389705 0.03450000163866207 0.5422538709705194
v 0.010078651906932912 0.028500001353677362 0.5441557875647618
v 0.0062261951542794125 0.028500001353677362 0.5421121473309753
v 0.0065870602875389705 0.03450000163866207 0.5422538709705194
v 0.0062261951542794125 0.028500001353677362 0.5421121473309753
v 0.002373628967492908 0.03450000163866207 0.5411309461124958
v 0.002373628967492908 0.03450000163866207 0.5411309461124958
v 0.0062261951542794125 0.028500001353677362 0.5421121473309753
v 0.0019889652481649284 0.028500001353677362 0.5410827283367681
v 0.002373628967492908 0.03450000163866207 0.5411309461124958
v 0.0019889652481649284 0.028500001353677362 0.5410827283367681
v -0.001089413575418377 0.03450000163866207 0.5410345105610403
v -0.001089413575418377 0.03450000163866207 0.5410345105610403
v 0.0019889652481649284 0.028500001353677362 0.5410827283367681
v -0.0023716293507750064 0.028500001353677362 0.5411309461124958
v -0.001089413575418377 0.03450000163866207 0.5410345105610403
v -0.0023716293507750064 0.028500001353677362 0.5411309461124958
v -0.005130081897260774 0.03450000163866207 0.5416791028768131
v -0.005130081897260774 0.03450000163866207 0.5416791028768131
v -0.0023716293507750064 0.028500001353677362 0.5411309461124958
v -0.00658506138607684 0.028500001353677362 0.5422538709705194
v -0.005130081897260774 0.03450000163866207 0.5416791028768131
v -0.00658506138607684 0.028500001353677362 0.5422538709705194
v -0.010076649190773335 0.03450000163866207 0.5441557875647618
v -0.010076649190773335 0.03450000163866207 0.5441557875647618
v -0.00658506138607684 0.028500001353677362 0.5422538709705194
v -0.01039138366464576 0.028500001353677362 0.5443821059348863
v -0.010076649190773335 0.03450000163866207 0.5441557875647618
v -0.01039138366464576 0.028500001353677362 0.5443821059348863
v -0.01330572572964428 0.03450000163866207 0.547087306258689
v -0.01330572572964428 0.03450000163866207 0.547087306258689
v -0.01039138366464576 0.028500001353677362 0.5443821059348863
v -0.014313608849415571 0.028500001353677362 0.5482838395186462
v -0.01330572572964428 0.03450000163866207 0.547087306258689
v -0.014313608849415571 0.028500001353677362 0.5482838395186462
v -0.016184813314513713 0.03450000163866207 0.5516224627240973
v -0.016184813314513713 0.03450000163866207 0.5516224627240973
v -0.014313608849415571 0.028500001353677362 0.5482838395186462
v -0.016679488020626687 0.028500001353677362 0.5531067767594422
v -0.016184813314513713 0.03450000163866207 0.5516224627240973
v -0.016679488020626687 0.028500001353677362 0.5531067767594422
v -0.017465880269892375 0.03450000163866207 0.5570041768469025
v -0.017465880269892375 0.03450000163866207 0.5570041768469025
v -0.016679488020626687 0.028500001353677362 0.5531067767594422
v -0.017494696494405604 0.028500001353677362 0.5573907735449524
v -0.017465880269892375 0.03450000163866207 0.5570041768469025
v -0.017494696494405604 0.028500001353677362 0.5573907735449524
v -0.017294806348192582 0.03450000163866207 0.5613616599640281
v -0.017294806348192582 0.03450000163866207 0.5613616599640281
v -0.017494696494405604 0.028500001353677362 0.5573907735449524
v -0.01722731099891739 0.028500001353677362 0.5617434348845052
v -0.017294806348192582 0.03450000163866207 0.5613616599640281
v -0.01722731099891739 0.028500001353677362 0.5617434348845052
v -0.01605348663286099 0.03450000163866207 0.5655421411196215
v -0.01605348663286099 0.03450000163866207 0.5655421411196215
v -0.01722731099891739 0.028500001353677362 0.5617434348845052
v -0.015412266509631234 0.028500001353677362 0.5669692652108438
v -0.01605348663286099 0.03450000163866207 0.5655421411196215
v -0.015412266509631234 0.028500001353677362 0.5669692652108438
v -0.013215146692444057 0.03450000163866207 0.5701031764925091
v -0.013215146692444057 0.03450000163866207 0.5701031764925091
v -0.015412266509631234 0.028500001353677362 0.5669692652108438
v -0.011235941466906096 0.028500001353677362 0.5720229763883822
v -0.013215146692444057 0.03450000163866207 0.5701031764925091
v -0.011235941466906096 0.028500001353677362 0.5720229763883822
v -0.007658935433817737 0.03450000163866207 0.574294094660317
v -0.007499000428662639 0.028500001353677362 0.5764327056017393
v -0.007458602305863704 0.029000001377426088 0.5767170073730554
v -0.007499000428662639 0.028500001353677362 0.574625027293223
v -0.007499000428662639 0.028500001353677362 0.574625027293223
v -0.007458602305863704 0.029000001377426088 0.5767170073730554
v -0.007499000428662639 0.03450000163866207 0.574625027293223
v -0.007499000428662639 0.03450000163866207 0.574625027293223
v -0.007458602305863704 0.029000001377426088 0.5767170073730554
v -0.007499000428662639 0.03450000163866207 0.5990015543299521
v -0.007499000428662639 0.03450000163866207 0.5990015543299521
v -0.007458602305863704 0.029000001377426088 0.5767170073730554
v -0.007499000428662639 0.029000001377426088 0.5990005167322465
v -0.007499000428662639 0.03450000163866207 0.5990015543299521
v -0.007499000428662639 0.029000001377426088 0.5990005167322465
v -0.007499000428662639 0.029000001377426088 0.5990015543299521
v -0.011235941466906096 0.028500001353677362 0.5720229763883822
v -0.007641004925306172 0.028500001353677362 0.5742729764952514
v -0.007658935433817737 0.03450000163866207 0.574294094660317
v -0.007658935433817737 0.03450000163866207 0.574294094660317
v -0.007567642094520599 0.03250000154366717 0.5743893095085895
v -0.007547500968838605 0.03450000163866207 0.5744102445681776
v -0.007547500968838605 0.03450000163866207 0.5744102445681776
v -0.007567642094520599 0.03250000154366717 0.5743893095085895
v -0.007511276125046484 0.03450000163866207 0.5745149198661181
v -0.007511276125046484 0.03450000163866207 0.5745149198661181
v -0.007567642094520599 0.03250000154366717 0.5743893095085895
v -0.007499000428662639 0.03450000163866207 0.574625027293223
v -0.007499000428662639 0.03450000163866207 0.574625027293223
v -0.007567642094520599 0.03250000154366717 0.5743893095085895
v -0.007529388785361135 0.030500001448672265 0.5744625516995683
v -0.007499000428662639 0.03450000163866207 0.574625027293223
v -0.007529388785361135 0.030500001448672265 0.5744625516995683
v -0.007499000428662639 0.028500001353677362 0.574625027293223
v -0.007499000428662639 0.028500001353677362 0.574625027293223
v -0.007529388785361135 0.030500001448672265 0.5744625516995683
v -0.007511276125046484 0.028500001353677362 0.5745149198661181
v -0.007511276125046484 0.028500001353677362 0.5745149198661181
v -0.007529388785361135 0.030500001448672265 0.5744625516995683
v -0.007547500968838605 0.028500001353677362 0.5744102445681776
v -0.007547500968838605 0.028500001353677362 0.5744102445681776
v -0.007529388785361135 0.030500001448672265 0.5744625516995683
v -0.007605895403680063 0.028500001353677362 0.5743160673176106
v -0.007605895403680063 0.028500001353677362 0.5743160673176106
v -0.007529388785361135 0.030500001448672265 0.5744625516995683
v -0.007641004925306172 0.028500001353677362 0.5742729764952514
v -0.007567642094520599 0.03250000154366717 0.5743893095085895
v -0.007658935433817737 0.03450000163866207 0.574294094660317
v -0.007641004925306172 0.028500001353677362 0.5742729764952514
v -0.007567642094520599 0.03250000154366717 0.5743893095085895
v -0.007641004925306172 0.028500001353677362 0.5742729764952514
v -0.007529388785361135 0.030500001448672265 0.5744625516995683
v 0.00999600076470153 0.029000001377426088 0.6070005171122261
v 0.00999600076470153 0.029000001377426088 0.5990015543299521
v 0.00999600076470153 0.03450000163866207 0.6070005171122261
v 0.00999600076470153 0.03450000163866207 0.6070005171122261
v 0.00999600076470153 0.029000001377426088 0.5990015543299521
v 0.00999600076470153 0.03450000163866207 0.5990015543299521
v 0.007501000283799131 0.029000001377426088 0.5990015543299521
v 0.007501000283799131 0.03450000163866207 0.5990015543299521
v 0.00999600076470153 0.029000001377426088 0.5990015543299521
v 0.00999600076470153 0.029000001377426088 0.5990015543299521
v 0.007501000283799131 0.03450000163866207 0.5990015543299521
v 0.00999600076470153 0.03450000163866207 0.5990015543299521
v -0.007499000428662639 0.03450000163866207 0.5990015543299521
v -0.007499000428662639 0.029000001377426088 0.5990015543299521
v -0.009994000909565037 0.03450000163866207 0.5990015543299521
v -0.009994000909565037 0.03450000163866207 0.5990015543299521
v -0.007499000428662639 0.029000001377426088 0.5990015543299521
v -0.009994000909565037 0.029000001377426088 0.5990015543299521
v -0.009994000909565037 0.029000001377426088 0.6070005171122261
v -0.009994000909565037 0.03450000163866207 0.6070005171122261
v -0.009994000909565037 0.029000001377426088 0.5990015543299521
v -0.009994000909565037 0.029000001377426088 0.5990015543299521
v -0.009994000909565037 0.03450000163866207 0.6070005171122261
v -0.009994000909565037 0.03450000163866207 0.5990015543299521
v -0.007458602305863704 0.029000001377426088 0.5767170073730554
v -0.007499000428662639 0.028500001353677362 0.5764327056017393
v -0.0074847019889576205 0.028500001353677362 0.5765514189862841
v -0.007458602305863704 0.029000001377426088 0.5767170073730554
v -0.0074847019889576205 0.028500001353677362 0.5765514189862841
v -0.007442624445607726 0.028500001353677362 0.5766633574681634
v -0.007458602305863704 0.029000001377426088 0.5767170073730554
v -0.007442624445607726 0.028500001353677362 0.5766633574681634
v -0.007375174395864714 0.028500001353677362 0.5767620513205074
v -0.007458602305863704 0.029000001377426088 0.5767170073730554
v -0.007375174395864714 0.028500001353677362 0.5767620513205074
v -0.007286209929358856 0.028500001353677362 0.5768419463438335
v -0.007458602305863704 0.029000001377426088 0.5767170073730554
v -0.007286209929358856 0.028500001353677362 0.5768419463438335
v -0.007180818421972657 0.028500001353677362 0.5768984649012054
v -0.007499000428662639 0.029000001377426088 0.5990015543299521
v -0.007499000428662639 0.029000001377426088 0.5990005167322465
v -0.009994000909565037 0.029000001377426088 0.5990015543299521
v -0.009994000909565037 0.029000001377426088 0.5990015543299521
v -0.007499000428662639 0.029000001377426088 0.5990005167322465
v -0.009999000070569086 0.029000001377426088 0.5990005167322465
v -0.009994000909565037 0.029000001377426088 0.5990015543299521
v -0.009999000070569086 0.029000001377426088 0.5990005167322465
v -0.009999000070569086 0.029000001377426088 0.6070005171122261
v -0.009999000070569086 0.029000001377426088 0.6070005171122261
v -0.009994000909565037 0.029000001377426088 0.6070005171122261
v -0.009994000909565037 0.029000001377426088 0.5990015543299521
v 0.007501000283799131 0.029000001377426088 0.5990015543299521
v 0.00999600076470153 0.029000001377426088 0.5990015543299521
v 0.007501000283799131 0.029000001377426088 0.5990005167322465
v 0.007501000283799131 0.029000001377426088 0.5990005167322465
v 0.00999600076470153 0.029000001377426088 0.5990015543299521
v 0.01000100087937994 0.029000001377426088 0.5990005167322465
v 0.01000100087937994 0.029000001377426088 0.5990005167322465
v 0.00999600076470153 0.029000001377426088 0.5990015543299521
v 0.01000100087937994 0.029000001377426088 0.6070005171122261
v 0.01000100087937994 0.029000001377426088 0.6070005171122261
v 0.00999600076470153 0.029000001377426088 0.5990015543299521
v 0.00999600076470153 0.029000001377426088 0.6070005171122261
v 0.00999600076470153 0.03450000163866207 0.6070005171122261
v 0.01000100087937994 0.03450000163866207 0.6070005171122261
v 0.00999600076470153 0.029000001377426088 0.6070005171122261
v 0.00999600076470153 0.029000001377426088 0.6070005171122261
v 0.01000100087937994 0.03450000163866207 0.6070005171122261
v 0.01000100087937994 0.029000001377426088 0.6070005171122261
v -0.009994000909565037 0.029000001377426088 0.6070005171122261
v -0.009999000070569086 0.029000001377426088 0.6070005171122261
v -0.009994000909565037 0.03450000163866207 0.6070005171122261
v -0.009994000909565037 0.03450000163866207 0.6070005171122261
v -0.009999000070569086 0.029000001377426088 0.6070005171122261
v -0.009999000070569086 0.03450000163866207 0.6070005171122261
v -0.011999000165563989 0.02585053375957269 0.6080005171597236
v -0.011999000165563989 0.02585053375957269 0.5990005167322465
v -0.01277541125896009 0.025475741642772 0.6560005194396012
v -0.01277541125896009 0.025475741642772 0.6560005194396012
v -0.011999000165563989 0.02585053375957269 0.5990005167322465
v -0.015593533302908913 0.02389478796965827 0.5990005167322465
v -0.01277541125896009 0.025475741642772 0.6560005194396012
v -0.015593533302908913 0.02389478796965827 0.5990005167322465
v -0.017606879116921492 0.022522120591838002 0.6560005194396012
v -0.017606879116921492 0.022522120591838002 0.6560005194396012
v -0.015593533302908913 0.02389478796965827 0.5990005167322465
v -0.020930729906509793 0.01947331711755984 0.5990005167322465
v -0.017606879116921492 0.022522120591838002 0.6560005194396012
v -0.020930729906509793 0.01947331711755984 0.5990005167322465
v -0.023315739785416678 0.01654025919321289 0.6560005194396012
v -0.023315739785416678 0.01654025919321289 0.6560005194396012
v -0.020930729906509793 0.01947331711755984 0.5990005167322465
v -0.025006484265747142 0.013737975773063238 0.5990005167322465
v -0.023315739785416678 0.01654025919321289 0.6560005194396012
v -0.025006484265747142 0.013737975773063238 0.5990005167322465
v -0.027073010776865747 0.009176480729133352 0.6560005194396012
v -0.027073010776865747 0.009176480729133352 0.6560005194396012
v -0.025006484265747142 0.013737975773063238 0.5990005167322465
v -0.02762748086545752 0.007345058790033665 0.5990005167322465
v -0.027073010776865747 0.009176480729133352 0.6560005194396012
v -0.02762748086545752 0.007345058790033665 0.5990005167322465
v -0.028565829680168298 0.0010477117797669938 0.6560005194396012
v -0.028565829680168298 0.0010477117797669938 0.6560005194396012
v -0.02762748086545752 0.007345058790033665 0.5990005167322465
v -0.028458383004532628 0.0015210616118965098 0.5990005167322465
v -0.028565829680168298 0.0010477117797669938 0.6560005194396012
v -0.028458383004532628 0.0015210616118965098 0.5990005167322465
v -0.028414582648448317 -0.002701952108926653 0.5990005167322465
v -0.028565829680168298 0.0010477117797669938 0.6560005194396012
v -0.028414582648448317 -0.002701952108926653 0.5990005167322465
v -0.027743089086280648 -0.006804934824864994 0.6560005194396012
v -0.027743089086280648 -0.006804934824864994 0.6560005194396012
v -0.028414582648448317 -0.002701952108926653 0.5990005167322465
v -0.026840489708692683 -0.009837379922816858 0.5990005167322465
v -0.027743089086280648 -0.006804934824864994 0.6560005194396012
v -0.026840489708692683 -0.009837379922816858 0.5990005167322465
v -0.02539812590117041 -0.012996453902515692 0.6560005194396012
v -0.02539812590117041 -0.012996453902515692 0.6560005194396012
v -0.026840489708692683 -0.009837379922816858 0.5990005167322465
v -0.023653479745916473 -0.015954355997659375 0.5990005167322465
v -0.02539812590117041 -0.012996453902515692 0.6560005194396012
v -0.023653479745916473 -0.015954355997659375 0.5990005167322465
v -0.02164771945777688 -0.018669424943756896 0.6560005194396012
v -0.02164771945777688 -0.018669424943756896 0.6560005194396012
v -0.023653479745916473 -0.015954355997659375 0.5990005167322465
v -0.019062376927753144 -0.021305001317108996 0.5990005167322465
v -0.02164771945777688 -0.018669424943756896 0.6560005194396012
v -0.019062376927753144 -0.021305001317108996 0.5990005167322465
v -0.01646390802381492 -0.023302138481670065 0.6560005194396012
v -0.01646390802381492 -0.023302138481670065 0.6560005194396012
v -0.019062376927753144 -0.021305001317108996 0.5990005167322465
v -0.013353515305583596 -0.025214789634527834 0.5990005167322465
v -0.01646390802381492 -0.023302138481670065 0.6560005194396012
v -0.013353515305583596 -0.025214789634527834 0.5990005167322465
v -0.01168491800495497 -0.026029626175305687 0.6560005194396012
v -0.01168491800495497 -0.026029626175305687 0.6560005194396012
v -0.013353515305583596 -0.025214789634527834 0.5990005167322465
v -0.0081832441402091 -0.027334397660618848 0.5990005167322465
v -0.01168491800495497 -0.026029626175305687 0.6560005194396012
v -0.0081832441402091 -0.027334397660618848 0.5990005167322465
v -0.005011392831412165 -0.0281476778048384 0.6560005194396012
v -0.005011392831412165 -0.0281476778048384 0.6560005194396012
v -0.0081832441402091 -0.027334397660618848 0.5990005167322465
v -0.0049990003099190106 -0.028057977101725307 0.6530005192971089
v -0.0049990003099190106 -0.028057977101725307 0.6530005192971089
v -0.0081832441402091 -0.027334397660618848 0.5990005167322465
v -0.0013711189682847486 -0.0285524172039453 0.5990005167322465
v -0.0049990003099190106 -0.028057977101725307 0.6530005192971089
v -0.0013711189682847486 -0.0285524172039453 0.5990005167322465
v -0.0012897012846309341 -0.028500556392155874 0.6530005192971089
v -0.0012897012846309341 -0.028500556392155874 0.6530005192971089
v -0.0013711189682847486 -0.0285524172039453 0.5990005167322465
v 0.004987190960298038 -0.028104888343577494 0.6530005192971089
v 0.004987190960298038 -0.028104888343577494 0.6530005192971089
v -0.0013711189682847486 -0.0285524172039453 0.5990005167322465
v 0.0054879276974911795 -0.027999856371425658 0.5990005167322465
v 0.004987190960298038 -0.028104888343577494 0.6530005192971089
v 0.0054879276974911795 -0.027999856371425658 0.5990005167322465
v 0.010204000957686477 -0.02672462018109445 0.6560005194396012
v 0.010204000957686477 -0.02672462018109445 0.6560005194396012
v 0.0054879276974911795 -0.027999856371425658 0.5990005167322465
v 0.010823289431620142 -0.026401049914260843 0.5990005167322465
v 0.010204000957686477 -0.02672462018109445 0.6560005194396012
v 0.010823289431620142 -0.026401049914260843 0.5990005167322465
v 0.015759623322394445 -0.023786240753809196 0.5990005167322465
v 0.010204000957686477 -0.02672462018109445 0.6560005194396012
v 0.015759623322394445 -0.023786240753809196 0.5990005167322465
v 0.017656773452177088 -0.022483676070969016 0.6560005194396012
v 0.017656773452177088 -0.022483676070969016 0.6560005194396012
v 0.015759623322394445 -0.023786240753809196 0.5990005167322465
v 0.021055338905958676 -0.019339512789915414 0.5990005167322465
v 0.017656773452177088 -0.022483676070969016 0.6560005194396012
v 0.021055338905958676 -0.019339512789915414 0.5990005167322465
v 0.023351235545159277 -0.016491389104221765 0.6560005194396012
v 0.023351235545159277 -0.016491389104221765 0.6560005194396012
v 0.021055338905958676 -0.019339512789915414 0.5990005167322465
v 0.025752303392968523 -0.012414781206430692 0.5990005167322465
v 0.023351235545159277 -0.016491389104221765 0.6560005194396012
v 0.025752303392968523 -0.012414781206430692 0.5990005167322465
v 0.026534051248092716 -0.01048841716992599 0.6560005194396012
v 0.026534051248092716 -0.01048841716992599 0.6560005194396012
v 0.025752303392968523 -0.012414781206430692 0.5990005167322465
v 0.028016717334140573 -0.005463346740818276 0.5990005167322465
v 0.026534051248092716 -0.01048841716992599 0.6560005194396012
v 0.028016717334140573 -0.005463346740818276 0.5990005167322465
v 0.028270909698508984 -0.004104503826545258 0.6560005194396012
v 0.028270909698508984 -0.004104503826545258 0.6560005194396012
v 0.028016717334140573 -0.005463346740818276 0.5990005167322465
v 0.028530478878928678 0.00033953650418330067 0.5990005167322465
v 0.028270909698508984 -0.004104503826545258 0.6560005194396012
v 0.028530478878928678 0.00033953650418330067 0.5990005167322465
v 0.028333505068913745 0.003800992430979949 0.6560005194396012
v 0.028333505068913745 0.003800992430979949 0.6560005194396012
v 0.028530478878928678 0.00033953650418330067 0.5990005167322465
v 0.028173127558854816 0.0043106009623414265 0.5990005167322465
v 0.028333505068913745 0.003800992430979949 0.6560005194396012
v 0.028173127558854816 0.0043106009623414265 0.5990005167322465
v 0.02720602355478996 0.008600619724608571 0.5990005167322465
v 0.028333505068913745 0.003800992430979949 0.6560005194396012
v 0.02720602355478996 0.008600619724608571 0.5990005167322465
v 0.02606247072032275 0.011748362145541646 0.6560005194396012
v 0.02606247072032275 0.011748362145541646 0.6560005194396012
v 0.02720602355478996 0.008600619724608571 0.5990005167322465
v 0.024320553981092008 0.015029418705497233 0.5990005167322465
v 0.02606247072032275 0.011748362145541646 0.6560005194396012
v 0.024320553981092008 0.015029418705497233 0.5990005167322465
v 0.021611123157820877 0.018715367252457593 0.6560005194396012
v 0.021611123157820877 0.018715367252457593 0.6560005194396012
v 0.024320553981092008 0.015029418705497233 0.5990005167322465
v 0.021000262304221584 0.019268654784840855 0.5990005167322465
v 0.021611123157820877 0.018715367252457593 0.6560005194396012
v 0.021000262304221584 0.019268654784840855 0.5990005167322465
v 0.016745610078821027 0.023172938493843942 0.5990005167322465
v 0.021611123157820877 0.018715367252457593 0.6560005194396012
v 0.016745610078821027 0.023172938493843942 0.5990005167322465
v 0.016430596178360624 0.02332776180442031 0.6560005194396012
v 0.016430596178360624 0.02332776180442031 0.6560005194396012
v 0.016745610078821027 0.023172938493843942 0.5990005167322465
v 0.012777411114096582 0.025475741642772 0.6560005194396012
v 0.012777411114096582 0.025475741642772 0.6560005194396012
v 0.016745610078821027 0.023172938493843942 0.5990005167322465
v 0.012001000974374842 0.02585053375957269 0.5990005167322465
v 0.012777411114096582 0.025475741642772 0.6560005194396012
v 0.012001000974374842 0.02585053375957269 0.5990005167322465
v 0.012001000974374842 0.02585053375957269 0.6080005171597236
v 0.012777411114096582 0.025475741642772 0.6560005194396012
v 0.012001000974374842 0.02585053375957269 0.6080005171597236
v 0.008891683047149157 0.027121720648564107 0.6560005194396012
v 0.008891683047149157 0.027121720648564107 0.6560005194396012
v 0.012001000974374842 0.02585053375957269 0.6080005171597236
v 0.008057804490391174 0.02737168060611528 0.6080005171597236
v 0.008891683047149157 0.027121720648564107 0.6560005194396012
v 0.008057804490391174 0.02737168060611528 0.6080005171597236
v 0.0050010001650555025 0.028057977101725307 0.6530005192971089
v 0.0050010001650555025 0.028057977101725307 0.6530005192971089
v 0.008057804490391174 0.02737168060611528 0.6080005171597236
v 0.0027100209092824346 0.02840223447281298 0.6080005171597236
v 0.0050010001650555025 0.028057977101725307 0.6530005192971089
v 0.0027100209092824346 0.02840223447281298 0.6080005171597236
v 0.0012851089849514469 0.02850047628350949 0.6530005192971089
v 0.0012851089849514469 0.02850047628350949 0.6530005192971089
v 0.0027100209092824346 0.02840223447281298 0.6080005171597236
v -0.0027080210541459426 0.02840223447281298 0.6080005171597236
v 0.0012851089849514469 0.02850047628350949 0.6530005192971089
v -0.0027080210541459426 0.02840223447281298 0.6080005171597236
v -0.004985115288049791 0.02810555782297941 0.6530005192971089
v -0.004985115288049791 0.02810555782297941 0.6530005192971089
v -0.0027080210541459426 0.02840223447281298 0.6080005171597236
v -0.008055806542603405 0.02737168060611528 0.6080005171597236
v -0.004985115288049791 0.02810555782297941 0.6530005192971089
v -0.008055806542603405 0.02737168060611528 0.6080005171597236
v -0.008889685099361389 0.027121720648564107 0.6560005194396012
v -0.008889685099361389 0.027121720648564107 0.6560005194396012
v -0.008055806542603405 0.02737168060611528 0.6080005171597236
v -0.011999000165563989 0.02585053375957269 0.6080005171597236
v -0.008889685099361389 0.027121720648564107 0.6560005194396012
v -0.011999000165563989 0.02585053375957269 0.6080005171597236
v -0.01277541125896009 0.025475741642772 0.6560005194396012
v 0.0050010001650555025 0.028057977101725307 0.6530005192971089
v 0.0050010001650555025 0.028057977101725307 0.6560005194396012
v 0.008891683047149157 0.027121720648564107 0.6560005194396012
v 0.010204000957686477 -0.02672462018109445 0.6560005194396012
v 0.0050010001650555025 -0.028057977101725307 0.6560005194396012
v 0.004987190960298038 -0.028104888343577494 0.6530005192971089
v -0.008889685099361389 0.027121720648564107 0.6560005194396012
v -0.0049990003099190106 0.028057977101725307 0.6560005194396012
v -0.004985115288049791 0.02810555782297941 0.6530005192971089
v 0.01000100087937994 0.03450000163866207 0.5990005167322465
v 0.012001000974374842 0.03450000163866207 0.5990005167322465
v 0.01000100087937994 0.029000001377426088 0.5990005167322465
v 0.01000100087937994 0.029000001377426088 0.5990005167322465
v 0.012001000974374842 0.03450000163866207 0.5990005167322465
v 0.012001000974374842 0.02585053375957269 0.5990005167322465
v 0.01000100087937994 0.029000001377426088 0.5990005167322465
v 0.012001000974374842 0.02585053375957269 0.5990005167322465
v -0.011999000165563989 0.02585053375957269 0.5990005167322465
v -0.011999000165563989 0.02585053375957269 0.5990005167322465
v 0.012001000974374842 0.02585053375957269 0.5990005167322465
v -0.015593533302908913 0.02389478796965827 0.5990005167322465
v -0.015593533302908913 0.02389478796965827 0.5990005167322465
v 0.012001000974374842 0.02585053375957269 0.5990005167322465
v 0.016745610078821027 0.023172938493843942 0.5990005167322465
v -0.015593533302908913 0.02389478796965827 0.5990005167322465
v 0.016745610078821027 0.023172938493843942 0.5990005167322465
v -0.020930729906509793 0.01947331711755984 0.5990005167322465
v -0.020930729906509793 0.01947331711755984 0.5990005167322465
v 0.016745610078821027 0.023172938493843942 0.5990005167322465
v 0.021000262304221584 0.019268654784840855 0.5990005167322465
v -0.020930729906509793 0.01947331711755984 0.5990005167322465
v 0.021000262304221584 0.019268654784840855 0.5990005167322465
v 0.024320553981092008 0.015029418705497233 0.5990005167322465
v -0.020930729906509793 0.01947331711755984 0.5990005167322465
v 0.024320553981092008 0.015029418705497233 0.5990005167322465
v -0.025006484265747142 0.013737975773063238 0.5990005167322465
v -0.025006484265747142 0.013737975773063238 0.5990005167322465
v 0.024320553981092008 0.015029418705497233 0.5990005167322465
v -0.02762748086545752 0.007345058790033665 0.5990005167322465
v -0.02762748086545752 0.007345058790033665 0.5990005167322465
v 0.024320553981092008 0.015029418705497233 0.5990005167322465
v 0.02720602355478996 0.008600619724608571 0.5990005167322465
v -0.02762748086545752 0.007345058790033665 0.5990005167322465
v 0.02720602355478996 0.008600619724608571 0.5990005167322465
v 0.028173127558854816 0.0043106009623414265 0.5990005167322465
v -0.02762748086545752 0.007345058790033665 0.5990005167322465
v 0.028173127558854816 0.0043106009623414265 0.5990005167322465
v -0.028458383004532628 0.0015210616118965098 0.5990005167322465
v -0.028458383004532628 0.0015210616118965098 0.5990005167322465
v 0.028173127558854816 0.0043106009623414265 0.5990005167322465
v -0.028414582648448317 -0.002701952108926653 0.5990005167322465
v -0.028414582648448317 -0.002701952108926653 0.5990005167322465
v 0.028173127558854816 0.0043106009623414265 0.5990005167322465
v -0.026840489708692683 -0.009837379922816858 0.5990005167322465
v -0.026840489708692683 -0.009837379922816858 0.5990005167322465
v 0.028173127558854816 0.0043106009623414265 0.5990005167322465
v 0.028530478878928678 0.00033953650418330067 0.5990005167322465
v -0.026840489708692683 -0.009837379922816858 0.5990005167322465
v 0.028530478878928678 0.00033953650418330067 0.5990005167322465
v -0.023653479745916473 -0.015954355997659375 0.5990005167322465
v -0.023653479745916473 -0.015954355997659375 0.5990005167322465
v 0.028530478878928678 0.00033953650418330067 0.5990005167322465
v -0.019062376927753144 -0.021305001317108996 0.5990005167322465
v -0.019062376927753144 -0.021305001317108996 0.5990005167322465
v 0.028530478878928678 0.00033953650418330067 0.5990005167322465
v -0.013353515305583596 -0.025214789634527834 0.5990005167322465
v -0.013353515305583596 -0.025214789634527834 0.5990005167322465
v 0.028530478878928678 0.00033953650418330067 0.5990005167322465
v -0.0081832441402091 -0.027334397660618848 0.5990005167322465
v -0.0081832441402091 -0.027334397660618848 0.5990005167322465
v 0.028530478878928678 0.00033953650418330067 0.5990005167322465
v -0.0013711189682847486 -0.0285524172039453 0.5990005167322465
v -0.0013711189682847486 -0.0285524172039453 0.5990005167322465
v 0.028530478878928678 0.00033953650418330067 0.5990005167322465
v 0.0054879276974911795 -0.027999856371425658 0.5990005167322465
v 0.0054879276974911795 -0.027999856371425658 0.5990005167322465
v 0.028530478878928678 0.00033953650418330067 0.5990005167322465
v 0.010823289431620142 -0.026401049914260843 0.5990005167322465
v 0.010823289431620142 -0.026401049914260843 0.5990005167322465
v 0.028530478878928678 0.00033953650418330067 0.5990005167322465
v 0.015759623322394445 -0.023786240753809196 0.5990005167322465
v 0.015759623322394445 -0.023786240753809196 0.5990005167322465
v 0.028530478878928678 0.00033953650418330067 0.5990005167322465
v 0.021055338905958676 -0.019339512789915414 0.5990005167322465
v 0.021055338905958676 -0.019339512789915414 0.5990005167322465
v 0.028530478878928678 0.00033953650418330067 0.5990005167322465
v 0.025752303392968523 -0.012414781206430692 0.5990005167322465
v 0.025752303392968523 -0.012414781206430692 0.5990005167322465
v 0.028530478878928678 0.00033953650418330067 0.5990005167322465
v 0.028016717334140573 -0.005463346740818276 0.5990005167322465
v -0.011999000165563989 0.03450000163866207 0.5990005167322465
v -0.009999000070569086 0.029000001377426088 0.5990005167322465
v -0.011999000165563989 0.02585053375957269 0.5990005167322465
v -0.011999000165563989 0.02585053375957269 0.5990005167322465
v -0.009999000070569086 0.029000001377426088 0.5990005167322465
v -0.007499000428662639 0.029000001377426088 0.5990005167322465
v -0.011999000165563989 0.02585053375957269 0.5990005167322465
v -0.007499000428662639 0.029000001377426088 0.5990005167322465
v 0.007501000283799131 0.029000001377426088 0.5990005167322465
v -0.011999000165563989 0.03450000163866207 0.5990005167322465
v -0.009999000070569086 0.03450000163866207 0.5990005167322465
v -0.009999000070569086 0.029000001377426088 0.5990005167322465
v 0.007501000283799131 0.029000001377426088 0.5990005167322465
v 0.01000100087937994 0.029000001377426088 0.5990005167322465
v -0.011999000165563989 0.02585053375957269 0.5990005167322465
v -0.011999000165563989 0.02585053375957269 0.6080005171597236
v -0.008055806542603405 0.02737168060611528 0.6080005171597236
v -0.011999000165563989 0.03450000163866207 0.6080005171597236
v -0.011999000165563989 0.03450000163866207 0.6080005171597236
v -0.008055806542603405 0.02737168060611528 0.6080005171597236
v -0.0027080210541459426 0.02840223447281298 0.6080005171597236
v -0.011999000165563989 0.03450000163866207 0.6080005171597236
v -0.0027080210541459426 0.02840223447281298 0.6080005171597236
v 0.0027100209092824346 0.02840223447281298 0.6080005171597236
v -0.011999000165563989 0.03450000163866207 0.6080005171597236
v 0.0027100209092824346 0.02840223447281298 0.6080005171597236
v 0.012001000974374842 0.03450000163866207 0.6080005171597236
v 0.012001000974374842 0.03450000163866207 0.6080005171597236
v 0.0027100209092824346 0.02840223447281298 0.6080005171597236
v 0.008057804490391174 0.02737168060611528 0.6080005171597236
v 0.012001000974374842 0.03450000163866207 0.6080005171597236
v 0.008057804490391174 0.02737168060611528 0.6080005171597236
v 0.012001000974374842 0.02585053375957269 0.6080005171597236
v -0.009999000070569086 0.03450000163866207 0.5990005167322465
v -0.011999000165563989 0.03450000163866207 0.5990005167322465
v -0.009999000070569086 0.03450000163866207 0.6070005171122261
v -0.009999000070569086 0.03450000163866207 0.6070005171122261
v -0.011999000165563989 0.03450000163866207 0.5990005167322465
v -0.011999000165563989 0.03450000163866207 0.6080005171597236
v -0.009999000070569086 0.03450000163866207 0.6070005171122261
v -0.011999000165563989 0.03450000163866207 0.6080005171597236
v -0.009994000909565037 0.03450000163866207 0.6070005171122261
v -0.009994000909565037 0.03450000163866207 0.6070005171122261
v -0.011999000165563989 0.03450000163866207 0.6080005171597236
v 0.00999600076470153 0.03450000163866207 0.6070005171122261
v -0.009994000909565037 0.03450000163866207 0.6070005171122261
v 0.00999600076470153 0.03450000163866207 0.6070005171122261
v 0.007501000283799131 0.03450000163866207 0.5990015543299521
v 0.007501000283799131 0.03450000163866207 0.5990015543299521
v 0.00999600076470153 0.03450000163866207 0.6070005171122261
v 0.00999600076470153 0.03450000163866207 0.5990015543299521
v -0.011999000165563989 0.03450000163866207 0.6080005171597236
v 0.012001000974374842 0.03450000163866207 0.6080005171597236
v 0.00999600076470153 0.03450000163866207 0.6070005171122261
v 0.00999600076470153 0.03450000163866207 0.6070005171122261
v 0.012001000974374842 0.03450000163866207 0.6080005171597236
v 0.01000100087937994 0.03450000163866207 0.6070005171122261
v 0.01000100087937994 0.03450000163866207 0.6070005171122261
v 0.012001000974374842 0.03450000163866207 0.6080005171597236
v 0.012001000974374842 0.03450000163866207 0.5990005167322465
v 0.01000100087937994 0.03450000163866207 0.6070005171122261
v 0.012001000974374842 0.03450000163866207 0.5990005167322465
v 0.01000100087937994 0.03450000163866207 0.5990005167322465
v -0.009994000909565037 0.03450000163866207 0.6070005171122261
v 0.007501000283799131 0.03450000163866207 0.5990015543299521
v -0.007499000428662639 0.03450000163866207 0.5990015543299521
v -0.007499000428662639 0.03450000163866207 0.5990015543299521
v 0.007501000283799131 0.03450000163866207 0.5990015543299521
v 0.007501000283799131 0.03450000163866207 0.574625027293223
v -0.007499000428662639 0.03450000163866207 0.5990015543299521
v 0.007501000283799131 0.03450000163866207 0.574625027293223
v -0.007499000428662639 0.03450000163866207 0.574625027293223
v -0.007499000428662639 0.03450000163866207 0.574625027293223
v 0.007501000283799131 0.03450000163866207 0.574625027293223
v -0.007511276125046484 0.03450000163866207 0.5745149198661181
v -0.007511276125046484 0.03450000163866207 0.5745149198661181
v 0.007501000283799131 0.03450000163866207 0.574625027293223
v 0.007513275980182976 0.03450000163866207 0.5745149198661181
v -0.007511276125046484 0.03450000163866207 0.5745149198661181
v 0.007513275980182976 0.03450000163866207 0.5745149198661181
v -0.007547500968838605 0.03450000163866207 0.5744102445681776
v -0.007547500968838605 0.03450000163866207 0.5744102445681776
v 0.007513275980182976 0.03450000163866207 0.5745149198661181
v 0.007596387270293881 0.03450000163866207 0.5743245512047324
v -0.007547500968838605 0.03450000163866207 0.5744102445681776
v 0.007596387270293881 0.03450000163866207 0.5743245512047324
v 0.002373628967492908 0.03450000163866207 0.5411309461124958
v 0.002373628967492908 0.03450000163866207 0.5411309461124958
v 0.007596387270293881 0.03450000163866207 0.5743245512047324
v 0.0065870602875389705 0.03450000163866207 0.5422538709705194
v 0.0065870602875389705 0.03450000163866207 0.5422538709705194
v 0.007596387270293881 0.03450000163866207 0.5743245512047324
v 0.010393387334479698 0.03450000163866207 0.5443821059348863
v 0.010393387334479698 0.03450000163866207 0.5443821059348863
v 0.007596387270293881 0.03450000163866207 0.5743245512047324
v 0.012846993102875182 0.03450000163866207 0.5705117458478526
v 0.010393387334479698 0.03450000163866207 0.5443821059348863
v 0.012846993102875182 0.03450000163866207 0.5705117458478526
v 0.014315609658226425 0.03450000163866207 0.5482838395186462
v 0.014315609658226425 0.03450000163866207 0.5482838395186462
v 0.012846993102875182 0.03450000163866207 0.5705117458478526
v 0.01589585665863813 0.03450000163866207 0.565895412620776
v 0.014315609658226425 0.03450000163866207 0.5482838395186462
v 0.01589585665863813 0.03450000163866207 0.565895412620776
v 0.017059077119466748 0.03450000163866207 0.5542214618709806
v 0.017059077119466748 0.03450000163866207 0.5542214618709806
v 0.01589585665863813 0.03450000163866207 0.565895412620776
v 0.017443007344001282 0.03450000163866207 0.5607510031967422
v 0.002373628967492908 0.03450000163866207 0.5411309461124958
v -0.001089413575418377 0.03450000163866207 0.5410345105610403
v -0.007547500968838605 0.03450000163866207 0.5744102445681776
v -0.007547500968838605 0.03450000163866207 0.5744102445681776
v -0.001089413575418377 0.03450000163866207 0.5410345105610403
v -0.007658935433817737 0.03450000163866207 0.574294094660317
v -0.007658935433817737 0.03450000163866207 0.574294094660317
v -0.001089413575418377 0.03450000163866207 0.5410345105610403
v -0.005130081897260774 0.03450000163866207 0.5416791028768131
v -0.007658935433817737 0.03450000163866207 0.574294094660317
v -0.005130081897260774 0.03450000163866207 0.5416791028768131
v -0.010076649190773335 0.03450000163866207 0.5441557875647618
v -0.007658935433817737 0.03450000163866207 0.574294094660317
v -0.010076649190773335 0.03450000163866207 0.5441557875647618
v -0.013215146692444057 0.03450000163866207 0.5701031764925091
v -0.013215146692444057 0.03450000163866207 0.5701031764925091
v -0.010076649190773335 0.03450000163866207 0.5441557875647618
v -0.01330572572964428 0.03450000163866207 0.547087306258689
v -0.013215146692444057 0.03450000163866207 0.5701031764925091
v -0.01330572572964428 0.03450000163866207 0.547087306258689
v -0.016184813314513713 0.03450000163866207 0.5516224627240973
v -0.013215146692444057 0.03450000163866207 0.5701031764925091
v -0.016184813314513713 0.03450000163866207 0.5516224627240973
v -0.01605348663286099 0.03450000163866207 0.5655421411196215
v -0.01605348663286099 0.03450000163866207 0.5655421411196215
v -0.016184813314513713 0.03450000163866207 0.5516224627240973
v -0.017294806348192582 0.03450000163866207 0.5613616599640281
v -0.017294806348192582 0.03450000163866207 0.5613616599640281
v -0.016184813314513713 0.03450000163866207 0.5516224627240973
v -0.017465880269892375 0.03450000163866207 0.5570041768469025
v -0.007499000428662639 0.03450000163866207 0.5990015543299521
v -0.009994000909565037 0.03450000163866207 0.5990015543299521
v -0.009994000909565037 0.03450000163866207 0.6070005171122261
v -0.011999000165563989 0.03450000163866207 0.6080005171597236
v -0.011999000165563989 0.03450000163866207 0.5990005167322465
v -0.011999000165563989 0.02585053375957269 0.6080005171597236
v -0.011999000165563989 0.02585053375957269 0.6080005171597236
v -0.011999000165563989 0.03450000163866207 0.5990005167322465
v -0.011999000165563989 0.02585053375957269 0.5990005167322465
v 0.012001000974374842 0.02585053375957269 0.6080005171597236
v 0.012001000974374842 0.02585053375957269 0.5990005167322465
v 0.012001000974374842 0.03450000163866207 0.6080005171597236
v 0.012001000974374842 0.03450000163866207 0.6080005171597236
v 0.012001000974374842 0.02585053375957269 0.5990005167322465
v 0.012001000974374842 0.03450000163866207 0.5990005167322465
v -0.009999000070569086 0.029000001377426088 0.5990005167322465
v -0.009999000070569086 0.03450000163866207 0.5990005167322465
v -0.009999000070569086 0.029000001377426088 0.6070005171122261
v -0.009999000070569086 0.029000001377426088 0.6070005171122261
v -0.009999000070569086 0.03450000163866207 0.5990005167322465
v -0.009999000070569086 0.03450000163866207 0.6070005171122261
v 0.01000100087937994 0.029000001377426088 0.5990005167322465
v 0.01000100087937994 0.029000001377426088 0.6070005171122261
v 0.01000100087937994 0.03450000163866207 0.5990005167322465
v 0.01000100087937994 0.03450000163866207 0.5990005167322465
v 0.01000100087937994 0.029000001377426088 0.6070005171122261
v 0.01000100087937994 0.03450000163866207 0.6070005171122261
usemtl DefaultMaterial_0
f 1 2 3
f 4 5 6
f 7 8 9
f 10 11 12
f 13 14 15
f 16 17 18
f 19 20 21
f 22 23 24
f 25 26 27
f 28 29 30
f 31 32 33
f 34 35 36
f 37 38 39
f 40 41 42
f 43 44 45
f 46 47 48
f 49 50 51
f 52 53 54
f 55 56 57
f 58 59 60
f 61 62 63
f 64 65 66
f 67 68 69
f 70 71 72
f 73 74 75
f 76 77 78
f 79 80 81
f 82 83 84
f 85 86 87
f 88 89 90
f 91 92 93
f 94 95 96
f 97 98 99
f 100 101 102
f 103 104 105
f 106 107 108
f 109 110 111
f 112 113 114
f 115 116 117
f 118 119 120
f 121 122 123
f 124 125 126
f 127 128 129
f 130 131 132
f 133 134 135
f 136 137 138
f 139 140 141
f 142 143 144
f 145 146 147
f 148 149 150
f 151 152 153
f 154 155 156
f 157 158 159
f 160 161 162
f 163 164 165
f 166 167 168
f 169 170 171
f 172 173 174
f 175 176 177
f 178 179 180
f 181 182 183
f 184 185 186
f 187 188 189
f 190 191 192
f 193 194 195
f 196 197 198
f 199 200 201
f 202 203 204
f 205 206 207
f 208 209 210
f 211 212 213
f 214 215 216
f 217 218 219
f 220 221 222
f 223 224 225
f 226 227 228
f 229 230 231
f 232 233 234
f 235 236 237
f 238 239 240
f 241 242 243
f 244 245 246
f 247 248 249
f 250 251 252
f 253 254 255
f 256 257 258
f 259 260 261
f 262 263 264
f 265 266 267
f 268 269 270
f 271 272 273
f 274 275 276
f 277 278 279
f 280 281 282
f 283 284 285
f 286 287 288
f 289 290 291
f 292 293 294
f 295 296 297
f 298 299 300
f 301 302 303
f 304 305 306
f 307 308 309
f 310 311 312
f 313 314 315
f 316 317 318
f 319 320 321
f 322 323 324
f 325 326 327
f 328 329 330
f 331 332 333
f 334 335 336
f 337 338 339
f 340 341 342
f 343 344 345
f 346 347 348
f 349 350 351
f 352 353 354
f 355 356 357
f 358 359 360
f 361 362 363
f 364 365 366
f 367 368 369
f 370 371 372
f 373 374 375
f 376 377 378
f 379 380 381
f 382 383 384
f 385 386 387
f 388 389 390
f 391 392 393
f 394 395 396
f 397 398 399
f 400 401 402
f 403 404 405
f 406 407 408
f 409 410 411
f 412 413 414
f 415 416 417
f 418 419 420
f 421 422 423
f 424 425 426
f 427 428 429
f 430 431 432
f 433 434 435
f 436 437 438
f 439 440 441
f 442 443 444
f 445 446 447
f 448 449 450
f 451 452 453
f 454 455 456
f 457 458 459
f 460 461 462
f 463 464 465
f 466 467 468
f 469 470 471
f 472 473 474
f 475 476 477
f 478 479 480
f 481 482 483
f 484 485 486
f 487 488 489
f 490 491 492
f 493 494 495
f 496 497 498
f 499 500 501
f 502 503 504
f 505 506 507
f 508 509 510
f 511 512 513
f 514 515 516
f 517 518 519
f 520 521 522
f 523 524 525
f 526 527 528
f 529 530 531
f 532 533 534
f 535 536 537
f 538 539 540
f 541 542 543
f 544 545 546
f 547 548 549
f 550 551 552
f 553 554 555
f 556 557 558
f 559 560 561
f 562 563 564
f 565 566 567
f 568 569 570
f 571 572 573
f 574 575 576
f 577 578 579
f 580 581 582
f 583 584 585
f 586 587 588
f 589 590 591
f 592 593 594
f 595 596 597
f 598 599 600
f 601 602 603
f 604 605 606
f 607 608 609
f 610 611 612
f 613 614 615
f 616 617 618
f 619 620 621
f 622 623 624
f 625 626 627
f 628 629 630
f 631 632 633
f 634 635 636
f 637 638 639
f 640 641 642
f 643 644 645
f 646 647 648
f 649 650 651
f 652 653 654
f 655 656 657
f 658 659 660
f 661 662 663
f 664 665 666
f 667 668 669
f 670 671 672
f 673 674 675
f 676 677 678
f 679 680 681
f 682 683 684
f 685 686 687
f 688 689 690
f 691 692 693
f 694 695 696
f 697 698 699
f 700 701 702
f 703 704 705
f 706 707 708
f 709 710 711
f 712 713 714
f 715 716 717
f 718 719 720
f 721 722 723
f 724 725 726
f 727 728 729
f 730 731 732
f 733 734 735
f 736 737 738
f 739 740 741
f 742 743 744
f 745 746 747
f 748 749 750
f 751 752 753
f 754 755 756
f 757 758 759
f 760 761 762
f 763 764 765
f 766 767 768
f 769 770 771
f 772 773 774
f 775 776 777
f 778 779 780
f 781 782 783
f 784 785 786
f 787 788 789
f 790 791 792
f 793 794 795
f 796 797 798
f 799 800 801
f 802 803 804
f 805 806 807
f 808 809 810
f 811 812 813
f 814 815 816
f 817 818 819
f 820 821 822
f 823 824 825
f 826 827 828
f 829 830 831
f 832 833 834
f 835 836 837
f 838 839 840
f 841 842 843
f 844 845 846
f 847 848 849
f 850 851 852
f 853 854 855
f 856 857 858
f 859 860 861
f 862 863 864
f 865 866 867
f 868 869 870
f 871 872 873
f 874 875 876
f 877 878 879
f 880 881 882
f 883 884 885
f 886 887 888
f 889 890 891
f 892 893 894
f 895 896 897
f 898 899 900
f 901 902 903
f 904 905 906
f 907 908 909
f 910 911 912
f 913 914 915
f 916 917 918
f 919 920 921
f 922 923 924
f 925 926 927
f 928 929 930
f 931 932 933
f 934 935 936
f 937 938 939
f 940 941 942
f 943 944 945
f 946 947 948
f 949 950 951
f 952 953 954
f 955 956 957
f 958 959 960
f 961 962 963
f 964 965 966
f 967 968 969
f 970 971 972
f 973 974 975
f 976 977 978
f 979 980 981
f 982 983 984
f 985 986 987
f 988 989 990
f 991 992 993
f 994 995 996
f 997 998 999
f 1000 1001 1002
f 1003 1004 1005
f 1006 1007 1008
f 1009 1010 1011
f 1012 1013 1014
f 1015 1016 1017
f 1018 1019 1020
f 1021 1022 1023
f 1024 1025 1026
f 1027 1028 1029
f 1030 1031 1032
f 1033 1034 1035
f 1036 1037 1038
f 1039 1040 1041
f 1042 1043 1044
f 1045 1046 1047
f 1048 1049 1050
f 1051 1052 1053
f 1054 1055 1056
f 1057 1058 1059
f 1060 1061 1062
f 1063 1064 1065
f 1066 1067 1068
f 1069 1070 1071
f 1072 1073 1074
f 1075 1076 1077
f 1078 1079 1080
f 1081 1082 1083
f 1084 1085 1086
f 1087 1088 1089
f 1090 1091 1092
f 1093 1094 1095
f 1096 1097 1098
f 1099 1100 1101
f 1102 1103 1104
f 1105 1106 1107
f 1108 1109 1110
f 1111 1112 1113
f 1114 1115 1116
f 1117 1118 1119
f 1120 1121 1122
f 1123 1124 1125
f 1126 1127 1128
f 1129 1130 1131
f 1132 1133 1134
f 1135 1136 1137
f 1138 1139 1140
f 1141 1142 1143
f 1144 1145 1146
f 1147 1148 1149
f 1150 1151 1152
f 1153 1154 1155
f 1156 1157 1158
f 1159 1160 1161
f 1162 1163 1164
f 1165 1166 1167
f 1168 1169 1170
f 1171 1172 1173
f 1174 1175 1176
f 1177 1178 1179
f 1180 1181 1182
f 1183 1184 1185
f 1186 1187 1188
f 1189 1190 1191
f 1192 1193 1194
f 1195 1196 1197
f 1198 1199 1200
f 1201 1202 1203
f 1204 1205 1206
f 1207 1208 1209
f 1210 1211 1212
f 1213 1214 1215
f 1216 1217 1218
