mtllib openarm_link1_collision_mesh.mtl
v -0.02041236211455466 -0.04922675175831115 0.1256933729745091
v -0.03012064504637646 -0.01857559673800635 0.11269733201299204
v -0.02036904431769737 -0.04604983357763048 0.10461455269841657
v -0.02036904431769737 -0.04604983357763048 0.10461455269841657
v -0.03012064504637646 -0.01857559673800635 0.11269733201299204
v -0.020415892617041687 -0.03636817723398744 0.08942725797071116
v -0.020415892617041687 -0.03636817723398744 0.08942725797071116
v -0.03012064504637646 -0.01857559673800635 0.11269733201299204
v -0.02041047956136466 -0.022451903455934508 0.07856940070450236
v -0.02041047956136466 -0.022451903455934508 0.07856940070450236
v -0.03012064504637646 -0.01857559673800635 0.11269733201299204
v -0.0301241278651454 0.0014671067696273715 0.1015580721455267
v -0.02041047956136466 -0.022451903455934508 0.07856940070450236
v -0.0301241278651454 0.0014671067696273715 0.1015580721455267
v -0.02038926602886293 -0.0025894485749880514 0.07323248638851254
v -0.02038926602886293 -0.0025894485749880514 0.07323248638851254
v -0.0301241278651454 0.0014671067696273715 0.1015580721455267
v -0.02041137029321849 0.017654223326933893 0.07643140774406643
v -0.02041137029321849 0.017654223326933893 0.07643140774406643
v -0.0301241278651454 0.0014671067696273715 0.1015580721455267
v -0.020406115547485504 0.037217195371237466 0.08986209533267342
v -0.020406115547485504 0.037217195371237466 0.08986209533267342
v -0.0301241278651454 0.0014671067696273715 0.1015580721455267
v -0.030105878352559845 0.017938967603153833 0.11252234421171181
v -0.020406115547485504 0.037217195371237466 0.08986209533267342
v -0.030105878352559845 0.017938967603153833 0.11252234421171181
v -0.020411709801291256 0.04779389799152378 0.11028272771129277
v -0.020411709801291256 0.04779389799152378 0.11028272771129277
v -0.030105878352559845 0.017938967603153833 0.11252234421171181
v -0.03012064504637646 0.018575594830657627 0.13230269488267332
v -0.020411709801291256 0.04779389799152378 0.11028272771129277
v -0.03012064504637646 0.018575594830657627 0.13230269488267332
v -0.02039049245409208 0.04862671129401974 0.13080135203792587
v -0.02039049245409208 0.04862671129401974 0.13080135203792587
v -0.03012064504637646 0.018575594830657627 0.13230269488267332
v -0.020402131096002307 0.04232468615338103 0.147533362720349
v -0.020402131096002307 0.04232468615338103 0.147533362720349
v -0.03012064504637646 0.018575594830657627 0.13230269488267332
v -0.02041261388458615 0.030531308670618262 0.1612452316577606
v -0.02041261388458615 0.030531308670618262 0.1612452316577606
v -0.03012064504637646 0.018575594830657627 0.13230269488267332
v -0.0301241278651454 -0.0014671056967437146 0.14344193186195398
v -0.02041261388458615 0.030531308670618262 0.1612452316577606
v -0.0301241278651454 -0.0014671056967437146 0.14344193186195398
v -0.020406016365351887 0.014593889929622739 0.16945670360540177
v -0.020406016365351887 0.014593889929622739 0.16945670360540177
v -0.0301241278651454 -0.0014671056967437146 0.14344193186195398
v -0.020409792915824232 -0.0025860220230064512 0.17170587973762252
v -0.020409792915824232 -0.0025860220230064512 0.17170587973762252
v -0.0301241278651454 -0.0014671056967437146 0.14344193186195398
v -0.020415415779860835 -0.021847594345200116 0.16672695188883146
v -0.020415415779860835 -0.021847594345200116 0.16672695188883146
v -0.0301241278651454 -0.0014671056967437146 0.14344193186195398
v -0.030105878352559845 -0.017938967603153833 0.13247766742516376
v -0.020415415779860835 -0.021847594345200116 0.16672695188883146
v -0.030105878352559845 -0.017938967603153833 0.13247766742516376
v -0.020383009925050155 -0.041368780193671295 0.1501802897259541
v -0.020383009925050155 -0.041368780193671295 0.1501802897259541
v -0.030105878352559845 -0.017938967603153833 0.13247766742516376
v -0.02041236211455466 -0.04922675175831115 0.1256933729745091
v -0.02041236211455466 -0.04922675175831115 0.1256933729745091
v -0.030105878352559845 -0.017938967603153833 0.13247766742516376
v -0.03012064504637646 -0.01857559673800635 0.11269733201299204
v 0.04573728397172072 -0.007521185755338944 0.06299989618081092
v 0.04634458761995086 -4.57959941919852e-05 0.07782764041536439
v 0.045114462134276945 -0.01045069839524626 0.07782495486836183
v 0.04573728397172072 -0.007521185755338944 0.06299989618081092
v 0.045114462134276945 -0.01045069839524626 0.07782495486836183
v 0.0398120632007859 -0.023643693139616673 0.0757805745832707
v 0.04573728397172072 -0.007521185755338944 0.06299989618081092
v 0.0398120632007859 -0.023643693139616673 0.0757805745832707
v 0.03832333556049505 -0.02601514367644886 0.06299997247475986
v 0.03832333556049505 -0.02601514367644886 0.06299997247475986
v 0.0398120632007859 -0.023643693139616673 0.0757805745832707
v 0.032978593485344376 -0.03251406251845612 0.07754413210111721
v 0.03832333556049505 -0.02601514367644886 0.06299997247475986
v 0.032978593485344376 -0.03251406251845612 0.07754413210111721
v 0.020077979087808062 -0.04231415377373038 0.06299991525429816
v 0.020077979087808062 -0.04231415377373038 0.06299991525429816
v 0.032978593485344376 -0.03251406251845612 0.07754413210111721
v 0.026563645670885094 -0.038359891806127866 0.07300084270075224
v 0.020077979087808062 -0.04231415377373038 0.06299991525429816
v 0.026563645670885094 -0.038359891806127866 0.07300084270075224
v -0.0024958885901517347 -0.04671769936252623 0.0730000568730782
v 0.020077979087808062 -0.04231415377373038 0.06299991525429816
v -0.0024958885901517347 -0.04671769936252623 0.0730000568730782
v -0.00248579680805619 -0.046112547203656096 0.06299999917764199
v -0.00248579680805619 -0.046112547203656096 0.06299999917764199
v -0.0024958885901517347 -0.04671769936252623 0.0730000568730782
v -0.02410965843274493 -0.040093156811549235 0.06299996484536496
v -0.02410965843274493 -0.040093156811549235 0.06299996484536496
v -0.0024958885901517347 -0.04671769936252623 0.0730000568730782
v -0.023785288986796216 -0.039583009692591986 0.07300001109670884
v -0.02410965843274493 -0.040093156811549235 0.06299996484536496
v -0.023785288986796216 -0.039583009692591986 0.07300001109670884
v -0.040080671306805815 -0.024131165696950063 0.07300004161428841
v -0.02410965843274493 -0.040093156811549235 0.06299996484536496
v -0.040080671306805815 -0.024131165696950063 0.07300004161428841
v -0.03956660649357069 -0.023812398134201995 0.06299999917764199
v -0.03956660649357069 -0.023812398134201995 0.06299999917764199
v -0.040080671306805815 -0.024131165696950063 0.07300004161428841
v -0.04671529228843729 -0.002533436180283538 0.06299996484536496
v -0.04671529228843729 -0.002533436180283538 0.06299996484536496
v -0.040080671306805815 -0.024131165696950063 0.07300004161428841
v -0.04611179189356163 -0.002501513361537061 0.07300001109670884
v -0.04671529228843729 -0.002533436180283538 0.06299996484536496
v -0.04611179189356163 -0.002501513361537061 0.07300001109670884
v -0.04245586596918205 0.019653826693394327 0.07300003398489352
v -0.04671529228843729 -0.002533436180283538 0.06299996484536496
v -0.04245586596918205 0.019653826693394327 0.07300003398489352
v -0.041909654700562626 0.019394001928245697 0.06299999917764199
v -0.041909654700562626 0.019394001928245697 0.06299999917764199
v -0.04245586596918205 0.019653826693394327 0.07300003398489352
v -0.02830413189857328 0.03725067697072815 0.06299996484536496
v -0.02830413189857328 0.03725067697072815 0.06299996484536496
v -0.04245586596918205 0.019653826693394327 0.07300003398489352
v -0.0279277681264245 0.03677763541383605 0.07300001109670884
v -0.02830413189857328 0.03725067697072815 0.06299996484536496
v -0.0279277681264245 0.03677763541383605 0.07300001109670884
v -0.014714706166135127 0.0437725011635548 0.07300001109670884
v -0.02830413189857328 0.03725067697072815 0.06299996484536496
v -0.014714706166135127 0.0437725011635548 0.07300001109670884
v -0.007457875606000086 0.04557330920196945 0.06299999917764199
v -0.007457875606000086 0.04557330920196945 0.06299999917764199
v -0.014714706166135127 0.0437725011635548 0.07300001109670884
v 4.056453897505197e-05 0.04617957143779661 0.07300001109670884
v -0.007457875606000086 0.04557330920196945 0.06299999917764199
v 4.056453897505197e-05 0.04617957143779661 0.07300001109670884
v 0.007487172005554432 0.04556850268318646 0.06300000299233943
v 0.007487172005554432 0.04556850268318646 0.06300000299233943
v 4.056453897505197e-05 0.04617957143779661 0.07300001109670884
v 0.017196228844120753 0.043027547972653846 0.07300001872610373
v 0.007487172005554432 0.04556850268318646 0.06300000299233943
v 0.017196228844120753 0.043027547972653846 0.07300001872610373
v 0.024193352894728015 0.039548425645539176 0.06299991143960071
v 0.024193352894728015 0.039548425645539176 0.06299991143960071
v 0.017196228844120753 0.043027547972653846 0.07300001872610373
v 0.027903310193744257 0.03644925099882457 0.07308647502903831
v 0.024193352894728015 0.039548425645539176 0.06299991143960071
v 0.027903310193744257 0.03644925099882457 0.07308647502903831
v 0.034801500066068414 0.030500136870431627 0.0747788350337375
v 0.024193352894728015 0.039548425645539176 0.06299991143960071
v 0.034801500066068414 0.030500136870431627 0.0747788350337375
v 0.0369907854483742 0.027659743669113945 0.06299995721597007
v 0.0369907854483742 0.027659743669113945 0.06299995721597007
v 0.034801500066068414 0.030500136870431627 0.0747788350337375
v 0.04130954175701973 0.021027474448458428 0.07705163177254892
v 0.0369907854483742 0.027659743669113945 0.06299995721597007
v 0.04130954175701973 0.021027474448458428 0.07705163177254892
v 0.044649507735972094 0.012277192698919026 0.06300001443643177
v 0.044649507735972094 0.012277192698919026 0.06300001443643177
v 0.04130954175701973 0.021027474448458428 0.07705163177254892
v 0.044320409972538055 0.013457653684858517 0.07713418945469286
v 0.044649507735972094 0.012277192698919026 0.06300001443643177
v 0.044320409972538055 0.013457653684858517 0.07713418945469286
v 0.04634458761995086 -4.57959941919852e-05 0.07782764041536439
v 0.044649507735972094 0.012277192698919026 0.06300001443643177
v 0.04634458761995086 -4.57959941919852e-05 0.07782764041536439
v 0.04573728397172072 -0.007521185755338944 0.06299989618081092
v 0.027913638487081505 -0.03881083863540802 0.09169238716765449
v 0.03410458917481263 -0.043093687196986696 0.09908208173251332
v -0.02036904431769737 -0.04604983357763048 0.10461455269841657
v -0.02036904431769737 -0.04604983357763048 0.10461455269841657
v 0.03410458917481263 -0.043093687196986696 0.09908208173251332
v 0.03399537438691036 -0.048592638416424805 0.11399081962325752
v -0.02036904431769737 -0.04604983357763048 0.10461455269841657
v 0.03399537438691036 -0.048592638416424805 0.11399081962325752
v -0.02041236211455466 -0.04922675175831115 0.1256933729745091
v -0.02041236211455466 -0.04922675175831115 0.1256933729745091
v 0.03399537438691036 -0.048592638416424805 0.11399081962325752
v 0.03398088998070481 -0.04785919035302344 0.13446011991190332
v -0.02041236211455466 -0.04922675175831115 0.1256933729745091
v 0.03398088998070481 -0.04785919035302344 0.13446011991190332
v -0.020383009925050155 -0.041368780193671295 0.1501802897259541
v -0.020383009925050155 -0.041368780193671295 0.1501802897259541
v 0.03398088998070481 -0.04785919035302344 0.13446011991190332
v 0.034058358856454696 -0.03871515076465215 0.1530719982373263
v -0.020383009925050155 -0.041368780193671295 0.1501802897259541
v 0.034058358856454696 -0.03871515076465215 0.1530719982373263
v 0.03399630898778483 -0.022862898958854183 0.16621256282631336
v -0.020383009925050155 -0.041368780193671295 0.1501802897259541
v 0.03399630898778483 -0.022862898958854183 0.16621256282631336
v -0.020415415779860835 -0.021847594345200116 0.16672695188883146
v -0.020415415779860835 -0.021847594345200116 0.16672695188883146
v 0.03399630898778483 -0.022862898958854183 0.16621256282631336
v 0.03392372673946431 -0.0026232723051559936 0.1718180623601384
v -0.020415415779860835 -0.021847594345200116 0.16672695188883146
v 0.03392372673946431 -0.0026232723051559936 0.1718180623601384
v -0.020409792915824232 -0.0025860220230064512 0.17170587973762252
v -0.020409792915824232 -0.0025860220230064512 0.17170587973762252
v 0.03392372673946431 -0.0026232723051559936 0.1718180623601384
v -0.020406016365351887 0.014593889929622739 0.16945670360540177
v -0.020406016365351887 0.014593889929622739 0.16945670360540177
v 0.03392372673946431 -0.0026232723051559936 0.1718180623601384
v 0.034058191009767036 0.018252329739619766 0.1683280261836284
v -0.020406016365351887 0.014593889929622739 0.16945670360540177
v 0.034058191009767036 0.018252329739619766 0.1683280261836284
v -0.02041261388458615 0.030531308670618262 0.1612452316577606
v -0.02041261388458615 0.030531308670618262 0.1612452316577606
v 0.034058191009767036 0.018252329739619766 0.1683280261836284
v 0.03398897332459461 0.03542619873465602 0.15682807141377708
v -0.02041261388458615 0.030531308670618262 0.1612452316577606
v 0.03398897332459461 0.03542619873465602 0.15682807141377708
v -0.020402131096002307 0.04232468615338103 0.147533362720349
v -0.020402131096002307 0.04232468615338103 0.147533362720349
v 0.03398897332459461 0.03542619873465602 0.15682807141377708
v 0.03398360985998439 0.04631644659688572 0.13948107046776848
v -0.020402131096002307 0.04232468615338103 0.147533362720349
v 0.03398360985998439 0.04631644659688572 0.13948107046776848
v -0.02039049245409208 0.04862671129401974 0.13080135203792587
v -0.02039049245409208 0.04862671129401974 0.13080135203792587
v 0.03398360985998439 0.04631644659688572 0.13948107046776848
v 0.03405639047257214 0.04920837636070985 0.11902792160811249
v -0.02039049245409208 0.04862671129401974 0.13080135203792587
v 0.03405639047257214 0.04920837636070985 0.11902792160811249
v -0.020411709801291256 0.04779389799152378 0.11028272771129277
v -0.020411709801291256 0.04779389799152378 0.11028272771129277
v 0.03405639047257214 0.04920837636070985 0.11902792160811249
v 0.034098989198960705 0.04435896130493555 0.10132204155570257
v -0.020411709801291256 0.04779389799152378 0.11028272771129277
v 0.034098989198960705 0.04435896130493555 0.10132204155570257
v -0.020406115547485504 0.037217195371237466 0.08986209533267342
v -0.020406115547485504 0.037217195371237466 0.08986209533267342
v 0.034098989198960705 0.04435896130493555 0.10132204155570257
v 0.027907098188308943 0.038682966162293386 0.09144940619908226
v -0.020406115547485504 0.037217195371237466 0.08986209533267342
v 0.027907098188308943 0.038682966162293386 0.09144940619908226
v 0.02797653331123584 0.03561926820183414 0.08790499532516538
v -0.020406115547485504 0.037217195371237466 0.08986209533267342
v 0.02797653331123584 0.03561926820183414 0.08790499532516538
v 0.03314577260095097 0.03309707035864751 0.08637711744497789
v -0.020406115547485504 0.037217195371237466 0.08986209533267342
v 0.03314577260095097 0.03309707035864751 0.08637711744497789
v 0.03400000542961079 0.02012468815069557 0.07745441041716816
v -0.020406115547485504 0.037217195371237466 0.08986209533267342
v 0.03400000542961079 0.02012468815069557 0.07745441041716816
v -0.02041137029321849 0.017654223326933893 0.07643140774406643
v -0.02041137029321849 0.017654223326933893 0.07643140774406643
v 0.03400000542961079 0.02012468815069557 0.07745441041716816
v 0.03400000542961079 5.237098479030663e-08 0.07316331066501203
v -0.02041137029321849 0.017654223326933893 0.07643140774406643
v 0.03400000542961079 5.237098479030663e-08 0.07316331066501203
v -0.02038926602886293 -0.0025894485749880514 0.07323248638851254
v -0.02038926602886293 -0.0025894485749880514 0.07323248638851254
v 0.03400000542961079 5.237098479030663e-08 0.07316331066501203
v 0.03400000542961079 -0.020124590875910675 0.0774543646407988
v -0.02038926602886293 -0.0025894485749880514 0.07323248638851254
v 0.03400000542961079 -0.020124590875910675 0.0774543646407988
v -0.02041047956136466 -0.022451903455934508 0.07856940070450236
v -0.02041047956136466 -0.022451903455934508 0.07856940070450236
v 0.03400000542961079 -0.020124590875910675 0.0774543646407988
v 0.032876935613084246 -0.033459581057018184 0.08666222793215272
v -0.02041047956136466 -0.022451903455934508 0.07856940070450236
v 0.032876935613084246 -0.033459581057018184 0.08666222793215272
v -0.020415892617041687 -0.03636817723398744 0.08942725797071116
v -0.020415892617041687 -0.03636817723398744 0.08942725797071116
v 0.032876935613084246 -0.033459581057018184 0.08666222793215272
v 0.027906113996367665 -0.03592642382555411 0.08904519313322812
v -0.020415892617041687 -0.03636817723398744 0.08942725797071116
v 0.027906113996367665 -0.03592642382555411 0.08904519313322812
v 0.027913638487081505 -0.03881083863540802 0.09169238716765449
v -0.020415892617041687 -0.03636817723398744 0.08942725797071116
v 0.027913638487081505 -0.03881083863540802 0.09169238716765449
v -0.02036904431769737 -0.04604983357763048 0.10461455269841657
v 0.04884355777038385 -0.02080538848515112 0.09555535579595986
v 0.04900255435996703 -0.030110949992815383 0.10597787216014343
v 0.04031278420235207 -0.030384572518629138 0.09191722543516967
v 0.04031278420235207 -0.030384572518629138 0.09191722543516967
v 0.04900255435996703 -0.030110949992815383 0.10597787216014343
v 0.03410458917481263 -0.043093687196986696 0.09908208173251332
v 0.03410458917481263 -0.043093687196986696 0.09908208173251332
v 0.04900255435996703 -0.030110949992815383 0.10597787216014343
v 0.03399537438691036 -0.048592638416424805 0.11399081962325752
v 0.03399537438691036 -0.048592638416424805 0.11399081962325752
v 0.04900255435996703 -0.030110949992815383 0.10597787216014343
v 0.049001821938057244 -0.034296510418059256 0.12226849183039068
v 0.03399537438691036 -0.048592638416424805 0.11399081962325752
v 0.049001821938057244 -0.034296510418059256 0.12226849183039068
v 0.03398088998070481 -0.04785919035302344 0.13446011991190332
v 0.03398088998070481 -0.04785919035302344 0.13446011991190332
v 0.049001821938057244 -0.034296510418059256 0.12226849183039068
v 0.04900231784872533 -0.030346925269526537 0.13858229723171966
v 0.03398088998070481 -0.04785919035302344 0.13446011991190332
v 0.04900231784872533 -0.030346925269526537 0.13858229723171966
v 0.034058358856454696 -0.03871515076465215 0.1530719982373263
v 0.034058358856454696 -0.03871515076465215 0.1530719982373263
v 0.04900231784872533 -0.030346925269526537 0.13858229723171966
v 0.049009397927186615 -0.015177223926445826 0.15376856199111444
v 0.034058358856454696 -0.03871515076465215 0.1530719982373263
v 0.049009397927186615 -0.015177223926445826 0.15376856199111444
v 0.03399630898778483 -0.022862898958854183 0.16621256282631336
v 0.03399630898778483 -0.022862898958854183 0.16621256282631336
v 0.049009397927186615 -0.015177223926445826 0.15376856199111444
v 0.03392372673946431 -0.0026232723051559936 0.1718180623601384
v 0.03392372673946431 -0.0026232723051559936 0.1718180623601384
v 0.049009397927186615 -0.015177223926445826 0.15376856199111444
v 0.04900309223230703 0.00610973291806538 0.15629560068536108
v 0.03392372673946431 -0.0026232723051559936 0.1718180623601384
v 0.04900309223230703 0.00610973291806538 0.15629560068536108
v 0.034058191009767036 0.018252329739619766 0.1683280261836284
v 0.034058191009767036 0.018252329739619766 0.1683280261836284
v 0.04900309223230703 0.00610973291806538 0.15629560068536108
v 0.04900940555658151 0.025182708029000134 0.14645558862130592
v 0.034058191009767036 0.018252329739619766 0.1683280261836284
v 0.04900940555658151 0.025182708029000134 0.14645558862130592
v 0.03398897332459461 0.03542619873465602 0.15682807141377708
v 0.03398897332459461 0.03542619873465602 0.15682807141377708
v 0.04900940555658151 0.025182708029000134 0.14645558862130592
v 0.03398360985998439 0.04631644659688572 0.13948107046776848
v 0.03398360985998439 0.04631644659688572 0.13948107046776848
v 0.04900940555658151 0.025182708029000134 0.14645558862130592
v 0.049002321663422777 0.03405537194835384 0.126938848802709
v 0.03398360985998439 0.04631644659688572 0.13948107046776848
v 0.049002321663422777 0.03405537194835384 0.126938848802709
v 0.03405639047257214 0.04920837636070985 0.11902792160811249
v 0.03405639047257214 0.04920837636070985 0.11902792160811249
v 0.049002321663422777 0.03405537194835384 0.126938848802709
v 0.04900530857152363 0.0312052035848287 0.1077102407116648
v 0.03405639047257214 0.04920837636070985 0.11902792160811249
v 0.04900530857152363 0.0312052035848287 0.1077102407116648
v 0.034098989198960705 0.04435896130493555 0.10132204155570257
v 0.034098989198960705 0.04435896130493555 0.10132204155570257
v 0.04900530857152363 0.0312052035848287 0.1077102407116648
v 0.04158860213404392 0.029104182672047285 0.09248386822331423
v 0.04158860213404392 0.029104182672047285 0.09248386822331423
v 0.04900530857152363 0.0312052035848287 0.1077102407116648
v 0.048800886564743795 0.020648680714036027 0.09513124536321804
v 0.04671843559913347 0.030592492602967702 0.10727235159174509
v 0.04700107797706021 0.03200020369888312 0.11312444079792705
v 0.044615282270479284 0.03301916279269124 0.10930967468655961
v 0.044615282270479284 0.03301916279269124 0.10930967468655961
v 0.04700107797706021 0.03200020369888312 0.11312444079792705
v 0.03400069970454611 0.045536909358931954 0.11382668845091093
v 0.03400069970454611 0.045536909358931954 0.11382668845091093
v 0.04700107797706021 0.03200020369888312 0.11312444079792705
v 0.04700655588259384 0.03281004870805182 0.1302420258394843
v 0.03400069970454611 0.045536909358931954 0.11382668845091093
v 0.04700655588259384 0.03281004870805182 0.1302420258394843
v 0.03400464791640356 0.04527945542824652 0.1338640963240234
v 0.03400464791640356 0.04527945542824652 0.1338640963240234
v 0.04700655588259384 0.03281004870805182 0.1302420258394843
v 0.034000875180628665 0.0360222032490487 0.1517013164095271
v 0.034000875180628665 0.0360222032490487 0.1517013164095271
v 0.04700655588259384 0.03281004870805182 0.1302420258394843
v 0.04700524744136958 0.021577860903433388 0.148404364958985
v 0.034000875180628665 0.0360222032490487 0.1517013164095271
v 0.04700524744136958 0.021577860903433388 0.148404364958985
v 0.03400893945103123 0.018074833774768262 0.16581078363242518
v 0.03400893945103123 0.018074833774768262 0.16581078363242518
v 0.04700524744136958 0.021577860903433388 0.148404364958985
v 0.0470018676194317 0.005851341048645209 0.1553522717831335
v 0.03400893945103123 0.018074833774768262 0.16581078363242518
v 0.0470018676194317 0.005851341048645209 0.1553522717831335
v 0.034000001614913344 0.0010000000474974513 0.16866074409493947
v 0.034000001614913344 0.0010000000474974513 0.16866074409493947
v 0.0470018676194317 0.005851341048645209 0.1553522717831335
v 0.044657491897728274 0.0010000000474974513 0.1580000075045973
v 0.034000001614913344 0.0010000000474974513 0.16866074409493947
v 0.044657491897728274 0.0010000000474974513 0.1580000075045973
v 0.04223604021411198 0.0010000000474974513 0.1604223556421136
v 0.044657491897728274 0.0010000000474974513 0.1580000075045973
v 0.0470018676194317 0.005851341048645209 0.1553522717831335
v 0.044657491897728274 -0.0010000000474974513 0.1580000075045973
v 0.044657491897728274 -0.0010000000474974513 0.1580000075045973
v 0.0470018676194317 0.005851341048645209 0.1553522717831335
v 0.04700340494250277 -0.008661219054574287 0.15491367312948867
v 0.044657491897728274 -0.0010000000474974513 0.1580000075045973
v 0.04700340494250277 -0.008661219054574287 0.15491367312948867
v 0.034000001614913344 -0.0010000000474974513 0.16866074409493947
v 0.034000001614913344 -0.0010000000474974513 0.16866074409493947
v 0.04700340494250277 -0.008661219054574287 0.15491367312948867
v 0.03400893945103123 -0.018074852848255496 0.1658107683736354
v 0.03400893945103123 -0.018074852848255496 0.1658107683736354
v 0.04700340494250277 -0.008661219054574287 0.15491367312948867
v 0.04700527414425171 -0.025385028137486776 0.14469196243890536
v 0.03400893945103123 -0.018074852848255496 0.1658107683736354
v 0.04700527414425171 -0.025385028137486776 0.14469196243890536
v 0.034001916593031645 -0.037307134492940985 0.15023255108097544
v 0.034001916593031645 -0.037307134492940985 0.15023255108097544
v 0.04700527414425171 -0.025385028137486776 0.14469196243890536
v 0.034000981992157175 -0.04476496336889735 0.13459296293579115
v 0.034000981992157175 -0.04476496336889735 0.13459296293579115
v 0.04700527414425171 -0.025385028137486776 0.14469196243890536
v 0.04701609262621087 -0.03393023842800602 0.1229976254709797
v 0.034000981992157175 -0.04476496336889735 0.13459296293579115
v 0.04701609262621087 -0.03393023842800602 0.1229976254709797
v 0.03400229043338143 -0.046119036004013125 0.11632828311318733
v 0.03400229043338143 -0.046119036004013125 0.11632828311318733
v 0.04701609262621087 -0.03393023842800602 0.1229976254709797
v 0.044615282270479284 -0.03301916279269124 0.10930967468655961
v 0.03400229043338143 -0.046119036004013125 0.11632828311318733
v 0.044615282270479284 -0.03301916279269124 0.10930967468655961
v 0.034000001614913344 -0.04265161716866528 0.10481798288386024
v 0.034000001614913344 -0.04265161716866528 0.10481798288386024
v 0.044615282270479284 -0.03301916279269124 0.10930967468655961
v 0.042202886678601725 -0.03520878386837234 0.10828864039734043
v 0.034000001614913344 -0.04265161716866528 0.10481798288386024
v 0.042202886678601725 -0.03520878386837234 0.10828864039734043
v 0.03963958165572823 -0.03753495203916213 0.10720392354894415
v 0.04701609262621087 -0.03393023842800602 0.1229976254709797
v 0.04702706751076535 -0.027049960467543377 0.10275214874032823
v 0.044615282270479284 -0.03301916279269124 0.10930967468655961
v 0.044615282270479284 -0.03301916279269124 0.10930967468655961
v 0.04702706751076535 -0.027049960467543377 0.10275214874032823
v 0.04467157576070191 -0.03217392883530845 0.10749706015954708
v 0.04467157576070191 -0.03217392883530845 0.10749706015954708
v 0.04702706751076535 -0.027049960467543377 0.10275214874032823
v 0.03400002831779547 -0.04200103959259849 0.10287354004248073
v 0.03400002831779547 -0.04200103959259849 0.10287354004248073
v 0.04702706751076535 -0.027049960467543377 0.10275214874032823
v 0.040165163040555285 -0.028898581923756383 0.09448328848429721
v 0.03963958165572823 -0.03753495203916213 0.10720392354894415
v 0.03691079124291452 -0.0400109004905036 0.1060493748490865
v 0.034000001614913344 -0.04265161716866528 0.10481798288386024
v 0.03692300590413922 -0.0010000000474974513 0.1657370073838038
v 0.039662786460297195 -0.0010000000474974513 0.16299645244406413
v 0.034000001614913344 -0.0010000000474974513 0.16866074409493947
v 0.034000001614913344 -0.0010000000474974513 0.16866074409493947
v 0.039662786460297195 -0.0010000000474974513 0.16299645244406413
v 0.04223604021411198 -0.0010000000474974513 0.1604223556421136
v 0.034000001614913344 -0.0010000000474974513 0.16866074409493947
v 0.04223604021411198 -0.0010000000474974513 0.1604223556421136
v 0.044657491897728274 -0.0010000000474974513 0.1580000075045973
v 0.04223604021411198 0.0010000000474974513 0.1604223556421136
v 0.039662786460297195 0.0010000000474974513 0.16299645244406413
v 0.034000001614913344 0.0010000000474974513 0.16866074409493947
v 0.034000001614913344 0.0010000000474974513 0.16866074409493947
v 0.039662786460297195 0.0010000000474974513 0.16299645244406413
v 0.03692300590413922 0.0010000000474974513 0.1657370073838038
v 0.03400069970454611 0.045536909358931954 0.11382668845091093
v 0.034000001614913344 0.04265161716866528 0.10481798288386024
v 0.044615282270479284 0.03301916279269124 0.10930967468655961
v 0.044615282270479284 0.03301916279269124 0.10930967468655961
v 0.034000001614913344 0.04265161716866528 0.10481798288386024
v 0.042202886678601725 0.03520878386837234 0.10828864039734043
v 0.042202886678601725 0.03520878386837234 0.10828864039734043
v 0.034000001614913344 0.04265161716866528 0.10481798288386024
v 0.03963958165572823 0.03753495203916213 0.10720392354894415
v 0.03963958165572823 0.03753495203916213 0.10720392354894415
v 0.034000001614913344 0.04265161716866528 0.10481798288386024
v 0.03691079124291452 0.0400109004905036 0.1060493748490865
v 0.034801500066068414 0.030500136870431627 0.0747788350337375
v 0.027903310193744257 0.03644925099882457 0.07308647502903831
v 0.03353497855205445 0.03406172723430023 0.08383976380883507
v 0.03353497855205445 0.03406172723430023 0.08383976380883507
v 0.027903310193744257 0.03644925099882457 0.07308647502903831
v 0.027907098188308943 0.038682966162293386 0.09144940619908226
v 0.03353497855205445 0.03406172723430023 0.08383976380883507
v 0.027907098188308943 0.038682966162293386 0.09144940619908226
v 0.034098989198960705 0.04435896130493555 0.10132204155570257
v 0.027916472807284487 -0.03692196830643368 0.08363951508106204
v 0.026563645670885094 -0.038359891806127866 0.07300084270075224
v 0.032978593485344376 -0.03251406251845612 0.07754413210111721
v 0.027916472807284487 -0.03692196830643368 0.08363951508106204
v 0.032978593485344376 -0.03251406251845612 0.07754413210111721
v 0.033896402061652786 -0.036151544380680356 0.08791628682960795
v 0.027916472807284487 -0.03692196830643368 0.08363951508106204
v 0.033896402061652786 -0.036151544380680356 0.08791628682960795
v 0.027913638487081505 -0.03881083863540802 0.09169238716765449
v 0.033896402061652786 -0.036151544380680356 0.08791628682960795
v 0.03410458917481263 -0.043093687196986696 0.09908208173251332
v 0.027913638487081505 -0.03881083863540802 0.09169238716765449
v 0.03252174150441656 0.029636743045853287 0.07300000346731395
v 0.03219416199056635 0.030645452047621813 0.07849902716600354
v 0.030291087635648806 0.03191292723599748 0.07300000346731395
v 0.030291087635648806 0.03191292723599748 0.07300000346731395
v 0.03219416199056635 0.030645452047621813 0.07849902716600354
v 0.02790247668235213 0.03393440407761794 0.07300131572323565
v 0.02797653331123584 0.03561926820183414 0.08790499532516538
v 0.02790247668235213 0.03393440407761794 0.07300131572323565
v 0.03219416199056635 0.030645452047621813 0.07849902716600354
v 0.03219416199056635 0.030645452047621813 0.07849902716600354
v 0.03314577260095097 0.03309707035864751 0.08637711744497789
v 0.02797653331123584 0.03561926820183414 0.08790499532516538
v 0.030291087635648806 -0.03191292723599748 0.07300000346731395
v 0.027900000943709147 -0.03402313394023082 0.07300000346731395
v 0.027918303862058957 -0.03449210140024972 0.08219145593025168
v 0.032876935613084246 -0.033459581057018184 0.08666222793215272
v 0.03235027848357719 -0.03121009211960679 0.08046115494474648
v 0.027906113996367665 -0.03592642382555411 0.08904519313322812
v 0.03235027848357719 -0.03121009211960679 0.08046115494474648
v 0.034166124059327174 -0.02827597370936963 0.07749285493803715
v 0.027918303862058957 -0.03449210140024972 0.08219145593025168
v 0.030291087635648806 -0.03191292723599748 0.07300000346731395
v 0.034166124059327174 -0.02827597370936963 0.07749285493803715
v 0.03252173006032422 -0.02963673350910967 0.07300000346731395
v 0.034166124059327174 -0.02827597370936963 0.07749285493803715
v 0.030291087635648806 -0.03191292723599748 0.07300000346731395
v 0.027918303862058957 -0.03449210140024972 0.08219145593025168
v 0.027906113996367665 -0.03592642382555411 0.08904519313322812
v 0.03235027848357719 -0.03121009211960679 0.08046115494474648
v 0.027918303862058957 -0.03449210140024972 0.08219145593025168
v 0.04467157576070191 -0.03217392883530845 0.10749706015954708
v 0.03400002831779547 -0.04200103959259849 0.10287354004248073
v 0.034000001614913344 -0.0328501144753357 0.10894714872939915
v 0.034000001614913344 0.03217392883530845 0.10749706015954708
v 0.033975782100823526 0.04209511384633435 0.10238959989498309
v 0.04671843559913347 0.030592492602967702 0.10727235159174509
v 0.034000001614913344 0.03301916279269124 0.10930967468655961
v 0.034000001614913344 0.03217392883530845 0.10749706015954708
v 0.044615282270479284 0.03301916279269124 0.10930967468655961
v 0.044615282270479284 0.03301916279269124 0.10930967468655961
v 0.034000001614913344 0.03217392883530845 0.10749706015954708
v 0.04671843559913347 0.030592492602967702 0.10727235159174509
v 0.044615282270479284 0.03301916279269124 0.10930967468655961
v 0.042202886678601725 0.03520878386837234 0.10828864039734043
v 0.034000001614913344 0.03301916279269124 0.10930967468655961
v 0.034000001614913344 0.03301916279269124 0.10930967468655961
v 0.042202886678601725 0.03520878386837234 0.10828864039734043
v 0.03963958165572823 0.03753495203916213 0.10720392354894415
v 0.034000001614913344 0.03301916279269124 0.10930967468655961
v 0.03963958165572823 0.03753495203916213 0.10720392354894415
v 0.03691079124291452 0.0400109004905036 0.1060493748490865
v 0.03691079124291452 0.0400109004905036 0.1060493748490865
v 0.034000001614913344 0.04265161716866528 0.10481798288386024
v 0.034000001614913344 0.03301916279269124 0.10930967468655961
v 0.044657491897728274 0.0010000000474974513 0.1580000075045973
v 0.034000001614913344 0.0010000000474974513 0.1580000075045973
v 0.04223604021411198 0.0010000000474974513 0.1604223556421136
v 0.04223604021411198 0.0010000000474974513 0.1604223556421136
v 0.034000001614913344 0.0010000000474974513 0.1580000075045973
v 0.039662786460297195 0.0010000000474974513 0.16299645244406413
v 0.039662786460297195 0.0010000000474974513 0.16299645244406413
v 0.034000001614913344 0.0010000000474974513 0.1580000075045973
v 0.03692300590413922 0.0010000000474974513 0.1657370073838038
v 0.03692300590413922 0.0010000000474974513 0.1657370073838038
v 0.034000001614913344 0.0010000000474974513 0.1580000075045973
v 0.034000001614913344 0.0010000000474974513 0.16866074409493947
v 0.034000001614913344 -0.0010000000474974513 0.1580000075045973
v 0.034000001614913344 0.0010000000474974513 0.1580000075045973
v 0.044657491897728274 -0.0010000000474974513 0.1580000075045973
v 0.044657491897728274 -0.0010000000474974513 0.1580000075045973
v 0.034000001614913344 0.0010000000474974513 0.1580000075045973
v 0.044657491897728274 0.0010000000474974513 0.1580000075045973
v 0.044657491897728274 -0.0010000000474974513 0.1580000075045973
v 0.04223604021411198 -0.0010000000474974513 0.1604223556421136
v 0.034000001614913344 -0.0010000000474974513 0.1580000075045973
v 0.034000001614913344 -0.0010000000474974513 0.1580000075045973
v 0.04223604021411198 -0.0010000000474974513 0.1604223556421136
v 0.039662786460297195 -0.0010000000474974513 0.16299645244406413
v 0.034000001614913344 -0.0010000000474974513 0.1580000075045973
v 0.039662786460297195 -0.0010000000474974513 0.16299645244406413
v 0.03692300590413922 -0.0010000000474974513 0.1657370073838038
v 0.03692300590413922 -0.0010000000474974513 0.1657370073838038
v 0.034000001614913344 -0.0010000000474974513 0.16866074409493947
v 0.034000001614913344 -0.0010000000474974513 0.1580000075045973
v 0.044615282270479284 -0.03301916279269124 0.10930967468655961
v 0.034000001614913344 -0.0328501144753357 0.10894714872939915
v 0.042202886678601725 -0.03520878386837234 0.10828864039734043
v 0.042202886678601725 -0.03520878386837234 0.10828864039734043
v 0.034000001614913344 -0.0328501144753357 0.10894714872939915
v 0.03963958165572823 -0.03753495203916213 0.10720392354894415
v 0.03963958165572823 -0.03753495203916213 0.10720392354894415
v 0.034000001614913344 -0.0328501144753357 0.10894714872939915
v 0.03691079124291452 -0.0400109004905036 0.1060493748490865
v 0.03691079124291452 -0.0400109004905036 0.1060493748490865
v 0.034000001614913344 -0.0328501144753357 0.10894714872939915
v 0.034000001614913344 -0.04265161716866528 0.10481798288386024
v 0.04467157576070191 -0.03217392883530845 0.10749706015954708
v 0.034000001614913344 -0.0328501144753357 0.10894714872939915
v 0.044615282270479284 -0.03301916279269124 0.10930967468655961
v 0.04884355777038385 -0.02080538848515112 0.09555535579595986
v 0.048800886564743795 0.020648680714036027 0.09513124536321804
v 0.04900255435996703 -0.030110949992815383 0.10597787216014343
v 0.04900255435996703 -0.030110949992815383 0.10597787216014343
v 0.048800886564743795 0.020648680714036027 0.09513124536321804
v 0.04900530857152363 0.0312052035848287 0.1077102407116648
v 0.04900255435996703 -0.030110949992815383 0.10597787216014343
v 0.04900530857152363 0.0312052035848287 0.1077102407116648
v 0.049001821938057244 -0.034296510418059256 0.12226849183039068
v 0.049001821938057244 -0.034296510418059256 0.12226849183039068
v 0.04900530857152363 0.0312052035848287 0.1077102407116648
v 0.049002321663422777 0.03405537194835384 0.126938848802709
v 0.049001821938057244 -0.034296510418059256 0.12226849183039068
v 0.049002321663422777 0.03405537194835384 0.126938848802709
v 0.04900231784872533 -0.030346925269526537 0.13858229723171966
v 0.04900231784872533 -0.030346925269526537 0.13858229723171966
v 0.049002321663422777 0.03405537194835384 0.126938848802709
v 0.04900940555658151 0.025182708029000134 0.14645558862130592
v 0.04900231784872533 -0.030346925269526537 0.13858229723171966
v 0.04900940555658151 0.025182708029000134 0.14645558862130592
v 0.049009397927186615 -0.015177223926445826 0.15376856199111444
v 0.049009397927186615 -0.015177223926445826 0.15376856199111444
v 0.04900940555658151 0.025182708029000134 0.14645558862130592
v 0.04900309223230703 0.00610973291806538 0.15629560068536108
v 0.034098989198960705 0.04435896130493555 0.10132204155570257
v 0.04158860213404392 0.029104182672047285 0.09248386822331423
v 0.03353497855205445 0.03406172723430023 0.08383976380883507
v 0.04158860213404392 0.029104182672047285 0.09248386822331423
v 0.03863305466089928 0.026855313622971 0.08105519488995405
v 0.03353497855205445 0.03406172723430023 0.08383976380883507
v 0.04577835681913056 0.019864888181080342 0.08817604483755126
v 0.04130954175701973 0.021027474448458428 0.07705163177254892
v 0.03863305466089928 0.026855313622971 0.08105519488995405
v 0.03863305466089928 0.026855313622971 0.08105519488995405
v 0.034801500066068414 0.030500136870431627 0.0747788350337375
v 0.03353497855205445 0.03406172723430023 0.08383976380883507
v 0.04577835681913056 0.019864888181080342 0.08817604483755126
v 0.03863305466089928 0.026855313622971 0.08105519488995405
v 0.04158860213404392 0.029104182672047285 0.09248386822331423
v 0.04577835681913056 0.019864888181080342 0.08817604483755126
v 0.04158860213404392 0.029104182672047285 0.09248386822331423
v 0.048800886564743795 0.020648680714036027 0.09513124536321804
v 0.03863305466089928 0.026855313622971 0.08105519488995405
v 0.04130954175701973 0.021027474448458428 0.07705163177254892
v 0.034801500066068414 0.030500136870431627 0.0747788350337375
v 0.04884355777038385 -0.02080538848515112 0.09555535579595986
v 0.04754991757222049 -0.012787161480770637 0.08984196135954914
v 0.048738695552268396 -0.001647511560491366 0.09234087810421787
v 0.048738695552268396 -0.001647511560491366 0.09234087810421787
v 0.04754991757222049 -0.012787161480770637 0.08984196135954914
v 0.04634458761995086 -4.57959941919852e-05 0.07782764041536439
v 0.04884355777038385 -0.02080538848515112 0.09555535579595986
v 0.04204426392936833 -0.021882374849171438 0.08067423631473059
v 0.04754991757222049 -0.012787161480770637 0.08984196135954914
v 0.0398120632007859 -0.023643693139616673 0.0757805745832707
v 0.045114462134276945 -0.01045069839524626 0.07782495486836183
v 0.04204426392936833 -0.021882374849171438 0.08067423631473059
v 0.04204426392936833 -0.021882374849171438 0.08067423631473059
v 0.045114462134276945 -0.01045069839524626 0.07782495486836183
v 0.04754991757222049 -0.012787161480770637 0.08984196135954914
v 0.045114462134276945 -0.01045069839524626 0.07782495486836183
v 0.04634458761995086 -4.57959941919852e-05 0.07782764041536439
v 0.04754991757222049 -0.012787161480770637 0.08984196135954914
v 0.04130954175701973 0.021027474448458428 0.07705163177254892
v 0.04577835681913056 0.019864888181080342 0.08817604483755126
v 0.047928270709087784 0.011339891972331761 0.09056583834705645
v 0.04884355777038385 -0.02080538848515112 0.09555535579595986
v 0.048738695552268396 -0.001647511560491366 0.09234087810421787
v 0.048800886564743795 0.020648680714036027 0.09513124536321804
v 0.047928270709087784 0.011339891972331761 0.09056583834705645
v 0.048800886564743795 0.020648680714036027 0.09513124536321804
v 0.048738695552268396 -0.001647511560491366 0.09234087810421787
v 0.04577835681913056 0.019864888181080342 0.08817604483755126
v 0.048800886564743795 0.020648680714036027 0.09513124536321804
v 0.047928270709087784 0.011339891972331761 0.09056583834705645
v 0.048738695552268396 -0.001647511560491366 0.09234087810421787
v 0.04634458761995086 -4.57959941919852e-05 0.07782764041536439
v 0.047928270709087784 0.011339891972331761 0.09056583834705645
v 0.047928270709087784 0.011339891972331761 0.09056583834705645
v 0.044320409972538055 0.013457653684858517 0.07713418945469286
v 0.04130954175701973 0.021027474448458428 0.07705163177254892
v 0.047928270709087784 0.011339891972331761 0.09056583834705645
v 0.04634458761995086 -4.57959941919852e-05 0.07782764041536439
v 0.044320409972538055 0.013457653684858517 0.07713418945469286
v 0.033896402061652786 -0.036151544380680356 0.08791628682960795
v 0.04031278420235207 -0.030384572518629138 0.09191722543516967
v 0.03410458917481263 -0.043093687196986696 0.09908208173251332
v 0.04031278420235207 -0.030384572518629138 0.09191722543516967
v 0.033896402061652786 -0.036151544380680356 0.08791628682960795
v 0.04204426392936833 -0.021882374849171438 0.08067423631473059
v 0.04204426392936833 -0.021882374849171438 0.08067423631473059
v 0.033896402061652786 -0.036151544380680356 0.08791628682960795
v 0.032978593485344376 -0.03251406251845612 0.07754413210111721
v 0.04884355777038385 -0.02080538848515112 0.09555535579595986
v 0.04031278420235207 -0.030384572518629138 0.09191722543516967
v 0.04204426392936833 -0.021882374849171438 0.08067423631473059
v 0.04204426392936833 -0.021882374849171438 0.08067423631473059
v 0.032978593485344376 -0.03251406251845612 0.07754413210111721
v 0.0398120632007859 -0.023643693139616673 0.0757805745832707
v 0.04694386895945035 -0.02017712116710202 0.09590254666938414
v 0.04702706751076535 -0.027049960467543377 0.10275214874032823
v 0.04701609262621087 -0.03393023842800602 0.1229976254709797
v 0.04694386895945035 -0.02017712116710202 0.09590254666938414
v 0.04701609262621087 -0.03393023842800602 0.1229976254709797
v 0.04700527414425171 -0.025385028137486776 0.14469196243890536
v 0.04694386895945035 -0.02017712116710202 0.09590254666938414
v 0.04700527414425171 -0.025385028137486776 0.14469196243890536
v 0.04700655588259384 0.03281004870805182 0.1302420258394843
v 0.04700655588259384 0.03281004870805182 0.1302420258394843
v 0.04700527414425171 -0.025385028137486776 0.14469196243890536
v 0.04700524744136958 0.021577860903433388 0.148404364958985
v 0.04700524744136958 0.021577860903433388 0.148404364958985
v 0.04700527414425171 -0.025385028137486776 0.14469196243890536
v 0.04700340494250277 -0.008661219054574287 0.15491367312948867
v 0.04700524744136958 0.021577860903433388 0.148404364958985
v 0.04700340494250277 -0.008661219054574287 0.15491367312948867
v 0.0470018676194317 0.005851341048645209 0.1553522717831335
v 0.04694386895945035 -0.02017712116710202 0.09590254666938414
v 0.04700655588259384 0.03281004870805182 0.1302420258394843
v 0.04700107797706021 0.03200020369888312 0.11312444079792705
v 0.04694386895945035 -0.02017712116710202 0.09590254666938414
v 0.04700107797706021 0.03200020369888312 0.11312444079792705
v 0.04671843559913347 0.030592492602967702 0.10727235159174509
v 0.04671843559913347 0.030592492602967702 0.10727235159174509
v 0.04688076241958772 0.020436074273884053 0.09605508879088731
v 0.04694386895945035 -0.02017712116710202 0.09590254666938414
v 0.032882936132168084 0.029235928970419156 0.07300000346731395
v 0.03219416199056635 0.030645452047621813 0.07849902716600354
v 0.03252174150441656 0.029636743045853287 0.07300000346731395
v 0.032882936132168084 0.029235928970419156 0.07300000346731395
v 0.03327650228245327 0.02878763335586454 0.07300000346731395
v 0.03219416199056635 0.030645452047621813 0.07849902716600354
v 0.03327650228245327 0.02878763335586454 0.07300000346731395
v 0.03404461450155383 0.027874726665775285 0.07300000346731395
v 0.03219416199056635 0.030645452047621813 0.07849902716600354
v 0.03219416199056635 0.030645452047621813 0.07849902716600354
v 0.03404461450155383 0.027874726665775285 0.07300000346731395
v 0.03478758023508499 0.026941237775611748 0.07300000346731395
v 0.03219416199056635 0.030645452047621813 0.07849902716600354
v 0.03478758023508499 0.026941237775611748 0.07300000346731395
v 0.03613080387066203 0.025025243040441847 0.07308579601289278
v 0.03613080387066203 0.025025243040441847 0.07308579601289278
v 0.03478758023508499 0.026941237775611748 0.07300000346731395
v 0.03550516678650251 0.025988110822992017 0.07300000346731395
v 0.042671949506056794 0.02015847111128455 0.08681767685311037
v 0.04688076241958772 0.020436074273884053 0.09605508879088731
v 0.04136712080028193 0.026237151438458506 0.09308004439909201
v 0.04688076241958772 0.020436074273884053 0.09605508879088731
v 0.04671843559913347 0.030592492602967702 0.10727235159174509
v 0.04136712080028193 0.026237151438458506 0.09308004439909201
v 0.04671843559913347 0.030592492602967702 0.10727235159174509
v 0.033975782100823526 0.04209511384633435 0.10238959989498309
v 0.04136712080028193 0.026237151438458506 0.09308004439909201
v 0.04136712080028193 0.026237151438458506 0.09308004439909201
v 0.03314577260095097 0.03309707035864751 0.08637711744497789
v 0.042671949506056794 0.02015847111128455 0.08681767685311037
v 0.04136712080028193 0.026237151438458506 0.09308004439909201
v 0.033975782100823526 0.04209511384633435 0.10238959989498309
v 0.03314577260095097 0.03309707035864751 0.08637711744497789
v 0.042671949506056794 0.02015847111128455 0.08681767685311037
v 0.03314577260095097 0.03309707035864751 0.08637711744497789
v 0.03902518648494446 0.022701062327021848 0.08051143265709548
v 0.03902518648494446 0.022701062327021848 0.08051143265709548
v 0.03219416199056635 0.030645452047621813 0.07849902716600354
v 0.03613080387066203 0.025025243040441847 0.07308579601289278
v 0.03314577260095097 0.03309707035864751 0.08637711744497789
v 0.03219416199056635 0.030645452047621813 0.07849902716600354
v 0.03902518648494446 0.022701062327021848 0.08051143265709548
v 0.03911079592504585 0.020152489665687945 0.0730309482930025
v 0.03902518648494446 0.022701062327021848 0.08051143265709548
v 0.03613080387066203 0.025025243040441847 0.07308579601289278
v 0.04694386895945035 -0.02017712116710202 0.09590254666938414
v 0.04534593034595469 -0.012175624472048896 0.08914480251295931
v 0.042039339154964495 -0.019774960503469163 0.0848136865845861
v 0.04499571823215254 0.010050705433437557 0.08657335311103687
v 0.04688076241958772 0.020436074273884053 0.09605508879088731
v 0.042671949506056794 0.02015847111128455 0.08681767685311037
v 0.042671949506056794 0.02015847111128455 0.08681767685311037
v 0.03902518648494446 0.022701062327021848 0.08051143265709548
v 0.042770986681170964 0.00973842190267471 0.07322722973543083
v 0.03911079592504585 0.020152489665687945 0.0730309482930025
v 0.042770986681170964 0.00973842190267471 0.07322722973543083
v 0.03902518648494446 0.022701062327021848 0.08051143265709548
v 0.04453710004630684 -2.6617274952569006e-05 0.08011713789959796
v 0.044029596512680236 -0.0010978102013359942 0.07300802196134715
v 0.04327272239225799 -0.009553030467782664 0.07735868439943783
v 0.04453710004630684 -2.6617274952569006e-05 0.08011713789959796
v 0.04327272239225799 -0.009553030467782664 0.07735868439943783
v 0.046688570332822366 -0.006734299502753893 0.09306248916144177
v 0.044029596512680236 -0.0010978102013359942 0.07300802196134715
v 0.04057463647919368 -0.017885516062529083 0.07300144542294884
v 0.04327272239225799 -0.009553030467782664 0.07735868439943783
v 0.046688570332822366 -0.006734299502753893 0.09306248916144177
v 0.04327272239225799 -0.009553030467782664 0.07735868439943783
v 0.04534593034595469 -0.012175624472048896 0.08914480251295931
v 0.04057463647919368 -0.017885516062529083 0.07300144542294884
v 0.0391726893911204 -0.02076942161027384 0.07663245755830328
v 0.04327272239225799 -0.009553030467782664 0.07735868439943783
v 0.04327272239225799 -0.009553030467782664 0.07735868439943783
v 0.0391726893911204 -0.02076942161027384 0.07663245755830328
v 0.04534593034595469 -0.012175624472048896 0.08914480251295931
v 0.04534593034595469 -0.012175624472048896 0.08914480251295931
v 0.0391726893911204 -0.02076942161027384 0.07663245755830328
v 0.042039339154964495 -0.019774960503469163 0.0848136865845861
v 0.042770986681170964 0.00973842190267471 0.07322722973543083
v 0.044029596512680236 -0.0010978102013359942 0.07300802196134715
v 0.04453710004630684 -2.6617274952569006e-05 0.08011713789959796
v 0.042770986681170964 0.00973842190267471 0.07322722973543083
v 0.04453710004630684 -2.6617274952569006e-05 0.08011713789959796
v 0.04499571823215254 0.010050705433437557 0.08657335311103687
v 0.042770986681170964 0.00973842190267471 0.07322722973543083
v 0.04499571823215254 0.010050705433437557 0.08657335311103687
v 0.042671949506056794 0.02015847111128455 0.08681767685311037
v 0.04499571823215254 0.010050705433437557 0.08657335311103687
v 0.04453710004630684 -2.6617274952569006e-05 0.08011713789959796
v 0.04688076241958772 0.020436074273884053 0.09605508879088731
v 0.04453710004630684 -2.6617274952569006e-05 0.08011713789959796
v 0.046688570332822366 -0.006734299502753893 0.09306248916144177
v 0.04688076241958772 0.020436074273884053 0.09605508879088731
v 0.04534593034595469 -0.012175624472048896 0.08914480251295931
v 0.04694386895945035 -0.02017712116710202 0.09590254666938414
v 0.046688570332822366 -0.006734299502753893 0.09306248916144177
v 0.04688076241958772 0.020436074273884053 0.09605508879088731
v 0.046688570332822366 -0.006734299502753893 0.09306248916144177
v 0.04694386895945035 -0.02017712116710202 0.09590254666938414
v 0.03252173006032422 -0.02963673350910967 0.07300000346731395
v 0.034166124059327174 -0.02827597370936963 0.07749285493803715
v 0.032882947576260424 -0.029235915618978092 0.07300000346731395
v 0.032882947576260424 -0.029235915618978092 0.07300000346731395
v 0.034166124059327174 -0.02827597370936963 0.07749285493803715
v 0.03327651372654561 -0.028787620004423475 0.07300000346731395
v 0.034012773221965276 -0.034179620458894 0.09054101229607259
v 0.03400002831779547 -0.04200103959259849 0.10287354004248073
v 0.040165163040555285 -0.028898581923756383 0.09448328848429721
v 0.04694386895945035 -0.02017712116710202 0.09590254666938414
v 0.042039339154964495 -0.019774960503469163 0.0848136865845861
v 0.038503820340796135 -0.02567782142531949 0.08571133829958555
v 0.04694386895945035 -0.02017712116710202 0.09590254666938414
v 0.038503820340796135 -0.02567782142531949 0.08571133829958555
v 0.040165163040555285 -0.028898581923756383 0.09448328848429721
v 0.035505182045292294 -0.025988091749504783 0.07300000346731395
v 0.0391726893911204 -0.02076942161027384 0.07663245755830328
v 0.04057463647919368 -0.017885516062529083 0.07300144542294884
v 0.0391726893911204 -0.02076942161027384 0.07663245755830328
v 0.034166124059327174 -0.02827597370936963 0.07749285493803715
v 0.042039339154964495 -0.019774960503469163 0.0848136865845861
v 0.03478759167917733 -0.026941220609473238 0.07300000346731395
v 0.034166124059327174 -0.02827597370936963 0.07749285493803715
v 0.035505182045292294 -0.025988091749504783 0.07300000346731395
v 0.035505182045292294 -0.025988091749504783 0.07300000346731395
v 0.034166124059327174 -0.02827597370936963 0.07749285493803715
v 0.0391726893911204 -0.02076942161027384 0.07663245755830328
v 0.034166124059327174 -0.02827597370936963 0.07749285493803715
v 0.03478759167917733 -0.026941220609473238 0.07300000346731395
v 0.034044629760343614 -0.027874709499636774 0.07300000346731395
v 0.034166124059327174 -0.02827597370936963 0.07749285493803715
v 0.034044629760343614 -0.027874709499636774 0.07300000346731395
v 0.03327651372654561 -0.028787620004423475 0.07300000346731395
v 0.032876935613084246 -0.033459581057018184 0.08666222793215272
v 0.034012773221965276 -0.034179620458894 0.09054101229607259
v 0.038503820340796135 -0.02567782142531949 0.08571133829958555
v 0.038503820340796135 -0.02567782142531949 0.08571133829958555
v 0.042039339154964495 -0.019774960503469163 0.0848136865845861
v 0.034166124059327174 -0.02827597370936963 0.07749285493803715
v 0.03235027848357719 -0.03121009211960679 0.08046115494474648
v 0.038503820340796135 -0.02567782142531949 0.08571133829958555
v 0.034166124059327174 -0.02827597370936963 0.07749285493803715
v 0.038503820340796135 -0.02567782142531949 0.08571133829958555
v 0.03235027848357719 -0.03121009211960679 0.08046115494474648
v 0.032876935613084246 -0.033459581057018184 0.08666222793215272
v 0.034012773221965276 -0.034179620458894 0.09054101229607259
v 0.040165163040555285 -0.028898581923756383 0.09448328848429721
v 0.038503820340796135 -0.02567782142531949 0.08571133829958555
v 0.04694386895945035 -0.02017712116710202 0.09590254666938414
v 0.040165163040555285 -0.028898581923756383 0.09448328848429721
v 0.04702706751076535 -0.027049960467543377 0.10275214874032823
v 0.027913638487081505 -0.03881083863540802 0.09169238716765449
v 0.027906113996367665 -0.03592642382555411 0.08904519313322812
v 0.027918303862058957 -0.03449210140024972 0.08219145593025168
v 0.027913638487081505 -0.03881083863540802 0.09169238716765449
v 0.027918303862058957 -0.03449210140024972 0.08219145593025168
v 0.027916472807284487 -0.03692196830643368 0.08363951508106204
v 0.027916472807284487 -0.03692196830643368 0.08363951508106204
v 0.027918303862058957 -0.03449210140024972 0.08219145593025168
v 0.027900000943709147 -0.03402313394023082 0.07300000346731395
v 0.027916472807284487 -0.03692196830643368 0.08363951508106204
v 0.027900000943709147 -0.03402313394023082 0.07300000346731395
v 0.026563645670885094 -0.038359891806127866 0.07300084270075224
v 0.02797653331123584 0.03561926820183414 0.08790499532516538
v 0.027907098188308943 0.038682966162293386 0.09144940619908226
v 0.027903310193744257 0.03644925099882457 0.07308647502903831
v 0.02797653331123584 0.03561926820183414 0.08790499532516538
v 0.027903310193744257 0.03644925099882457 0.07308647502903831
v 0.02790247668235213 0.03393440407761794 0.07300131572323565
v 0.044649507735972094 0.012277192698919026 0.06300001443643177
v 0.04573728397172072 -0.007521185755338944 0.06299989618081092
v 0.03832333556049505 -0.02601514367644886 0.06299997247475986
v 0.044649507735972094 0.012277192698919026 0.06300001443643177
v 0.03832333556049505 -0.02601514367644886 0.06299997247475986
v 0.0369907854483742 0.027659743669113945 0.06299995721597007
v 0.0369907854483742 0.027659743669113945 0.06299995721597007
v 0.03832333556049505 -0.02601514367644886 0.06299997247475986
v 0.024193352894728015 0.039548425645539176 0.06299991143960071
v 0.024193352894728015 0.039548425645539176 0.06299991143960071
v 0.03832333556049505 -0.02601514367644886 0.06299997247475986
v 0.020077979087808062 -0.04231415377373038 0.06299991525429816
v 0.024193352894728015 0.039548425645539176 0.06299991143960071
v 0.020077979087808062 -0.04231415377373038 0.06299991525429816
v 0.007487172005554432 0.04556850268318646 0.06300000299233943
v 0.007487172005554432 0.04556850268318646 0.06300000299233943
v 0.020077979087808062 -0.04231415377373038 0.06299991525429816
v -0.007457875606000086 0.04557330920196945 0.06299999917764199
v -0.007457875606000086 0.04557330920196945 0.06299999917764199
v 0.020077979087808062 -0.04231415377373038 0.06299991525429816
v -0.02830413189857328 0.03725067697072815 0.06299996484536496
v -0.02830413189857328 0.03725067697072815 0.06299996484536496
v 0.020077979087808062 -0.04231415377373038 0.06299991525429816
v -0.041909654700562626 0.019394001928245697 0.06299999917764199
v -0.041909654700562626 0.019394001928245697 0.06299999917764199
v 0.020077979087808062 -0.04231415377373038 0.06299991525429816
v -0.04671529228843729 -0.002533436180283538 0.06299996484536496
v -0.04671529228843729 -0.002533436180283538 0.06299996484536496
v 0.020077979087808062 -0.04231415377373038 0.06299991525429816
v -0.03956660649357069 -0.023812398134201995 0.06299999917764199
v -0.03956660649357069 -0.023812398134201995 0.06299999917764199
v 0.020077979087808062 -0.04231415377373038 0.06299991525429816
v -0.02410965843274493 -0.040093156811549235 0.06299996484536496
v -0.02410965843274493 -0.040093156811549235 0.06299996484536496
v 0.020077979087808062 -0.04231415377373038 0.06299991525429816
v -0.00248579680805619 -0.046112547203656096 0.06299999917764199
v 0.032876935613084246 -0.033459581057018184 0.08666222793215272
v 0.03400000542961079 -0.020124590875910675 0.0774543646407988
v 0.034012773221965276 -0.034179620458894 0.09054101229607259
v 0.034012773221965276 -0.034179620458894 0.09054101229607259
v 0.03400000542961079 -0.020124590875910675 0.0774543646407988
v 0.034000001614913344 -0.0328501144753357 0.10894714872939915
v 0.034012773221965276 -0.034179620458894 0.09054101229607259
v 0.034000001614913344 -0.0328501144753357 0.10894714872939915
v 0.03400002831779547 -0.04200103959259849 0.10287354004248073
v 0.03400000542961079 -0.020124590875910675 0.0774543646407988
v 0.03400000542961079 5.237098479030663e-08 0.07316331066501203
v 0.034000001614913344 -0.0328501144753357 0.10894714872939915
v 0.034000001614913344 -0.0328501144753357 0.10894714872939915
v 0.03400000542961079 5.237098479030663e-08 0.07316331066501203
v 0.034000001614913344 0.03217392883530845 0.10749706015954708
v 0.03400000542961079 5.237098479030663e-08 0.07316331066501203
v 0.03400000542961079 0.02012468815069557 0.07745441041716816
v 0.034000001614913344 0.03217392883530845 0.10749706015954708
v 0.034000001614913344 0.03217392883530845 0.10749706015954708
v 0.03400000542961079 0.02012468815069557 0.07745441041716816
v 0.03314577260095097 0.03309707035864751 0.08637711744497789
v 0.034000001614913344 0.03217392883530845 0.10749706015954708
v 0.03314577260095097 0.03309707035864751 0.08637711744497789
v 0.033975782100823526 0.04209511384633435 0.10238959989498309
v 0.034000001614913344 0.03301916279269124 0.10930967468655961
v 0.034000001614913344 0.0010000000474974513 0.1580000075045973
v 0.034000001614913344 0.03217392883530845 0.10749706015954708
v 0.034000001614913344 0.03217392883530845 0.10749706015954708
v 0.034000001614913344 0.0010000000474974513 0.1580000075045973
v 0.034000001614913344 -0.0010000000474974513 0.1580000075045973
v 0.034000001614913344 0.03217392883530845 0.10749706015954708
v 0.034000001614913344 -0.0010000000474974513 0.1580000075045973
v 0.034000001614913344 -0.0328501144753357 0.10894714872939915
v 0.034000001614913344 -0.0328501144753357 0.10894714872939915
v 0.034000001614913344 -0.0010000000474974513 0.1580000075045973
v 0.034001916593031645 -0.037307134492940985 0.15023255108097544
v 0.034000001614913344 0.04265161716866528 0.10481798288386024
v 0.03400069970454611 0.045536909358931954 0.11382668845091093
v 0.034000001614913344 0.03301916279269124 0.10930967468655961
v 0.03400069970454611 0.045536909358931954 0.11382668845091093
v 0.03400464791640356 0.04527945542824652 0.1338640963240234
v 0.034000001614913344 0.03301916279269124 0.10930967468655961
v 0.034000001614913344 0.03301916279269124 0.10930967468655961
v 0.03400464791640356 0.04527945542824652 0.1338640963240234
v 0.034000875180628665 0.0360222032490487 0.1517013164095271
v 0.034000001614913344 0.03301916279269124 0.10930967468655961
v 0.034000875180628665 0.0360222032490487 0.1517013164095271
v 0.034000001614913344 0.0010000000474974513 0.1580000075045973
v 0.034000875180628665 0.0360222032490487 0.1517013164095271
v 0.03400893945103123 0.018074833774768262 0.16581078363242518
v 0.034000001614913344 0.0010000000474974513 0.1580000075045973
v 0.03400893945103123 0.018074833774768262 0.16581078363242518
v 0.034000001614913344 0.0010000000474974513 0.16866074409493947
v 0.034000001614913344 0.0010000000474974513 0.1580000075045973
v 0.034000001614913344 -0.0010000000474974513 0.16866074409493947
v 0.03400893945103123 -0.018074852848255496 0.1658107683736354
v 0.034000001614913344 -0.0010000000474974513 0.1580000075045973
v 0.03400893945103123 -0.018074852848255496 0.1658107683736354
v 0.034001916593031645 -0.037307134492940985 0.15023255108097544
v 0.034000001614913344 -0.0010000000474974513 0.1580000075045973
v 0.034001916593031645 -0.037307134492940985 0.15023255108097544
v 0.034000981992157175 -0.04476496336889735 0.13459296293579115
v 0.034000001614913344 -0.0328501144753357 0.10894714872939915
v 0.034000981992157175 -0.04476496336889735 0.13459296293579115
v 0.03400229043338143 -0.046119036004013125 0.11632828311318733
v 0.034000001614913344 -0.0328501144753357 0.10894714872939915
v 0.034000001614913344 -0.0328501144753357 0.10894714872939915
v 0.03400229043338143 -0.046119036004013125 0.11632828311318733
v 0.034000001614913344 -0.04265161716866528 0.10481798288386024
v -0.030105878352559845 -0.017938967603153833 0.13247766742516376
v -0.03012064504637646 0.018575594830657627 0.13230269488267332
v -0.03012064504637646 -0.01857559673800635 0.11269733201299204
v -0.03012064504637646 -0.01857559673800635 0.11269733201299204
v -0.03012064504637646 0.018575594830657627 0.13230269488267332
v -0.030105878352559845 0.017938967603153833 0.11252234421171181
v -0.03012064504637646 -0.01857559673800635 0.11269733201299204
v -0.030105878352559845 0.017938967603153833 0.11252234421171181
v -0.0301241278651454 0.0014671067696273715 0.1015580721455267
v -0.03012064504637646 0.018575594830657627 0.13230269488267332
v -0.030105878352559845 -0.017938967603153833 0.13247766742516376
v -0.0301241278651454 -0.0014671056967437146 0.14344193186195398
v 0.032882936132168084 0.029235928970419156 0.07300000346731395
v 0.03252174150441656 0.029636743045853287 0.07300000346731395
v 0.03252173006032422 -0.02963673350910967 0.07300000346731395
v 0.03252173006032422 -0.02963673350910967 0.07300000346731395
v 0.03252174150441656 0.029636743045853287 0.07300000346731395
v 0.030291087635648806 0.03191292723599748 0.07300000346731395
v 0.03252173006032422 -0.02963673350910967 0.07300000346731395
v 0.030291087635648806 0.03191292723599748 0.07300000346731395
v 0.030291087635648806 -0.03191292723599748 0.07300000346731395
v 0.030291087635648806 -0.03191292723599748 0.07300000346731395
v 0.030291087635648806 0.03191292723599748 0.07300000346731395
v 0.027900000943709147 -0.03402313394023082 0.07300000346731395
v 0.027900000943709147 -0.03402313394023082 0.07300000346731395
v 0.030291087635648806 0.03191292723599748 0.07300000346731395
v 0.02790247668235213 0.03393440407761794 0.07300131572323565
v 0.027900000943709147 -0.03402313394023082 0.07300000346731395
v 0.02790247668235213 0.03393440407761794 0.07300131572323565
v -0.023785288986796216 -0.039583009692591986 0.07300001109670884
v -0.023785288986796216 -0.039583009692591986 0.07300001109670884
v 0.02790247668235213 0.03393440407761794 0.07300131572323565
v -0.040080671306805815 -0.024131165696950063 0.07300004161428841
v -0.040080671306805815 -0.024131165696950063 0.07300004161428841
v 0.02790247668235213 0.03393440407761794 0.07300131572323565
v -0.04245586596918205 0.019653826693394327 0.07300003398489352
v 0.027903310193744257 0.03644925099882457 0.07308647502903831
v 0.017196228844120753 0.043027547972653846 0.07300001872610373
v 0.02790247668235213 0.03393440407761794 0.07300131572323565
v 0.02790247668235213 0.03393440407761794 0.07300131572323565
v 0.017196228844120753 0.043027547972653846 0.07300001872610373
v 4.056453897505197e-05 0.04617957143779661 0.07300001109670884
v 0.02790247668235213 0.03393440407761794 0.07300131572323565
v 4.056453897505197e-05 0.04617957143779661 0.07300001109670884
v -0.014714706166135127 0.0437725011635548 0.07300001109670884
v 0.02790247668235213 0.03393440407761794 0.07300131572323565
v -0.014714706166135127 0.0437725011635548 0.07300001109670884
v -0.0279277681264245 0.03677763541383605 0.07300001109670884
v 0.02790247668235213 0.03393440407761794 0.07300131572323565
v -0.0279277681264245 0.03677763541383605 0.07300001109670884
v -0.04245586596918205 0.019653826693394327 0.07300003398489352
v -0.040080671306805815 -0.024131165696950063 0.07300004161428841
v -0.04245586596918205 0.019653826693394327 0.07300003398489352
v -0.04611179189356163 -0.002501513361537061 0.07300001109670884
v 0.027900000943709147 -0.03402313394023082 0.07300000346731395
v -0.023785288986796216 -0.039583009692591986 0.07300001109670884
v -0.0024958885901517347 -0.04671769936252623 0.0730000568730782
v 0.027900000943709147 -0.03402313394023082 0.07300000346731395
v -0.0024958885901517347 -0.04671769936252623 0.0730000568730782
v 0.026563645670885094 -0.038359891806127866 0.07300084270075224
v 0.03252173006032422 -0.02963673350910967 0.07300000346731395
v 0.032882947576260424 -0.029235915618978092 0.07300000346731395
v 0.032882936132168084 0.029235928970419156 0.07300000346731395
v 0.032882936132168084 0.029235928970419156 0.07300000346731395
v 0.032882947576260424 -0.029235915618978092 0.07300000346731395
v 0.03327650228245327 0.02878763335586454 0.07300000346731395
v 0.03327650228245327 0.02878763335586454 0.07300000346731395
v 0.032882947576260424 -0.029235915618978092 0.07300000346731395
v 0.03404461450155383 0.027874726665775285 0.07300000346731395
v 0.03404461450155383 0.027874726665775285 0.07300000346731395
v 0.032882947576260424 -0.029235915618978092 0.07300000346731395
v 0.03327651372654561 -0.028787620004423475 0.07300000346731395
v 0.03404461450155383 0.027874726665775285 0.07300000346731395
v 0.03327651372654561 -0.028787620004423475 0.07300000346731395
v 0.03478758023508499 0.026941237775611748 0.07300000346731395
v 0.03478758023508499 0.026941237775611748 0.07300000346731395
v 0.03327651372654561 -0.028787620004423475 0.07300000346731395
v 0.034044629760343614 -0.027874709499636774 0.07300000346731395
v 0.03478758023508499 0.026941237775611748 0.07300000346731395
v 0.034044629760343614 -0.027874709499636774 0.07300000346731395
v 0.03478759167917733 -0.026941220609473238 0.07300000346731395
v 0.03478758023508499 0.026941237775611748 0.07300000346731395
v 0.03478759167917733 -0.026941220609473238 0.07300000346731395
v 0.03550516678650251 0.025988110822992017 0.07300000346731395
v 0.03550516678650251 0.025988110822992017 0.07300000346731395
v 0.03478759167917733 -0.026941220609473238 0.07300000346731395
v 0.035505182045292294 -0.025988091749504783 0.07300000346731395
v 0.03550516678650251 0.025988110822992017 0.07300000346731395
v 0.035505182045292294 -0.025988091749504783 0.07300000346731395
v 0.03613080387066203 0.025025243040441847 0.07308579601289278
v 0.03613080387066203 0.025025243040441847 0.07308579601289278
v 0.035505182045292294 -0.025988091749504783 0.07300000346731395
v 0.04057463647919368 -0.017885516062529083 0.07300144542294884
v 0.03613080387066203 0.025025243040441847 0.07308579601289278
v 0.04057463647919368 -0.017885516062529083 0.07300144542294884
v 0.03911079592504585 0.020152489665687945 0.0730309482930025
v 0.04057463647919368 -0.017885516062529083 0.07300144542294884
v 0.044029596512680236 -0.0010978102013359942 0.07300802196134715
v 0.03911079592504585 0.020152489665687945 0.0730309482930025
v 0.03911079592504585 0.020152489665687945 0.0730309482930025
v 0.044029596512680236 -0.0010978102013359942 0.07300802196134715
v 0.042770986681170964 0.00973842190267471 0.07322722973543083
usemtl DefaultMaterial_0
f 1 2 3
f 4 5 6
f 7 8 9
f 10 11 12
f 13 14 15
f 16 17 18
f 19 20 21
f 22 23 24
f 25 26 27
f 28 29 30
f 31 32 33
f 34 35 36
f 37 38 39
f 40 41 42
f 43 44 45
f 46 47 48
f 49 50 51
f 52 53 54
f 55 56 57
f 58 59 60
f 61 62 63
f 64 65 66
f 67 68 69
f 70 71 72
f 73 74 75
f 76 77 78
f 79 80 81
f 82 83 84
f 85 86 87
f 88 89 90
f 91 92 93
f 94 95 96
f 97 98 99
f 100 101 102
f 103 104 105
f 106 107 108
f 109 110 111
f 112 113 114
f 115 116 117
f 118 119 120
f 121 122 123
f 124 125 126
f 127 128 129
f 130 131 132
f 133 134 135
f 136 137 138
f 139 140 141
f 142 143 144
f 145 146 147
f 148 149 150
f 151 152 153
f 154 155 156
f 157 158 159
f 160 161 162
f 163 164 165
f 166 167 168
f 169 170 171
f 172 173 174
f 175 176 177
f 178 179 180
f 181 182 183
f 184 185 186
f 187 188 189
f 190 191 192
f 193 194 195
f 196 197 198
f 199 200 201
f 202 203 204
f 205 206 207
f 208 209 210
f 211 212 213
f 214 215 216
f 217 218 219
f 220 221 222
f 223 224 225
f 226 227 228
f 229 230 231
f 232 233 234
f 235 236 237
f 238 239 240
f 241 242 243
f 244 245 246
f 247 248 249
f 250 251 252
f 253 254 255
f 256 257 258
f 259 260 261
f 262 263 264
f 265 266 267
f 268 269 270
f 271 272 273
f 274 275 276
f 277 278 279
f 280 281 282
f 283 284 285
f 286 287 288
f 289 290 291
f 292 293 294
f 295 296 297
f 298 299 300
f 301 302 303
f 304 305 306
f 307 308 309
f 310 311 312
f 313 314 315
f 316 317 318
f 319 320 321
f 322 323 324
f 325 326 327
f 328 329 330
f 331 332 333
f 334 335 336
f 337 338 339
f 340 341 342
f 343 344 345
f 346 347 348
f 349 350 351
f 352 353 354
f 355 356 357
f 358 359 360
f 361 362 363
f 364 365 366
f 367 368 369
f 370 371 372
f 373 374 375
f 376 377 378
f 379 380 381
f 382 383 384
f 385 386 387
f 388 389 390
f 391 392 393
f 394 395 396
f 397 398 399
f 400 401 402
f 403 404 405
f 406 407 408
f 409 410 411
f 412 413 414
f 415 416 417
f 418 419 420
f 421 422 423
f 424 425 426
f 427 428 429
f 430 431 432
f 433 434 435
f 436 437 438
f 439 440 441
f 442 443 444
f 445 446 447
f 448 449 450
f 451 452 453
f 454 455 456
f 457 458 459
f 460 461 462
f 463 464 465
f 466 467 468
f 469 470 471
f 472 473 474
f 475 476 477
f 478 479 480
f 481 482 483
f 484 485 486
f 487 488 489
f 490 491 492
f 493 494 495
f 496 497 498
f 499 500 501
f 502 503 504
f 505 506 507
f 508 509 510
f 511 512 513
f 514 515 516
f 517 518 519
f 520 521 522
f 523 524 525
f 526 527 528
f 529 530 531
f 532 533 534
f 535 536 537
f 538 539 540
f 541 542 543
f 544 545 546
f 547 548 549
f 550 551 552
f 553 554 555
f 556 557 558
f 559 560 561
f 562 563 564
f 565 566 567
f 568 569 570
f 571 572 573
f 574 575 576
f 577 578 579
f 580 581 582
f 583 584 585
f 586 587 588
f 589 590 591
f 592 593 594
f 595 596 597
f 598 599 600
f 601 602 603
f 604 605 606
f 607 608 609
f 610 611 612
f 613 614 615
f 616 617 618
f 619 620 621
f 622 623 624
f 625 626 627
f 628 629 630
f 631 632 633
f 634 635 636
f 637 638 639
f 640 641 642
f 643 644 645
f 646 647 648
f 649 650 651
f 652 653 654
f 655 656 657
f 658 659 660
f 661 662 663
f 664 665 666
f 667 668 669
f 670 671 672
f 673 674 675
f 676 677 678
f 679 680 681
f 682 683 684
f 685 686 687
f 688 689 690
f 691 692 693
f 694 695 696
f 697 698 699
f 700 701 702
f 703 704 705
f 706 707 708
f 709 710 711
f 712 713 714
f 715 716 717
f 718 719 720
f 721 722 723
f 724 725 726
f 727 728 729
f 730 731 732
f 733 734 735
f 736 737 738
f 739 740 741
f 742 743 744
f 745 746 747
f 748 749 750
f 751 752 753
f 754 755 756
f 757 758 759
f 760 761 762
f 763 764 765
f 766 767 768
f 769 770 771
f 772 773 774
f 775 776 777
f 778 779 780
f 781 782 783
f 784 785 786
f 787 788 789
f 790 791 792
f 793 794 795
f 796 797 798
f 799 800 801
f 802 803 804
f 805 806 807
f 808 809 810
f 811 812 813
f 814 815 816
f 817 818 819
f 820 821 822
f 823 824 825
f 826 827 828
f 829 830 831
f 832 833 834
f 835 836 837
f 838 839 840
f 841 842 843
f 844 845 846
f 847 848 849
f 850 851 852
f 853 854 855
f 856 857 858
f 859 860 861
f 862 863 864
f 865 866 867
f 868 869 870
f 871 872 873
f 874 875 876
f 877 878 879
f 880 881 882
f 883 884 885
f 886 887 888
f 889 890 891
f 892 893 894
f 895 896 897
f 898 899 900
f 901 902 903
f 904 905 906
f 907 908 909
f 910 911 912
f 913 914 915
f 916 917 918
f 919 920 921
f 922 923 924
f 925 926 927
f 928 929 930
f 931 932 933
f 934 935 936
f 937 938 939
f 940 941 942
f 943 944 945
f 946 947 948
f 949 950 951
f 952 953 954
f 955 956 957
f 958 959 960
f 961 962 963
f 964 965 966
f 967 968 969
f 970 971 972
f 973 974 975
f 976 977 978
f 979 980 981
f 982 983 984
f 985 986 987
f 988 989 990
f 991 992 993
f 994 995 996
f 997 998 999
f 1000 1001 1002
f 1003 1004 1005
f 1006 1007 1008
f 1009 1010 1011
f 1012 1013 1014
f 1015 1016 1017
f 1018 1019 1020
f 1021 1022 1023
f 1024 1025 1026
f 1027 1028 1029
f 1030 1031 1032
f 1033 1034 1035
f 1036 1037 1038
f 1039 1040 1041
f 1042 1043 1044
f 1045 1046 1047
f 1048 1049 1050
f 1051 1052 1053
f 1054 1055 1056
f 1057 1058 1059
f 1060 1061 1062
